<svg width="784" height="692" viewBox="0 0 784 692" fill="none" xmlns="http://www.w3.org/2000/svg">
<mask id="path-1-outside-1_44_696" maskUnits="userSpaceOnUse" x="0" y="0" width="784" height="692" fill="black">
<rect fill="white" width="784" height="692"/>
<path fill-rule="evenodd" clip-rule="evenodd" d="M115 51C115 23.3858 137.386 1 165 1H349C376.614 1 399 23.3858 399 51V133C399 160.614 421.386 183 449 183L733 183C760.614 183 783 205.386 783 233V374V532V641C783 668.614 760.614 691 733 691H215C187.386 691 165 668.614 165 641V582C165 554.386 142.614 532 115 532H51C23.3858 532 0.999999 509.614 1 482L1.00001 233C1.00001 205.386 23.3858 183 51 183H65C92.6143 183 115 160.614 115 133V51Z"/>
</mask>
<path fill-rule="evenodd" clip-rule="evenodd" d="M115 51C115 23.3858 137.386 1 165 1H349C376.614 1 399 23.3858 399 51V133C399 160.614 421.386 183 449 183L733 183C760.614 183 783 205.386 783 233V374V532V641C783 668.614 760.614 691 733 691H215C187.386 691 165 668.614 165 641V582C165 554.386 142.614 532 115 532H51C23.3858 532 0.999999 509.614 1 482L1.00001 233C1.00001 205.386 23.3858 183 51 183H65C92.6143 183 115 160.614 115 133V51Z" fill="#D9D9D9"/>
<path d="M733 183V184V183ZM349 0H165V2H349V0ZM400 133V51H398V133H400ZM733 182L449 182V184L733 184V182ZM784 374V233H782V374H784ZM782 374V532H784V374H782ZM782 532V641H784V532H782ZM733 690H215V692H733V690ZM166 641V582H164V641H166ZM51 533H115V531H51V533ZM9.89437e-06 233L0 482H2L2.00001 233H9.89437e-06ZM65 182H51V184H65V182ZM114 51V133H116V51H114ZM2.00001 233C2.00001 205.938 23.9381 184 51 184V182C22.8335 182 1.10269e-05 204.833 9.89437e-06 233H2.00001ZM51 531C23.938 531 2 509.062 2 482H0C-1.07288e-06 510.167 22.8335 533 51 533V531ZM166 582C166 553.833 143.167 531 115 531V533C142.062 533 164 554.938 164 582H166ZM215 690C187.938 690 166 668.062 166 641H164C164 669.167 186.833 692 215 692V690ZM733 184C760.062 184 782 205.938 782 233H784C784 204.833 761.167 182 733 182V184ZM398 133C398 161.167 420.833 184 449 184V182C421.938 182 400 160.062 400 133H398ZM782 641C782 668.062 760.062 690 733 690V692C761.167 692 784 669.167 784 641H782ZM165 0C136.834 0 114 22.8335 114 51H116C116 23.938 137.938 2 165 2V0ZM65 184C93.1666 184 116 161.167 116 133H114C114 160.062 92.062 182 65 182V184ZM349 2C376.062 2 398 23.938 398 51H400C400 22.8335 377.167 0 349 0V2Z" fill="url(#paint0_linear_44_696)" mask="url(#path-1-outside-1_44_696)"/>
<defs>
<linearGradient id="paint0_linear_44_696" x1="0.999995" y1="691" x2="881" y2="195.5" gradientUnits="userSpaceOnUse">
<stop stop-color="#9B9B9B"/>
<stop offset="1"/>
</linearGradient>
</defs>
</svg>
