<svg width="432" height="316" viewBox="0 0 432 316" fill="none" xmlns="http://www.w3.org/2000/svg">
<path fill-rule="evenodd" clip-rule="evenodd" d="M406.026 316C420.371 316 432 304.371 432 290.026L432 133.974C432 130.01 432 125.99 432 122.026L432 25.9741C432 11.629 420.371 2.95009e-05 406.026 2.82469e-05L132.974 4.37589e-06C118.629 3.12181e-06 107 11.629 107 25.974L107 82.026C107 96.371 95.371 108 81.026 108L25.974 108C11.629 108 1.71673e-05 119.629 1.59132e-05 133.974L2.27072e-06 290.026C1.01664e-06 304.371 11.629 316 25.974 316L406.026 316Z" fill="black" fill-opacity="0.05"/>
</svg>
