<svg width="93" height="93" fill="none" xmlns="http://www.w3.org/2000/svg"><path d="M75.675 10.27l-1.165-.884L9.386 74.51c.297.39.602.782.907 1.165L75.675 10.27zM59.758 1.908c-.54-.156-1.08-.305-1.627-.445L1.463 58.13c.14.547.29 1.087.445 1.627l57.85-57.85zm11.185 5.006c-.43-.266-.868-.524-1.306-.782L6.14 69.613c.25.438.508.876.782 1.306l64.02-64.005zm-5.288-2.808c-.477-.219-.962-.43-1.447-.625L3.481 64.208c.195.485.406.97.625 1.447l61.55-61.549zM53.117.461a37.46 37.46 0 00-1.854-.226L.235 51.27c.062.618.133 1.228.226 1.846L53.117.461zM79.39 13.61l-.524-.509-65.765 65.765.509.524.524.516 65.772-65.772-.516-.524zM45.483 0c-.727 0-1.447.047-2.174.102L.102 43.309A28.894 28.894 0 000 45.483L45.483 0zM1.126 36.27L36.27 1.125a44.92 44.92 0 00-2.8.72L1.846 33.469a42.076 42.076 0 00-.72 2.8zm91.78 13.421c.047-.72.078-1.447.094-2.174L47.517 93c.727 0 1.455-.047 2.174-.094l43.215-43.215zm-.141-7.954a49.588 49.588 0 00-.219-1.854L39.891 92.546a49.77 49.77 0 001.853.22l51.021-51.03zM22.878 6.422A46.758 46.758 0 006.453 22.847L22.878 6.422zM91.162 59.53c.266-.922.508-1.853.72-2.791L56.739 91.882a49.466 49.466 0 002.792-.72L91.16 59.53zM70.13 86.578a46.883 46.883 0 0016.425-16.425L70.129 86.578zm16.73-63.215c-.25-.438-.508-.868-.782-1.298l-64.013 64.02c.43.267.86.525 1.298.783L86.86 23.363zm-3.223-4.873c-.297-.39-.594-.782-.907-1.165L17.325 82.73c.383.313.782.61 1.166.907L83.636 18.49zm7.877 16.38c-.14-.54-.29-1.088-.454-1.628l-57.88 57.88a39.5 39.5 0 001.627.454L91.514 34.87zm-1.987-6.078c-.203-.485-.414-.962-.626-1.447L27.376 88.9l1.447.626 60.704-60.735z" fill="#fff"/></svg>