<svg width="303" height="341" viewBox="0 0 303 341" fill="none" xmlns="http://www.w3.org/2000/svg">
<path d="M196.177 26.133C169.571 40.359 135.43 40.3579 108.824 26.1315C101.072 21.986 92.9743 18.2874 84.5844 15.0686C75.7609 11.6834 66.683 8.8554 57.4246 6.59793C27.3961 -0.723819 2 25.0413 2 55.9495V285.054C2 315.961 27.394 341.725 57.4214 334.405C66.6815 332.148 75.7608 329.32 84.5856 325.934C92.9732 322.716 101.068 319.018 108.819 314.874C135.428 300.647 169.573 300.646 196.182 314.873C203.933 319.017 212.028 322.714 220.415 325.932C229.239 329.317 238.317 332.145 247.576 334.403C277.604 341.724 303 315.959 303 285.051V55.9521C303 25.0429 277.602 -0.722546 247.573 6.60033C238.316 8.85781 229.239 11.6857 220.417 15.0704C212.027 18.2892 203.929 21.9876 196.177 26.133Z" fill="#FF227F"/>
<path d="M273.124 59.6891C269.202 65.6207 269.212 67.2222 273.182 73.1226C267.248 69.2032 265.649 69.2101 259.747 73.1819C263.668 67.2461 263.661 65.6473 259.689 59.7456C265.625 63.6664 267.224 63.6595 273.124 59.6891Z" fill="#D6005A"/>
<path d="M265.438 44.0593C254.094 52.0022 252.967 54.9104 255.944 68.4362C247.994 57.0958 245.093 55.9659 231.564 58.9442C242.908 50.9927 244.038 48.0915 241.059 34.5622C249.011 45.9062 251.912 47.0361 265.438 44.0593Z" fill="#D6005A"/>
<path d="M248.634 68.5319C245.976 72.5504 245.983 73.6354 248.673 77.6328C244.652 74.9775 243.569 74.9822 239.571 77.673C242.227 73.6516 242.223 72.5685 239.532 68.5701C243.553 71.2264 244.636 71.2217 248.634 68.5319Z" fill="#D6005A"/>
<path d="M49.0035 157.568C45.0812 163.5 45.091 165.102 49.0614 171.002C43.127 167.083 41.5282 167.089 35.6265 171.061C39.5473 165.125 39.5404 163.527 35.5686 157.625C41.5044 161.546 43.1031 161.539 49.0035 157.568Z" fill="#D6005A"/>
<path d="M41.3171 141.939C29.9736 149.882 28.8468 152.79 31.8235 166.316C23.8736 154.975 20.9725 153.845 7.44318 156.824C18.7871 148.872 19.917 145.971 16.9387 132.442C24.8902 143.786 27.7914 144.915 41.3171 141.939Z" fill="#D6005A"/>
<path d="M24.5131 166.411C21.8559 170.43 21.8624 171.515 24.5523 175.512C20.5319 172.857 19.4488 172.862 15.4504 175.552C18.1067 171.531 18.102 170.448 15.4112 166.45C19.4326 169.106 20.5157 169.101 24.5131 166.411Z" fill="#D6005A"/>
</svg>
