<svg width="300" height="352" viewBox="0 0 300 352" fill="none" xmlns="http://www.w3.org/2000/svg">
<path d="M277.146 289.244C272.578 283.507 276.361 274.096 283.695 274.096L292 274.096C296.419 274.096 300.036 270.507 299.663 266.105C297.968 246.068 289.943 227.403 277.146 211.334C272.578 205.596 276.361 196.185 283.695 196.185L292 196.185C296.419 196.185 300.036 192.597 299.663 188.194C297.966 168.169 289.941 149.497 277.145 133.424C272.577 127.686 276.361 118.275 283.695 118.275L292 118.275C296.419 118.275 300.036 114.68 299.663 110.277C294.449 48.6826 229.445 -6.41192e-05 150 -6.75919e-05C70.5553 -7.10645e-05 5.55191 48.6826 0.337642 110.277C-0.0350392 114.68 3.582 118.275 8.00027 118.275L16.3175 118.275C23.65 118.275 27.4332 127.681 22.8659 133.417C10.0701 149.488 2.03533 168.155 0.337669 188.194C-0.0353173 192.597 3.58199 196.185 8.00027 196.185L16.3175 196.185C23.65 196.185 27.4332 205.592 22.8659 211.328C10.0701 227.399 2.03533 246.066 0.337665 266.105C-0.0353207 270.507 3.58199 274.096 8.00026 274.096L16.3175 274.096C23.65 274.096 27.4332 283.503 22.8659 289.239C10.0704 305.309 2.03581 323.975 0.337815 344.009C-0.0353241 348.411 3.58199 352 8.00026 352L292 352C296.419 352 300.036 348.411 299.663 344.009C297.967 323.977 289.942 305.314 277.146 289.244Z" fill="#79D98C"/>
<path d="M274.125 72.689C270.202 78.6205 270.212 80.2221 274.183 86.1225C268.248 82.203 266.649 82.2099 260.748 86.1818C264.669 80.246 264.662 78.6472 260.69 72.7454C266.626 76.6663 268.224 76.6594 274.125 72.689Z" fill="#47BD5E"/>
<path d="M266.438 57.0592C255.095 65.0021 253.968 67.9103 256.945 81.436C248.995 70.0956 246.094 68.9658 232.564 71.944C243.908 63.9926 245.038 61.0914 242.06 47.5621C250.011 58.9061 252.913 60.0359 266.438 57.0592Z" fill="#47BD5E"/>
<path d="M249.634 81.5317C246.977 85.5503 246.984 86.6353 249.674 90.6327C245.653 87.9774 244.57 87.982 240.572 90.6729C243.228 86.6515 243.223 85.5684 240.532 81.57C244.554 84.2263 245.637 84.2216 249.634 81.5317Z" fill="#47BD5E"/>
<path d="M66.0041 90.5684C62.0819 96.5 62.0916 98.1015 66.062 104.002C60.1276 100.083 58.5288 100.089 52.6271 104.061C56.5479 98.1254 56.541 96.5267 52.5692 90.6249C58.505 94.5457 60.1037 94.5388 66.0041 90.5684Z" fill="#47BD5E"/>
<path d="M58.3177 74.9387C46.9742 82.8815 45.8475 85.7898 48.8242 99.3155C40.8742 87.9751 37.9731 86.8452 24.4438 89.8235C35.7877 81.872 36.9176 78.9709 33.9393 65.4416C41.8908 76.7855 44.792 77.9154 58.3177 74.9387Z" fill="#47BD5E"/>
<path d="M41.5137 99.4112C38.8565 103.43 38.8631 104.515 41.5529 108.512C37.5325 105.857 36.4494 105.861 32.451 108.552C35.1073 104.531 35.1026 103.448 32.4118 99.4495C36.4332 102.106 37.5163 102.101 41.5137 99.4112Z" fill="#47BD5E"/>
</svg>
