<svg width="303" height="332" viewBox="0 0 303 332" fill="none" xmlns="http://www.w3.org/2000/svg">
<path d="M258.677 0H44.3227C19.844 0 0 26.0388 0 58.1593C0 90.2798 19.844 116.319 44.3227 116.319H258.677C283.156 116.319 303 90.2798 303 58.1593C303 26.0388 283.156 0 258.677 0Z" fill="#E5F938"/>
<path d="M258.677 107.841H44.3227C19.844 107.841 0 133.88 0 166C0 198.12 19.844 224.159 44.3227 224.159H258.677C283.156 224.159 303 198.12 303 166C303 133.88 283.156 107.841 258.677 107.841Z" fill="#E5F938"/>
<path d="M258.677 215.681H44.3227C19.844 215.681 0 241.72 0 273.841C0 305.961 19.844 332 44.3227 332H258.677C283.156 332 303 305.961 303 273.841C303 241.72 283.156 215.681 258.677 215.681Z" fill="#E5F938"/>
<path d="M296.124 48.6891C292.202 54.6207 292.212 56.2222 296.182 62.1226C290.248 58.2032 288.649 58.2101 282.747 62.1819C286.668 56.2461 286.661 54.6473 282.689 48.7456C288.625 52.6664 290.224 52.6595 296.124 48.6891Z" fill="#ACC000"/>
<path d="M288.438 33.0593C277.094 41.0022 275.967 43.9104 278.944 57.4362C270.994 46.0958 268.093 44.9659 254.564 47.9442C265.908 39.9927 267.038 37.0915 264.059 23.5622C272.011 34.9062 274.912 36.0361 288.438 33.0593Z" fill="#ACC000"/>
<path d="M271.634 57.5319C268.976 61.5504 268.983 62.6354 271.673 66.6328C267.653 63.9775 266.569 63.9822 262.571 66.673C265.227 62.6516 265.223 61.5685 262.532 57.5701C266.553 60.2264 267.636 60.2217 271.634 57.5319Z" fill="#ACC000"/>
<path d="M56.0035 170.568C52.0813 176.5 52.091 178.102 56.0614 184.002C50.127 180.083 48.5283 180.089 42.6265 184.061C46.5473 178.125 46.5404 176.527 42.5686 170.625C48.5044 174.546 50.1031 174.539 56.0035 170.568Z" fill="#ACC000"/>
<path d="M48.3171 154.939C36.9736 162.882 35.8468 165.79 38.8235 179.316C30.8736 167.975 27.9725 166.845 14.4432 169.824C25.7871 161.872 26.917 158.971 23.9387 145.442C31.8902 156.786 34.7914 157.915 48.3171 154.939Z" fill="#ACC000"/>
<path d="M31.5131 179.411C28.8559 183.43 28.8625 184.515 31.5524 188.512C27.5319 185.857 26.4488 185.862 22.4504 188.552C25.1067 184.531 25.1021 183.448 22.4112 179.45C26.4326 182.106 27.5157 182.101 31.5131 179.411Z" fill="#ACC000"/>
</svg>
