<svg width="303" height="326" viewBox="0 0 303 326" fill="none" xmlns="http://www.w3.org/2000/svg">
<path d="M253 326C280.614 326 303 303.614 303 276V134.003C303 60.3009 235.275 0 152.5 0C69.7246 0 2 60.3009 2 134.003V276C2 303.614 24.3858 326 52 326H253Z" fill="#2A68FF"/>
<path d="M273.124 72.6891C269.202 78.6207 269.212 80.2222 273.182 86.1226C267.248 82.2032 265.649 82.2101 259.747 86.1819C263.668 80.2461 263.661 78.6473 259.689 72.7456C265.625 76.6664 267.224 76.6595 273.124 72.6891Z" fill="#1753E6"/>
<path d="M265.438 57.0593C254.094 65.0022 252.967 67.9104 255.944 81.4362C247.994 70.0958 245.093 68.9659 231.564 71.9442C242.908 63.9927 244.038 61.0915 241.059 47.5622C249.011 58.9062 251.912 60.0361 265.438 57.0593Z" fill="#1753E6"/>
<path d="M248.634 81.5319C245.976 85.5504 245.983 86.6354 248.673 90.6328C244.652 87.9775 243.569 87.9822 239.571 90.673C242.227 86.6516 242.223 85.5685 239.532 81.5701C243.553 84.2264 244.636 84.2217 248.634 81.5319Z" fill="#1753E6"/>
<path d="M49.0035 170.568C45.0812 176.5 45.091 178.102 49.0614 184.002C43.127 180.083 41.5282 180.089 35.6265 184.061C39.5473 178.125 39.5404 176.527 35.5686 170.625C41.5044 174.546 43.1031 174.539 49.0035 170.568Z" fill="#1753E6"/>
<path d="M41.3171 154.939C29.9736 162.882 28.8468 165.79 31.8235 179.316C23.8736 167.975 20.9725 166.845 7.44318 169.824C18.7871 161.872 19.917 158.971 16.9387 145.442C24.8902 156.786 27.7914 157.915 41.3171 154.939Z" fill="#1753E6"/>
<path d="M24.5131 179.411C21.8559 183.43 21.8624 184.515 24.5523 188.512C20.5319 185.857 19.4488 185.862 15.4504 188.552C18.1067 184.531 18.102 183.448 15.4112 179.45C19.4326 182.106 20.5157 182.101 24.5131 179.411Z" fill="#1753E6"/>
</svg>
