<svg width="784" height="692" fill="none" xmlns="http://www.w3.org/2000/svg"><mask id="path-1-outside-1_44_696" maskUnits="userSpaceOnUse" x="0" y="0" width="784" height="692" fill="#000"><path fill="#fff" d="M0 0h784v692H0z"/><path fill-rule="evenodd" clip-rule="evenodd" d="M115 51c0-27.614 22.386-50 50-50h184c27.614 0 50 22.386 50 50v82c0 27.614 22.386 50 50 50h284c27.614 0 50 22.386 50 50v408c0 27.614-22.386 50-50 50H215c-27.614 0-50-22.386-50-50v-59c0-27.614-22.386-50-50-50H51c-27.614 0-50-22.386-50-50V233c0-27.614 22.386-50 50-50h14c27.614 0 50-22.386 50-50V51z"/></mask><path fill-rule="evenodd" clip-rule="evenodd" d="M115 51c0-27.614 22.386-50 50-50h184c27.614 0 50 22.386 50 50v82c0 27.614 22.386 50 50 50h284c27.614 0 50 22.386 50 50v408c0 27.614-22.386 50-50 50H215c-27.614 0-50-22.386-50-50v-59c0-27.614-22.386-50-50-50H51c-27.614 0-50-22.386-50-50V233c0-27.614 22.386-50 50-50h14c27.614 0 50-22.386 50-50V51z" fill="#D9D9D9"/><path d="M733 183v1-1zM349 0H165v2h184V0zm51 133V51h-2v82h2zm333 49H449v2h284v-2zm51 192V233h-2v141h2zm-2 0v158h2V374h-2zm0 158v109h2V532h-2zm-49 158H215v2h518v-2zm-567-49v-59h-2v59h2zM51 533h64v-2H51v2zM0 233v249h2V233H0zm65-51H51v2h14v-2zm49-131v82h2V51h-2zM2 233c0-27.062 21.938-49 49-49v-2c-28.166 0-51 22.833-51 51h2zm49 298c-27.062 0-49-21.938-49-49H0c0 28.167 22.834 51 51 51v-2zm115 51c0-28.167-22.833-51-51-51v2c27.062 0 49 21.938 49 49h2zm49 108c-27.062 0-49-21.938-49-49h-2c0 28.167 22.833 51 51 51v-2zm518-506c27.062 0 49 21.938 49 49h2c0-28.167-22.833-51-51-51v2zm-335-51c0 28.167 22.833 51 51 51v-2c-27.062 0-49-21.938-49-49h-2zm384 508c0 27.062-21.938 49-49 49v2c28.167 0 51-22.833 51-51h-2zM165 0c-28.166 0-51 22.834-51 51h2c0-27.062 21.938-49 49-49V0zM65 184c28.167 0 51-22.833 51-51h-2c0 27.062-21.938 49-49 49v2zM349 2c27.062 0 49 21.938 49 49h2c0-28.166-22.833-51-51-51v2z" fill="url(#paint0_linear_44_696)" mask="url(#path-1-outside-1_44_696)"/><defs><linearGradient id="paint0_linear_44_696" x1="1" y1="691" x2="881" y2="195.5" gradientUnits="userSpaceOnUse"><stop stop-color="#9B9B9B"/><stop offset="1"/></linearGradient></defs></svg>