<svg width="105" height="105" viewBox="0 0 105 105" fill="none" xmlns="http://www.w3.org/2000/svg">
<path d="M14.0461 0.00146484H13.5635V105.001H14.0461V0.00146484Z" fill="#B9C3D5"/>
<path d="M29.5268 0.00146484H29.0442V105.001H29.5268V0.00146484Z" fill="#B9C3D5"/>
<path d="M45.0009 0.00146484H44.5184V105.001H45.0009V0.00146484Z" fill="#B9C3D5"/>
<path d="M60.4816 0.00146484H59.9991V105.001H60.4816V0.00146484Z" fill="#B9C3D5"/>
<path d="M75.9623 0.00146484H75.4798V105.001H75.9623V0.00146484Z" fill="#B9C3D5"/>
<path d="M91.443 0.00146484H90.9604V105.001H91.443V0.00146484Z" fill="#B9C3D5"/>
<path d="M105 13.565H0V14.0475H105V13.565Z" fill="#B9C3D5"/>
<path d="M105 29.0457H0V29.5282H105V29.0457Z" fill="#B9C3D5"/>
<path d="M105 44.5198H0V45.0024H105V44.5198Z" fill="#B9C3D5"/>
<path d="M105 60.0005H0V60.4831H105V60.0005Z" fill="#B9C3D5"/>
<path d="M105 75.4812H0V75.9638H105V75.4812Z" fill="#B9C3D5"/>
<path d="M105 90.9619H0V91.4444H105V90.9619Z" fill="#B9C3D5"/>
</svg>
