<svg width="93" height="93" viewBox="0 0 93 93" fill="none" xmlns="http://www.w3.org/2000/svg">
<path d="M75.6749 10.2699L74.5095 9.38604L9.38604 74.5095C9.68326 74.9006 9.98831 75.2917 10.2934 75.6749L75.6749 10.2699Z" fill="white"/>
<path d="M59.7578 1.90849C59.2181 1.75206 58.6784 1.60345 58.1309 1.46266L1.46266 58.1309C1.60345 58.6784 1.75206 59.2181 1.90849 59.7578L59.7578 1.90849Z" fill="white"/>
<path d="M70.9428 6.91438C70.5126 6.64844 70.0746 6.39033 69.6366 6.13221L6.14003 69.6131C6.39033 70.0511 6.64844 70.4892 6.9222 70.9193L70.9428 6.91438Z" fill="white"/>
<path d="M65.6553 4.10639C65.1782 3.88738 64.6933 3.6762 64.2083 3.48066L3.48066 64.2083C3.6762 64.6933 3.88738 65.1782 4.10639 65.6553L65.6553 4.10639Z" fill="white"/>
<path d="M53.1172 0.46148C52.4992 0.36762 51.8813 0.297225 51.2634 0.234651L0.234651 51.2712C0.297225 51.8892 0.36762 52.4992 0.46148 53.1172L53.1172 0.46148Z" fill="white"/>
<path d="M79.3902 13.6098L78.8662 13.1013L13.1013 78.8662L13.6098 79.3902L14.1338 79.9065L79.9065 14.1338L79.3902 13.6098Z" fill="white"/>
<path d="M45.4832 0C44.7558 0 44.0362 0.0469302 43.3087 0.101682L0.101682 43.3087C0.0469302 44.0362 0 44.7558 0 45.4832L45.4832 0Z" fill="white"/>
<path d="M1.12632 36.2692L36.2692 1.12632C35.3306 1.33751 34.3998 1.57216 33.4691 1.84592L1.84592 33.4691C1.56434 34.4155 1.33751 35.3306 1.12632 36.2692Z" fill="white"/>
<path d="M92.9061 49.6912C92.9531 48.9717 92.9844 48.2442 93 47.5168L47.5168 93C48.2442 93 48.9717 92.9531 49.6912 92.9061L92.9061 49.6912Z" fill="white"/>
<path d="M92.7653 41.7366C92.7028 41.1187 92.6324 40.5008 92.5463 39.8828L39.8907 92.5463C40.5086 92.6324 41.1265 92.7028 41.7444 92.7654L92.7653 41.7366Z" fill="white"/>
<path d="M22.8785 6.42161C16.1088 10.428 10.4592 16.0775 6.4529 22.8472L22.8785 6.42161Z" fill="white"/>
<path d="M91.1619 59.5309C91.4278 58.608 91.6703 57.6772 91.8815 56.7386L56.7386 91.8815C57.6772 91.6703 58.608 91.4278 59.5309 91.1619L91.1619 59.5309Z" fill="white"/>
<path d="M70.1294 86.5784C76.8957 82.5678 82.5443 76.9192 86.5549 70.1528L70.1294 86.5784Z" fill="white"/>
<path d="M86.86 23.3634C86.6097 22.9254 86.3516 22.4952 86.0778 22.065L22.065 86.0856C22.4952 86.3516 22.9254 86.6097 23.3634 86.8678L86.86 23.3634Z" fill="white"/>
<path d="M83.6374 18.4905C83.3402 18.0994 83.043 17.7083 82.7301 17.3251L17.3251 82.7301C17.7083 83.043 18.1072 83.3402 18.4905 83.6374L83.6374 18.4905Z" fill="white"/>
<path d="M91.5139 34.8691C91.3731 34.3294 91.2245 33.7819 91.0602 33.2422L33.1796 91.1228C33.7193 91.287 34.2669 91.4357 34.8066 91.5765L91.5139 34.8691Z" fill="white"/>
<path d="M89.5272 28.7917C89.3238 28.3067 89.1126 27.8296 88.9014 27.3447L27.3759 88.9014L28.823 89.5272L89.5272 28.7917Z" fill="white"/>
</svg>
