<svg width="60" height="48" fill="none" xmlns="http://www.w3.org/2000/svg"><path d="M5.09 6.876C9.298 2.313 15.665 0 24.011 0h3v8.457l-2.412.483c-4.108.822-6.967 2.439-8.496 4.812A8.708 8.708 0 0014.789 18h9.222a2.998 2.998 0 013 3v21c0 3.309-2.69 6-5.999 6H3.018a2.999 2.999 0 01-3-3V30l.01-8.757C0 20.91-.57 13.02 5.09 6.876zM54.002 48H36.008a2.999 2.999 0 01-3-3V30l.01-8.757c-.027-.333-.597-8.223 5.062-14.367C42.288 2.313 48.655 0 57.001 0h3v8.457l-2.412.483c-4.109.822-6.967 2.439-8.496 4.812A8.708 8.708 0 0047.779 18H57a2.999 2.999 0 013 3v21c0 3.309-2.691 6-6 6z" fill="#95A600"/></svg>