<svg width="565" height="444" fill="none" xmlns="http://www.w3.org/2000/svg"><path d="M47.933 63.603C87.556 21.395 147.512 0 226.107 0h28.241v78.227l-22.706 4.468c-38.691 7.604-65.604 22.561-80.007 44.511-7.515 11.825-11.778 25.365-12.37 39.294h86.842c7.49 0 14.673 2.924 19.969 8.128 5.296 5.204 8.272 12.262 8.272 19.622V388.5c0 30.608-25.333 55.5-56.483 55.5H28.419c-7.49 0-14.674-2.924-19.97-8.128C3.153 430.668.178 423.61.178 416.25V277.5l.084-81.002c-.254-3.081-5.62-76.063 47.671-132.895zM508.518 444H339.071c-7.49 0-14.673-2.924-19.969-8.128-5.297-5.204-8.272-12.262-8.272-19.622V277.5l.085-81.002c-.255-3.081-5.62-76.063 47.671-132.895C398.208 21.395 458.164 0 536.759 0H565v78.227l-22.706 4.468c-38.69 7.604-65.604 22.561-80.007 44.511-7.515 11.825-11.777 25.365-12.37 39.294h86.842c7.49 0 14.673 2.924 19.969 8.128 5.297 5.204 8.272 12.262 8.272 19.622V388.5c0 30.608-25.332 55.5-56.482 55.5z" fill="#FAFAFA"/></svg>