<svg width="251" height="247" fill="none" xmlns="http://www.w3.org/2000/svg"><path d="M232.03 192.328c2.848.613 4.81-2.784 2.856-4.945l-41.077-45.421a2.999 2.999 0 01.823-4.664l54.143-28.621c2.576-1.361 1.895-5.224-.99-5.624l-60.66-8.401a3 3 0 01-2.368-4.102l23.061-56.692c1.097-2.698-1.907-5.22-4.374-3.67l-51.84 32.546a3 3 0 01-4.45-1.618L128.338 2.848c-.895-2.771-4.817-2.77-5.71.002l-18.783 58.263a3 3 0 01-4.45 1.62L47.55 30.183c-2.466-1.549-5.47.972-4.375 3.67L66.206 90.55a3 3 0 01-2.367 4.101L3.21 103.053c-2.885.4-3.565 4.262-.99 5.623l54.112 28.622a3 3 0 01.823 4.663l-41.047 45.423c-1.953 2.161.01 5.557 2.857 4.944l59.822-12.871a3 3 0 013.63 3.044l-2.269 61.206c-.108 2.91 3.578 4.252 5.366 1.953l37.599-48.332a3 3 0 014.735 0l37.599 48.332c1.788 2.299 5.474.957 5.366-1.953l-2.268-61.207a3 3 0 013.628-3.044l59.857 12.872z" fill="#3CC13B"/></svg>