<svg width="359" height="320" fill="none" xmlns="http://www.w3.org/2000/svg"><path d="M306.486 0H52.514C23.511 0 0 25.098 0 56.057c0 30.96 23.512 56.057 52.514 56.057h253.972c29.003 0 52.514-25.097 52.514-56.057S335.489 0 306.486 0z" fill="#D8F1E5"/><path d="M306.486 103.943H52.514C23.511 103.943 0 129.04 0 160s23.512 56.057 52.514 56.057h253.972C335.489 216.057 359 190.96 359 160s-23.511-56.057-52.514-56.057z" fill="#D8F1E5"/><path d="M306.486 207.886H52.514C23.511 207.886 0 232.983 0 263.943 0 294.902 23.512 320 52.514 320h253.972C335.489 320 359 294.902 359 263.943c0-30.96-23.511-56.057-52.514-56.057z" fill="#D8F1E5"/></svg>