<svg width="236" height="148" fill="none" xmlns="http://www.w3.org/2000/svg"><path d="M89.51 147.033v-4.208c0-22.307 2.85-38.806 8.548-49.5 5.699-10.693 12.398-16.028 20.096-16.005 8.411 0 15.339 5.485 20.889 16.488 5.55 11.004 8.307 27.182 8.307 48.499v4.691h88.243v-5.174c0-45.992-10.985-81.004-32.953-105.035-21.969-24.03-49.97-36-84.003-35.908A117.399 117.399 0 0076.79 8.366a116.428 116.428 0 00-37.4 23.56C27.718 42.412 18.353 57.187 11.299 76.25A193.776 193.776 0 00.957 142.825v4.208H89.51z" fill="#FED000"/></svg>