<svg width="101" height="28" fill="none" xmlns="http://www.w3.org/2000/svg"><g clip-path="url(#clip0_0_2372)" fill="#00030C"><path d="M27.199 8.496a13.541 13.541 0 00-2.994-4.473 13.937 13.937 0 00-4.473-2.97A14.242 14.242 0 0014.204 0a14.201 14.201 0 00-5.52 1.062 13.678 13.678 0 00-7.434 7.41 13.984 13.984 0 00-1.062 5.463 14.281 14.281 0 001.062 5.512 13.493 13.493 0 002.961 4.474 13.928 13.928 0 004.498 2.993A14.082 14.082 0 0014.253 28a13.888 13.888 0 006.71-1.674l-3.685-3.717c-.99.331-2.03.494-3.074.483a9.174 9.174 0 01-3.492-.652 7.893 7.893 0 01-2.743-1.859 8.488 8.488 0 01-1.778-2.88 10.573 10.573 0 01-.636-3.75 9.912 9.912 0 011.07-4.763 8.046 8.046 0 013.05-3.218 8.794 8.794 0 014.497-1.135 9.156 9.156 0 013.516.652 8.046 8.046 0 012.776 1.907 8.592 8.592 0 011.794 2.88 10.08 10.08 0 01.636 3.661c.01 1-.118 1.996-.378 2.961l.499.5 3.484 3.523a13.838 13.838 0 001.762-6.927 14.088 14.088 0 00-1.062-5.496zm-5.287 10.058l-3.009-3.01a2.253 2.253 0 00-3.218 0 2.244 2.244 0 000 3.219l6.726 6.726a12.748 12.748 0 001.827-1.536c.503-.499.966-1.037 1.384-1.61l-3.71-3.79z"/><path d="M21.912 18.554a8.11 8.11 0 01-3.057 3.315l-3.146-3.146a2.244 2.244 0 010-3.218 2.252 2.252 0 013.218 0l2.985 3.049z"/><path d="M28.824 25.457a4.578 4.578 0 01-6.437 0l-6.726-6.726a2.246 2.246 0 010-3.218 2.255 2.255 0 013.218 0l3.033 3.041 3.734 3.741 3.178 3.162zM40.62 27.96a8.94 8.94 0 01-4.378-1.046 7.514 7.514 0 01-2.993-2.897 8.31 8.31 0 01-1.086-4.288V8.923h5.1v10.693a4.66 4.66 0 00.387 1.988c.238.534.645.975 1.159 1.255a3.63 3.63 0 001.81.426 3.22 3.22 0 002.478-.965 3.87 3.87 0 00.885-2.704V8.923h5.061V19.73a8.57 8.57 0 01-1.062 4.329 7.33 7.33 0 01-2.977 2.88 9.213 9.213 0 01-4.385 1.022zM55.609 5.906a2.744 2.744 0 01-2.052-.805 2.842 2.842 0 01-.805-2.068A2.849 2.849 0 0153.557.99a2.913 2.913 0 014.12 0c.525.55.814 1.283.804 2.043a2.895 2.895 0 01-.804 2.068 2.737 2.737 0 01-2.068.805zm-2.55 21.667V8.923h5.1v18.65h-5.1zm27.187.009H74.3l-4.072-5.745-2.47-3.492-6.67-9.422h5.986l3.734 5.286 1.858 2.631 7.58 10.742z"/><path d="M80.246 27.582H74.3l-4.072-5.745-2.47-3.492-6.67-9.422h5.986l3.734 5.286 1.858 2.631 7.58 10.742zm-10.967-4.313l-2.856 4.313h-5.721l5.833-8.183 2.382 3.363.362.507zM79.9 8.923l-5.391 7.74-.531-.756-2.229-3.154 2.47-3.83h5.68zM90.134 27.96a8.545 8.545 0 01-4.594-1.271 8.915 8.915 0 01-3.218-3.476 10.58 10.58 0 01-1.159-4.949c-.025-1.73.373-3.44 1.159-4.98a8.85 8.85 0 013.218-3.476 8.48 8.48 0 014.594-1.28 7.837 7.837 0 013.597.805 6.533 6.533 0 012.526 2.261 6.34 6.34 0 011.022 3.267v6.718a6.3 6.3 0 01-1.022 3.283 6.798 6.798 0 01-2.526 2.261 7.74 7.74 0 01-3.597.837zm.925-4.675a4.491 4.491 0 003.444-1.408 5.173 5.173 0 001.312-3.653 5.511 5.511 0 00-.604-2.607 4.417 4.417 0 00-1.69-1.778 4.827 4.827 0 00-2.494-.636 4.747 4.747 0 00-2.413.636 4.473 4.473 0 00-1.658 1.778 5.511 5.511 0 00-.595 2.607 5.56 5.56 0 00.595 2.647c.376.736.95 1.352 1.658 1.778a4.666 4.666 0 002.445.636zm4.482 4.289v-5.045l.805-4.562-.805-4.474v-4.57h5.021v18.65h-5.02z"/></g><defs><clipPath id="clip0_0_2372"><path fill="#fff" transform="translate(.188)" d="M0 0h100.374v28H0z"/></clipPath></defs></svg>