<svg width="125" height="35" fill="none" xmlns="http://www.w3.org/2000/svg"><g clip-path="url(#clip0_0_1488)" fill="#fff"><path d="M33.57 10.56A16.828 16.828 0 0029.85 5a17.32 17.32 0 00-5.56-3.69A17.7 17.7 0 0017.42 0a17.65 17.65 0 00-6.86 1.32 17 17 0 00-9.24 9.21A17.38 17.38 0 000 17.32a17.75 17.75 0 001.32 6.85A16.77 16.77 0 005 29.73a17.31 17.31 0 005.59 3.72c2.182.91 4.526 1.37 6.89 1.35a17.261 17.261 0 008.34-2.08l-4.58-4.62a11.639 11.639 0 01-3.82.6 11.4 11.4 0 01-4.34-.81 9.81 9.81 0 01-3.41-2.31A10.55 10.55 0 017.46 22a13.14 13.14 0 01-.79-4.66A12.32 12.32 0 018 11.42a10 10 0 013.79-4 10.93 10.93 0 015.59-1.41 11.38 11.38 0 014.37.81 10 10 0 013.45 2.37 10.68 10.68 0 012.23 3.58 12.53 12.53 0 01.79 4.55 13.608 13.608 0 01-.47 3.68l.62.62L32.7 26a17.2 17.2 0 002.19-8.61 17.51 17.51 0 00-1.32-6.83zM27 23.06l-3.74-3.74a2.8 2.8 0 00-4 0 2.79 2.79 0 000 4l8.36 8.36a15.836 15.836 0 002.27-1.91c.626-.62 1.2-1.289 1.72-2L27 23.06z"/><path d="M27 23.06a10.08 10.08 0 01-3.8 4.12l-3.91-3.91a2.789 2.789 0 010-4 2.8 2.8 0 014 0L27 23.06z"/><path d="M35.59 31.64a5.69 5.69 0 01-8 0l-8.36-8.36a2.79 2.79 0 010-4 2.8 2.8 0 014 0L27 23.06l4.64 4.65 3.95 3.93zm14.66 3.11a11.112 11.112 0 01-5.44-1.3 9.34 9.34 0 01-3.72-3.6 10.33 10.33 0 01-1.35-5.33V11.09h6.34v13.29a5.79 5.79 0 00.48 2.47A3.31 3.31 0 0048 28.41a4.51 4.51 0 002.25.53 4 4 0 003.08-1.2 4.81 4.81 0 001.1-3.36V11.09h6.29v13.43a10.65 10.65 0 01-1.32 5.38 9.11 9.11 0 01-3.7 3.58 11.452 11.452 0 01-5.45 1.27zM68.88 7.34a3.41 3.41 0 01-2.55-1 3.53 3.53 0 01-1-2.57 3.54 3.54 0 011-2.54 3.619 3.619 0 015.12 0 3.61 3.61 0 011 2.54 3.6 3.6 0 01-1 2.57 3.4 3.4 0 01-2.57 1zm-3.17 26.93V11.09h6.34v23.18h-6.34zm33.79.01h-7.39l-5.06-7.14-3.07-4.34-8.29-11.71h7.44l4.64 6.57 2.31 3.27 9.42 13.35z"/><path d="M99.5 34.28h-7.39l-5.06-7.14-3.07-4.34-8.29-11.71h7.44l4.64 6.57 2.31 3.27 9.42 13.35zm-13.63-5.36l-3.55 5.36h-7.11l7.25-10.17 2.96 4.18.45.63zm13.2-17.83l-6.7 9.62-.66-.94-2.77-3.92 3.07-4.76h7.06zm12.72 23.66a10.62 10.62 0 01-5.71-1.58 11.082 11.082 0 01-4-4.32 13.154 13.154 0 01-1.44-6.15 13.202 13.202 0 011.44-6.19 11 11 0 014-4.32 10.54 10.54 0 015.71-1.59 9.738 9.738 0 014.47 1 8.116 8.116 0 013.14 2.81 7.874 7.874 0 011.27 4.06v8.35a7.835 7.835 0 01-1.27 4.08 8.455 8.455 0 01-3.14 2.81 9.62 9.62 0 01-4.47 1.04zm1.15-5.81a5.582 5.582 0 004.28-1.75 6.431 6.431 0 001.63-4.54 6.854 6.854 0 00-.75-3.24 5.485 5.485 0 00-2.1-2.21 6 6 0 00-3.1-.79 5.902 5.902 0 00-3 .79 5.567 5.567 0 00-2.06 2.21 6.849 6.849 0 00-.74 3.24 6.903 6.903 0 00.74 3.29 5.505 5.505 0 002.06 2.21 5.798 5.798 0 003.04.79zm5.57 5.33V28l1-5.67-1-5.56v-5.68h6.24v23.18h-6.24z"/></g><defs><clipPath id="clip0_0_1488"><path fill="#fff" d="M0 0h124.75v34.8H0z"/></clipPath></defs></svg>