<svg width="90" height="113" viewBox="0 0 90 113" fill="none" xmlns="http://www.w3.org/2000/svg">
<path d="M5.34268 94.5965C13.2639 99.0764 31.2677 82.2285 45.5553 56.9656C59.8429 31.7028 65.0038 7.59151 57.0826 3.1116C49.1614 -1.36831 31.1576 15.4796 16.87 40.7424C2.58239 66.0053 -2.57856 90.1166 5.34268 94.5965Z" stroke="#373C47" stroke-width="3" stroke-miterlimit="10"/>
<path d="M19.0508 102.349C26.9721 106.829 44.9759 89.9812 59.2634 64.7184C73.551 39.4555 78.712 15.3442 70.7907 10.8643C62.8695 6.38442 44.8657 23.2323 30.5781 48.4952C16.2905 73.758 11.1296 97.8693 19.0508 102.349Z" stroke="#373C47" stroke-width="3" stroke-miterlimit="10"/>
<path d="M32.764 110.105C40.6852 114.585 58.689 97.7368 72.9766 72.474C87.2642 47.2111 92.4251 23.0998 84.5039 18.6199C76.5827 14.14 58.5789 30.9879 44.2913 56.2508C30.0037 81.5136 24.8427 105.625 32.764 110.105Z" stroke="#373C47" stroke-width="3" stroke-miterlimit="10"/>
</svg>
