<svg width="14" height="14" viewBox="0 0 14 14" fill="none" xmlns="http://www.w3.org/2000/svg">
<path d="M6.75142 4.11048C4.91337 4.11048 3.43078 5.5934 3.43078 7.43186C3.43078 9.27033 4.91337 10.7532 6.75142 10.7532C8.58948 10.7532 10.0721 9.27033 10.0721 7.43186C10.0721 5.5934 8.58948 4.11048 6.75142 4.11048ZM6.75142 9.5912C5.56362 9.5912 4.59257 8.62282 4.59257 7.43186C4.59257 6.24091 5.56073 5.27253 6.75142 5.27253C7.94211 5.27253 8.91027 6.24091 8.91027 7.43186C8.91027 8.62282 7.93922 9.5912 6.75142 9.5912ZM10.9824 3.97462C10.9824 4.40533 10.6356 4.74932 10.2079 4.74932C9.77728 4.74932 9.43337 4.40244 9.43337 3.97462C9.43337 3.5468 9.78017 3.19992 10.2079 3.19992C10.6356 3.19992 10.9824 3.5468 10.9824 3.97462ZM13.1817 4.76088C13.1326 3.72313 12.8956 2.8039 12.1355 2.04654C11.3784 1.28919 10.4593 1.05215 9.42181 1.00012C8.3525 0.939414 5.14746 0.939414 4.07815 1.00012C3.04352 1.04926 2.12449 1.28629 1.36441 2.04365C0.604336 2.80101 0.370243 3.72024 0.318223 4.75799C0.257532 5.82754 0.257532 9.03329 0.318223 10.1028C0.367353 11.1406 0.604336 12.0598 1.36441 12.8172C2.12449 13.5745 3.04063 13.8116 4.07815 13.8636C5.14746 13.9243 8.3525 13.9243 9.42181 13.8636C10.4593 13.8145 11.3784 13.5774 12.1355 12.8172C12.8927 12.0598 13.1297 11.1406 13.1817 10.1028C13.2424 9.03329 13.2424 5.83043 13.1817 4.76088ZM11.8003 11.2504C11.5749 11.817 11.1385 12.2535 10.5691 12.4819C9.71659 12.8201 7.69357 12.742 6.75142 12.742C5.80927 12.742 3.78337 12.8172 2.9337 12.4819C2.36725 12.2564 1.93086 11.8199 1.70255 11.2504C1.36441 10.3977 1.44244 8.37422 1.44244 7.43186C1.44244 6.4895 1.3673 4.46314 1.70255 3.61329C1.92797 3.04671 2.36436 2.61022 2.9337 2.38186C3.78626 2.04365 5.80927 2.1217 6.75142 2.1217C7.69357 2.1217 9.71948 2.04654 10.5691 2.38186C11.1356 2.60733 11.572 3.04382 11.8003 3.61329C12.1384 4.46603 12.0604 6.4895 12.0604 7.43186C12.0604 8.37422 12.1384 10.4006 11.8003 11.2504Z" fill="#9E9E9E"/>
</svg>
