<svg width="12" height="15" viewBox="0 0 12 15" fill="none" xmlns="http://www.w3.org/2000/svg">
<path d="M6.73719 0.0908203C3.73741 0.0908203 0.772705 2.10288 0.772705 5.35925C0.772705 7.43015 1.93052 8.60679 2.63222 8.60679C2.92168 8.60679 3.08833 7.79491 3.08833 7.56546C3.08833 7.29189 2.3954 6.70945 2.3954 5.57105C2.3954 3.20599 4.18474 1.52927 6.50037 1.52927C8.49146 1.52927 9.96503 2.66767 9.96503 4.75916C9.96503 6.32116 9.34227 9.251 7.32487 9.251C6.59685 9.251 5.97409 8.72151 5.97409 7.96258C5.97409 6.85065 6.74597 5.77402 6.74597 4.62679C6.74597 2.67944 4.00055 3.03243 4.00055 5.38572C4.00055 5.87991 4.06195 6.42705 4.28123 6.87712C3.87775 8.62444 3.05324 11.2278 3.05324 13.028C3.05324 13.584 3.13219 14.1311 3.18481 14.6871C3.28422 14.7989 3.23452 14.7871 3.38655 14.7312C4.86013 12.7015 4.80751 12.3044 5.47413 9.64812C5.83375 10.3365 6.76351 10.7071 7.5003 10.7071C10.6053 10.7071 12 7.66253 12 4.91801C12 1.99699 9.49138 0.0908203 6.73719 0.0908203Z" fill="#9E9E9E"/>
</svg>
