<svg width="16" height="13" viewBox="0 0 16 13" fill="none" xmlns="http://www.w3.org/2000/svg">
<path d="M14.0817 3.61615C14.0911 3.73894 14.0911 3.86176 14.0911 3.98456C14.0911 7.72989 11.0634 12.0454 5.52975 12.0454C3.82493 12.0454 2.24124 11.5805 0.909058 10.7736C1.15128 10.7999 1.38415 10.8086 1.6357 10.8086C3.04237 10.8086 4.3373 10.3613 5.37137 9.59821C4.04851 9.57188 2.93992 8.75615 2.55796 7.63342C2.74429 7.65972 2.9306 7.67727 3.12625 7.67727C3.3964 7.67727 3.66658 7.64217 3.9181 7.5808C2.53935 7.31764 1.50525 6.17738 1.50525 4.80028V4.76521C1.90582 4.97572 2.37165 5.10729 2.86536 5.12481C2.05487 4.61607 1.52389 3.74772 1.52389 2.76533C1.52389 2.23906 1.67292 1.75664 1.93378 1.33561C3.41501 3.05478 5.64153 4.17749 8.13816 4.30031C8.09159 4.0898 8.06363 3.87054 8.06363 3.65125C8.06363 2.08994 9.40513 0.818115 11.0727 0.818115C11.939 0.818115 12.7216 1.1602 13.2712 1.71279C13.9513 1.59 14.6034 1.35316 15.181 1.02863C14.9574 1.68649 14.4823 2.23908 13.8581 2.58991C14.4637 2.52854 15.0506 2.37062 15.5909 2.15136C15.181 2.7127 14.6686 3.21265 14.0817 3.61615Z" fill="#9E9E9E"/>
</svg>
