<svg width="303" height="332" fill="none" xmlns="http://www.w3.org/2000/svg"><path d="M258.677 0H44.323C19.844 0 0 26.039 0 58.16c0 32.12 19.844 58.159 44.323 58.159h214.354c24.479 0 44.323-26.04 44.323-58.16S283.156 0 258.677 0z" fill="#E5F938"/><path d="M258.677 107.841H44.323C19.844 107.841 0 133.88 0 166s19.844 58.159 44.323 58.159h214.354C283.156 224.159 303 198.12 303 166s-19.844-58.159-44.323-58.159z" fill="#E5F938"/><path d="M258.677 215.681H44.323C19.844 215.681 0 241.72 0 273.841 0 305.961 19.844 332 44.323 332h214.354C283.156 332 303 305.961 303 273.841c0-32.121-19.844-58.16-44.323-58.16z" fill="#E5F938"/><path d="M296.124 48.69c-3.922 5.93-3.912 7.532.058 13.433-5.934-3.92-7.533-3.913-13.435.059 3.921-5.936 3.914-7.535-.058-13.436 5.936 3.92 7.535 3.913 13.435-.057zm-7.686-15.63c-11.344 7.942-12.471 10.85-9.494 24.376-7.95-11.34-10.851-12.47-24.38-9.492 11.344-7.951 12.474-10.852 9.495-24.382 7.952 11.344 10.853 12.474 24.379 9.497zm-16.804 24.472c-2.658 4.018-2.651 5.103.039 9.1-4.02-2.655-5.104-2.65-9.102.041 2.656-4.021 2.652-5.105-.039-9.103 4.021 2.656 5.104 2.652 9.102-.038zM56.004 170.568c-3.923 5.932-3.913 7.534.057 13.434-5.934-3.919-7.533-3.913-13.434.059 3.92-5.936 3.913-7.534-.058-13.436 5.935 3.921 7.534 3.914 13.434-.057zm-7.687-15.629c-11.343 7.943-12.47 10.851-9.493 24.377-7.95-11.341-10.851-12.471-24.38-9.492 11.343-7.952 12.473-10.853 9.495-24.382 7.951 11.344 10.852 12.473 24.378 9.497zm-16.804 24.472c-2.657 4.019-2.65 5.104.04 9.101-4.021-2.655-5.104-2.65-9.103.04 2.657-4.021 2.652-5.104-.039-9.102 4.022 2.656 5.105 2.651 9.102-.039z" fill="#ACC000"/></svg>