<svg width="303" height="341" fill="none" xmlns="http://www.w3.org/2000/svg"><path d="M196.177 26.133c-26.606 14.226-60.747 14.225-87.353-.002a213.802 213.802 0 00-24.24-11.062 223.929 223.929 0 00-27.16-8.471C27.397-.724 2 25.04 2 55.95v229.104c0 30.907 25.394 56.671 55.421 49.351a223.75 223.75 0 0027.165-8.471 213.919 213.919 0 0024.233-11.06c26.609-14.227 60.754-14.228 87.363-.001a213.956 213.956 0 0024.233 11.059 224.072 224.072 0 0027.161 8.471C277.604 341.724 303 315.959 303 285.051V55.952c0-30.91-25.398-56.675-55.427-49.352a223.953 223.953 0 00-27.156 8.47 213.816 213.816 0 00-24.24 11.063z" fill="#FF227F"/><path d="M273.124 59.69c-3.922 5.93-3.912 7.532.058 13.433-5.934-3.92-7.533-3.913-13.435.059 3.921-5.936 3.914-7.535-.058-13.436 5.936 3.92 7.535 3.913 13.435-.057zm-7.686-15.63c-11.344 7.942-12.471 10.85-9.494 24.376-7.95-11.34-10.851-12.47-24.38-9.492 11.344-7.951 12.474-10.852 9.495-24.382 7.952 11.344 10.853 12.474 24.379 9.497zm-16.804 24.472c-2.658 4.018-2.651 5.103.039 9.1-4.021-2.654-5.104-2.65-9.102.041 2.656-4.021 2.652-5.105-.039-9.103 4.021 2.656 5.104 2.652 9.102-.038zm-199.63 89.036c-3.923 5.932-3.913 7.534.057 13.434-5.934-3.919-7.533-3.913-13.434.059 3.92-5.936 3.913-7.534-.058-13.436 5.935 3.921 7.534 3.914 13.434-.057zm-7.687-15.629c-11.343 7.943-12.47 10.851-9.494 24.377-7.95-11.341-10.85-12.471-24.38-9.492 11.344-7.952 12.474-10.853 9.496-24.382 7.951 11.344 10.852 12.473 24.378 9.497zm-16.804 24.472c-2.657 4.019-2.65 5.104.04 9.101-4.021-2.655-5.104-2.65-9.103.04 2.657-4.021 2.652-5.104-.039-9.102 4.022 2.656 5.105 2.651 9.102-.039z" fill="#D6005A"/></svg>