<svg width="300" height="352" fill="none" xmlns="http://www.w3.org/2000/svg"><path d="M277.146 289.244c-4.568-5.737-.785-15.148 6.549-15.148H292c4.419 0 8.036-3.589 7.663-7.991-1.695-20.037-9.72-38.702-22.517-54.771-4.568-5.738-.785-15.149 6.549-15.149H292c4.419 0 8.036-3.588 7.663-7.991-1.697-20.025-9.722-38.697-22.518-54.77-4.568-5.738-.784-15.149 6.55-15.149H292c4.419 0 8.036-3.595 7.663-7.998C294.449 48.683 229.445 0 150 0 70.555 0 5.552 48.683.338 110.277c-.373 4.403 3.244 7.998 7.662 7.998h8.317c7.333 0 11.116 9.406 6.549 15.142C10.07 149.488 2.036 168.155.338 188.194c-.373 4.403 3.244 7.991 7.662 7.991h8.317c7.333 0 11.116 9.407 6.549 15.143C10.07 227.399 2.036 246.066.338 266.105c-.373 4.402 3.244 7.991 7.662 7.991h8.317c7.333 0 11.116 9.407 6.549 15.143-12.796 16.07-20.83 34.736-22.528 54.77C-.035 348.411 3.582 352 8 352h284c4.419 0 8.036-3.589 7.663-7.991-1.696-20.032-9.721-38.695-22.517-54.765z" fill="#79D98C"/><path d="M274.125 72.689c-3.923 5.932-3.913 7.533.058 13.434-5.935-3.92-7.534-3.913-13.435.059 3.921-5.936 3.914-7.535-.058-13.437 5.936 3.921 7.534 3.914 13.435-.056zm-7.687-15.629c-11.343 7.942-12.47 10.85-9.493 24.376-7.95-11.34-10.851-12.47-24.381-9.492 11.344-7.951 12.474-10.853 9.496-24.382 7.951 11.344 10.853 12.474 24.378 9.497zm-16.804 24.472c-2.657 4.018-2.65 5.103.04 9.1-4.021-2.655-5.104-2.65-9.102.04 2.656-4.02 2.651-5.104-.04-9.102 4.022 2.656 5.105 2.652 9.102-.038zm-183.63 9.036c-3.922 5.932-3.912 7.534.058 13.434-5.934-3.919-7.533-3.913-13.435.059 3.92-5.936 3.914-7.534-.058-13.436 5.936 3.92 7.535 3.914 13.435-.057zm-7.686-15.629c-11.344 7.943-12.47 10.85-9.494 24.377-7.95-11.34-10.85-12.47-24.38-9.493 11.344-7.951 12.474-10.852 9.495-24.381 7.952 11.344 10.853 12.473 24.379 9.497zM41.514 99.411c-2.658 4.019-2.65 5.104.039 9.101-4.02-2.655-5.104-2.651-9.102.04 2.656-4.021 2.652-5.104-.04-9.103 4.022 2.657 5.105 2.652 9.103-.038z" fill="#47BD5E"/></svg>