<svg width="93" height="73" fill="none" xmlns="http://www.w3.org/2000/svg"><path d="M54.517 1.274c.001.253-.072.5-.21.712a1.263 1.263 0 01-.563.473 1.24 1.24 0 01-1.373-.274 1.298 1.298 0 01-.275-1.394c.094-.234.256-.434.463-.574a1.244 1.244 0 011.589.155 1.275 1.275 0 01.369.902zm12.829 0c.001.253-.071.5-.21.712a1.263 1.263 0 01-.563.473 1.24 1.24 0 01-1.373-.274 1.298 1.298 0 01-.275-1.394c.095-.234.256-.434.463-.574a1.244 1.244 0 011.588.156c.236.239.369.563.37.9zm12.824 0c0 .252-.073.498-.21.707-.138.21-.334.373-.563.469a1.234 1.234 0 01-1.366-.276A1.293 1.293 0 0177.76.787a1.27 1.27 0 01.462-.572 1.24 1.24 0 011.582.159c.235.238.367.562.367.9zm12.83 0c.001.254-.073.503-.212.715-.14.212-.337.376-.569.473a1.24 1.24 0 01-1.377-.29 1.297 1.297 0 01-.254-1.405c.1-.233.266-.43.478-.567a1.244 1.244 0 011.577.183c.229.238.357.558.357.89zM54.517 11.425c.001.253-.072.5-.21.712a1.263 1.263 0 01-.563.473 1.24 1.24 0 01-1.373-.274 1.298 1.298 0 01-.275-1.394c.094-.233.256-.434.463-.574a1.245 1.245 0 011.589.155 1.275 1.275 0 01.369.902zm12.829 0c.001.253-.071.5-.21.712a1.263 1.263 0 01-.563.473 1.24 1.24 0 01-1.373-.274 1.298 1.298 0 01-.275-1.394c.095-.233.256-.434.463-.574a1.245 1.245 0 011.588.156c.236.239.369.563.37.9zm12.824 0c0 .252-.073.498-.21.707-.138.21-.334.373-.563.469a1.234 1.234 0 01-1.366-.276 1.293 1.293 0 01-.272-1.387 1.27 1.27 0 01.462-.572 1.24 1.24 0 011.582.159c.235.238.367.562.367.9zm12.83 0c.001.253-.072.501-.21.712a1.263 1.263 0 01-.564.474 1.24 1.24 0 01-1.374-.277 1.298 1.298 0 01-.272-1.396c.096-.233.258-.433.466-.573a1.244 1.244 0 011.587.16c.235.238.367.562.367.9zM54.517 21.587c0 .253-.074.5-.212.71-.139.21-.335.375-.565.471a1.24 1.24 0 01-1.371-.277 1.297 1.297 0 01-.273-1.393c.095-.234.256-.433.463-.574a1.244 1.244 0 011.59.157 1.273 1.273 0 01.368.906zm12.829 0a1.285 1.285 0 01-.776 1.181 1.24 1.24 0 01-1.372-.277 1.298 1.298 0 01-.273-1.393c.096-.234.257-.433.464-.574a1.244 1.244 0 011.589.159c.236.24.368.565.368.904zm12.824 0a1.286 1.286 0 01-.213.706c-.139.209-.335.37-.564.466a1.235 1.235 0 01-1.364-.28 1.292 1.292 0 01-.27-1.387c.096-.231.257-.43.463-.57a1.24 1.24 0 011.583.161 1.274 1.274 0 01.365.904zm12.83 0c0 .254-.075.503-.215.714-.14.21-.338.375-.57.47a1.24 1.24 0 01-1.375-.292 1.297 1.297 0 01-.252-1.404c.1-.234.267-.43.478-.567a1.244 1.244 0 011.579.185c.229.24.356.56.355.894zM54.517 31.733a1.293 1.293 0 01-.218.707 1.24 1.24 0 01-1.935.182 1.298 1.298 0 01-.268-1.392c.096-.233.258-.432.464-.572a1.244 1.244 0 011.592.163 1.28 1.28 0 01.365.912zm12.829 0a1.293 1.293 0 01-.217.707c-.14.209-.337.371-.567.466a1.24 1.24 0 01-1.368-.284 1.297 1.297 0 01-.268-1.392c.096-.233.257-.432.464-.572a1.244 1.244 0 011.181-.115 1.264 1.264 0 01.681.698c.063.156.095.323.094.492zm12.824 0c-.003.25-.079.495-.219.702a1.235 1.235 0 01-1.926.175 1.291 1.291 0 01-.264-1.385c.096-.231.256-.43.462-.568a1.239 1.239 0 011.177-.114 1.258 1.258 0 01.678.698c.063.156.094.323.092.492zm12.83 0a1.293 1.293 0 01-.22.71c-.141.21-.34.372-.572.466a1.24 1.24 0 01-1.372-.3 1.287 1.287 0 01-.246-1.403c.1-.232.267-.428.477-.564a1.244 1.244 0 011.58.191c.23.241.356.564.353.9zM2.517 41.274c.001.253-.072.5-.21.712a1.263 1.263 0 01-.563.473 1.24 1.24 0 01-1.373-.274 1.297 1.297 0 01-.275-1.394c.094-.234.256-.434.463-.574a1.245 1.245 0 011.589.155 1.275 1.275 0 01.369.902zm12.829 0c.002.253-.071.5-.209.712a1.263 1.263 0 01-.564.473 1.24 1.24 0 01-1.373-.274 1.297 1.297 0 01-.275-1.394c.095-.234.256-.434.463-.574a1.245 1.245 0 011.588.156c.236.239.369.563.37.9zm12.824 0c0 .252-.073.498-.21.707-.138.21-.334.372-.563.469a1.235 1.235 0 01-1.365-.276 1.293 1.293 0 01-.272-1.387 1.27 1.27 0 01.461-.572 1.239 1.239 0 011.582.158c.235.24.367.563.367.9zm12.83 0c0 .254-.073.503-.212.715-.14.212-.337.376-.569.473a1.24 1.24 0 01-1.377-.29 1.297 1.297 0 01-.254-1.405c.1-.232.267-.43.478-.567a1.243 1.243 0 011.577.183c.229.238.357.558.357.89zM2.517 51.425c.001.253-.072.5-.21.712a1.263 1.263 0 01-.563.473 1.24 1.24 0 01-1.373-.273 1.298 1.298 0 01-.275-1.394c.094-.235.256-.435.463-.575a1.245 1.245 0 011.589.155 1.275 1.275 0 01.369.902zm12.829 0c.002.253-.071.5-.209.712a1.263 1.263 0 01-.564.473 1.24 1.24 0 01-1.373-.273 1.298 1.298 0 01-.275-1.394c.095-.235.256-.435.463-.575a1.245 1.245 0 011.588.156c.236.239.369.563.37.9zm12.824 0c0 .252-.073.498-.21.707-.138.21-.334.373-.563.469a1.235 1.235 0 01-1.365-.276 1.293 1.293 0 01-.272-1.387 1.27 1.27 0 01.461-.572 1.24 1.24 0 011.582.159c.235.238.367.562.367.9zm12.83 0c.001.253-.072.501-.21.712a1.263 1.263 0 01-.564.474 1.24 1.24 0 01-1.374-.276 1.298 1.298 0 01-.272-1.396c.096-.234.258-.434.466-.574a1.244 1.244 0 011.587.16c.235.238.367.562.367.9zM2.517 61.587c0 .253-.074.5-.212.71-.138.21-.335.375-.565.471a1.24 1.24 0 01-1.371-.277 1.297 1.297 0 01-.273-1.393c.095-.234.256-.434.463-.574a1.244 1.244 0 011.59.157 1.275 1.275 0 01.368.906zm12.829 0a1.285 1.285 0 01-.777 1.181 1.24 1.24 0 01-1.37-.277 1.298 1.298 0 01-.273-1.393c.095-.234.256-.434.463-.574a1.244 1.244 0 011.589.159c.236.24.368.565.368.904zm12.824 0a1.286 1.286 0 01-.213.706c-.139.209-.335.37-.564.466a1.235 1.235 0 01-1.363-.28 1.292 1.292 0 01-.27-1.387c.095-.231.256-.43.462-.57a1.24 1.24 0 011.583.161 1.275 1.275 0 01.365.904zm12.83 0c0 .254-.075.503-.215.714a1.27 1.27 0 01-.57.47 1.24 1.24 0 01-1.375-.292 1.297 1.297 0 01-.252-1.404c.1-.234.267-.43.478-.567a1.244 1.244 0 011.579.185c.229.24.356.56.355.894zM2.517 71.733a1.293 1.293 0 01-.217.707c-.14.209-.337.371-.567.466a1.24 1.24 0 01-1.368-.284 1.297 1.297 0 01-.268-1.392c.095-.233.257-.432.463-.572a1.244 1.244 0 011.592.163 1.28 1.28 0 01.365.912zm12.829 0a1.293 1.293 0 01-.217.707c-.14.209-.337.371-.567.466a1.24 1.24 0 01-1.368-.284 1.297 1.297 0 01-.268-1.392c.096-.233.257-.432.464-.572a1.244 1.244 0 011.181-.115 1.263 1.263 0 01.681.698c.063.156.095.323.094.492zm12.824 0c-.003.25-.079.495-.219.702a1.235 1.235 0 01-1.926.175 1.291 1.291 0 01-.264-1.385c.096-.231.256-.43.462-.569a1.239 1.239 0 011.177-.113 1.26 1.26 0 01.678.698c.063.156.094.323.092.492zm12.83 0a1.293 1.293 0 01-.22.71c-.141.21-.34.372-.572.466a1.24 1.24 0 01-1.372-.3 1.287 1.287 0 01-.246-1.403c.1-.232.267-.428.477-.565a1.244 1.244 0 011.58.192c.23.241.356.564.353.9zM2.517 1.274c.001.253-.072.5-.21.712a1.263 1.263 0 01-.563.473A1.24 1.24 0 01.37 2.185 1.298 1.298 0 01.096.791C.19.557.351.357.558.217a1.244 1.244 0 011.589.155 1.275 1.275 0 01.369.902zm12.829 0c.002.253-.071.5-.209.712a1.264 1.264 0 01-.564.473 1.24 1.24 0 01-1.373-.274 1.298 1.298 0 01-.275-1.394c.095-.234.256-.434.463-.574a1.244 1.244 0 011.588.156c.236.239.369.563.37.9zm12.824 0c0 .252-.073.498-.21.707-.138.21-.334.373-.563.469a1.235 1.235 0 01-1.365-.276A1.293 1.293 0 0125.76.787a1.27 1.27 0 01.461-.572 1.24 1.24 0 011.582.159c.235.238.367.562.367.9zm12.83 0c0 .254-.073.503-.212.715-.14.212-.337.376-.569.473a1.24 1.24 0 01-1.377-.29 1.297 1.297 0 01-.254-1.405c.1-.233.267-.43.478-.567a1.244 1.244 0 011.577.183c.229.238.357.558.357.89zM2.517 11.425c.001.253-.072.5-.21.712a1.263 1.263 0 01-.563.473 1.24 1.24 0 01-1.373-.274 1.298 1.298 0 01-.275-1.394c.094-.233.256-.434.463-.574a1.245 1.245 0 011.589.155 1.275 1.275 0 01.369.902zm12.829 0c.002.253-.071.5-.209.712a1.263 1.263 0 01-.564.473 1.24 1.24 0 01-1.373-.274 1.298 1.298 0 01-.275-1.394c.095-.233.256-.434.463-.574a1.245 1.245 0 011.588.156c.236.239.369.563.37.9zm12.824 0c0 .252-.073.498-.21.707-.138.21-.334.373-.563.469a1.235 1.235 0 01-1.365-.276 1.293 1.293 0 01-.272-1.387 1.27 1.27 0 01.461-.572 1.24 1.24 0 011.582.159c.235.238.367.562.367.9zm12.83 0c.001.253-.072.501-.21.712a1.263 1.263 0 01-.564.474 1.24 1.24 0 01-1.374-.277 1.298 1.298 0 01-.272-1.396c.096-.233.258-.433.466-.573a1.244 1.244 0 011.587.16c.235.238.367.562.367.9zM2.517 21.587c0 .253-.074.5-.212.71-.138.21-.335.375-.565.471a1.24 1.24 0 01-1.371-.277 1.297 1.297 0 01-.273-1.393c.095-.234.256-.433.463-.574a1.244 1.244 0 011.59.157 1.275 1.275 0 01.368.906zm12.829 0a1.285 1.285 0 01-.777 1.181 1.24 1.24 0 01-1.37-.277 1.298 1.298 0 01-.273-1.393c.095-.234.256-.433.463-.574a1.244 1.244 0 011.589.159c.236.24.368.565.368.904zm12.824 0a1.286 1.286 0 01-.213.706c-.139.209-.335.37-.564.466a1.235 1.235 0 01-1.363-.28 1.292 1.292 0 01-.27-1.387c.095-.231.256-.43.462-.57a1.24 1.24 0 011.583.161 1.274 1.274 0 01.365.904zm12.83 0c0 .254-.075.503-.215.714-.14.21-.338.375-.57.47a1.24 1.24 0 01-1.375-.292 1.297 1.297 0 01-.252-1.404c.1-.234.267-.43.478-.567a1.244 1.244 0 011.579.185c.229.24.356.56.355.894zM2.517 31.733a1.293 1.293 0 01-.217.707c-.14.209-.337.371-.567.466a1.24 1.24 0 01-1.368-.284 1.298 1.298 0 01-.268-1.392c.095-.233.257-.432.463-.572a1.244 1.244 0 011.592.163 1.28 1.28 0 01.365.912zm12.829 0a1.293 1.293 0 01-.217.707c-.14.209-.337.371-.567.466a1.24 1.24 0 01-1.368-.284 1.297 1.297 0 01-.268-1.392c.096-.233.257-.432.464-.572a1.244 1.244 0 011.181-.115 1.264 1.264 0 01.681.698c.063.156.095.323.094.492zm12.824 0c-.003.25-.079.495-.219.702a1.235 1.235 0 01-1.926.175 1.291 1.291 0 01-.264-1.385c.096-.231.256-.43.462-.568a1.239 1.239 0 011.177-.114 1.26 1.26 0 01.678.698c.063.156.094.323.092.492zm12.83 0a1.293 1.293 0 01-.22.71c-.141.21-.34.372-.572.466a1.24 1.24 0 01-1.372-.3 1.287 1.287 0 01-.246-1.403c.1-.232.267-.428.477-.564a1.244 1.244 0 011.58.191c.23.241.356.564.353.9zm13.517 9.541c.001.253-.072.5-.21.712a1.262 1.262 0 01-.563.473 1.24 1.24 0 01-1.373-.274 1.297 1.297 0 01-.275-1.394c.094-.234.256-.434.463-.574a1.245 1.245 0 011.589.155 1.275 1.275 0 01.369.902zm12.829 0c.001.253-.071.5-.21.712a1.262 1.262 0 01-.563.473 1.24 1.24 0 01-1.373-.274 1.297 1.297 0 01-.275-1.394c.095-.234.256-.434.463-.574a1.245 1.245 0 011.588.156c.236.239.369.563.37.9zm12.824 0c0 .252-.073.498-.21.707-.138.21-.334.372-.563.469a1.235 1.235 0 01-1.366-.276 1.293 1.293 0 01-.272-1.387 1.27 1.27 0 01.462-.572 1.239 1.239 0 011.582.158c.235.24.367.563.367.9zm12.83 0c.001.254-.073.503-.212.715-.14.212-.337.376-.569.473a1.24 1.24 0 01-1.377-.29 1.297 1.297 0 01-.254-1.405c.1-.232.266-.43.478-.567a1.243 1.243 0 011.577.183c.229.238.357.558.357.89zM54.517 51.425c.001.253-.072.5-.21.712a1.263 1.263 0 01-.563.473 1.24 1.24 0 01-1.373-.273 1.298 1.298 0 01-.275-1.394c.094-.235.256-.435.463-.575a1.245 1.245 0 011.589.155 1.275 1.275 0 01.369.902zm12.829 0c.001.253-.071.5-.21.712a1.263 1.263 0 01-.563.473 1.24 1.24 0 01-1.373-.273 1.298 1.298 0 01-.275-1.394c.095-.235.256-.435.463-.575a1.245 1.245 0 011.588.156c.236.239.369.563.37.9zm12.824 0c0 .252-.073.498-.21.707-.138.21-.334.373-.563.469a1.234 1.234 0 01-1.366-.276 1.293 1.293 0 01-.272-1.387 1.27 1.27 0 01.462-.572 1.24 1.24 0 011.582.159c.235.238.367.562.367.9zm12.83 0c.001.253-.072.501-.21.712a1.263 1.263 0 01-.564.474 1.24 1.24 0 01-1.374-.276 1.298 1.298 0 01-.272-1.396c.096-.234.258-.434.466-.574a1.244 1.244 0 011.587.16c.235.238.367.562.367.9zM54.517 61.587c0 .253-.074.5-.212.71-.139.21-.335.375-.565.471a1.24 1.24 0 01-1.371-.277 1.297 1.297 0 01-.273-1.393c.095-.234.256-.434.463-.574a1.244 1.244 0 011.59.157 1.273 1.273 0 01.368.906zm12.829 0a1.285 1.285 0 01-.776 1.181 1.24 1.24 0 01-1.372-.277 1.298 1.298 0 01-.273-1.393c.096-.234.257-.434.464-.574a1.244 1.244 0 011.589.159c.236.24.368.565.368.904zm12.824 0a1.286 1.286 0 01-.213.706c-.139.209-.335.37-.564.466a1.235 1.235 0 01-1.364-.28 1.292 1.292 0 01-.27-1.387c.096-.231.257-.43.463-.57a1.24 1.24 0 011.583.161 1.275 1.275 0 01.365.904zm12.83 0c0 .254-.075.503-.215.714a1.27 1.27 0 01-.57.47 1.24 1.24 0 01-1.375-.292 1.297 1.297 0 01-.252-1.404c.1-.234.267-.43.478-.567a1.244 1.244 0 011.579.185c.229.24.356.56.355.894zM54.517 71.733a1.293 1.293 0 01-.218.707 1.24 1.24 0 01-1.935.182 1.298 1.298 0 01-.268-1.392c.096-.233.258-.432.464-.572a1.244 1.244 0 011.592.163 1.28 1.28 0 01.365.912zm12.829 0a1.293 1.293 0 01-.217.707c-.14.209-.337.371-.567.466a1.24 1.24 0 01-1.368-.284 1.297 1.297 0 01-.268-1.392c.096-.233.257-.432.464-.572a1.244 1.244 0 011.181-.115 1.263 1.263 0 01.681.698c.063.156.095.323.094.492zm12.824 0c-.003.25-.079.495-.219.702a1.235 1.235 0 01-1.926.175 1.291 1.291 0 01-.264-1.385c.096-.231.256-.43.462-.569a1.239 1.239 0 011.177-.113 1.258 1.258 0 01.678.698c.063.156.094.323.092.492zm12.83 0a1.293 1.293 0 01-.22.71c-.141.21-.34.372-.572.466a1.24 1.24 0 01-1.372-.3 1.287 1.287 0 01-.246-1.403c.1-.232.267-.428.477-.565a1.244 1.244 0 011.58.192c.23.241.356.564.353.9z" fill="#949494"/></svg>