<svg width="122" height="111" fill="none" xmlns="http://www.w3.org/2000/svg"><path d="M109.239 78.347c.981.106 1.507-1.12.754-1.758L90.372 59.983a1 1 0 01.139-1.625l22.869-13.466c.86-.506.53-1.821-.467-1.861l-27.142-1.093a1 1 0 01-.903-1.33l8.263-23.62c.32-.912-.714-1.702-1.511-1.154L69.466 31.08a1 1 0 01-1.477-.41L57.523 7.646c-.39-.857-1.639-.75-1.877.16L49.23 32.264a1 1 0 01-1.387.654L23.434 21.63c-.878-.406-1.764.546-1.295 1.392l12.119 21.89a1 1 0 01-.667 1.462L7.037 52.032c-.976.208-1.08 1.559-.147 1.913l24.802 9.413a1 1 0 01.41 1.578L15.58 84.616c-.634.755.092 1.874 1.04 1.604l26.246-7.48a1 1 0 011.273.917l1.094 24.847c.042.948 1.256 1.31 1.81.54l15.25-21.19a1 1 0 011.514-.129l18.608 18.312c.676.666 1.812.104 1.693-.838l-3.116-24.675a1 1 0 011.1-1.12l27.147 2.943z" fill="#fff"/><path d="M105.152 75.482L85.242 58.57l23.183-13.693-27.373-1.114 8.337-23.93-22.021 15.203-10.415-22.978-6.372 24.405L26.31 25.196l12.242 22.181-26.778 5.717 25.149 9.584-16.756 20.028 26.267-7.505 1.103 24.973 15.115-21.08L81.11 97.32l-3.128-24.8 27.171 2.962z" fill="#0CEB4B"/><path d="M51.998 53.835l.645 2.1-3.682 1.13 3.056 9.946-2.099.645-3.056-9.945-3.682 1.132-.645-2.1 9.463-2.908zM62.39 64.068c-.815.25-1.63.325-2.446.224a6.328 6.328 0 01-2.307-.769 6.639 6.639 0 01-3.103-3.877 6.572 6.572 0 01-.278-2.56c.077-.852.3-1.648.668-2.39a6.207 6.207 0 011.48-1.923 5.724 5.724 0 012.147-1.196 5.745 5.745 0 012.456-.218 6.19 6.19 0 012.305.76c.721.406 1.35.941 1.887 1.605a6.57 6.57 0 011.207 2.274c.265.86.358 1.717.281 2.569a6.561 6.561 0 01-.662 2.379 6.33 6.33 0 01-1.478 1.932 5.832 5.832 0 01-2.157 1.19zm-.645-2.099c.527-.162.99-.424 1.387-.784.398-.36.713-.784.947-1.27.238-.494.377-1.02.419-1.579a4.443 4.443 0 00-.19-1.693 4.443 4.443 0 00-.794-1.507 4.35 4.35 0 00-1.241-1.069 4.091 4.091 0 00-1.497-.519 3.563 3.563 0 00-1.58.128c-.528.162-.99.423-1.388.784a4.13 4.13 0 00-.953 1.282 4.461 4.461 0 00-.421 1.57 4.56 4.56 0 00.2 1.69c.175.573.44 1.078.795 1.516.354.437.765.794 1.233 1.07.472.27.97.443 1.496.52a3.7 3.7 0 001.587-.139zm8.073-.428l-3.701-12.045 4.301-1.322a3.449 3.449 0 011.923-.054 3.805 3.805 0 012.692 2.6c.208.677.236 1.34.084 1.99a3.83 3.83 0 01-.872 1.698 3.477 3.477 0 01-1.598 1.019l-2.202.677 1.472 4.791-2.099.645zm-.018-7.536l1.978-.609a1.62 1.62 0 00.749-.474c.2-.225.334-.486.4-.782a1.7 1.7 0 00-.036-.912 1.717 1.717 0 00-.485-.783 1.712 1.712 0 00-.77-.423 1.62 1.62 0 00-.886.028l-1.979.608 1.029 3.346z" fill="#000"/></svg>