<svg width="118" height="42" fill="none" xmlns="http://www.w3.org/2000/svg"><g clip-path="url(#clip0_0_642)" fill="#D5D5D5"><path d="M3.247 1.62A1.627 1.627 0 112.242.12a1.62 1.62 0 011.005 1.498zm16.587 0a1.628 1.628 0 11-3.255.013 1.628 1.628 0 013.255-.014zm16.579 0a1.62 1.62 0 11-3.239 0 1.62 1.62 0 013.24 0zM53 1.62A1.627 1.627 0 1151.415 0 1.62 1.62 0 0153 1.62zM3.247 14.535a1.626 1.626 0 11-1.005-1.498 1.618 1.618 0 011.005 1.498zm16.587 0a1.628 1.628 0 11-3.256.013 1.628 1.628 0 013.256-.013zm16.579 0a1.62 1.62 0 11-3.239 0 1.62 1.62 0 013.24 0zm16.587 0a1.627 1.627 0 11-1.62-1.62 1.62 1.62 0 011.62 1.62zM3.247 27.464a1.627 1.627 0 11-1.003-1.504 1.619 1.619 0 011.003 1.504zm16.587.001a1.627 1.627 0 11-3.254 0 1.627 1.627 0 013.254 0zm16.579 0a1.62 1.62 0 11-3.24-.015 1.62 1.62 0 013.24.015zm16.587 0a1.627 1.627 0 11-1.585-1.627A1.62 1.62 0 0153 27.465zM3.247 40.373a1.626 1.626 0 11-3.253-.028 1.626 1.626 0 013.253.028zm16.587 0a1.627 1.627 0 11-1.003-1.514 1.635 1.635 0 011.003 1.514zm16.579 0a1.62 1.62 0 11-1.62-1.64 1.626 1.626 0 011.62 1.64zm16.587 0a1.627 1.627 0 11-3.253-.03 1.627 1.627 0 013.253.03z"/></g><g clip-path="url(#clip1_0_642)" fill="#D5D5D5"><path d="M68.247 1.62a1.627 1.627 0 11-1.005-1.5 1.62 1.62 0 011.005 1.498zm16.587 0a1.628 1.628 0 11-3.255.013 1.628 1.628 0 013.255-.014zm16.579 0a1.62 1.62 0 11-3.24 0 1.62 1.62 0 013.24 0zm16.587 0a1.628 1.628 0 11-3.256.012A1.628 1.628 0 01118 1.62zM68.247 14.535a1.627 1.627 0 11-1.005-1.498 1.62 1.62 0 011.005 1.498zm16.587 0a1.628 1.628 0 11-3.256.013 1.628 1.628 0 013.256-.013zm16.579 0a1.62 1.62 0 11-3.24 0 1.62 1.62 0 013.24 0zm16.587 0a1.631 1.631 0 01-1.001 1.509 1.629 1.629 0 01-2.222-1.186 1.623 1.623 0 01.697-1.671c.268-.179.584-.273.906-.272a1.62 1.62 0 011.62 1.62zM68.247 27.464a1.626 1.626 0 11-1.003-1.504 1.618 1.618 0 011.003 1.504zm16.587.001a1.627 1.627 0 11-3.254 0 1.627 1.627 0 013.254 0zm16.579 0a1.615 1.615 0 01-1.005 1.491 1.618 1.618 0 01-2.204-1.185 1.619 1.619 0 113.209-.306zm16.587 0a1.631 1.631 0 01-1.014 1.506A1.628 1.628 0 11118 27.465zM68.247 40.373a1.625 1.625 0 01-1.953 1.58 1.627 1.627 0 111.953-1.58zm16.587 0a1.627 1.627 0 11-1.003-1.514 1.635 1.635 0 011.003 1.514zm16.579 0a1.614 1.614 0 01-1.014 1.481 1.621 1.621 0 01-2.1-2.127 1.619 1.619 0 013.114.646zm16.587 0a1.63 1.63 0 01-1.024 1.497 1.63 1.63 0 01-2.205-1.225 1.633 1.633 0 01.731-1.66 1.624 1.624 0 012.041.243c.297.307.461.718.457 1.145z"/></g><defs><clipPath id="clip0_0_642"><path fill="#fff" d="M0 0h53v42H0z"/></clipPath><clipPath id="clip1_0_642"><path fill="#fff" transform="translate(65)" d="M0 0h53v42H0z"/></clipPath></defs></svg>