<svg width="155" height="146" fill="none" xmlns="http://www.w3.org/2000/svg"><g filter="url(#filter0_d_0_677)"><path d="M97.039 9.292L86.784 7.668 73.583 91.023l10.255 1.625c18.221 2.886 35.95-13.435 39.596-36.453 3.645-23.017-8.174-44.018-26.395-46.903z" fill="url(#paint0_linear_0_677)"/><path d="M97.039 9.292L86.784 7.668 73.583 91.023l10.255 1.625c18.221 2.886 35.95-13.435 39.596-36.453 3.645-23.017-8.174-44.018-26.395-46.903z" fill="url(#paint1_linear_0_677)"/><path d="M73.583 91.023l10.255 1.625c18.221 2.886 35.95-13.435 39.596-36.453.322-2.038.522-4.06.608-6.054l-42.909-6.796-7.55 47.678z" fill="url(#paint2_linear_0_677)"/><path d="M73.583 91.023c18.222 2.886 35.95-13.434 39.595-36.452 3.645-23.018-8.172-44.017-26.394-46.903C68.56 4.782 50.834 21.102 47.188 44.12c-3.645 23.018 8.172 44.018 26.395 46.904z" fill="url(#paint3_linear_0_677)"/><path d="M80.808 47.675L47.492 42.4c-.11.57-.212 1.143-.304 1.721-3.645 23.018 8.172 44.018 26.395 46.904 10.947 1.733 21.715-3.467 29.359-12.885L80.808 47.675z" fill="url(#paint4_linear_0_677)"/><path d="M47.188 44.12c-3.645 23.018 8.172 44.018 26.395 46.904 18.222 2.885 35.95-13.435 39.595-36.453.132-.833.241-1.664.333-2.492l-65.87-10.432a53.81 53.81 0 00-.453 2.473z" fill="url(#paint5_linear_0_677)"/><path d="M73.468 45.737l-25.827-4.09a53.81 53.81 0 00-.453 2.473c-3.157 19.935 5.285 38.353 19.44 44.805l6.84-43.188z" fill="url(#paint6_linear_0_677)"/><path d="M86.784 7.668a26.805 26.805 0 00-5.528-.295L68.234 89.595a26.809 26.809 0 005.349 1.428c18.222 2.886 35.95-13.434 39.595-36.452 3.645-23.018-8.172-44.017-26.394-46.903z" fill="url(#paint7_linear_0_677)"/><path d="M85.605 15.107c-14.969-2.37-29.532 11.038-32.527 29.946-2.994 18.908 6.714 36.16 21.683 38.53 14.969 2.371 29.533-11.037 32.527-29.945 2.995-18.908-6.713-36.16-21.683-38.53zm-9.76 61.63c-11.976-1.896-19.742-15.699-17.347-30.826 2.396-15.127 14.047-25.854 26.023-23.957 11.976 1.896 19.743 15.699 17.347 30.826-2.396 15.127-14.047 25.854-26.023 23.957z" fill="url(#paint8_linear_0_677)"/><path d="M83.345 29.382c-8.73-1.383-17.22 6.435-18.966 17.46-1.746 11.027 3.913 21.085 12.642 22.468 8.73 1.382 17.22-6.436 18.966-17.462 1.746-11.025-3.913-21.084-12.642-22.466zm-5.056 31.926c-5.231-.828-8.623-6.856-7.577-13.462 1.046-6.607 6.135-11.291 11.366-10.463 5.23.829 8.622 6.856 7.576 13.462-1.046 6.607-6.134 11.291-11.365 10.463z" fill="url(#paint9_linear_0_677)"/><path d="M87.379 56.718c-2.207 3.26-5.617 5.14-9.09 4.59-5.231-.828-8.623-6.856-7.577-13.462a15.49 15.49 0 01.372-1.712l-6.371-1.009a24.475 24.475 0 00-.334 1.718c-1.746 11.026 3.914 21.084 12.642 22.466 5.488.87 10.88-1.895 14.56-6.808l-4.203-5.783z" fill="url(#paint10_linear_0_677)"/><path d="M95.47 67.856c-5.041 6.452-12.272 10.046-19.625 8.881-11.976-1.896-19.742-15.699-17.347-30.826.092-.58.198-1.153.317-1.72l-5.429-.86a43.274 43.274 0 00-.308 1.722c-2.994 18.908 6.714 36.16 21.683 38.53 9.076 1.438 18-2.924 24.292-10.795l-3.584-4.932z" fill="url(#paint11_linear_0_677)"/><path d="M65.145 46.964l-22.731-3.6-7.392-15.115c-.593-1.211.426-2.589 1.757-2.378l.987.156a2.987 2.987 0 012.22 1.642l1.7 3.474-.381-3.142a1.096 1.096 0 011.258-1.214l3.924.621c.188.03.359.13.477.279l.483.61a.76.76 0 00.877.233.76.76 0 01.747.104l.809.624a.886.886 0 001.079.002c.855-.654 2-.781 2.982-.339a9.269 9.269 0 014.524 4.383l6.68 13.66z" fill="url(#paint12_linear_0_677)"/><path d="M42.414 43.364l22.73 3.6-5.224-10.685-22.732-3.6 5.226 10.685z" fill="url(#paint13_linear_0_677)"/><path d="M58.465 33.304a9.269 9.269 0 00-4.524-4.383 2.928 2.928 0 00-2.982.34.886.886 0 01-1.08-.003l-.808-.624a.76.76 0 00-.746-.104.76.76 0 01-.878-.233l-.483-.61a.759.759 0 00-.477-.279l-3.924-.621A1.096 1.096 0 0041.305 28l.373 3.078 6.45 13.19 17.017 2.695-6.68-13.66z" fill="url(#paint14_linear_0_677)"/><path d="M58.465 33.304a9.269 9.269 0 00-4.524-4.383 2.928 2.928 0 00-2.982.34.886.886 0 01-1.08-.003l-.808-.624a.76.76 0 00-.746-.104.76.76 0 01-.878-.233l-.483-.61a.759.759 0 00-.477-.279l-3.924-.621a1.083 1.083 0 00-.714.132c.154.04.305.092.453.159a9.269 9.269 0 014.523 4.383l6.68 13.66 11.64 1.843-6.68-13.66z" fill="url(#paint15_linear_0_677)"/><path d="M58.465 33.304a9.269 9.269 0 00-4.524-4.383 2.928 2.928 0 00-2.982.34.886.886 0 01-1.08-.003l-.808-.624a.76.76 0 00-.746-.104.758.758 0 01-.627-.03 9.264 9.264 0 013.112 3.592l6.68 13.66 7.655 1.212-6.68-13.66z" fill="url(#paint16_linear_0_677)"/><path d="M58.465 33.304a9.269 9.269 0 00-4.524-4.383 2.928 2.928 0 00-2.982.34.886.886 0 01-1.08-.003l-.808-.624a.76.76 0 00-.746-.104.758.758 0 01-.627-.03 9.264 9.264 0 013.112 3.592l6.68 13.66 7.655 1.212-6.68-13.66z" fill="url(#paint17_linear_0_677)"/><path d="M65.145 46.964l-22.731-3.6-11.701 12.092c-.938.968-.394 2.593.937 2.804l.986.156a2.986 2.986 0 002.619-.875l2.69-2.78-1.333 2.871c-.306.66.103 1.43.822 1.544l3.924.622a.76.76 0 00.539-.118l.648-.43a.76.76 0 01.907.049.76.76 0 00.741.131l.962-.343c.378-.135.8 0 1.027.331a2.928 2.928 0 002.732 1.244 9.268 9.268 0 005.657-2.77l10.574-10.928z" fill="url(#paint18_linear_0_677)"/><path d="M35.885 50.11l-5.172 5.346c-.938.968-.394 2.593.937 2.804l.986.156a2.986 2.986 0 002.619-.875l2.69-2.78-1.333 2.871c-.306.66.103 1.43.822 1.544l3.924.622a.76.76 0 00.539-.118l.648-.43a.76.76 0 01.907.049.76.76 0 00.741.131l.962-.343c.378-.135.8 0 1.027.331a2.928 2.928 0 002.732 1.244 9.268 9.268 0 005.657-2.77l4.045-4.181-22.731-3.6z" fill="url(#paint19_linear_0_677)"/><path d="M54.57 57.892a9.268 9.268 0 01-5.656 2.77 2.928 2.928 0 01-2.732-1.244.886.886 0 00-1.027-.331l-.962.343a.76.76 0 01-.741-.131.76.76 0 00-.907-.05l-.648.431a.759.759 0 01-.54.118l-3.923-.622a1.096 1.096 0 01-.822-1.544l1.306-2.811 10.21-10.552 17.017 2.695L54.57 57.892z" fill="url(#paint20_linear_0_677)"/><path d="M54.57 57.892a9.268 9.268 0 01-5.656 2.77 2.928 2.928 0 01-2.732-1.244.886.886 0 00-1.027-.331l-.962.343a.76.76 0 01-.741-.131.76.76 0 00-.907-.05l-.648.431a.759.759 0 01-.54.118l-3.923-.622a1.084 1.084 0 01-.639-.346c.159.009.319.006.48-.011a9.267 9.267 0 005.656-2.77L53.505 45.12l11.64 1.843L54.57 57.892z" fill="url(#paint21_linear_0_677)"/><path d="M54.57 57.892a9.268 9.268 0 01-5.656 2.77 2.928 2.928 0 01-2.732-1.244.886.886 0 00-1.027-.331l-.962.343a.76.76 0 01-.741-.131.757.757 0 00-.605-.165 9.264 9.264 0 004.07-2.455L57.49 45.752l7.655 1.212L54.57 57.892z" fill="url(#paint22_linear_0_677)"/><path d="M54.57 57.892a9.268 9.268 0 01-5.656 2.77 2.928 2.928 0 01-2.732-1.244.886.886 0 00-1.027-.331l-.962.343a.76.76 0 01-.741-.131.757.757 0 00-.605-.165 9.264 9.264 0 004.07-2.455L57.49 45.752l7.655 1.212L54.57 57.892z" fill="url(#paint23_linear_0_677)"/><path d="M81.22 49.51l-.004.025a2.49 2.49 0 01-2.849 2.068l-43.711-6.922a2.514 2.514 0 01.786-4.966l43.712 6.922a2.49 2.49 0 012.07 2.847l-.004.026z" fill="url(#paint24_linear_0_677)"/></g><defs><linearGradient id="paint0_linear_0_677" x1="84.076" y1="10.632" x2="71.212" y2="91.86" gradientUnits="userSpaceOnUse"><stop stop-color="#FFA1AE"/><stop offset="1" stop-color="#FF4565"/></linearGradient><linearGradient id="paint1_linear_0_677" x1="76.806" y1="54.905" x2="100.025" y2="84.187" gradientUnits="userSpaceOnUse"><stop stop-color="#FE0364" stop-opacity="0"/><stop offset=".234" stop-color="#F90362" stop-opacity=".234"/><stop offset=".517" stop-color="#EA035B" stop-opacity=".517"/><stop offset=".824" stop-color="#D20250" stop-opacity=".824"/><stop offset="1" stop-color="#C00148"/></linearGradient><linearGradient id="paint2_linear_0_677" x1="82.298" y1="21.862" x2="72.094" y2="86.292" gradientUnits="userSpaceOnUse"><stop stop-color="#FE0364" stop-opacity="0"/><stop offset=".234" stop-color="#F90362" stop-opacity=".234"/><stop offset=".517" stop-color="#EA035B" stop-opacity=".517"/><stop offset=".824" stop-color="#D20250" stop-opacity=".824"/><stop offset="1" stop-color="#C00148"/></linearGradient><linearGradient id="paint3_linear_0_677" x1="47.34" y1="30.084" x2="98.296" y2="85.465" gradientUnits="userSpaceOnUse"><stop stop-color="#FFA1AE"/><stop offset="1" stop-color="#FF4565"/></linearGradient><linearGradient id="paint4_linear_0_677" x1="79.144" y1="41.145" x2="72.703" y2="9.954" gradientUnits="userSpaceOnUse"><stop stop-color="#FE0364" stop-opacity="0"/><stop offset=".234" stop-color="#F90362" stop-opacity=".234"/><stop offset=".517" stop-color="#EA035B" stop-opacity=".517"/><stop offset=".824" stop-color="#D20250" stop-opacity=".824"/><stop offset="1" stop-color="#C00148"/></linearGradient><linearGradient id="paint5_linear_0_677" x1="77.615" y1="51.429" x2="70.488" y2="96.431" gradientUnits="userSpaceOnUse"><stop stop-color="#FE0364" stop-opacity="0"/><stop offset=".234" stop-color="#F90362" stop-opacity=".234"/><stop offset=".517" stop-color="#EA035B" stop-opacity=".517"/><stop offset=".824" stop-color="#D20250" stop-opacity=".824"/><stop offset="1" stop-color="#C00148"/></linearGradient><linearGradient id="paint6_linear_0_677" x1="91.929" y1="38.093" x2="85.369" y2="21.759" gradientUnits="userSpaceOnUse"><stop stop-color="#FE0364" stop-opacity="0"/><stop offset=".234" stop-color="#F90362" stop-opacity=".234"/><stop offset=".517" stop-color="#EA035B" stop-opacity=".517"/><stop offset=".824" stop-color="#D20250" stop-opacity=".824"/><stop offset="1" stop-color="#C00148"/></linearGradient><linearGradient id="paint7_linear_0_677" x1="72.44" y1="56.259" x2="81.907" y2="86.635" gradientUnits="userSpaceOnUse"><stop stop-color="#FE0364" stop-opacity="0"/><stop offset=".234" stop-color="#F90362" stop-opacity=".234"/><stop offset=".517" stop-color="#EA035B" stop-opacity=".517"/><stop offset=".824" stop-color="#D20250" stop-opacity=".824"/><stop offset="1" stop-color="#C00148"/></linearGradient><linearGradient id="paint8_linear_0_677" x1="47.34" y1="30.084" x2="98.295" y2="85.465" gradientUnits="userSpaceOnUse"><stop stop-color="#F5FBFF"/><stop offset="1" stop-color="#DBD5EF"/></linearGradient><linearGradient id="paint9_linear_0_677" x1="47.339" y1="30.084" x2="98.294" y2="85.467" gradientUnits="userSpaceOnUse"><stop stop-color="#F5FBFF"/><stop offset="1" stop-color="#DBD5EF"/></linearGradient><linearGradient id="paint10_linear_0_677" x1="78.83" y1="41.521" x2="71.05" y2="7.324" gradientUnits="userSpaceOnUse"><stop stop-color="#DBD5EF" stop-opacity="0"/><stop offset=".285" stop-color="#D9D2EE" stop-opacity=".285"/><stop offset=".474" stop-color="#D4C9E9" stop-opacity=".474"/><stop offset=".635" stop-color="#CBBAE2" stop-opacity=".635"/><stop offset=".779" stop-color="#BFA5D7" stop-opacity=".78"/><stop offset=".913" stop-color="#AF8ACA" stop-opacity=".913"/><stop offset="1" stop-color="#A274BF"/></linearGradient><linearGradient id="paint11_linear_0_677" x1="61.101" y1="33.115" x2="50.148" y2="23.34" gradientUnits="userSpaceOnUse"><stop stop-color="#DBD5EF" stop-opacity="0"/><stop offset=".285" stop-color="#D9D2EE" stop-opacity=".285"/><stop offset=".474" stop-color="#D4C9E9" stop-opacity=".474"/><stop offset=".635" stop-color="#CBBAE2" stop-opacity=".635"/><stop offset=".779" stop-color="#BFA5D7" stop-opacity=".78"/><stop offset=".913" stop-color="#AF8ACA" stop-opacity=".913"/><stop offset="1" stop-color="#A274BF"/></linearGradient><linearGradient id="paint12_linear_0_677" x1="82.993" y1="17.468" x2="74.858" y2="68.834" gradientUnits="userSpaceOnUse"><stop stop-color="#B3DAFE"/><stop offset="1" stop-color="#0182FC"/></linearGradient><linearGradient id="paint13_linear_0_677" x1="79.042" y1="42.417" x2="72.961" y2="80.816" gradientUnits="userSpaceOnUse"><stop stop-color="#314DC9" stop-opacity="0"/><stop offset=".276" stop-color="#304BC4" stop-opacity=".276"/><stop offset=".563" stop-color="#2B45B8" stop-opacity=".563"/><stop offset=".854" stop-color="#243BA3" stop-opacity=".854"/><stop offset="1" stop-color="#1F3596"/></linearGradient><linearGradient id="paint14_linear_0_677" x1="67.041" y1="61.267" x2="45.466" y2="70.389" gradientUnits="userSpaceOnUse"><stop stop-color="#314DC9" stop-opacity="0"/><stop offset=".276" stop-color="#304BC4" stop-opacity=".276"/><stop offset=".563" stop-color="#2B45B8" stop-opacity=".563"/><stop offset=".854" stop-color="#243BA3" stop-opacity=".854"/><stop offset="1" stop-color="#1F3596"/></linearGradient><linearGradient id="paint15_linear_0_677" x1="75.645" y1="52.739" x2="53.471" y2="67.541" gradientUnits="userSpaceOnUse"><stop stop-color="#314DC9" stop-opacity="0"/><stop offset=".276" stop-color="#304BC4" stop-opacity=".276"/><stop offset=".563" stop-color="#2B45B8" stop-opacity=".563"/><stop offset=".854" stop-color="#243BA3" stop-opacity=".854"/><stop offset="1" stop-color="#1F3596"/></linearGradient><linearGradient id="paint16_linear_0_677" x1="69.53" y1="53.008" x2="38.918" y2="58.631" gradientUnits="userSpaceOnUse"><stop stop-color="#314DC9" stop-opacity="0"/><stop offset=".276" stop-color="#304BC4" stop-opacity=".276"/><stop offset=".563" stop-color="#2B45B8" stop-opacity=".563"/><stop offset=".854" stop-color="#243BA3" stop-opacity=".854"/><stop offset="1" stop-color="#1F3596"/></linearGradient><linearGradient id="paint17_linear_0_677" x1="79.94" y1="49.77" x2="96.718" y2="44.738" gradientUnits="userSpaceOnUse"><stop stop-color="#314DC9" stop-opacity="0"/><stop offset=".276" stop-color="#304BC4" stop-opacity=".276"/><stop offset=".563" stop-color="#2B45B8" stop-opacity=".563"/><stop offset=".854" stop-color="#243BA3" stop-opacity=".854"/><stop offset="1" stop-color="#1F3596"/></linearGradient><linearGradient id="paint18_linear_0_677" x1="73.118" y1="15.271" x2="104.832" y2="52.553" gradientUnits="userSpaceOnUse"><stop stop-color="#B3DAFE"/><stop offset="1" stop-color="#0182FC"/></linearGradient><linearGradient id="paint19_linear_0_677" x1="78.098" y1="48.383" x2="70.594" y2="95.763" gradientUnits="userSpaceOnUse"><stop stop-color="#314DC9" stop-opacity="0"/><stop offset=".276" stop-color="#304BC4" stop-opacity=".276"/><stop offset=".563" stop-color="#2B45B8" stop-opacity=".563"/><stop offset=".854" stop-color="#243BA3" stop-opacity=".854"/><stop offset="1" stop-color="#1F3596"/></linearGradient><linearGradient id="paint20_linear_0_677" x1="71.368" y1="33.947" x2="53.667" y2="18.604" gradientUnits="userSpaceOnUse"><stop stop-color="#314DC9" stop-opacity="0"/><stop offset=".276" stop-color="#304BC4" stop-opacity=".276"/><stop offset=".563" stop-color="#2B45B8" stop-opacity=".563"/><stop offset=".854" stop-color="#243BA3" stop-opacity=".854"/><stop offset="1" stop-color="#1F3596"/></linearGradient><linearGradient id="paint21_linear_0_677" x1="76.915" y1="44.715" x2="60.401" y2="23.788" gradientUnits="userSpaceOnUse"><stop stop-color="#314DC9" stop-opacity="0"/><stop offset=".276" stop-color="#304BC4" stop-opacity=".276"/><stop offset=".563" stop-color="#2B45B8" stop-opacity=".563"/><stop offset=".854" stop-color="#243BA3" stop-opacity=".854"/><stop offset="1" stop-color="#1F3596"/></linearGradient><linearGradient id="paint22_linear_0_677" x1="71.183" y1="42.571" x2="43.806" y2="27.764" gradientUnits="userSpaceOnUse"><stop stop-color="#314DC9" stop-opacity="0"/><stop offset=".276" stop-color="#304BC4" stop-opacity=".276"/><stop offset=".563" stop-color="#2B45B8" stop-opacity=".563"/><stop offset=".854" stop-color="#243BA3" stop-opacity=".854"/><stop offset="1" stop-color="#1F3596"/></linearGradient><linearGradient id="paint23_linear_0_677" x1="80.083" y1="48.868" x2="94.485" y2="58.836" gradientUnits="userSpaceOnUse"><stop stop-color="#314DC9" stop-opacity="0"/><stop offset=".276" stop-color="#304BC4" stop-opacity=".276"/><stop offset=".563" stop-color="#2B45B8" stop-opacity=".563"/><stop offset=".854" stop-color="#243BA3" stop-opacity=".854"/><stop offset="1" stop-color="#1F3596"/></linearGradient><linearGradient id="paint24_linear_0_677" x1="57.191" y1="43.779" x2="56.706" y2="46.839" gradientUnits="userSpaceOnUse"><stop stop-color="#5A5A5A"/><stop offset="1" stop-color="#444"/></linearGradient><filter id="filter0_d_0_677" x=".243" y=".337" width="153.851" height="145.641" filterUnits="userSpaceOnUse" color-interpolation-filters="sRGB"><feFlood flood-opacity="0" result="BackgroundImageFix"/><feColorMatrix in="SourceAlpha" values="0 0 0 0 0 0 0 0 0 0 0 0 0 0 0 0 0 0 127 0" result="hardAlpha"/><feOffset dy="23"/><feGaussianBlur stdDeviation="15"/><feComposite in2="hardAlpha" operator="out"/><feColorMatrix values="0 0 0 0 0.931657 0 0 0 0 0.274721 0 0 0 0 0.516423 0 0 0 0.27 0"/><feBlend in2="BackgroundImageFix" result="effect1_dropShadow_0_677"/><feBlend in="SourceGraphic" in2="effect1_dropShadow_0_677" result="shape"/></filter></defs></svg>