<svg width="146" height="146" fill="none" xmlns="http://www.w3.org/2000/svg"><g filter="url(#filter0_d_0_718)"><path d="M72 101V46.933L44.095 59.535 29 81.106 72 101z" fill="#FF8959"/><path d="M115 81.106L72 101V46.933l27.905 12.602L115 81.106z" fill="#FF6A2E"/><path d="M90.923 63.592l15.33 21.561L115 81.106l-15.095-21.57-8.982 4.056z" fill="#FC5C1C"/><path d="M72 15L29 34.893l43 19.893 43-19.893L72 15z" fill="#FFAC8A"/><path d="M72 54.723v17.415l27.905-12.603L115 34.893l-43 19.83z" fill="#FF8959"/><path d="M102.883 40.481l-11.96 23.11 8.982-4.056L115 34.893l-12.117 5.588z" fill="#FF7B45"/><path d="M29 34.893l43 19.83v17.415L44.095 59.535 29 34.893z" fill="#FF6A2E"/></g><defs><filter id="filter0_d_0_718" x="0" y="0" width="146" height="146" filterUnits="userSpaceOnUse" color-interpolation-filters="sRGB"><feFlood flood-opacity="0" result="BackgroundImageFix"/><feColorMatrix in="SourceAlpha" values="0 0 0 0 0 0 0 0 0 0 0 0 0 0 0 0 0 0 127 0" result="hardAlpha"/><feOffset dx="1" dy="15"/><feGaussianBlur stdDeviation="15"/><feComposite in2="hardAlpha" operator="out"/><feColorMatrix values="0 0 0 0 1 0 0 0 0 0.537255 0 0 0 0 0.34902 0 0 0 0.51 0"/><feBlend in2="BackgroundImageFix" result="effect1_dropShadow_0_718"/><feBlend in="SourceGraphic" in2="effect1_dropShadow_0_718" result="shape"/></filter></defs></svg>