<svg width="53" height="52" fill="none" xmlns="http://www.w3.org/2000/svg"><path d="M42.833 2a8.254 8.254 0 00-5.774 2.343A7.918 7.918 0 0034.667 10v32c0 2.122.86 4.157 2.392 5.657A8.254 8.254 0 0042.833 50a8.254 8.254 0 005.775-2.343A7.919 7.919 0 0051 42c0-2.122-.86-4.157-2.392-5.657A8.254 8.254 0 0042.833 34H10.167a8.254 8.254 0 00-5.775 2.343A7.918 7.918 0 002 42c0 2.122.86 4.157 2.392 5.657A8.254 8.254 0 0010.167 50a8.254 8.254 0 005.774-2.343A7.918 7.918 0 0018.333 42V10c0-2.122-.86-4.157-2.392-5.657A8.254 8.254 0 0010.167 2a8.254 8.254 0 00-5.775 2.343A7.918 7.918 0 002 10c0 2.122.86 4.157 2.392 5.657A8.254 8.254 0 0010.167 18h32.666a8.254 8.254 0 005.775-2.343A7.919 7.919 0 0051 10c0-2.122-.86-4.157-2.392-5.657A8.254 8.254 0 0042.833 2z" stroke="#fff" stroke-width="3" stroke-linecap="round" stroke-linejoin="round"/></svg>