<svg width="148" height="152" fill="none" xmlns="http://www.w3.org/2000/svg"><g filter="url(#filter0_d_0_759)"><path d="M34.14 66.548l24.827 27.156a11.853 11.853 0 006.646 3.678 11.66 11.66 0 007.466-1.139L102.42 80.93a8.845 8.845 0 004.302-5.091l8.95-27.25a9.704 9.704 0 00.249-5.141 9.68 9.68 0 00-2.409-4.544L87.171 11.008a8.64 8.64 0 00-4.767-2.581 8.502 8.502 0 00-5.334.786L48.38 23.75a18.275 18.275 0 00-5.81 4.643 18.582 18.582 0 00-3.513 6.604l-6.841 23.2a8.735 8.735 0 001.925 8.352z" fill="#FFC107"/><path d="M115.911 43.41L75.844 62.732l-33.1-34.546a18.573 18.573 0 00-3.688 6.81l-6.842 23.199a8.742 8.742 0 001.926 8.353l24.827 27.155a11.862 11.862 0 006.645 3.677c2.548.458 5.17.059 7.465-1.137L102.42 80.93a8.852 8.852 0 004.301-5.09l8.95-27.251a9.685 9.685 0 00.24-5.179z" fill="#FFA000"/><path d="M75.844 62.732L65.138 97.284a11.822 11.822 0 01-6.172-3.581L34.14 66.548a8.742 8.742 0 01-1.926-8.353l6.842-23.198a18.573 18.573 0 013.688-6.811l33.1 34.546z" fill="#FF8F00"/><path d="M90.415 67.477a1.049 1.049 0 00.746.301 1.024 1.024 0 00.733-.323 1.05 1.05 0 00.287-.757 1.075 1.075 0 00-.329-.742l-3.77-3.66a1.049 1.049 0 00-.745-.302 1.028 1.028 0 00-.733.323 1.051 1.051 0 00-.287.757 1.073 1.073 0 00.329.742l3.77 3.66zM71.534 47.682a1.068 1.068 0 00.035 1.492l3.77 3.661a1.03 1.03 0 001.466-.035 1.068 1.068 0 00-.029-1.486l-3.77-3.66a1.03 1.03 0 00-1.472.028zm26.419 27.115a1.03 1.03 0 001.472-.028 1.068 1.068 0 00-.035-1.493l-3.77-3.66a1.03 1.03 0 00-1.472.028 1.067 1.067 0 00.035 1.493l3.77 3.66zM44.67 52.189l-4.444 2.728c-.233.146-.4.38-.463.65a1.07 1.07 0 00.125.795c.143.238.373.41.64.478s.548.026.784-.115l4.443-2.73c.233-.145.4-.379.463-.65a1.07 1.07 0 00-.124-.794 1.05 1.05 0 00-.64-.478 1.027 1.027 0 00-.784.116zm8.886-5.458l-4.443 2.73c-.233.146-.4.38-.463.65a1.07 1.07 0 00.125.794c.143.239.373.41.64.478.266.068.548.027.784-.115l4.443-2.73c.236-.144.405-.378.47-.65a1.07 1.07 0 00-.124-.798 1.05 1.05 0 00-.644-.48 1.027 1.027 0 00-.788.122v-.001zm15.043-13.738a1.035 1.035 0 00.796.049 1.031 1.031 0 00.594-.536l2.255-4.745a1.068 1.068 0 00-.488-1.411 1.03 1.03 0 00-1.39.487l-2.255 4.745a1.06 1.06 0 00-.044.807 1.066 1.066 0 00.532.604zm4.511-9.491a1.033 1.033 0 001.389-.488l2.255-4.745a1.068 1.068 0 00-.488-1.411 1.03 1.03 0 00-1.39.487l-2.254 4.745a1.061 1.061 0 00-.044.807 1.066 1.066 0 00.531.605z" fill="#000"/><path d="M87.921 10.28a9.636 9.636 0 00-5.34-2.905 9.481 9.481 0 00-5.98.893L47.91 22.804a19.392 19.392 0 00-6.134 4.912 19.716 19.716 0 00-3.717 6.973l-6.842 23.2a9.849 9.849 0 002.161 9.374L58.205 94.42a12.948 12.948 0 007.233 3.99c2.77.498 5.622.068 8.12-1.227L102.9 81.87a9.842 9.842 0 004.811-5.693l8.949-27.25a10.755 10.755 0 00-2.397-10.75L87.922 10.28zM48.848 24.693l28.691-14.535c.305-.154.619-.288.941-.4l-1.348 2.84a1.069 1.069 0 00.487 1.412 1.03 1.03 0 001.39-.487l1.986-4.18a7.484 7.484 0 012.95.638 7.602 7.602 0 012.475 1.756l26.34 27.895a8.608 8.608 0 011.911 3.204L83.516 57.86l-2.972-2.886a1.03 1.03 0 00-1.472.028 1.068 1.068 0 00.035 1.493l2.403 2.333-5.442 2.624-15.729-16.414 4.324-2.57 3.137 3.046a1.046 1.046 0 00.744.295 1.027 1.027 0 00.728-.323 1.05 1.05 0 00.288-.752 1.072 1.072 0 00-.323-.74l-3.22-3.128 1.716-3.614a1.062 1.062 0 00.053-.813 1.064 1.064 0 00-.534-.612 1.036 1.036 0 00-.802-.046 1.031 1.031 0 00-.594.547l-1.946 4.066-5.062 3.087-14.668-15.31a17.19 17.19 0 014.668-3.478zm10.88 68.295L34.904 65.833a7.666 7.666 0 01-1.907-4.001l3.872-2.378a1.039 1.039 0 00.47-.651 1.07 1.07 0 00-.399-1.103 1.04 1.04 0 00-.775-.194 1.043 1.043 0 00-.381.14l-2.764 1.698c.048-.284.113-.565.194-.842l6.841-23.198a17.531 17.531 0 012.768-5.526l31.842 33.234L64.443 96a10.793 10.793 0 01-4.714-3.013zm54.955-44.738l-8.95 27.25a7.854 7.854 0 01-1.412 2.565l-1.161-1.128a1.047 1.047 0 00-.746-.302 1.02 1.02 0 00-.733.324 1.051 1.051 0 00-.195 1.16c.056.128.137.243.237.339l1.054 1.024a7.684 7.684 0 01-.838.51L72.597 95.303c-1.877.978-4 1.372-6.102 1.132l10.208-32.947 38.389-18.513a8.646 8.646 0 01-.409 3.274z" fill="#000"/></g><defs><filter id="filter0_d_0_759" x=".823" y=".229" width="146.375" height="151.382" filterUnits="userSpaceOnUse" color-interpolation-filters="sRGB"><feFlood flood-opacity="0" result="BackgroundImageFix"/><feColorMatrix in="SourceAlpha" values="0 0 0 0 0 0 0 0 0 0 0 0 0 0 0 0 0 0 127 0" result="hardAlpha"/><feOffset dy="23"/><feGaussianBlur stdDeviation="15"/><feComposite in2="hardAlpha" operator="out"/><feColorMatrix values="0 0 0 0 1 0 0 0 0 0.631373 0 0 0 0 0 0 0 0 0.42 0"/><feBlend in2="BackgroundImageFix" result="effect1_dropShadow_0_759"/><feBlend in="SourceGraphic" in2="effect1_dropShadow_0_759" result="shape"/></filter></defs></svg>