<svg width="54" height="58" fill="none" xmlns="http://www.w3.org/2000/svg"><path d="M2.737 15.203l24.25 13.834 24.25-13.834m-24.25 41.419V29.009m25 10.958V18.052a5.421 5.421 0 00-.745-2.736 5.519 5.519 0 00-2.032-2.003L29.764 2.356a5.616 5.616 0 00-5.556 0L4.765 13.313a5.518 5.518 0 00-2.032 2.003 5.42 5.42 0 00-.746 2.736v21.915a5.42 5.42 0 00.746 2.736 5.518 5.518 0 002.032 2.002L24.21 55.663a5.615 5.615 0 005.556 0L49.21 44.706a5.519 5.519 0 002.033-2.003 5.421 5.421 0 00.745-2.736z" stroke="#004BFF" stroke-width="2.407" stroke-linecap="round" stroke-linejoin="round"/></svg>