<svg width="142" height="35" fill="none" xmlns="http://www.w3.org/2000/svg"><path d="M15.94.482C19.01 0 22.206.3 25.121 1.387c3.33 1.225 6.27 3.462 8.367 6.322a18.212 18.212 0 012.796 15.87c-1.27 4.397-4.283 8.252-8.229 10.567-.36.221-.728.435-1.128.576-.84-.8-1.635-1.646-2.46-2.461-1.932-1.95-3.87-3.894-5.796-5.846-2.752 2.724-5.469 5.484-8.214 8.215-.93-.406-1.77-.994-2.589-1.59C4.35 30.416 1.815 26.489.941 22.18c-.826-4.032-.278-8.355 1.633-12.01 1.732 1.723 3.436 3.472 5.162 5.2 3.571 3.596 7.135 7.199 10.693 10.805.12.171.328.17.456.009 2.06-2.057 4.108-4.124 6.169-6.18 3.29-3.296 6.595-6.581 9.862-9.902-2.832-.013-5.665.071-8.497.085-.197.005-.397-.007-.59.035-.186.045-.301.211-.431.337-1.795 1.87-3.6 3.731-5.398 5.598-.412.405-.784.854-1.221 1.232-2.25-2.222-4.499-4.445-6.732-6.683-.231-.22-.452-.537-.81-.51-2.873-.041-5.745-.066-8.617-.118 1.035-2.026 2.485-3.833 4.193-5.333A18.152 18.152 0 0115.939.482zm50.762 9.555c4.007.006 8.014.006 12.02-.001l.002 3.607c-2.748.005-5.496-.004-8.244.007.002.97.001 1.938.001 2.906 2.233.007 4.466 0 6.699.005a878.585 878.585 0 000 3.247c-2.233.019-4.467 0-6.7.009.004 1.144-.002 2.288.003 3.431 2.747.011 5.493-.002 8.24.007-.001 1.144.004 2.288-.003 3.432-4.007 0-8.013.002-12.019 0-.007-5.55-.008-11.1.001-16.65zm16.32 0c1.891.02 3.783-.018 5.674-.016.776 0 1.554-.019 2.326.079 1.328.202 2.615.802 3.552 1.775.75.765 1.205 1.788 1.35 2.844.187 1.332.016 2.77-.756 3.903-.641.983-1.673 1.62-2.74 2.057 1.403 2.004 2.836 3.988 4.23 5.998-1.446.02-2.892.013-4.337.004-1.205-1.725-2.43-3.434-3.632-5.16-.132-.16-.247-.404-.49-.387-.468-.026-.938-.002-1.406 0 .003 1.851.001 3.702.003 5.552-1.259.005-2.518.003-3.777.003-.002-5.551-.006-11.102.002-16.652zm3.775 3.583c-.002 1.443-.002 2.887.001 4.33 1.147-.018 2.296.028 3.442-.016.947-.078 1.688-.921 1.85-1.824.117-.603-.032-1.266-.442-1.73a2.308 2.308 0 00-1.749-.764c-1.034-.003-2.068.005-3.102.004zm11.334-3.581c2.01.024 4.018-.018 6.028-.021 1.797-.028 3.592.033 5.39.023.89 0 1.782-.002 2.672.001-.005 1.198-.01 2.397.001 3.595-1.662.019-3.326 0-4.988.01.004 4.348.005 8.695 0 13.042-1.375-.001-2.749.003-4.123-.002-.001-4.345-.003-8.69-.002-13.036-1.66-.012-3.32-.003-4.98-.008 0-1.201-.003-2.403.002-3.604zm17.008.001c1.257 0 2.513.004 3.771-.001.008 5.55.003 11.1.002 16.65-1.259 0-2.517.003-3.775-.003-.003-5.548-.007-11.097.002-16.646zm-67.938.104c1.433-.009 2.867-.034 4.3-.027 1.295 3.666 2.555 7.344 3.877 11 1.38-3.594 2.662-7.226 4.004-10.834.025-.11.114-.176.229-.15 1.31.004 2.623.004 3.935.013-2.057 5.518-4.153 11.022-6.217 16.538-1.273.009-2.546 0-3.82.005-2.106-5.515-4.209-11.03-6.308-16.545zm74.76 0c1.437-.006 2.873-.04 4.31-.022 1.082 3.098 2.161 6.197 3.257 9.29.213.566.385 1.148.626 1.703 1.342-3.587 2.655-7.184 3.966-10.782.033-.08.061-.214.182-.193 1.333-.011 2.667 0 3.999.005-2.04 5.521-4.148 11.017-6.207 16.531-1.275.02-2.55.011-3.826.006-2.105-5.512-4.201-11.027-6.307-16.538zm14.419 13.88c.645.01 1.29-.007 1.935.01-.005.117-.009.233-.012.35-.263 0-.526 0-.787-.002-.005.828.006 1.655-.006 2.483l-.346-.012c.002-.823.012-1.648-.005-2.471-.264.003-.526.003-.787-.006.001-.117.004-.235.008-.352zm2.328-.001c.161.001.323.002.486.001.243.771.446 1.554.675 2.328.256-.768.46-1.552.698-2.326.148 0 .298 0 .449-.002.005.943-.002 1.886.004 2.83l-.328.012c-.013-.729.019-1.458-.021-2.186-.247.724-.428 1.468-.672 2.193a24.332 24.332 0 00-.302-.018c-.215-.708-.378-1.434-.64-2.126-.049.708-.012 1.418-.02 2.126l-.331.01c-.001-.947-.006-1.895.002-2.842z" fill="#525252"/></svg>