<svg width="152" height="35" fill="none" xmlns="http://www.w3.org/2000/svg"><path d="M96.28 21.732a4.79 4.79 0 01-4.785-4.785 4.79 4.79 0 014.785-4.784 4.79 4.79 0 014.783 4.784 4.79 4.79 0 01-4.783 4.785zm0-12.414a7.627 7.627 0 00-7.63 7.63 7.627 7.627 0 007.63 7.628 7.627 7.627 0 007.629-7.629c0-4.19-3.414-7.63-7.63-7.63zm-9.336 12.801h.62v2.87h-.62c-3.284 0-5.974-2.689-5.974-5.973V5.904h2.87v3.828h3.698v2.87h-3.697v6.44c0 1.68 1.396 3.077 3.103 3.077zm34.963-.387a4.79 4.79 0 01-4.784-4.785 4.79 4.79 0 014.784-4.784 4.79 4.79 0 014.785 4.784c-.026 2.664-2.173 4.785-4.785 4.785zm0-12.414a7.627 7.627 0 00-7.629 7.63 7.627 7.627 0 007.629 7.628 7.627 7.627 0 007.629-7.629c0-4.19-3.414-7.63-7.629-7.63zm21.956 12.414a4.79 4.79 0 01-4.784-4.785 4.79 4.79 0 014.784-4.784 4.79 4.79 0 014.784 4.784 4.79 4.79 0 01-4.784 4.785zm0-12.414a7.627 7.627 0 00-7.629 7.63 7.627 7.627 0 007.629 7.628 7.562 7.562 0 004.888-1.785v1.5h2.741v-7.344c0-4.19-3.414-7.63-7.629-7.63zm-32.067 0h1.37v2.87h-1.37a3.113 3.113 0 00-3.104 3.104v9.103h-2.87v-9.103c0-3.284 2.689-5.974 5.974-5.974zm19.654-3.801h2.87v18.826h-2.87V5.517zM61.885 15.68v9.077h-2.871V15.68a3.112 3.112 0 00-3.103-3.104 3.113 3.113 0 00-3.104 3.104v9.076h-2.87V15.68a3.113 3.113 0 00-3.103-3.104 3.113 3.113 0 00-3.104 3.104v9.076h-2.87V15.68c0-3.285 2.69-5.975 5.948-5.975 1.836 0 3.44.802 4.551 2.095a5.938 5.938 0 014.552-2.095c3.284 0 5.974 2.69 5.974 5.975zm9.568 6.44a4.79 4.79 0 01-4.784-4.785 4.79 4.79 0 014.784-4.785 4.79 4.79 0 014.784 4.785c0 2.638-2.172 4.784-4.784 4.784zm0-12.414c-4.24 0-7.655 3.414-7.655 7.629a7.627 7.627 0 007.63 7.629 7.626 7.626 0 007.628-7.63c.026-4.189-3.388-7.628-7.603-7.628zM17.353.008C7.757.008 0 7.767 0 17.361c0 9.594 7.758 17.353 17.352 17.353 9.595 0 17.353-7.759 17.353-17.353C34.705 7.818 27.05.008 17.352.008z" fill="#525252"/><path d="M22.525 4.275l-5.146 17.069-.027.025-.051-.026-5.147-17.068-6.646 21.853H6.75s.828-3.802 2.2-6.077c.75-1.242 1.887-2.25 3.412-2.225 1.086.026 2.017.62 3.181 2.25.259.362.569.957.88 1.526.491.956.904 1.94.904 1.94s1.087-2.483 1.785-3.466c1.164-1.63 2.095-2.224 3.18-2.25 1.527-.026 2.69.983 3.414 2.225 1.371 2.275 2.2 6.077 2.2 6.077h1.24l-6.62-21.853z" fill="#CACACA"/></svg>