<svg width="108" height="22" fill="none" xmlns="http://www.w3.org/2000/svg"><path d="M10.814 21.701C4.868 21.701 0 16.834 0 10.801 0 4.868 4.868 0 10.814 0c6.024 0 10.887 4.868 10.887 10.801 0 6.033-4.867 10.9-10.887 10.9zm0-4.542c3.54 0 6.345-2.804 6.345-6.358 0-3.463-2.804-6.267-6.345-6.267a6.268 6.268 0 00-6.28 6.267c0 3.554 2.804 6.358 6.28 6.358zm66.68 4.542c-5.947 0-10.815-4.867-10.815-10.9C66.679 4.868 71.547 0 77.493 0 83.517 0 88.38 4.868 88.38 10.801c0 6.033-4.867 10.9-10.887 10.9zm0-4.542c3.54 0 6.344-2.804 6.344-6.358 0-3.463-2.804-6.267-6.345-6.267a6.268 6.268 0 00-6.28 6.267c0 3.554 2.804 6.358 6.28 6.358zM22.942.659v20.546h4.534V4.457h5.038v16.748h4.534V4.457h1.738c1.811 0 3.215 1.404 3.215 3.13v13.618h4.543V7.749a7.221 7.221 0 00-7.261-7.26H27.562c-1.567-.005-3.142-.005-4.62.17zm66.679 0v20.546h4.534V4.457h5.124c1.725 0 3.215 1.404 3.215 3.13v13.618h4.534V7.749a7.221 7.221 0 00-7.26-7.26h-5.614C92.678.483 91.1.483 89.623.658zm-41.18 0v20.546h4.533V4.457h5.364c1.824 0 3.228 1.404 3.228 3.13 0 1.81-1.404 3.214-3.228 3.214h-3.874l7.012 10.404h5.613l-5.116-7.51c2.47-.907 4.123-3.3 4.123-6.109 0-3.874-3.13-7.102-7.103-7.102H52.97c-1.563 0-3.048 0-4.53.175z" fill="#525252"/></svg>