<svg width="154" height="32" fill="none" xmlns="http://www.w3.org/2000/svg"><path fill-rule="evenodd" clip-rule="evenodd" d="M153.151 12.049c-9.23-1.682-16.292-8.693-17.672-11.633h-13.176l13.02 11.633-13.02 11.772h13.176c1.38-3.016 8.441-10.182 17.672-11.772zM3.411 30.467H1.704l-.774.831H0l3.41-4.015h.931v4.015h-.93v-.83zm17.826-3.184h.93l-1.705 4.015h-.93l1.705-4.015zm36.272 0h.93l-1.395 3.322h2.17l-.309.693H55.65l1.86-4.015zm18.137 0h1.084l-1.705 4.015H73.94l1.706-4.015zm17.205 0h1.085l.621 2.909 1.24-2.91h.93l-1.705 4.016h-1.086l-.62-2.77-1.24 2.77h-.93l1.705-4.015zm19.841 0h3.411l-.311.83h-2.324l-.465.832h2.326l-.31.692h-2.327l-.31.968h2.327l-.311.693h-3.41l1.704-4.015zm17.983 2.768c-.079.508.321.682.929.693.353-.012.844-.18.931-.553.068-.417-.495-.496-1.086-.693-.471-.111-.991-.341-.929-.97.248-.953 1.226-1.305 2.169-1.245.839-.06 1.533.304 1.396 1.245h-.931c.059-.465-.273-.621-.775-.554-.334-.067-.768.061-.775.415-.143.414.597.515.931.555.632.19 1.08.431.93 1.107-.177 1.001-1.221 1.366-2.016 1.386-1.297-.02-1.834-.48-1.704-1.386h.93zM13.642 21.605h-5.27l-2.327 2.077H1.241l13.486-11.91h4.65l-2.17 11.91h-3.875l.31-2.077zm20.305-1.94c-2.008 2.918-5.36 4.222-9.3 4.156-4.545.067-5.79-1.649-5.115-3.463.153-.3.442-.76.62-.97l4.96-7.616h4.806l-4.34 6.51c-.227.341-.588.935-.62 1.107-.182.373-.777 1.563 1.084 1.524 2.016.039 3.15-1.316 4.03-2.631l4.34-6.51h4.651l-5.116 7.893zm13.796-4.015c.09-.375.221-.998-.309-1.247-.255-.246-.882-.254-1.396-.276-.822.022-1.927.204-2.17.969-.41.902 1.875.951 3.256 1.384 2.35.706 2.815 1.828 2.325 3.185-1.172 2.885-5.292 4.222-8.68 4.156-3.482.067-6.184-1.17-4.651-4.294h4.03c-.12.929.181 1.158.465 1.524.293.196.84.23 1.55.277.991-.046 2.275-.41 2.635-1.247.28-.798-1.247-.914-3.1-1.522-1.752-.414-3.263-1.174-2.48-3.186 1.028-2.61 4.865-3.832 7.905-3.878 3.335.046 5.917.987 5.115 4.155h-4.495zm9.456-.832h-4.34l2.015-3.046h13.331l-2.015 3.046h-4.34l-5.736 8.726H51.31l5.89-8.726zm12.246 4.709h1.55c1.313-.03 1.415.281 1.396.97-.055.27-.317 1.632-.465 1.938-.06.564.149.875.155 1.109h4.185c-.122-.63-.116-1.394 0-2.355-.006-.5.429-2.331-.465-3.047 2.638.132 4.383-.921 4.96-3.184.728-2.618-1.317-3.137-4.185-3.185h-6.665l-7.905 11.771h4.65l2.789-4.017zm16.431-7.755h4.65l-7.75 11.772H77.97l7.906-11.772z" fill="#525252"/><path fill-rule="evenodd" clip-rule="evenodd" d="M108.663 11.772h4.65l.155 7.2 4.496-7.2h4.494l-7.749 11.772h-4.652l-.31-6.51-4.339 6.51h-4.496l7.751-11.772zm-71.15 19.526h-.93l1.706-4.015h2.17c.76.024 1.232.308 1.085 1.107-.111.52-.642 1.178-1.55 1.247l.62 1.661h-.93l-.465-1.523h-1.086l-.62 1.523zm58.903-9.693h-5.425l-2.325 2.077H83.86l13.487-11.91h4.651l-2.172 11.91h-3.873l.463-2.077z" fill="#525252"/><path fill-rule="evenodd" clip-rule="evenodd" d="M14.106 19.11l.62-3.599-.31.416-3.41 3.184h3.1zM72.7 14.68h2.48c1.28-.052 1.427.509 1.24.97-.272.712-1.243 1.322-2.79 1.385h-2.48l1.55-2.355zm24.182 4.43l.62-3.599-.465.416-3.256 3.184h3.1zM3.41 29.776l.156-1.662-1.395 1.662h1.24zm35.033-.692h.93c.536.041 1.067-.138 1.085-.555.154-.465-.173-.527-.62-.554h-.93l-.465 1.109z" fill="#000"/></svg>