<svg width="116" height="38" fill="none" xmlns="http://www.w3.org/2000/svg"><path d="M54.739 23.03l-1.28 6.395c-.564 2.592-2.126 4.323-5.316 4.323-3.661 0-4.628-2.271-3.824-5.466 1.136-4.534 4.834-5.884 10.42-5.252zm5.766-9.141l-3.893.248-1.231 6.261c-1.488-.052-1.957-.1-3.707-.1-5.477 0-10.258 2.303-11.521 7.704-1.139 4.87 1.628 8.65 7.66 8.65 6.18 0 8.869-3.225 9.835-7.758l2.857-15.005zm-42.23 9.415c-5.708-.52-10.618-.047-10.698 1.892-.123 2.91 9.408.37 9.224 5.724C16.533 38.785 3.279 36.976 0 35.975l.595-2.335c5.655.897 11.62.972 11.75-2.146.14-3.315-9.43-.336-9.206-5.703.168-3.998 6.15-6.155 15.94-4.716l-.804 2.229zm15.39 5.35c-.823 3.282-3.427 5.344-6.527 5.344-3.242 0-4.7-1.879-3.83-5.344.824-3.283 3.457-5.487 6.556-5.487 3.098 0 4.625 2.204 3.802 5.486zm-3.3-8.175c-5.677 0-10.24 3.283-11.362 8.175-1.125 4.893 1.932 8.176 7.605 8.176 5.674 0 10.239-3.283 11.361-8.176 1.125-4.89-1.93-8.175-7.605-8.175zm65.584 16.268h-4.934c-2.993-2.813-8.716-9.277-12.93-16.118h3.62c4.002 5.522 14.244 16.118 14.244 16.118zm5.17-32.014L103.39 0l.648 4.811 4.628-1.62-3.235 4.149 3.509 2.718-4.683.362-.258 5.004-2.603-3.698-3.826 3.528 1.434-4.972-4.513-.612 4.392-2.502-1.802-4.283 4.038 1.848zm9.622 23.97c-.837 3.335-3.481 5.43-6.629 5.43-3.292 0-4.775-1.91-3.891-5.43.837-3.334 3.511-5.573 6.658-5.573 3.15 0 4.701 2.239 3.862 5.573zm-3.353-8.306c-5.765 0-10.398 3.337-11.541 8.306-1.142 4.97 1.963 8.306 7.727 8.306 5.765 0 10.4-3.336 11.54-8.306 1.142-4.969-1.96-8.306-7.726-8.306z" fill="#525252"/><path d="M74.344 35.373c9.32-5.176 17.415-13.13 23.156-20.007-4.128 12.92-14.064 19.873-23.156 20.008z" fill="#525252"/><path d="M70.656 22.876c1.785 0 2.757.648 2.757 1.886 0 3.286-6.405 3.069-9.23 2.493.993-2.46 3.237-4.379 6.473-4.379zm6.596 1.708c0-2.383-1.9-4.134-6.207-4.134-6.988 0-11.528 4.535-11.528 10.15 0 3.627 3.01 6.64 8.51 6.64 3.788 0 6.318-1.867 6.318-1.867-4.822.517-10.743 0-10.743-5.158 0-.204.01-.41.028-.613 6.579 1.365 13.622-.287 13.622-5.018z" fill="#525252"/></svg>