<svg width="184" height="23" fill="none" xmlns="http://www.w3.org/2000/svg"><path d="M54.777 3.666c-.05.169-1.862 6.096-1.862 6.096h-5.797l1.867-6.096h-6.633s-5.013 16.371-5.106 16.68h6.632c.047-.169 2.14-6.993 2.14-6.993h5.794l-2.137 6.994h6.63c.053-.172 5.011-16.368 5.105-16.68h-6.633zm34.876 1.812l-.306.228.626-2.04h-6.63s-5.01 16.368-5.108 16.681h6.63c.057-.173 3.086-10.072 3.086-10.072.427-1.4 1.526-2.343 2.725-2.343h1.699c.538 0 .957.183 1.214.53.186.253.282.585.282.972 0 .278-.048.583-.15.906 0 0-2.67 8.73-3.059 10.006h6.629c.057-.172 3.604-11.756 3.604-11.756.1-.338.249-.931.249-1.61 0-.693-.152-1.471-.656-2.15-.738-.999-2.04-1.5-3.88-1.5-3.542 0-5.88 1.348-6.955 2.148zm-26.261-.613c.062.206.957 3.303 1.028 3.545.586-.245 3.069-1.217 5.22-1.217 2.048 0 3.209.275 3.65.87.222.3.261.681.114 1.163l-.414 1.358-.122-.038c-2.792-.923-4.918-.893-4.938-.89-2.217 0-4.213.551-5.77 1.596a7.642 7.642 0 00-3.071 4.127c-.457 1.498-.342 2.777.335 3.688.787 1.06 2.333 1.62 4.479 1.62 2.034 0 4.241-.521 6.224-1.473l.256-.123s-.31 1.018-.385 1.256h6.635c.047-.172 3.532-11.531 3.532-11.531a4.78 4.78 0 00.214-1.364c0-.726-.207-1.375-.61-1.924-1.067-1.439-3.524-2.201-7.11-2.201-4.391 0-8.547 1.3-9.267 1.538zm5.253 8.206c.505 0 2.239.038 3.304.54l.098.046-.745 2.427-.05.022c-1.06.496-2.547.825-3.71.825-1.116 0-1.897-.26-2.26-.75a1.17 1.17 0 01-.224-.71c0-.16.022-.331.076-.504.364-1.189 1.676-1.896 3.51-1.896zm46.854-9.49c-.061.051-6.355 5.004-6.355 5.004l1.543-5.005h-6.622l-5.186 16.934h6.624c.055-.169 2.104-6.88 2.104-6.88l4.833 6.88h7.076l-6.078-8.671s9.519-7.847 10.027-8.263h-7.966z" fill="#525252"/><path d="M118.257 12.044c-.719 2.352-.45 4.56.774 6.206 1.375 1.86 3.85 2.886 6.962 2.886 7.326 0 11.459-2.827 13.4-9.166.722-2.353.447-4.558-.772-6.205-1.372-1.861-3.852-2.886-6.963-2.886-6.735 0-11.62 3.344-13.401 9.165zm6.485 3.711c-.579-.778-.595-2.015-.054-3.782.653-2.141 2.149-4.697 5.549-4.697 1.304 0 2.175.32 2.669.988.578.778.596 2.02.055 3.782-.656 2.145-2.151 4.7-5.55 4.7-1.301 0-2.177-.324-2.669-.99zm15.619-3.711c-.719 2.352-.445 4.56.774 6.206 1.375 1.86 3.851 2.886 6.967 2.886 7.326 0 11.459-2.827 13.4-9.166.72-2.353.444-4.558-.775-6.205-1.374-1.861-3.847-2.886-6.967-2.886-6.731 0-11.616 3.344-13.399 9.165zm11.981-4.768c1.303 0 2.179.32 2.671.988.576.78.598 2.02.054 3.782-.655 2.145-2.15 4.7-5.552 4.7-1.303 0-2.174-.324-2.666-.99-.577-.779-.596-2.018-.057-3.783.656-2.141 2.151-4.697 5.55-4.697zm24.125-3.843l-6.448 5.442 1.657-5.442h-6.624s-5.171 16.889-5.266 17.203h6.622c.054-.172 2.138-6.986 2.138-6.986s5.125 6.893 5.201 6.985h7.27c-.285-.377-6.515-8.747-6.515-8.747s8.989-8.037 9.498-8.455h-7.533zM39.224.812L39.136 0h-5.62c.647 6.633-3.932 14.032-10.45 15.794l-.014.004c-.036.009-.118.014-.126-.084a.088.088 0 01.038-.088h-.005C28.396 11.998 31.263 6.154 30.77 0h-5.502c.238 5.408-3.39 10.327-8.942 12.327-.036.006-.116.01-.125-.084-.006-.036.017-.064.04-.082h-.003C20.247 9.415 22.663 5.33 22.517 0h-5.5C16.965 6.381 11.229 10.833 0 10.833c.16.088.316.178.473.266 7.306 3.991 11.116 6.445 16.507 10.837.83.713 1.984 1.102 3.147 1.061C34.677 21.982 39.914 9.221 39.224.812z" fill="#525252"/></svg>