<svg width="125" height="35" viewBox="0 0 125 35" fill="none" xmlns="http://www.w3.org/2000/svg">
<g clip-path="url(#clip0_0_1488)">
<path d="M33.5701 10.56C32.7147 8.47641 31.4497 6.58573 29.8501 4.99999C28.2535 3.42122 26.3651 2.16796 24.2901 1.30999C22.11 0.420744 19.7745 -0.0246152 17.4201 -9.92767e-06C15.0683 -0.0214537 12.736 0.427335 10.5601 1.31999C8.48937 2.17109 6.60713 3.42283 5.02146 5.00335C3.4358 6.58386 2.17794 8.46202 1.32011 10.53C0.429614 12.682 -0.019275 14.9911 0.00011406 17.32C-0.0173275 19.6682 0.431336 21.9965 1.32011 24.17C2.16227 26.251 3.41367 28.1416 5.00011 29.73C6.60278 31.323 8.50184 32.5867 10.5901 33.45C12.772 34.3608 15.1158 34.82 17.4801 34.8C19.8215 34.8172 22.1419 34.3579 24.3001 33.45C24.819 33.233 25.3264 32.9893 25.8201 32.72L21.2401 28.1C20.0091 28.5116 18.718 28.7144 17.4201 28.7C15.9345 28.7154 14.4602 28.4402 13.0801 27.89C11.7928 27.37 10.6305 26.5826 9.67011 25.58C8.70056 24.5471 7.94895 23.3296 7.46011 22C6.91728 20.5072 6.64962 18.9283 6.67011 17.34C6.61299 15.2866 7.07018 13.2516 8.00011 11.42C8.86391 9.75803 10.1771 8.37207 11.7901 7.41999C13.4937 6.45819 15.4242 5.97125 17.3801 6.00999C18.8759 5.99015 20.3608 6.2654 21.7501 6.81999C23.0544 7.35778 24.2302 8.16547 25.2001 9.18999C26.174 10.2232 26.9321 11.4403 27.4301 12.77C27.9731 14.2246 28.241 15.7675 28.2201 17.32C28.2322 18.5624 28.074 19.8005 27.7501 21L28.3701 21.62L32.7001 26C34.1715 23.3713 34.9267 20.4023 34.8901 17.39C34.9113 15.048 34.4625 12.7255 33.5701 10.56ZM27.0001 23.06L23.2601 19.32C22.9994 19.0539 22.6882 18.8425 22.3448 18.6982C22.0014 18.5539 21.6326 18.4796 21.2601 18.4796C20.8876 18.4796 20.5188 18.5539 20.1754 18.6982C19.832 18.8425 19.5208 19.0539 19.2601 19.32C18.9928 19.58 18.7803 19.8909 18.6352 20.2345C18.4901 20.578 18.4154 20.9471 18.4154 21.32C18.4154 21.6929 18.4901 22.062 18.6352 22.4055C18.7803 22.749 18.9928 23.06 19.2601 23.32L27.6201 31.68C28.4349 31.1157 29.1949 30.4763 29.8901 29.77C30.5158 29.1502 31.0909 28.4814 31.6101 27.77L27.0001 23.06Z" fill="white"/>
<path d="M27 23.06C26.1483 24.7649 24.8307 26.1935 23.2 27.18L19.29 23.27C19.0227 23.01 18.8102 22.699 18.6652 22.3555C18.5201 22.012 18.4453 21.6429 18.4453 21.27C18.4453 20.8971 18.5201 20.528 18.6652 20.1844C18.8102 19.8409 19.0227 19.53 19.29 19.27C19.5507 19.0039 19.8619 18.7925 20.2053 18.6482C20.5488 18.5039 20.9175 18.4296 21.29 18.4296C21.6625 18.4296 22.0313 18.5039 22.3747 18.6482C22.7182 18.7925 23.0293 19.0039 23.29 19.27L27 23.06Z" fill="white"/>
<path d="M35.59 31.64C34.5249 32.6928 33.0876 33.2832 31.59 33.2832C30.0923 33.2832 28.6551 32.6928 27.59 31.64L19.23 23.28C18.9627 23.02 18.7502 22.709 18.6051 22.3655C18.46 22.022 18.3853 21.6529 18.3853 21.28C18.3853 20.9071 18.46 20.538 18.6051 20.1944C18.7502 19.8509 18.9627 19.54 19.23 19.28C19.4907 19.0139 19.8019 18.8025 20.1453 18.6582C20.4887 18.5139 20.8575 18.4396 21.23 18.4396C21.6025 18.4396 21.9713 18.5139 22.3147 18.6582C22.6581 18.8025 22.9693 19.0139 23.23 19.28L27 23.06L31.64 27.71L35.59 31.64Z" fill="white"/>
<path d="M50.2499 34.75C48.3554 34.7876 46.4827 34.3401 44.8099 33.45C43.2555 32.6244 41.9659 31.3765 41.0899 29.85C40.1666 28.2279 39.7001 26.386 39.7399 24.52V11.09H46.0799V24.38C46.0569 25.2285 46.2208 26.0718 46.5599 26.85C46.8556 27.514 47.3616 28.0622 47.9999 28.41C48.6911 28.7791 49.4666 28.9618 50.2499 28.94C50.8191 28.971 51.3884 28.88 51.9196 28.673C52.4508 28.466 52.9317 28.1479 53.3299 27.74C54.1098 26.8002 54.5031 25.599 54.4299 24.38V11.09H60.7199V24.52C60.7622 26.3983 60.3068 28.2545 59.3999 29.9C58.5364 31.4242 57.2518 32.6672 55.6999 33.48C54.0162 34.3475 52.1436 34.7839 50.2499 34.75Z" fill="white"/>
<path d="M68.88 7.33998C68.4089 7.35863 67.9391 7.27939 67.5002 7.10727C67.0613 6.93515 66.6628 6.67388 66.33 6.33998C65.9994 6.00063 65.7404 5.5982 65.5686 5.15667C65.3968 4.71514 65.3157 4.24354 65.33 3.76998C65.3203 3.30149 65.4036 2.83573 65.5753 2.39971C65.747 1.9637 66.0035 1.5661 66.33 1.22998C66.6661 0.893751 67.0652 0.627034 67.5045 0.445064C67.9437 0.263093 68.4145 0.169434 68.89 0.169434C69.3654 0.169434 69.8362 0.263093 70.2755 0.445064C70.7147 0.627034 71.1138 0.893751 71.45 1.22998C72.1029 1.91313 72.4619 2.82506 72.45 3.76998C72.4604 4.24306 72.3774 4.71354 72.2058 5.15453C72.0342 5.59551 71.7774 5.99835 71.45 6.33998C71.1152 6.67693 70.7136 6.94 70.2709 7.11224C69.8283 7.28448 69.3544 7.36206 68.88 7.33998ZM65.71 34.27V11.09H72.05V34.27H65.71Z" fill="white"/>
<path d="M99.4999 34.28H92.1099L87.0499 27.14L83.9799 22.8L75.6899 11.09H83.1299L87.7699 17.66L90.0799 20.93L99.4999 34.28Z" fill="white"/>
<path d="M99.4999 34.28H92.1099L87.0499 27.14L83.9799 22.8L75.6899 11.09H83.1299L87.7699 17.66L90.0799 20.93L99.4999 34.28Z" fill="white"/>
<path d="M85.87 28.92L82.32 34.28H75.21L82.46 24.11L85.42 28.29L85.87 28.92Z" fill="white"/>
<path d="M99.0699 11.09L92.3699 20.71L91.7099 19.77L88.9399 15.85L92.0099 11.09H99.0699Z" fill="white"/>
<path d="M111.79 34.75C109.775 34.7756 107.795 34.2276 106.08 33.17C104.382 32.117 102.999 30.6243 102.08 28.85C101.108 26.9474 100.613 24.8365 100.64 22.7C100.609 20.5501 101.103 18.4252 102.08 16.51C102.996 14.7333 104.379 13.2398 106.08 12.19C107.792 11.1247 109.774 10.5729 111.79 10.6C113.338 10.5732 114.871 10.916 116.26 11.6C117.536 12.244 118.619 13.2133 119.4 14.41C120.188 15.6213 120.627 17.0258 120.67 18.47V26.82C120.633 28.2714 120.193 29.684 119.4 30.9C118.607 32.0868 117.527 33.0535 116.26 33.71C114.876 34.4122 113.342 34.769 111.79 34.75ZM112.94 28.94C113.737 28.9711 114.532 28.831 115.27 28.5292C116.008 28.2273 116.673 27.7706 117.22 27.19C118.332 25.9455 118.916 24.3175 118.85 22.65C118.87 21.5248 118.612 20.412 118.1 19.41C117.623 18.4898 116.895 17.7236 116 17.2C115.057 16.6609 113.986 16.3879 112.9 16.41C111.848 16.401 110.812 16.6737 109.9 17.2C109.023 17.7324 108.31 18.4973 107.84 19.41C107.331 20.4128 107.077 21.5256 107.1 22.65C107.071 23.7909 107.325 24.9212 107.84 25.94C108.307 26.8545 109.021 27.62 109.9 28.15C110.821 28.6879 111.873 28.9613 112.94 28.94ZM118.51 34.27V28L119.51 22.33L118.51 16.77V11.09H124.75V34.27H118.51Z" fill="white"/>
</g>
<defs>
<clipPath id="clip0_0_1488">
<rect width="124.75" height="34.8" fill="white"/>
</clipPath>
</defs>
</svg>
