<svg width="116" height="38" viewBox="0 0 116 38" fill="none" xmlns="http://www.w3.org/2000/svg">
<path d="M54.7385 23.0305L53.4585 29.4248C52.8948 32.017 51.333 33.7478 48.1428 33.7478C44.4817 33.7478 43.5152 31.4769 44.3188 28.2815C45.4552 23.7484 49.1531 22.3984 54.7385 23.0305ZM60.5051 13.889L56.6119 14.1368L55.381 20.398C53.8928 20.3455 53.4244 20.2982 51.6744 20.2982C46.1967 20.2982 41.4158 22.6007 40.1526 28.0022C39.0145 32.8723 41.7809 36.6517 47.8136 36.6517C53.9935 36.6517 56.682 33.4274 57.6485 28.8943L60.5051 13.889ZM18.275 23.3037C12.5671 22.7836 7.6567 23.2573 7.57703 25.1955C7.45359 28.1055 16.9846 25.5667 16.8008 30.9201C16.5329 38.7851 3.27944 36.9756 0 35.9749L0.595307 33.6401C6.24985 34.5374 12.2152 34.6119 12.3456 31.4935C12.4857 28.179 2.91525 31.1582 3.13937 25.7908C3.30658 21.7926 9.28854 19.6364 19.0796 21.0748L18.275 23.3037ZM33.6655 28.6535C32.8417 31.9365 30.2381 33.9982 27.1381 33.9982C23.8963 33.9982 22.4378 32.1194 23.3071 28.6535C24.1318 25.3706 26.7652 23.1671 29.8643 23.1671C32.9616 23.1671 34.4893 25.3706 33.6655 28.6535ZM30.3641 20.4794C24.6877 20.4794 20.1249 23.7624 19.0025 28.6535C17.8776 33.5473 20.9347 36.8303 26.6085 36.8303C32.2823 36.8303 36.8469 33.5473 37.9692 28.6535C39.0941 23.7633 36.0388 20.4794 30.3641 20.4794ZM95.9486 36.7471H91.0145C88.0222 33.9343 82.2985 27.4699 78.0841 20.6291H81.705C85.7067 26.1515 95.9486 36.7471 95.9486 36.7471ZM101.119 4.73269L103.39 0L104.038 4.81148L108.666 3.1919L105.431 7.33979L108.94 10.0581L104.257 10.4196L103.999 15.4237L101.396 11.7258L97.5699 15.2539L99.0039 10.2822L94.4909 9.67024L98.8831 7.1682L97.0814 2.88549L101.119 4.73269ZM110.741 28.7034C109.904 32.038 107.26 34.1321 104.112 34.1321C100.82 34.1321 99.3366 32.2236 100.221 28.7034C101.058 25.3688 103.732 23.1303 106.879 23.1303C110.029 23.1303 111.58 25.3688 110.741 28.7034ZM107.388 20.3972C101.623 20.3972 96.9895 23.7344 95.847 28.7034C94.7054 33.6734 97.8098 37.0089 103.574 37.0089C109.339 37.0089 113.974 33.6734 115.114 28.7034C116.256 23.7344 113.154 20.3972 107.388 20.3972Z" fill="#525252"/>
<path d="M74.3442 35.3735C83.6634 30.197 91.7587 22.2426 97.4999 15.3659C93.3721 28.2859 83.4357 35.2387 74.3442 35.3735Z" fill="#525252"/>
<path d="M70.6559 22.8764C72.441 22.8764 73.4127 23.5243 73.4127 24.7622C73.4127 28.0477 67.0079 27.8306 64.1828 27.2554C65.1765 24.7954 67.4202 22.8764 70.6559 22.8764ZM77.2516 24.5836C77.2516 22.2006 75.3527 20.4497 71.0446 20.4497C64.0568 20.4497 59.5167 24.9854 59.5167 30.6005C59.5167 34.2267 62.5274 37.2408 68.0261 37.2408C71.815 37.2408 74.3451 35.3735 74.3451 35.3735C69.5231 35.89 63.6015 35.3735 63.6015 30.2153C63.6015 30.0105 63.6129 29.8056 63.6295 29.6017C70.2086 30.9674 77.2516 29.3154 77.2516 24.5836Z" fill="#525252"/>
</svg>
