<svg width="184" height="23" viewBox="0 0 184 23" fill="none" xmlns="http://www.w3.org/2000/svg">
<path d="M54.7768 3.66628C54.7266 3.83494 52.915 9.762 52.915 9.762H47.1183L48.9849 3.66628H42.3525C42.3525 3.66628 37.3389 20.0372 37.2462 20.3464H43.8781C43.9253 20.1771 46.0175 13.3529 46.0175 13.3529H51.8118L49.6748 20.347H56.3054C56.3581 20.1753 61.316 3.97908 61.4105 3.66628H54.7768ZM89.6527 5.47789L89.347 5.70576L89.9733 3.66628H83.3427C83.3427 3.66628 78.3339 20.0342 78.2346 20.347H84.8653C84.9221 20.1741 87.9512 10.2752 87.9512 10.2752C88.3783 8.87563 89.4768 7.93185 90.6757 7.93185H92.3748C92.9127 7.93185 93.3321 8.11487 93.5893 8.46116C93.7754 8.71475 93.8705 9.04729 93.8705 9.43365C93.8705 9.71176 93.8226 10.0174 93.7209 10.3404C93.7209 10.3404 91.0508 19.0707 90.662 20.3464H97.2908C97.3477 20.1741 100.895 8.59035 100.895 8.59035C100.995 8.25243 101.144 7.65852 101.144 6.97969C101.144 6.28711 100.992 5.50899 100.488 4.83076C99.7503 3.83136 98.4473 3.32956 96.6076 3.32956C93.0664 3.32956 90.7278 4.67765 89.6527 5.47789ZM63.392 4.86485C63.4536 5.07119 64.3492 8.1675 64.4198 8.40972C65.0061 8.1651 67.489 7.19261 69.6392 7.19261C71.6883 7.19261 72.8489 7.46773 73.2905 8.06343C73.5118 8.36307 73.5513 8.74405 73.4041 9.22611L72.9895 10.5838L72.8675 10.5461C70.0759 9.62324 67.9496 9.65315 67.9305 9.65554C65.7133 9.65554 63.7175 10.207 62.1607 11.2524C60.6746 12.2542 59.6109 13.6807 59.0886 15.3792C58.6321 16.8769 58.747 18.1556 59.4236 19.0671C60.211 20.1275 61.7569 20.6879 63.9029 20.6879C65.9371 20.6879 68.1441 20.1658 70.1268 19.2142L70.3828 19.091C70.3828 19.091 70.0735 20.1089 69.9981 20.347H76.633C76.6803 20.1753 80.1646 8.81582 80.1646 8.81582C80.3017 8.37405 80.3739 7.9147 80.3788 7.45218C80.3788 6.7261 80.1724 6.07718 79.7686 5.52753C78.7024 4.08913 76.2453 3.32657 72.6593 3.32657C68.2679 3.32657 64.1117 4.62741 63.392 4.86485ZM68.6448 13.0706C69.1504 13.0706 70.8836 13.1089 71.9491 13.6113L72.0466 13.6568L71.3018 16.0838L71.2515 16.1059C70.1926 16.6017 68.7047 16.9313 67.5416 16.9313C66.4258 16.9313 65.6451 16.6711 65.2813 16.1801C65.1314 15.9741 65.0529 15.7248 65.0576 15.4702C65.0576 15.3105 65.0797 15.14 65.1342 14.9666C65.4979 13.7782 66.8099 13.0706 68.6448 13.0706ZM115.499 3.58016C115.438 3.63219 109.144 8.58496 109.144 8.58496L110.687 3.58016H104.065L98.8787 20.5138H105.503C105.558 20.3452 107.607 13.634 107.607 13.634C107.607 13.634 112.368 20.4104 112.44 20.5138H119.516L113.438 11.8428C113.438 11.8428 122.957 3.99583 123.465 3.58016H115.499Z" fill="#525252"/>
<path d="M118.257 12.0437C117.538 14.396 117.807 16.6041 119.031 18.2495C120.406 20.1095 122.881 21.1364 125.993 21.1364C133.319 21.1364 137.452 18.3087 139.393 11.9695C140.115 9.61667 139.84 7.41211 138.621 5.76498C137.249 3.90372 134.769 2.8792 131.658 2.8792C124.923 2.8792 120.038 6.22251 118.257 12.0437ZM124.742 15.7554C124.163 14.9773 124.147 13.7399 124.688 11.9731C125.341 9.83198 126.837 7.27635 130.237 7.27635C131.541 7.27635 132.412 7.59692 132.906 8.26379C133.484 9.0419 133.502 10.2835 132.961 12.0461C132.305 14.1908 130.81 16.7465 127.411 16.7465C126.11 16.7465 125.234 16.4223 124.742 15.7554ZM140.361 12.0437C139.642 14.396 139.916 16.6041 141.135 18.2495C142.51 20.1095 144.986 21.1364 148.102 21.1364C155.428 21.1364 159.561 18.3087 161.502 11.9695C162.222 9.61667 161.946 7.41211 160.727 5.76498C159.353 3.90372 156.88 2.8792 153.76 2.8792C147.029 2.8792 142.144 6.22251 140.361 12.0437ZM152.342 7.27635C153.645 7.27635 154.521 7.59692 155.013 8.26379C155.589 9.04429 155.611 10.2835 155.067 12.0461C154.412 14.1908 152.917 16.7465 149.515 16.7465C148.212 16.7465 147.341 16.4223 146.849 15.7554C146.272 14.9773 146.253 13.7381 146.792 11.9731C147.448 9.83198 148.943 7.27635 152.342 7.27635ZM176.467 3.43303L170.019 8.87504L171.676 3.43303H165.052C165.052 3.43303 159.881 20.3219 159.786 20.6358H166.408C166.462 20.4642 168.546 13.6496 168.546 13.6496C168.546 13.6496 173.671 20.5431 173.747 20.6353H181.017C180.732 20.2585 174.502 11.8882 174.502 11.8882C174.502 11.8882 183.491 3.85109 184 3.43303H176.467Z" fill="#525252"/>
<path d="M39.2241 0.811606L39.1361 0H33.516C34.1633 6.6328 29.5841 14.0318 23.0659 15.7943C23.0611 15.7955 23.0563 15.7955 23.0521 15.7979C23.0162 15.8069 22.9337 15.8117 22.9259 15.7142C22.9231 15.6974 22.9252 15.6801 22.932 15.6645C22.9388 15.6489 22.95 15.6356 22.9642 15.6263H22.9594C28.3959 11.9983 31.2629 6.15433 30.7693 0H25.2669C25.5045 5.40792 21.8771 10.3272 16.3251 12.3266C16.2892 12.3326 16.2085 12.3374 16.1995 12.2429C16.1941 12.207 16.2174 12.1789 16.2396 12.1615H16.2372C20.2462 9.41391 22.6626 5.32897 22.5179 0H17.0179C16.9635 6.38101 11.2284 10.8332 0 10.8332C0.159739 10.9211 0.316487 11.0108 0.472637 11.0987C7.77877 15.0904 11.5886 17.5443 16.9796 21.9361C17.81 22.649 18.9641 23.0378 20.1266 22.9971C34.6766 21.9815 39.9145 9.22133 39.2241 0.811606Z" fill="#525252"/>
</svg>
