<svg width="142" height="35" viewBox="0 0 142 35" fill="none" xmlns="http://www.w3.org/2000/svg">
<path d="M15.9394 0.481592C19.0107 -1.71959e-05 22.2067 0.300722 25.1219 1.38736C28.4527 2.61159 31.392 4.84941 33.4894 7.70856C34.9073 9.64422 35.9421 11.8608 36.5025 14.1943C37.2458 17.2698 37.1756 20.5411 36.2847 23.5782C35.0144 27.9758 32.002 31.8308 28.0562 34.146C27.6966 34.3673 27.3285 34.5808 26.9278 34.7219C26.0887 33.9211 25.2928 33.0764 24.4679 32.2607C22.5358 30.3115 20.5988 28.3674 18.6716 26.4147C15.9196 29.1391 13.203 31.8989 10.458 34.6304C9.52744 34.224 8.68764 33.636 7.86912 33.0409C4.35033 30.4151 1.81462 26.4885 0.94077 22.1795C0.115155 18.1479 0.663437 13.8248 2.57427 10.1712C4.30564 11.8941 6.01007 13.6432 7.73648 15.3717C11.3071 18.9671 14.8705 22.5696 18.429 26.1764C18.5482 26.3473 18.7567 26.3459 18.8851 26.1849C20.9442 24.1279 22.9933 22.0611 25.0538 20.0055C28.3449 16.7088 31.6488 13.424 34.9158 10.1031C32.0836 10.0904 29.2514 10.1741 26.4185 10.1882C26.222 10.1932 26.022 10.1812 25.8291 10.223C25.6432 10.2677 25.5276 10.4344 25.3978 10.5599C23.6033 12.4303 21.7989 14.2915 20.0001 16.1576C19.588 16.5626 19.2156 17.0116 18.7787 17.3904C16.5296 15.1682 14.2804 12.9453 12.0468 10.7067C11.8156 10.4876 11.595 10.1698 11.2361 10.1975C8.36421 10.1556 5.49229 10.1308 2.62037 10.079C3.65452 8.05257 5.10502 6.246 6.81299 4.74585C9.37282 2.50378 12.5753 1.0015 15.9394 0.481592ZM66.702 10.0372C70.7087 10.0428 74.7155 10.0435 78.7223 10.0357C78.723 11.238 78.7237 12.441 78.7237 13.6432C75.9759 13.6482 73.2281 13.6389 70.4803 13.6503C70.4818 14.6192 70.481 15.5881 70.481 16.5563C72.7139 16.5634 74.9467 16.5556 77.1796 16.5605C77.1782 17.6429 77.1782 18.7253 77.1796 19.8077C74.9467 19.8268 72.7132 19.8084 70.4796 19.8169C70.4839 20.961 70.4775 22.105 70.4832 23.2484C73.2296 23.2591 75.9759 23.2463 78.7223 23.2548C78.7216 24.3989 78.7266 25.543 78.7202 26.6871C74.7134 26.6871 70.7073 26.6885 66.7012 26.6864C66.6941 21.1369 66.6934 15.5867 66.702 10.0372ZM83.0213 10.0365C84.913 10.0563 86.8047 10.0194 88.6956 10.0209C89.4716 10.0209 90.2504 10.0024 91.0221 10.0996C92.3499 10.3024 93.6366 10.9018 94.5742 11.8749C95.324 12.6403 95.7786 13.6631 95.9247 14.7185C96.1106 16.0512 95.9403 17.4897 95.1679 18.6217C94.5267 19.6048 93.4947 20.2424 92.4286 20.6794C93.8309 22.6831 95.2637 24.667 96.6574 26.6771C95.2119 26.6963 93.7656 26.6899 92.3208 26.6807C91.1157 24.9564 89.8908 23.247 88.6893 21.5213C88.5566 21.3617 88.4417 21.117 88.1998 21.134C87.731 21.1085 87.2615 21.1319 86.7926 21.1347C86.7962 22.9853 86.794 24.8358 86.7962 26.6864C85.5372 26.6913 84.2782 26.6892 83.0192 26.6885C83.0171 21.1376 83.0128 15.5867 83.0213 10.0365ZM86.7969 13.6198C86.7947 15.0632 86.7954 16.5066 86.7983 17.9493C87.9452 17.9323 89.0936 17.9777 90.2405 17.9337C91.1867 17.8557 91.9279 17.013 92.0903 16.1101C92.2073 15.5065 92.0584 14.844 91.6477 14.3802C91.2143 13.8844 90.5547 13.6084 89.8993 13.6162C88.8652 13.6127 87.831 13.6205 86.7969 13.6198ZM98.1313 10.0386C100.141 10.0627 102.149 10.0209 104.159 10.018C105.956 9.99035 107.751 10.0506 109.549 10.0407C110.439 10.0414 111.331 10.0393 112.221 10.0421C112.216 11.2401 112.211 12.4388 112.222 13.6375C110.56 13.656 108.896 13.6361 107.234 13.6475C107.238 17.9947 107.239 22.3419 107.234 26.6892C105.859 26.6878 104.485 26.692 103.111 26.6871C103.11 22.3419 103.108 17.9961 103.109 13.651C101.449 13.6389 99.7897 13.6482 98.1299 13.6432C98.1299 12.4417 98.1264 11.2401 98.1313 10.0386ZM115.139 10.04C116.396 10.0407 117.652 10.0435 118.91 10.0386C118.918 15.5888 118.913 21.139 118.912 26.6892C117.653 26.6885 116.395 26.692 115.137 26.6864C115.134 21.1376 115.13 15.5888 115.139 10.04ZM47.2014 10.1436C48.6342 10.135 50.0677 10.1102 51.5011 10.1173C52.7963 13.7829 54.056 17.4613 55.3781 21.1163C56.7584 17.523 58.0401 13.8915 59.3821 10.2833C59.4069 10.1733 59.4963 10.1074 59.6105 10.1322C60.9219 10.1365 62.2341 10.1365 63.5456 10.1457C61.4894 15.664 59.3927 21.1681 57.3294 26.6842C56.0562 26.6927 54.783 26.6842 53.5098 26.6885C51.4033 21.1745 49.3002 15.6597 47.2014 10.1436ZM121.961 10.1436C123.398 10.1379 124.834 10.1045 126.271 10.1216C127.353 13.2198 128.432 16.3194 129.528 19.4126C129.741 19.9779 129.913 20.5595 130.154 21.1149C131.496 17.528 132.809 13.9312 134.12 10.3329C134.153 10.2521 134.181 10.1194 134.302 10.14C135.635 10.1287 136.969 10.1393 138.301 10.145C136.261 15.6661 134.153 21.1624 132.094 26.6764C130.819 26.6963 129.544 26.6871 128.268 26.6821C126.163 21.1702 124.067 15.6548 121.961 10.1436ZM136.38 24.0237C137.025 24.0336 137.67 24.0166 138.315 24.0343C138.31 24.1506 138.306 24.2669 138.303 24.3833C138.04 24.384 137.777 24.3847 137.516 24.3819C137.511 25.2096 137.522 26.0374 137.51 26.8651C137.392 26.8608 137.278 26.8573 137.164 26.853C137.166 26.0296 137.176 25.2054 137.159 24.3819C136.895 24.3854 136.633 24.3854 136.372 24.3762C136.373 24.2585 136.376 24.1407 136.38 24.0237ZM138.708 24.023C138.869 24.0244 139.031 24.0251 139.194 24.0244C139.437 24.7954 139.64 25.5777 139.869 26.3523C140.125 25.5841 140.329 24.7996 140.567 24.0258C140.715 24.0258 140.865 24.0251 141.016 24.0237C141.021 24.967 141.014 25.9104 141.02 26.8545C140.909 26.858 140.799 26.8616 140.692 26.8658C140.679 26.1374 140.711 25.4082 140.671 24.6805C140.424 25.404 140.243 26.148 139.999 26.8729C139.896 26.8658 139.796 26.8601 139.697 26.8545C139.482 26.1466 139.319 25.421 139.057 24.7294C139.008 25.4366 139.045 26.1466 139.037 26.8552C138.925 26.8587 138.814 26.8616 138.706 26.8651C138.705 25.9175 138.7 24.9699 138.708 24.023Z" fill="#525252"/>
</svg>
