<svg width="154" height="32" viewBox="0 0 154 32" fill="none" xmlns="http://www.w3.org/2000/svg">
<path fill-rule="evenodd" clip-rule="evenodd" d="M153.151 12.0489C143.921 10.3668 136.859 3.35615 135.479 0.416138H122.303L135.323 12.0489L122.303 23.8207H135.479C136.859 20.8053 143.92 13.6389 153.151 12.0489ZM3.41031 30.4672H1.70515L0.930753 31.298H0L3.41031 27.2829H4.34106V31.298H3.41031V30.4672ZM21.2371 27.2829H22.167L20.4618 31.298H19.5319L21.2371 27.2829ZM57.5094 27.2829H58.4394L57.0444 30.6054H59.2137L58.9051 31.298H55.6495L57.5094 27.2829ZM75.6456 27.2829H76.7302L75.0251 31.298H73.9404L75.6456 27.2829ZM92.851 27.2829H93.9365L94.557 30.1915L95.7972 27.2829H96.7263L95.022 31.298H93.9365L93.316 28.5284L92.0766 31.298H91.1467L92.851 27.2829ZM112.692 27.2829H116.103L115.792 28.113H113.468L113.003 28.9445H115.329L115.019 29.6371H112.692L112.382 30.6054H114.709L114.398 31.298H110.988L112.692 27.2829ZM130.675 30.051C130.596 30.5593 130.996 30.7326 131.604 30.7436C131.957 30.7319 132.448 30.5637 132.535 30.1907C132.603 29.7739 132.04 29.6949 131.449 29.4981C130.978 29.387 130.458 29.1566 130.52 28.5284C130.768 27.5754 131.746 27.2229 132.689 27.2829C133.528 27.2229 134.222 27.5871 134.085 28.5284H133.154C133.213 28.0625 132.881 27.9067 132.379 27.974C132.045 27.9067 131.611 28.0354 131.604 28.3894C131.461 28.8034 132.201 28.9036 132.535 28.9438C133.167 29.1339 133.615 29.3753 133.465 30.051C133.288 31.0522 132.244 31.4165 131.449 31.4369C130.152 31.4172 129.615 30.9572 129.745 30.051H130.675ZM13.642 21.6054H8.37105L6.04539 23.6817H1.241L14.7267 11.7718H19.3772L17.2071 23.6817H13.3318L13.642 21.6054ZM33.9475 19.6652C31.9395 22.5833 28.5865 23.8872 24.6474 23.8207C20.1017 23.888 18.8574 22.1722 19.5319 20.3585C19.685 20.0586 19.9739 19.5972 20.1516 19.3887L25.1123 11.7725H29.9175L25.5773 18.2815C25.3514 18.623 24.9895 19.2169 24.9576 19.3887C24.7759 19.7617 24.1808 20.9516 26.0423 20.9129C28.0577 20.9516 29.1914 19.5972 30.0723 18.2815L34.4125 11.7725H39.063L33.9475 19.6652ZM47.7435 15.6501C47.8335 15.2749 47.9645 14.6518 47.434 14.4031C47.1786 14.1567 46.5516 14.1486 46.0383 14.1267C45.2156 14.1486 44.1113 14.3307 43.8682 15.0957C43.4581 15.9975 45.7428 16.0472 47.1238 16.4802C49.4748 17.1859 49.939 18.3085 49.4486 19.6652C48.2772 22.5503 44.1572 23.8872 40.7681 23.8207C37.2874 23.888 34.5852 22.6505 36.1176 19.527H40.1476C40.0289 20.4558 40.3294 20.6854 40.6126 21.0511C40.9057 21.2471 41.4525 21.2807 42.163 21.3283C43.1544 21.2815 44.4379 20.9172 44.7981 20.0813C45.0773 19.2827 43.5506 19.1671 41.6973 18.5587C39.9463 18.1447 38.4351 17.3848 39.2177 15.3729C40.2459 12.7627 44.0835 11.5407 47.123 11.4953C50.458 11.5407 53.0398 12.4819 52.2384 15.6501H47.7435ZM57.1992 14.8185H52.8589L54.8743 11.7718H68.2053L66.1899 14.8185H61.8497L56.1145 23.5435H51.3085L57.1992 14.8185ZM69.4447 19.527H70.9951C72.3081 19.497 72.4105 19.8085 72.3908 20.4967C72.336 20.7666 72.074 22.1291 71.9259 22.4348C71.8653 22.9987 72.0748 23.3102 72.0806 23.5435H76.2661C76.1441 22.9138 76.1499 22.1496 76.2661 21.1893C76.2596 20.6891 76.695 18.8578 75.8011 18.1425C78.4395 18.2742 80.1839 17.221 80.7611 14.9575C81.4888 12.34 79.4439 11.8208 76.5763 11.7725H69.9113L62.006 23.5442H66.6565L69.4447 19.527ZM85.8765 11.7718H90.5262L82.7765 23.5435H77.9704L85.8765 11.7718Z" fill="#525252"/>
<path fill-rule="evenodd" clip-rule="evenodd" d="M108.663 11.7717H113.313L113.468 18.9726L117.964 11.7717H122.458L114.709 23.5435H110.057L109.747 17.0345L105.408 23.5435H100.912L108.663 11.7717ZM37.5134 31.298H36.5834L38.2886 27.2829H40.4587C41.2192 27.307 41.6907 27.5915 41.5442 28.3901C41.4328 28.9101 40.9024 29.5683 39.9937 29.6371L40.6134 31.298H39.6835L39.2185 29.7753H38.1331L37.5134 31.298ZM96.416 21.6054H90.9912L88.6663 23.6817H83.8603L97.3468 11.7717H101.998L99.8264 23.6817H95.9527L96.416 21.6054Z" fill="#525252"/>
<path fill-rule="evenodd" clip-rule="evenodd" d="M14.1062 19.1108L14.7267 15.5111L14.4165 15.9265L11.0062 19.1108H14.1062ZM72.7003 14.6803H75.1806C76.4609 14.6277 76.6075 15.1886 76.4208 15.6501C76.1482 16.3617 75.1766 16.9716 73.6302 17.0345H71.1498L72.7003 14.6803ZM96.8819 19.1108L97.5015 15.5111L97.0366 15.9265L93.781 19.1108H96.8819ZM3.41032 29.7753L3.56586 28.113L2.17096 29.7753H3.41032ZM38.4433 29.0827H39.3733C39.9086 29.1244 40.4399 28.9445 40.4579 28.5284C40.6118 28.0625 40.2852 28.0011 39.8382 27.974H38.9083L38.4433 29.0827Z" fill="black"/>
</svg>
