<svg width="108" height="22" viewBox="0 0 108 22" fill="none" xmlns="http://www.w3.org/2000/svg">
<path d="M10.8142 21.7012C4.86768 21.7012 0 16.8335 0 10.8014C0 4.86768 4.86768 0 10.8142 0C16.8378 0 21.7012 4.86768 21.7012 10.8014C21.7012 16.8335 16.8335 21.7012 10.8142 21.7012ZM10.8142 17.1589C14.3547 17.1589 17.1589 14.3547 17.1589 10.8014C17.1589 7.33791 14.3547 4.53375 10.8142 4.53375C7.33791 4.53375 4.53375 7.33791 4.53375 10.8014C4.53375 14.3547 7.33791 17.1589 10.8142 17.1589ZM77.4932 21.7012C71.5467 21.7012 66.679 16.8335 66.679 10.8014C66.679 4.86768 71.5467 0 77.4932 0C83.5168 0 88.3802 4.86768 88.3802 10.8014C88.3802 16.8335 83.5126 21.7012 77.4932 21.7012ZM77.4932 17.1589C81.0338 17.1589 83.8379 14.3547 83.8379 10.8014C83.8379 7.33791 81.0338 4.53375 77.4932 4.53375C74.0169 4.53375 71.2128 7.33791 71.2128 10.8014C71.2128 14.3547 74.0169 17.1589 77.4932 17.1589ZM22.9427 0.659299V21.2046H27.4765V4.45669H32.5154V21.2046H37.0491V4.45669H38.7873C40.5982 4.45669 42.0024 5.86091 42.0024 7.58622V21.2046H46.5448V7.7489C46.5448 3.71177 43.3296 0.488053 39.2839 0.488053H27.5621C25.9952 0.483771 24.4197 0.483771 22.9427 0.659299ZM89.6218 0.659299V21.2046H94.1555V4.45669H99.2801C101.005 4.45669 102.495 5.86091 102.495 7.58622V21.2046H107.029V7.7489C107.029 3.71177 103.814 0.488053 99.7681 0.488053H94.1555C92.6785 0.483771 91.0988 0.483771 89.6218 0.659299ZM48.4413 0.659299V21.2046H52.9751V4.45669H58.3393C60.1631 4.45669 61.5673 5.86091 61.5673 7.58622C61.5673 9.39715 60.1631 10.8014 58.3393 10.8014H54.4649L61.4774 21.2046H67.09L61.974 13.6954C64.4443 12.7878 66.0968 10.3947 66.0968 7.58622C66.0968 3.71177 62.9673 0.483771 58.9944 0.483771H52.9708C51.4082 0.483771 49.9226 0.483771 48.4413 0.659299Z" fill="#525252"/>
</svg>
