<svg width="152" height="35" viewBox="0 0 152 35" fill="none" xmlns="http://www.w3.org/2000/svg">
<path d="M96.2796 21.7317C93.6418 21.7317 91.4952 19.5845 91.4952 16.9473C91.4952 14.3095 93.6418 12.1629 96.2796 12.1629C98.9174 12.1629 101.063 14.3095 101.063 16.9473C101.063 19.6109 98.8911 21.7317 96.2796 21.7317ZM96.2796 9.31781C92.0644 9.31781 88.6507 12.732 88.6507 16.9473C88.6507 21.1625 92.0644 24.5762 96.2796 24.5762C100.495 24.5762 103.909 21.1625 103.909 16.9473C103.909 12.7578 100.495 9.31781 96.2796 9.31781ZM86.9439 22.1193H87.5646V24.9896H86.9439C83.6596 24.9896 80.9697 22.3002 80.9697 19.016V5.90416H83.8406V9.73178H87.5382V12.6026H83.8406V19.0417C83.8406 20.7228 85.2371 22.1193 86.9439 22.1193ZM121.907 21.7317C119.269 21.7317 117.123 19.5845 117.123 16.9473C117.123 14.3095 119.269 12.1629 121.907 12.1629C124.545 12.1629 126.692 14.3095 126.692 16.9473C126.666 19.6109 124.519 21.7317 121.907 21.7317ZM121.907 9.31781C117.692 9.31781 114.278 12.732 114.278 16.9473C114.278 21.1625 117.692 24.5762 121.907 24.5762C126.122 24.5762 129.536 21.1625 129.536 16.9473C129.536 12.7578 126.122 9.31781 121.907 9.31781ZM143.863 21.7317C141.225 21.7317 139.079 19.5845 139.079 16.9473C139.079 14.3095 141.225 12.1629 143.863 12.1629C146.501 12.1629 148.647 14.3095 148.647 16.9473C148.647 19.6109 146.476 21.7317 143.863 21.7317ZM143.863 9.31781C139.648 9.31781 136.234 12.732 136.234 16.9473C136.234 21.1625 139.648 24.5762 143.863 24.5762C145.725 24.5762 147.432 23.9034 148.751 22.7915V24.2916H151.492V16.9467C151.492 12.7572 148.078 9.31781 143.863 9.31781ZM111.796 9.31839H113.166V12.1887H111.796C110.089 12.1887 108.692 13.5857 108.692 15.292V24.3953H105.822V15.292C105.822 12.0077 108.511 9.31839 111.796 9.31839ZM131.45 5.51653H134.32V24.3432H131.45V5.51653ZM61.8849 15.6796V24.7571H59.014V15.6796C59.014 13.9728 57.6175 12.5763 55.9107 12.5763C54.2045 12.5763 52.8074 13.9728 52.8074 15.6796V24.7565H49.9371V15.6796C49.9371 13.9728 48.54 12.5763 46.8338 12.5763C45.1275 12.5763 43.7305 13.9728 43.7305 15.6796V24.7565H40.8602V15.6796C40.8602 12.3948 43.5495 9.70544 46.808 9.70544C48.6442 9.70544 50.2474 10.507 51.3594 11.8005C52.4713 10.507 54.0745 9.70544 55.9113 9.70544C59.195 9.70544 61.8849 12.3948 61.8849 15.6796ZM71.4531 22.1193C68.8152 22.1193 66.6687 19.9727 66.6687 17.3349C66.6687 14.6971 68.8158 12.5505 71.4531 12.5505C74.0909 12.5505 76.2374 14.6977 76.2374 17.3349C76.2374 19.9727 74.0651 22.1193 71.4531 22.1193ZM71.4531 9.70601C67.2121 9.70601 63.7978 13.1197 63.7978 17.3349C63.7978 21.5502 67.2121 24.9638 71.4273 24.9638C75.6425 24.9638 79.0562 21.5502 79.0562 17.3349C79.082 13.1454 75.6683 9.70601 71.4531 9.70601ZM17.3522 0.00842285C7.7583 0.00842285 0 7.76672 0 17.3607C0 26.9546 7.7583 34.7135 17.3522 34.7135C26.9468 34.7135 34.7051 26.9552 34.7051 17.3607C34.7051 7.81826 27.0498 0.00842285 17.3522 0.00842285Z" fill="#525252"/>
<path d="M22.5248 4.2752L17.3786 21.3435L17.3522 21.3692L17.3007 21.3435L12.1544 4.2752L5.50808 26.1278H6.74941C6.74941 26.1278 7.57734 22.326 8.94807 20.0506C9.69813 18.8093 10.8358 17.8004 12.3611 17.8262C13.4473 17.8525 14.3783 18.4468 15.5423 20.0764C15.8006 20.4382 16.1109 21.0331 16.4212 21.6023C16.9131 22.5585 17.3265 23.5416 17.3265 23.5416C17.3265 23.5416 18.4126 21.0589 19.1112 20.0764C20.2746 18.4468 21.2056 17.8525 22.2918 17.8262C23.8177 17.8004 24.9811 18.8093 25.7054 20.0506C27.0761 22.326 27.9041 26.1278 27.9041 26.1278H29.1448L22.5248 4.2752Z" fill="#CACACA"/>
</svg>
