<svg width="200" height="60" viewBox="0 0 200 60" fill="none" xmlns="http://www.w3.org/2000/svg">
<rect width="200" height="60" rx="6" fill="#2B2B2B"/>
<path d="M47.8298 43.7562C46.2144 45.3922 44.4508 45.1338 42.753 44.3589C40.9563 43.5668 39.308 43.5324 37.4125 44.3589C35.0389 45.4266 33.7862 45.1166 32.3687 43.7562C24.3249 35.0946 25.5117 21.904 34.6433 21.4218C36.8685 21.5424 38.418 22.6961 39.7201 22.7994C41.6651 22.3862 43.5277 21.198 45.6046 21.353C48.0935 21.5596 49.9726 22.5928 51.2088 24.4526C46.0661 27.6727 47.2858 34.7502 52 36.7305C51.0605 39.3135 49.8407 41.8793 47.8133 43.7735L47.8298 43.7562ZM39.5553 21.3185C39.308 17.4784 42.2915 14.31 45.72 14C46.198 18.4428 41.8629 21.749 39.5553 21.3185Z" fill="white"/>
<path d="M67.84 24V14.2H71.081C71.7577 14.2 72.3923 14.3283 72.985 14.585C73.5777 14.837 74.098 15.1893 74.546 15.642C74.994 16.09 75.344 16.6103 75.596 17.203C75.8527 17.791 75.981 18.4233 75.981 19.1C75.981 19.7767 75.8527 20.4113 75.596 21.004C75.344 21.592 74.994 22.1123 74.546 22.565C74.098 23.013 73.5777 23.3653 72.985 23.622C72.3923 23.874 71.7577 24 71.081 24H67.84ZM69.016 22.824H71.081C71.5943 22.824 72.075 22.7283 72.523 22.537C72.9757 22.341 73.3723 22.0727 73.713 21.732C74.0537 21.3913 74.3197 20.997 74.511 20.549C74.707 20.0963 74.805 19.6133 74.805 19.1C74.805 18.5867 74.707 18.106 74.511 17.658C74.3197 17.2053 74.0513 16.8087 73.706 16.468C73.3653 16.1273 72.971 15.8613 72.523 15.67C72.075 15.474 71.5943 15.376 71.081 15.376H69.016V22.824ZM80.2032 24.182C79.5592 24.182 78.9712 24.0163 78.4392 23.685C77.9119 23.3537 77.4895 22.9103 77.1722 22.355C76.8595 21.795 76.7032 21.1767 76.7032 20.5C76.7032 19.9867 76.7942 19.5083 76.9762 19.065C77.1582 18.617 77.4079 18.225 77.7252 17.889C78.0472 17.5483 78.4205 17.2823 78.8452 17.091C79.2699 16.8997 79.7225 16.804 80.2032 16.804C80.8472 16.804 81.4329 16.9697 81.9602 17.301C82.4922 17.6323 82.9145 18.078 83.2272 18.638C83.5445 19.198 83.7032 19.8187 83.7032 20.5C83.7032 21.0087 83.6122 21.4847 83.4302 21.928C83.2482 22.3713 82.9962 22.7633 82.6742 23.104C82.3569 23.44 81.9859 23.7037 81.5612 23.895C81.1412 24.0863 80.6885 24.182 80.2032 24.182ZM80.2032 23.006C80.6419 23.006 81.0362 22.8917 81.3862 22.663C81.7409 22.4297 82.0185 22.124 82.2192 21.746C82.4245 21.3633 82.5272 20.948 82.5272 20.5C82.5272 20.0427 82.4222 19.6227 82.2122 19.24C82.0069 18.8573 81.7292 18.5517 81.3792 18.323C81.0292 18.0943 80.6372 17.98 80.2032 17.98C79.7645 17.98 79.3702 18.0967 79.0202 18.33C78.6702 18.5587 78.3925 18.8643 78.1872 19.247C77.9819 19.6297 77.8792 20.0473 77.8792 20.5C77.8792 20.9667 77.9842 21.3913 78.1942 21.774C78.4042 22.152 78.6865 22.453 79.0412 22.677C79.3959 22.8963 79.7832 23.006 80.2032 23.006ZM87.662 24H86.472L84.127 17H85.275L87.081 22.341L88.866 17H90.077L91.869 22.341L93.654 17H94.816L92.471 24H91.274L89.461 18.61L87.662 24ZM102.137 19.646V24H100.961V19.905C100.961 19.5503 100.875 19.2283 100.702 18.939C100.53 18.6497 100.299 18.421 100.009 18.253C99.72 18.0803 99.398 17.994 99.0434 17.994C98.6934 17.994 98.3714 18.0803 98.0774 18.253C97.788 18.421 97.557 18.6497 97.3844 18.939C97.2117 19.2283 97.1254 19.5503 97.1254 19.905V24H95.9494V17H97.1254V17.875C97.3727 17.5483 97.6854 17.2893 98.0634 17.098C98.4414 16.902 98.852 16.804 99.2954 16.804C99.818 16.804 100.294 16.9323 100.723 17.189C101.157 17.441 101.5 17.7817 101.752 18.211C102.009 18.6403 102.137 19.1187 102.137 19.646ZM103.619 24V13.5H104.795V24H103.619ZM109.488 24.182C108.844 24.182 108.256 24.0163 107.724 23.685C107.197 23.3537 106.775 22.9103 106.457 22.355C106.145 21.795 105.988 21.1767 105.988 20.5C105.988 19.9867 106.079 19.5083 106.261 19.065C106.443 18.617 106.693 18.225 107.01 17.889C107.332 17.5483 107.706 17.2823 108.13 17.091C108.555 16.8997 109.008 16.804 109.488 16.804C110.132 16.804 110.718 16.9697 111.245 17.301C111.777 17.6323 112.2 18.078 112.512 18.638C112.83 19.198 112.988 19.8187 112.988 20.5C112.988 21.0087 112.897 21.4847 112.715 21.928C112.533 22.3713 112.281 22.7633 111.959 23.104C111.642 23.44 111.271 23.7037 110.846 23.895C110.426 24.0863 109.974 24.182 109.488 24.182ZM109.488 23.006C109.927 23.006 110.321 22.8917 110.671 22.663C111.026 22.4297 111.304 22.124 111.504 21.746C111.71 21.3633 111.812 20.948 111.812 20.5C111.812 20.0427 111.707 19.6227 111.497 19.24C111.292 18.8573 111.014 18.5517 110.664 18.323C110.314 18.0943 109.922 17.98 109.488 17.98C109.05 17.98 108.655 18.0967 108.305 18.33C107.955 18.5587 107.678 18.8643 107.472 19.247C107.267 19.6297 107.164 20.0473 107.164 20.5C107.164 20.9667 107.269 21.3913 107.479 21.774C107.689 22.152 107.972 22.453 108.326 22.677C108.681 22.8963 109.068 23.006 109.488 23.006ZM119.734 17H120.91V24H119.734L119.685 22.817C119.465 23.223 119.162 23.552 118.775 23.804C118.392 24.056 117.935 24.182 117.403 24.182C116.889 24.182 116.409 24.0863 115.961 23.895C115.513 23.699 115.116 23.4307 114.771 23.09C114.43 22.7447 114.164 22.348 113.973 21.9C113.781 21.452 113.686 20.969 113.686 20.451C113.686 19.9517 113.779 19.4803 113.966 19.037C114.152 18.5937 114.411 18.2063 114.743 17.875C115.079 17.539 115.466 17.2777 115.905 17.091C116.343 16.8997 116.815 16.804 117.319 16.804C117.869 16.804 118.352 16.9347 118.768 17.196C119.183 17.4527 119.519 17.7863 119.776 18.197L119.734 17ZM117.382 23.041C117.844 23.041 118.243 22.929 118.579 22.705C118.919 22.4763 119.181 22.1683 119.363 21.781C119.549 21.3937 119.643 20.9667 119.643 20.5C119.643 20.024 119.549 19.5947 119.363 19.212C119.176 18.8247 118.912 18.519 118.572 18.295C118.236 18.0663 117.839 17.952 117.382 17.952C116.92 17.952 116.5 18.0663 116.122 18.295C115.744 18.5237 115.443 18.8317 115.219 19.219C114.999 19.6017 114.89 20.0287 114.89 20.5C114.89 20.9713 115.004 21.4007 115.233 21.788C115.461 22.1707 115.765 22.4763 116.143 22.705C116.521 22.929 116.934 23.041 117.382 23.041ZM127.807 13.5H128.983V24H127.807V22.81C127.569 23.2207 127.249 23.552 126.848 23.804C126.447 24.056 125.975 24.182 125.434 24.182C124.925 24.182 124.449 24.0863 124.006 23.895C123.563 23.7037 123.171 23.44 122.83 23.104C122.494 22.7633 122.23 22.3713 122.039 21.928C121.848 21.4847 121.752 21.0087 121.752 20.5C121.752 19.9913 121.848 19.5153 122.039 19.072C122.23 18.624 122.494 18.232 122.83 17.896C123.171 17.5553 123.563 17.2893 124.006 17.098C124.449 16.9067 124.925 16.811 125.434 16.811C125.975 16.811 126.447 16.937 126.848 17.189C127.249 17.441 127.569 17.7723 127.807 18.183V13.5ZM125.448 23.041C125.91 23.041 126.309 22.929 126.645 22.705C126.986 22.4763 127.247 22.1683 127.429 21.781C127.616 21.3937 127.709 20.9667 127.709 20.5C127.709 20.024 127.616 19.5947 127.429 19.212C127.242 18.8247 126.979 18.519 126.638 18.295C126.302 18.0663 125.905 17.952 125.448 17.952C124.986 17.952 124.566 18.0663 124.188 18.295C123.815 18.5237 123.516 18.8317 123.292 19.219C123.068 19.6017 122.956 20.0287 122.956 20.5C122.956 20.9713 123.07 21.4007 123.299 21.788C123.528 22.1707 123.831 22.4763 124.209 22.705C124.587 22.929 125 23.041 125.448 23.041ZM137.106 24.182C136.462 24.182 135.874 24.0163 135.342 23.685C134.814 23.3537 134.392 22.9103 134.075 22.355C133.762 21.795 133.606 21.1767 133.606 20.5C133.606 19.9867 133.697 19.5083 133.879 19.065C134.061 18.617 134.31 18.225 134.628 17.889C134.95 17.5483 135.323 17.2823 135.748 17.091C136.172 16.8997 136.625 16.804 137.106 16.804C137.75 16.804 138.335 16.9697 138.863 17.301C139.395 17.6323 139.817 18.078 140.13 18.638C140.447 19.198 140.606 19.8187 140.606 20.5C140.606 21.0087 140.515 21.4847 140.333 21.928C140.151 22.3713 139.899 22.7633 139.577 23.104C139.259 23.44 138.888 23.7037 138.464 23.895C138.044 24.0863 137.591 24.182 137.106 24.182ZM137.106 23.006C137.544 23.006 137.939 22.8917 138.289 22.663C138.643 22.4297 138.921 22.124 139.122 21.746C139.327 21.3633 139.43 20.948 139.43 20.5C139.43 20.0427 139.325 19.6227 139.115 19.24C138.909 18.8573 138.632 18.5517 138.282 18.323C137.932 18.0943 137.54 17.98 137.106 17.98C136.667 17.98 136.273 18.0967 135.923 18.33C135.573 18.5587 135.295 18.8643 135.09 19.247C134.884 19.6297 134.782 20.0473 134.782 20.5C134.782 20.9667 134.887 21.3913 135.097 21.774C135.307 22.152 135.589 22.453 135.944 22.677C136.298 22.8963 136.686 23.006 137.106 23.006ZM147.952 19.646V24H146.776V19.905C146.776 19.5503 146.689 19.2283 146.517 18.939C146.344 18.6497 146.113 18.421 145.824 18.253C145.534 18.0803 145.212 17.994 144.858 17.994C144.508 17.994 144.186 18.0803 143.892 18.253C143.602 18.421 143.371 18.6497 143.199 18.939C143.026 19.2283 142.94 19.5503 142.94 19.905V24H141.764V17H142.94V17.875C143.187 17.5483 143.5 17.2893 143.878 17.098C144.256 16.902 144.666 16.804 145.11 16.804C145.632 16.804 146.108 16.9323 146.538 17.189C146.972 17.441 147.315 17.7817 147.567 18.211C147.823 18.6403 147.952 19.1187 147.952 19.646ZM156.341 18.176H154.752L154.745 24H153.569L153.576 18.176H152.372V17H153.576L153.569 14.802H154.745L154.752 17H156.341V18.176ZM163.784 19.646V24H162.608V19.905C162.608 19.5503 162.522 19.2283 162.349 18.939C162.176 18.6497 161.945 18.421 161.656 18.253C161.367 18.0803 161.045 17.994 160.69 17.994C160.34 17.994 160.018 18.0803 159.724 18.253C159.435 18.421 159.204 18.6497 159.031 18.939C158.858 19.2283 158.772 19.5503 158.772 19.905V24H157.596V13.5H158.772V17.875C159.019 17.5483 159.332 17.2893 159.71 17.098C160.088 16.902 160.499 16.804 160.942 16.804C161.465 16.804 161.941 16.9323 162.37 17.189C162.804 17.441 163.147 17.7817 163.399 18.211C163.656 18.6403 163.784 19.1187 163.784 19.646ZM168.127 24.182C167.483 24.182 166.895 24.0163 166.363 23.685C165.836 23.3537 165.413 22.9103 165.096 22.355C164.783 21.795 164.627 21.1767 164.627 20.5C164.627 19.9867 164.718 19.5083 164.9 19.065C165.082 18.617 165.332 18.225 165.649 17.889C165.971 17.5483 166.344 17.2823 166.769 17.091C167.194 16.8997 167.646 16.804 168.127 16.804C168.654 16.804 169.137 16.9113 169.576 17.126C170.019 17.336 170.397 17.63 170.71 18.008C171.027 18.386 171.263 18.8247 171.417 19.324C171.576 19.8233 171.634 20.3577 171.592 20.927H165.88C165.936 21.3237 166.067 21.6783 166.272 21.991C166.477 22.299 166.739 22.544 167.056 22.726C167.378 22.908 167.735 23.0013 168.127 23.006C168.547 23.006 168.927 22.8987 169.268 22.684C169.609 22.4647 169.884 22.166 170.094 21.788L171.291 22.068C171.011 22.6887 170.589 23.1973 170.024 23.594C169.459 23.986 168.827 24.182 168.127 24.182ZM165.845 20.003H170.409C170.372 19.611 170.246 19.254 170.031 18.932C169.816 18.6053 169.543 18.344 169.212 18.148C168.881 17.952 168.519 17.854 168.127 17.854C167.735 17.854 167.376 17.9497 167.049 18.141C166.722 18.3323 166.452 18.5913 166.237 18.918C166.027 19.24 165.896 19.6017 165.845 20.003Z" fill="white"/>
<path d="M71.292 32.4H73.821L78.402 45H76.071L75.261 42.768H69.861L69.051 45H66.72L71.292 32.4ZM70.662 40.572H74.451L72.552 35.379L70.662 40.572ZM81.774 49.5H79.578V36H81.774V37.143C82.068 36.735 82.428 36.405 82.854 36.153C83.286 35.895 83.79 35.766 84.366 35.766C85.026 35.766 85.641 35.889 86.211 36.135C86.781 36.381 87.282 36.723 87.714 37.161C88.152 37.593 88.491 38.094 88.731 38.664C88.977 39.234 89.1 39.846 89.1 40.5C89.1 41.154 88.977 41.769 88.731 42.345C88.491 42.921 88.152 43.428 87.714 43.866C87.282 44.298 86.781 44.637 86.211 44.883C85.641 45.129 85.026 45.252 84.366 45.252C83.79 45.252 83.286 45.126 82.854 44.874C82.428 44.616 82.068 44.283 81.774 43.875V49.5ZM84.339 37.881C83.883 37.881 83.475 38.001 83.115 38.241C82.755 38.475 82.473 38.79 82.269 39.186C82.065 39.582 81.963 40.02 81.963 40.5C81.963 40.98 82.065 41.421 82.269 41.823C82.473 42.219 82.755 42.537 83.115 42.777C83.475 43.011 83.883 43.128 84.339 43.128C84.801 43.128 85.224 43.011 85.608 42.777C85.992 42.543 86.298 42.228 86.526 41.832C86.754 41.43 86.868 40.986 86.868 40.5C86.868 40.02 86.754 39.582 86.526 39.186C86.298 38.79 85.992 38.475 85.608 38.241C85.23 38.001 84.807 37.881 84.339 37.881ZM92.7076 49.5H90.5116V36H92.7076V37.143C93.0016 36.735 93.3616 36.405 93.7876 36.153C94.2196 35.895 94.7236 35.766 95.2996 35.766C95.9596 35.766 96.5746 35.889 97.1446 36.135C97.7146 36.381 98.2156 36.723 98.6476 37.161C99.0856 37.593 99.4246 38.094 99.6646 38.664C99.9106 39.234 100.034 39.846 100.034 40.5C100.034 41.154 99.9106 41.769 99.6646 42.345C99.4246 42.921 99.0856 43.428 98.6476 43.866C98.2156 44.298 97.7146 44.637 97.1446 44.883C96.5746 45.129 95.9596 45.252 95.2996 45.252C94.7236 45.252 94.2196 45.126 93.7876 44.874C93.3616 44.616 93.0016 44.283 92.7076 43.875V49.5ZM95.2726 37.881C94.8166 37.881 94.4086 38.001 94.0486 38.241C93.6886 38.475 93.4066 38.79 93.2026 39.186C92.9986 39.582 92.8966 40.02 92.8966 40.5C92.8966 40.98 92.9986 41.421 93.2026 41.823C93.4066 42.219 93.6886 42.537 94.0486 42.777C94.4086 43.011 94.8166 43.128 95.2726 43.128C95.7346 43.128 96.1576 43.011 96.5416 42.777C96.9256 42.543 97.2316 42.228 97.4596 41.832C97.6876 41.43 97.8016 40.986 97.8016 40.5C97.8016 40.02 97.6876 39.582 97.4596 39.186C97.2316 38.79 96.9256 38.475 96.5416 38.241C96.1636 38.001 95.7406 37.881 95.2726 37.881ZM101.322 45V31.5H103.518V45H101.322ZM109.501 45.234C108.673 45.234 107.917 45.021 107.233 44.595C106.555 44.169 106.012 43.596 105.604 42.876C105.202 42.156 105.001 41.361 105.001 40.491C105.001 39.837 105.118 39.225 105.352 38.655C105.586 38.079 105.907 37.575 106.315 37.143C106.729 36.705 107.209 36.363 107.755 36.117C108.301 35.871 108.883 35.748 109.501 35.748C110.203 35.748 110.845 35.898 111.427 36.198C112.015 36.492 112.513 36.897 112.921 37.413C113.329 37.929 113.626 38.517 113.812 39.177C113.998 39.837 114.04 40.527 113.938 41.247H107.359C107.443 41.583 107.581 41.886 107.773 42.156C107.965 42.42 108.208 42.633 108.502 42.795C108.796 42.951 109.129 43.032 109.501 43.038C109.885 43.044 110.233 42.954 110.545 42.768C110.863 42.576 111.127 42.318 111.337 41.994L113.578 42.516C113.212 43.314 112.666 43.968 111.94 44.478C111.214 44.982 110.401 45.234 109.501 45.234ZM107.287 39.6H111.715C111.649 39.24 111.508 38.916 111.292 38.628C111.082 38.334 110.821 38.1 110.509 37.926C110.197 37.752 109.861 37.665 109.501 37.665C109.141 37.665 108.808 37.752 108.502 37.926C108.196 38.094 107.935 38.325 107.719 38.619C107.509 38.907 107.365 39.234 107.287 39.6ZM124.473 45.234C123.777 45.234 123.108 45.126 122.466 44.91C121.83 44.688 121.272 44.373 120.792 43.965C120.312 43.551 119.967 43.056 119.757 42.48L121.818 41.724C121.902 41.964 122.073 42.183 122.331 42.381C122.589 42.579 122.904 42.738 123.276 42.858C123.648 42.978 124.047 43.038 124.473 43.038C124.911 43.038 125.319 42.972 125.697 42.84C126.081 42.702 126.39 42.513 126.624 42.273C126.858 42.027 126.975 41.742 126.975 41.418C126.975 41.088 126.852 40.818 126.606 40.608C126.36 40.392 126.045 40.221 125.661 40.095C125.277 39.969 124.881 39.873 124.473 39.807C123.579 39.669 122.778 39.456 122.07 39.168C121.362 38.88 120.801 38.481 120.387 37.971C119.979 37.461 119.775 36.801 119.775 35.991C119.775 35.229 119.994 34.563 120.432 33.993C120.87 33.423 121.446 32.979 122.16 32.661C122.874 32.343 123.645 32.184 124.473 32.184C125.163 32.184 125.829 32.292 126.471 32.508C127.113 32.724 127.674 33.039 128.154 33.453C128.64 33.867 128.988 34.365 129.198 34.947L127.128 35.694C127.044 35.454 126.873 35.235 126.615 35.037C126.357 34.839 126.042 34.683 125.67 34.569C125.298 34.449 124.899 34.389 124.473 34.389C124.047 34.383 123.642 34.452 123.258 34.596C122.88 34.734 122.571 34.923 122.331 35.163C122.091 35.403 121.971 35.679 121.971 35.991C121.971 36.393 122.082 36.696 122.304 36.9C122.532 37.104 122.835 37.254 123.213 37.35C123.591 37.44 124.011 37.524 124.473 37.602C125.313 37.734 126.09 37.956 126.804 38.268C127.518 38.58 128.091 38.997 128.523 39.519C128.955 40.035 129.171 40.668 129.171 41.418C129.171 42.18 128.955 42.849 128.523 43.425C128.091 43.995 127.518 44.439 126.804 44.757C126.09 45.075 125.313 45.234 124.473 45.234ZM135.783 38.196H134.037V45H131.841V38.196H130.509V36H131.841V33.174H134.037V36H135.783V38.196ZM141.177 45.234C140.349 45.234 139.593 45.021 138.909 44.595C138.231 44.169 137.688 43.599 137.28 42.885C136.878 42.165 136.677 41.37 136.677 40.5C136.677 39.84 136.794 39.225 137.028 38.655C137.262 38.079 137.583 37.575 137.991 37.143C138.405 36.705 138.885 36.363 139.431 36.117C139.977 35.871 140.559 35.748 141.177 35.748C142.005 35.748 142.758 35.961 143.436 36.387C144.12 36.813 144.663 37.386 145.065 38.106C145.473 38.826 145.677 39.624 145.677 40.5C145.677 41.154 145.56 41.766 145.326 42.336C145.092 42.906 144.768 43.41 144.354 43.848C143.946 44.28 143.469 44.619 142.923 44.865C142.383 45.111 141.801 45.234 141.177 45.234ZM141.177 43.038C141.615 43.038 142.008 42.921 142.356 42.687C142.704 42.453 142.977 42.144 143.175 41.76C143.379 41.376 143.481 40.956 143.481 40.5C143.481 40.032 143.376 39.606 143.166 39.222C142.962 38.832 142.683 38.523 142.329 38.295C141.981 38.061 141.597 37.944 141.177 37.944C140.745 37.944 140.355 38.061 140.007 38.295C139.659 38.529 139.383 38.841 139.179 39.231C138.975 39.621 138.873 40.044 138.873 40.5C138.873 40.974 138.978 41.403 139.188 41.787C139.398 42.171 139.677 42.477 140.025 42.705C140.379 42.927 140.763 43.038 141.177 43.038ZM147.087 45L147.078 36H149.274L149.283 36.801C149.589 36.477 149.955 36.222 150.381 36.036C150.807 35.844 151.266 35.748 151.758 35.748C152.088 35.748 152.418 35.796 152.748 35.892L151.884 38.106C151.656 38.016 151.428 37.971 151.2 37.971C150.846 37.971 150.522 38.058 150.228 38.232C149.94 38.4 149.709 38.631 149.535 38.925C149.367 39.213 149.283 39.534 149.283 39.888V45H147.087ZM157.296 45.234C156.468 45.234 155.712 45.021 155.028 44.595C154.35 44.169 153.807 43.596 153.399 42.876C152.997 42.156 152.796 41.361 152.796 40.491C152.796 39.837 152.913 39.225 153.147 38.655C153.381 38.079 153.702 37.575 154.11 37.143C154.524 36.705 155.004 36.363 155.55 36.117C156.096 35.871 156.678 35.748 157.296 35.748C157.998 35.748 158.64 35.898 159.222 36.198C159.81 36.492 160.308 36.897 160.716 37.413C161.124 37.929 161.421 38.517 161.607 39.177C161.793 39.837 161.835 40.527 161.733 41.247H155.154C155.238 41.583 155.376 41.886 155.568 42.156C155.76 42.42 156.003 42.633 156.297 42.795C156.591 42.951 156.924 43.032 157.296 43.038C157.68 43.044 158.028 42.954 158.34 42.768C158.658 42.576 158.922 42.318 159.132 41.994L161.373 42.516C161.007 43.314 160.461 43.968 159.735 44.478C159.009 44.982 158.196 45.234 157.296 45.234ZM155.082 39.6H159.51C159.444 39.24 159.303 38.916 159.087 38.628C158.877 38.334 158.616 38.1 158.304 37.926C157.992 37.752 157.656 37.665 157.296 37.665C156.936 37.665 156.603 37.752 156.297 37.926C155.991 38.094 155.73 38.325 155.514 38.619C155.304 38.907 155.16 39.234 155.082 39.6Z" fill="white"/>
</svg>
