<svg width="190" height="60" viewBox="0 0 190 60" fill="none" xmlns="http://www.w3.org/2000/svg">
<rect width="190" height="60" rx="6" fill="#12235C"/>
<path d="M36.8298 43.7562C35.2144 45.3922 33.4508 45.1338 31.753 44.3589C29.9563 43.5668 28.308 43.5324 26.4125 44.3589C24.0389 45.4266 22.7862 45.1166 21.3687 43.7562C13.3249 35.0946 14.5117 21.904 23.6433 21.4218C25.8685 21.5424 27.418 22.6961 28.7201 22.7994C30.6651 22.3862 32.5277 21.198 34.6046 21.353C37.0935 21.5596 38.9726 22.5928 40.2088 24.4526C35.0661 27.6727 36.2858 34.7502 41 36.7305C40.0605 39.3135 38.8407 41.8793 36.8133 43.7735L36.8298 43.7562ZM28.5553 21.3185C28.308 17.4784 31.2915 14.31 34.72 14C35.198 18.4428 30.8629 21.749 28.5553 21.3185Z" fill="white"/>
<path d="M52.84 24V14.2H56.081C56.7577 14.2 57.3923 14.3283 57.985 14.585C58.5777 14.837 59.098 15.1893 59.546 15.642C59.994 16.09 60.344 16.6103 60.596 17.203C60.8527 17.791 60.981 18.4233 60.981 19.1C60.981 19.7767 60.8527 20.4113 60.596 21.004C60.344 21.592 59.994 22.1123 59.546 22.565C59.098 23.013 58.5777 23.3653 57.985 23.622C57.3923 23.874 56.7577 24 56.081 24H52.84ZM54.016 22.824H56.081C56.5943 22.824 57.075 22.7283 57.523 22.537C57.9757 22.341 58.3723 22.0727 58.713 21.732C59.0537 21.3913 59.3197 20.997 59.511 20.549C59.707 20.0963 59.805 19.6133 59.805 19.1C59.805 18.5867 59.707 18.106 59.511 17.658C59.3197 17.2053 59.0513 16.8087 58.706 16.468C58.3653 16.1273 57.971 15.8613 57.523 15.67C57.075 15.474 56.5943 15.376 56.081 15.376H54.016V22.824ZM65.2032 24.182C64.5592 24.182 63.9712 24.0163 63.4392 23.685C62.9119 23.3537 62.4895 22.9103 62.1722 22.355C61.8595 21.795 61.7032 21.1767 61.7032 20.5C61.7032 19.9867 61.7942 19.5083 61.9762 19.065C62.1582 18.617 62.4079 18.225 62.7252 17.889C63.0472 17.5483 63.4205 17.2823 63.8452 17.091C64.2699 16.8997 64.7225 16.804 65.2032 16.804C65.8472 16.804 66.4329 16.9697 66.9602 17.301C67.4922 17.6323 67.9145 18.078 68.2272 18.638C68.5445 19.198 68.7032 19.8187 68.7032 20.5C68.7032 21.0087 68.6122 21.4847 68.4302 21.928C68.2482 22.3713 67.9962 22.7633 67.6742 23.104C67.3569 23.44 66.9859 23.7037 66.5612 23.895C66.1412 24.0863 65.6885 24.182 65.2032 24.182ZM65.2032 23.006C65.6419 23.006 66.0362 22.8917 66.3862 22.663C66.7409 22.4297 67.0185 22.124 67.2192 21.746C67.4245 21.3633 67.5272 20.948 67.5272 20.5C67.5272 20.0427 67.4222 19.6227 67.2122 19.24C67.0069 18.8573 66.7292 18.5517 66.3792 18.323C66.0292 18.0943 65.6372 17.98 65.2032 17.98C64.7645 17.98 64.3702 18.0967 64.0202 18.33C63.6702 18.5587 63.3925 18.8643 63.1872 19.247C62.9819 19.6297 62.8792 20.0473 62.8792 20.5C62.8792 20.9667 62.9842 21.3913 63.1942 21.774C63.4042 22.152 63.6865 22.453 64.0412 22.677C64.3959 22.8963 64.7832 23.006 65.2032 23.006ZM72.662 24H71.472L69.127 17H70.275L72.081 22.341L73.866 17H75.077L76.869 22.341L78.654 17H79.816L77.471 24H76.274L74.461 18.61L72.662 24ZM87.1374 19.646V24H85.9614V19.905C85.9614 19.5503 85.875 19.2283 85.7024 18.939C85.5297 18.6497 85.2987 18.421 85.0094 18.253C84.72 18.0803 84.398 17.994 84.0434 17.994C83.6934 17.994 83.3714 18.0803 83.0774 18.253C82.788 18.421 82.557 18.6497 82.3844 18.939C82.2117 19.2283 82.1254 19.5503 82.1254 19.905V24H80.9494V17H82.1254V17.875C82.3727 17.5483 82.6854 17.2893 83.0634 17.098C83.4414 16.902 83.852 16.804 84.2954 16.804C84.818 16.804 85.294 16.9323 85.7234 17.189C86.1574 17.441 86.5004 17.7817 86.7524 18.211C87.009 18.6403 87.1374 19.1187 87.1374 19.646ZM88.6193 24V13.5H89.7953V24H88.6193ZM94.4884 24.182C93.8444 24.182 93.2564 24.0163 92.7244 23.685C92.197 23.3537 91.7747 22.9103 91.4574 22.355C91.1447 21.795 90.9884 21.1767 90.9884 20.5C90.9884 19.9867 91.0794 19.5083 91.2614 19.065C91.4434 18.617 91.693 18.225 92.0104 17.889C92.3324 17.5483 92.7057 17.2823 93.1304 17.091C93.555 16.8997 94.0077 16.804 94.4884 16.804C95.1324 16.804 95.718 16.9697 96.2454 17.301C96.7774 17.6323 97.1997 18.078 97.5124 18.638C97.8297 19.198 97.9884 19.8187 97.9884 20.5C97.9884 21.0087 97.8974 21.4847 97.7154 21.928C97.5334 22.3713 97.2814 22.7633 96.9594 23.104C96.642 23.44 96.271 23.7037 95.8464 23.895C95.4264 24.0863 94.9737 24.182 94.4884 24.182ZM94.4884 23.006C94.927 23.006 95.3214 22.8917 95.6714 22.663C96.026 22.4297 96.3037 22.124 96.5044 21.746C96.7097 21.3633 96.8124 20.948 96.8124 20.5C96.8124 20.0427 96.7074 19.6227 96.4974 19.24C96.292 18.8573 96.0144 18.5517 95.6644 18.323C95.3144 18.0943 94.9224 17.98 94.4884 17.98C94.0497 17.98 93.6554 18.0967 93.3054 18.33C92.9554 18.5587 92.6777 18.8643 92.4724 19.247C92.267 19.6297 92.1644 20.0473 92.1644 20.5C92.1644 20.9667 92.2694 21.3913 92.4794 21.774C92.6894 22.152 92.9717 22.453 93.3264 22.677C93.681 22.8963 94.0684 23.006 94.4884 23.006ZM104.734 17H105.91V24H104.734L104.685 22.817C104.465 23.223 104.162 23.552 103.775 23.804C103.392 24.056 102.935 24.182 102.403 24.182C101.889 24.182 101.409 24.0863 100.961 23.895C100.513 23.699 100.116 23.4307 99.7706 23.09C99.43 22.7447 99.164 22.348 98.9726 21.9C98.7813 21.452 98.6856 20.969 98.6856 20.451C98.6856 19.9517 98.779 19.4803 98.9656 19.037C99.1523 18.5937 99.4113 18.2063 99.7426 17.875C100.079 17.539 100.466 17.2777 100.905 17.091C101.343 16.8997 101.815 16.804 102.319 16.804C102.869 16.804 103.352 16.9347 103.768 17.196C104.183 17.4527 104.519 17.7863 104.776 18.197L104.734 17ZM102.382 23.041C102.844 23.041 103.243 22.929 103.579 22.705C103.919 22.4763 104.181 22.1683 104.363 21.781C104.549 21.3937 104.643 20.9667 104.643 20.5C104.643 20.024 104.549 19.5947 104.363 19.212C104.176 18.8247 103.912 18.519 103.572 18.295C103.236 18.0663 102.839 17.952 102.382 17.952C101.92 17.952 101.5 18.0663 101.122 18.295C100.744 18.5237 100.443 18.8317 100.219 19.219C99.9993 19.6017 99.8896 20.0287 99.8896 20.5C99.8896 20.9713 100.004 21.4007 100.233 21.788C100.461 22.1707 100.765 22.4763 101.143 22.705C101.521 22.929 101.934 23.041 102.382 23.041ZM112.807 13.5H113.983V24H112.807V22.81C112.569 23.2207 112.249 23.552 111.848 23.804C111.447 24.056 110.975 24.182 110.434 24.182C109.925 24.182 109.449 24.0863 109.006 23.895C108.563 23.7037 108.171 23.44 107.83 23.104C107.494 22.7633 107.23 22.3713 107.039 21.928C106.848 21.4847 106.752 21.0087 106.752 20.5C106.752 19.9913 106.848 19.5153 107.039 19.072C107.23 18.624 107.494 18.232 107.83 17.896C108.171 17.5553 108.563 17.2893 109.006 17.098C109.449 16.9067 109.925 16.811 110.434 16.811C110.975 16.811 111.447 16.937 111.848 17.189C112.249 17.441 112.569 17.7723 112.807 18.183V13.5ZM110.448 23.041C110.91 23.041 111.309 22.929 111.645 22.705C111.986 22.4763 112.247 22.1683 112.429 21.781C112.616 21.3937 112.709 20.9667 112.709 20.5C112.709 20.024 112.616 19.5947 112.429 19.212C112.242 18.8247 111.979 18.519 111.638 18.295C111.302 18.0663 110.905 17.952 110.448 17.952C109.986 17.952 109.566 18.0663 109.188 18.295C108.815 18.5237 108.516 18.8317 108.292 19.219C108.068 19.6017 107.956 20.0287 107.956 20.5C107.956 20.9713 108.07 21.4007 108.299 21.788C108.528 22.1707 108.831 22.4763 109.209 22.705C109.587 22.929 110 23.041 110.448 23.041ZM122.106 24.182C121.462 24.182 120.874 24.0163 120.342 23.685C119.814 23.3537 119.392 22.9103 119.075 22.355C118.762 21.795 118.606 21.1767 118.606 20.5C118.606 19.9867 118.697 19.5083 118.879 19.065C119.061 18.617 119.31 18.225 119.628 17.889C119.95 17.5483 120.323 17.2823 120.748 17.091C121.172 16.8997 121.625 16.804 122.106 16.804C122.75 16.804 123.335 16.9697 123.863 17.301C124.395 17.6323 124.817 18.078 125.13 18.638C125.447 19.198 125.606 19.8187 125.606 20.5C125.606 21.0087 125.515 21.4847 125.333 21.928C125.151 22.3713 124.899 22.7633 124.577 23.104C124.259 23.44 123.888 23.7037 123.464 23.895C123.044 24.0863 122.591 24.182 122.106 24.182ZM122.106 23.006C122.544 23.006 122.939 22.8917 123.289 22.663C123.643 22.4297 123.921 22.124 124.122 21.746C124.327 21.3633 124.43 20.948 124.43 20.5C124.43 20.0427 124.325 19.6227 124.115 19.24C123.909 18.8573 123.632 18.5517 123.282 18.323C122.932 18.0943 122.54 17.98 122.106 17.98C121.667 17.98 121.273 18.0967 120.923 18.33C120.573 18.5587 120.295 18.8643 120.09 19.247C119.884 19.6297 119.782 20.0473 119.782 20.5C119.782 20.9667 119.887 21.3913 120.097 21.774C120.307 22.152 120.589 22.453 120.944 22.677C121.298 22.8963 121.686 23.006 122.106 23.006ZM132.952 19.646V24H131.776V19.905C131.776 19.5503 131.689 19.2283 131.517 18.939C131.344 18.6497 131.113 18.421 130.824 18.253C130.534 18.0803 130.212 17.994 129.858 17.994C129.508 17.994 129.186 18.0803 128.892 18.253C128.602 18.421 128.371 18.6497 128.199 18.939C128.026 19.2283 127.94 19.5503 127.94 19.905V24H126.764V17H127.94V17.875C128.187 17.5483 128.5 17.2893 128.878 17.098C129.256 16.902 129.666 16.804 130.11 16.804C130.632 16.804 131.108 16.9323 131.538 17.189C131.972 17.441 132.315 17.7817 132.567 18.211C132.823 18.6403 132.952 19.1187 132.952 19.646ZM141.341 18.176H139.752L139.745 24H138.569L138.576 18.176H137.372V17H138.576L138.569 14.802H139.745L139.752 17H141.341V18.176ZM148.784 19.646V24H147.608V19.905C147.608 19.5503 147.522 19.2283 147.349 18.939C147.176 18.6497 146.945 18.421 146.656 18.253C146.367 18.0803 146.045 17.994 145.69 17.994C145.34 17.994 145.018 18.0803 144.724 18.253C144.435 18.421 144.204 18.6497 144.031 18.939C143.858 19.2283 143.772 19.5503 143.772 19.905V24H142.596V13.5H143.772V17.875C144.019 17.5483 144.332 17.2893 144.71 17.098C145.088 16.902 145.499 16.804 145.942 16.804C146.465 16.804 146.941 16.9323 147.37 17.189C147.804 17.441 148.147 17.7817 148.399 18.211C148.656 18.6403 148.784 19.1187 148.784 19.646ZM153.127 24.182C152.483 24.182 151.895 24.0163 151.363 23.685C150.836 23.3537 150.413 22.9103 150.096 22.355C149.783 21.795 149.627 21.1767 149.627 20.5C149.627 19.9867 149.718 19.5083 149.9 19.065C150.082 18.617 150.332 18.225 150.649 17.889C150.971 17.5483 151.344 17.2823 151.769 17.091C152.194 16.8997 152.646 16.804 153.127 16.804C153.654 16.804 154.137 16.9113 154.576 17.126C155.019 17.336 155.397 17.63 155.71 18.008C156.027 18.386 156.263 18.8247 156.417 19.324C156.576 19.8233 156.634 20.3577 156.592 20.927H150.88C150.936 21.3237 151.067 21.6783 151.272 21.991C151.477 22.299 151.739 22.544 152.056 22.726C152.378 22.908 152.735 23.0013 153.127 23.006C153.547 23.006 153.927 22.8987 154.268 22.684C154.609 22.4647 154.884 22.166 155.094 21.788L156.291 22.068C156.011 22.6887 155.589 23.1973 155.024 23.594C154.459 23.986 153.827 24.182 153.127 24.182ZM150.845 20.003H155.409C155.372 19.611 155.246 19.254 155.031 18.932C154.816 18.6053 154.543 18.344 154.212 18.148C153.881 17.952 153.519 17.854 153.127 17.854C152.735 17.854 152.376 17.9497 152.049 18.141C151.722 18.3323 151.452 18.5913 151.237 18.918C151.027 19.24 150.896 19.6017 150.845 20.003Z" fill="white"/>
<path d="M56.292 32.4H58.821L63.402 45H61.071L60.261 42.768H54.861L54.051 45H51.72L56.292 32.4ZM55.662 40.572H59.451L57.552 35.379L55.662 40.572ZM66.774 49.5H64.578V36H66.774V37.143C67.068 36.735 67.428 36.405 67.854 36.153C68.286 35.895 68.79 35.766 69.366 35.766C70.026 35.766 70.641 35.889 71.211 36.135C71.781 36.381 72.282 36.723 72.714 37.161C73.152 37.593 73.491 38.094 73.731 38.664C73.977 39.234 74.1 39.846 74.1 40.5C74.1 41.154 73.977 41.769 73.731 42.345C73.491 42.921 73.152 43.428 72.714 43.866C72.282 44.298 71.781 44.637 71.211 44.883C70.641 45.129 70.026 45.252 69.366 45.252C68.79 45.252 68.286 45.126 67.854 44.874C67.428 44.616 67.068 44.283 66.774 43.875V49.5ZM69.339 37.881C68.883 37.881 68.475 38.001 68.115 38.241C67.755 38.475 67.473 38.79 67.269 39.186C67.065 39.582 66.963 40.02 66.963 40.5C66.963 40.98 67.065 41.421 67.269 41.823C67.473 42.219 67.755 42.537 68.115 42.777C68.475 43.011 68.883 43.128 69.339 43.128C69.801 43.128 70.224 43.011 70.608 42.777C70.992 42.543 71.298 42.228 71.526 41.832C71.754 41.43 71.868 40.986 71.868 40.5C71.868 40.02 71.754 39.582 71.526 39.186C71.298 38.79 70.992 38.475 70.608 38.241C70.23 38.001 69.807 37.881 69.339 37.881ZM77.7076 49.5H75.5116V36H77.7076V37.143C78.0016 36.735 78.3616 36.405 78.7876 36.153C79.2196 35.895 79.7236 35.766 80.2996 35.766C80.9596 35.766 81.5746 35.889 82.1446 36.135C82.7146 36.381 83.2156 36.723 83.6476 37.161C84.0856 37.593 84.4246 38.094 84.6646 38.664C84.9106 39.234 85.0336 39.846 85.0336 40.5C85.0336 41.154 84.9106 41.769 84.6646 42.345C84.4246 42.921 84.0856 43.428 83.6476 43.866C83.2156 44.298 82.7146 44.637 82.1446 44.883C81.5746 45.129 80.9596 45.252 80.2996 45.252C79.7236 45.252 79.2196 45.126 78.7876 44.874C78.3616 44.616 78.0016 44.283 77.7076 43.875V49.5ZM80.2726 37.881C79.8166 37.881 79.4086 38.001 79.0486 38.241C78.6886 38.475 78.4066 38.79 78.2026 39.186C77.9986 39.582 77.8966 40.02 77.8966 40.5C77.8966 40.98 77.9986 41.421 78.2026 41.823C78.4066 42.219 78.6886 42.537 79.0486 42.777C79.4086 43.011 79.8166 43.128 80.2726 43.128C80.7346 43.128 81.1576 43.011 81.5416 42.777C81.9256 42.543 82.2316 42.228 82.4596 41.832C82.6876 41.43 82.8016 40.986 82.8016 40.5C82.8016 40.02 82.6876 39.582 82.4596 39.186C82.2316 38.79 81.9256 38.475 81.5416 38.241C81.1636 38.001 80.7406 37.881 80.2726 37.881ZM86.3222 45V31.5H88.5182V45H86.3222ZM94.5009 45.234C93.6729 45.234 92.9169 45.021 92.2329 44.595C91.5549 44.169 91.0119 43.596 90.6039 42.876C90.2019 42.156 90.0009 41.361 90.0009 40.491C90.0009 39.837 90.1179 39.225 90.3519 38.655C90.5859 38.079 90.9069 37.575 91.3149 37.143C91.7289 36.705 92.2089 36.363 92.7549 36.117C93.3009 35.871 93.8829 35.748 94.5009 35.748C95.2029 35.748 95.8449 35.898 96.4269 36.198C97.0149 36.492 97.5129 36.897 97.9209 37.413C98.3289 37.929 98.6259 38.517 98.8119 39.177C98.9979 39.837 99.0399 40.527 98.9379 41.247H92.3589C92.4429 41.583 92.5809 41.886 92.7729 42.156C92.9649 42.42 93.2079 42.633 93.5019 42.795C93.7959 42.951 94.1289 43.032 94.5009 43.038C94.8849 43.044 95.2329 42.954 95.5449 42.768C95.8629 42.576 96.1269 42.318 96.3369 41.994L98.5779 42.516C98.2119 43.314 97.6659 43.968 96.9399 44.478C96.2139 44.982 95.4009 45.234 94.5009 45.234ZM92.2869 39.6H96.7149C96.6489 39.24 96.5079 38.916 96.2919 38.628C96.0819 38.334 95.8209 38.1 95.5089 37.926C95.1969 37.752 94.8609 37.665 94.5009 37.665C94.1409 37.665 93.8079 37.752 93.5019 37.926C93.1959 38.094 92.9349 38.325 92.7189 38.619C92.5089 38.907 92.3649 39.234 92.2869 39.6ZM109.473 45.234C108.777 45.234 108.108 45.126 107.466 44.91C106.83 44.688 106.272 44.373 105.792 43.965C105.312 43.551 104.967 43.056 104.757 42.48L106.818 41.724C106.902 41.964 107.073 42.183 107.331 42.381C107.589 42.579 107.904 42.738 108.276 42.858C108.648 42.978 109.047 43.038 109.473 43.038C109.911 43.038 110.319 42.972 110.697 42.84C111.081 42.702 111.39 42.513 111.624 42.273C111.858 42.027 111.975 41.742 111.975 41.418C111.975 41.088 111.852 40.818 111.606 40.608C111.36 40.392 111.045 40.221 110.661 40.095C110.277 39.969 109.881 39.873 109.473 39.807C108.579 39.669 107.778 39.456 107.07 39.168C106.362 38.88 105.801 38.481 105.387 37.971C104.979 37.461 104.775 36.801 104.775 35.991C104.775 35.229 104.994 34.563 105.432 33.993C105.87 33.423 106.446 32.979 107.16 32.661C107.874 32.343 108.645 32.184 109.473 32.184C110.163 32.184 110.829 32.292 111.471 32.508C112.113 32.724 112.674 33.039 113.154 33.453C113.64 33.867 113.988 34.365 114.198 34.947L112.128 35.694C112.044 35.454 111.873 35.235 111.615 35.037C111.357 34.839 111.042 34.683 110.67 34.569C110.298 34.449 109.899 34.389 109.473 34.389C109.047 34.383 108.642 34.452 108.258 34.596C107.88 34.734 107.571 34.923 107.331 35.163C107.091 35.403 106.971 35.679 106.971 35.991C106.971 36.393 107.082 36.696 107.304 36.9C107.532 37.104 107.835 37.254 108.213 37.35C108.591 37.44 109.011 37.524 109.473 37.602C110.313 37.734 111.09 37.956 111.804 38.268C112.518 38.58 113.091 38.997 113.523 39.519C113.955 40.035 114.171 40.668 114.171 41.418C114.171 42.18 113.955 42.849 113.523 43.425C113.091 43.995 112.518 44.439 111.804 44.757C111.09 45.075 110.313 45.234 109.473 45.234ZM120.783 38.196H119.037V45H116.841V38.196H115.509V36H116.841V33.174H119.037V36H120.783V38.196ZM126.177 45.234C125.349 45.234 124.593 45.021 123.909 44.595C123.231 44.169 122.688 43.599 122.28 42.885C121.878 42.165 121.677 41.37 121.677 40.5C121.677 39.84 121.794 39.225 122.028 38.655C122.262 38.079 122.583 37.575 122.991 37.143C123.405 36.705 123.885 36.363 124.431 36.117C124.977 35.871 125.559 35.748 126.177 35.748C127.005 35.748 127.758 35.961 128.436 36.387C129.12 36.813 129.663 37.386 130.065 38.106C130.473 38.826 130.677 39.624 130.677 40.5C130.677 41.154 130.56 41.766 130.326 42.336C130.092 42.906 129.768 43.41 129.354 43.848C128.946 44.28 128.469 44.619 127.923 44.865C127.383 45.111 126.801 45.234 126.177 45.234ZM126.177 43.038C126.615 43.038 127.008 42.921 127.356 42.687C127.704 42.453 127.977 42.144 128.175 41.76C128.379 41.376 128.481 40.956 128.481 40.5C128.481 40.032 128.376 39.606 128.166 39.222C127.962 38.832 127.683 38.523 127.329 38.295C126.981 38.061 126.597 37.944 126.177 37.944C125.745 37.944 125.355 38.061 125.007 38.295C124.659 38.529 124.383 38.841 124.179 39.231C123.975 39.621 123.873 40.044 123.873 40.5C123.873 40.974 123.978 41.403 124.188 41.787C124.398 42.171 124.677 42.477 125.025 42.705C125.379 42.927 125.763 43.038 126.177 43.038ZM132.087 45L132.078 36H134.274L134.283 36.801C134.589 36.477 134.955 36.222 135.381 36.036C135.807 35.844 136.266 35.748 136.758 35.748C137.088 35.748 137.418 35.796 137.748 35.892L136.884 38.106C136.656 38.016 136.428 37.971 136.2 37.971C135.846 37.971 135.522 38.058 135.228 38.232C134.94 38.4 134.709 38.631 134.535 38.925C134.367 39.213 134.283 39.534 134.283 39.888V45H132.087ZM142.296 45.234C141.468 45.234 140.712 45.021 140.028 44.595C139.35 44.169 138.807 43.596 138.399 42.876C137.997 42.156 137.796 41.361 137.796 40.491C137.796 39.837 137.913 39.225 138.147 38.655C138.381 38.079 138.702 37.575 139.11 37.143C139.524 36.705 140.004 36.363 140.55 36.117C141.096 35.871 141.678 35.748 142.296 35.748C142.998 35.748 143.64 35.898 144.222 36.198C144.81 36.492 145.308 36.897 145.716 37.413C146.124 37.929 146.421 38.517 146.607 39.177C146.793 39.837 146.835 40.527 146.733 41.247H140.154C140.238 41.583 140.376 41.886 140.568 42.156C140.76 42.42 141.003 42.633 141.297 42.795C141.591 42.951 141.924 43.032 142.296 43.038C142.68 43.044 143.028 42.954 143.34 42.768C143.658 42.576 143.922 42.318 144.132 41.994L146.373 42.516C146.007 43.314 145.461 43.968 144.735 44.478C144.009 44.982 143.196 45.234 142.296 45.234ZM140.082 39.6H144.51C144.444 39.24 144.303 38.916 144.087 38.628C143.877 38.334 143.616 38.1 143.304 37.926C142.992 37.752 142.656 37.665 142.296 37.665C141.936 37.665 141.603 37.752 141.297 37.926C140.991 38.094 140.73 38.325 140.514 38.619C140.304 38.907 140.16 39.234 140.082 39.6Z" fill="white"/>
</svg>
