<svg width="64" height="72" viewBox="0 0 64 72" fill="none" xmlns="http://www.w3.org/2000/svg">
<path d="M39.5281 7.66667V14.6744C39.5281 17.7911 31.1386 20.3411 20.8015 20.3411C10.4644 20.3411 2.07491 17.81 2.07491 14.6744V7.66667M39.5281 15.2222V24.1189C39.5281 27.2356 31.1386 29.7856 20.8015 29.7856C10.4644 29.7856 2.07491 27.2544 2.07491 24.1189V15.2222M27.5805 38.1156C25.3048 38.3722 23.0165 38.4983 20.7266 38.4933C10.427 38.4933 2 35.9811 2 32.8267V22.7778M39.5281 24.6667V30.3333M21.6067 47.9378H20.7266C10.427 47.9378 2 45.4067 2 42.2711V30.3333M22.7303 56.74H20.7266C10.427 56.74 2 54.2278 2 51.0733V41.6289M39.5281 60.5556H47.0187C48.012 60.5556 48.9647 60.1575 49.6671 59.4491C50.3694 58.7406 50.764 57.7797 50.764 56.7778C50.764 55.7758 50.3694 54.815 49.6671 54.1065C48.9647 53.398 48.012 53 47.0187 53H43.2734C42.2801 53 41.3275 52.602 40.6251 51.8935C39.9227 51.185 39.5281 50.2241 39.5281 49.2222C39.5281 48.2203 39.9227 47.2594 40.6251 46.5509C41.3275 45.8425 42.2801 45.4444 43.2734 45.4444H50.764M45.1461 41.6667V45.4444M45.1461 60.5556V64.3333M39.5281 6.72222C39.5281 9.33023 31.1439 11.4444 20.8015 11.4444C10.4591 11.4444 2.07491 9.33023 2.07491 6.72222C2.07491 4.11421 10.4591 2 20.8015 2C31.1439 2 39.5281 4.11421 39.5281 6.72222ZM62 53C62 62.3888 54.4542 70 45.1461 70C35.8379 70 28.2921 62.3888 28.2921 53C28.2921 43.6112 35.8379 36 45.1461 36C54.4542 36 62 43.6112 62 53Z" stroke="#7F838C" stroke-width="3" stroke-linecap="round" stroke-linejoin="round"/>
</svg>
