<svg width="111" height="89" viewBox="0 0 111 89" fill="none" xmlns="http://www.w3.org/2000/svg">
<path d="M3.00797 1.50502C3.00926 1.80415 2.92215 2.09694 2.75767 2.34629C2.5932 2.59564 2.35876 2.79033 2.08406 2.9057C1.80936 3.02107 1.50676 3.05193 1.21458 2.99437C0.922412 2.93681 0.653819 2.79341 0.442831 2.58235C0.231843 2.37129 0.0879546 2.10206 0.0293934 1.80877C-0.0291678 1.51547 0.000233464 1.21132 0.113873 0.934827C0.227512 0.658337 0.420275 0.421956 0.667743 0.255629C0.915211 0.0893016 1.20625 0.000512476 1.50399 0.000509673C1.70118 -0.000351746 1.89661 0.0379278 2.07904 0.113151C2.26148 0.188374 2.42733 0.299058 2.56707 0.438851C2.70681 0.578643 2.8177 0.74479 2.89336 0.927753C2.96902 1.11072 3.00797 1.30689 3.00797 1.50502Z" fill="#C5C5C5"/>
<path d="M18.3408 1.50502C18.3421 1.80415 18.255 2.09694 18.0905 2.34629C17.926 2.59564 17.6916 2.79033 17.4169 2.9057C17.1422 3.02107 16.8396 3.05193 16.5474 2.99437C16.2552 2.93681 15.9866 2.79341 15.7757 2.58235C15.5647 2.37129 15.4208 2.10206 15.3622 1.80877C15.3037 1.51547 15.3331 1.21132 15.4467 0.934827C15.5603 0.658337 15.7531 0.421956 16.0006 0.255629C16.248 0.0893016 16.5391 0.000512476 16.8368 0.000509673C17.2346 0.000505929 17.6161 0.158807 17.898 0.440771C18.1799 0.722735 18.3391 1.1054 18.3408 1.50502Z" fill="#C5C5C5"/>
<path d="M33.6671 1.50502C33.6671 1.80258 33.5793 2.09346 33.4147 2.34088C33.2502 2.58829 33.0163 2.78113 32.7427 2.895C32.4691 3.00888 32.168 3.03867 31.8775 2.98062C31.587 2.92257 31.3202 2.77928 31.1108 2.56887C30.9013 2.35846 30.7587 2.09038 30.7009 1.79853C30.6432 1.50669 30.6728 1.20418 30.7862 0.929268C30.8995 0.654355 31.0914 0.419383 31.3377 0.254065C31.5839 0.0887476 31.8735 0.000509673 32.1696 0.000509673C32.5668 0.000509673 32.9477 0.15902 33.2285 0.44117C33.5093 0.72332 33.6671 1.106 33.6671 1.50502Z" fill="#C5C5C5"/>
<path d="M48.9999 1.50502C49.0011 1.8058 48.913 2.1001 48.7467 2.35024C48.5804 2.60037 48.3436 2.79496 48.0667 2.90909C47.7897 3.02323 47.4851 3.05171 47.1919 2.99089C46.8987 2.93008 46.6302 2.78273 46.4209 2.56772C46.2115 2.35271 46.0708 2.07981 46.0167 1.78398C45.9626 1.48814 45.9977 1.18282 46.1173 0.9071C46.237 0.631385 46.4358 0.397822 46.6884 0.236313C46.941 0.0748044 47.2357 -0.00730054 47.535 0.000509673C47.9265 0.00906223 48.2991 0.17134 48.5729 0.452569C48.8467 0.733797 49 1.1116 48.9999 1.50502Z" fill="#C5C5C5"/>
<path d="M3.00797 13.5018C3.00926 13.801 2.92215 14.0938 2.75767 14.3431C2.5932 14.5925 2.35876 14.7872 2.08406 14.9025C1.80936 15.0179 1.50676 15.0488 1.21458 14.9912C0.922412 14.9336 0.653819 14.7902 0.442831 14.5792C0.231843 14.3681 0.0879546 14.0989 0.0293934 13.8056C-0.0291678 13.5123 0.000233464 13.2081 0.113873 12.9317C0.227512 12.6552 0.420275 12.4188 0.667743 12.2525C0.915211 12.0861 1.20625 11.9973 1.50399 11.9973C1.70118 11.9965 1.89661 12.0348 2.07904 12.11C2.26148 12.1852 2.42733 12.2959 2.56707 12.4357C2.70681 12.5755 2.8177 12.7416 2.89336 12.9246C2.96902 13.1075 3.00797 13.3037 3.00797 13.5018Z" fill="#C5C5C5"/>
<path d="M18.3408 13.5018C18.3421 13.801 18.255 14.0938 18.0905 14.3431C17.926 14.5925 17.6916 14.7872 17.4169 14.9025C17.1422 15.0179 16.8396 15.0488 16.5474 14.9912C16.2552 14.9336 15.9866 14.7902 15.7757 14.5792C15.5647 14.3681 15.4208 14.0989 15.3622 13.8056C15.3037 13.5123 15.3331 13.2081 15.4467 12.9317C15.5603 12.6552 15.7531 12.4188 16.0006 12.2525C16.248 12.0861 16.5391 11.9973 16.8368 11.9973C17.2346 11.9973 17.6161 12.1556 17.898 12.4376C18.1799 12.7196 18.3391 13.1022 18.3408 13.5018Z" fill="#C5C5C5"/>
<path d="M33.6671 13.5018C33.6671 13.7994 33.5793 14.0903 33.4147 14.3377C33.2502 14.5851 33.0163 14.778 32.7427 14.8918C32.4691 15.0057 32.168 15.0355 31.8775 14.9774C31.587 14.9194 31.3202 14.7761 31.1108 14.5657C30.9013 14.3553 30.7587 14.0872 30.7009 13.7954C30.6432 13.5035 30.6728 13.201 30.7862 12.9261C30.8995 12.6512 31.0914 12.4162 31.3377 12.2509C31.5839 12.0856 31.8735 11.9973 32.1696 11.9973C32.5668 11.9973 32.9477 12.1558 33.2285 12.438C33.5093 12.7201 33.6671 13.1028 33.6671 13.5018Z" fill="#C5C5C5"/>
<path d="M48.9999 13.5018C49.0012 13.8013 48.914 14.0943 48.7492 14.3438C48.5844 14.5933 48.3496 14.788 48.0745 14.9031C47.7994 15.0183 47.4965 15.0488 47.2042 14.9907C46.9118 14.9326 46.6432 14.7886 46.4325 14.5768C46.2218 14.3651 46.0784 14.0953 46.0206 13.8016C45.9627 13.5078 45.9931 13.2035 46.1077 12.9271C46.2224 12.6507 46.4161 12.4148 46.6645 12.2493C46.9128 12.0837 47.2045 11.996 47.5025 11.9973C47.8996 11.9973 48.2805 12.1558 48.5613 12.438C48.8422 12.7201 48.9999 13.1028 48.9999 13.5018Z" fill="#C5C5C5"/>
<path d="M3.00797 25.5118C3.00797 25.8106 2.91976 26.1028 2.7545 26.3512C2.58924 26.5997 2.35435 26.7934 2.07954 26.9078C1.80472 27.0221 1.50232 27.0521 1.21057 26.9938C0.918828 26.9355 0.650844 26.7915 0.440508 26.5802C0.230172 26.3689 0.0869309 26.0997 0.0288993 25.8065C-0.0291323 25.5134 0.00065165 25.2096 0.114485 24.9335C0.228318 24.6574 0.421087 24.4214 0.668416 24.2554C0.915745 24.0893 1.20652 24.0007 1.50398 24.0007C1.70173 23.9998 1.89769 24.0383 2.08055 24.114C2.26341 24.1896 2.42955 24.3009 2.56938 24.4413C2.70921 24.5818 2.81996 24.7488 2.89524 24.9325C2.97052 25.1162 3.00883 25.3131 3.00797 25.5118Z" fill="#C5C5C5"/>
<path d="M18.3408 25.5118C18.3408 25.8106 18.2526 26.1028 18.0873 26.3512C17.9221 26.5997 17.6872 26.7934 17.4124 26.9078C17.1375 27.0221 16.8351 27.0521 16.5434 26.9938C16.2517 26.9355 15.9837 26.7915 15.7733 26.5802C15.563 26.3689 15.4198 26.0997 15.3617 25.8065C15.3037 25.5134 15.3335 25.2096 15.4473 24.9335C15.5611 24.6574 15.7539 24.4214 16.0012 24.2554C16.2486 24.0893 16.5394 24.0007 16.8368 24.0007C17.2357 24.0007 17.6182 24.1599 17.9003 24.4433C18.1823 24.7267 18.3408 25.111 18.3408 25.5118Z" fill="#C5C5C5"/>
<path d="M33.6671 25.5118C33.6658 25.809 33.5769 26.0993 33.4116 26.3458C33.2463 26.5924 33.0119 26.7842 32.7382 26.8971C32.4645 27.0099 32.1636 27.0388 31.8735 26.98C31.5835 26.9212 31.3173 26.7774 31.1085 26.5667C30.8997 26.3561 30.7577 26.088 30.7005 25.7963C30.6432 25.5047 30.6733 25.2025 30.7868 24.928C30.9003 24.6534 31.0923 24.4188 31.3384 24.2538C31.5845 24.0888 31.8737 24.0007 32.1696 24.0007C32.3668 24.0007 32.5621 24.0398 32.7442 24.1158C32.9263 24.1919 33.0917 24.3033 33.2308 24.4437C33.37 24.5841 33.4801 24.7507 33.555 24.934C33.6299 25.1173 33.668 25.3136 33.6671 25.5118Z" fill="#C5C5C5"/>
<path d="M48.9999 25.5118C48.9998 25.8123 48.9106 26.1059 48.7435 26.3552C48.5765 26.6045 48.3392 26.798 48.0621 26.9111C47.785 27.0243 47.4806 27.0518 47.1879 26.9903C46.8951 26.9287 46.6273 26.7808 46.4186 26.5656C46.2099 26.3503 46.0698 26.0774 46.0163 25.7817C45.9627 25.4861 45.9981 25.1811 46.118 24.9058C46.2378 24.6305 46.4367 24.3973 46.6891 24.2361C46.9415 24.0748 47.236 23.9929 47.535 24.0007C47.9276 24.0093 48.3012 24.1725 48.5752 24.4551C48.8492 24.7377 49.0017 25.1172 48.9999 25.5118Z" fill="#C5C5C5"/>
<path d="M3.00797 37.502C3.0054 37.8003 2.91501 38.0912 2.7482 38.3379C2.58138 38.5847 2.3456 38.7763 2.07057 38.8887C1.79554 39.0011 1.49355 39.0291 1.20267 38.9694C0.91179 38.9096 0.645025 38.7646 0.43599 38.5528C0.226954 38.341 0.0850016 38.0717 0.0280176 37.779C-0.0289664 37.4862 0.00156815 37.1831 0.115774 36.9077C0.22998 36.6324 0.422746 36.3971 0.669785 36.2317C0.916824 36.0662 1.20708 35.9779 1.50398 35.9779C1.70259 35.9779 1.89923 36.0174 2.08256 36.0942C2.26588 36.1709 2.43226 36.2834 2.57209 36.4251C2.71192 36.5668 2.82243 36.7349 2.89724 36.9198C2.97206 37.1046 3.00969 37.3025 3.00797 37.502Z" fill="#C5C5C5"/>
<path d="M18.3408 37.502C18.3382 37.8003 18.2478 38.0912 18.081 38.3379C17.9142 38.5847 17.6784 38.7763 17.4034 38.8887C17.1284 39.0011 16.8264 39.0291 16.5355 38.9694C16.2446 38.9096 15.9779 38.7646 15.7688 38.5528C15.5598 38.341 15.4178 38.0717 15.3608 37.779C15.3039 37.4862 15.3344 37.1831 15.4486 36.9077C15.5628 36.6324 15.7556 36.3971 16.0026 36.2317C16.2497 36.0662 16.5399 35.9779 16.8368 35.9779C17.0352 35.9788 17.2314 36.0189 17.4144 36.0959C17.5973 36.173 17.7633 36.2855 17.903 36.427C18.0427 36.5685 18.1532 36.7363 18.2283 36.9208C18.3034 37.1052 18.3417 37.3027 18.3408 37.502Z" fill="#C5C5C5"/>
<path d="M33.6671 37.502C33.6633 37.7987 33.5722 38.0877 33.4053 38.3325C33.2384 38.5773 33.0032 38.7671 32.7293 38.8779C32.4553 38.9888 32.1549 39.0158 31.8657 38.9556C31.5765 38.8953 31.3115 38.7505 31.1041 38.5393C30.8966 38.3282 30.7559 38.0601 30.6997 37.7688C30.6435 37.4775 30.6742 37.176 30.7881 36.9022C30.902 36.6284 31.0939 36.3946 31.3398 36.2302C31.5856 36.0657 31.8743 35.9779 32.1696 35.9779C32.3677 35.9788 32.5636 36.0189 32.7462 36.096C32.9288 36.1732 33.0944 36.2858 33.2335 36.4274C33.3727 36.569 33.4826 36.7369 33.557 36.9213C33.6314 37.1057 33.6688 37.3031 33.6671 37.502Z" fill="#C5C5C5"/>
<path d="M48.9999 37.502C48.9973 37.802 48.9058 38.0943 48.7372 38.3418C48.5686 38.5894 48.3304 38.7809 48.0531 38.892C47.7758 39.0031 47.4719 39.0288 47.18 38.9658C46.8881 38.9027 46.6215 38.7539 46.4141 38.5381C46.2067 38.3223 46.068 38.0494 46.0155 37.7542C45.963 37.4589 45.9991 37.1546 46.1193 36.88C46.2395 36.6055 46.4384 36.3731 46.6905 36.2124C46.9426 36.0518 47.2366 35.9701 47.535 35.9779C47.9294 35.9882 48.3039 36.1537 48.5779 36.4388C48.8519 36.7239 49.0035 37.1057 48.9999 37.502Z" fill="#C5C5C5"/>
<path d="M65.008 1.50502C65.0093 1.80415 64.9221 2.09694 64.7577 2.34629C64.5932 2.59564 64.3588 2.79033 64.0841 2.9057C63.8094 3.02107 63.5068 3.05193 63.2146 2.99437C62.9224 2.93681 62.6538 2.79341 62.4428 2.58235C62.2318 2.37129 62.088 2.10206 62.0294 1.80877C61.9708 1.51547 62.0002 1.21132 62.1139 0.934827C62.2275 0.658337 62.4203 0.421956 62.6677 0.255629C62.9152 0.0893016 63.2062 0.000512476 63.504 0.000509673C63.7012 -0.000351746 63.8966 0.0379278 64.079 0.113151C64.2615 0.188374 64.4273 0.299058 64.5671 0.438851C64.7068 0.578643 64.8177 0.74479 64.8934 0.927753C64.969 1.11072 65.008 1.30689 65.008 1.50502Z" fill="#C5C5C5"/>
<path d="M80.3408 1.50502C80.3421 1.80415 80.255 2.09694 80.0905 2.34629C79.926 2.59564 79.6916 2.79033 79.4169 2.9057C79.1422 3.02107 78.8396 3.05193 78.5474 2.99437C78.2552 2.93681 77.9866 2.79341 77.7757 2.58235C77.5647 2.37129 77.4208 2.10206 77.3622 1.80877C77.3037 1.51547 77.3331 1.21132 77.4467 0.934827C77.5603 0.658337 77.7531 0.421956 78.0006 0.255629C78.248 0.0893016 78.5391 0.000512476 78.8368 0.000509673C79.2346 0.000505929 79.6161 0.158807 79.898 0.440771C80.1799 0.722735 80.3391 1.1054 80.3408 1.50502Z" fill="#C5C5C5"/>
<path d="M95.6671 1.50502C95.6671 1.80258 95.5793 2.09346 95.4147 2.34088C95.2502 2.58829 95.0163 2.78113 94.7427 2.895C94.4691 3.00888 94.168 3.03867 93.8775 2.98062C93.587 2.92257 93.3202 2.77928 93.1108 2.56887C92.9013 2.35846 92.7587 2.09038 92.7009 1.79853C92.6432 1.50669 92.6728 1.20418 92.7862 0.929268C92.8995 0.654355 93.0914 0.419383 93.3377 0.254065C93.584 0.0887476 93.8735 0.000509673 94.1696 0.000509673C94.5668 0.000509673 94.9477 0.15902 95.2285 0.44117C95.5093 0.72332 95.6671 1.106 95.6671 1.50502Z" fill="#C5C5C5"/>
<path d="M111 1.50502C111.001 1.8058 110.913 2.1001 110.747 2.35024C110.58 2.60037 110.344 2.79496 110.067 2.90909C109.79 3.02323 109.485 3.05171 109.192 2.99089C108.899 2.93008 108.63 2.78273 108.421 2.56772C108.212 2.35271 108.071 2.07981 108.017 1.78398C107.963 1.48814 107.998 1.18282 108.117 0.9071C108.237 0.631385 108.436 0.397822 108.688 0.236313C108.941 0.0748044 109.236 -0.00730054 109.535 0.000509673C109.927 0.00906223 110.299 0.17134 110.573 0.452569C110.847 0.733797 111 1.1116 111 1.50502Z" fill="#C5C5C5"/>
<path d="M65.008 13.5018C65.0093 13.801 64.9221 14.0938 64.7577 14.3431C64.5932 14.5925 64.3588 14.7872 64.0841 14.9025C63.8094 15.0179 63.5068 15.0488 63.2146 14.9912C62.9224 14.9336 62.6538 14.7902 62.4428 14.5792C62.2318 14.3681 62.088 14.0989 62.0294 13.8056C61.9708 13.5123 62.0002 13.2081 62.1139 12.9317C62.2275 12.6552 62.4203 12.4188 62.6677 12.2525C62.9152 12.0861 63.2062 11.9973 63.504 11.9973C63.7012 11.9965 63.8966 12.0348 64.079 12.11C64.2615 12.1852 64.4273 12.2959 64.5671 12.4357C64.7068 12.5755 64.8177 12.7416 64.8934 12.9246C64.969 13.1075 65.008 13.3037 65.008 13.5018Z" fill="#C5C5C5"/>
<path d="M80.3408 13.5018C80.3421 13.801 80.255 14.0938 80.0905 14.3431C79.926 14.5925 79.6916 14.7872 79.4169 14.9025C79.1422 15.0179 78.8396 15.0488 78.5474 14.9912C78.2552 14.9336 77.9866 14.7902 77.7757 14.5792C77.5647 14.3681 77.4208 14.0989 77.3622 13.8056C77.3037 13.5123 77.3331 13.2081 77.4467 12.9317C77.5603 12.6552 77.7531 12.4188 78.0006 12.2525C78.248 12.0861 78.5391 11.9973 78.8368 11.9973C79.2346 11.9973 79.6161 12.1556 79.898 12.4376C80.1799 12.7196 80.3391 13.1022 80.3408 13.5018Z" fill="#C5C5C5"/>
<path d="M95.6671 13.5018C95.6671 13.7994 95.5793 14.0903 95.4147 14.3377C95.2502 14.5851 95.0163 14.778 94.7427 14.8918C94.4691 15.0057 94.168 15.0355 93.8775 14.9774C93.587 14.9194 93.3202 14.7761 93.1108 14.5657C92.9013 14.3553 92.7587 14.0872 92.7009 13.7954C92.6432 13.5035 92.6728 13.201 92.7862 12.9261C92.8995 12.6512 93.0914 12.4162 93.3377 12.2509C93.584 12.0856 93.8735 11.9973 94.1696 11.9973C94.5668 11.9973 94.9477 12.1558 95.2285 12.438C95.5093 12.7201 95.6671 13.1028 95.6671 13.5018Z" fill="#C5C5C5"/>
<path d="M111 13.5018C111.001 13.8013 110.914 14.0943 110.749 14.3438C110.584 14.5933 110.35 14.788 110.075 14.9031C109.799 15.0183 109.497 15.0488 109.204 14.9907C108.912 14.9326 108.643 14.7886 108.432 14.5768C108.222 14.3651 108.078 14.0953 108.021 13.8016C107.963 13.5078 107.993 13.2035 108.108 12.9271C108.222 12.6507 108.416 12.4148 108.664 12.2493C108.913 12.0837 109.204 11.996 109.502 11.9973C109.9 11.9973 110.281 12.1558 110.561 12.438C110.842 12.7201 111 13.1028 111 13.5018Z" fill="#C5C5C5"/>
<path d="M65.008 25.5118C65.008 25.8106 64.9198 26.1028 64.7545 26.3512C64.5892 26.5997 64.3544 26.7934 64.0795 26.9078C63.8047 27.0221 63.5023 27.0521 63.2106 26.9938C62.9188 26.9355 62.6508 26.7915 62.4405 26.5802C62.2302 26.3689 62.0869 26.0997 62.0289 25.8065C61.9709 25.5134 62.0006 25.2096 62.1145 24.9335C62.2283 24.6574 62.4211 24.4214 62.6684 24.2554C62.9157 24.0893 63.2065 24.0007 63.504 24.0007C63.7017 23.9998 63.8977 24.0383 64.0806 24.114C64.2634 24.1896 64.4296 24.3009 64.5694 24.4413C64.7092 24.5818 64.82 24.7488 64.8952 24.9325C64.9705 25.1162 65.0088 25.3131 65.008 25.5118Z" fill="#C5C5C5"/>
<path d="M80.3408 25.5118C80.3408 25.8106 80.2526 26.1028 80.0873 26.3512C79.9221 26.5997 79.6872 26.7934 79.4124 26.9078C79.1375 27.0221 78.8351 27.0521 78.5434 26.9938C78.2516 26.9355 77.9837 26.7915 77.7733 26.5802C77.563 26.3689 77.4198 26.0997 77.3617 25.8065C77.3037 25.5134 77.3335 25.2096 77.4473 24.9335C77.5611 24.6574 77.7539 24.4214 78.0012 24.2554C78.2486 24.0893 78.5394 24.0007 78.8368 24.0007C79.2357 24.0007 79.6182 24.1599 79.9003 24.4433C80.1823 24.7267 80.3408 25.111 80.3408 25.5118Z" fill="#C5C5C5"/>
<path d="M95.6671 25.5118C95.6658 25.809 95.5769 26.0993 95.4116 26.3458C95.2463 26.5924 95.0119 26.7842 94.7382 26.8971C94.4645 27.0099 94.1636 27.0388 93.8735 26.98C93.5835 26.9212 93.3173 26.7774 93.1085 26.5667C92.8997 26.3561 92.7577 26.088 92.7005 25.7963C92.6432 25.5047 92.6733 25.2025 92.7868 24.928C92.9003 24.6534 93.0923 24.4188 93.3384 24.2538C93.5845 24.0888 93.8737 24.0007 94.1696 24.0007C94.3668 24.0007 94.5621 24.0398 94.7442 24.1158C94.9263 24.1919 95.0917 24.3033 95.2308 24.4437C95.37 24.5841 95.4801 24.7507 95.555 24.934C95.6299 25.1173 95.668 25.3136 95.6671 25.5118Z" fill="#C5C5C5"/>
<path d="M111 25.5118C111 25.8123 110.911 26.1059 110.744 26.3552C110.576 26.6045 110.339 26.798 110.062 26.9111C109.785 27.0243 109.481 27.0518 109.188 26.9903C108.895 26.9287 108.627 26.7808 108.419 26.5656C108.21 26.3503 108.07 26.0774 108.016 25.7817C107.963 25.4861 107.998 25.1811 108.118 24.9058C108.238 24.6305 108.437 24.3973 108.689 24.2361C108.941 24.0748 109.236 23.9929 109.535 24.0007C109.928 24.0093 110.301 24.1725 110.575 24.4551C110.849 24.7377 111.002 25.1172 111 25.5118Z" fill="#C5C5C5"/>
<path d="M65.008 37.502C65.0054 37.8003 64.915 38.0912 64.7482 38.3379C64.5814 38.5847 64.3456 38.7763 64.0706 38.8887C63.7955 39.0011 63.4936 39.0291 63.2027 38.9694C62.9118 38.9096 62.645 38.7646 62.436 38.5528C62.227 38.341 62.085 38.0717 62.028 37.779C61.971 37.4862 62.0016 37.1831 62.1158 36.9077C62.23 36.6324 62.4227 36.3971 62.6698 36.2317C62.9168 36.0662 63.2071 35.9779 63.504 35.9779C63.7026 35.9779 63.8992 36.0174 64.0826 36.0942C64.2659 36.1709 64.4323 36.2834 64.5721 36.4251C64.7119 36.5668 64.8224 36.7349 64.8972 36.9198C64.9721 37.1046 65.0097 37.3025 65.008 37.502Z" fill="#C5C5C5"/>
<path d="M80.3408 37.502C80.3382 37.8003 80.2478 38.0912 80.081 38.3379C79.9142 38.5847 79.6784 38.7763 79.4034 38.8887C79.1284 39.0011 78.8264 39.0291 78.5355 38.9694C78.2446 38.9096 77.9779 38.7646 77.7688 38.5528C77.5598 38.341 77.4178 38.0717 77.3608 37.779C77.3039 37.4862 77.3344 37.1831 77.4486 36.9077C77.5628 36.6324 77.7556 36.3971 78.0026 36.2317C78.2497 36.0662 78.5399 35.9779 78.8368 35.9779C79.0352 35.9788 79.2314 36.0189 79.4144 36.0959C79.5973 36.173 79.7633 36.2855 79.903 36.427C80.0426 36.5685 80.1532 36.7363 80.2283 36.9208C80.3034 37.1052 80.3417 37.3027 80.3408 37.502Z" fill="#C5C5C5"/>
<path d="M95.6671 37.502C95.6633 37.7987 95.5722 38.0877 95.4053 38.3325C95.2384 38.5773 95.0032 38.7671 94.7293 38.8779C94.4554 38.9888 94.1549 39.0158 93.8657 38.9556C93.5765 38.8953 93.3115 38.7505 93.1041 38.5393C92.8966 38.3282 92.7559 38.0601 92.6997 37.7688C92.6435 37.4775 92.6742 37.176 92.7881 36.9022C92.902 36.6284 93.0939 36.3946 93.3398 36.2302C93.5856 36.0657 93.8743 35.9779 94.1696 35.9779C94.3677 35.9788 94.5636 36.0189 94.7462 36.096C94.9288 36.1732 95.0944 36.2858 95.2335 36.4274C95.3727 36.569 95.4826 36.7369 95.557 36.9213C95.6314 37.1057 95.6688 37.3031 95.6671 37.502Z" fill="#C5C5C5"/>
<path d="M111 37.502C110.997 37.802 110.906 38.0943 110.737 38.3418C110.569 38.5894 110.33 38.7809 110.053 38.892C109.776 39.0031 109.472 39.0288 109.18 38.9658C108.888 38.9027 108.622 38.7539 108.414 38.5381C108.207 38.3223 108.068 38.0494 108.015 37.7542C107.963 37.4589 107.999 37.1546 108.119 36.88C108.24 36.6055 108.438 36.3731 108.69 36.2124C108.943 36.0518 109.237 35.9701 109.535 35.9779C109.929 35.9882 110.304 36.1537 110.578 36.4388C110.852 36.7239 111.003 37.1057 111 37.502Z" fill="#C5C5C5"/>
<path d="M3.00797 51.505C3.00926 51.8042 2.92215 52.0969 2.75767 52.3463C2.5932 52.5956 2.35876 52.7903 2.08406 52.9057C1.80936 53.0211 1.50676 53.0519 1.21458 52.9944C0.922412 52.9368 0.653819 52.7934 0.442831 52.5823C0.231843 52.3713 0.0879546 52.1021 0.0293934 51.8088C-0.0291678 51.5155 0.000233464 51.2113 0.113873 50.9348C0.227512 50.6583 0.420275 50.422 0.667743 50.2556C0.915211 50.0893 1.20625 50.0005 1.50399 50.0005C1.70118 49.9996 1.89661 50.0379 2.07904 50.1132C2.26148 50.1884 2.42733 50.2991 2.56707 50.4389C2.70681 50.5786 2.8177 50.7448 2.89336 50.9278C2.96902 51.1107 3.00797 51.3069 3.00797 51.505Z" fill="#C5C5C5"/>
<path d="M18.3408 51.505C18.3421 51.8042 18.255 52.0969 18.0905 52.3463C17.926 52.5956 17.6916 52.7903 17.4169 52.9057C17.1422 53.0211 16.8396 53.0519 16.5474 52.9944C16.2552 52.9368 15.9866 52.7934 15.7757 52.5823C15.5647 52.3713 15.4208 52.1021 15.3622 51.8088C15.3037 51.5155 15.3331 51.2113 15.4467 50.9348C15.5603 50.6583 15.7531 50.422 16.0006 50.2556C16.248 50.0893 16.5391 50.0005 16.8368 50.0005C17.2346 50.0005 17.6161 50.1588 17.898 50.4408C18.1799 50.7227 18.3391 51.1054 18.3408 51.505Z" fill="#C5C5C5"/>
<path d="M33.6671 51.505C33.6671 51.8026 33.5793 52.0935 33.4147 52.3409C33.2502 52.5883 33.0163 52.7811 32.7427 52.895C32.4691 53.0089 32.168 53.0387 31.8775 52.9806C31.587 52.9226 31.3202 52.7793 31.1108 52.5689C30.9013 52.3585 30.7587 52.0904 30.7009 51.7985C30.6432 51.5067 30.6728 51.2042 30.7862 50.9293C30.8995 50.6544 31.0914 50.4194 31.3377 50.2541C31.5839 50.0887 31.8735 50.0005 32.1696 50.0005C32.5668 50.0005 32.9477 50.159 33.2285 50.4412C33.5093 50.7233 33.6671 51.106 33.6671 51.505Z" fill="#C5C5C5"/>
<path d="M48.9999 51.505C49.0011 51.8058 48.913 52.1001 48.7467 52.3502C48.5804 52.6004 48.3436 52.795 48.0667 52.9091C47.7897 53.0232 47.4851 53.0517 47.1919 52.9909C46.8987 52.9301 46.6302 52.7827 46.4209 52.5677C46.2115 52.3527 46.0708 52.0798 46.0167 51.784C45.9626 51.4881 45.9977 51.1828 46.1173 50.9071C46.237 50.6314 46.4358 50.3978 46.6884 50.2363C46.941 50.0748 47.2357 49.9927 47.535 50.0005C47.9265 50.0091 48.2991 50.1713 48.5729 50.4526C48.8467 50.7338 49 51.1116 48.9999 51.505Z" fill="#C5C5C5"/>
<path d="M3.00797 63.5018C3.00926 63.801 2.92215 64.0938 2.75767 64.3431C2.5932 64.5925 2.35876 64.7872 2.08406 64.9025C1.80936 65.0179 1.50676 65.0488 1.21458 64.9912C0.922412 64.9336 0.653819 64.7902 0.442831 64.5792C0.231843 64.3681 0.0879546 64.0989 0.0293934 63.8056C-0.0291678 63.5123 0.000233464 63.2081 0.113873 62.9317C0.227512 62.6552 0.420275 62.4188 0.667743 62.2525C0.915211 62.0861 1.20625 61.9973 1.50399 61.9973C1.70118 61.9965 1.89661 62.0348 2.07904 62.11C2.26148 62.1852 2.42733 62.2959 2.56707 62.4357C2.70681 62.5755 2.8177 62.7416 2.89336 62.9246C2.96902 63.1075 3.00797 63.3037 3.00797 63.5018Z" fill="#C5C5C5"/>
<path d="M18.3408 63.5018C18.3421 63.801 18.255 64.0938 18.0905 64.3431C17.926 64.5925 17.6916 64.7872 17.4169 64.9025C17.1422 65.0179 16.8396 65.0488 16.5474 64.9912C16.2552 64.9336 15.9866 64.7902 15.7757 64.5792C15.5647 64.3681 15.4208 64.0989 15.3622 63.8056C15.3037 63.5123 15.3331 63.2081 15.4467 62.9317C15.5603 62.6552 15.7531 62.4188 16.0006 62.2525C16.248 62.0861 16.5391 61.9973 16.8368 61.9973C17.2346 61.9973 17.6161 62.1556 17.898 62.4376C18.1799 62.7196 18.3391 63.1022 18.3408 63.5018Z" fill="#C5C5C5"/>
<path d="M33.6671 63.5018C33.6671 63.7994 33.5793 64.0903 33.4147 64.3377C33.2502 64.5851 33.0163 64.778 32.7427 64.8918C32.4691 65.0057 32.168 65.0355 31.8775 64.9774C31.587 64.9194 31.3202 64.7761 31.1108 64.5657C30.9013 64.3553 30.7587 64.0872 30.7009 63.7954C30.6432 63.5035 30.6728 63.201 30.7862 62.9261C30.8995 62.6512 31.0914 62.4162 31.3377 62.2509C31.5839 62.0856 31.8735 61.9973 32.1696 61.9973C32.5668 61.9973 32.9477 62.1558 33.2285 62.438C33.5093 62.7201 33.6671 63.1028 33.6671 63.5018Z" fill="#C5C5C5"/>
<path d="M48.9999 63.5018C49.0012 63.8013 48.914 64.0943 48.7492 64.3438C48.5844 64.5933 48.3496 64.788 48.0745 64.9032C47.7994 65.0183 47.4965 65.0488 47.2042 64.9907C46.9118 64.9326 46.6432 64.7886 46.4325 64.5768C46.2218 64.3651 46.0784 64.0953 46.0206 63.8016C45.9627 63.5078 45.9931 63.2035 46.1077 62.9271C46.2224 62.6507 46.4161 62.4148 46.6645 62.2493C46.9128 62.0837 47.2045 61.996 47.5025 61.9973C47.8996 61.9973 48.2805 62.1558 48.5613 62.438C48.8422 62.7201 48.9999 63.1028 48.9999 63.5018Z" fill="#C5C5C5"/>
<path d="M3.00797 75.5117C3.00797 75.8106 2.91976 76.1028 2.7545 76.3512C2.58924 76.5997 2.35435 76.7934 2.07954 76.9078C1.80472 77.0221 1.50232 77.0521 1.21057 76.9938C0.918828 76.9355 0.650844 76.7915 0.440508 76.5802C0.230172 76.3689 0.0869309 76.0997 0.0288993 75.8065C-0.0291323 75.5134 0.00065165 75.2096 0.114485 74.9335C0.228318 74.6574 0.421087 74.4214 0.668416 74.2554C0.915745 74.0893 1.20652 74.0007 1.50398 74.0007C1.70173 73.9998 1.89769 74.0383 2.08055 74.114C2.26341 74.1896 2.42955 74.3009 2.56938 74.4413C2.70921 74.5818 2.81996 74.7487 2.89524 74.9325C2.97052 75.1162 3.00883 75.3131 3.00797 75.5117Z" fill="#C5C5C5"/>
<path d="M18.3408 75.5117C18.3408 75.8106 18.2526 76.1028 18.0873 76.3512C17.9221 76.5997 17.6872 76.7934 17.4124 76.9078C17.1375 77.0221 16.8351 77.0521 16.5434 76.9938C16.2517 76.9355 15.9837 76.7915 15.7733 76.5802C15.563 76.3689 15.4198 76.0997 15.3617 75.8065C15.3037 75.5134 15.3335 75.2096 15.4473 74.9335C15.5611 74.6574 15.7539 74.4214 16.0012 74.2554C16.2486 74.0893 16.5394 74.0007 16.8368 74.0007C17.2357 74.0007 17.6182 74.1599 17.9003 74.4433C18.1823 74.7267 18.3408 75.111 18.3408 75.5117Z" fill="#C5C5C5"/>
<path d="M33.6671 75.5117C33.6658 75.809 33.5769 76.0993 33.4116 76.3458C33.2463 76.5924 33.0119 76.7842 32.7382 76.8971C32.4645 77.0099 32.1636 77.0388 31.8735 76.98C31.5835 76.9212 31.3173 76.7774 31.1085 76.5667C30.8997 76.3561 30.7577 76.088 30.7005 75.7963C30.6432 75.5047 30.6733 75.2025 30.7868 74.928C30.9003 74.6534 31.0923 74.4188 31.3384 74.2538C31.5845 74.0888 31.8737 74.0007 32.1696 74.0007C32.3668 74.0007 32.5621 74.0398 32.7442 74.1158C32.9263 74.1919 33.0917 74.3033 33.2308 74.4437C33.37 74.5841 33.4801 74.7507 33.555 74.934C33.6299 75.1173 33.668 75.3136 33.6671 75.5117Z" fill="#C5C5C5"/>
<path d="M48.9999 75.5118C48.9998 75.8123 48.9106 76.1059 48.7435 76.3552C48.5765 76.6045 48.3392 76.798 48.0621 76.9111C47.785 77.0243 47.4806 77.0518 47.1879 76.9903C46.8951 76.9287 46.6273 76.7808 46.4186 76.5656C46.2099 76.3503 46.0698 76.0774 46.0163 75.7817C45.9627 75.4861 45.9981 75.1811 46.118 74.9058C46.2378 74.6305 46.4367 74.3973 46.6891 74.2361C46.9415 74.0748 47.236 73.9929 47.535 74.0007C47.9276 74.0093 48.3012 74.1725 48.5752 74.4551C48.8492 74.7377 49.0017 75.1172 48.9999 75.5118Z" fill="#C5C5C5"/>
<path d="M3.00797 87.502C3.0054 87.8003 2.91501 88.0912 2.7482 88.3379C2.58138 88.5847 2.3456 88.7763 2.07057 88.8887C1.79554 89.0011 1.49355 89.0291 1.20267 88.9694C0.91179 88.9096 0.645025 88.7646 0.43599 88.5528C0.226954 88.341 0.0850016 88.0717 0.0280176 87.779C-0.0289664 87.4862 0.00156815 87.1831 0.115774 86.9077C0.22998 86.6324 0.422746 86.3971 0.669785 86.2317C0.916824 86.0662 1.20708 85.9779 1.50398 85.9779C1.70259 85.9779 1.89923 86.0174 2.08256 86.0942C2.26588 86.1709 2.43226 86.2834 2.57209 86.4251C2.71192 86.5668 2.82243 86.7349 2.89724 86.9198C2.97206 87.1046 3.00969 87.3025 3.00797 87.502Z" fill="#C5C5C5"/>
<path d="M18.3408 87.502C18.3382 87.8003 18.2478 88.0912 18.081 88.3379C17.9142 88.5847 17.6784 88.7763 17.4034 88.8887C17.1284 89.0011 16.8264 89.0291 16.5355 88.9694C16.2446 88.9096 15.9779 88.7646 15.7688 88.5528C15.5598 88.341 15.4178 88.0717 15.3608 87.779C15.3039 87.4862 15.3344 87.1831 15.4486 86.9077C15.5628 86.6324 15.7556 86.3971 16.0026 86.2317C16.2497 86.0662 16.5399 85.9779 16.8368 85.9779C17.0352 85.9788 17.2314 86.0189 17.4144 86.0959C17.5973 86.173 17.7633 86.2855 17.903 86.427C18.0427 86.5686 18.1532 86.7363 18.2283 86.9208C18.3034 87.1052 18.3417 87.3027 18.3408 87.502Z" fill="#C5C5C5"/>
<path d="M33.6671 87.502C33.6633 87.7987 33.5722 88.0877 33.4053 88.3325C33.2384 88.5773 33.0032 88.7671 32.7293 88.878C32.4553 88.9888 32.1549 89.0158 31.8657 88.9556C31.5765 88.8953 31.3115 88.7505 31.1041 88.5393C30.8966 88.3282 30.7559 88.0601 30.6997 87.7688C30.6435 87.4775 30.6742 87.176 30.7881 86.9022C30.902 86.6284 31.0939 86.3946 31.3398 86.2302C31.5856 86.0657 31.8743 85.9779 32.1696 85.9779C32.3677 85.9788 32.5636 86.0189 32.7462 86.096C32.9288 86.1732 33.0944 86.2858 33.2335 86.4274C33.3727 86.569 33.4826 86.7369 33.557 86.9213C33.6314 87.1057 33.6688 87.3031 33.6671 87.502Z" fill="#C5C5C5"/>
<path d="M48.9999 87.502C48.9973 87.802 48.9058 88.0943 48.7372 88.3419C48.5686 88.5894 48.3304 88.7809 48.0531 88.892C47.7758 89.0031 47.4719 89.0288 47.18 88.9658C46.8881 88.9027 46.6215 88.7539 46.4141 88.5381C46.2067 88.3223 46.068 88.0494 46.0155 87.7542C45.963 87.4589 45.9991 87.1546 46.1193 86.88C46.2395 86.6055 46.4384 86.3731 46.6905 86.2124C46.9426 86.0518 47.2366 85.9701 47.535 85.9779C47.9294 85.9882 48.3039 86.1537 48.5779 86.4388C48.8519 86.7239 49.0035 87.1057 48.9999 87.502Z" fill="#C5C5C5"/>
<path d="M65.008 51.505C65.0093 51.8042 64.9221 52.0969 64.7577 52.3463C64.5932 52.5956 64.3588 52.7903 64.0841 52.9057C63.8094 53.0211 63.5068 53.0519 63.2146 52.9944C62.9224 52.9368 62.6538 52.7934 62.4428 52.5823C62.2318 52.3713 62.088 52.1021 62.0294 51.8088C61.9708 51.5155 62.0002 51.2113 62.1139 50.9348C62.2275 50.6583 62.4203 50.422 62.6677 50.2556C62.9152 50.0893 63.2062 50.0005 63.504 50.0005C63.7012 49.9996 63.8966 50.0379 64.079 50.1132C64.2615 50.1884 64.4273 50.2991 64.5671 50.4389C64.7068 50.5786 64.8177 50.7448 64.8934 50.9278C64.969 51.1107 65.008 51.3069 65.008 51.505Z" fill="#C5C5C5"/>
<path d="M80.3408 51.505C80.3421 51.8042 80.255 52.0969 80.0905 52.3463C79.926 52.5956 79.6916 52.7903 79.4169 52.9057C79.1422 53.0211 78.8396 53.0519 78.5474 52.9944C78.2552 52.9368 77.9866 52.7934 77.7757 52.5823C77.5647 52.3713 77.4208 52.1021 77.3622 51.8088C77.3037 51.5155 77.3331 51.2113 77.4467 50.9348C77.5603 50.6583 77.7531 50.422 78.0006 50.2556C78.248 50.0893 78.5391 50.0005 78.8368 50.0005C79.2346 50.0005 79.6161 50.1588 79.898 50.4408C80.1799 50.7227 80.3391 51.1054 80.3408 51.505Z" fill="#C5C5C5"/>
<path d="M95.6671 51.505C95.6671 51.8026 95.5793 52.0935 95.4147 52.3409C95.2502 52.5883 95.0163 52.7811 94.7427 52.895C94.4691 53.0089 94.168 53.0387 93.8775 52.9806C93.587 52.9226 93.3202 52.7793 93.1108 52.5689C92.9013 52.3585 92.7587 52.0904 92.7009 51.7985C92.6432 51.5067 92.6728 51.2042 92.7862 50.9293C92.8995 50.6544 93.0914 50.4194 93.3377 50.2541C93.584 50.0887 93.8735 50.0005 94.1696 50.0005C94.5668 50.0005 94.9477 50.159 95.2285 50.4412C95.5093 50.7233 95.6671 51.106 95.6671 51.505Z" fill="#C5C5C5"/>
<path d="M111 51.505C111.001 51.8058 110.913 52.1001 110.747 52.3502C110.58 52.6004 110.344 52.795 110.067 52.9091C109.79 53.0232 109.485 53.0517 109.192 52.9909C108.899 52.9301 108.63 52.7827 108.421 52.5677C108.212 52.3527 108.071 52.0798 108.017 51.784C107.963 51.4881 107.998 51.1828 108.117 50.9071C108.237 50.6314 108.436 50.3978 108.688 50.2363C108.941 50.0748 109.236 49.9927 109.535 50.0005C109.927 50.0091 110.299 50.1713 110.573 50.4526C110.847 50.7338 111 51.1116 111 51.505Z" fill="#C5C5C5"/>
<path d="M65.008 63.5018C65.0093 63.801 64.9221 64.0938 64.7577 64.3431C64.5932 64.5925 64.3588 64.7872 64.0841 64.9025C63.8094 65.0179 63.5068 65.0488 63.2146 64.9912C62.9224 64.9336 62.6538 64.7902 62.4428 64.5792C62.2318 64.3681 62.088 64.0989 62.0294 63.8056C61.9708 63.5123 62.0002 63.2081 62.1139 62.9317C62.2275 62.6552 62.4203 62.4188 62.6677 62.2525C62.9152 62.0861 63.2062 61.9973 63.504 61.9973C63.7012 61.9965 63.8966 62.0348 64.079 62.11C64.2615 62.1852 64.4273 62.2959 64.5671 62.4357C64.7068 62.5755 64.8177 62.7416 64.8934 62.9246C64.969 63.1075 65.008 63.3037 65.008 63.5018Z" fill="#C5C5C5"/>
<path d="M80.3408 63.5018C80.3421 63.801 80.255 64.0938 80.0905 64.3431C79.926 64.5925 79.6916 64.7872 79.4169 64.9025C79.1422 65.0179 78.8396 65.0488 78.5474 64.9912C78.2552 64.9336 77.9866 64.7902 77.7757 64.5792C77.5647 64.3681 77.4208 64.0989 77.3622 63.8056C77.3037 63.5123 77.3331 63.2081 77.4467 62.9317C77.5603 62.6552 77.7531 62.4188 78.0006 62.2525C78.248 62.0861 78.5391 61.9973 78.8368 61.9973C79.2346 61.9973 79.6161 62.1556 79.898 62.4376C80.1799 62.7196 80.3391 63.1022 80.3408 63.5018Z" fill="#C5C5C5"/>
<path d="M95.6671 63.5018C95.6671 63.7994 95.5793 64.0903 95.4147 64.3377C95.2502 64.5851 95.0163 64.778 94.7427 64.8918C94.4691 65.0057 94.168 65.0355 93.8775 64.9774C93.587 64.9194 93.3202 64.7761 93.1108 64.5657C92.9013 64.3553 92.7587 64.0872 92.7009 63.7954C92.6432 63.5035 92.6728 63.201 92.7862 62.9261C92.8995 62.6512 93.0914 62.4162 93.3377 62.2509C93.584 62.0856 93.8735 61.9973 94.1696 61.9973C94.5668 61.9973 94.9477 62.1558 95.2285 62.438C95.5093 62.7201 95.6671 63.1028 95.6671 63.5018Z" fill="#C5C5C5"/>
<path d="M111 63.5018C111.001 63.8013 110.914 64.0943 110.749 64.3438C110.584 64.5933 110.35 64.788 110.075 64.9032C109.799 65.0183 109.497 65.0488 109.204 64.9907C108.912 64.9326 108.643 64.7886 108.432 64.5768C108.222 64.3651 108.078 64.0953 108.021 63.8016C107.963 63.5078 107.993 63.2035 108.108 62.9271C108.222 62.6507 108.416 62.4148 108.664 62.2493C108.913 62.0837 109.204 61.996 109.502 61.9973C109.9 61.9973 110.281 62.1558 110.561 62.438C110.842 62.7201 111 63.1028 111 63.5018Z" fill="#C5C5C5"/>
<path d="M65.008 75.5117C65.008 75.8106 64.9198 76.1028 64.7545 76.3512C64.5892 76.5997 64.3544 76.7934 64.0795 76.9078C63.8047 77.0221 63.5023 77.0521 63.2106 76.9938C62.9188 76.9355 62.6508 76.7915 62.4405 76.5802C62.2302 76.3689 62.0869 76.0997 62.0289 75.8065C61.9709 75.5134 62.0006 75.2096 62.1145 74.9335C62.2283 74.6574 62.4211 74.4214 62.6684 74.2554C62.9157 74.0893 63.2065 74.0007 63.504 74.0007C63.7017 73.9998 63.8977 74.0383 64.0806 74.114C64.2634 74.1896 64.4296 74.3009 64.5694 74.4413C64.7092 74.5818 64.82 74.7487 64.8952 74.9325C64.9705 75.1162 65.0088 75.3131 65.008 75.5117Z" fill="#C5C5C5"/>
<path d="M80.3408 75.5117C80.3408 75.8106 80.2526 76.1028 80.0873 76.3512C79.9221 76.5997 79.6872 76.7934 79.4124 76.9078C79.1375 77.0221 78.8351 77.0521 78.5434 76.9938C78.2516 76.9355 77.9837 76.7915 77.7733 76.5802C77.563 76.3689 77.4198 76.0997 77.3617 75.8065C77.3037 75.5134 77.3335 75.2096 77.4473 74.9335C77.5611 74.6574 77.7539 74.4214 78.0012 74.2554C78.2486 74.0893 78.5394 74.0007 78.8368 74.0007C79.2357 74.0007 79.6182 74.1599 79.9003 74.4433C80.1823 74.7267 80.3408 75.111 80.3408 75.5117Z" fill="#C5C5C5"/>
<path d="M95.6671 75.5117C95.6658 75.809 95.5769 76.0993 95.4116 76.3458C95.2463 76.5924 95.0119 76.7842 94.7382 76.8971C94.4645 77.0099 94.1636 77.0388 93.8735 76.98C93.5835 76.9212 93.3173 76.7774 93.1085 76.5667C92.8997 76.3561 92.7577 76.088 92.7005 75.7963C92.6432 75.5047 92.6733 75.2025 92.7868 74.928C92.9003 74.6534 93.0923 74.4188 93.3384 74.2538C93.5845 74.0888 93.8737 74.0007 94.1696 74.0007C94.3668 74.0007 94.5621 74.0398 94.7442 74.1158C94.9263 74.1919 95.0917 74.3033 95.2308 74.4437C95.37 74.5841 95.4801 74.7507 95.555 74.934C95.6299 75.1173 95.668 75.3136 95.6671 75.5117Z" fill="#C5C5C5"/>
<path d="M111 75.5118C111 75.8123 110.911 76.1059 110.744 76.3552C110.576 76.6045 110.339 76.798 110.062 76.9111C109.785 77.0243 109.481 77.0518 109.188 76.9903C108.895 76.9287 108.627 76.7808 108.419 76.5656C108.21 76.3503 108.07 76.0774 108.016 75.7817C107.963 75.4861 107.998 75.1811 108.118 74.9058C108.238 74.6305 108.437 74.3973 108.689 74.2361C108.941 74.0748 109.236 73.9929 109.535 74.0007C109.928 74.0093 110.301 74.1725 110.575 74.4551C110.849 74.7377 111.002 75.1172 111 75.5118Z" fill="#C5C5C5"/>
<path d="M65.008 87.502C65.0054 87.8003 64.915 88.0912 64.7482 88.3379C64.5814 88.5847 64.3456 88.7763 64.0706 88.8887C63.7955 89.0011 63.4936 89.0291 63.2027 88.9694C62.9118 88.9096 62.645 88.7646 62.436 88.5528C62.227 88.341 62.085 88.0717 62.028 87.779C61.971 87.4862 62.0016 87.1831 62.1158 86.9077C62.23 86.6324 62.4227 86.3971 62.6698 86.2317C62.9168 86.0662 63.2071 85.9779 63.504 85.9779C63.7026 85.9779 63.8992 86.0174 64.0826 86.0942C64.2659 86.1709 64.4323 86.2834 64.5721 86.4251C64.7119 86.5668 64.8224 86.7349 64.8972 86.9198C64.9721 87.1046 65.0097 87.3025 65.008 87.502Z" fill="#C5C5C5"/>
<path d="M80.3408 87.502C80.3382 87.8003 80.2478 88.0912 80.081 88.3379C79.9142 88.5847 79.6784 88.7763 79.4034 88.8887C79.1284 89.0011 78.8264 89.0291 78.5355 88.9694C78.2446 88.9096 77.9779 88.7646 77.7688 88.5528C77.5598 88.341 77.4178 88.0717 77.3608 87.779C77.3039 87.4862 77.3344 87.1831 77.4486 86.9077C77.5628 86.6324 77.7556 86.3971 78.0026 86.2317C78.2497 86.0662 78.5399 85.9779 78.8368 85.9779C79.0352 85.9788 79.2314 86.0189 79.4144 86.0959C79.5973 86.173 79.7633 86.2855 79.903 86.427C80.0426 86.5686 80.1532 86.7363 80.2283 86.9208C80.3034 87.1052 80.3417 87.3027 80.3408 87.502Z" fill="#C5C5C5"/>
<path d="M95.6671 87.502C95.6633 87.7987 95.5722 88.0877 95.4053 88.3325C95.2384 88.5773 95.0032 88.7671 94.7293 88.878C94.4554 88.9888 94.1549 89.0158 93.8657 88.9556C93.5765 88.8953 93.3115 88.7505 93.1041 88.5393C92.8966 88.3282 92.7559 88.0601 92.6997 87.7688C92.6435 87.4775 92.6742 87.176 92.7881 86.9022C92.902 86.6284 93.0939 86.3946 93.3398 86.2302C93.5856 86.0657 93.8743 85.9779 94.1696 85.9779C94.3677 85.9788 94.5636 86.0189 94.7462 86.096C94.9288 86.1732 95.0944 86.2858 95.2335 86.4274C95.3727 86.569 95.4826 86.7369 95.557 86.9213C95.6314 87.1057 95.6688 87.3031 95.6671 87.502Z" fill="#C5C5C5"/>
<path d="M111 87.502C110.997 87.802 110.906 88.0943 110.737 88.3419C110.569 88.5894 110.33 88.7809 110.053 88.892C109.776 89.0031 109.472 89.0288 109.18 88.9658C108.888 88.9027 108.622 88.7539 108.414 88.5381C108.207 88.3223 108.068 88.0494 108.015 87.7542C107.963 87.4589 107.999 87.1546 108.119 86.88C108.24 86.6055 108.438 86.3731 108.69 86.2124C108.943 86.0518 109.237 85.9701 109.535 85.9779C109.929 85.9882 110.304 86.1537 110.578 86.4388C110.852 86.7239 111.003 87.1057 111 87.502Z" fill="#C5C5C5"/>
</svg>
