<svg width="200" height="60" viewBox="0 0 200 60" fill="none" xmlns="http://www.w3.org/2000/svg">
<rect width="200" height="60" rx="6" fill="#2B2B2B"/>
<path d="M34 17.7183V42.2805C34.0002 42.3337 34.0154 42.3858 34.0439 42.4301C34.0724 42.4744 34.1129 42.5089 34.1602 42.5294C34.2075 42.5499 34.2595 42.5554 34.3098 42.5453C34.3601 42.5351 34.4064 42.5097 34.4429 42.4723L46.7405 30L34.4429 17.5264C34.4064 17.489 34.3601 17.4636 34.3098 17.4535C34.2595 17.4433 34.2075 17.4488 34.1602 17.4693C34.1129 17.4898 34.0724 17.5244 34.0439 17.5687C34.0154 17.6129 34.0002 17.665 34 17.7183ZM51.8967 24.8751L36.4772 16.0402L36.4676 16.0346C36.2019 15.8846 35.9495 16.2583 36.1671 16.4758L48.2543 28.4956L51.8967 24.8751ZM36.1683 43.5242C35.9495 43.7417 36.2019 44.1154 36.4688 43.9654L36.4784 43.9598L51.8967 35.1249L48.2543 31.5031L36.1683 43.5242ZM58.1215 28.4375L53.8156 25.9713L49.7669 30L53.8156 34.0268L58.1215 31.5625C59.2928 30.8894 59.2928 29.1106 58.1215 28.4375Z" fill="white"/>
<path d="M75.9985 24.169C75.3658 24.169 74.7765 24.0477 74.2305 23.805C73.6888 23.558 73.2143 23.2178 72.807 22.7845C72.404 22.3468 72.0877 21.842 71.858 21.27C71.6327 20.698 71.52 20.0892 71.52 19.4435C71.52 18.7632 71.6413 18.137 71.884 17.565C72.1267 16.993 72.4582 16.4968 72.8785 16.0765C73.2988 15.6518 73.7777 15.3225 74.315 15.0885C74.8567 14.8545 75.4243 14.7375 76.018 14.7375C76.6897 14.7375 77.3353 14.8935 77.955 15.2055C78.5747 15.5175 79.1142 15.9855 79.5735 16.6095L78.3645 17.266C78.0525 16.876 77.6885 16.5813 77.2725 16.382C76.8608 16.1827 76.4383 16.083 76.005 16.083C75.5847 16.083 75.186 16.1697 74.809 16.343C74.432 16.512 74.0983 16.7503 73.808 17.058C73.5177 17.3613 73.288 17.7188 73.119 18.1305C72.9543 18.5378 72.872 18.982 72.872 19.463C72.872 19.9267 72.9522 20.3622 73.1125 20.7695C73.2772 21.1768 73.5025 21.5343 73.7885 21.842C74.0788 22.1453 74.4125 22.3837 74.7895 22.557C75.1708 22.7303 75.5782 22.817 76.0115 22.817C76.3322 22.817 76.6398 22.765 76.9345 22.661C77.2292 22.557 77.5022 22.4097 77.7535 22.219C78.0092 22.024 78.2323 21.7922 78.423 21.5235C78.6137 21.2548 78.7653 20.9558 78.878 20.6265H76.9475V19.4305H80.464C80.4727 20.0805 80.36 20.6915 80.126 21.2635C79.8963 21.8355 79.5757 22.3403 79.164 22.778C78.7567 23.2113 78.2822 23.5515 77.7405 23.7985C77.1988 24.0455 76.6182 24.169 75.9985 24.169ZM81.6823 24V14.9H87.3308V16.252H83.0343V18.449H86.4923V19.801H83.0343V22.648H87.3308V24H81.6823ZM95.6498 14.9V16.252H92.7508V24H91.3988V16.252H88.5063V14.9H95.6498ZM100.273 24V14.9H101.625V24H100.273ZM110.262 14.9V16.252H107.363V24H106.011V16.252H103.119V14.9H110.262ZM118.915 24.169C118.3 24.169 117.721 24.0477 117.18 23.805C116.638 23.558 116.161 23.2178 115.75 22.7845C115.338 22.3512 115.015 21.8507 114.781 21.283C114.547 20.711 114.43 20.1 114.43 19.45C114.43 18.8 114.547 18.1912 114.781 17.6235C115.015 17.0515 115.338 16.5488 115.75 16.1155C116.161 15.6822 116.638 15.3442 117.18 15.1015C117.721 14.8545 118.3 14.731 118.915 14.731C119.535 14.731 120.115 14.8545 120.657 15.1015C121.199 15.3442 121.675 15.6822 122.087 16.1155C122.499 16.5488 122.819 17.0515 123.049 17.6235C123.283 18.1912 123.4 18.8 123.4 19.45C123.4 20.1 123.283 20.711 123.049 21.283C122.819 21.8507 122.499 22.3512 122.087 22.7845C121.675 23.2178 121.199 23.558 120.657 23.805C120.115 24.0477 119.535 24.169 118.915 24.169ZM118.915 22.817C119.348 22.817 119.754 22.7282 120.131 22.5505C120.508 22.3728 120.839 22.1302 121.125 21.8225C121.415 21.5105 121.641 21.153 121.801 20.75C121.966 20.3427 122.048 19.9093 122.048 19.45C122.048 18.9907 121.966 18.5573 121.801 18.15C121.641 17.7427 121.415 17.3852 121.125 17.0775C120.839 16.7655 120.508 16.5228 120.131 16.3495C119.754 16.1718 119.348 16.083 118.915 16.083C118.482 16.083 118.077 16.1718 117.7 16.3495C117.323 16.5272 116.989 16.772 116.699 17.084C116.413 17.3917 116.187 17.7492 116.023 18.1565C115.862 18.5595 115.782 18.9907 115.782 19.45C115.782 19.9137 115.862 20.3492 116.023 20.7565C116.187 21.1595 116.413 21.517 116.699 21.829C116.989 22.1367 117.323 22.3793 117.7 22.557C118.077 22.7303 118.482 22.817 118.915 22.817ZM124.618 24V14.9H126.08L130.26 21.556V14.9H131.612V24H130.149L125.97 17.344V24H124.618Z" fill="white"/>
<path d="M75.912 43.234C75.036 43.234 74.22 43.063 73.464 42.721C72.714 42.379 72.06 41.908 71.502 41.308C70.944 40.702 70.506 40.006 70.188 39.22C69.876 38.428 69.72 37.582 69.72 36.682C69.72 35.734 69.888 34.864 70.224 34.072C70.566 33.28 71.031 32.593 71.619 32.011C72.207 31.429 72.873 30.979 73.617 30.661C74.367 30.343 75.147 30.184 75.957 30.184C76.863 30.184 77.742 30.397 78.594 30.823C79.452 31.243 80.208 31.894 80.862 32.776L78.9 33.829C78.498 33.337 78.036 32.971 77.514 32.731C76.998 32.485 76.47 32.362 75.93 32.362C75.402 32.362 74.895 32.47 74.409 32.686C73.929 32.902 73.5 33.208 73.122 33.604C72.75 33.994 72.456 34.456 72.24 34.99C72.024 35.518 71.916 36.097 71.916 36.727C71.916 37.321 72.021 37.882 72.231 38.41C72.441 38.932 72.729 39.391 73.095 39.787C73.467 40.177 73.896 40.483 74.382 40.705C74.868 40.927 75.39 41.038 75.948 41.038C76.32 41.038 76.683 40.981 77.037 40.867C77.397 40.747 77.733 40.576 78.045 40.354C78.363 40.132 78.645 39.862 78.891 39.544C79.143 39.226 79.353 38.866 79.521 38.464H77.226V36.547H82.104C82.128 37.465 81.984 38.326 81.672 39.13C81.36 39.934 80.919 40.645 80.349 41.263C79.779 41.881 79.116 42.364 78.36 42.712C77.604 43.06 76.788 43.234 75.912 43.234ZM87.5927 43.234C86.7647 43.234 86.0087 43.021 85.3247 42.595C84.6467 42.169 84.1037 41.599 83.6957 40.885C83.2937 40.165 83.0927 39.37 83.0927 38.5C83.0927 37.84 83.2097 37.225 83.4437 36.655C83.6777 36.079 83.9987 35.575 84.4067 35.143C84.8207 34.705 85.3007 34.363 85.8467 34.117C86.3927 33.871 86.9747 33.748 87.5927 33.748C88.4207 33.748 89.1737 33.961 89.8517 34.387C90.5357 34.813 91.0787 35.386 91.4807 36.106C91.8887 36.826 92.0927 37.624 92.0927 38.5C92.0927 39.154 91.9757 39.766 91.7417 40.336C91.5077 40.906 91.1837 41.41 90.7697 41.848C90.3617 42.28 89.8847 42.619 89.3387 42.865C88.7987 43.111 88.2167 43.234 87.5927 43.234ZM87.5927 41.038C88.0307 41.038 88.4237 40.921 88.7717 40.687C89.1197 40.453 89.3927 40.144 89.5907 39.76C89.7947 39.376 89.8967 38.956 89.8967 38.5C89.8967 38.032 89.7917 37.606 89.5817 37.222C89.3777 36.832 89.0987 36.523 88.7447 36.295C88.3967 36.061 88.0127 35.944 87.5927 35.944C87.1607 35.944 86.7707 36.061 86.4227 36.295C86.0747 36.529 85.7987 36.841 85.5947 37.231C85.3907 37.621 85.2887 38.044 85.2887 38.5C85.2887 38.974 85.3937 39.403 85.6037 39.787C85.8137 40.171 86.0927 40.477 86.4407 40.705C86.7947 40.927 87.1787 41.038 87.5927 41.038ZM97.4892 43.234C96.6612 43.234 95.9052 43.021 95.2212 42.595C94.5432 42.169 94.0002 41.599 93.5922 40.885C93.1902 40.165 92.9892 39.37 92.9892 38.5C92.9892 37.84 93.1062 37.225 93.3402 36.655C93.5742 36.079 93.8952 35.575 94.3032 35.143C94.7172 34.705 95.1972 34.363 95.7432 34.117C96.2892 33.871 96.8712 33.748 97.4892 33.748C98.3172 33.748 99.0702 33.961 99.7482 34.387C100.432 34.813 100.975 35.386 101.377 36.106C101.785 36.826 101.989 37.624 101.989 38.5C101.989 39.154 101.872 39.766 101.638 40.336C101.404 40.906 101.08 41.41 100.666 41.848C100.258 42.28 99.7812 42.619 99.2352 42.865C98.6952 43.111 98.1132 43.234 97.4892 43.234ZM97.4892 41.038C97.9272 41.038 98.3202 40.921 98.6682 40.687C99.0162 40.453 99.2892 40.144 99.4872 39.76C99.6912 39.376 99.7932 38.956 99.7932 38.5C99.7932 38.032 99.6882 37.606 99.4782 37.222C99.2742 36.832 98.9952 36.523 98.6412 36.295C98.2932 36.061 97.9092 35.944 97.4892 35.944C97.0572 35.944 96.6672 36.061 96.3192 36.295C95.9712 36.529 95.6952 36.841 95.4912 37.231C95.2872 37.621 95.1852 38.044 95.1852 38.5C95.1852 38.974 95.2902 39.403 95.5002 39.787C95.7102 40.171 95.9892 40.477 96.3372 40.705C96.6912 40.927 97.0752 41.038 97.4892 41.038ZM110.104 34H112.3V43.171C112.3 43.819 112.168 44.407 111.904 44.935C111.64 45.469 111.28 45.925 110.824 46.303C110.368 46.687 109.846 46.981 109.258 47.185C108.67 47.395 108.052 47.5 107.404 47.5C106.774 47.5 106.168 47.371 105.586 47.113C105.004 46.855 104.488 46.501 104.038 46.051C103.594 45.607 103.255 45.1 103.021 44.53L105.028 43.621C105.148 43.951 105.328 44.239 105.568 44.485C105.814 44.737 106.096 44.932 106.414 45.07C106.732 45.214 107.062 45.286 107.404 45.286C107.752 45.286 108.085 45.238 108.403 45.142C108.727 45.046 109.018 44.905 109.276 44.719C109.534 44.539 109.735 44.317 109.879 44.053C110.029 43.795 110.104 43.501 110.104 43.171V41.902C109.822 42.298 109.468 42.619 109.042 42.865C108.616 43.111 108.124 43.234 107.566 43.234C106.918 43.234 106.312 43.111 105.748 42.865C105.184 42.619 104.686 42.28 104.254 41.848C103.828 41.41 103.492 40.906 103.246 40.336C103.006 39.766 102.886 39.154 102.886 38.5C102.886 37.846 103.006 37.234 103.246 36.664C103.492 36.094 103.828 35.593 104.254 35.161C104.686 34.723 105.184 34.381 105.748 34.135C106.312 33.889 106.918 33.766 107.566 33.766C108.124 33.766 108.616 33.889 109.042 34.135C109.468 34.375 109.822 34.693 110.104 35.089V34ZM107.593 41.119C108.055 41.119 108.463 41.002 108.817 40.768C109.177 40.528 109.459 40.21 109.663 39.814C109.867 39.412 109.969 38.974 109.969 38.5C109.969 38.02 109.864 37.582 109.654 37.186C109.45 36.79 109.168 36.472 108.808 36.232C108.454 35.992 108.049 35.872 107.593 35.872C107.143 35.872 106.732 35.992 106.36 36.232C105.988 36.466 105.691 36.781 105.469 37.177C105.247 37.573 105.136 38.014 105.136 38.5C105.136 38.986 105.247 39.427 105.469 39.823C105.691 40.219 105.988 40.534 106.36 40.768C106.732 41.002 107.143 41.119 107.593 41.119ZM114.465 43V29.5H116.661V43H114.465ZM122.644 43.234C121.816 43.234 121.06 43.021 120.376 42.595C119.698 42.169 119.155 41.596 118.747 40.876C118.345 40.156 118.144 39.361 118.144 38.491C118.144 37.837 118.261 37.225 118.495 36.655C118.729 36.079 119.05 35.575 119.458 35.143C119.872 34.705 120.352 34.363 120.898 34.117C121.444 33.871 122.026 33.748 122.644 33.748C123.346 33.748 123.988 33.898 124.57 34.198C125.158 34.492 125.656 34.897 126.064 35.413C126.472 35.929 126.769 36.517 126.955 37.177C127.141 37.837 127.183 38.527 127.081 39.247H120.502C120.586 39.583 120.724 39.886 120.916 40.156C121.108 40.42 121.351 40.633 121.645 40.795C121.939 40.951 122.272 41.032 122.644 41.038C123.028 41.044 123.376 40.954 123.688 40.768C124.006 40.576 124.27 40.318 124.48 39.994L126.721 40.516C126.355 41.314 125.809 41.968 125.083 42.478C124.357 42.982 123.544 43.234 122.644 43.234ZM120.43 37.6H124.858C124.792 37.24 124.651 36.916 124.435 36.628C124.225 36.334 123.964 36.1 123.652 35.926C123.34 35.752 123.004 35.665 122.644 35.665C122.284 35.665 121.951 35.752 121.645 35.926C121.339 36.094 121.078 36.325 120.862 36.619C120.652 36.907 120.508 37.234 120.43 37.6ZM133.08 43V30.4H137.58C138.264 30.4 138.882 30.571 139.434 30.913C139.992 31.255 140.433 31.714 140.757 32.29C141.081 32.866 141.243 33.499 141.243 34.189C141.243 34.897 141.075 35.539 140.739 36.115C140.409 36.685 139.965 37.141 139.407 37.483C138.849 37.819 138.24 37.987 137.58 37.987H135.276V43H133.08ZM135.276 35.791H137.346C137.658 35.791 137.943 35.713 138.201 35.557C138.459 35.401 138.663 35.191 138.813 34.927C138.969 34.663 139.047 34.369 139.047 34.045C139.047 33.715 138.969 33.418 138.813 33.154C138.663 32.89 138.459 32.68 138.201 32.524C137.943 32.368 137.658 32.29 137.346 32.29H135.276V35.791ZM142.889 43V29.5H145.085V43H142.889ZM153.893 34H156.089V43H153.893L153.794 41.884C153.548 42.286 153.221 42.613 152.813 42.865C152.411 43.111 151.934 43.234 151.382 43.234C150.716 43.234 150.092 43.108 149.51 42.856C148.928 42.604 148.415 42.256 147.971 41.812C147.533 41.368 147.188 40.855 146.936 40.273C146.69 39.691 146.567 39.067 146.567 38.401C146.567 37.759 146.684 37.156 146.918 36.592C147.158 36.028 147.491 35.533 147.917 35.107C148.343 34.681 148.835 34.348 149.393 34.108C149.951 33.868 150.551 33.748 151.193 33.748C151.787 33.748 152.318 33.88 152.786 34.144C153.26 34.408 153.662 34.744 153.992 35.152L153.893 34ZM151.328 41.119C151.796 41.119 152.21 41.002 152.57 40.768C152.93 40.534 153.212 40.219 153.416 39.823C153.62 39.421 153.722 38.98 153.722 38.5C153.722 38.014 153.62 37.573 153.416 37.177C153.212 36.775 152.927 36.457 152.561 36.223C152.201 35.989 151.79 35.872 151.328 35.872C150.866 35.872 150.443 35.992 150.059 36.232C149.681 36.466 149.378 36.781 149.15 37.177C148.928 37.573 148.817 38.014 148.817 38.5C148.817 38.986 148.931 39.427 149.159 39.823C149.387 40.219 149.69 40.534 150.068 40.768C150.452 41.002 150.872 41.119 151.328 41.119ZM163.565 34H165.896L160.973 47.5H158.642L160.271 43L157.031 34H159.434L161.369 39.994L163.565 34Z" fill="white"/>
</svg>
