<svg width="190" height="60" viewBox="0 0 190 60" fill="none" xmlns="http://www.w3.org/2000/svg">
<rect width="190" height="60" rx="6" fill="#12235C"/>
<path d="M19 17.7183V42.2805C19.0002 42.3337 19.0154 42.3858 19.0439 42.4301C19.0724 42.4744 19.1129 42.5089 19.1602 42.5294C19.2075 42.5499 19.2595 42.5554 19.3098 42.5453C19.3601 42.5351 19.4064 42.5097 19.4429 42.4723L31.7405 30L19.4429 17.5264C19.4064 17.489 19.3601 17.4636 19.3098 17.4535C19.2595 17.4433 19.2075 17.4488 19.1602 17.4693C19.1129 17.4898 19.0724 17.5244 19.0439 17.5687C19.0154 17.6129 19.0002 17.665 19 17.7183ZM36.8967 24.8751L21.4772 16.0402L21.4676 16.0346C21.2019 15.8846 20.9495 16.2583 21.1671 16.4758L33.2543 28.4956L36.8967 24.8751ZM21.1683 43.5242C20.9495 43.7417 21.2019 44.1154 21.4688 43.9654L21.4784 43.9598L36.8967 35.1249L33.2543 31.5031L21.1683 43.5242ZM43.1215 28.4375L38.8156 25.9713L34.7669 30L38.8156 34.0268L43.1215 31.5625C44.2928 30.8894 44.2928 29.1106 43.1215 28.4375Z" fill="white"/>
<path d="M60.9985 24.169C60.3658 24.169 59.7765 24.0477 59.2305 23.805C58.6888 23.558 58.2143 23.2178 57.807 22.7845C57.404 22.3468 57.0877 21.842 56.858 21.27C56.6327 20.698 56.52 20.0892 56.52 19.4435C56.52 18.7632 56.6413 18.137 56.884 17.565C57.1267 16.993 57.4582 16.4968 57.8785 16.0765C58.2988 15.6518 58.7777 15.3225 59.315 15.0885C59.8567 14.8545 60.4243 14.7375 61.018 14.7375C61.6897 14.7375 62.3353 14.8935 62.955 15.2055C63.5747 15.5175 64.1142 15.9855 64.5735 16.6095L63.3645 17.266C63.0525 16.876 62.6885 16.5813 62.2725 16.382C61.8608 16.1827 61.4383 16.083 61.005 16.083C60.5847 16.083 60.186 16.1697 59.809 16.343C59.432 16.512 59.0983 16.7503 58.808 17.058C58.5177 17.3613 58.288 17.7188 58.119 18.1305C57.9543 18.5378 57.872 18.982 57.872 19.463C57.872 19.9267 57.9522 20.3622 58.1125 20.7695C58.2772 21.1768 58.5025 21.5343 58.7885 21.842C59.0788 22.1453 59.4125 22.3837 59.7895 22.557C60.1708 22.7303 60.5782 22.817 61.0115 22.817C61.3322 22.817 61.6398 22.765 61.9345 22.661C62.2292 22.557 62.5022 22.4097 62.7535 22.219C63.0092 22.024 63.2323 21.7922 63.423 21.5235C63.6137 21.2548 63.7653 20.9558 63.878 20.6265H61.9475V19.4305H65.464C65.4727 20.0805 65.36 20.6915 65.126 21.2635C64.8963 21.8355 64.5757 22.3403 64.164 22.778C63.7567 23.2113 63.2822 23.5515 62.7405 23.7985C62.1988 24.0455 61.6182 24.169 60.9985 24.169ZM66.6823 24V14.9H72.3308V16.252H68.0343V18.449H71.4923V19.801H68.0343V22.648H72.3308V24H66.6823ZM80.6498 14.9V16.252H77.7508V24H76.3988V16.252H73.5063V14.9H80.6498ZM85.2729 24V14.9H86.6249V24H85.2729ZM95.2621 14.9V16.252H92.3631V24H91.0111V16.252H88.1186V14.9H95.2621ZM103.915 24.169C103.3 24.169 102.721 24.0477 102.18 23.805C101.638 23.558 101.161 23.2178 100.75 22.7845C100.338 22.3512 100.015 21.8507 99.7812 21.283C99.5472 20.711 99.4302 20.1 99.4302 19.45C99.4302 18.8 99.5472 18.1912 99.7812 17.6235C100.015 17.0515 100.338 16.5488 100.75 16.1155C101.161 15.6822 101.638 15.3442 102.18 15.1015C102.721 14.8545 103.3 14.731 103.915 14.731C104.535 14.731 105.115 14.8545 105.657 15.1015C106.199 15.3442 106.675 15.6822 107.087 16.1155C107.499 16.5488 107.819 17.0515 108.049 17.6235C108.283 18.1912 108.4 18.8 108.4 19.45C108.4 20.1 108.283 20.711 108.049 21.283C107.819 21.8507 107.499 22.3512 107.087 22.7845C106.675 23.2178 106.199 23.558 105.657 23.805C105.115 24.0477 104.535 24.169 103.915 24.169ZM103.915 22.817C104.348 22.817 104.754 22.7282 105.131 22.5505C105.508 22.3728 105.839 22.1302 106.125 21.8225C106.415 21.5105 106.641 21.153 106.801 20.75C106.966 20.3427 107.048 19.9093 107.048 19.45C107.048 18.9907 106.966 18.5573 106.801 18.15C106.641 17.7427 106.415 17.3852 106.125 17.0775C105.839 16.7655 105.508 16.5228 105.131 16.3495C104.754 16.1718 104.348 16.083 103.915 16.083C103.482 16.083 103.077 16.1718 102.7 16.3495C102.323 16.5272 101.989 16.772 101.699 17.084C101.413 17.3917 101.187 17.7492 101.023 18.1565C100.862 18.5595 100.782 18.9907 100.782 19.45C100.782 19.9137 100.862 20.3492 101.023 20.7565C101.187 21.1595 101.413 21.517 101.699 21.829C101.989 22.1367 102.323 22.3793 102.7 22.557C103.077 22.7303 103.482 22.817 103.915 22.817ZM109.618 24V14.9H111.08L115.26 21.556V14.9H116.612V24H115.149L110.97 17.344V24H109.618Z" fill="white"/>
<path d="M60.912 43.234C60.036 43.234 59.22 43.063 58.464 42.721C57.714 42.379 57.06 41.908 56.502 41.308C55.944 40.702 55.506 40.006 55.188 39.22C54.876 38.428 54.72 37.582 54.72 36.682C54.72 35.734 54.888 34.864 55.224 34.072C55.566 33.28 56.031 32.593 56.619 32.011C57.207 31.429 57.873 30.979 58.617 30.661C59.367 30.343 60.147 30.184 60.957 30.184C61.863 30.184 62.742 30.397 63.594 30.823C64.452 31.243 65.208 31.894 65.862 32.776L63.9 33.829C63.498 33.337 63.036 32.971 62.514 32.731C61.998 32.485 61.47 32.362 60.93 32.362C60.402 32.362 59.895 32.47 59.409 32.686C58.929 32.902 58.5 33.208 58.122 33.604C57.75 33.994 57.456 34.456 57.24 34.99C57.024 35.518 56.916 36.097 56.916 36.727C56.916 37.321 57.021 37.882 57.231 38.41C57.441 38.932 57.729 39.391 58.095 39.787C58.467 40.177 58.896 40.483 59.382 40.705C59.868 40.927 60.39 41.038 60.948 41.038C61.32 41.038 61.683 40.981 62.037 40.867C62.397 40.747 62.733 40.576 63.045 40.354C63.363 40.132 63.645 39.862 63.891 39.544C64.143 39.226 64.353 38.866 64.521 38.464H62.226V36.547H67.104C67.128 37.465 66.984 38.326 66.672 39.13C66.36 39.934 65.919 40.645 65.349 41.263C64.779 41.881 64.116 42.364 63.36 42.712C62.604 43.06 61.788 43.234 60.912 43.234ZM72.5927 43.234C71.7647 43.234 71.0087 43.021 70.3247 42.595C69.6467 42.169 69.1037 41.599 68.6957 40.885C68.2937 40.165 68.0927 39.37 68.0927 38.5C68.0927 37.84 68.2097 37.225 68.4437 36.655C68.6777 36.079 68.9987 35.575 69.4067 35.143C69.8207 34.705 70.3007 34.363 70.8467 34.117C71.3927 33.871 71.9747 33.748 72.5927 33.748C73.4207 33.748 74.1737 33.961 74.8517 34.387C75.5357 34.813 76.0787 35.386 76.4807 36.106C76.8887 36.826 77.0927 37.624 77.0927 38.5C77.0927 39.154 76.9757 39.766 76.7417 40.336C76.5077 40.906 76.1837 41.41 75.7697 41.848C75.3617 42.28 74.8847 42.619 74.3387 42.865C73.7987 43.111 73.2167 43.234 72.5927 43.234ZM72.5927 41.038C73.0307 41.038 73.4237 40.921 73.7717 40.687C74.1197 40.453 74.3927 40.144 74.5907 39.76C74.7947 39.376 74.8967 38.956 74.8967 38.5C74.8967 38.032 74.7917 37.606 74.5817 37.222C74.3777 36.832 74.0987 36.523 73.7447 36.295C73.3967 36.061 73.0127 35.944 72.5927 35.944C72.1607 35.944 71.7707 36.061 71.4227 36.295C71.0747 36.529 70.7987 36.841 70.5947 37.231C70.3907 37.621 70.2887 38.044 70.2887 38.5C70.2887 38.974 70.3937 39.403 70.6037 39.787C70.8137 40.171 71.0927 40.477 71.4407 40.705C71.7947 40.927 72.1787 41.038 72.5927 41.038ZM82.4892 43.234C81.6612 43.234 80.9052 43.021 80.2212 42.595C79.5432 42.169 79.0002 41.599 78.5922 40.885C78.1902 40.165 77.9892 39.37 77.9892 38.5C77.9892 37.84 78.1062 37.225 78.3402 36.655C78.5742 36.079 78.8952 35.575 79.3032 35.143C79.7172 34.705 80.1972 34.363 80.7432 34.117C81.2892 33.871 81.8712 33.748 82.4892 33.748C83.3172 33.748 84.0702 33.961 84.7482 34.387C85.4322 34.813 85.9752 35.386 86.3772 36.106C86.7852 36.826 86.9892 37.624 86.9892 38.5C86.9892 39.154 86.8722 39.766 86.6382 40.336C86.4042 40.906 86.0802 41.41 85.6662 41.848C85.2582 42.28 84.7812 42.619 84.2352 42.865C83.6952 43.111 83.1132 43.234 82.4892 43.234ZM82.4892 41.038C82.9272 41.038 83.3202 40.921 83.6682 40.687C84.0162 40.453 84.2892 40.144 84.4872 39.76C84.6912 39.376 84.7932 38.956 84.7932 38.5C84.7932 38.032 84.6882 37.606 84.4782 37.222C84.2742 36.832 83.9952 36.523 83.6412 36.295C83.2932 36.061 82.9092 35.944 82.4892 35.944C82.0572 35.944 81.6672 36.061 81.3192 36.295C80.9712 36.529 80.6952 36.841 80.4912 37.231C80.2872 37.621 80.1852 38.044 80.1852 38.5C80.1852 38.974 80.2902 39.403 80.5002 39.787C80.7102 40.171 80.9892 40.477 81.3372 40.705C81.6912 40.927 82.0752 41.038 82.4892 41.038ZM95.1037 34H97.2997V43.171C97.2997 43.819 97.1677 44.407 96.9037 44.935C96.6397 45.469 96.2797 45.925 95.8237 46.303C95.3677 46.687 94.8457 46.981 94.2577 47.185C93.6697 47.395 93.0517 47.5 92.4037 47.5C91.7737 47.5 91.1677 47.371 90.5857 47.113C90.0037 46.855 89.4877 46.501 89.0377 46.051C88.5937 45.607 88.2547 45.1 88.0207 44.53L90.0277 43.621C90.1477 43.951 90.3277 44.239 90.5677 44.485C90.8137 44.737 91.0957 44.932 91.4137 45.07C91.7317 45.214 92.0617 45.286 92.4037 45.286C92.7517 45.286 93.0847 45.238 93.4027 45.142C93.7267 45.046 94.0177 44.905 94.2757 44.719C94.5337 44.539 94.7347 44.317 94.8787 44.053C95.0287 43.795 95.1037 43.501 95.1037 43.171V41.902C94.8217 42.298 94.4677 42.619 94.0417 42.865C93.6157 43.111 93.1237 43.234 92.5657 43.234C91.9177 43.234 91.3117 43.111 90.7477 42.865C90.1837 42.619 89.6857 42.28 89.2537 41.848C88.8277 41.41 88.4917 40.906 88.2457 40.336C88.0057 39.766 87.8857 39.154 87.8857 38.5C87.8857 37.846 88.0057 37.234 88.2457 36.664C88.4917 36.094 88.8277 35.593 89.2537 35.161C89.6857 34.723 90.1837 34.381 90.7477 34.135C91.3117 33.889 91.9177 33.766 92.5657 33.766C93.1237 33.766 93.6157 33.889 94.0417 34.135C94.4677 34.375 94.8217 34.693 95.1037 35.089V34ZM92.5927 41.119C93.0547 41.119 93.4627 41.002 93.8167 40.768C94.1767 40.528 94.4587 40.21 94.6627 39.814C94.8667 39.412 94.9687 38.974 94.9687 38.5C94.9687 38.02 94.8637 37.582 94.6537 37.186C94.4497 36.79 94.1677 36.472 93.8077 36.232C93.4537 35.992 93.0487 35.872 92.5927 35.872C92.1427 35.872 91.7317 35.992 91.3597 36.232C90.9877 36.466 90.6907 36.781 90.4687 37.177C90.2467 37.573 90.1357 38.014 90.1357 38.5C90.1357 38.986 90.2467 39.427 90.4687 39.823C90.6907 40.219 90.9877 40.534 91.3597 40.768C91.7317 41.002 92.1427 41.119 92.5927 41.119ZM99.4648 43V29.5H101.661V43H99.4648ZM107.644 43.234C106.816 43.234 106.06 43.021 105.376 42.595C104.698 42.169 104.155 41.596 103.747 40.876C103.345 40.156 103.144 39.361 103.144 38.491C103.144 37.837 103.261 37.225 103.495 36.655C103.729 36.079 104.05 35.575 104.458 35.143C104.872 34.705 105.352 34.363 105.898 34.117C106.444 33.871 107.026 33.748 107.644 33.748C108.346 33.748 108.988 33.898 109.57 34.198C110.158 34.492 110.656 34.897 111.064 35.413C111.472 35.929 111.769 36.517 111.955 37.177C112.141 37.837 112.183 38.527 112.081 39.247H105.502C105.586 39.583 105.724 39.886 105.916 40.156C106.108 40.42 106.351 40.633 106.645 40.795C106.939 40.951 107.272 41.032 107.644 41.038C108.028 41.044 108.376 40.954 108.688 40.768C109.006 40.576 109.27 40.318 109.48 39.994L111.721 40.516C111.355 41.314 110.809 41.968 110.083 42.478C109.357 42.982 108.544 43.234 107.644 43.234ZM105.43 37.6H109.858C109.792 37.24 109.651 36.916 109.435 36.628C109.225 36.334 108.964 36.1 108.652 35.926C108.34 35.752 108.004 35.665 107.644 35.665C107.284 35.665 106.951 35.752 106.645 35.926C106.339 36.094 106.078 36.325 105.862 36.619C105.652 36.907 105.508 37.234 105.43 37.6ZM118.08 43V30.4H122.58C123.264 30.4 123.882 30.571 124.434 30.913C124.992 31.255 125.433 31.714 125.757 32.29C126.081 32.866 126.243 33.499 126.243 34.189C126.243 34.897 126.075 35.539 125.739 36.115C125.409 36.685 124.965 37.141 124.407 37.483C123.849 37.819 123.24 37.987 122.58 37.987H120.276V43H118.08ZM120.276 35.791H122.346C122.658 35.791 122.943 35.713 123.201 35.557C123.459 35.401 123.663 35.191 123.813 34.927C123.969 34.663 124.047 34.369 124.047 34.045C124.047 33.715 123.969 33.418 123.813 33.154C123.663 32.89 123.459 32.68 123.201 32.524C122.943 32.368 122.658 32.29 122.346 32.29H120.276V35.791ZM127.889 43V29.5H130.085V43H127.889ZM138.893 34H141.089V43H138.893L138.794 41.884C138.548 42.286 138.221 42.613 137.813 42.865C137.411 43.111 136.934 43.234 136.382 43.234C135.716 43.234 135.092 43.108 134.51 42.856C133.928 42.604 133.415 42.256 132.971 41.812C132.533 41.368 132.188 40.855 131.936 40.273C131.69 39.691 131.567 39.067 131.567 38.401C131.567 37.759 131.684 37.156 131.918 36.592C132.158 36.028 132.491 35.533 132.917 35.107C133.343 34.681 133.835 34.348 134.393 34.108C134.951 33.868 135.551 33.748 136.193 33.748C136.787 33.748 137.318 33.88 137.786 34.144C138.26 34.408 138.662 34.744 138.992 35.152L138.893 34ZM136.328 41.119C136.796 41.119 137.21 41.002 137.57 40.768C137.93 40.534 138.212 40.219 138.416 39.823C138.62 39.421 138.722 38.98 138.722 38.5C138.722 38.014 138.62 37.573 138.416 37.177C138.212 36.775 137.927 36.457 137.561 36.223C137.201 35.989 136.79 35.872 136.328 35.872C135.866 35.872 135.443 35.992 135.059 36.232C134.681 36.466 134.378 36.781 134.15 37.177C133.928 37.573 133.817 38.014 133.817 38.5C133.817 38.986 133.931 39.427 134.159 39.823C134.387 40.219 134.69 40.534 135.068 40.768C135.452 41.002 135.872 41.119 136.328 41.119ZM148.565 34H150.896L145.973 47.5H143.642L145.271 43L142.031 34H144.434L146.369 39.994L148.565 34Z" fill="white"/>
</svg>
