<svg width="51" height="40" viewBox="0 0 51 40" fill="none" xmlns="http://www.w3.org/2000/svg">
<g opacity="0.2">
<path d="M3.13074 1.54361C3.13208 1.85041 3.04142 2.15071 2.87023 2.40645C2.69904 2.66219 2.45504 2.86188 2.16912 2.98021C1.88321 3.09854 1.56826 3.13019 1.26416 3.07115C0.960061 3.01211 0.680505 2.86504 0.460906 2.64856C0.241306 2.43209 0.0915446 2.15596 0.0305931 1.85514C-0.0303583 1.55433 0.000242993 1.24238 0.118521 0.958797C0.236798 0.675218 0.437429 0.432776 0.694998 0.262184C0.952567 0.0915914 1.25548 0.000525617 1.56537 0.000522742C1.77062 -0.000360766 1.97402 0.0389003 2.1639 0.116052C2.35378 0.193204 2.5264 0.306727 2.67185 0.450103C2.8173 0.59348 2.93271 0.763887 3.01146 0.951542C3.09021 1.1392 3.13075 1.3404 3.13074 1.54361Z" fill="white"/>
<path d="M19.0894 1.54361C19.0907 1.85041 19.0001 2.15071 18.8289 2.40645C18.6577 2.66219 18.4137 2.86188 18.1278 2.98021C17.8419 3.09854 17.5269 3.13019 17.2228 3.07115C16.9187 3.01211 16.6392 2.86504 16.4196 2.64856C16.2 2.43209 16.0502 2.15596 15.9892 1.85514C15.9283 1.55433 15.9589 1.24238 16.0772 0.958797C16.1955 0.675218 16.3961 0.432776 16.6537 0.262184C16.9112 0.0915913 17.2141 0.000525617 17.524 0.000522742C17.938 0.000518901 18.3352 0.162879 18.6285 0.452073C18.9219 0.741266 19.0876 1.13374 19.0894 1.54361Z" fill="white"/>
<path d="M35.0413 1.54361C35.0413 1.8488 34.9499 2.14714 34.7786 2.4009C34.6074 2.65466 34.3639 2.85244 34.0791 2.96923C33.7943 3.08603 33.481 3.11659 33.1786 3.05705C32.8763 2.9975 32.5986 2.85054 32.3806 2.63474C32.1626 2.41893 32.0142 2.14398 31.954 1.84465C31.8939 1.54532 31.9248 1.23506 32.0427 0.953095C32.1607 0.671133 32.3605 0.430136 32.6168 0.26058C32.8731 0.0910232 33.1744 0.000522742 33.4827 0.000522742C33.8961 0.000522742 34.2925 0.163097 34.5848 0.452482C34.8771 0.741867 35.0413 1.13436 35.0413 1.54361Z" fill="white"/>
<path d="M50.9999 1.54361C51.0012 1.8521 50.9094 2.15395 50.7364 2.4105C50.5633 2.66705 50.3169 2.86663 50.0286 2.98369C49.7403 3.10074 49.4232 3.12996 49.1181 3.06758C48.8129 3.00521 48.5335 2.85408 48.3156 2.63356C48.0977 2.41303 47.9512 2.13314 47.895 1.82972C47.8387 1.52629 47.8751 1.21314 47.9997 0.930359C48.1242 0.647574 48.3312 0.408022 48.594 0.242372C48.8569 0.0767224 49.1637 -0.00748774 49.4752 0.000522742C49.8827 0.00929459 50.2705 0.175734 50.5555 0.464173C50.8405 0.752613 51 1.1401 50.9999 1.54361Z" fill="white"/>
<path d="M3.13074 13.848C3.13208 14.1548 3.04142 14.4551 2.87023 14.7109C2.69904 14.9666 2.45504 15.1663 2.16912 15.2846C1.88321 15.403 1.56826 15.4346 1.26416 15.3756C0.960061 15.3165 0.680505 15.1695 0.460906 14.953C0.241306 14.7365 0.0915446 14.4604 0.0305931 14.1596C-0.0303583 13.8588 0.000242993 13.5468 0.118521 13.2632C0.236798 12.9797 0.437429 12.7372 0.694998 12.5666C0.952567 12.396 1.25548 12.305 1.56537 12.305C1.77062 12.3041 1.97402 12.3433 2.1639 12.4205C2.35378 12.4976 2.5264 12.6112 2.67185 12.7545C2.8173 12.8979 2.93271 13.0683 3.01146 13.256C3.09021 13.4436 3.13075 13.6448 3.13074 13.848Z" fill="white"/>
<path d="M19.0894 13.848C19.0907 14.1548 19.0001 14.4551 18.8289 14.7109C18.6577 14.9666 18.4137 15.1663 18.1278 15.2846C17.8419 15.403 17.5269 15.4346 17.2228 15.3756C16.9187 15.3165 16.6392 15.1695 16.4196 14.953C16.2 14.7365 16.0502 14.4604 15.9892 14.1596C15.9283 13.8588 15.9589 13.5468 16.0772 13.2632C16.1955 12.9797 16.3961 12.7372 16.6537 12.5666C16.9112 12.396 17.2141 12.305 17.524 12.305C17.938 12.305 18.3352 12.4673 18.6285 12.7565C18.9219 13.0457 19.0876 13.4382 19.0894 13.848Z" fill="white"/>
<path d="M35.0413 13.848C35.0413 14.1532 34.9499 14.4516 34.7786 14.7053C34.6074 14.9591 34.3639 15.1569 34.0791 15.2737C33.7943 15.3905 33.481 15.421 33.1786 15.3615C32.8763 15.3019 32.5986 15.155 32.3806 14.9392C32.1626 14.7234 32.0142 14.4484 31.954 14.1491C31.8939 13.8498 31.9248 13.5395 32.0427 13.2575C32.1607 12.9756 32.3605 12.7346 32.6168 12.565C32.8731 12.3955 33.1744 12.305 33.4827 12.305C33.8961 12.305 34.2925 12.4675 34.5848 12.7569C34.8771 13.0463 35.0413 13.4388 35.0413 13.848Z" fill="white"/>
<path d="M50.9999 13.848C51.0013 14.1551 50.9104 14.4557 50.7389 14.7116C50.5675 14.9675 50.3231 15.1671 50.0367 15.2853C49.7504 15.4034 49.4351 15.4347 49.1309 15.3751C48.8266 15.3155 48.547 15.1678 48.3277 14.9506C48.1084 14.7335 47.9591 14.4567 47.899 14.1554C47.8388 13.8542 47.8703 13.542 47.9897 13.2586C48.109 12.9751 48.3107 12.7331 48.5691 12.5633C48.8276 12.3936 49.1312 12.3036 49.4413 12.305C49.8547 12.305 50.2511 12.4675 50.5434 12.7569C50.8357 13.0463 50.9999 13.4388 50.9999 13.848Z" fill="white"/>
<path d="M3.13074 26.1659C3.13074 26.4724 3.03894 26.7721 2.86693 27.0269C2.69493 27.2818 2.45045 27.4804 2.16441 27.5977C1.87838 27.715 1.56364 27.7457 1.25998 27.6859C0.956331 27.6261 0.677409 27.4785 0.458487 27.2618C0.239566 27.045 0.0904791 26.7689 0.0300789 26.4682C-0.0303213 26.1676 0.000678247 25.856 0.119158 25.5728C0.237637 25.2896 0.438274 25.0476 0.695698 24.8773C0.953122 24.707 1.25577 24.6161 1.56537 24.6161C1.77119 24.6152 1.97515 24.6547 2.16547 24.7323C2.3558 24.8098 2.52872 24.924 2.67426 25.068C2.81979 25.2121 2.93506 25.3833 3.01341 25.5718C3.09176 25.7602 3.13164 25.9621 3.13074 26.1659Z" fill="white"/>
<path d="M19.0894 26.1659C19.0894 26.4724 18.9976 26.7721 18.8256 27.0269C18.6536 27.2818 18.4091 27.4804 18.1231 27.5977C17.837 27.715 17.5223 27.7457 17.2186 27.6859C16.915 27.6261 16.6361 27.4785 16.4171 27.2618C16.1982 27.045 16.0491 26.7689 15.9887 26.4682C15.9283 26.1676 15.9593 25.856 16.0778 25.5728C16.1963 25.2896 16.3969 25.0476 16.6544 24.8773C16.9118 24.707 17.2144 24.6161 17.524 24.6161C17.9392 24.6161 18.3373 24.7794 18.6309 25.07C18.9245 25.3607 19.0894 25.7549 19.0894 26.1659Z" fill="white"/>
<path d="M35.0413 26.1659C35.0399 26.4708 34.9474 26.7685 34.7753 27.0214C34.6033 27.2742 34.3594 27.471 34.0745 27.5867C33.7895 27.7025 33.4764 27.7321 33.1745 27.6718C32.8726 27.6115 32.5955 27.464 32.3782 27.2479C32.1609 27.0319 32.0132 26.7569 31.9536 26.4578C31.894 26.1586 31.9252 25.8487 32.0434 25.5671C32.1616 25.2856 32.3613 25.045 32.6175 24.8757C32.8736 24.7064 33.1747 24.6161 33.4827 24.6161C33.6879 24.6161 33.8912 24.6562 34.0807 24.7342C34.2702 24.8122 34.4424 24.9264 34.5872 25.0704C34.732 25.2144 34.8467 25.3853 34.9246 25.5733C35.0025 25.7613 35.0422 25.9627 35.0413 26.1659Z" fill="white"/>
<path d="M50.9999 26.1659C50.9998 26.4741 50.9069 26.7753 50.733 27.031C50.5592 27.2866 50.3122 27.4851 50.0238 27.6012C49.7354 27.7172 49.4186 27.7454 49.1139 27.6823C48.8092 27.6192 48.5304 27.4675 48.3132 27.2467C48.096 27.0259 47.9502 26.7461 47.8945 26.4428C47.8387 26.1396 47.8756 25.8268 48.0003 25.5444C48.1251 25.262 48.332 25.0229 48.5948 24.8575C48.8575 24.6921 49.164 24.6081 49.4752 24.6161C49.8839 24.6249 50.2727 24.7923 50.5579 25.0822C50.8431 25.372 51.0018 25.7612 50.9999 26.1659Z" fill="white"/>
<path d="M3.13074 38.4636C3.12807 38.7696 3.03399 39.0679 2.86037 39.321C2.68674 39.5741 2.44134 39.7706 2.15508 39.8858C1.86882 40.0011 1.55451 40.0299 1.25176 39.9686C0.949006 39.9073 0.671353 39.7586 0.453785 39.5413C0.236218 39.3241 0.088471 39.0479 0.0291611 38.7477C-0.0301487 38.4474 0.00163215 38.1365 0.120499 37.8541C0.239366 37.5717 0.440001 37.3304 0.697123 37.1607C0.954246 36.991 1.25635 36.9004 1.56537 36.9004C1.77208 36.9004 1.97675 36.9409 2.16756 37.0197C2.35837 37.0984 2.53154 37.2137 2.67708 37.3591C2.82261 37.5044 2.93763 37.6768 3.0155 37.8664C3.09336 38.056 3.13253 38.259 3.13074 38.4636Z" fill="white"/>
<path d="M19.0894 38.4636C19.0867 38.7696 18.9926 39.0679 18.819 39.321C18.6454 39.5741 18.4 39.7706 18.1137 39.8858C17.8275 40.0011 17.5132 40.0299 17.2104 39.9686C16.9077 39.9073 16.63 39.7586 16.4124 39.5413C16.1949 39.3241 16.0471 39.0479 15.9878 38.7477C15.9285 38.4474 15.9603 38.1365 16.0792 37.8541C16.198 37.5717 16.3987 37.3304 16.6558 37.1607C16.9129 36.991 17.215 36.9004 17.524 36.9004C17.7305 36.9013 17.9347 36.9424 18.1252 37.0215C18.3156 37.1005 18.4884 37.2159 18.6337 37.361C18.7791 37.5062 18.8941 37.6783 18.9723 37.8675C19.0505 38.0566 19.0903 38.2592 19.0894 38.4636Z" fill="white"/>
<path d="M35.0413 38.4636C35.0373 38.7679 34.9425 39.0643 34.7688 39.3154C34.5951 39.5665 34.3503 39.7611 34.0652 39.8748C33.7801 39.9885 33.4673 40.0162 33.1664 39.9544C32.8654 39.8926 32.5896 39.7441 32.3736 39.5275C32.1577 39.3109 32.0112 39.036 31.9527 38.7372C31.8942 38.4384 31.9262 38.1292 32.0448 37.8484C32.1633 37.5676 32.3631 37.3278 32.6189 37.1591C32.8748 36.9905 33.1753 36.9004 33.4827 36.9004C33.6888 36.9013 33.8928 36.9425 34.0828 37.0216C34.2728 37.1007 34.4452 37.2162 34.59 37.3614C34.7348 37.5067 34.8492 37.6788 34.9267 37.868C35.0041 38.0571 35.0431 38.2595 35.0413 38.4636Z" fill="white"/>
<path d="M50.9999 38.4636C50.9971 38.7713 50.9019 39.0711 50.7264 39.325C50.551 39.5788 50.3031 39.7753 50.0145 39.8892C49.7259 40.0032 49.4095 40.0295 49.1057 39.9649C48.8019 39.9002 48.5244 39.7476 48.3086 39.5262C48.0927 39.305 47.9483 39.0251 47.8937 38.7222C47.839 38.4194 47.8766 38.1073 48.0018 37.8257C48.1269 37.5441 48.3338 37.3057 48.5962 37.1409C48.8586 36.9762 49.1646 36.8924 49.4752 36.9004C49.8857 36.911 50.2755 37.0807 50.5607 37.3731C50.8459 37.6655 51.0036 38.0572 50.9999 38.4636Z" fill="white"/>
</g>
</svg>
