<svg width="190" height="60" fill="none" xmlns="http://www.w3.org/2000/svg"><rect width="190" height="60" rx="6" fill="#12235C"/><path d="M36.83 43.756c-1.616 1.636-3.38 1.378-5.077.603-1.797-.792-3.445-.827-5.34 0-2.374 1.068-3.627.758-5.044-.603-8.044-8.661-6.857-21.852 2.274-22.334 2.226.12 3.775 1.274 5.077 1.377 1.945-.413 3.808-1.601 5.885-1.446 2.489.207 4.368 1.24 5.604 3.1-5.143 3.22-3.923 10.297.791 12.277-.94 2.584-2.16 5.15-4.187 7.044l.017-.018zm-8.275-22.438c-.247-3.84 2.736-7.008 6.165-7.318.478 4.443-3.857 7.749-6.165 7.319zM52.84 24v-9.8h3.241c.677 0 1.311.128 1.904.385a4.836 4.836 0 011.561 1.057 4.89 4.89 0 011.05 1.561c.257.588.385 1.22.385 1.897s-.128 1.311-.385 1.904a4.998 4.998 0 01-1.05 1.561 4.99 4.99 0 01-1.561 1.057 4.815 4.815 0 01-1.904.378H52.84zm1.176-1.176h2.065a3.64 3.64 0 001.442-.287c.453-.196.85-.464 1.19-.805a3.726 3.726 0 001.092-2.632c0-.513-.098-.994-.294-1.442a3.651 3.651 0 00-.805-1.19 3.726 3.726 0 00-1.183-.798 3.558 3.558 0 00-1.442-.294h-2.065v7.448zm11.187 1.358a3.27 3.27 0 01-1.764-.497 3.726 3.726 0 01-1.267-1.33 3.74 3.74 0 01-.469-1.855c0-.513.091-.992.273-1.435a3.75 3.75 0 01.75-1.176c.321-.34.694-.607 1.12-.798a3.268 3.268 0 011.357-.287c.644 0 1.23.166 1.757.497.532.331.955.777 1.267 1.337.317.56.476 1.18.476 1.862 0 .509-.09.985-.273 1.428a3.793 3.793 0 01-.756 1.176c-.317.336-.688.6-1.113.791-.42.191-.873.287-1.358.287zm0-1.176c.439 0 .833-.114 1.183-.343a2.46 2.46 0 00.833-.917c.206-.383.308-.798.308-1.246 0-.457-.105-.877-.315-1.26a2.468 2.468 0 00-.833-.917 2.103 2.103 0 00-1.176-.343c-.439 0-.833.117-1.183.35-.35.229-.627.534-.833.917-.205.383-.308.8-.308 1.253 0 .467.105.891.315 1.274.21.378.492.679.847.903.355.22.742.329 1.162.329zm7.459.994h-1.19l-2.345-7h1.148l1.806 5.341L73.866 17h1.211l1.792 5.341L78.654 17h1.162l-2.345 7h-1.197l-1.813-5.39L72.662 24zm14.475-4.354V24h-1.176v-4.095a1.85 1.85 0 00-.259-.966 1.915 1.915 0 00-.693-.686 1.85 1.85 0 00-.966-.259c-.35 0-.672.086-.966.259-.289.168-.52.397-.693.686-.172.29-.259.611-.259.966V24H80.95v-7h1.176v.875a2.67 2.67 0 01.938-.777 2.636 2.636 0 011.232-.294c.523 0 .999.128 1.428.385a2.82 2.82 0 011.414 2.457zM88.62 24V13.5h1.176V24H88.62zm5.87.182a3.27 3.27 0 01-1.765-.497 3.725 3.725 0 01-1.267-1.33 3.74 3.74 0 01-.469-1.855c0-.513.091-.992.273-1.435a3.74 3.74 0 01.75-1.176c.321-.34.695-.607 1.12-.798a3.268 3.268 0 011.357-.287c.644 0 1.23.166 1.757.497.532.331.955.777 1.267 1.337.318.56.476 1.18.476 1.862 0 .509-.09.985-.273 1.428a3.793 3.793 0 01-.756 1.176c-.317.336-.688.6-1.113.791a3.24 3.24 0 01-1.358.287zm0-1.176c.438 0 .832-.114 1.182-.343a2.45 2.45 0 00.833-.917c.206-.383.308-.798.308-1.246 0-.457-.105-.877-.315-1.26a2.469 2.469 0 00-.833-.917 2.103 2.103 0 00-1.176-.343c-.438 0-.833.117-1.183.35-.35.229-.627.534-.833.917-.205.383-.308.8-.308 1.253 0 .467.105.891.315 1.274.21.378.493.679.847.903.355.22.742.329 1.162.329zM104.733 17h1.176v7h-1.176l-.049-1.183c-.22.406-.523.735-.91.987-.383.252-.84.378-1.372.378a3.63 3.63 0 01-1.442-.287 3.915 3.915 0 01-1.19-.805 3.812 3.812 0 01-.798-1.19 3.65 3.65 0 01-.287-1.449c0-.5.093-.97.28-1.414.186-.443.445-.83.777-1.162a3.651 3.651 0 011.162-.784c.438-.191.91-.287 1.414-.287.55 0 1.033.13 1.449.392.415.257.751.59 1.008 1.001L104.734 17zm-2.352 6.041c.462 0 .861-.112 1.197-.336a2.24 2.24 0 00.784-.924 2.92 2.92 0 00.28-1.281 2.91 2.91 0 00-.28-1.288 2.238 2.238 0 00-.791-.917c-.336-.229-.733-.343-1.19-.343-.462 0-.882.114-1.26.343A2.526 2.526 0 0099.89 20.5c0 .471.114.9.343 1.288.228.383.532.688.91.917.378.224.791.336 1.239.336zm10.425-9.541h1.176V24h-1.176v-1.19c-.238.41-.558.742-.959.994-.401.252-.873.378-1.414.378-.509 0-.985-.096-1.428-.287a3.816 3.816 0 01-1.176-.791c-.336-.34-.6-.733-.791-1.176a3.57 3.57 0 01-.287-1.428c0-.509.096-.985.287-1.428.191-.448.455-.84.791-1.176.341-.34.733-.607 1.176-.798a3.563 3.563 0 011.428-.287c.541 0 1.013.126 1.414.378s.721.583.959.994V13.5zm-2.359 9.541c.462 0 .861-.112 1.197-.336.341-.229.602-.537.784-.924.187-.387.28-.814.28-1.281 0-.476-.093-.905-.28-1.288a2.23 2.23 0 00-.791-.917c-.336-.229-.733-.343-1.19-.343-.462 0-.882.114-1.26.343a2.581 2.581 0 00-.896.924 2.49 2.49 0 00-.336 1.281c0 .471.114.9.343 1.288.229.383.532.688.91.917.378.224.791.336 1.239.336zm11.658 1.141a3.27 3.27 0 01-1.764-.497 3.718 3.718 0 01-1.267-1.33 3.737 3.737 0 01-.469-1.855c0-.513.091-.992.273-1.435.182-.448.431-.84.749-1.176.322-.34.695-.607 1.12-.798a3.265 3.265 0 011.358-.287 3.24 3.24 0 011.757.497c.532.331.954.777 1.267 1.337.317.56.476 1.18.476 1.862 0 .509-.091.985-.273 1.428a3.793 3.793 0 01-.756 1.176c-.318.336-.689.6-1.113.791-.42.191-.873.287-1.358.287zm0-1.176c.438 0 .833-.114 1.183-.343a2.47 2.47 0 00.833-.917c.205-.383.308-.798.308-1.246 0-.457-.105-.877-.315-1.26a2.474 2.474 0 00-.833-.917 2.103 2.103 0 00-1.176-.343c-.439 0-.833.117-1.183.35-.35.229-.628.534-.833.917a2.6 2.6 0 00-.308 1.253c0 .467.105.891.315 1.274.21.378.492.679.847.903.354.22.742.329 1.162.329zm10.846-3.36V24h-1.176v-4.095c0-.355-.087-.677-.259-.966a1.92 1.92 0 00-.693-.686 1.852 1.852 0 00-.966-.259c-.35 0-.672.086-.966.259-.29.168-.521.397-.693.686-.173.29-.259.611-.259.966V24h-1.176v-7h1.176v.875c.247-.327.56-.586.938-.777a2.635 2.635 0 011.232-.294c.522 0 .998.128 1.428.385a2.81 2.81 0 011.029 1.022c.256.43.385.908.385 1.435zm8.389-1.47h-1.589L139.745 24h-1.176l.007-5.824h-1.204V17h1.204l-.007-2.198h1.176l.007 2.198h1.589v1.176zm7.443 1.47V24h-1.176v-4.095c0-.355-.086-.677-.259-.966a1.92 1.92 0 00-.693-.686 1.847 1.847 0 00-.966-.259c-.35 0-.672.086-.966.259a1.92 1.92 0 00-.693.686c-.173.29-.259.611-.259.966V24h-1.176V13.5h1.176v4.375c.247-.327.56-.586.938-.777a2.638 2.638 0 011.232-.294c.523 0 .999.128 1.428.385a2.81 2.81 0 011.029 1.022c.257.43.385.908.385 1.435zm4.343 4.536a3.27 3.27 0 01-1.764-.497 3.726 3.726 0 01-1.267-1.33 3.737 3.737 0 01-.469-1.855c0-.513.091-.992.273-1.435.182-.448.432-.84.749-1.176.322-.34.695-.607 1.12-.798a3.268 3.268 0 011.358-.287c.527 0 1.01.107 1.449.322.443.21.821.504 1.134.882.317.378.553.817.707 1.316.159.5.217 1.034.175 1.603h-5.712c.056.397.187.751.392 1.064.205.308.467.553.784.735.322.182.679.275 1.071.28.42 0 .8-.107 1.141-.322.341-.22.616-.518.826-.896l1.197.28c-.28.62-.702 1.13-1.267 1.526a3.25 3.25 0 01-1.897.588zm-2.282-4.179h4.564a2.285 2.285 0 00-.378-1.071 2.486 2.486 0 00-.819-.784 2.092 2.092 0 00-1.085-.294c-.392 0-.751.096-1.078.287a2.43 2.43 0 00-.812.777c-.21.322-.341.684-.392 1.085zM56.292 32.4h2.529L63.402 45h-2.331l-.81-2.232h-5.4L54.051 45H51.72l4.572-12.6zm-.63 8.172h3.789l-1.899-5.193-1.89 5.193zM66.774 49.5h-2.196V36h2.196v1.143a3.542 3.542 0 011.08-.99c.432-.258.936-.387 1.512-.387.66 0 1.275.123 1.845.369.57.246 1.071.588 1.503 1.026.438.432.777.933 1.017 1.503.246.57.369 1.182.369 1.836 0 .654-.123 1.269-.369 1.845a4.67 4.67 0 01-1.017 1.521 4.788 4.788 0 01-1.503 1.017 4.606 4.606 0 01-1.845.369c-.576 0-1.08-.126-1.512-.378a3.65 3.65 0 01-1.08-.999V49.5zm2.565-11.619c-.456 0-.864.12-1.224.36-.36.234-.642.549-.846.945a2.826 2.826 0 00-.306 1.314c0 .48.102.921.306 1.323.204.396.486.714.846.954.36.234.768.351 1.224.351.462 0 .885-.117 1.269-.351a2.616 2.616 0 001.26-2.277 2.616 2.616 0 00-1.26-2.259 2.318 2.318 0 00-1.269-.36zM77.708 49.5h-2.196V36h2.196v1.143a3.542 3.542 0 011.08-.99c.432-.258.936-.387 1.512-.387.66 0 1.275.123 1.845.369.57.246 1.07.588 1.503 1.026.438.432.777.933 1.017 1.503.246.57.369 1.182.369 1.836 0 .654-.123 1.269-.37 1.845a4.67 4.67 0 01-1.016 1.521 4.788 4.788 0 01-1.503 1.017 4.606 4.606 0 01-1.845.369c-.576 0-1.08-.126-1.512-.378a3.65 3.65 0 01-1.08-.999V49.5zm2.565-11.619c-.456 0-.864.12-1.224.36-.36.234-.642.549-.846.945a2.826 2.826 0 00-.306 1.314c0 .48.102.921.306 1.323.204.396.486.714.846.954.36.234.768.351 1.224.351.462 0 .885-.117 1.269-.351a2.616 2.616 0 001.26-2.277 2.616 2.616 0 00-1.26-2.259 2.318 2.318 0 00-1.27-.36zM86.323 45V31.5h2.195V45h-2.196zm8.178.234a4.205 4.205 0 01-2.268-.639A4.77 4.77 0 0190 40.491c0-.654.117-1.266.35-1.836a4.82 4.82 0 01.964-1.512c.414-.438.894-.78 1.44-1.026a4.201 4.201 0 011.746-.369c.702 0 1.344.15 1.926.45a4.379 4.379 0 011.494 1.215 4.997 4.997 0 011.017 3.834h-6.58c.085.336.223.639.415.909.192.264.435.477.729.639.294.156.627.237.999.243.384.006.732-.084 1.044-.27.318-.192.582-.45.792-.774l2.24.522a4.81 4.81 0 01-1.637 1.962 4.178 4.178 0 01-2.44.756zM92.287 39.6h4.428a2.284 2.284 0 00-.423-.972 2.37 2.37 0 00-.783-.702 2.036 2.036 0 00-1.008-.261c-.36 0-.693.087-1 .261a2.395 2.395 0 00-.782.693c-.21.288-.354.615-.432.981zm17.186 5.634a6.251 6.251 0 01-2.007-.324 5.204 5.204 0 01-1.674-.945 3.535 3.535 0 01-1.035-1.485l2.061-.756c.084.24.255.459.513.657s.573.357.945.477.771.18 1.197.18c.438 0 .846-.066 1.224-.198.384-.138.693-.327.927-.567.234-.246.351-.531.351-.855 0-.33-.123-.6-.369-.81a2.678 2.678 0 00-.945-.513 7.799 7.799 0 00-1.188-.288 10.708 10.708 0 01-2.403-.639c-.708-.288-1.269-.687-1.683-1.197-.408-.51-.612-1.17-.612-1.98 0-.762.219-1.428.657-1.998.438-.57 1.014-1.014 1.728-1.332a5.62 5.62 0 012.313-.477c.69 0 1.356.108 1.998.324a4.975 4.975 0 011.683.945c.486.414.834.912 1.044 1.494l-2.07.747c-.084-.24-.255-.459-.513-.657a2.962 2.962 0 00-.945-.468 3.877 3.877 0 00-1.197-.18 3.297 3.297 0 00-1.215.207 2.5 2.5 0 00-.927.567c-.24.24-.36.516-.36.828 0 .402.111.705.333.909.228.204.531.354.909.45.378.09.798.174 1.26.252.84.132 1.617.354 2.331.666.714.312 1.287.729 1.719 1.251.432.516.648 1.149.648 1.899 0 .762-.216 1.431-.648 2.007-.432.57-1.005 1.014-1.719 1.332a5.664 5.664 0 01-2.331.477zm11.31-7.038h-1.746V45h-2.196v-6.804h-1.332V36h1.332v-2.826h2.196V36h1.746v2.196zm5.394 7.038a4.205 4.205 0 01-2.268-.639 4.79 4.79 0 01-1.629-1.71 4.809 4.809 0 01-.603-2.385c0-.66.117-1.275.351-1.845a4.82 4.82 0 01.963-1.512c.414-.438.894-.78 1.44-1.026a4.201 4.201 0 011.746-.369 4.16 4.16 0 012.259.639 4.67 4.67 0 011.629 1.719 4.77 4.77 0 01.612 2.394c0 .654-.117 1.266-.351 1.836a4.876 4.876 0 01-.972 1.512 4.48 4.48 0 01-1.431 1.017 4.161 4.161 0 01-1.746.369zm0-2.196c.438 0 .831-.117 1.179-.351.348-.234.621-.543.819-.927.204-.384.306-.804.306-1.26a2.62 2.62 0 00-.315-1.278 2.405 2.405 0 00-.837-.927 2.02 2.02 0 00-1.152-.351 2.05 2.05 0 00-1.17.351 2.504 2.504 0 00-.828.936c-.204.39-.306.813-.306 1.269 0 .474.105.903.315 1.287.21.384.489.69.837.918.354.222.738.333 1.152.333zm5.91 1.962l-.009-9h2.196l.009.801a3.317 3.317 0 011.098-.765 3.312 3.312 0 011.377-.288c.33 0 .66.048.99.144l-.864 2.214a1.873 1.873 0 00-1.656.126 1.918 1.918 0 00-.693.693 1.876 1.876 0 00-.252.963V45h-2.196zm10.209.234a4.205 4.205 0 01-2.268-.639 4.77 4.77 0 01-2.232-4.104c0-.654.117-1.266.351-1.836a4.82 4.82 0 01.963-1.512c.414-.438.894-.78 1.44-1.026a4.201 4.201 0 011.746-.369c.702 0 1.344.15 1.926.45a4.379 4.379 0 011.494 1.215 4.997 4.997 0 011.017 3.834h-6.579c.084.336.222.639.414.909.192.264.435.477.729.639.294.156.627.237.999.243.384.006.732-.084 1.044-.27.318-.192.582-.45.792-.774l2.241.522a4.81 4.81 0 01-1.638 1.962 4.178 4.178 0 01-2.439.756zm-2.214-5.634h4.428a2.284 2.284 0 00-.423-.972 2.37 2.37 0 00-.783-.702 2.036 2.036 0 00-1.008-.261c-.36 0-.693.087-.999.261a2.395 2.395 0 00-.783.693c-.21.288-.354.615-.432.981z" fill="#fff"/></svg>