<svg width="64" height="72" fill="none" xmlns="http://www.w3.org/2000/svg"><path d="M39.528 7.667v7.007c0 3.117-8.39 5.667-18.726 5.667-10.338 0-18.727-2.531-18.727-5.667V7.667m37.453 7.555v8.897c0 3.117-8.39 5.667-18.726 5.667-10.338 0-18.727-2.532-18.727-5.667v-8.897M27.58 38.116a60 60 0 01-6.854.377C10.427 38.493 2 35.981 2 32.827v-10.05m37.528 1.89v5.666M21.607 47.938h-.88C10.427 47.938 2 45.407 2 42.27V30.333M22.73 56.74h-2.003C10.427 56.74 2 54.228 2 51.073V41.63m37.528 18.927h7.49a3.73 3.73 0 002.65-1.107 3.795 3.795 0 001.096-2.671 3.795 3.795 0 00-1.097-2.672A3.73 3.73 0 0047.02 53h-3.746a3.729 3.729 0 01-2.648-1.106 3.795 3.795 0 01-1.097-2.672c0-1.002.395-1.963 1.097-2.671a3.73 3.73 0 012.648-1.107h7.491m-5.618-3.777v3.777m0 15.112v3.777m-5.618-57.61c0 2.607-8.384 4.721-18.726 4.721-10.343 0-18.727-2.114-18.727-4.722C2.075 4.114 10.459 2 20.802 2c10.342 0 18.726 2.114 18.726 4.722zM62 53c0 9.389-7.546 17-16.854 17s-16.854-7.611-16.854-17 7.546-17 16.854-17S62 43.611 62 53z" stroke="#7F838C" stroke-width="3" stroke-linecap="round" stroke-linejoin="round"/></svg>