<svg width="111" height="89" fill="none" xmlns="http://www.w3.org/2000/svg"><path d="M3.008 1.505a1.516 1.516 0 01-.924 1.4 1.498 1.498 0 01-1.641-.323A1.513 1.513 0 011.504.001a1.491 1.491 0 011.39.927c.075.183.114.379.114.577zm15.332 0a1.516 1.516 0 01-.923 1.4 1.498 1.498 0 01-1.641-.323 1.514 1.514 0 011.06-2.581 1.5 1.5 0 011.062.44c.282.282.441.664.443 1.064zm15.327 0a1.51 1.51 0 01-.924 1.39 1.49 1.49 0 01-1.632-.326A1.506 1.506 0 0132.17 0c.397 0 .778.158 1.058.44.281.282.44.665.44 1.064zm15.333 0a1.516 1.516 0 01-.933 1.404 1.497 1.497 0 01-1.646-.341A1.513 1.513 0 0147.535 0 1.505 1.505 0 0149 1.504zM3.008 13.502a1.516 1.516 0 01-.924 1.4 1.497 1.497 0 01-1.641-.323 1.513 1.513 0 011.061-2.582 1.493 1.493 0 011.39.928c.075.182.114.379.114.577zm15.332 0a1.516 1.516 0 01-.923 1.4 1.497 1.497 0 01-1.641-.323 1.514 1.514 0 011.06-2.582 1.5 1.5 0 011.062.44c.282.283.441.665.443 1.065zm15.327 0a1.51 1.51 0 01-.924 1.39 1.49 1.49 0 01-1.632-.326 1.506 1.506 0 011.059-2.569c.397 0 .778.159 1.058.441.281.282.44.665.44 1.064zm15.333 0a1.516 1.516 0 01-.925 1.401 1.497 1.497 0 01-1.643-.326 1.513 1.513 0 011.07-2.58A1.496 1.496 0 0149 13.502zM3.008 25.512a1.516 1.516 0 01-.928 1.396 1.498 1.498 0 01-1.64-.328A1.513 1.513 0 011.505 24a1.49 1.49 0 011.065.441 1.506 1.506 0 01.439 1.07zm15.332 0a1.515 1.515 0 01-.928 1.396 1.498 1.498 0 01-1.639-.328A1.514 1.514 0 0116.837 24a1.5 1.5 0 011.063.443c.282.284.44.668.44 1.069zm15.327 0a1.51 1.51 0 01-.929 1.385 1.491 1.491 0 01-1.63-.33 1.506 1.506 0 01-.321-1.639 1.503 1.503 0 011.383-.927 1.492 1.492 0 011.385.933c.075.183.113.38.112.578zm15.333 0a1.516 1.516 0 01-.938 1.4 1.497 1.497 0 01-1.643-.346A1.513 1.513 0 0147.535 24c.393.008.766.171 1.04.454.274.283.427.662.425 1.057zM3.008 37.502a1.516 1.516 0 01-.937 1.387 1.498 1.498 0 01-1.635-.336 1.513 1.513 0 011.068-2.575 1.497 1.497 0 011.068.447 1.511 1.511 0 01.436 1.077zm15.332 0a1.516 1.516 0 01-.937 1.387 1.498 1.498 0 01-1.634-.336 1.514 1.514 0 011.068-2.575 1.507 1.507 0 011.391.943c.075.184.114.382.113.581zm15.327 0a1.509 1.509 0 01-.938 1.376 1.491 1.491 0 01-1.625-.339 1.506 1.506 0 011.066-2.561 1.5 1.5 0 011.387.943c.074.185.112.382.11.581zm15.333 0a1.515 1.515 0 01-.947 1.39 1.498 1.498 0 01-1.639-.354 1.514 1.514 0 011.121-2.56 1.5 1.5 0 011.043.46c.274.286.425.668.422 1.064zM65.008 1.505a1.517 1.517 0 01-.924 1.4 1.498 1.498 0 01-1.641-.323A1.513 1.513 0 0163.504.001a1.49 1.49 0 011.39.927c.075.183.114.379.114.577zm15.332 0a1.516 1.516 0 01-.923 1.4 1.498 1.498 0 01-1.641-.323 1.514 1.514 0 011.06-2.581 1.5 1.5 0 011.062.44c.282.282.441.664.443 1.064zm15.327 0a1.51 1.51 0 01-.924 1.39 1.49 1.49 0 01-1.632-.326A1.506 1.506 0 0194.17 0c.397 0 .778.158 1.058.44.281.282.44.665.44 1.064zm15.333 0a1.51 1.51 0 01-.933 1.404 1.498 1.498 0 01-1.646-.341 1.515 1.515 0 01.267-2.332A1.502 1.502 0 01111 1.505zM65.008 13.502a1.516 1.516 0 01-.924 1.4 1.497 1.497 0 01-1.641-.323 1.514 1.514 0 011.061-2.582 1.493 1.493 0 011.39.928c.075.182.114.379.114.577zm15.332 0a1.516 1.516 0 01-.923 1.4 1.497 1.497 0 01-1.641-.323 1.514 1.514 0 011.06-2.582 1.5 1.5 0 011.062.44c.282.283.441.665.443 1.065zm15.327 0a1.51 1.51 0 01-.924 1.39 1.49 1.49 0 01-1.632-.326 1.506 1.506 0 011.059-2.569c.397 0 .778.159 1.058.441.281.282.44.665.44 1.064zm15.333 0a1.517 1.517 0 01-.925 1.401 1.5 1.5 0 01-2.054-1.101 1.513 1.513 0 01.643-1.553 1.5 1.5 0 011.897.189c.281.282.439.665.439 1.064zm-45.992 12.01a1.515 1.515 0 01-.928 1.396 1.498 1.498 0 01-1.64-.328A1.513 1.513 0 0163.505 24a1.49 1.49 0 011.065.441 1.505 1.505 0 01.439 1.07zm15.332 0a1.515 1.515 0 01-.928 1.396 1.498 1.498 0 01-1.639-.328A1.514 1.514 0 0178.837 24a1.5 1.5 0 011.063.443c.282.284.44.668.44 1.069zm15.327 0a1.51 1.51 0 01-.929 1.385 1.491 1.491 0 01-1.63-.33 1.506 1.506 0 01-.321-1.639 1.503 1.503 0 011.383-.927 1.492 1.492 0 011.385.933c.075.183.113.38.112.578zm15.333 0a1.515 1.515 0 01-.938 1.4 1.496 1.496 0 01-1.643-.346 1.516 1.516 0 01.27-2.33c.252-.161.547-.243.846-.235.393.008.766.171 1.04.454.274.283.427.662.425 1.057zm-45.992 11.99a1.516 1.516 0 01-.937 1.387 1.498 1.498 0 01-1.635-.336 1.514 1.514 0 011.068-2.575 1.498 1.498 0 011.393.942c.075.185.113.383.111.582zm15.332 0a1.516 1.516 0 01-.937 1.387 1.498 1.498 0 01-1.634-.336 1.514 1.514 0 011.068-2.575 1.507 1.507 0 011.391.943c.075.184.114.382.113.581zm15.327 0a1.509 1.509 0 01-.938 1.376 1.491 1.491 0 01-1.625-.339 1.506 1.506 0 011.066-2.561 1.5 1.5 0 011.387.943c.074.185.112.382.11.581zm15.333 0a1.515 1.515 0 01-.947 1.39 1.497 1.497 0 01-1.639-.354 1.521 1.521 0 01-.295-1.658 1.503 1.503 0 012.881.622zM3.008 51.505a1.516 1.516 0 01-.924 1.4 1.498 1.498 0 01-1.641-.323 1.513 1.513 0 011.061-2.581 1.49 1.49 0 011.063.438 1.504 1.504 0 01.441 1.066zm15.332 0a1.516 1.516 0 01-.923 1.4 1.498 1.498 0 01-1.641-.323 1.513 1.513 0 011.06-2.581 1.5 1.5 0 011.062.44c.282.282.441.664.443 1.064zm15.327 0a1.51 1.51 0 01-.924 1.39 1.49 1.49 0 01-1.632-.326A1.506 1.506 0 0132.17 50c.397 0 .778.159 1.058.441.281.282.44.665.44 1.064zm15.333 0a1.516 1.516 0 01-.933 1.404 1.498 1.498 0 01-1.646-.341A1.513 1.513 0 0147.535 50 1.505 1.505 0 0149 51.504zM3.008 63.502a1.516 1.516 0 01-.924 1.4 1.497 1.497 0 01-1.641-.323 1.513 1.513 0 011.061-2.582 1.493 1.493 0 011.39.928c.075.183.114.379.114.577zm15.332 0a1.516 1.516 0 01-.923 1.4 1.497 1.497 0 01-1.641-.323 1.514 1.514 0 011.06-2.582 1.5 1.5 0 011.062.44c.282.283.441.665.443 1.065zm15.327 0a1.51 1.51 0 01-.924 1.39 1.49 1.49 0 01-1.632-.326 1.506 1.506 0 011.059-2.569c.397 0 .778.159 1.058.441.281.282.44.665.44 1.064zm15.333 0a1.516 1.516 0 01-.925 1.401 1.498 1.498 0 01-1.643-.326 1.513 1.513 0 011.07-2.58A1.496 1.496 0 0149 63.502zM3.008 75.512a1.516 1.516 0 01-.928 1.396 1.498 1.498 0 01-1.64-.328A1.513 1.513 0 011.505 74a1.49 1.49 0 011.065.441 1.505 1.505 0 01.439 1.07zm15.332 0a1.516 1.516 0 01-.928 1.396 1.498 1.498 0 01-1.639-.328A1.514 1.514 0 0116.837 74a1.5 1.5 0 011.063.443c.282.284.44.668.44 1.069zm15.327 0a1.51 1.51 0 01-.929 1.385 1.491 1.491 0 01-1.63-.33 1.506 1.506 0 01-.321-1.639 1.503 1.503 0 011.383-.927 1.492 1.492 0 011.385.933c.075.183.113.38.112.578zm15.333 0a1.516 1.516 0 01-.938 1.4 1.497 1.497 0 01-1.643-.346A1.513 1.513 0 0147.535 74c.393.008.766.171 1.04.454.274.283.427.662.425 1.057zM3.008 87.502a1.516 1.516 0 01-.937 1.387 1.498 1.498 0 01-1.635-.336 1.513 1.513 0 011.068-2.575 1.497 1.497 0 011.068.447 1.511 1.511 0 01.436 1.077zm15.332 0a1.516 1.516 0 01-.937 1.387 1.498 1.498 0 01-1.634-.336 1.514 1.514 0 011.068-2.575 1.507 1.507 0 011.391.943c.075.184.114.382.113.581zm15.327 0a1.509 1.509 0 01-.938 1.376 1.492 1.492 0 01-1.625-.339 1.506 1.506 0 011.066-2.561 1.5 1.5 0 011.387.943c.074.185.112.382.11.581zm15.333 0a1.516 1.516 0 01-.947 1.39 1.498 1.498 0 01-1.639-.354 1.514 1.514 0 011.121-2.56 1.5 1.5 0 011.043.46c.274.286.425.668.422 1.064zm16.008-35.997a1.517 1.517 0 01-.924 1.4 1.498 1.498 0 01-1.641-.323 1.513 1.513 0 011.061-2.581 1.489 1.489 0 011.063.438 1.505 1.505 0 01.441 1.066zm15.332 0a1.516 1.516 0 01-.923 1.4 1.498 1.498 0 01-1.641-.323 1.513 1.513 0 011.06-2.581 1.5 1.5 0 011.062.44c.282.282.441.664.443 1.064zm15.327 0a1.51 1.51 0 01-.924 1.39 1.49 1.49 0 01-1.632-.326A1.506 1.506 0 0194.17 50c.397 0 .778.159 1.058.441.281.282.44.665.44 1.064zm15.333 0a1.509 1.509 0 01-.933 1.404 1.499 1.499 0 01-1.646-.341 1.515 1.515 0 01.267-2.332A1.502 1.502 0 01111 51.505zM65.008 63.502a1.516 1.516 0 01-.924 1.4 1.497 1.497 0 01-1.641-.323 1.514 1.514 0 011.061-2.582 1.493 1.493 0 011.39.928c.075.183.114.379.114.577zm15.332 0a1.516 1.516 0 01-.923 1.4 1.497 1.497 0 01-1.641-.323 1.514 1.514 0 011.06-2.582 1.5 1.5 0 011.062.44c.282.283.441.665.443 1.065zm15.327 0a1.51 1.51 0 01-.924 1.39 1.49 1.49 0 01-1.632-.326 1.506 1.506 0 011.059-2.569c.397 0 .778.159 1.058.441.281.282.44.665.44 1.064zm15.333 0a1.517 1.517 0 01-.925 1.401 1.5 1.5 0 01-2.054-1.101 1.513 1.513 0 01.643-1.553 1.5 1.5 0 011.897.189c.281.282.439.665.439 1.064zm-45.992 12.01a1.516 1.516 0 01-.928 1.396 1.498 1.498 0 01-1.64-.328A1.513 1.513 0 0163.505 74a1.49 1.49 0 011.065.441 1.504 1.504 0 01.439 1.07zm15.332 0a1.516 1.516 0 01-.928 1.396 1.498 1.498 0 01-1.639-.328A1.514 1.514 0 0178.837 74a1.5 1.5 0 011.063.443c.282.284.44.668.44 1.069zm15.327 0a1.51 1.51 0 01-.929 1.385 1.491 1.491 0 01-1.63-.33 1.506 1.506 0 01-.321-1.639 1.503 1.503 0 011.383-.927 1.492 1.492 0 011.385.933c.075.183.113.38.112.578zm15.333 0a1.515 1.515 0 01-.938 1.4 1.496 1.496 0 01-1.643-.346 1.516 1.516 0 01.27-2.33c.252-.161.547-.243.846-.235.393.008.766.171 1.04.454.274.283.427.662.425 1.057zm-45.992 11.99a1.516 1.516 0 01-.937 1.387 1.498 1.498 0 01-1.635-.336 1.514 1.514 0 011.068-2.575 1.498 1.498 0 011.393.942c.075.185.113.382.111.582zm15.332 0a1.516 1.516 0 01-.937 1.387 1.498 1.498 0 01-1.634-.336 1.514 1.514 0 011.068-2.575 1.507 1.507 0 011.391.943c.075.184.114.382.113.581zm15.327 0a1.509 1.509 0 01-.938 1.376 1.492 1.492 0 01-1.625-.339 1.506 1.506 0 011.066-2.561 1.5 1.5 0 011.387.943c.074.185.112.382.11.581zm15.333 0a1.516 1.516 0 01-.947 1.39 1.497 1.497 0 01-1.639-.354 1.521 1.521 0 01-.295-1.658 1.503 1.503 0 012.881.622z" fill="#C5C5C5"/></svg>