<svg width="200" height="60" fill="none" xmlns="http://www.w3.org/2000/svg"><rect width="200" height="60" rx="6" fill="#2B2B2B"/><path d="M34 17.718v24.563c0 .053.015.105.044.15a.263.263 0 00.116.098.251.251 0 00.283-.057L46.74 30 34.444 17.526a.25.25 0 00-.283-.057.263.263 0 00-.116.1.278.278 0 00-.044.15zm17.897 7.157l-15.42-8.835-.01-.005c-.265-.15-.517.223-.3.44l12.087 12.02 3.643-3.62zm-15.729 18.65c-.218.217.034.59.3.44l.01-.005 15.419-8.835-3.643-3.622-12.086 12.021zm21.953-15.087l-4.305-2.467L49.766 30l4.05 4.027 4.305-2.465c1.172-.673 1.172-2.451 0-3.125zm17.878-4.269a4.303 4.303 0 01-1.768-.364 4.495 4.495 0 01-1.424-1.02 4.921 4.921 0 01-.949-1.515 4.938 4.938 0 01-.338-1.826c0-.68.121-1.307.364-1.879a4.648 4.648 0 01.995-1.489c.42-.424.899-.754 1.436-.988a4.25 4.25 0 011.703-.35c.672 0 1.317.155 1.937.468.62.312 1.16.78 1.618 1.404l-1.208.656a3.118 3.118 0 00-1.093-.884 2.878 2.878 0 00-1.267-.299c-.42 0-.819.087-1.196.26a3.12 3.12 0 00-1.001.715 3.401 3.401 0 00-.936 2.405c0 .464.08.9.24 1.306.165.408.39.765.677 1.073.29.303.623.542 1 .715a2.919 2.919 0 002.145.104 3 3 0 00.82-.442 3.19 3.19 0 00.669-.696c.19-.268.342-.567.455-.896h-1.93V19.43h3.516a4.627 4.627 0 01-.338 1.834 4.798 4.798 0 01-.962 1.514 4.495 4.495 0 01-1.424 1.02 4.149 4.149 0 01-1.74.372zM81.681 24v-9.1h5.649v1.352h-4.297v2.197h3.458v1.352h-3.458v2.847h4.297V24h-5.649zm13.968-9.1v1.352h-2.9V24H91.4v-7.748h-2.893V14.9h7.144zm4.623 9.1v-9.1h1.352V24h-1.352zm9.989-9.1v1.352h-2.899V24h-1.352v-7.748h-2.892V14.9h7.143zm8.653 9.269a4.192 4.192 0 01-1.735-.364 4.56 4.56 0 01-1.43-1.02 4.794 4.794 0 01-1.32-3.335 4.808 4.808 0 011.32-3.334 4.473 4.473 0 011.43-1.014 4.13 4.13 0 011.735-.371c.62 0 1.2.123 1.742.37a4.493 4.493 0 011.43 1.014c.412.434.732.937.962 1.509a4.74 4.74 0 01.351 1.826c0 .65-.117 1.261-.351 1.833a4.738 4.738 0 01-.962 1.502 4.571 4.571 0 01-1.43 1.02 4.211 4.211 0 01-1.742.364zm0-1.352c.433 0 .839-.089 1.216-.267a3.22 3.22 0 00.994-.727c.29-.313.516-.67.676-1.073.165-.407.247-.84.247-1.3 0-.46-.082-.893-.247-1.3a3.315 3.315 0 00-.676-1.072 3.085 3.085 0 00-.994-.729 2.818 2.818 0 00-1.216-.266 2.81 2.81 0 00-1.215.267 3.246 3.246 0 00-1.001.734 3.454 3.454 0 00-.917 2.366c0 .464.08.9.241 1.306.164.404.39.761.676 1.073.29.308.624.55 1.001.728.377.173.782.26 1.215.26zM124.618 24v-9.1h1.462l4.18 6.656V14.9h1.352V24h-1.463l-4.179-6.656V24h-1.352zM75.912 43.234a5.87 5.87 0 01-2.448-.513 6.12 6.12 0 01-1.962-1.413 6.841 6.841 0 01-1.314-2.088 6.862 6.862 0 01-.468-2.538c0-.948.168-1.818.504-2.61a6.483 6.483 0 011.395-2.061 6.39 6.39 0 011.998-1.35 5.936 5.936 0 012.34-.477 5.83 5.83 0 012.637.639c.858.42 1.614 1.071 2.268 1.953L78.9 33.829a3.88 3.88 0 00-1.386-1.098 3.644 3.644 0 00-3.105-.045c-.48.216-.909.522-1.287.918-.372.39-.666.852-.882 1.386a4.545 4.545 0 00-.324 1.737 4.46 4.46 0 001.179 3.06c.372.39.801.696 1.287.918a3.724 3.724 0 002.655.162c.36-.12.696-.291 1.008-.513.318-.222.6-.492.846-.81.252-.318.462-.678.63-1.08h-2.295v-1.917h4.878a6.592 6.592 0 01-.432 2.583 6.678 6.678 0 01-1.323 2.133 6.22 6.22 0 01-1.989 1.449 5.783 5.783 0 01-2.448.522zm11.68 0a4.205 4.205 0 01-2.267-.639 4.79 4.79 0 01-1.63-1.71 4.809 4.809 0 01-.602-2.385c0-.66.117-1.275.35-1.845a4.82 4.82 0 01.964-1.512c.414-.438.894-.78 1.44-1.026a4.201 4.201 0 011.746-.369 4.16 4.16 0 012.259.639 4.67 4.67 0 011.629 1.719 4.77 4.77 0 01.612 2.394c0 .654-.117 1.266-.351 1.836a4.876 4.876 0 01-.972 1.512 4.48 4.48 0 01-1.431 1.017 4.161 4.161 0 01-1.746.369zm0-2.196c.439 0 .832-.117 1.18-.351.348-.234.62-.543.819-.927.204-.384.306-.804.306-1.26a2.62 2.62 0 00-.315-1.278 2.405 2.405 0 00-.837-.927 2.02 2.02 0 00-1.152-.351 2.05 2.05 0 00-1.17.351 2.504 2.504 0 00-.828.936c-.204.39-.306.813-.306 1.269 0 .474.105.903.315 1.287.21.384.489.69.837.918.354.222.738.333 1.152.333zm9.897 2.196a4.205 4.205 0 01-2.268-.639 4.79 4.79 0 01-1.629-1.71 4.809 4.809 0 01-.603-2.385c0-.66.117-1.275.351-1.845a4.82 4.82 0 01.963-1.512c.414-.438.894-.78 1.44-1.026a4.201 4.201 0 011.746-.369 4.16 4.16 0 012.26.639 4.672 4.672 0 011.628 1.719 4.77 4.77 0 01.612 2.394c0 .654-.117 1.266-.351 1.836a4.876 4.876 0 01-.972 1.512 4.48 4.48 0 01-1.43 1.017 4.161 4.161 0 01-1.747.369zm0-2.196a2.07 2.07 0 001.18-.351c.347-.234.62-.543.818-.927.204-.384.306-.804.306-1.26a2.62 2.62 0 00-.315-1.278 2.405 2.405 0 00-.837-.927 2.02 2.02 0 00-1.152-.351 2.05 2.05 0 00-1.17.351 2.504 2.504 0 00-.828.936c-.204.39-.306.813-.306 1.269 0 .474.105.903.315 1.287.21.384.49.69.837.918.354.222.738.333 1.152.333zM110.104 34h2.196v9.171c0 .648-.132 1.236-.396 1.764a4.14 4.14 0 01-1.08 1.368 4.9 4.9 0 01-1.566.882 5.47 5.47 0 01-1.854.315c-.63 0-1.236-.129-1.818-.387a5.085 5.085 0 01-1.548-1.062 4.608 4.608 0 01-1.017-1.521l2.007-.909c.12.33.3.618.54.864.246.252.528.447.846.585.318.144.648.216.99.216.348 0 .681-.048.999-.144.324-.096.615-.237.873-.423.258-.18.459-.402.603-.666.15-.258.225-.552.225-.882v-1.269a3.335 3.335 0 01-1.062.963c-.426.246-.918.369-1.476.369a4.497 4.497 0 01-1.818-.369 4.817 4.817 0 01-1.494-1.017 4.978 4.978 0 01-1.008-1.512 4.682 4.682 0 01-.36-1.836c0-.654.12-1.266.36-1.836a4.865 4.865 0 011.008-1.503c.432-.438.93-.78 1.494-1.026a4.497 4.497 0 011.818-.369c.558 0 1.05.123 1.476.369.426.24.78.558 1.062.954V34zm-2.511 7.119c.462 0 .87-.117 1.224-.351.36-.24.642-.558.846-.954.204-.402.306-.84.306-1.314 0-.48-.105-.918-.315-1.314a2.502 2.502 0 00-.846-.954 2.114 2.114 0 00-1.215-.36c-.45 0-.861.12-1.233.36a2.594 2.594 0 00-.891.945 2.659 2.659 0 00-.333 1.323c0 .486.111.927.333 1.323.222.396.519.711.891.945a2.27 2.27 0 001.233.351zM114.465 43V29.5h2.196V43h-2.196zm8.179.234a4.205 4.205 0 01-2.268-.639 4.77 4.77 0 01-2.232-4.104c0-.654.117-1.266.351-1.836a4.82 4.82 0 01.963-1.512c.414-.438.894-.78 1.44-1.026a4.201 4.201 0 011.746-.369c.702 0 1.344.15 1.926.45a4.379 4.379 0 011.494 1.215 4.997 4.997 0 011.017 3.834h-6.579c.084.336.222.639.414.909.192.264.435.477.729.639.294.156.627.237.999.243.384.006.732-.084 1.044-.27.318-.192.582-.45.792-.774l2.241.522a4.81 4.81 0 01-1.638 1.962 4.178 4.178 0 01-2.439.756zM120.43 37.6h4.428a2.284 2.284 0 00-.423-.972 2.37 2.37 0 00-.783-.702 2.036 2.036 0 00-1.008-.261c-.36 0-.693.087-.999.261a2.395 2.395 0 00-.783.693c-.21.288-.354.615-.432.981zm12.65 5.4V30.4h4.5c.684 0 1.302.171 1.854.513a3.807 3.807 0 011.809 3.276c0 .708-.168 1.35-.504 1.926a3.83 3.83 0 01-1.332 1.368 3.477 3.477 0 01-1.827.504h-2.304V43h-2.196zm2.196-7.209h2.07c.312 0 .597-.078.855-.234.258-.156.462-.366.612-.63.156-.264.234-.558.234-.882 0-.33-.078-.627-.234-.891a1.712 1.712 0 00-.612-.63 1.62 1.62 0 00-.855-.234h-2.07v3.501zM142.889 43V29.5h2.196V43h-2.196zm11.004-9h2.196v9h-2.196l-.099-1.116a2.95 2.95 0 01-.981.981c-.402.246-.879.369-1.431.369a4.66 4.66 0 01-1.872-.378 4.922 4.922 0 01-1.539-1.044 5 5 0 01-1.035-1.539 4.758 4.758 0 01-.369-1.872c0-.642.117-1.245.351-1.809a4.686 4.686 0 012.475-2.484 4.507 4.507 0 011.8-.36c.594 0 1.125.132 1.593.396.474.264.876.6 1.206 1.008L153.893 34zm-2.565 7.119c.468 0 .882-.117 1.242-.351.36-.234.642-.549.846-.945.204-.402.306-.843.306-1.323 0-.486-.102-.927-.306-1.323a2.394 2.394 0 00-.855-.954 2.212 2.212 0 00-1.233-.351c-.462 0-.885.12-1.269.36a2.641 2.641 0 00-.909.945 2.659 2.659 0 00-.333 1.323 2.641 2.641 0 001.251 2.268c.384.234.804.351 1.26.351zM163.565 34h2.331l-4.923 13.5h-2.331l1.629-4.5-3.24-9h2.403l1.935 5.994L163.565 34z" fill="#fff"/></svg>