<svg width="51" height="40" fill="none" xmlns="http://www.w3.org/2000/svg"><path d="M3.13 1.544c.002.306-.089.607-.26.862a1.562 1.562 0 01-.7.574 1.58 1.58 0 01-1.71-.33A1.545 1.545 0 01.12.959 1.54 1.54 0 01.695.262c.258-.17.56-.261.87-.261a1.572 1.572 0 011.107.45 1.542 1.542 0 01.459 1.093zm15.96 0c0 .306-.09.607-.261.862a1.562 1.562 0 01-.701.574 1.58 1.58 0 01-1.708-.331 1.536 1.536 0 01-.342-1.69c.117-.284.318-.526.576-.697a1.576 1.576 0 011.974.19c.294.29.46.682.461 1.092zm15.951 0c0 .305-.091.603-.262.857a1.573 1.573 0 01-2.398.234 1.539 1.539 0 01-.338-1.682c.118-.282.318-.523.574-.692a1.57 1.57 0 011.968.191c.292.29.456.682.456 1.092zm15.959 0c.001.308-.09.61-.264.866-.173.257-.42.457-.707.574a1.58 1.58 0 01-1.713-.35A1.544 1.544 0 0148 .93c.124-.282.331-.522.594-.688.263-.165.57-.25.881-.241.408.008.795.175 1.08.463.285.289.445.676.445 1.08zM3.13 13.848a1.54 1.54 0 01-.26.863 1.58 1.58 0 01-2.41.242 1.545 1.545 0 01-.341-1.69 1.573 1.573 0 011.446-.958 1.571 1.571 0 011.107.45 1.542 1.542 0 01.459 1.093zm15.96 0a1.54 1.54 0 01-.261.863 1.58 1.58 0 01-2.41.242 1.536 1.536 0 01.234-2.386 1.576 1.576 0 011.975.19c.294.289.46.681.461 1.091zm15.951 0c0 .305-.091.604-.262.857a1.555 1.555 0 01-.7.569 1.573 1.573 0 01-1.698-.335 1.539 1.539 0 01-.338-1.681c.118-.282.318-.523.574-.693a1.57 1.57 0 011.968.192c.292.29.456.682.456 1.091zm15.959 0c.001.307-.09.608-.261.864a1.561 1.561 0 01-.702.573 1.58 1.58 0 01-1.71-.334 1.544 1.544 0 01-.337-1.692 1.565 1.565 0 011.451-.954c.414 0 .81.162 1.102.452.293.29.457.682.457 1.091zM3.13 26.166c0 .306-.091.606-.263.86a1.562 1.562 0 01-.703.572 1.58 1.58 0 01-1.706-.336 1.545 1.545 0 01-.339-1.69 1.57 1.57 0 011.447-.955 1.571 1.571 0 011.108.451 1.542 1.542 0 01.457 1.098zm15.96 0c0 .306-.092.606-.264.86a1.562 1.562 0 01-.703.572 1.58 1.58 0 01-1.706-.336 1.545 1.545 0 01-.34-1.69c.12-.282.32-.524.577-.695a1.576 1.576 0 011.977.193c.293.29.458.685.458 1.096zm15.951 0a1.533 1.533 0 01-.266.855 1.56 1.56 0 01-.7.566 1.573 1.573 0 01-1.697-.34 1.538 1.538 0 01-.335-1.68 1.57 1.57 0 012.881.006c.078.188.118.39.117.593zm15.959 0c0 .308-.093.61-.267.865a1.58 1.58 0 01-2.42.216A1.544 1.544 0 0148 25.544a1.577 1.577 0 011.475-.928c.409.009.798.176 1.083.466.285.29.444.68.442 1.084zM3.13 38.464a1.54 1.54 0 01-.27.857c-.173.253-.419.45-.705.565a1.58 1.58 0 01-1.701-.345 1.545 1.545 0 01-.334-1.687c.12-.282.32-.524.577-.693a1.577 1.577 0 011.98.198 1.548 1.548 0 01.454 1.105zm15.96 0a1.54 1.54 0 01-.271.857c-.174.253-.419.45-.705.565a1.58 1.58 0 01-1.702-.345 1.545 1.545 0 01-.333-1.687c.119-.282.32-.524.577-.693a1.576 1.576 0 011.978.2 1.556 1.556 0 01.455 1.103zm15.951 0c-.004.304-.098.6-.272.851a1.573 1.573 0 01-2.395.212 1.538 1.538 0 01-.33-1.679c.12-.28.32-.52.575-.689a1.57 1.57 0 011.464-.137 1.567 1.567 0 01.844.846c.077.19.116.392.114.596zm15.959 0a1.54 1.54 0 01-.274.861 1.58 1.58 0 01-2.418.201 1.543 1.543 0 01-.306-1.7c.125-.282.332-.52.594-.685a1.578 1.578 0 011.965.232c.285.293.443.684.439 1.09z" opacity=".2" fill="#fff"/></svg>