<svg width="90" height="113" fill="none" xmlns="http://www.w3.org/2000/svg"><path d="M5.343 94.597c7.92 4.48 25.925-12.368 40.212-37.631C59.843 31.703 65.004 7.592 57.083 3.112 49.16-1.368 31.158 15.48 16.87 40.742 2.582 66.005-2.579 90.117 5.343 94.597z" stroke="#373C47" stroke-width="3" stroke-miterlimit="10"/><path d="M19.05 102.349c7.922 4.48 25.926-12.368 40.213-37.63 14.288-25.263 19.449-49.375 11.528-53.855-7.921-4.48-25.925 12.368-40.213 37.631C16.291 73.758 11.13 97.87 19.051 102.35z" stroke="#373C47" stroke-width="3" stroke-miterlimit="10"/><path d="M32.764 110.105c7.921 4.48 25.925-12.368 40.213-37.631C87.264 47.211 92.425 23.1 84.504 18.62c-7.921-4.48-25.925 12.368-40.213 37.63-14.287 25.264-19.448 49.375-11.527 53.855z" stroke="#373C47" stroke-width="3" stroke-miterlimit="10"/></svg>