<svg width="14" height="14" fill="none" xmlns="http://www.w3.org/2000/svg"><path d="M6.751 4.11a3.316 3.316 0 00-3.32 3.322 3.316 3.316 0 003.32 3.321 3.316 3.316 0 003.321-3.321 3.316 3.316 0 00-3.32-3.322zm0 5.481a2.163 2.163 0 01-2.158-2.16 2.16 2.16 0 012.158-2.158c1.191 0 2.16.968 2.16 2.159 0 1.19-.972 2.16-2.16 2.16zm4.231-5.616c0 .43-.346.774-.774.774a.775.775 0 11.774-.775zm2.2.786c-.05-1.038-.286-1.957-1.046-2.714-.758-.758-1.677-.995-2.714-1.047C8.352.94 5.147.94 4.078 1c-1.034.05-1.954.286-2.714 1.044C.604 2.8.37 3.72.318 4.758c-.06 1.07-.06 4.275 0 5.345.05 1.038.286 1.957 1.046 2.714.76.758 1.677.995 2.714 1.047 1.07.06 4.274.06 5.344 0 1.037-.05 1.956-.287 2.713-1.047.758-.757.995-1.676 1.047-2.714.06-1.07.06-4.273 0-5.342zM11.8 11.25a2.186 2.186 0 01-1.23 1.23c-.853.34-2.876.261-3.819.261-.942 0-2.968.075-3.817-.26a2.186 2.186 0 01-1.231-1.232c-.339-.852-.26-2.876-.26-3.818 0-.943-.076-2.969.26-3.819a2.186 2.186 0 011.23-1.231c.853-.338 2.876-.26 3.818-.26.943 0 2.968-.075 3.818.26A2.186 2.186 0 0111.8 3.613c.338.853.26 2.876.26 3.819 0 .942.078 2.969-.26 3.818z" fill="#9E9E9E"/></svg>