<svg width="12" height="15" fill="none" xmlns="http://www.w3.org/2000/svg"><path d="M6.737.09c-3 0-5.964 2.013-5.964 5.27 0 2.07 1.158 3.247 1.86 3.247.289 0 .455-.812.455-1.042 0-.273-.693-.856-.693-1.994 0-2.365 1.79-4.042 4.105-4.042 1.991 0 3.465 1.139 3.465 3.23 0 1.562-.623 4.492-2.64 4.492-.728 0-1.35-.53-1.35-1.288 0-1.112.771-2.189.771-3.336 0-1.948-2.745-1.595-2.745.759 0 .494.061 1.041.28 1.491-.403 1.747-1.228 4.35-1.228 6.151 0 .556.08 1.103.132 1.66.1.11.05.1.202.043 1.473-2.03 1.42-2.427 2.087-5.083.36.688 1.29 1.06 2.026 1.06 3.105 0 4.5-3.045 4.5-5.79C12 1.997 9.491.091 6.737.091z" fill="#9E9E9E"/></svg>