<svg width="16" height="13" fill="none" xmlns="http://www.w3.org/2000/svg"><path d="M14.082 3.616c.01.123.01.246.01.369 0 3.745-3.029 8.06-8.562 8.06a8.891 8.891 0 01-4.62-1.271c.241.026.474.035.726.035a6.268 6.268 0 003.735-1.21C4.05 9.571 2.94 8.755 2.558 7.632a3.394 3.394 0 001.36-.052C2.54 7.318 1.505 6.177 1.505 4.8v-.036c.4.21.867.342 1.36.36-.81-.509-1.341-1.377-1.341-2.36 0-.526.149-1.008.41-1.43C3.415 3.056 5.642 4.178 8.138 4.3a3.019 3.019 0 01-.074-.649c0-1.561 1.341-2.833 3.009-2.833.866 0 1.649.342 2.198.895a6.152 6.152 0 001.91-.684 2.863 2.863 0 01-1.323 1.56 6.33 6.33 0 001.733-.438 6.277 6.277 0 01-1.51 1.465z" fill="#9E9E9E"/></svg>