<svg width="118" height="42" viewBox="0 0 118 42" fill="none" xmlns="http://www.w3.org/2000/svg">
<g clip-path="url(#clip0_0_642)">
<path d="M3.24686 1.61949C3.24825 1.94153 3.15402 2.25674 2.97609 2.52518C2.79817 2.79362 2.54456 3.00323 2.2474 3.12743C1.95023 3.25164 1.62288 3.28486 1.30681 3.22289C0.990749 3.16092 0.700191 3.00654 0.471949 2.77932C0.243707 2.55209 0.088052 2.26225 0.0247018 1.9465C-0.0386484 1.63074 -0.00684278 1.3033 0.11609 1.00563C0.239022 0.707973 0.447549 0.453491 0.715255 0.274426C0.98296 0.0953624 1.2978 -0.000225812 1.61988 -0.00022883C1.83321 -0.00115621 2.04461 0.0400546 2.24197 0.121038C2.43932 0.202021 2.61873 0.321182 2.7699 0.471679C2.92108 0.622176 3.04103 0.801045 3.12288 0.998019C3.20473 1.19499 3.24686 1.40619 3.24686 1.61949Z" fill="#D5D5D5"/>
<path d="M19.8337 1.61947C19.835 1.94151 19.7408 2.25672 19.5629 2.52516C19.385 2.79361 19.1314 3.00321 18.8342 3.12742C18.537 3.25162 18.2097 3.28484 17.8936 3.22287C17.5775 3.1609 17.287 3.00653 17.0587 2.7793C16.8305 2.55208 16.6748 2.26223 16.6115 1.94648C16.5481 1.63073 16.58 1.30328 16.7029 1.00562C16.8258 0.707957 17.0343 0.453475 17.302 0.274411C17.5698 0.0953471 17.8846 -0.000241123 18.2067 -0.000244141C18.637 -0.000248172 19.0497 0.170175 19.3546 0.473731C19.6596 0.777286 19.8318 1.18925 19.8337 1.61947Z" fill="#D5D5D5"/>
<path d="M36.4133 1.61947C36.4133 1.93982 36.3183 2.25298 36.1403 2.51934C35.9623 2.7857 35.7093 2.99331 35.4133 3.1159C35.1173 3.23849 34.7916 3.27057 34.4774 3.20807C34.1631 3.14557 33.8745 2.99131 33.6479 2.76479C33.4214 2.53827 33.2671 2.24966 33.2046 1.93547C33.1421 1.62127 33.1742 1.2956 33.2968 0.999635C33.4194 0.70367 33.627 0.450705 33.8934 0.272728C34.1598 0.0947507 34.473 -0.000244141 34.7934 -0.000244141C35.223 -0.000244141 35.6351 0.170404 35.9389 0.47416C36.2427 0.777916 36.4133 1.1899 36.4133 1.61947Z" fill="#D5D5D5"/>
<path d="M53 1.61953C53.0013 1.94335 52.9059 2.26018 52.7261 2.52947C52.5462 2.79876 52.2901 3.00826 51.9904 3.13113C51.6908 3.254 51.3613 3.28466 51.0441 3.21919C50.7269 3.15372 50.4365 2.99509 50.2101 2.76361C49.9836 2.53214 49.8313 2.23835 49.7729 1.91985C49.7144 1.60136 49.7523 1.27266 49.8817 0.97583C50.0111 0.679001 50.2262 0.427553 50.4995 0.253677C50.7727 0.0798002 51.0916 -0.00859201 51.4153 -0.00018372C51.8388 0.00902375 52.2419 0.183728 52.5381 0.486492C52.8343 0.789256 53.0001 1.19599 53 1.61953Z" fill="#D5D5D5"/>
<path d="M3.24686 14.535C3.24825 14.8571 3.15402 15.1723 2.97609 15.4407C2.79817 15.7092 2.54456 15.9188 2.2474 16.043C1.95023 16.1672 1.62288 16.2004 1.30681 16.1384C0.990749 16.0764 0.700191 15.9221 0.471949 15.6948C0.243707 15.4676 0.088052 15.1778 0.0247018 14.862C-0.0386484 14.5463 -0.00684278 14.2188 0.11609 13.9212C0.239022 13.6235 0.447549 13.369 0.715255 13.19C0.98296 13.0109 1.2978 12.9153 1.61988 12.9153C1.83321 12.9144 2.04461 12.9556 2.24197 13.0366C2.43932 13.1175 2.61873 13.2367 2.7699 13.3872C2.92108 13.5377 3.04103 13.7166 3.12288 13.9135C3.20473 14.1105 3.24686 14.3217 3.24686 14.535Z" fill="#D5D5D5"/>
<path d="M19.8337 14.535C19.835 14.857 19.7408 15.1722 19.5629 15.4407C19.385 15.7091 19.1314 15.9187 18.8342 16.0429C18.537 16.1672 18.2097 16.2004 17.8936 16.1384C17.5775 16.0764 17.287 15.9221 17.0587 15.6948C16.8305 15.4676 16.6748 15.1778 16.6115 14.862C16.5481 14.5463 16.58 14.2188 16.7029 13.9211C16.8258 13.6235 17.0343 13.369 17.302 13.1899C17.5698 13.0109 17.8846 12.9153 18.2067 12.9153C18.637 12.9153 19.0497 13.0857 19.3546 13.3893C19.6596 13.6928 19.8318 14.1048 19.8337 14.535Z" fill="#D5D5D5"/>
<path d="M36.4133 14.535C36.4133 14.8554 36.3183 15.1685 36.1403 15.4349C35.9623 15.7012 35.7093 15.9088 35.4133 16.0314C35.1173 16.154 34.7916 16.1861 34.4774 16.1236C34.1631 16.0611 33.8745 15.9068 33.6479 15.6803C33.4214 15.4538 33.2671 15.1652 33.2046 14.851C33.1421 14.5368 33.1742 14.2111 33.2968 13.9152C33.4194 13.6192 33.627 13.3662 33.8934 13.1883C34.1598 13.0103 34.473 12.9153 34.7934 12.9153C35.223 12.9153 35.6351 13.0859 35.9389 13.3897C36.2427 13.6934 36.4133 14.1054 36.4133 14.535Z" fill="#D5D5D5"/>
<path d="M53 14.535C53.0014 14.8574 52.907 15.1728 52.7288 15.4414C52.5505 15.71 52.2965 15.9196 51.9989 16.0436C51.7014 16.1676 51.3736 16.2004 51.0574 16.1379C50.7411 16.0753 50.4506 15.9203 50.2226 15.6923C49.9947 15.4644 49.8396 15.1739 49.777 14.8577C49.7145 14.5415 49.7473 14.2138 49.8713 13.9163C49.9953 13.6187 50.2049 13.3647 50.4736 13.1865C50.7422 13.0083 51.0577 12.9139 51.3801 12.9153C51.8097 12.9153 52.2218 13.0859 52.5256 13.3897C52.8294 13.6935 53 14.1054 53 14.535Z" fill="#D5D5D5"/>
<path d="M3.24687 27.4644C3.24687 27.7862 3.15145 28.1007 2.97268 28.3682C2.7939 28.6357 2.53981 28.8442 2.24251 28.9674C1.94522 29.0905 1.61809 29.1227 1.30249 29.0599C0.986887 28.9972 0.696988 28.8422 0.469451 28.6147C0.241914 28.3872 0.0869598 28.0973 0.0241826 27.7818C-0.0385947 27.4662 -0.00637514 27.1391 0.116767 26.8419C0.239909 26.5446 0.448443 26.2906 0.715998 26.1118C0.983553 25.9331 1.29811 25.8377 1.6199 25.8377C1.83382 25.8367 2.0458 25.8782 2.24362 25.9596C2.44143 26.041 2.62116 26.1608 2.77242 26.3121C2.92369 26.4633 3.04349 26.643 3.12493 26.8408C3.20636 27.0386 3.24781 27.2505 3.24687 27.4644Z" fill="#D5D5D5"/>
<path d="M19.8337 27.4647C19.8337 27.7864 19.7382 28.1009 19.5595 28.3684C19.3807 28.636 19.1266 28.8445 18.8293 28.9676C18.532 29.0907 18.2049 29.1229 17.8893 29.0602C17.5737 28.9974 17.2838 28.8425 17.0562 28.6149C16.8287 28.3874 16.6738 28.0976 16.611 27.782C16.5482 27.4665 16.5804 27.1394 16.7036 26.8421C16.8267 26.5449 17.0352 26.2908 17.3028 26.112C17.5703 25.9333 17.8849 25.8379 18.2067 25.8379C18.6382 25.8379 19.052 26.0093 19.3571 26.3144C19.6623 26.6194 19.8337 27.0332 19.8337 27.4647Z" fill="#D5D5D5"/>
<path d="M36.4133 27.4647C36.4119 27.7847 36.3157 28.0972 36.1369 28.3626C35.958 28.628 35.7046 28.8345 35.4084 28.956C35.1123 29.0776 34.7868 29.1086 34.4731 29.0453C34.1593 28.9821 33.8713 28.8272 33.6454 28.6004C33.4196 28.3736 33.266 28.085 33.2041 27.771C33.1421 27.457 33.1746 27.1317 33.2974 26.8362C33.4203 26.5406 33.6279 26.288 33.8941 26.1104C34.1604 25.9327 34.4733 25.8379 34.7934 25.8379C35.0067 25.8379 35.2179 25.88 35.4149 25.9619C35.6119 26.0437 35.7908 26.1636 35.9413 26.3148C36.0919 26.4659 36.211 26.6453 36.292 26.8426C36.373 27.04 36.4142 27.2514 36.4133 27.4647Z" fill="#D5D5D5"/>
<path d="M53.0001 27.4645C52.9999 27.788 52.9034 28.1041 52.7226 28.3725C52.5419 28.6408 52.2853 28.8492 51.9855 28.971C51.6858 29.0928 51.3565 29.1225 51.0398 29.0562C50.7231 28.9899 50.4334 28.8307 50.2076 28.599C49.9818 28.3672 49.8303 28.0734 49.7724 27.7551C49.7145 27.4368 49.7528 27.1085 49.8824 26.8121C50.0121 26.5157 50.2272 26.2647 50.5002 26.0911C50.7733 25.9175 51.0919 25.8293 51.4153 25.8377C51.8401 25.8469 52.2442 26.0226 52.5406 26.3269C52.837 26.6312 53.002 27.0397 53.0001 27.4645Z" fill="#D5D5D5"/>
<path d="M3.24694 40.373C3.24415 40.6942 3.14638 41.0073 2.96592 41.2729C2.78546 41.5386 2.5304 41.7449 2.23288 41.8659C1.93535 41.9868 1.60867 42.0171 1.294 41.9527C0.979335 41.8884 0.690755 41.7323 0.464625 41.5043C0.238495 41.2762 0.0849338 40.9863 0.0232898 40.6712C-0.0383542 40.356 -0.00532258 40.0296 0.118223 39.7332C0.241768 39.4368 0.450299 39.1835 0.71754 39.0054C0.984781 38.8273 1.29878 38.7322 1.61996 38.7322C1.83481 38.7322 2.04753 38.7747 2.24585 38.8573C2.44416 38.94 2.62415 39.0611 2.77541 39.2136C2.92668 39.3662 3.04623 39.5472 3.12716 39.7462C3.20809 39.9452 3.2488 40.1582 3.24694 40.373Z" fill="#D5D5D5"/>
<path d="M19.8336 40.373C19.8308 40.6942 19.733 41.0073 19.5526 41.2729C19.3721 41.5386 19.1171 41.7449 18.8195 41.8659C18.522 41.9868 18.1953 42.0171 17.8807 41.9527C17.566 41.8884 17.2774 41.7323 17.0513 41.5043C16.8252 41.2762 16.6716 40.9863 16.61 40.6712C16.5483 40.356 16.5813 40.0296 16.7049 39.7332C16.8284 39.4368 17.037 39.1835 17.3042 39.0054C17.5714 38.8273 17.8854 38.7322 18.2066 38.7322C18.4212 38.7331 18.6335 38.7763 18.8314 38.8592C19.0293 38.9422 19.2089 39.0633 19.36 39.2157C19.5111 39.368 19.6307 39.5487 19.7119 39.7473C19.7932 39.9458 19.8345 40.1585 19.8336 40.373Z" fill="#D5D5D5"/>
<path d="M36.4133 40.373C36.4091 40.6924 36.3106 41.0035 36.1301 41.2671C35.9496 41.5306 35.6951 41.7349 35.3988 41.8543C35.1025 41.9737 34.7774 42.0027 34.4646 41.9379C34.1518 41.873 33.8651 41.7171 33.6407 41.4898C33.4162 41.2624 33.264 40.9738 33.2032 40.6602C33.1424 40.3466 33.1757 40.022 33.2989 39.7273C33.4221 39.4325 33.6297 39.1808 33.8956 39.0038C34.1615 38.8267 34.4739 38.7322 34.7934 38.7322C35.0076 38.7331 35.2196 38.7763 35.4171 38.8594C35.6146 38.9424 35.7938 39.0636 35.9443 39.2161C36.0948 39.3686 36.2137 39.5493 36.2942 39.7478C36.3747 39.9463 36.4152 40.1588 36.4133 40.373Z" fill="#D5D5D5"/>
<path d="M53 40.3731C52.9971 40.696 52.8981 41.0107 52.7157 41.2772C52.5333 41.5437 52.2757 41.7499 51.9757 41.8695C51.6758 41.9891 51.347 42.0167 51.0312 41.9489C50.7155 41.881 50.427 41.7208 50.2027 41.4885C49.9784 41.2562 49.8282 40.9624 49.7714 40.6445C49.7147 40.3266 49.7538 39.999 49.8838 39.7035C50.0138 39.4079 50.2289 39.1577 50.5016 38.9847C50.7744 38.8118 51.0924 38.7239 51.4153 38.7322C51.8418 38.7433 52.247 38.9215 52.5434 39.2284C52.8399 39.5353 53.0038 39.9464 53 40.3731Z" fill="#D5D5D5"/>
</g>
<g clip-path="url(#clip1_0_642)">
<path d="M68.2469 1.61949C68.2483 1.94153 68.154 2.25674 67.9761 2.52518C67.7982 2.79362 67.5446 3.00323 67.2474 3.12743C66.9502 3.25164 66.6229 3.28486 66.3068 3.22289C65.9907 3.16092 65.7002 3.00654 65.4719 2.77932C65.2437 2.55209 65.0881 2.26225 65.0247 1.9465C64.9614 1.63074 64.9932 1.3033 65.1161 1.00563C65.239 0.707973 65.4475 0.453491 65.7153 0.274426C65.983 0.0953624 66.2978 -0.000225812 66.6199 -0.00022883C66.8332 -0.00115621 67.0446 0.0400546 67.242 0.121038C67.4393 0.202021 67.6187 0.321182 67.7699 0.471679C67.9211 0.622176 68.041 0.801045 68.1229 0.998019C68.2047 1.19499 68.2469 1.40619 68.2469 1.61949Z" fill="#D5D5D5"/>
<path d="M84.8337 1.61947C84.835 1.94151 84.7408 2.25672 84.5629 2.52516C84.385 2.79361 84.1314 3.00321 83.8342 3.12742C83.537 3.25162 83.2097 3.28484 82.8936 3.22287C82.5775 3.1609 82.287 3.00653 82.0587 2.7793C81.8305 2.55208 81.6748 2.26223 81.6115 1.94648C81.5481 1.63073 81.58 1.30328 81.7029 1.00562C81.8258 0.707957 82.0343 0.453475 82.302 0.274411C82.5698 0.0953471 82.8846 -0.000241123 83.2067 -0.000244141C83.637 -0.000248172 84.0497 0.170175 84.3546 0.473731C84.6596 0.777286 84.8318 1.18925 84.8337 1.61947Z" fill="#D5D5D5"/>
<path d="M101.413 1.61947C101.413 1.93982 101.318 2.25298 101.14 2.51934C100.962 2.7857 100.709 2.99331 100.413 3.1159C100.117 3.23849 99.7916 3.27057 99.4774 3.20807C99.1631 3.14557 98.8745 2.99131 98.6479 2.76479C98.4214 2.53827 98.2671 2.24966 98.2046 1.93547C98.1421 1.62127 98.1742 1.2956 98.2968 0.999635C98.4194 0.70367 98.627 0.450705 98.8934 0.272728C99.1598 0.0947507 99.473 -0.000244141 99.7934 -0.000244141C100.223 -0.000244141 100.635 0.170404 100.939 0.47416C101.243 0.777916 101.413 1.1899 101.413 1.61947Z" fill="#D5D5D5"/>
<path d="M118 1.61953C118.001 1.94335 117.906 2.26018 117.726 2.52947C117.546 2.79876 117.29 3.00826 116.99 3.13113C116.691 3.254 116.361 3.28466 116.044 3.21919C115.727 3.15372 115.437 2.99509 115.21 2.76361C114.984 2.53214 114.831 2.23835 114.773 1.91985C114.714 1.60136 114.752 1.27266 114.882 0.97583C115.011 0.679001 115.226 0.427553 115.499 0.253677C115.773 0.0798002 116.092 -0.00859201 116.415 -0.00018372C116.839 0.00902375 117.242 0.183728 117.538 0.486492C117.834 0.789256 118 1.19599 118 1.61953Z" fill="#D5D5D5"/>
<path d="M68.2469 14.535C68.2483 14.8571 68.154 15.1723 67.9761 15.4407C67.7982 15.7092 67.5446 15.9188 67.2474 16.043C66.9502 16.1672 66.6229 16.2004 66.3068 16.1384C65.9907 16.0764 65.7002 15.9221 65.4719 15.6948C65.2437 15.4676 65.0881 15.1778 65.0247 14.862C64.9614 14.5463 64.9932 14.2188 65.1161 13.9212C65.239 13.6235 65.4475 13.369 65.7153 13.19C65.983 13.0109 66.2978 12.9153 66.6199 12.9153C66.8332 12.9144 67.0446 12.9556 67.242 13.0366C67.4393 13.1175 67.6187 13.2367 67.7699 13.3872C67.9211 13.5377 68.041 13.7166 68.1229 13.9135C68.2047 14.1105 68.2469 14.3217 68.2469 14.535Z" fill="#D5D5D5"/>
<path d="M84.8337 14.535C84.835 14.857 84.7408 15.1722 84.5629 15.4407C84.385 15.7091 84.1314 15.9187 83.8342 16.0429C83.537 16.1672 83.2097 16.2004 82.8936 16.1384C82.5775 16.0764 82.287 15.9221 82.0587 15.6948C81.8305 15.4676 81.6748 15.1778 81.6115 14.862C81.5481 14.5463 81.58 14.2188 81.7029 13.9211C81.8258 13.6235 82.0343 13.369 82.302 13.1899C82.5698 13.0109 82.8846 12.9153 83.2067 12.9153C83.637 12.9153 84.0497 13.0857 84.3546 13.3893C84.6596 13.6928 84.8318 14.1048 84.8337 14.535Z" fill="#D5D5D5"/>
<path d="M101.413 14.535C101.413 14.8554 101.318 15.1685 101.14 15.4349C100.962 15.7012 100.709 15.9088 100.413 16.0314C100.117 16.154 99.7916 16.1861 99.4774 16.1236C99.1631 16.0611 98.8745 15.9068 98.6479 15.6803C98.4214 15.4538 98.2671 15.1652 98.2046 14.851C98.1421 14.5368 98.1742 14.2111 98.2968 13.9152C98.4194 13.6192 98.627 13.3662 98.8934 13.1883C99.1598 13.0103 99.473 12.9153 99.7934 12.9153C100.223 12.9153 100.635 13.0859 100.939 13.3897C101.243 13.6934 101.413 14.1054 101.413 14.535Z" fill="#D5D5D5"/>
<path d="M118 14.535C118.001 14.8574 117.907 15.1728 117.729 15.4414C117.551 15.71 117.297 15.9196 116.999 16.0436C116.701 16.1676 116.374 16.2004 116.057 16.1379C115.741 16.0753 115.451 15.9203 115.223 15.6923C114.995 15.4644 114.84 15.1739 114.777 14.8577C114.714 14.5415 114.747 14.2138 114.871 13.9163C114.995 13.6187 115.205 13.3647 115.474 13.1865C115.742 13.0083 116.058 12.9139 116.38 12.9153C116.81 12.9153 117.222 13.0859 117.526 13.3897C117.829 13.6935 118 14.1054 118 14.535Z" fill="#D5D5D5"/>
<path d="M68.2469 27.4644C68.2469 27.7862 68.1515 28.1007 67.9727 28.3682C67.7939 28.6357 67.5398 28.8442 67.2425 28.9674C66.9452 29.0905 66.6181 29.1227 66.3025 29.0599C65.9869 28.9972 65.697 28.8422 65.4695 28.6147C65.2419 28.3872 65.087 28.0973 65.0242 27.7818C64.9614 27.4662 64.9936 27.1391 65.1168 26.8419C65.2399 26.5446 65.4484 26.2906 65.716 26.1118C65.9836 25.9331 66.2981 25.8377 66.6199 25.8377C66.8338 25.8367 67.0458 25.8782 67.2436 25.9596C67.4414 26.041 67.6212 26.1608 67.7724 26.3121C67.9237 26.4633 68.0435 26.643 68.1249 26.8408C68.2064 27.0386 68.2478 27.2505 68.2469 27.4644Z" fill="#D5D5D5"/>
<path d="M84.8337 27.4647C84.8337 27.7864 84.7382 28.1009 84.5595 28.3684C84.3807 28.636 84.1266 28.8445 83.8293 28.9676C83.532 29.0907 83.2049 29.1229 82.8893 29.0602C82.5737 28.9974 82.2838 28.8425 82.0562 28.6149C81.8287 28.3874 81.6738 28.0976 81.611 27.782C81.5482 27.4665 81.5804 27.1394 81.7036 26.8421C81.8267 26.5449 82.0352 26.2908 82.3028 26.112C82.5703 25.9333 82.8849 25.8379 83.2067 25.8379C83.6382 25.8379 84.052 26.0093 84.3571 26.3144C84.6623 26.6194 84.8337 27.0332 84.8337 27.4647Z" fill="#D5D5D5"/>
<path d="M101.413 27.4647C101.412 27.7847 101.316 28.0972 101.137 28.3626C100.958 28.628 100.705 28.8345 100.408 28.956C100.112 29.0776 99.7868 29.1086 99.4731 29.0453C99.1593 28.9821 98.8713 28.8272 98.6454 28.6004C98.4196 28.3736 98.266 28.085 98.2041 27.771C98.1421 27.457 98.1746 27.1317 98.2974 26.8362C98.4203 26.5406 98.6279 26.288 98.8941 26.1104C99.1604 25.9327 99.4733 25.8379 99.7934 25.8379C100.007 25.8379 100.218 25.88 100.415 25.9619C100.612 26.0437 100.791 26.1636 100.941 26.3148C101.092 26.4659 101.211 26.6453 101.292 26.8426C101.373 27.04 101.414 27.2514 101.413 27.4647Z" fill="#D5D5D5"/>
<path d="M118 27.4645C118 27.788 117.903 28.1041 117.723 28.3725C117.542 28.6408 117.285 28.8492 116.986 28.971C116.686 29.0928 116.357 29.1225 116.04 29.0562C115.723 28.9899 115.433 28.8307 115.208 28.599C114.982 28.3672 114.83 28.0734 114.772 27.7551C114.714 27.4368 114.753 27.1085 114.882 26.8121C115.012 26.5157 115.227 26.2647 115.5 26.0911C115.773 25.9175 116.092 25.8293 116.415 25.8377C116.84 25.8469 117.244 26.0226 117.541 26.3269C117.837 26.6312 118.002 27.0397 118 27.4645Z" fill="#D5D5D5"/>
<path d="M68.2469 40.373C68.2442 40.6942 68.1464 41.0073 67.9659 41.2729C67.7855 41.5386 67.5304 41.7449 67.2329 41.8659C66.9354 41.9868 66.6087 42.0171 66.294 41.9527C65.9793 41.8884 65.6908 41.7323 65.4646 41.5043C65.2385 41.2762 65.0849 40.9863 65.0233 40.6712C64.9616 40.356 64.9947 40.0296 65.1182 39.7332C65.2418 39.4368 65.4503 39.1835 65.7175 39.0054C65.9848 38.8273 66.2988 38.7322 66.62 38.7322C66.8348 38.7322 67.0475 38.7747 67.2458 38.8573C67.4442 38.94 67.6241 39.0611 67.7754 39.2136C67.9267 39.3662 68.0462 39.5472 68.1272 39.7462C68.2081 39.9452 68.2488 40.1582 68.2469 40.373Z" fill="#D5D5D5"/>
<path d="M84.8336 40.373C84.8308 40.6942 84.733 41.0073 84.5526 41.2729C84.3721 41.5386 84.1171 41.7449 83.8195 41.8659C83.522 41.9868 83.1953 42.0171 82.8807 41.9527C82.566 41.8884 82.2774 41.7323 82.0513 41.5043C81.8252 41.2762 81.6716 40.9863 81.61 40.6712C81.5483 40.356 81.5813 40.0296 81.7049 39.7332C81.8284 39.4368 82.037 39.1835 82.3042 39.0054C82.5714 38.8273 82.8854 38.7322 83.2066 38.7322C83.4212 38.7331 83.6335 38.7763 83.8314 38.8592C84.0293 38.9422 84.2089 39.0633 84.36 39.2157C84.5111 39.368 84.6307 39.5487 84.7119 39.7473C84.7932 39.9458 84.8345 40.1585 84.8336 40.373Z" fill="#D5D5D5"/>
<path d="M101.413 40.373C101.409 40.6924 101.311 41.0035 101.13 41.2671C100.95 41.5306 100.695 41.7349 100.399 41.8543C100.102 41.9737 99.7774 42.0027 99.4646 41.9379C99.1518 41.873 98.8651 41.7171 98.6407 41.4898C98.4162 41.2624 98.264 40.9738 98.2032 40.6602C98.1424 40.3466 98.1757 40.022 98.2989 39.7273C98.4221 39.4325 98.6297 39.1808 98.8956 39.0038C99.1615 38.8267 99.4739 38.7322 99.7934 38.7322C100.008 38.7331 100.22 38.7763 100.417 38.8594C100.615 38.9424 100.794 39.0636 100.944 39.2161C101.095 39.3686 101.214 39.5493 101.294 39.7478C101.375 39.9463 101.415 40.1588 101.413 40.373Z" fill="#D5D5D5"/>
<path d="M118 40.3731C117.997 40.696 117.898 41.0107 117.716 41.2772C117.533 41.5437 117.276 41.7499 116.976 41.8695C116.676 41.9891 116.347 42.0167 116.031 41.9489C115.715 41.881 115.427 41.7208 115.203 41.4885C114.978 41.2562 114.828 40.9624 114.771 40.6445C114.715 40.3266 114.754 39.999 114.884 39.7035C115.014 39.4079 115.229 39.1577 115.502 38.9847C115.774 38.8118 116.092 38.7239 116.415 38.7322C116.842 38.7433 117.247 38.9215 117.543 39.2284C117.84 39.5353 118.004 39.9464 118 40.3731Z" fill="#D5D5D5"/>
</g>
<defs>
<clipPath id="clip0_0_642">
<rect width="53" height="42" fill="white" transform="translate(0 -0.000244141)"/>
</clipPath>
<clipPath id="clip1_0_642">
<rect width="53" height="42" fill="white" transform="translate(65 -0.000244141)"/>
</clipPath>
</defs>
</svg>
