<svg width="56" height="51" viewBox="0 0 56 51" fill="none" xmlns="http://www.w3.org/2000/svg">
<path d="M38.4001 49V7.22222C38.4001 5.8372 37.8522 4.50891 36.877 3.52955C35.9018 2.5502 34.5792 2 33.2001 2H22.8001C21.4209 2 20.0983 2.5502 19.1231 3.52955C18.1479 4.50891 17.6001 5.8372 17.6001 7.22222V49M7.20006 12.4444H48.8001C51.6719 12.4444 54.0001 14.7825 54.0001 17.6667V43.7778C54.0001 46.6619 51.6719 49 48.8001 49H7.20006C4.32818 49 2.00006 46.6619 2.00006 43.7778V17.6667C2.00006 14.7825 4.32818 12.4444 7.20006 12.4444Z" stroke="white" stroke-width="3" stroke-linecap="round" stroke-linejoin="round"/>
</svg>
