<svg width="50" height="54" viewBox="0 0 50 54" fill="none" xmlns="http://www.w3.org/2000/svg">
<path d="M48.1956 8.99993C48.1956 13.2604 37.8342 16.7142 25.0528 16.7142C12.2713 16.7142 1.90991 13.2604 1.90991 8.99993M48.1956 8.99993C48.1956 4.73945 37.8342 1.28564 25.0528 1.28564C12.2713 1.28564 1.90991 4.73945 1.90991 8.99993M48.1956 8.99993V44.9999C48.1956 49.2685 37.9099 52.7142 25.0528 52.7142C12.1956 52.7142 1.90991 49.2685 1.90991 44.9999V8.99993M48.1956 26.9999C48.1956 31.2685 37.9099 34.7142 25.0528 34.7142C12.1956 34.7142 1.90991 31.2685 1.90991 26.9999" stroke="#004BFF" stroke-width="2.5" stroke-linecap="round" stroke-linejoin="round"/>
</svg>
