<svg width="45" height="48" viewBox="0 0 45 48" fill="none" xmlns="http://www.w3.org/2000/svg">
<path d="M42.7588 33.0018V14.9982C42.758 14.2089 42.5496 13.4337 42.1546 12.7503C41.7596 12.067 41.1919 11.4995 40.5083 11.1049L24.7551 2.10301C24.0709 1.70797 23.2947 1.5 22.5046 1.5C21.7146 1.5 20.9384 1.70797 20.2542 2.10301L4.50095 11.1049C3.8174 11.4995 3.24965 12.067 2.85465 12.7503C2.45965 13.4337 2.2513 14.2089 2.25049 14.9982V33.0018C2.2513 33.7911 2.45965 34.5663 2.85465 35.2497C3.24965 35.933 3.8174 36.5005 4.50095 36.8951L20.2542 45.897C20.9384 46.292 21.7146 46.5 22.5046 46.5C23.2947 46.5 24.0709 46.292 24.7551 45.897L40.5083 36.8951C41.1919 36.5005 41.7596 35.933 42.1546 35.2497C42.5496 34.5663 42.758 33.7911 42.7588 33.0018Z" stroke="#C5EC4F" stroke-width="2.7" stroke-linecap="round" stroke-linejoin="round"/>
</svg>
