<svg width="148" height="152" viewBox="0 0 148 152" fill="none" xmlns="http://www.w3.org/2000/svg">
<g filter="url(#filter0_d_0_759)">
<path d="M34.1403 66.548L58.9674 93.7037C60.7297 95.6315 63.0639 96.9236 65.6126 97.3822C68.1612 97.8409 70.7837 97.4407 73.0785 96.2431L102.42 80.9301C104.455 79.868 105.999 78.0418 106.722 75.8389L115.672 48.5884C116.216 46.9323 116.302 45.1548 115.921 43.4479C115.541 41.741 114.708 40.1697 113.512 38.9038L87.1708 11.0084C85.8925 9.65461 84.2218 8.74976 82.4039 8.42667C80.586 8.10357 78.7167 8.37926 77.0704 9.21324L48.3788 23.7485C46.1487 24.8783 44.1717 26.4584 42.5687 28.3924C40.9657 30.3264 39.7704 32.5735 39.056 34.9963L32.2149 58.1954C31.7909 59.6334 31.7455 61.1606 32.0832 62.6257C32.421 64.0908 33.1301 65.4429 34.1403 66.548Z" fill="#FFC107"/>
<path d="M115.911 43.4101L75.8444 62.7316L42.7435 28.1859C41.0531 30.1649 39.7965 32.4859 39.056 34.9967L32.2139 58.1949C31.7906 59.6331 31.7457 61.1602 32.0834 62.6252C32.4211 64.0902 33.1299 65.4424 34.1396 66.548L58.9665 93.703C60.7294 95.6296 63.0635 96.921 65.6118 97.3797C68.16 97.8383 70.7822 97.4389 73.0772 96.2426L102.42 80.9303C104.454 79.8678 105.997 78.0418 106.721 75.8393L115.671 48.589C116.22 46.9204 116.303 45.1283 115.911 43.4101Z" fill="#FFA000"/>
<path d="M75.8444 62.7316L65.1377 97.2842C62.7697 96.7597 60.615 95.5092 58.9665 93.703L34.1396 66.548C33.1299 65.4424 32.4211 64.0902 32.0834 62.6252C31.7457 61.1602 31.7906 59.6331 32.2139 58.1949L39.056 34.9967C39.7965 32.4859 41.0531 30.1649 42.7435 28.1859L75.8444 62.7316Z" fill="#FF8F00"/>
<path d="M90.4153 67.4767C90.5141 67.5743 90.6308 67.6511 90.7587 67.7029C90.8867 67.7546 91.0233 67.7802 91.1608 67.7781C91.2983 67.7761 91.4339 67.7465 91.5598 67.6909C91.6856 67.6354 91.7993 67.5551 91.8942 67.4547C91.989 67.3543 92.0633 67.2357 92.1125 67.1058C92.1618 66.9759 92.1852 66.8373 92.1813 66.6979C92.1773 66.5585 92.1462 66.4212 92.0898 66.2938C92.0333 66.1664 91.9525 66.0515 91.8521 65.9557L88.0826 62.2954C87.9838 62.1979 87.8671 62.121 87.7392 62.0693C87.6112 62.0175 87.4746 61.992 87.3371 61.994C87.1996 61.9961 87.064 62.0257 86.9381 62.0812C86.8122 62.1367 86.6986 62.217 86.6037 62.3174C86.5089 62.4179 86.4346 62.5365 86.3854 62.6664C86.3361 62.7963 86.3127 62.9349 86.3166 63.0742C86.3206 63.2136 86.3516 63.3509 86.4081 63.4783C86.4646 63.6057 86.5454 63.7206 86.6458 63.8164L90.4153 67.4767Z" fill="black"/>
<path d="M71.5335 47.6825C71.343 47.8842 71.2397 48.1547 71.2463 48.4346C71.253 48.7145 71.369 48.9808 71.5689 49.175L75.3385 52.8353C75.5389 53.0266 75.8054 53.1303 76.0799 53.1237C76.3544 53.1172 76.6147 53.001 76.8041 52.8005C76.9936 52.5999 77.0968 52.3313 77.0914 52.0529C77.086 51.7746 76.9724 51.5091 76.7753 51.3143L73.0057 47.654C72.8058 47.4599 72.5384 47.3538 72.2623 47.3592C71.9862 47.3645 71.724 47.4808 71.5335 47.6825Z" fill="black"/>
<path d="M97.9533 74.7971C98.1533 74.9912 98.4207 75.0973 98.6968 75.092C98.9729 75.0867 99.2351 74.9704 99.4256 74.7687C99.6162 74.567 99.7195 74.2964 99.7129 74.0165C99.7063 73.7366 99.5902 73.4702 99.3903 73.276L95.6207 69.6157C95.4208 69.4215 95.1534 69.3154 94.8773 69.3208C94.6011 69.3261 94.339 69.4424 94.1484 69.6441C93.9579 69.8458 93.8545 70.1164 93.8612 70.3963C93.8678 70.6762 93.9838 70.9426 94.1838 71.1367L97.9533 74.7971Z" fill="black"/>
<path d="M44.6696 52.1887L40.2263 54.9175C39.9931 55.0635 39.8268 55.2972 39.7634 55.5678C39.7 55.8384 39.7448 56.1239 39.888 56.3622C40.0312 56.6005 40.2611 56.7723 40.5278 56.8402C40.7945 56.908 41.0763 56.8665 41.3119 56.7246L45.7553 53.9958C45.9884 53.8498 46.1548 53.6161 46.2181 53.3455C46.2815 53.075 46.2367 52.7894 46.0936 52.5511C45.9504 52.3128 45.7204 52.141 45.4537 52.0732C45.187 52.0053 44.9052 52.0468 44.6696 52.1887Z" fill="black"/>
<path d="M53.5563 46.731L49.1131 49.4606C48.8799 49.6066 48.7136 49.8403 48.6502 50.1109C48.5868 50.3815 48.6316 50.667 48.7748 50.9053C48.918 51.1436 49.1479 51.3154 49.4146 51.3833C49.6813 51.4512 49.9631 51.4096 50.1987 51.2677L54.6421 48.5389C54.8778 48.3942 55.0466 48.1601 55.1115 47.8883C55.1763 47.6165 55.1319 47.3292 54.9879 47.0895C54.844 46.8499 54.6123 46.6775 54.3438 46.6104C54.0753 46.5433 53.7921 46.5869 53.5564 46.7317L53.5563 46.731Z" fill="black"/>
<path d="M68.5988 32.9933C68.7221 33.054 68.8558 33.0895 68.9924 33.0979C69.1289 33.1062 69.2657 33.0872 69.3947 33.042C69.5238 32.9967 69.6426 32.9261 69.7445 32.8341C69.8464 32.7421 69.9293 32.6306 69.9886 32.506L72.2437 27.7609C72.3633 27.5091 72.3792 27.219 72.2877 26.9544C72.1963 26.6897 72.005 26.4722 71.7561 26.3497C71.5071 26.2272 71.2209 26.2097 70.9603 26.3011C70.6997 26.3925 70.486 26.5852 70.3664 26.837L68.1113 31.5821C68.052 31.7067 68.0176 31.8421 68.0101 31.9805C68.0025 32.1189 68.0219 32.2576 68.0672 32.3886C68.1125 32.5197 68.1827 32.6405 68.2739 32.7443C68.3651 32.848 68.4755 32.9327 68.5988 32.9933Z" fill="black"/>
<path d="M73.1091 23.5017C73.2324 23.5624 73.3661 23.5979 73.5026 23.6062C73.6392 23.6146 73.7759 23.5956 73.905 23.5503C74.034 23.5051 74.1529 23.4344 74.2548 23.3425C74.3567 23.2505 74.4396 23.139 74.4988 23.0143L76.754 18.2692C76.8736 18.0174 76.8894 17.7273 76.7979 17.4627C76.7065 17.198 76.5152 16.9805 76.2663 16.858C76.0173 16.7355 75.731 16.718 75.4704 16.8094C75.2097 16.9008 74.9961 17.0936 74.8765 17.3454L72.6217 22.0904C72.5624 22.2151 72.528 22.3504 72.5205 22.4888C72.5129 22.6272 72.5323 22.7659 72.5775 22.8969C72.6228 23.028 72.693 23.1488 72.7842 23.2526C72.8754 23.3564 72.9858 23.441 73.1091 23.5017Z" fill="black"/>
<path d="M87.9213 10.2803C86.4928 8.75641 84.6199 7.7376 82.5806 7.37516C80.5414 7.01272 78.4444 7.32596 76.6011 8.26839L47.9098 22.8036C45.5562 24.0014 43.4694 25.6725 41.7761 27.7156C40.0828 29.7587 38.8182 32.1312 38.0591 34.6893L31.217 57.8886C30.7456 59.503 30.6969 61.2161 31.0758 62.8596C31.4547 64.5031 32.2482 66.0207 33.3782 67.2634L58.2052 94.419C60.1274 96.5091 62.6667 97.9099 65.4377 98.4085C68.2086 98.9072 71.0599 98.4766 73.5587 97.1821L102.899 81.8694C105.179 80.686 106.905 78.6423 107.71 76.1764L116.659 48.926C117.266 47.088 117.363 45.1141 116.941 43.2187C116.518 41.3233 115.592 39.579 114.262 38.1754L87.9213 10.2803ZM48.8477 24.6933L77.539 10.158C77.8436 10.0038 78.158 9.87027 78.4802 9.7583L77.1316 12.5988C77.012 12.8506 76.9962 13.1407 77.0876 13.4054C77.1791 13.67 77.3704 13.8875 77.6193 14.01C77.8683 14.1326 78.1546 14.15 78.4152 14.0586C78.6758 13.9672 78.8895 13.7745 79.0091 13.5227L80.9949 9.3439C82.0096 9.35338 83.0131 9.57015 83.9453 9.98126C84.8775 10.3924 85.7193 10.9894 86.4204 11.7366L112.76 39.6316C113.622 40.5448 114.275 41.6392 114.671 42.8362L83.5164 57.86L80.5445 54.9738C80.3446 54.7797 80.0772 54.6736 79.801 54.6789C79.5249 54.6842 79.2628 54.8005 79.0722 55.0022C78.8817 55.2039 78.7783 55.4745 78.785 55.7544C78.7916 56.0343 78.9076 56.3007 79.1076 56.4949L81.5097 58.8275L76.0676 61.4521L60.3394 45.0378L64.6633 42.4682L67.8002 45.5145C67.8992 45.6107 68.0158 45.6862 68.1434 45.7368C68.271 45.7874 68.407 45.8121 68.5437 45.8095C68.6804 45.8068 68.8152 45.7769 68.9402 45.7214C69.0653 45.666 69.1782 45.586 69.2725 45.4861C69.3669 45.3863 69.4408 45.2684 69.4901 45.1394C69.5394 45.0103 69.5631 44.8725 69.5598 44.7339C69.5565 44.5953 69.5263 44.4586 69.471 44.3316C69.4156 44.2045 69.3362 44.0896 69.2372 43.9935L66.0162 40.8656L67.7332 37.252C67.7948 37.1271 67.8312 36.9909 67.8403 36.8514C67.8495 36.7118 67.8311 36.5716 67.7864 36.4391C67.7417 36.3065 67.6714 36.1841 67.5797 36.0791C67.4881 35.974 67.3768 35.8884 67.2524 35.8271C67.128 35.7659 66.9929 35.7303 66.8551 35.7223C66.7172 35.7144 66.5794 35.7343 66.4495 35.7809C66.3195 35.8276 66.2002 35.8999 66.0984 35.9939C65.9965 36.0878 65.9142 36.2014 65.8563 36.3281L63.9104 40.3939L58.8481 43.4813L44.1796 28.1718C45.53 26.7528 47.1084 25.5767 48.8482 24.6932L48.8477 24.6933ZM59.7289 92.9882L34.9026 65.8326C33.8888 64.7194 33.2249 63.3261 32.9962 61.8316L36.8685 59.4536C36.9852 59.3819 37.0867 59.2876 37.1672 59.176C37.2478 59.0643 37.3058 58.9376 37.3379 58.803C37.37 58.6684 37.3756 58.5286 37.3544 58.3916C37.3332 58.2545 37.2856 58.1229 37.2143 58.0042C37.1431 57.8855 37.0495 57.7822 36.939 57.7C36.8284 57.6177 36.7031 57.5583 36.5702 57.5251C36.4373 57.4919 36.2993 57.4855 36.1642 57.5063C36.0291 57.5271 35.8995 57.5747 35.7828 57.6464L33.0187 59.3436C33.0674 59.0596 33.1323 58.7787 33.213 58.5025L40.054 35.3037C40.6443 33.308 41.5816 31.4367 42.8218 29.7779L74.6643 63.0116L64.4426 96.0007C62.6398 95.432 61.0141 94.393 59.7289 92.9882ZM114.683 48.2498L105.733 75.5006C105.426 76.4384 104.947 77.3083 104.321 78.0648L103.16 76.9369C103.061 76.8393 102.945 76.7625 102.817 76.7108C102.689 76.659 102.552 76.6334 102.414 76.6355C102.277 76.6375 102.141 76.6672 102.016 76.7227C101.89 76.7782 101.776 76.8585 101.681 76.9589C101.586 77.0594 101.512 77.1779 101.463 77.3078C101.413 77.4377 101.39 77.5764 101.394 77.7157C101.398 77.8551 101.429 77.9924 101.486 78.1198C101.542 78.2472 101.623 78.3621 101.723 78.4579L102.777 79.4818C102.509 79.6692 102.229 79.8393 101.939 79.9912L72.5974 95.3041C70.7201 96.282 68.5973 96.6757 66.4945 96.436L76.7032 63.489L115.092 44.9758C115.167 46.0849 115.028 47.1972 114.683 48.2502L114.683 48.2498Z" fill="black"/>
</g>
<defs>
<filter id="filter0_d_0_759" x="0.823486" y="0.228516" width="146.375" height="151.382" filterUnits="userSpaceOnUse" color-interpolation-filters="sRGB">
<feFlood flood-opacity="0" result="BackgroundImageFix"/>
<feColorMatrix in="SourceAlpha" type="matrix" values="0 0 0 0 0 0 0 0 0 0 0 0 0 0 0 0 0 0 127 0" result="hardAlpha"/>
<feOffset dy="23"/>
<feGaussianBlur stdDeviation="15"/>
<feComposite in2="hardAlpha" operator="out"/>
<feColorMatrix type="matrix" values="0 0 0 0 1 0 0 0 0 0.631373 0 0 0 0 0 0 0 0 0.42 0"/>
<feBlend mode="normal" in2="BackgroundImageFix" result="effect1_dropShadow_0_759"/>
<feBlend mode="normal" in="SourceGraphic" in2="effect1_dropShadow_0_759" result="shape"/>
</filter>
</defs>
</svg>
