<svg width="75" height="70" viewBox="0 0 75 70" fill="none" xmlns="http://www.w3.org/2000/svg">
<path d="M75 35C75 30.3655 67.9948 26.2976 57.4534 23.9978C67.9948 21.6966 75 17.6259 75 12.9942C75 5.81795 58.2107 0 37.5 0C16.7893 0 0 5.81795 0 12.9942C0 17.6259 7.00518 21.6966 17.5466 23.9978C7.00518 26.299 0 30.3655 0 35C0 39.6345 7.00518 43.7038 17.5466 46.0036C7.00518 48.3034 0 52.3713 0 57.0072C0 64.1835 16.7893 70 37.5 70C58.2107 70 75 64.1835 75 57.0072C75 52.3713 67.9948 48.3034 57.4534 46.0036C67.9948 43.7038 75 39.6359 75 35Z" fill="#007BFF"/>
</svg>
