<svg width="54" height="58" viewBox="0 0 54 58" fill="none" xmlns="http://www.w3.org/2000/svg">
<path d="M2.7373 15.203L26.9873 29.0366L51.2373 15.203M26.9873 56.6216V29.0092M51.9873 39.9665V18.0519C51.9863 17.0912 51.7291 16.1476 51.2416 15.3158C50.754 14.484 50.0532 13.7933 49.2095 13.3129L29.7651 2.35558C28.9205 1.87473 27.9625 1.62158 26.9873 1.62158C26.0121 1.62158 25.0541 1.87473 24.2095 2.35558L4.76508 13.3129C3.92137 13.7933 3.22058 14.484 2.73303 15.3158C2.24548 16.1476 1.9883 17.0912 1.9873 18.0519V39.9665C1.9883 40.9272 2.24548 41.8708 2.73303 42.7026C3.22058 43.5344 3.92137 44.2251 4.76508 44.7055L24.2095 55.6628C25.0541 56.1437 26.0121 56.3968 26.9873 56.3968C27.9625 56.3968 28.9205 56.1437 29.7651 55.6628L49.2095 44.7055C50.0532 44.2251 50.754 43.5344 51.2416 42.7026C51.7291 41.8708 51.9863 40.9272 51.9873 39.9665Z" stroke="#004BFF" stroke-width="2.40741" stroke-linecap="round" stroke-linejoin="round"/>
</svg>
