<svg width="155" height="146" viewBox="0 0 155 146" fill="none" xmlns="http://www.w3.org/2000/svg">
<g filter="url(#filter0_d_0_677)">
<path d="M97.0389 9.2917L86.7838 7.6676L73.5827 91.0235L83.8378 92.6476C102.059 95.5335 119.788 79.2126 123.434 56.1952C127.079 33.1779 115.26 12.1774 97.0389 9.2917Z" fill="url(#paint0_linear_0_677)"/>
<path d="M97.0389 9.2917L86.7838 7.6676L73.5827 91.0235L83.8378 92.6476C102.059 95.5335 119.788 79.2126 123.434 56.1952C127.079 33.1779 115.26 12.1774 97.0389 9.2917Z" fill="url(#paint1_linear_0_677)"/>
<path d="M73.5827 91.0235L83.8378 92.6476C102.059 95.5335 119.788 79.2126 123.434 56.1952C123.756 54.1573 123.956 52.1356 124.042 50.1405L81.1334 43.345L73.5827 91.0235Z" fill="url(#paint2_linear_0_677)"/>
<path d="M73.5827 91.0235C91.8054 93.9094 109.533 77.5892 113.178 54.5712C116.823 31.5533 105.006 10.5535 86.7838 7.6676C68.5612 4.78167 50.8334 21.1024 47.188 44.1204C43.5426 67.1383 55.3601 88.1375 73.5827 91.0235Z" fill="url(#paint3_linear_0_677)"/>
<path d="M80.8077 47.6751L47.4918 42.3988C47.3826 42.9686 47.2796 43.542 47.188 44.1204C43.5426 67.1383 55.3601 88.1375 73.5827 91.0235C84.5303 92.7572 95.2975 87.5567 102.942 78.1389L80.8077 47.6751Z" fill="url(#paint4_linear_0_677)"/>
<path d="M47.188 44.1204C43.5426 67.1383 55.3601 88.1375 73.5827 91.0235C91.8054 93.9094 109.533 77.5892 113.178 54.5712C113.31 53.7376 113.419 52.9068 113.511 52.0792L47.6412 41.6473C47.4727 42.4628 47.32 43.2868 47.188 44.1204Z" fill="url(#paint5_linear_0_677)"/>
<path d="M73.4678 45.7375L47.6412 41.6473C47.4727 42.4628 47.32 43.2868 47.188 44.1204C44.0309 64.0553 52.4733 82.4729 66.6282 88.9246L73.4678 45.7375Z" fill="url(#paint6_linear_0_677)"/>
<path d="M86.7838 7.6676C84.9311 7.37419 83.084 7.28286 81.2558 7.37339L68.2342 89.5955C69.945 90.2465 71.7302 90.7301 73.5827 91.0235C91.8054 93.9094 109.533 77.5892 113.178 54.5712C116.823 31.5533 105.006 10.5535 86.7838 7.6676Z" fill="url(#paint7_linear_0_677)"/>
<path d="M85.6054 15.1074C70.6364 12.7367 56.0726 26.1447 53.0781 45.053C50.0836 63.9612 59.7917 81.2132 74.7607 83.5838C89.7297 85.9545 104.294 72.5465 107.288 53.6382C110.283 34.73 100.575 17.478 85.6054 15.1074ZM75.845 76.7374C63.869 74.8407 56.1025 61.0383 58.4982 45.9113C60.8939 30.7844 72.5451 20.0572 84.5211 21.9538C96.4972 23.8505 104.264 37.6527 101.868 52.7798C99.4722 67.907 87.8211 78.634 75.845 76.7374Z" fill="url(#paint8_linear_0_677)"/>
<path d="M83.3448 29.3817C74.6154 27.9992 66.1252 35.8169 64.379 46.8427C62.6329 57.8686 68.2921 67.927 77.0214 69.3095C85.7507 70.6919 94.2411 62.8744 95.9873 51.8485C97.7334 40.8227 92.0741 30.7642 83.3448 29.3817ZM78.2886 61.308C73.0577 60.4796 69.666 54.4522 70.7123 47.8457C71.7585 41.2392 76.8465 36.5548 82.0776 37.3832C87.3086 38.2117 90.7002 44.239 89.6539 50.8455C88.6076 57.452 83.5197 62.1364 78.2886 61.308Z" fill="url(#paint9_linear_0_677)"/>
<path d="M87.3785 56.718C85.1721 59.978 81.7618 61.858 78.2886 61.308C73.0577 60.4796 69.666 54.4522 70.7123 47.8457C70.8053 47.2583 70.9309 46.6869 71.0839 46.1344L64.7125 45.1254C64.5815 45.6886 64.4712 46.2606 64.379 46.8427C62.6328 57.8693 68.2931 67.9272 77.0214 69.3095C82.5089 70.1785 87.9004 67.4142 91.5802 62.501L87.3785 56.718Z" fill="url(#paint10_linear_0_677)"/>
<path d="M95.4695 67.8561C90.429 74.3077 83.1978 77.9018 75.845 76.7374C63.869 74.8407 56.1025 61.0383 58.4982 45.9113C58.5901 45.331 58.6961 44.7583 58.815 44.1914L53.386 43.3316C53.2724 43.8994 53.1697 44.4744 53.0781 45.053C50.0836 63.9612 59.7917 81.2132 74.7607 83.5838C83.8368 85.0212 92.7615 80.6588 99.0529 72.7881L95.4695 67.8561Z" fill="url(#paint11_linear_0_677)"/>
<path d="M65.1448 46.964L42.4138 43.3641L35.0218 28.2487C34.4294 27.0378 35.4481 25.6601 36.7792 25.8709L37.7659 26.0271C38.7296 26.1798 39.5588 26.7914 39.9856 27.6685L41.6858 31.1433L41.3047 28.0011C41.217 27.2796 41.8443 26.673 42.5631 26.7869L46.4874 27.4084C46.6755 27.4382 46.8456 27.5375 46.9638 27.6868L47.447 28.2966C47.6557 28.56 48.0125 28.6549 48.3245 28.53C48.574 28.4301 48.8578 28.4696 49.0707 28.6338L49.8795 29.2578C50.1972 29.503 50.6399 29.5039 50.9587 29.2601C51.814 28.6056 52.9591 28.479 53.9412 28.921C55.8917 29.7992 57.5032 31.3363 58.4648 33.3038L65.1448 46.964Z" fill="url(#paint12_linear_0_677)"/>
<path d="M42.4138 43.3641L65.1448 46.964L59.9196 36.2793L37.1885 32.6794L42.4138 43.3641Z" fill="url(#paint13_linear_0_677)"/>
<path d="M58.4648 33.3038C57.5032 31.3363 55.8917 29.7992 53.9412 28.921C52.9591 28.479 51.814 28.6056 50.9587 29.2601C50.6399 29.5039 50.1972 29.503 49.8795 29.2578L49.0707 28.6338C48.8578 28.4696 48.574 28.4301 48.3245 28.53C48.0125 28.6549 47.6557 28.56 47.447 28.2966L46.9638 27.6868C46.8456 27.5375 46.6755 27.4382 46.4874 27.4084L42.5631 26.7869C41.8443 26.673 41.217 27.2796 41.3047 28.0011L41.6779 31.079L48.1281 44.269L65.1448 46.964L58.4648 33.3038Z" fill="url(#paint14_linear_0_677)"/>
<path d="M58.4648 33.3038C57.5032 31.3363 55.8917 29.7992 53.9412 28.921C52.9591 28.479 51.814 28.6056 50.9587 29.2601C50.6399 29.5039 50.1972 29.503 49.8795 29.2578L49.0707 28.6338C48.8578 28.4696 48.574 28.4301 48.3245 28.53C48.0125 28.6549 47.6557 28.56 47.447 28.2966L46.9638 27.6868C46.8456 27.5375 46.6755 27.4382 46.4874 27.4084L42.5631 26.7869C42.3031 26.7457 42.0556 26.7998 41.8491 26.9185C42.0025 26.9593 42.154 27.0114 42.3016 27.0778C44.2521 27.956 45.8636 29.4931 46.8252 31.4606L53.5053 45.1206L65.1448 46.964L58.4648 33.3038Z" fill="url(#paint15_linear_0_677)"/>
<path d="M58.4648 33.3038C57.5032 31.3363 55.8917 29.7992 53.9412 28.921C52.9591 28.479 51.814 28.6056 50.9587 29.2601C50.6399 29.5039 50.1972 29.503 49.8795 29.2578L49.0707 28.6338C48.8578 28.4696 48.574 28.4301 48.3245 28.53C48.1162 28.6133 47.8889 28.5967 47.6982 28.4996C49.0116 29.3936 50.0923 30.6225 50.8104 32.0917L57.4905 45.7518L65.1448 46.964L58.4648 33.3038Z" fill="url(#paint16_linear_0_677)"/>
<path d="M58.4648 33.3038C57.5032 31.3363 55.8917 29.7992 53.9412 28.921C52.9591 28.479 51.814 28.6056 50.9587 29.2601C50.6399 29.5039 50.1972 29.503 49.8795 29.2578L49.0707 28.6338C48.8578 28.4696 48.574 28.4301 48.3245 28.53C48.1162 28.6133 47.8889 28.5967 47.6982 28.4996C49.0116 29.3936 50.0923 30.6225 50.8104 32.0917L57.4905 45.7518L65.1448 46.964L58.4648 33.3038Z" fill="url(#paint17_linear_0_677)"/>
<path d="M65.1448 46.964L42.4138 43.3641L30.713 55.4557C29.7755 56.4242 30.3186 58.0494 31.6496 58.2602L32.6364 58.4164C33.6001 58.5691 34.5777 58.2436 35.2547 57.5412L37.9453 54.7618L36.612 57.6325C36.3056 58.2917 36.7148 59.0623 37.4336 59.1762L41.3579 59.7977C41.546 59.8275 41.7384 59.7855 41.897 59.68L42.545 59.2494C42.8248 59.0634 43.1935 59.0834 43.4516 59.2986C43.6581 59.4706 43.9402 59.5208 44.1934 59.4304L45.1554 59.0868C45.5334 58.9519 45.9547 59.0877 46.1825 59.4181C46.7938 60.3049 47.8437 60.7792 48.9143 60.6622C51.0408 60.4297 53.0483 59.4658 54.5708 57.8916L65.1448 46.964Z" fill="url(#paint18_linear_0_677)"/>
<path d="M35.8849 50.1107L30.713 55.4557C29.7755 56.4242 30.3186 58.0494 31.6496 58.2602L32.6364 58.4164C33.6001 58.5691 34.5777 58.2436 35.2547 57.5412L37.9453 54.7618L36.612 57.6325C36.3056 58.2917 36.7148 59.0623 37.4336 59.1762L41.3579 59.7977C41.546 59.8275 41.7384 59.7855 41.897 59.68L42.545 59.2494C42.8248 59.0634 43.1935 59.0834 43.4516 59.2986C43.6581 59.4706 43.9402 59.5208 44.1934 59.4304L45.1554 59.0868C45.5334 58.9519 45.9547 59.0877 46.1825 59.4181C46.7938 60.3049 47.8437 60.7792 48.9143 60.6622C51.0408 60.4297 53.0483 59.4658 54.5708 57.8916L58.6162 53.7109L35.8849 50.1107Z" fill="url(#paint19_linear_0_677)"/>
<path d="M54.5708 57.8916C53.0483 59.4658 51.0408 60.4297 48.9143 60.6622C47.8437 60.7792 46.7938 60.3049 46.1825 59.4181C45.9547 59.0877 45.5334 58.9519 45.1554 59.0868L44.1934 59.4304C43.9402 59.5208 43.6581 59.4706 43.4516 59.2986C43.1935 59.0834 42.8248 59.0634 42.545 59.2494L41.897 59.68C41.7384 59.7855 41.546 59.8275 41.3579 59.7977L37.4336 59.1762C36.7148 59.0623 36.3056 58.2917 36.612 57.6325L37.918 54.8206L48.1281 44.269L65.1448 46.964L54.5708 57.8916Z" fill="url(#paint20_linear_0_677)"/>
<path d="M54.5708 57.8916C53.0483 59.4658 51.0408 60.4297 48.9143 60.6622C47.8437 60.7792 46.7938 60.3049 46.1825 59.4181C45.9547 59.0877 45.5334 58.9519 45.1554 59.0868L44.1934 59.4304C43.9402 59.5208 43.6581 59.4706 43.4516 59.2986C43.1935 59.0834 42.8248 59.0634 42.545 59.2494L41.897 59.68C41.7384 59.7855 41.546 59.8275 41.3579 59.7977L37.4336 59.1762C37.1736 59.135 36.955 59.007 36.7952 58.8304C36.9538 58.8389 37.1139 58.8363 37.2748 58.8186C39.4012 58.5862 41.4088 57.6222 42.9312 56.0481L53.5053 45.1206L65.1448 46.964L54.5708 57.8916Z" fill="url(#paint21_linear_0_677)"/>
<path d="M54.5708 57.8916C53.0483 59.4658 51.0408 60.4297 48.9143 60.6622C47.8437 60.7792 46.7938 60.3049 46.1825 59.4181C45.9547 59.0877 45.5334 58.9519 45.1554 59.0868L44.1934 59.4304C43.9402 59.5208 43.6581 59.4706 43.4516 59.2986C43.2793 59.155 43.058 59.1005 42.8466 59.134C44.372 58.6895 45.7795 57.8547 46.9164 56.6792L57.4905 45.7518L65.1448 46.964L54.5708 57.8916Z" fill="url(#paint22_linear_0_677)"/>
<path d="M54.5708 57.8916C53.0483 59.4658 51.0408 60.4297 48.9143 60.6622C47.8437 60.7792 46.7938 60.3049 46.1825 59.4181C45.9547 59.0877 45.5334 58.9519 45.1554 59.0868L44.1934 59.4304C43.9402 59.5208 43.6581 59.4706 43.4516 59.2986C43.2793 59.155 43.058 59.1005 42.8466 59.134C44.372 58.6895 45.7795 57.8547 46.9164 56.6792L57.4905 45.7518L65.1448 46.964L54.5708 57.8916Z" fill="url(#paint23_linear_0_677)"/>
<path d="M81.2199 49.5098L81.2158 49.5354C80.9998 50.8927 79.7247 51.8182 78.3672 51.6032L34.6558 44.6806C33.2847 44.4634 32.349 43.1758 32.5662 41.8045C32.7833 40.4333 34.0711 39.4977 35.4423 39.7148L79.1538 46.6374C80.5113 46.8524 81.4378 48.1266 81.2241 49.4843L81.2199 49.5098Z" fill="url(#paint24_linear_0_677)"/>
</g>
<defs>
<filter id="filter0_d_0_677" x="0.24292" y="0.336914" width="153.851" height="145.641" filterUnits="userSpaceOnUse" color-interpolation-filters="sRGB">
<feFlood flood-opacity="0" result="BackgroundImageFix"/>
<feColorMatrix in="SourceAlpha" type="matrix" values="0 0 0 0 0 0 0 0 0 0 0 0 0 0 0 0 0 0 127 0" result="hardAlpha"/>
<feOffset dy="23"/>
<feGaussianBlur stdDeviation="15"/>
<feComposite in2="hardAlpha" operator="out"/>
<feColorMatrix type="matrix" values="0 0 0 0 0.931657 0 0 0 0 0.274721 0 0 0 0 0.516423 0 0 0 0.27 0"/>
<feBlend mode="normal" in2="BackgroundImageFix" result="effect1_dropShadow_0_677"/>
<feBlend mode="normal" in="SourceGraphic" in2="effect1_dropShadow_0_677" result="shape"/>
</filter>
<linearGradient id="paint0_linear_0_677" x1="84.0762" y1="10.6323" x2="71.2122" y2="91.8599" gradientUnits="userSpaceOnUse">
<stop stop-color="#FFA1AE"/>
<stop offset="1" stop-color="#FF4565"/>
</linearGradient>
<linearGradient id="paint1_linear_0_677" x1="76.8064" y1="54.9048" x2="100.025" y2="84.1869" gradientUnits="userSpaceOnUse">
<stop stop-color="#FE0364" stop-opacity="0"/>
<stop offset="0.2343" stop-color="#F90362" stop-opacity="0.234"/>
<stop offset="0.5173" stop-color="#EA035B" stop-opacity="0.517"/>
<stop offset="0.8243" stop-color="#D20250" stop-opacity="0.824"/>
<stop offset="1" stop-color="#C00148"/>
</linearGradient>
<linearGradient id="paint2_linear_0_677" x1="82.2979" y1="21.8621" x2="72.0942" y2="86.2916" gradientUnits="userSpaceOnUse">
<stop stop-color="#FE0364" stop-opacity="0"/>
<stop offset="0.2343" stop-color="#F90362" stop-opacity="0.234"/>
<stop offset="0.5173" stop-color="#EA035B" stop-opacity="0.517"/>
<stop offset="0.8243" stop-color="#D20250" stop-opacity="0.824"/>
<stop offset="1" stop-color="#C00148"/>
</linearGradient>
<linearGradient id="paint3_linear_0_677" x1="47.3403" y1="30.0837" x2="98.2962" y2="85.4653" gradientUnits="userSpaceOnUse">
<stop stop-color="#FFA1AE"/>
<stop offset="1" stop-color="#FF4565"/>
</linearGradient>
<linearGradient id="paint4_linear_0_677" x1="79.1435" y1="41.1446" x2="72.7032" y2="9.9535" gradientUnits="userSpaceOnUse">
<stop stop-color="#FE0364" stop-opacity="0"/>
<stop offset="0.2343" stop-color="#F90362" stop-opacity="0.234"/>
<stop offset="0.5173" stop-color="#EA035B" stop-opacity="0.517"/>
<stop offset="0.8243" stop-color="#D20250" stop-opacity="0.824"/>
<stop offset="1" stop-color="#C00148"/>
</linearGradient>
<linearGradient id="paint5_linear_0_677" x1="77.6152" y1="51.4294" x2="70.4882" y2="96.4313" gradientUnits="userSpaceOnUse">
<stop stop-color="#FE0364" stop-opacity="0"/>
<stop offset="0.2343" stop-color="#F90362" stop-opacity="0.234"/>
<stop offset="0.5173" stop-color="#EA035B" stop-opacity="0.517"/>
<stop offset="0.8243" stop-color="#D20250" stop-opacity="0.824"/>
<stop offset="1" stop-color="#C00148"/>
</linearGradient>
<linearGradient id="paint6_linear_0_677" x1="91.9294" y1="38.0934" x2="85.3687" y2="21.7595" gradientUnits="userSpaceOnUse">
<stop stop-color="#FE0364" stop-opacity="0"/>
<stop offset="0.2343" stop-color="#F90362" stop-opacity="0.234"/>
<stop offset="0.5173" stop-color="#EA035B" stop-opacity="0.517"/>
<stop offset="0.8243" stop-color="#D20250" stop-opacity="0.824"/>
<stop offset="1" stop-color="#C00148"/>
</linearGradient>
<linearGradient id="paint7_linear_0_677" x1="72.4401" y1="56.2593" x2="81.9071" y2="86.635" gradientUnits="userSpaceOnUse">
<stop stop-color="#FE0364" stop-opacity="0"/>
<stop offset="0.2343" stop-color="#F90362" stop-opacity="0.234"/>
<stop offset="0.5173" stop-color="#EA035B" stop-opacity="0.517"/>
<stop offset="0.8243" stop-color="#D20250" stop-opacity="0.824"/>
<stop offset="1" stop-color="#C00148"/>
</linearGradient>
<linearGradient id="paint8_linear_0_677" x1="47.3402" y1="30.084" x2="98.2951" y2="85.4652" gradientUnits="userSpaceOnUse">
<stop stop-color="#F5FBFF"/>
<stop offset="1" stop-color="#DBD5EF"/>
</linearGradient>
<linearGradient id="paint9_linear_0_677" x1="47.3391" y1="30.0837" x2="98.2945" y2="85.467" gradientUnits="userSpaceOnUse">
<stop stop-color="#F5FBFF"/>
<stop offset="1" stop-color="#DBD5EF"/>
</linearGradient>
<linearGradient id="paint10_linear_0_677" x1="78.8303" y1="41.5213" x2="71.0497" y2="7.32421" gradientUnits="userSpaceOnUse">
<stop stop-color="#DBD5EF" stop-opacity="0"/>
<stop offset="0.2853" stop-color="#D9D2EE" stop-opacity="0.285"/>
<stop offset="0.4739" stop-color="#D4C9E9" stop-opacity="0.474"/>
<stop offset="0.6346" stop-color="#CBBAE2" stop-opacity="0.635"/>
<stop offset="0.7795" stop-color="#BFA5D7" stop-opacity="0.78"/>
<stop offset="0.9126" stop-color="#AF8ACA" stop-opacity="0.913"/>
<stop offset="1" stop-color="#A274BF"/>
</linearGradient>
<linearGradient id="paint11_linear_0_677" x1="61.101" y1="33.1154" x2="50.1476" y2="23.3404" gradientUnits="userSpaceOnUse">
<stop stop-color="#DBD5EF" stop-opacity="0"/>
<stop offset="0.2853" stop-color="#D9D2EE" stop-opacity="0.285"/>
<stop offset="0.4739" stop-color="#D4C9E9" stop-opacity="0.474"/>
<stop offset="0.6346" stop-color="#CBBAE2" stop-opacity="0.635"/>
<stop offset="0.7795" stop-color="#BFA5D7" stop-opacity="0.78"/>
<stop offset="0.9126" stop-color="#AF8ACA" stop-opacity="0.913"/>
<stop offset="1" stop-color="#A274BF"/>
</linearGradient>
<linearGradient id="paint12_linear_0_677" x1="82.9933" y1="17.4679" x2="74.8584" y2="68.8343" gradientUnits="userSpaceOnUse">
<stop stop-color="#B3DAFE"/>
<stop offset="1" stop-color="#0182FC"/>
</linearGradient>
<linearGradient id="paint13_linear_0_677" x1="79.0422" y1="42.4167" x2="72.9609" y2="80.8162" gradientUnits="userSpaceOnUse">
<stop stop-color="#314DC9" stop-opacity="0"/>
<stop offset="0.2761" stop-color="#304BC4" stop-opacity="0.276"/>
<stop offset="0.5628" stop-color="#2B45B8" stop-opacity="0.563"/>
<stop offset="0.8535" stop-color="#243BA3" stop-opacity="0.854"/>
<stop offset="1" stop-color="#1F3596"/>
</linearGradient>
<linearGradient id="paint14_linear_0_677" x1="67.0412" y1="61.2672" x2="45.4656" y2="70.389" gradientUnits="userSpaceOnUse">
<stop stop-color="#314DC9" stop-opacity="0"/>
<stop offset="0.2761" stop-color="#304BC4" stop-opacity="0.276"/>
<stop offset="0.5628" stop-color="#2B45B8" stop-opacity="0.563"/>
<stop offset="0.8535" stop-color="#243BA3" stop-opacity="0.854"/>
<stop offset="1" stop-color="#1F3596"/>
</linearGradient>
<linearGradient id="paint15_linear_0_677" x1="75.6446" y1="52.7394" x2="53.4714" y2="67.5411" gradientUnits="userSpaceOnUse">
<stop stop-color="#314DC9" stop-opacity="0"/>
<stop offset="0.2761" stop-color="#304BC4" stop-opacity="0.276"/>
<stop offset="0.5628" stop-color="#2B45B8" stop-opacity="0.563"/>
<stop offset="0.8535" stop-color="#243BA3" stop-opacity="0.854"/>
<stop offset="1" stop-color="#1F3596"/>
</linearGradient>
<linearGradient id="paint16_linear_0_677" x1="69.5303" y1="53.0079" x2="38.9182" y2="58.6306" gradientUnits="userSpaceOnUse">
<stop stop-color="#314DC9" stop-opacity="0"/>
<stop offset="0.2761" stop-color="#304BC4" stop-opacity="0.276"/>
<stop offset="0.5628" stop-color="#2B45B8" stop-opacity="0.563"/>
<stop offset="0.8535" stop-color="#243BA3" stop-opacity="0.854"/>
<stop offset="1" stop-color="#1F3596"/>
</linearGradient>
<linearGradient id="paint17_linear_0_677" x1="79.9398" y1="49.7699" x2="96.7181" y2="44.7384" gradientUnits="userSpaceOnUse">
<stop stop-color="#314DC9" stop-opacity="0"/>
<stop offset="0.2761" stop-color="#304BC4" stop-opacity="0.276"/>
<stop offset="0.5628" stop-color="#2B45B8" stop-opacity="0.563"/>
<stop offset="0.8535" stop-color="#243BA3" stop-opacity="0.854"/>
<stop offset="1" stop-color="#1F3596"/>
</linearGradient>
<linearGradient id="paint18_linear_0_677" x1="73.1176" y1="15.2709" x2="104.832" y2="52.5535" gradientUnits="userSpaceOnUse">
<stop stop-color="#B3DAFE"/>
<stop offset="1" stop-color="#0182FC"/>
</linearGradient>
<linearGradient id="paint19_linear_0_677" x1="78.0976" y1="48.3825" x2="70.5939" y2="95.7634" gradientUnits="userSpaceOnUse">
<stop stop-color="#314DC9" stop-opacity="0"/>
<stop offset="0.2761" stop-color="#304BC4" stop-opacity="0.276"/>
<stop offset="0.5628" stop-color="#2B45B8" stop-opacity="0.563"/>
<stop offset="0.8535" stop-color="#243BA3" stop-opacity="0.854"/>
<stop offset="1" stop-color="#1F3596"/>
</linearGradient>
<linearGradient id="paint20_linear_0_677" x1="71.368" y1="33.9465" x2="53.6668" y2="18.6044" gradientUnits="userSpaceOnUse">
<stop stop-color="#314DC9" stop-opacity="0"/>
<stop offset="0.2761" stop-color="#304BC4" stop-opacity="0.276"/>
<stop offset="0.5628" stop-color="#2B45B8" stop-opacity="0.563"/>
<stop offset="0.8535" stop-color="#243BA3" stop-opacity="0.854"/>
<stop offset="1" stop-color="#1F3596"/>
</linearGradient>
<linearGradient id="paint21_linear_0_677" x1="76.9154" y1="44.7153" x2="60.4009" y2="23.7876" gradientUnits="userSpaceOnUse">
<stop stop-color="#314DC9" stop-opacity="0"/>
<stop offset="0.2761" stop-color="#304BC4" stop-opacity="0.276"/>
<stop offset="0.5628" stop-color="#2B45B8" stop-opacity="0.563"/>
<stop offset="0.8535" stop-color="#243BA3" stop-opacity="0.854"/>
<stop offset="1" stop-color="#1F3596"/>
</linearGradient>
<linearGradient id="paint22_linear_0_677" x1="71.1832" y1="42.5707" x2="43.8065" y2="27.7643" gradientUnits="userSpaceOnUse">
<stop stop-color="#314DC9" stop-opacity="0"/>
<stop offset="0.2761" stop-color="#304BC4" stop-opacity="0.276"/>
<stop offset="0.5628" stop-color="#2B45B8" stop-opacity="0.563"/>
<stop offset="0.8535" stop-color="#243BA3" stop-opacity="0.854"/>
<stop offset="1" stop-color="#1F3596"/>
</linearGradient>
<linearGradient id="paint23_linear_0_677" x1="80.0827" y1="48.8676" x2="94.4852" y2="58.8364" gradientUnits="userSpaceOnUse">
<stop stop-color="#314DC9" stop-opacity="0"/>
<stop offset="0.2761" stop-color="#304BC4" stop-opacity="0.276"/>
<stop offset="0.5628" stop-color="#2B45B8" stop-opacity="0.563"/>
<stop offset="0.8535" stop-color="#243BA3" stop-opacity="0.854"/>
<stop offset="1" stop-color="#1F3596"/>
</linearGradient>
<linearGradient id="paint24_linear_0_677" x1="57.1906" y1="43.7788" x2="56.706" y2="46.8388" gradientUnits="userSpaceOnUse">
<stop stop-color="#5A5A5A"/>
<stop offset="1" stop-color="#444444"/>
</linearGradient>
</defs>
</svg>
