<svg width="41" height="36" viewBox="0 0 41 36" fill="none" xmlns="http://www.w3.org/2000/svg">
<path d="M7.55 26.8889H5.7C4.7187 26.8889 3.77759 26.5143 3.0837 25.8475C2.38982 25.1807 2 24.2763 2 23.3333V5.55556C2 4.61256 2.38982 3.70819 3.0837 3.0414C3.77759 2.3746 4.7187 2 5.7 2H35.3C36.2813 2 37.2224 2.3746 37.9163 3.0414C38.6102 3.70819 39 4.61256 39 5.55556V23.3333C39 24.2763 38.6102 25.1807 37.9163 25.8475C37.2224 26.5143 36.2813 26.8889 35.3 26.8889H33.45M20.5 23.3333L29.75 34H11.25L20.5 23.3333Z" stroke="#C6F613" stroke-width="2.8" stroke-linecap="round" stroke-linejoin="round"/>
</svg>
