<svg width="44" height="48" viewBox="0 0 44 48" fill="none" xmlns="http://www.w3.org/2000/svg">
<path d="M32.4983 18.0808L12.3269 6.4486M2.84635 12.6121L22.4126 23.9305L41.9788 12.6121M22.4126 46.5V23.9081M42.584 32.8731V14.943C42.5832 14.1569 42.3757 13.3849 41.9823 12.7043C41.5889 12.0238 41.0235 11.4586 40.3427 11.0656L24.6539 2.10054C23.9724 1.70712 23.1994 1.5 22.4126 1.5C21.6257 1.5 20.8528 1.70712 20.1713 2.10054L4.48248 11.0656C3.80172 11.4586 3.23629 12.0238 2.8429 12.7043C2.44952 13.3849 2.24202 14.1569 2.24121 14.943V32.8731C2.24202 33.6592 2.44952 34.4312 2.8429 35.1118C3.23629 35.7923 3.80172 36.3575 4.48248 36.7505L20.1713 45.7156C20.8528 46.109 21.6257 46.3161 22.4126 46.3161C23.1994 46.3161 23.9724 46.109 24.6539 45.7156L40.3427 36.7505C41.0235 36.3575 41.5889 35.7923 41.9823 35.1118C42.3757 34.4312 42.5832 33.6592 42.584 32.8731Z" stroke="#C5EC4F" stroke-width="2.55682" stroke-linecap="round" stroke-linejoin="round"/>
</svg>
