<svg width="53" height="52" viewBox="0 0 53 52" fill="none" xmlns="http://www.w3.org/2000/svg">
<path d="M42.8334 2C40.6675 2 38.5902 2.84286 37.0587 4.34315C35.5271 5.84344 34.6667 7.87827 34.6667 10V42C34.6667 44.1217 35.5271 46.1566 37.0587 47.6569C38.5902 49.1571 40.6675 50 42.8334 50C44.9993 50 47.0766 49.1571 48.6081 47.6569C50.1396 46.1566 51.0001 44.1217 51.0001 42C51.0001 39.8783 50.1396 37.8434 48.6081 36.3431C47.0766 34.8429 44.9993 34 42.8334 34H10.1667C8.00079 34 5.92357 34.8429 4.39202 36.3431C2.86048 37.8434 2.00006 39.8783 2.00006 42C2.00006 44.1217 2.86048 46.1566 4.39202 47.6569C5.92357 49.1571 8.00079 50 10.1667 50C12.3327 50 14.4099 49.1571 15.9414 47.6569C17.473 46.1566 18.3334 44.1217 18.3334 42V10C18.3334 7.87827 17.473 5.84344 15.9414 4.34315C14.4099 2.84286 12.3327 2 10.1667 2C8.00079 2 5.92357 2.84286 4.39202 4.34315C2.86048 5.84344 2.00006 7.87827 2.00006 10C2.00006 12.1217 2.86048 14.1566 4.39202 15.6569C5.92357 17.1571 8.00079 18 10.1667 18H42.8334C44.9993 18 47.0766 17.1571 48.6081 15.6569C50.1396 14.1566 51.0001 12.1217 51.0001 10C51.0001 7.87827 50.1396 5.84344 48.6081 4.34315C47.0766 2.84286 44.9993 2 42.8334 2Z" stroke="white" stroke-width="3" stroke-linecap="round" stroke-linejoin="round"/>
</svg>
