<svg width="48" height="51" viewBox="0 0 48 51" fill="none" xmlns="http://www.w3.org/2000/svg">
<path d="M11.6512 23.1811V13.5811C11.6512 10.3985 12.9389 7.34621 15.231 5.09577C17.5231 2.84534 20.6319 1.58105 23.8734 1.58105C27.1149 1.58105 30.2237 2.84534 32.5158 5.09577C34.8079 7.34621 36.0956 10.3985 36.0956 13.5811V23.1811M6.7623 23.1811H40.9845C43.6846 23.1811 45.8734 25.3301 45.8734 27.9811V44.7811C45.8734 47.432 43.6846 49.5811 40.9845 49.5811H6.7623C4.06224 49.5811 1.87341 47.432 1.87341 44.7811V27.9811C1.87341 25.3301 4.06224 23.1811 6.7623 23.1811Z" stroke="#004BFF" stroke-width="2.5" stroke-linecap="round" stroke-linejoin="round"/>
</svg>
