<svg width="371" height="80" viewBox="0 0 371 80" fill="none" xmlns="http://www.w3.org/2000/svg">
<rect x="0.850952" y="-0.000183105" width="370" height="80" rx="40" fill="#2A27E8"/>
<path d="M268.541 39.2815C268.379 36.2275 266.156 33.6572 262.944 32.3077C265.995 30.6254 267.935 27.8326 267.773 24.7805C267.522 20.0516 262.331 16.4821 256.178 16.8082C250.024 17.1343 245.239 21.2324 245.49 25.9613C245.652 29.0134 247.875 31.5856 251.087 32.936C248.036 34.6184 246.096 37.4084 246.258 40.4623C246.42 43.5163 248.643 46.0875 251.856 47.437C248.804 49.1185 246.865 51.9094 247.027 54.9642C247.277 59.6931 252.469 63.2617 258.622 62.9356C264.775 62.6095 269.56 58.5123 269.31 53.7834C269.148 50.7286 266.924 48.1582 263.712 46.8087C266.764 45.1273 268.703 42.3364 268.541 39.2815Z" fill="#F4B323"/>
<path d="M43.2428 61.5456L28.0028 19.5456H37.5428L49.0628 51.2256L60.5828 19.5456H70.1228L54.8828 61.5456H43.2428ZM76.4364 61.5456V19.5456H85.4364V61.5456H76.4364ZM108.885 62.3256C106.525 62.3256 104.265 61.9556 102.105 61.2156C99.9447 60.4556 98.0547 59.3756 96.4347 57.9756C94.8147 56.5556 93.6447 54.8656 92.9247 52.9056L101.385 49.7856C101.585 50.3656 102.025 50.9256 102.705 51.4656C103.405 52.0056 104.285 52.4556 105.345 52.8156C106.405 53.1556 107.585 53.3256 108.885 53.3256C110.085 53.3256 111.215 53.1556 112.275 52.8156C113.335 52.4556 114.195 51.9656 114.855 51.3456C115.515 50.7256 115.845 50.0056 115.845 49.1856C115.845 48.3456 115.495 47.6556 114.795 47.1156C114.115 46.5556 113.235 46.1156 112.155 45.7956C111.095 45.4556 110.005 45.2056 108.885 45.0456C105.845 44.6056 103.115 43.8856 100.695 42.8856C98.2947 41.8656 96.3947 40.4656 94.9947 38.6856C93.6147 36.9056 92.9247 34.6456 92.9247 31.9056C92.9247 29.2856 93.6647 26.9956 95.1447 25.0356C96.6247 23.0556 98.5747 21.5156 100.995 20.4156C103.435 19.3156 106.065 18.7656 108.885 18.7656C111.245 18.7656 113.505 19.1456 115.665 19.9056C117.845 20.6456 119.745 21.7256 121.365 23.1456C122.985 24.5656 124.145 26.2656 124.845 28.2456L116.385 31.3056C116.185 30.7256 115.735 30.1756 115.035 29.6556C114.355 29.1156 113.485 28.6756 112.425 28.3356C111.365 27.9956 110.185 27.8256 108.885 27.8256C107.725 27.8056 106.615 27.9756 105.555 28.3356C104.495 28.6956 103.625 29.1856 102.945 29.8056C102.265 30.4256 101.925 31.1256 101.925 31.9056C101.925 32.9856 102.245 33.7956 102.885 34.3356C103.525 34.8556 104.365 35.2256 105.405 35.4456C106.465 35.6656 107.625 35.8656 108.885 36.0456C111.765 36.4656 114.415 37.2156 116.835 38.2956C119.255 39.3756 121.195 40.8156 122.655 42.6156C124.115 44.4156 124.845 46.6056 124.845 49.1856C124.845 51.8056 124.105 54.1056 122.625 56.0856C121.165 58.0456 119.225 59.5756 116.805 60.6756C114.385 61.7756 111.745 62.3256 108.885 62.3256ZM148.535 62.3256C145.175 62.3256 142.205 61.5056 139.625 59.8656C137.065 58.2256 135.055 56.0256 133.595 53.2656C132.155 50.4856 131.435 47.4056 131.435 44.0256V19.5456H140.435V44.0256C140.435 45.7256 140.755 47.2856 141.395 48.7056C142.035 50.1056 142.955 51.2256 144.155 52.0656C145.375 52.9056 146.835 53.3256 148.535 53.3256C150.255 53.3256 151.715 52.9156 152.915 52.0956C154.115 51.2556 155.025 50.1356 155.645 48.7356C156.265 47.3156 156.575 45.7456 156.575 44.0256V19.5456H165.575V44.0256C165.575 46.5656 165.165 48.9456 164.345 51.1656C163.525 53.3656 162.355 55.3056 160.835 56.9856C159.315 58.6656 157.515 59.9756 155.435 60.9156C153.355 61.8556 151.055 62.3256 148.535 62.3256ZM184.733 19.5456H194.873L210.113 61.5456H200.573L198.173 54.9456H181.433L179.033 61.5456H169.493L184.733 19.5456ZM184.733 45.9456H194.873L189.773 32.0256L184.733 45.9456ZM214.931 61.5456V19.5456H223.931V52.5456H240.431V61.5456H214.931ZM291.228 62.3256C288.868 62.3256 286.608 61.9556 284.448 61.2156C282.288 60.4556 280.398 59.3756 278.778 57.9756C277.158 56.5556 275.988 54.8656 275.268 52.9056L283.728 49.7856C283.928 50.3656 284.368 50.9256 285.048 51.4656C285.748 52.0056 286.628 52.4556 287.688 52.8156C288.748 53.1556 289.928 53.3256 291.228 53.3256C292.428 53.3256 293.558 53.1556 294.618 52.8156C295.678 52.4556 296.538 51.9656 297.198 51.3456C297.858 50.7256 298.188 50.0056 298.188 49.1856C298.188 48.3456 297.838 47.6556 297.138 47.1156C296.458 46.5556 295.578 46.1156 294.498 45.7956C293.438 45.4556 292.348 45.2056 291.228 45.0456C288.188 44.6056 285.458 43.8856 283.038 42.8856C280.638 41.8656 278.738 40.4656 277.338 38.6856C275.958 36.9056 275.268 34.6456 275.268 31.9056C275.268 29.2856 276.008 26.9956 277.488 25.0356C278.968 23.0556 280.918 21.5156 283.338 20.4156C285.778 19.3156 288.408 18.7656 291.228 18.7656C293.588 18.7656 295.848 19.1456 298.008 19.9056C300.188 20.6456 302.088 21.7256 303.708 23.1456C305.328 24.5656 306.488 26.2656 307.188 28.2456L298.728 31.3056C298.528 30.7256 298.078 30.1756 297.378 29.6556C296.698 29.1156 295.828 28.6756 294.768 28.3356C293.708 27.9956 292.528 27.8256 291.228 27.8256C290.068 27.8056 288.958 27.9756 287.898 28.3356C286.838 28.6956 285.968 29.1856 285.288 29.8056C284.608 30.4256 284.268 31.1256 284.268 31.9056C284.268 32.9856 284.588 33.7956 285.228 34.3356C285.868 34.8556 286.708 35.2256 287.748 35.4456C288.808 35.6656 289.968 35.8656 291.228 36.0456C294.108 36.4656 296.758 37.2156 299.178 38.2956C301.598 39.3756 303.538 40.8156 304.998 42.6156C306.458 44.4156 307.188 46.6056 307.188 49.1856C307.188 51.8056 306.448 54.1056 304.968 56.0856C303.508 58.0456 301.568 59.5756 299.148 60.6756C296.728 61.7756 294.088 62.3256 291.228 62.3256ZM313.779 61.5456V19.5456H340.539V28.5456H322.779V34.5456H336.459V43.5456H322.779V52.5456H340.539V61.5456H313.779Z" fill="white"/>
</svg>
