<svg width="252" height="72" viewBox="0 0 252 72" fill="none" xmlns="http://www.w3.org/2000/svg">
<rect x="0.910034" width="250.918" height="70" rx="35" fill="#BFFF0A"/>
<path d="M26.41 57V15H35.41V57H26.41ZM43.4983 57V15H57.4183C60.3183 15 63.0283 15.55 65.5483 16.65C68.0883 17.73 70.3183 19.24 72.2383 21.18C74.1783 23.1 75.6883 25.33 76.7683 27.87C77.8683 30.39 78.4183 33.1 78.4183 36C78.4183 38.9 77.8683 41.62 76.7683 44.16C75.6883 46.68 74.1783 48.91 72.2383 50.85C70.3183 52.77 68.0883 54.28 65.5483 55.38C63.0283 56.46 60.3183 57 57.4183 57H43.4983ZM52.4983 48H57.4183C59.0383 48 60.5683 47.69 62.0083 47.07C63.4483 46.45 64.7283 45.59 65.8483 44.49C66.9683 43.39 67.8383 42.12 68.4583 40.68C69.0983 39.22 69.4183 37.66 69.4183 36C69.4183 34.34 69.0983 32.79 68.4583 31.35C67.8383 29.91 66.9683 28.64 65.8483 27.54C64.7483 26.42 63.4783 25.55 62.0383 24.93C60.5983 24.31 59.0583 24 57.4183 24H52.4983V48ZM82.9319 57V15H109.692V24H91.9319V30H105.612V39H91.9319V48H109.692V57H82.9319ZM129.14 15H139.28L154.52 57H144.98L142.58 50.4H125.84L123.44 57H113.9L129.14 15ZM129.14 41.4H139.28L134.18 27.48L129.14 41.4ZM172.296 57.78C169.936 57.78 167.676 57.41 165.516 56.67C163.356 55.91 161.466 54.83 159.846 53.43C158.226 52.01 157.056 50.32 156.336 48.36L164.796 45.24C164.996 45.82 165.436 46.38 166.116 46.92C166.816 47.46 167.696 47.91 168.756 48.27C169.816 48.61 170.996 48.78 172.296 48.78C173.496 48.78 174.626 48.61 175.686 48.27C176.746 47.91 177.606 47.42 178.266 46.8C178.926 46.18 179.256 45.46 179.256 44.64C179.256 43.8 178.906 43.11 178.206 42.57C177.526 42.01 176.646 41.57 175.566 41.25C174.506 40.91 173.416 40.66 172.296 40.5C169.256 40.06 166.526 39.34 164.106 38.34C161.706 37.32 159.806 35.92 158.406 34.14C157.026 32.36 156.336 30.1 156.336 27.36C156.336 24.74 157.076 22.45 158.556 20.49C160.036 18.51 161.986 16.97 164.406 15.87C166.846 14.77 169.476 14.22 172.296 14.22C174.656 14.22 176.916 14.6 179.076 15.36C181.256 16.1 183.156 17.18 184.776 18.6C186.396 20.02 187.556 21.72 188.256 23.7L179.796 26.76C179.596 26.18 179.146 25.63 178.446 25.11C177.766 24.57 176.896 24.13 175.836 23.79C174.776 23.45 173.596 23.28 172.296 23.28C171.136 23.26 170.026 23.43 168.966 23.79C167.906 24.15 167.036 24.64 166.356 25.26C165.676 25.88 165.336 26.58 165.336 27.36C165.336 28.44 165.656 29.25 166.296 29.79C166.936 30.31 167.776 30.68 168.816 30.9C169.876 31.12 171.036 31.32 172.296 31.5C175.176 31.92 177.826 32.67 180.246 33.75C182.666 34.83 184.606 36.27 186.066 38.07C187.526 39.87 188.256 42.06 188.256 44.64C188.256 47.26 187.516 49.56 186.036 51.54C184.576 53.5 182.636 55.03 180.216 56.13C177.796 57.23 175.156 57.78 172.296 57.78Z" fill="#00030C"/>
<path d="M216.103 23.398L222.216 13.8998L220.996 25.0908L230.903 19.4899L224.537 28.8257L235.967 28.4054L225.914 33.747L236.25 38.604L224.812 38.7276L231.685 47.7482L221.482 42.6256L223.318 53.7439L216.688 44.5492L213.067 55.2176L211.528 44.0569L203.279 51.8318L207.185 41.2614L196.197 44.3621L204.652 36.804L193.444 34.5196L204.511 31.7048L195.65 24.5584L206.794 27.1327L202.309 16.7616L210.977 24.1348L211.896 12.9152L216.103 23.398Z" fill="#00030C"/>
</svg>
