<svg width="256" height="59" viewBox="0 0 256 59" fill="none" xmlns="http://www.w3.org/2000/svg">
<path d="M10.0108 54.84C8.05078 54.84 6.35078 54.4 4.91078 53.52C3.51078 52.6 2.43078 51.42 1.67078 49.98C0.910781 48.54 0.530781 47.06 0.530781 45.54C0.530781 42.34 1.09078 39.42 2.21078 36.78C3.33078 34.1 4.73078 31.74 6.41078 29.7C8.13078 27.62 9.89078 25.86 11.6908 24.42C13.5308 22.98 15.1908 21.9 16.6708 21.18C18.1908 20.42 19.2708 20.04 19.9108 20.04C21.1908 20.04 21.8308 20.68 21.8308 21.96C21.8308 22.56 21.4308 23.26 20.6308 24.06C19.8308 24.82 18.8108 25.72 17.5708 26.76C16.3308 27.8 15.0108 28.98 13.6108 30.3C12.2108 31.58 10.8908 33.04 9.65078 34.68C8.41078 36.28 7.39078 38.08 6.59078 40.08C5.79078 42.04 5.39078 44.2 5.39078 46.56C5.39078 48.96 6.37078 50.16 8.33078 50.16C10.1308 50.16 11.9708 49.82 13.8508 49.14C15.7708 48.46 17.6508 47.58 19.4908 46.5C21.3708 45.38 23.1708 44.22 24.8908 43.02C26.6108 41.82 28.1708 40.68 29.5708 39.6C30.9708 38.48 32.1508 37.58 33.1108 36.9C34.0708 36.22 34.7508 35.88 35.1508 35.88C35.9508 35.88 36.3508 36.32 36.3508 37.2C36.3508 37.88 35.8908 38.78 34.9708 39.9C34.0508 41.02 32.8108 42.24 31.2508 43.56C29.6908 44.88 27.9508 46.22 26.0308 47.58C24.1108 48.9 22.1708 50.12 20.2108 51.24C18.2508 52.32 16.3708 53.2 14.5708 53.88C12.8108 54.52 11.2908 54.84 10.0108 54.84ZM36.0803 56.7C35.2003 56.7 34.5203 56.44 34.0403 55.92C33.5603 55.44 33.3203 54.22 33.3203 52.26C33.3203 50.46 33.6403 48.12 34.2803 45.24C34.9203 42.32 35.7803 39.08 36.8603 35.52C37.9403 31.96 39.1603 28.28 40.5203 24.48C41.8803 20.64 43.3003 16.88 44.7803 13.2C46.3003 9.48 47.7603 6.08 49.1603 3C49.6803 1.88 50.2203 1.1 50.7803 0.659997C51.3403 0.219997 52.0003 -2.14577e-06 52.7603 -2.14577e-06C53.2803 -2.14577e-06 53.7203 0.159998 54.0803 0.479999C54.4803 0.759998 54.6803 1.24 54.6803 1.92C54.6803 2.16 54.4203 2.94 53.9003 4.26C53.4203 5.58 52.7403 7.32 51.8603 9.48C51.0203 11.64 50.0803 14.06 49.0403 16.74C48.0003 19.42 46.9403 22.24 45.8603 25.2C44.7803 28.16 43.7603 31.14 42.8003 34.14C41.8403 37.1 41.0203 39.94 40.3403 42.66C39.6603 45.38 39.2003 47.82 38.9603 49.98C39.9203 48.82 41.0203 47.34 42.2603 45.54C43.5003 43.74 44.8203 41.8 46.2203 39.72C47.6203 37.64 49.0403 35.58 50.4803 33.54C51.9203 31.5 53.3403 29.64 54.7403 27.96C56.1403 26.28 57.4403 24.94 58.6403 23.94C59.8803 22.9 60.9603 22.38 61.8803 22.38C63.4003 22.38 64.6203 22.86 65.5403 23.82C66.5003 24.74 66.9803 26.26 66.9803 28.38C66.9803 29.58 66.7403 31.02 66.2603 32.7C65.8203 34.38 65.3003 36.14 64.7003 37.98C64.1003 39.82 63.5603 41.58 63.0803 43.26C62.6403 44.94 62.4203 46.38 62.4203 47.58C62.4203 49.22 63.0403 50.04 64.2803 50.04C66.2003 50.04 68.1203 49.62 70.0403 48.78C72.0003 47.94 73.8603 46.9 75.6203 45.66C77.3803 44.38 79.0003 43.1 80.4803 41.82C81.9603 40.5 83.2203 39.38 84.2603 38.46C85.3803 37.46 86.3203 36.96 87.0803 36.96C88.0403 36.96 88.5203 37.46 88.5203 38.46C88.5203 38.74 88.4603 39.06 88.3403 39.42C88.2203 39.78 87.9003 40.24 87.3803 40.8C86.7403 41.52 85.8203 42.46 84.6203 43.62C83.4603 44.78 82.1003 46.02 80.5403 47.34C79.0203 48.66 77.3603 49.9 75.5603 51.06C73.8003 52.22 71.9803 53.18 70.1003 53.94C68.2603 54.66 66.4603 55.02 64.7003 55.02C62.3003 55.02 60.4403 54.34 59.1203 52.98C57.8403 51.58 57.2003 49.66 57.2003 47.22C57.2003 45.7 57.4403 43.86 57.9203 41.7C58.4003 39.54 59.0003 37.26 59.7203 34.86C60.4803 32.42 61.2403 30.04 62.0003 27.72C60.7203 28.6 59.3203 29.92 57.8003 31.68C56.3203 33.4 54.7603 35.36 53.1203 37.56C51.4803 39.72 49.8403 41.92 48.2003 44.16C46.6003 46.4 45.0403 48.48 43.5203 50.4C42.0403 52.28 40.6603 53.8 39.3803 54.96C38.1003 56.12 37.0003 56.7 36.0803 56.7ZM87.0602 55.56C85.5402 55.56 84.2802 54.86 83.2802 53.46C82.3202 52.02 81.8402 50.16 81.8402 47.88C81.8402 45.76 82.3602 43.66 83.4002 41.58C84.4802 39.5 85.9002 37.5 87.6602 35.58C89.4202 33.66 91.3402 31.9 93.4202 30.3C95.5002 28.66 97.5802 27.24 99.6602 26.04C101.78 24.84 103.72 23.9 105.48 23.22C107.24 22.54 108.64 22.2 109.68 22.2C110.24 22.2 110.7 22.32 111.06 22.56C111.42 22.76 111.6 23.14 111.6 23.7C111.6 24.06 111.46 24.4 111.18 24.72C111.22 24.72 111.26 24.72 111.3 24.72C112.18 24.72 112.62 25.24 112.62 26.28C112.62 26.64 112.48 27.38 112.2 28.5C111.92 29.58 111.6 30.94 111.24 32.58C110.88 34.22 110.56 36.04 110.28 38.04C110 40 109.86 42 109.86 44.04C109.86 45.76 110.52 46.62 111.84 46.62C113.32 46.62 114.82 46.28 116.34 45.6C117.86 44.92 119.34 44.1 120.78 43.14C122.22 42.14 123.54 41.16 124.74 40.2C125.94 39.2 126.96 38.36 127.8 37.68C128.64 37 129.24 36.66 129.6 36.66C129.92 36.66 130.2 36.76 130.44 36.96C130.68 37.16 130.8 37.48 130.8 37.92C130.8 38.32 130.4 39.04 129.6 40.08C128.8 41.12 127.74 42.3 126.42 43.62C125.1 44.94 123.62 46.22 121.98 47.46C120.34 48.7 118.66 49.72 116.94 50.52C115.22 51.32 113.58 51.72 112.02 51.72C110.82 51.72 109.72 51.36 108.72 50.64C107.76 49.88 106.98 48.6 106.38 46.8C105.82 45 105.54 42.52 105.54 39.36V37.86C103.58 41.1 101.52 44.06 99.3602 46.74C97.2402 49.42 95.1202 51.56 93.0002 53.16C90.9202 54.76 88.9402 55.56 87.0602 55.56ZM108.54 26.52C108.34 26.6 108.06 26.72 107.7 26.88C105.86 27.72 103.94 28.76 101.94 30C99.9802 31.24 98.0602 32.62 96.1802 34.14C94.3402 35.66 92.6802 37.24 91.2002 38.88C89.7202 40.52 88.5402 42.18 87.6602 43.86C86.7802 45.54 86.3402 47.18 86.3402 48.78C86.3402 49.3 86.4402 49.7 86.6402 49.98C86.8802 50.26 87.2802 50.4 87.8402 50.4C88.6402 50.4 89.6802 49.9 90.9602 48.9C92.2402 47.86 93.6402 46.5 95.1602 44.82C96.7202 43.14 98.2802 41.28 99.8402 39.24C101.4 37.2 102.88 35.14 104.28 33.06C105.72 30.98 106.96 29.06 108 27.3C108.16 27.02 108.34 26.76 108.54 26.52ZM122.464 34.8C121.384 34.72 120.884 34.02 120.964 32.7C121.004 32.38 121.224 32 121.624 31.56C122.024 31.08 122.484 30.82 123.004 30.78C124.244 30.66 125.764 30.48 127.564 30.24C129.404 29.96 131.424 29.64 133.624 29.28C134.024 27.32 134.504 25.26 135.064 23.1C135.624 20.94 136.244 18.84 136.924 16.8C137.604 14.72 138.324 12.84 139.084 11.16C139.844 9.48 140.644 8.16 141.484 7.2C141.924 6.76 142.324 6.46 142.684 6.3C143.044 6.1 143.364 6 143.644 6C144.204 6 144.644 6.24 144.964 6.72C145.324 7.2 145.504 7.74 145.504 8.34C145.504 8.66 145.444 8.98 145.324 9.3C144.524 11.54 143.664 14.3 142.744 17.58C141.824 20.86 140.844 24.44 139.804 28.32C143.484 27.72 147.164 27.08 150.844 26.4C154.524 25.72 157.684 25.1 160.324 24.54C161.084 24.22 161.664 24.28 162.064 24.72C162.504 25.16 162.724 25.6 162.724 26.04C162.724 26.6 162.564 27.02 162.244 27.3C161.964 27.58 161.664 27.82 161.344 28.02L161.284 28.08C160.484 28.4 159.284 28.78 157.684 29.22C156.084 29.62 154.244 30.06 152.164 30.54C150.084 30.98 147.864 31.42 145.504 31.86C143.184 32.3 140.884 32.7 138.604 33.06C137.684 36.58 136.744 40.2 135.784 43.92C134.864 47.6 133.944 51.22 133.024 54.78C132.624 56.22 132.164 57.12 131.644 57.48C131.164 57.88 130.644 58.08 130.084 58.08C129.444 58.08 128.884 57.84 128.404 57.36C127.964 56.88 127.904 55.9 128.224 54.42L132.604 33.96C130.204 34.32 128.084 34.58 126.244 34.74C124.444 34.9 123.184 34.92 122.464 34.8ZM162.831 54.06C161.111 54.06 159.891 53.72 159.171 53.04C158.451 52.36 158.091 51.36 158.091 50.04C158.091 43.4 159.291 36.46 161.691 29.22C164.091 21.94 167.451 14.64 171.771 7.32C172.331 6.4 172.771 5.82 173.091 5.58C173.451 5.34 173.871 5.22 174.351 5.22C174.911 5.22 175.411 5.42 175.851 5.82C176.291 6.22 176.511 6.76 176.511 7.44C176.511 7.8 176.151 8.78 175.431 10.38C174.711 11.94 173.791 13.96 172.671 16.44C171.551 18.92 170.351 21.7 169.071 24.78C167.831 27.82 166.651 31 165.531 34.32C164.411 37.64 163.511 40.94 162.831 44.22C163.751 42.86 164.851 41.4 166.131 39.84C167.451 38.28 168.851 36.72 170.331 35.16C171.811 33.6 173.311 32.18 174.831 30.9C176.391 29.62 177.891 28.6 179.331 27.84C180.771 27.08 182.091 26.7 183.291 26.7C184.851 26.7 186.211 27.36 187.371 28.68C188.571 29.96 189.171 31.9 189.171 34.5C189.171 36.7 188.571 38.96 187.371 41.28C186.171 43.56 184.411 45.68 182.091 47.64C179.811 49.56 177.051 51.12 173.811 52.32C170.571 53.48 166.911 54.06 162.831 54.06ZM163.071 49.5C166.391 49.5 169.411 48.94 172.131 47.82C174.851 46.7 177.171 45.28 179.091 43.56C181.051 41.8 182.551 39.98 183.591 38.1C184.671 36.18 185.211 34.44 185.211 32.88C185.211 31.76 184.831 31.2 184.071 31.2C183.151 31.2 181.971 31.64 180.531 32.52C179.091 33.4 177.531 34.56 175.851 36C174.211 37.44 172.571 39 170.931 40.68C169.291 42.32 167.771 43.92 166.371 45.48C165.011 47.04 163.911 48.38 163.071 49.5ZM202.283 54.6C199.923 54.6 198.063 53.7 196.703 51.9C195.343 50.1 194.663 47.76 194.663 44.88C194.663 43.84 194.803 42.74 195.083 41.58C195.403 40.38 195.803 39.3 196.283 38.34C196.003 38.06 195.783 37.68 195.623 37.2C195.463 36.68 195.383 36.04 195.383 35.28C195.383 32.92 195.783 30.76 196.583 28.8C197.383 26.84 198.443 25.14 199.763 23.7C201.083 22.22 202.543 21.08 204.143 20.28C205.783 19.48 207.443 19.08 209.123 19.08C211.883 19.08 214.123 20.08 215.843 22.08C217.563 24.04 218.423 27.04 218.423 31.08C218.423 33.2 218.103 35.36 217.463 37.56C216.863 39.76 216.023 41.88 214.943 43.92C213.903 45.96 212.683 47.78 211.283 49.38C209.923 50.98 208.463 52.26 206.903 53.22C205.383 54.14 203.843 54.6 202.283 54.6ZM200.243 36.3C200.483 36.62 200.603 37.04 200.603 37.56C200.603 38.16 200.483 38.76 200.243 39.36C200.043 39.96 199.823 40.78 199.583 41.82C199.343 42.86 199.223 44.34 199.223 46.26C199.223 48.18 199.983 49.14 201.503 49.14C203.183 49.14 204.743 48.48 206.183 47.16C207.623 45.8 208.903 44.06 210.023 41.94C211.143 39.82 212.003 37.56 212.603 35.16C213.243 32.72 213.563 30.42 213.563 28.26C213.563 26.86 213.303 25.88 212.783 25.32C212.263 24.72 211.323 24.42 209.963 24.42C208.563 24.42 207.103 24.9 205.583 25.86C204.103 26.78 202.863 28.04 201.863 29.64C200.863 31.24 200.363 33.04 200.363 35.04C200.363 35.48 200.323 35.9 200.243 36.3ZM226.936 51.84C226.336 51.84 225.896 51.62 225.616 51.18C225.336 50.74 225.196 50.18 225.196 49.5C225.196 48.94 225.556 48.14 226.276 47.1C227.036 46.02 228.016 44.76 229.216 43.32C230.456 41.84 231.816 40.26 233.296 38.58C234.776 36.9 236.276 35.2 237.796 33.48C235.956 30.36 234.556 27.9 233.596 26.1C232.636 24.26 232.156 22.82 232.156 21.78C232.156 21.06 232.396 20.4 232.876 19.8C233.356 19.16 233.836 18.84 234.316 18.84C234.876 18.84 235.416 19.18 235.936 19.86C236.496 20.5 237.176 21.6 237.976 23.16C238.776 24.68 239.856 26.78 241.216 29.46C243.416 26.82 245.236 24.66 246.676 22.98C248.156 21.3 249.336 20 250.216 19.08C251.136 18.16 251.856 17.52 252.376 17.16C252.936 16.76 253.416 16.56 253.816 16.56C254.296 16.56 254.696 16.76 255.016 17.16C255.336 17.52 255.496 18.12 255.496 18.96C255.496 19.76 255.116 20.74 254.356 21.9C253.636 23.06 252.676 24.32 251.476 25.68C250.276 27.04 248.976 28.44 247.576 29.88C246.216 31.28 244.916 32.64 243.676 33.96C245.676 37.4 247.596 40.4 249.436 42.96C251.276 45.48 252.756 47.56 253.876 49.2C255.036 50.84 255.616 52.04 255.616 52.8C255.616 53.32 255.496 53.72 255.256 54C255.016 54.24 254.556 54.36 253.876 54.36C253.396 54.36 252.836 54.16 252.196 53.76C251.556 53.36 250.736 52.58 249.736 51.42C248.776 50.26 247.516 48.58 245.956 46.38C244.436 44.14 242.556 41.22 240.316 37.62C238.916 39.18 237.516 40.8 236.116 42.48C234.756 44.12 233.456 45.66 232.216 47.1C231.016 48.5 229.956 49.64 229.036 50.52C228.116 51.4 227.416 51.84 226.936 51.84Z" fill="black"/>
</svg>
