<svg width="609" height="50" viewBox="0 0 609 50" fill="none" xmlns="http://www.w3.org/2000/svg">
<path d="M553.776 28.9762L553.776 34.7538H608.663L608.663 48.4757H535.721L535.721 2.25464L608.519 2.25464L608.519 15.9765H553.776L553.776 21.7541H598.552L598.552 28.9762H553.776Z" fill="white"/>
<path d="M476.345 48.4757L448.323 2.25464H468.689L492.594 46.6702H485.228L509.133 2.25464H529.21L501.477 48.4757H476.345Z" fill="white"/>
<path d="M422.69 2.25464H440.746L440.746 48.4757H422.69L422.69 2.25464Z" fill="white"/>
<path d="M339.304 2.25464L414.413 2.25464L414.413 15.9765H339.304L339.304 2.25464ZM367.831 15.0376H385.886L385.886 48.4757H367.831L367.831 15.0376Z" fill="white"/>
<path d="M279.63 41.4703L279.63 30.6372H329.029L329.029 41.4703H279.63ZM263.453 48.4757L294.436 2.25464L314.513 2.25464L345.784 48.4757H325.924L299.13 7.09341H309.891L283.314 48.4757H263.453Z" fill="white"/>
<path d="M203.536 28.9762L203.536 34.7538L258.423 34.7538L258.423 48.4757L185.48 48.4757L185.48 2.25464L258.279 2.25464L258.279 15.9765L203.536 15.9765L203.536 21.7541L248.312 21.7541L248.312 28.9762L203.536 28.9762Z" fill="white"/>
<path d="M96.4746 48.4757L96.4746 2.25464L152.301 2.25464C156.682 2.25464 160.606 2.76018 164.073 3.77127C167.588 4.73421 170.356 6.3712 172.378 8.68225C174.449 10.9933 175.484 14.1469 175.484 18.1431C175.484 20.7912 175.002 22.9819 174.039 24.7152C173.076 26.4485 171.752 27.7966 170.067 28.7595C168.382 29.7225 166.456 30.4206 164.29 30.8539C162.123 31.2872 159.86 31.552 157.501 31.6483L152.229 30.6372C157.958 30.6854 162.364 30.9261 165.445 31.3594C168.575 31.7928 170.741 32.5872 171.945 33.7427C173.197 34.8501 173.823 36.463 173.823 38.5815L173.823 48.4757L155.768 48.4757L155.768 40.7481C155.768 39.3037 155.479 38.2204 154.901 37.4982C154.371 36.7278 153.168 36.1982 151.29 35.9093C149.46 35.6204 146.62 35.476 142.768 35.476L114.53 35.476L114.53 48.4757L96.4746 48.4757ZM114.53 23.4152L152.301 23.4152C153.745 23.4152 154.949 23.1745 155.912 22.693C156.923 22.2115 157.429 21.2967 157.429 19.9486C157.429 18.6968 156.923 17.8542 155.912 17.4209C154.949 16.9394 153.745 16.6987 152.301 16.6987L114.53 16.6987L114.53 23.4152Z" fill="white"/>
<path d="M86.984 29.1929C86.7432 33.7669 85.0822 37.5945 82.0008 40.6759C78.9194 43.7573 74.3695 46.0684 68.3511 47.6091C62.3809 49.1498 54.8219 49.9201 45.6739 49.9201C38.6926 49.9201 32.4335 49.535 26.8966 48.7646C21.3598 48.0424 16.6414 46.7906 12.7415 45.0092C8.84156 43.1796 5.85646 40.7 3.78614 37.5705C1.71582 34.4409 0.680664 30.4929 0.680664 25.7263C0.680664 20.9598 1.71582 16.9877 3.78614 13.81C5.85646 10.5841 8.84156 8.03234 12.7415 6.15461C16.6414 4.22873 21.3598 2.85655 26.8967 2.03805C32.4335 1.21955 38.6926 0.810303 45.6739 0.810303C54.8219 0.810303 62.405 1.65288 68.4233 3.33802C74.4417 4.97501 78.9916 7.40643 82.073 10.6323C85.1544 13.8581 86.8155 17.7821 87.0562 22.4042H68.2789C67.7011 20.8635 66.6419 19.5154 65.1012 18.3599C63.5605 17.1562 61.2495 16.2173 58.1681 15.5433C55.0867 14.8692 50.922 14.5322 45.6739 14.5322C39.5111 14.5322 34.5039 14.9173 30.6521 15.6877C26.8004 16.4099 23.9838 17.5895 22.2023 19.2265C20.4209 20.8635 19.5302 23.0301 19.5302 25.7263C19.5302 28.1818 20.4209 30.1799 22.2023 31.7206C23.9838 33.2613 26.8004 34.3928 30.6521 35.115C34.5039 35.8372 39.5111 36.1983 45.6739 36.1983C50.922 36.1983 55.0626 35.8853 58.0958 35.2594C61.1772 34.6335 63.4883 33.7909 65.029 32.7317C66.5697 31.6243 67.6289 30.4447 68.2067 29.1929H86.984Z" fill="white"/>
</svg>
