<svg width="150" height="98" viewBox="0 0 150 98" fill="none" xmlns="http://www.w3.org/2000/svg">
<path d="M1.27152 94.4972C10.6975 87.3913 56.0103 46.2294 67.3918 43.038C70.0117 42.3639 72.6833 41.9023 75.3808 41.6577C82.2386 34.074 90.4303 27.8199 99.5539 23.2023C109.272 18.2478 119.63 14.649 130.343 12.505C133.614 11.8167 136.926 11.2105 140.31 10.7547L118.973 4.46008C116.65 3.77249 118.037 0.339284 120.409 1.05868C129.716 3.84487 139.074 6.60767 148.481 9.34704C150.003 9.78898 149.838 11.6772 148.952 12.5485L126.485 34.6868C124.772 36.3602 122.496 33.3719 124.181 31.7204L141.809 14.3466C128.719 15.7868 115.985 19.4244 104.137 25.1074C95.3951 29.1498 87.4467 34.7119 80.657 41.5385C83.9557 41.6638 87.221 42.2884 90.3422 43.3913C93.0239 44.3041 95.4709 45.8101 97.5008 47.7969C99.5306 49.7838 101.091 52.2002 102.065 54.8659C103.023 58.1071 103.146 61.5314 102.422 64.8176C101.698 68.1038 100.151 71.1441 97.9263 73.6531C95.4595 76.4383 92.4608 78.6996 89.1043 80.3057C85.7477 81.9118 82.1002 82.8307 78.3733 83.0092C72.032 83.3612 65.1661 80.8507 62.8255 74.368C59.4088 64.9252 66.3007 53.7639 71.5029 46.522L71.9492 45.9009C59.6294 47.9467 13.5701 90.2956 3.576 97.4636C1.59419 98.82 -0.621661 95.9677 1.27152 94.4972ZM66.362 64.8068C65.5218 68.1577 65.2479 72.1206 67.3446 75.1112C71.1079 80.6261 79.6359 79.7647 85.0075 77.9021C92.101 75.4566 98.1721 69.7121 99.2139 62.0428C99.511 59.5051 99.0932 56.9282 98.0076 54.6033C96.922 52.2784 95.212 50.2982 93.0708 48.8866C88.547 45.746 82.7855 45.0074 77.3196 45.3198C76.5423 46.2437 75.776 47.1818 75.0036 48.1705C71.0631 53.0882 68.1275 58.7397 66.362 64.8068Z" fill="#083935"/>
</svg>
