<svg width="891" height="74" viewBox="0 0 891 74" fill="none" xmlns="http://www.w3.org/2000/svg">
<path d="M789.64 71.8343L789.64 2.17773L858.863 2.17773C865.002 2.17773 870.418 2.93605 875.112 4.45267C879.879 5.89708 883.634 8.31646 886.379 11.7108C889.123 15.033 890.495 19.4745 890.495 25.0355C890.495 28.7187 889.809 31.8242 888.437 34.3519C887.137 36.8074 885.295 38.7573 882.912 40.2017C880.601 41.6462 877.929 42.7295 874.896 43.4517C871.935 44.1016 868.793 44.4989 865.471 44.6433L860.054 43.4517C867.277 43.5239 872.91 43.9211 876.954 44.6433C881.071 45.2933 883.996 46.521 885.729 48.3265C887.534 50.132 888.437 52.7681 888.437 56.2347L888.437 71.8343L866.338 71.8343L866.338 58.6179C866.338 56.2347 865.904 54.4292 865.038 53.2014C864.171 51.9014 862.402 50.9987 859.73 50.4931C857.13 49.9876 853.194 49.7348 847.921 49.7348L811.631 49.7348L811.631 71.8343L789.64 71.8343ZM811.631 34.4602L858.863 34.4602C861.824 34.4602 864.171 33.8464 865.904 32.6186C867.638 31.3909 868.504 29.5131 868.504 26.9854C868.504 24.6021 867.638 22.8689 865.904 21.7856C864.171 20.7023 861.824 20.1606 858.863 20.1606L811.631 20.1606L811.631 34.4602Z" fill="url(#paint0_linear_44_788)"/>
<path d="M642.998 42.585L642.998 54.718L775.45 54.718L775.45 71.8343L621.007 71.8343L621.007 2.17773L775.233 2.17773L775.233 19.4023L642.998 19.4023L642.998 31.5353L762.342 31.5353L762.342 42.585L642.998 42.585Z" fill="url(#paint1_linear_44_788)"/>
<path d="M591.146 53.4181L583.238 57.5346L583.238 2.17773L605.338 2.17773L605.338 71.8343L583.238 71.8343L511.632 21.3522L519.54 17.1273L519.54 71.8343L497.549 71.8343L497.549 2.17773L519.54 2.17773L591.146 53.4181Z" fill="url(#paint2_linear_44_788)"/>
<path d="M424.759 73.676C416.526 73.676 409.015 73.0621 402.226 71.8343C395.438 70.5344 389.552 68.4761 384.568 65.6595C379.657 62.7707 375.83 59.0513 373.085 54.5014C370.413 49.8793 369.077 44.2462 369.077 37.6019C369.077 30.9576 370.449 25.2883 373.194 20.594C376.01 15.8274 379.982 11.9637 385.11 9.00262C390.238 5.96937 396.376 3.76665 403.526 2.39446C410.676 1.02227 418.62 0.336182 427.359 0.336182C438.553 0.336182 448.014 1.52782 455.742 3.91109C463.469 6.22214 469.391 9.54428 473.508 13.8775C477.697 18.1385 480.008 23.23 480.441 29.1521L458.016 29.1521C457.078 27.0577 455.489 25.1439 453.25 23.4106C451.011 21.6773 447.797 20.3051 443.609 19.294C439.492 18.2107 434.075 17.6691 427.359 17.6691C419.343 17.6691 412.698 18.4274 407.426 19.944C402.226 21.3884 398.363 23.5911 395.835 26.5522C393.307 29.5132 392.043 33.1964 392.043 37.6019C392.043 41.6462 393.271 45.0767 395.726 47.8933C398.182 50.6377 402.046 52.7321 407.318 54.1765C412.662 55.6209 419.631 56.3431 428.226 56.3431C434.509 56.3431 439.961 55.9097 444.584 55.0431C449.206 54.1042 453.286 52.8043 456.825 51.1432C460.436 49.4099 463.722 47.4239 466.683 45.185L470.475 46.16C467.441 54.9709 462.061 61.7596 454.333 66.5261C446.606 71.2927 436.748 73.676 424.759 73.676ZM464.625 71.8343C464.625 69.6677 464.841 67.1761 465.275 64.3595C465.78 61.5429 466.358 58.6541 467.008 55.6931C467.73 52.6598 468.452 49.8071 469.175 47.135L430.934 47.135L430.934 36.6269L482.283 36.6269L482.283 71.8343L464.625 71.8343Z" fill="url(#paint3_linear_44_788)"/>
<path d="M331.18 2.17773L353.279 2.17773L353.279 71.8343L331.18 71.8343L331.18 2.17773Z" fill="url(#paint4_linear_44_788)"/>
<path d="M226.626 47.1349L250.134 47.1349C250.567 49.0126 251.903 50.6737 254.142 52.1181C256.453 53.4903 259.486 54.5736 263.242 55.368C267.07 56.1624 271.439 56.5597 276.35 56.5597C281.044 56.5597 284.8 56.3069 287.616 55.8013C290.505 55.2958 292.563 54.5014 293.791 53.4181C295.019 52.3348 295.633 50.9626 295.633 49.3015C295.633 47.6404 294.73 46.3766 292.924 45.5099C291.119 44.6433 287.977 43.9933 283.5 43.56C279.022 43.1267 272.883 42.7656 265.083 42.4767C259.161 42.26 253.925 41.7545 249.376 40.9601C244.826 40.0934 240.998 38.9018 237.892 37.3851C234.787 35.7963 232.44 33.8464 230.851 31.5353C229.262 29.152 228.468 26.3354 228.468 23.0855C228.468 18.1745 230.057 14.0219 233.234 10.6275C236.412 7.23316 241.179 4.66933 247.534 2.93604C253.962 1.13054 261.906 0.227783 271.367 0.227783C285.377 0.227783 296.102 2.53884 303.541 7.16094C310.979 11.783 314.699 18.2829 314.699 26.6604L292.166 26.6604C291.877 23.555 289.819 21.2439 285.991 19.7273C282.236 18.2106 277.072 17.4523 270.5 17.4523C264.145 17.4523 259.27 17.994 255.875 19.0773C252.481 20.1606 250.784 22.0022 250.784 24.6022C250.784 25.7577 251.217 26.7327 252.084 27.5271C253.023 28.2493 254.575 28.8993 256.742 29.477C258.981 29.9826 262.05 30.4159 265.95 30.777C269.85 31.1381 274.797 31.427 280.791 31.6436C287.075 31.8603 292.491 32.4019 297.041 33.2686C301.663 34.1352 305.455 35.3269 308.416 36.8435C311.449 38.3601 313.652 40.3101 315.024 42.6933C316.468 45.0766 317.19 47.8932 317.19 51.1431C317.19 56.1263 315.71 60.3151 312.749 63.7095C309.788 67.0316 305.13 69.5593 298.774 71.2926C292.491 72.9537 284.222 73.7842 273.967 73.7842C267.828 73.7842 262.231 73.3148 257.175 72.3759C252.12 71.437 247.678 70.1371 243.851 68.476C240.023 66.7427 236.809 64.7567 234.209 62.5178C231.609 60.279 229.659 57.8596 228.359 55.2597C227.132 52.6598 226.554 49.9515 226.626 47.1349Z" fill="url(#paint5_linear_44_788)"/>
<path d="M145.249 42.585L145.249 54.718L216.314 54.718L216.314 71.8343L123.258 71.8343L123.258 2.17773L216.097 2.17773L216.097 19.4023L145.249 19.4023L145.249 31.5353L203.206 31.5353L203.206 42.585L145.249 42.585Z" fill="url(#paint6_linear_44_788)"/>
<path d="M63.3717 2.17773C72.3271 2.17773 79.7657 3.1166 85.6878 4.99432C91.6099 6.87205 96.2681 9.43588 99.6625 12.6858C103.129 15.9357 105.585 19.6551 107.029 23.8438C108.473 27.9604 109.196 32.3297 109.196 36.9518C109.196 41.5017 108.401 45.871 106.812 50.0598C105.223 54.2486 102.623 58.0041 99.0125 61.3262C95.4737 64.5761 90.7794 67.1399 84.9295 69.0177C79.0797 70.8954 71.8937 71.8343 63.3717 71.8343L0.540039 71.8343L0.540039 2.17773L63.3717 2.17773ZM22.5311 53.8514L62.6134 53.8514C67.0911 53.8514 70.8465 53.4542 73.8798 52.6598C76.9853 51.7931 79.4408 50.6015 81.2463 49.0848C83.0518 47.5682 84.3517 45.7988 85.1462 43.7767C86.0128 41.6823 86.4461 39.4073 86.4461 36.9518C86.4461 34.4241 86.0128 32.1492 85.1462 30.127C84.3517 28.1048 83.0518 26.3354 81.2463 24.8188C79.4408 23.3022 76.9853 22.1467 73.8798 21.3522C70.8465 20.5578 67.0911 20.1606 62.6134 20.1606L22.5311 20.1606L22.5311 53.8514Z" fill="url(#paint7_linear_44_788)"/>
<defs>
<linearGradient id="paint0_linear_44_788" x1="789.92" y1="71.8341" x2="883.077" y2="71.0819" gradientUnits="userSpaceOnUse">
<stop stop-color="#C5F415"/>
<stop offset="1" stop-color="#CAFF00"/>
</linearGradient>
<linearGradient id="paint1_linear_44_788" x1="621.436" y1="71.8341" x2="764.077" y2="70.0705" gradientUnits="userSpaceOnUse">
<stop stop-color="#C5F415"/>
<stop offset="1" stop-color="#CAFF00"/>
</linearGradient>
<linearGradient id="paint2_linear_44_788" x1="497.848" y1="71.8341" x2="597.408" y2="70.975" gradientUnits="userSpaceOnUse">
<stop stop-color="#C5F415"/>
<stop offset="1" stop-color="#CAFF00"/>
</linearGradient>
<linearGradient id="paint3_linear_44_788" x1="369.392" y1="73.6758" x2="473.955" y2="72.7757" gradientUnits="userSpaceOnUse">
<stop stop-color="#C5F415"/>
<stop offset="1" stop-color="#CAFF00"/>
</linearGradient>
<linearGradient id="paint4_linear_44_788" x1="331.241" y1="71.8341" x2="351.655" y2="71.798" gradientUnits="userSpaceOnUse">
<stop stop-color="#C5F415"/>
<stop offset="1" stop-color="#CAFF00"/>
</linearGradient>
<linearGradient id="paint5_linear_44_788" x1="226.872" y1="73.784" x2="310.53" y2="73.2096" gradientUnits="userSpaceOnUse">
<stop stop-color="#C5F415"/>
<stop offset="1" stop-color="#CAFF00"/>
</linearGradient>
<linearGradient id="paint6_linear_44_788" x1="123.516" y1="71.8341" x2="209.47" y2="71.1938" gradientUnits="userSpaceOnUse">
<stop stop-color="#C5F415"/>
<stop offset="1" stop-color="#CAFF00"/>
</linearGradient>
<linearGradient id="paint7_linear_44_788" x1="0.842062" y1="71.8341" x2="101.202" y2="70.9611" gradientUnits="userSpaceOnUse">
<stop stop-color="#C5F415"/>
<stop offset="1" stop-color="#CAFF00"/>
</linearGradient>
</defs>
</svg>
