<svg width="1347" height="1021" viewBox="0 0 1347 1021" fill="none" xmlns="http://www.w3.org/2000/svg">
<path d="M32.5001 5L32.5001 963M63.5002 5L63.5001 963M94.5002 5L94.5002 963M125.5 5L125.5 963M156.5 5L156.5 963M187.5 5L187.5 963M218.5 5L218.5 963M249.5 5L249.5 963M280.5 5L280.5 963M311.5 5L311.5 963M342.5 5L342.5 963M373.5 5L373.5 963M404.5 5L404.5 963M435.5 5L435.5 963M466.5 5L466.5 963M497.5 5L497.5 963M528.5 5L528.5 963M559.5 5L559.5 963M590.5 5L590.5 963M621.5 5L621.5 963M652.5 5L652.5 963M683.5 5L683.5 963M714.5 5L714.5 963M745.5 5L745.5 963M776.5 5L776.5 963M807.5 5L807.5 963M838.5 5L838.5 963M869.5 5L869.5 963M900.5 5L900.5 963M931.5 5L931.5 963M962.5 5L962.5 963M993.5 5L993.5 963M1024.5 5L1024.5 963M1055.5 5V963M1086.5 5L1086.5 963M1117.5 5L1117.5 963M1148.5 5L1148.5 963M1179.5 5L1179.5 963M1210.5 5L1210.5 963M1241.5 5L1241.5 963M1272.5 5L1272.5 963M1303.5 5L1303.5 963M1333 34.5L12.9996 34.4999M1333 5.50005L12.9996 5.49994M1333 65.5L12.9995 65.4999M1333 96.5001L12.9995 96.5M1333 127.5L12.9995 127.5M1333 158.5L12.9995 158.5M1333 189.5L12.9995 189.5M1333 220.5L12.9995 220.5M1333 251.5L12.9995 251.5M1333 282.5L12.9995 282.5M1333 313.5L12.9995 313.5M1333 344.5L12.9995 344.5M1333 375.5L12.9995 375.5M1333 406.5L12.9995 406.5M1333 437.5L12.9995 437.5M1333 468.5L12.9995 468.5M1333 499.5L12.9995 499.5M1333 530.5L12.9995 530.5M1333 561.5L12.9995 561.5M1333 592.5L12.9995 592.5M1333 623.5L12.9995 623.5M1333 654.5L12.9995 654.5M1333 685.5L12.9995 685.5M1333 716.5L12.9995 716.5M1333 747.5L12.9995 747.5M1333 778.5L12.9995 778.5M1333 809.5L12.9995 809.5M1333 840.5L12.9995 840.5M1333 871.5L12.9995 871.5M1333 902.5L12.9995 902.5M1333 933.5L12.9995 933.5" stroke="url(#paint0_linear_0_2120)"/>
<defs>
<linearGradient id="paint0_linear_0_2120" x1="673" y1="5" x2="673" y2="963" gradientUnits="userSpaceOnUse">
<stop stop-color="#EDEDED"/>
<stop offset="1" stop-color="white" stop-opacity="0"/>
</linearGradient>
</defs>
</svg>
