<svg width="81" height="68" viewBox="0 0 81 68" fill="none" xmlns="http://www.w3.org/2000/svg">
<path d="M72.7044 14.492C71.4593 14.492 70.2421 14.1256 69.2068 13.4393C68.1715 12.753 67.3646 11.7775 66.8881 10.6362C66.4116 9.49491 66.2869 8.23905 66.5298 7.02745C66.7727 5.81585 67.3723 4.70292 68.2528 3.82941C69.1332 2.95589 70.255 2.36102 71.4762 2.12002C72.6974 1.87902 73.9633 2.00271 75.1136 2.47545C76.264 2.94819 77.2472 3.74876 77.939 4.7759C78.6308 5.80305 79 7.01064 79 8.24598C79 9.06621 78.8372 9.87842 78.5208 10.6362C78.2044 11.394 77.7407 12.0826 77.1561 12.6626C76.5715 13.2425 75.8775 13.7026 75.1136 14.0165C74.3498 14.3304 73.5312 14.492 72.7044 14.492Z" stroke="#ACFF00" stroke-width="3" stroke-miterlimit="10"/>
<path d="M72.7044 40.2513C71.4593 40.2513 70.2421 39.885 69.2068 39.1987C68.1715 38.5123 67.3646 37.5369 66.8881 36.3955C66.4116 35.2542 66.2869 33.9984 66.5298 32.7868C66.7727 31.5752 67.3723 30.4623 68.2528 29.5887C69.1332 28.7152 70.255 28.1204 71.4762 27.8794C72.6974 27.6384 73.9633 27.762 75.1136 28.2348C76.264 28.7075 77.2472 29.5081 77.939 30.5352C78.6308 31.5624 79 32.77 79 34.0053C79 34.8256 78.8372 35.6378 78.5208 36.3955C78.2044 37.1533 77.7407 37.8419 77.1561 38.4219C76.5715 39.0019 75.8775 39.462 75.1136 39.7758C74.3498 40.0897 73.5312 40.2513 72.7044 40.2513Z" stroke="#ACFF00" stroke-width="3" stroke-miterlimit="10"/>
<path d="M72.7044 66C71.4593 66 70.2421 65.6337 69.2068 64.9474C68.1715 64.261 67.3646 63.2856 66.8881 62.1443C66.4116 61.003 66.2869 59.7471 66.5298 58.5355C66.7727 57.3239 67.3723 56.211 68.2528 55.3375C69.1332 54.4639 70.255 53.8691 71.4762 53.6281C72.6974 53.3871 73.9633 53.5108 75.1136 53.9835C76.264 54.4562 77.2472 55.2568 77.939 56.2839C78.6308 57.3111 79 58.5187 79 59.754C79 61.4106 78.3367 62.9992 77.1561 64.1706C75.9754 65.3419 74.3741 66 72.7044 66Z" stroke="#ACFF00" stroke-width="3" stroke-miterlimit="10"/>
<path d="M51.4622 14.492C50.2171 14.492 48.9999 14.1256 47.9646 13.4393C46.9293 12.753 46.1224 11.7775 45.6459 10.6362C45.1694 9.49491 45.0447 8.23905 45.2876 7.02745C45.5305 5.81585 46.1301 4.70292 47.0106 3.82941C47.891 2.95589 49.0128 2.36102 50.234 2.12002C51.4553 1.87902 52.7211 2.00271 53.8714 2.47545C55.0218 2.94819 56.005 3.74876 56.6968 4.7759C57.3886 5.80305 57.7578 7.01064 57.7578 8.24598C57.7578 9.90251 57.0945 11.4912 55.9139 12.6626C54.7332 13.8339 53.1319 14.492 51.4622 14.492Z" stroke="#ACFF00" stroke-width="3" stroke-miterlimit="10"/>
<path d="M51.4622 40.2513C50.2171 40.2513 48.9999 39.885 47.9646 39.1987C46.9293 38.5123 46.1224 37.5369 45.6459 36.3955C45.1694 35.2542 45.0447 33.9984 45.2876 32.7868C45.5305 31.5752 46.1301 30.4623 47.0106 29.5887C47.891 28.7152 49.0128 28.1204 50.234 27.8794C51.4553 27.6384 52.7211 27.762 53.8714 28.2348C55.0218 28.7075 56.005 29.5081 56.6968 30.5352C57.3886 31.5624 57.7578 32.77 57.7578 34.0053C57.7578 35.6619 57.0945 37.2505 55.9139 38.4219C54.7332 39.5932 53.1319 40.2513 51.4622 40.2513Z" stroke="#ACFF00" stroke-width="3" stroke-miterlimit="10"/>
<path d="M51.4622 66C50.2171 66 48.9999 65.6337 47.9646 64.9474C46.9293 64.261 46.1224 63.2856 45.6459 62.1443C45.1694 61.003 45.0447 59.7471 45.2876 58.5355C45.5305 57.3239 46.1301 56.211 47.0106 55.3375C47.891 54.4639 49.0128 53.8691 50.234 53.6281C51.4553 53.3871 52.7211 53.5108 53.8714 53.9835C55.0218 54.4562 56.005 55.2568 56.6968 56.2839C57.3886 57.3111 57.7578 58.5187 57.7578 59.754C57.7578 61.4106 57.0945 62.9992 55.9139 64.1706C54.7332 65.3419 53.1319 66 51.4622 66Z" stroke="#ACFF00" stroke-width="3" stroke-miterlimit="10"/>
<path d="M29.5378 14.492C28.2926 14.492 27.0754 14.1256 26.0401 13.4393C25.0048 12.753 24.1979 11.7775 23.7214 10.6362C23.2449 9.49491 23.1202 8.23905 23.3632 7.02745C23.6061 5.81585 24.2057 4.70292 25.0861 3.82941C25.9666 2.95589 27.0883 2.36102 28.3096 2.12002C29.5308 1.87902 30.7966 2.00271 31.947 2.47545C33.0973 2.94819 34.0806 3.74876 34.7723 4.7759C35.4641 5.80305 35.8333 7.01064 35.8333 8.24598C35.8333 9.06621 35.6705 9.87842 35.3541 10.6362C35.0377 11.394 34.574 12.0826 33.9894 12.6626C33.4048 13.2425 32.7108 13.7026 31.947 14.0165C31.1832 14.3304 30.3645 14.492 29.5378 14.492Z" stroke="#ACFF00" stroke-width="3" stroke-miterlimit="10"/>
<path d="M29.5378 40.2513C28.2926 40.2513 27.0754 39.885 26.0401 39.1987C25.0048 38.5123 24.1979 37.5369 23.7214 36.3955C23.2449 35.2542 23.1202 33.9984 23.3632 32.7868C23.6061 31.5752 24.2057 30.4623 25.0861 29.5887C25.9666 28.7152 27.0883 28.1204 28.3096 27.8794C29.5308 27.6384 30.7966 27.762 31.947 28.2348C33.0973 28.7075 34.0806 29.5081 34.7723 30.5352C35.4641 31.5624 35.8333 32.77 35.8333 34.0053C35.8333 34.8256 35.6705 35.6378 35.3541 36.3955C35.0377 37.1533 34.574 37.8419 33.9894 38.4219C33.4048 39.0019 32.7108 39.462 31.947 39.7758C31.1832 40.0897 30.3645 40.2513 29.5378 40.2513Z" stroke="#ACFF00" stroke-width="3" stroke-miterlimit="10"/>
<path d="M29.5378 66C28.2926 66 27.0754 65.6337 26.0401 64.9474C25.0048 64.261 24.1979 63.2856 23.7214 62.1443C23.2449 61.003 23.1202 59.7471 23.3632 58.5355C23.6061 57.3239 24.2057 56.211 25.0861 55.3375C25.9666 54.4639 27.0883 53.8691 28.3096 53.6281C29.5308 53.3871 30.7966 53.5108 31.947 53.9835C33.0973 54.4562 34.0806 55.2568 34.7723 56.2839C35.4641 57.3111 35.8333 58.5187 35.8333 59.754C35.8333 61.4106 35.1701 62.9992 33.9894 64.1706C32.8088 65.3419 31.2075 66 29.5378 66Z" stroke="#ACFF00" stroke-width="3" stroke-miterlimit="10"/>
<path d="M8.29557 14.492C7.05043 14.492 5.83324 14.1256 4.79794 13.4393C3.76264 12.753 2.95572 11.7775 2.47922 10.6362C2.00273 9.49491 1.87805 8.23905 2.12097 7.02745C2.36389 5.81585 2.96348 4.70292 3.84393 3.82941C4.72438 2.95589 5.84615 2.36102 7.06737 2.12002C8.28859 1.87902 9.55442 2.00271 10.7048 2.47545C11.8551 2.94819 12.8384 3.74876 13.5301 4.7759C14.2219 5.80305 14.5911 7.01064 14.5911 8.24598C14.5911 9.90251 13.9279 11.4912 12.7472 12.6626C11.5666 13.8339 9.96526 14.492 8.29557 14.492Z" stroke="#ACFF00" stroke-width="3" stroke-miterlimit="10"/>
<path d="M8.29557 40.2513C7.05043 40.2513 5.83324 39.885 4.79794 39.1987C3.76264 38.5123 2.95572 37.5369 2.47922 36.3955C2.00273 35.2542 1.87805 33.9984 2.12097 32.7868C2.36389 31.5752 2.96348 30.4623 3.84393 29.5887C4.72438 28.7152 5.84615 28.1204 7.06737 27.8794C8.28859 27.6384 9.55442 27.762 10.7048 28.2348C11.8551 28.7075 12.8384 29.5081 13.5301 30.5352C14.2219 31.5624 14.5911 32.77 14.5911 34.0053C14.5911 35.6619 13.9279 37.2505 12.7472 38.4219C11.5666 39.5932 9.96526 40.2513 8.29557 40.2513Z" stroke="#ACFF00" stroke-width="3" stroke-miterlimit="10"/>
<path d="M8.29557 66C7.05043 66 5.83324 65.6337 4.79794 64.9474C3.76264 64.261 2.95572 63.2856 2.47922 62.1443C2.00273 61.003 1.87805 59.7471 2.12097 58.5355C2.36389 57.3239 2.96348 56.211 3.84393 55.3375C4.72438 54.4639 5.84615 53.8691 7.06737 53.6281C8.28859 53.3871 9.55442 53.5108 10.7048 53.9835C11.8551 54.4562 12.8384 55.2568 13.5301 56.2839C14.2219 57.3111 14.5911 58.5187 14.5911 59.754C14.5911 61.4106 13.9279 62.9992 12.7472 64.1706C11.5666 65.3419 9.96526 66 8.29557 66Z" stroke="#ACFF00" stroke-width="3" stroke-miterlimit="10"/>
</svg>
