<svg width="677" height="172" viewBox="0 0 677 172" fill="none" xmlns="http://www.w3.org/2000/svg">
<path d="M-2.49999 -1L-2.50003 957M28.5 -1L28.5 957M59.5001 -1L59.5 957M90.5001 -1L90.5001 957M121.5 -1L121.5 957M152.5 -1L152.5 957M183.5 -1L183.5 957M214.5 -1L214.5 957M245.5 -1L245.5 957M276.5 -1L276.5 957M307.5 -1L307.5 957M338.5 -1L338.5 957M369.5 -1L369.5 957M400.5 -1L400.5 957M431.5 -1L431.5 957M462.5 -1L462.5 957M493.5 -1L493.5 957M524.5 -1L524.5 957M555.5 -1L555.5 957M586.5 -1L586.5 957M617.5 -1L617.5 957M648.5 -1L648.5 957M679.5 -1L679.5 957M710.5 -1L710.5 957M741.5 -1L741.5 957M772.5 -1L772.5 957M803.5 -1L803.5 957M834.5 -1L834.5 957M865.5 -1L865.5 957M896.5 -1L896.5 957M927.5 -1L927.5 957M958.5 -1L958.5 957M989.5 -1L989.5 957M1020.5 -1V957M1051.5 -1L1051.5 957M1082.5 -1L1082.5 957M1113.5 -1L1113.5 957M1144.5 -1L1144.5 957M1175.5 -1L1175.5 957M1206.5 -1L1206.5 957M1237.5 -1L1237.5 957M1268.5 -1L1268.5 957M1298 28.5L-22.0006 28.4999M1298 -0.499946L-22.0006 -0.500061M1298 59.5L-22.0006 59.4999M1298 90.5001L-22.0006 90.5M1298 121.5L-22.0006 121.5M1298 152.5L-22.0006 152.5M1298 183.5L-22.0006 183.5M1298 214.5L-22.0006 214.5M1298 245.5L-22.0006 245.5M1298 276.5L-22.0006 276.5M1298 307.5L-22.0006 307.5M1298 338.5L-22.0006 338.5M1298 369.5L-22.0006 369.5M1298 400.5L-22.0006 400.5M1298 431.5L-22.0006 431.5M1298 462.5L-22.0006 462.5M1298 493.5L-22.0006 493.5M1298 524.5L-22.0006 524.5M1298 555.5L-22.0006 555.5M1298 586.5L-22.0006 586.5M1298 617.5L-22.0006 617.5M1298 648.5L-22.0006 648.5M1298 679.5L-22.0006 679.5M1298 710.5L-22.0006 710.5M1298 741.5L-22.0006 741.5M1298 772.5L-22.0006 772.5M1298 803.5L-22.0006 803.5M1298 834.5L-22.0006 834.5M1298 865.5L-22.0006 865.5M1298 896.5L-22.0006 896.5M1298 927.5L-22.0006 927.5" stroke="url(#paint0_linear_0_1378)"/>
<defs>
<linearGradient id="paint0_linear_0_1378" x1="254" y1="162" x2="637.999" y2="957" gradientUnits="userSpaceOnUse">
<stop stop-color="#F0F0F0" stop-opacity="0.92"/>
<stop offset="1" stop-color="white"/>
</linearGradient>
</defs>
</svg>
