<svg width="54" height="101" viewBox="0 0 54 101" fill="none" xmlns="http://www.w3.org/2000/svg">
<g clip-path="url(#clip0_0_1387)">
<path d="M39.2091 84.0598H16.5866L23.3324 60.0044H32.4634L39.2091 84.0598Z" fill="#77D58A"/>
<path d="M47.983 83.4382C46.6147 83.4355 45.2899 83.9183 44.2441 84.8006C44.096 83.6238 43.5972 82.5188 42.8124 81.6294C42.0277 80.7401 40.9934 80.1075 39.8442 79.814C38.695 79.5205 37.4841 79.5797 36.369 79.9839C35.2539 80.3881 34.2863 81.1186 33.5921 82.0803C32.7832 81.0162 31.7233 80.1692 30.5071 79.6148C29.2909 79.0604 27.9563 78.8159 26.6226 78.9033C25.2889 78.9906 23.9976 79.407 22.8641 80.1153C21.7306 80.8236 20.7902 81.8016 20.127 82.9621C19.5323 81.5478 18.467 80.3825 17.1115 79.6635C15.7561 78.9446 14.1938 78.7163 12.6893 79.0172C11.1848 79.3181 9.83057 80.1297 8.8559 81.3147C7.88123 82.4996 7.34605 83.985 7.34101 85.5193C7.34101 85.5898 7.34101 85.656 7.34101 85.7221C6.86975 85.602 6.3856 85.5398 5.89927 85.5369C4.94508 85.5354 4.00476 85.7653 3.15895 86.207C2.31315 86.6487 1.58712 87.289 1.04313 88.073C0.499137 88.8569 0.153428 89.7611 0.0356531 90.708C-0.0821216 91.6549 0.0315533 92.6162 0.366927 93.5095C0.702301 94.4029 1.24936 95.2015 1.96119 95.8369C2.67302 96.4724 3.52836 96.9257 4.45386 97.1579C5.37936 97.3902 6.34738 97.3945 7.2749 97.1704C8.20242 96.9464 9.06174 96.5007 9.77917 95.8716C10.0463 96.8917 10.5468 97.8357 11.2414 98.6291C11.9359 99.4226 12.8053 100.044 13.7811 100.444C14.7568 100.843 15.8122 101.011 16.8637 100.933C17.9153 100.855 18.9344 100.533 19.8405 99.994C21.2146 100.814 22.8338 101.123 24.4135 100.868C25.9932 100.612 27.4323 99.8079 28.4776 98.5963C29.0678 99.283 29.7891 99.8448 30.5993 100.249C31.4095 100.653 32.2923 100.891 33.1958 100.95C34.0993 101.008 35.0054 100.885 35.8609 100.589C36.7163 100.292 37.5039 99.8275 38.1774 99.2224C38.9346 100.026 39.9159 100.584 40.9941 100.824C42.0723 101.064 43.1976 100.974 44.2241 100.566C45.2506 100.158 46.1309 99.4515 46.7508 98.5374C47.3707 97.6233 47.7017 96.544 47.7008 95.4395C47.7008 95.3072 47.7008 95.1749 47.7008 95.0427C47.8066 95.0427 47.908 95.0427 48.0182 95.0427C49.5311 95.001 50.9681 94.3707 52.0234 93.2859C53.0787 92.2011 53.6692 90.7473 53.6692 89.2338C53.6692 87.7204 53.0787 86.2666 52.0234 85.1818C50.9681 84.097 49.5311 83.4667 48.0182 83.425L47.983 83.4382Z" fill="#77D58A"/>
<path d="M45.8534 92.578C50.2624 92.7984 50.5225 86.1761 46.1091 86.0262C45.4032 86.0305 44.7167 86.2573 44.1471 86.6743C43.0978 87.49 41.0609 87.468 40.7787 85.7925C40.2496 82.4417 36.5328 81.5202 34.443 84.1921C34.2576 84.3803 34.0366 84.5298 33.7928 84.6318C33.5491 84.7338 33.2875 84.7864 33.0233 84.7864C32.7591 84.7864 32.4975 84.7338 32.2538 84.6318C32.01 84.5298 31.789 84.3803 31.6036 84.1921C29.139 81.1323 24.6066 81.1058 22.4947 84.5933C21.7804 85.7749 19.6773 86.0439 19.0204 84.5933C18.1386 82.6137 16.1061 81.3042 13.9016 82.0537C13.0631 82.3376 12.339 82.8853 11.8375 83.6148C11.3361 84.3444 11.0842 85.2166 11.1195 86.1012C11.1548 87.4635 9.79681 88.3057 8.57993 88.0279C6.37544 87.565 3.8976 89.452 4.47518 91.8549C5.05275 94.2578 7.82159 95.6025 9.90263 93.9227C11.071 92.9748 12.8081 93.2393 13.2711 94.8045C13.9677 97.1633 16.7983 98.8387 19.1262 97.5337C20.1755 96.9517 20.8104 97.031 21.8598 97.5337C22.4298 97.8098 23.0561 97.9502 23.6895 97.9437C24.3091 97.9254 24.918 97.7775 25.4769 97.5094C26.0359 97.2413 26.5324 96.8591 26.9345 96.3873C27.3127 96.0123 27.8238 95.8018 28.3564 95.8018C28.889 95.8018 29.4001 96.0123 29.7783 96.3873C31.3523 98.098 33.883 98.5433 35.7525 96.9737C36.135 96.607 36.6444 96.4022 37.1744 96.4022C37.7043 96.4022 38.2137 96.607 38.5962 96.9737C40.7302 99.0636 43.9752 97.494 43.8297 94.5796C43.8303 94.3151 43.8832 94.0532 43.9853 93.8092C44.0875 93.5652 44.237 93.3438 44.4251 93.1577C44.6132 92.9717 44.8362 92.8247 45.0813 92.7252C45.3265 92.6257 45.5889 92.5756 45.8534 92.578Z" fill="white"/>
<path d="M33.5788 85.1708H22.1728L25.5765 60.0044H30.1751L33.5788 85.1708Z" fill="white"/>
<path d="M27.7281 62.1825C26.3587 62.1883 24.9912 62.0762 23.641 61.8475C23.2001 61.7152 22.6269 61.217 22.0009 60.366C21.9648 60.3219 21.9351 60.2729 21.9127 60.2205L20.6208 57.5752H19.6773C19.1294 57.5401 18.6153 57.2977 18.2396 56.8972C17.864 56.4968 17.6549 55.9683 17.6549 55.4192C17.6549 54.8701 17.864 54.3416 18.2396 53.9411C18.6153 53.5406 19.1294 53.2982 19.6773 53.2632H34.1211C34.6691 53.2982 35.1832 53.5406 35.5588 53.9411C35.9345 54.3416 36.1436 54.8701 36.1436 55.4192C36.1436 55.9683 35.9345 56.4968 35.5588 56.8972C35.1832 57.2977 34.6691 57.5401 34.1211 57.5752H33.5347C33.0938 58.382 32.4942 59.5239 32.1724 60.1412C31.8351 60.8927 31.2253 61.4882 30.4661 61.8078C29.5842 62.0996 28.656 62.2267 27.7281 62.1825Z" fill="#77D58A"/>
<path d="M36.4094 53.4704C36.216 53.2111 35.9806 52.986 35.7128 52.8046C35.4341 52.616 35.1233 52.48 34.7957 52.4034C34.5769 52.3466 34.3516 52.3184 34.1255 52.3196H19.6729C19.4454 52.3181 19.2186 52.3463 18.9983 52.4034C18.6719 52.4816 18.3625 52.6191 18.0857 52.809C17.8139 52.9868 17.5752 53.2106 17.3802 53.4704C16.9438 54.0328 16.708 54.7249 16.7101 55.4368C16.6911 56.243 16.9921 57.024 17.5473 57.609C18.1025 58.1939 18.8668 58.5353 19.6729 58.5583H20.0212L21.0485 60.6438C21.0978 60.7477 21.1568 60.8466 21.2249 60.9392C22.3668 62.4867 23.1075 62.7028 23.3853 62.7777C24.8176 63.0293 26.2695 63.1533 27.7237 63.1481C28.771 63.1964 29.8181 63.0468 30.81 62.7072C31.7852 62.3024 32.5722 61.5453 33.0145 60.5865C33.2702 60.0971 33.7111 59.2638 34.0991 58.5451C34.9056 58.5232 35.6705 58.1822 36.226 57.597C36.7814 57.0118 37.0821 56.2301 37.0619 55.4236C37.0682 54.718 36.8385 54.0305 36.4094 53.4704ZM35.1528 55.4368C35.1723 55.7323 35.0744 56.0235 34.8804 56.2472C34.6864 56.4709 34.412 56.609 34.1167 56.6316H32.9572C32.5736 57.3459 31.7226 58.9375 31.317 59.7179C31.0868 60.2573 30.6572 60.6869 30.1178 60.9171C29.3432 61.1551 28.5329 61.255 27.7237 61.2125C26.4482 61.2128 25.1746 61.1141 23.9144 60.9171C23.5264 60.8069 22.7724 59.7884 22.7724 59.7884L21.2205 56.6228H19.6729C19.3773 56.6002 19.1025 56.4622 18.9078 56.2386C18.7131 56.0151 18.6142 55.7239 18.6324 55.428C18.6352 55.0985 18.7647 54.7828 18.9939 54.5462C19.1727 54.363 19.417 54.2583 19.6729 54.2552H34.1167C34.2429 54.2564 34.3675 54.2827 34.4833 54.3327C34.5992 54.3826 34.7039 54.4552 34.7913 54.5462C35.0227 54.785 35.1523 55.1043 35.1528 55.4368Z" fill="white"/>
<path d="M37.2736 27.3604C37.0482 27.1468 36.7508 27.0257 36.4403 27.0209C35.6202 27.0209 34.9588 27.9027 34.7031 28.2775C34.6741 28.3129 34.649 28.3514 34.6282 28.3921C34.4165 28.8066 34.1873 29.2254 34.0065 29.6531C33.9227 29.8206 33.8434 29.9926 33.7596 30.1645C32.3664 29.6178 31.6257 28.1585 31.2729 27.1797L31.6874 26.8975C32.1283 26.5668 33.2217 25.6762 33.3319 24.5034C33.3564 24.2085 33.3149 23.9119 33.2104 23.6351C33.1059 23.3583 32.9411 23.1082 32.7279 22.903C32.6004 22.7715 32.4475 22.6673 32.2785 22.5968C32.1094 22.5263 31.9278 22.491 31.7447 22.4929C31.3259 22.4962 30.9205 22.6407 30.594 22.903C30.1864 23.2289 29.8734 23.6579 29.6873 24.1455C29.5013 24.6331 29.449 25.1616 29.5358 25.6762C29.5358 25.7732 29.5358 25.8746 29.5755 25.976C29.5755 26.1568 29.6284 26.3376 29.6637 26.5227L29.2228 26.6991C28.74 26.8753 28.2287 26.9605 27.7149 26.9504C27.2182 26.9473 26.7232 26.8927 26.2379 26.7873C26.025 26.7459 25.8178 26.6793 25.6206 26.5889L25.7088 26.4831L25.9954 26.1303C26.6171 25.3588 27.2872 24.3932 27.1682 23.4849C27.1319 23.248 27.0465 23.0213 26.9174 22.8193C26.7883 22.6174 26.6184 22.4446 26.4187 22.3122C26.1325 22.0958 25.7853 21.9755 25.4266 21.9683C25.163 21.9797 24.905 22.0484 24.6705 22.1694C24.4361 22.2905 24.2307 22.461 24.0687 22.6693C23.4139 23.4456 23.0782 24.4415 23.1296 25.4558C23.1648 25.728 23.239 25.9938 23.35 26.245C23.4249 26.4226 23.5196 26.5912 23.6322 26.7476C22.7611 27.8261 21.6718 28.7081 20.4357 29.3357L20.2108 28.8948L19.9727 28.4142C19.5671 27.5809 18.7118 26.6065 17.636 26.6065C17.2711 26.6091 16.9146 26.7162 16.6087 26.9151C16.3944 27.04 16.2133 27.2145 16.0805 27.4239C15.9478 27.6334 15.8673 27.8717 15.8459 28.1188C15.8488 28.5325 15.9413 28.9407 16.1171 29.3151C16.293 29.6896 16.5479 30.0215 16.8644 30.288C17.4509 30.8337 18.2237 31.135 19.0248 31.1301C19.0791 31.1345 19.1336 31.1345 19.1879 31.1301C19.3714 31.1261 19.5543 31.1069 19.7346 31.0728C21.6314 35.2086 23.2099 39.483 24.4567 43.8588C24.5492 44.1763 24.6374 44.4981 24.73 44.82H26.6964C26.6872 44.6946 26.6651 44.5705 26.6303 44.4496C26.573 44.2512 26.5156 44.0528 26.4627 43.8588C25.2156 39.4007 23.6387 35.0414 21.7451 30.8171C22.8917 30.1613 23.9225 29.3212 24.7961 28.3304H24.827C25.1545 28.4787 25.4976 28.5896 25.8499 28.6611C26.4616 28.7914 27.085 28.8593 27.7105 28.8639C28.4042 28.8717 29.0942 28.7629 29.7518 28.542C30.294 29.8498 31.2453 30.9466 32.4634 31.668C30.7465 35.6181 29.3014 39.6809 28.1382 43.828H30.1442C31.3219 39.6976 32.7954 35.6574 34.5532 31.7386C34.6943 31.7386 34.8398 31.7606 34.9941 31.7606H35.1087C36.4314 31.7297 37.4146 31.0993 37.7938 30.0676C38.0848 29.221 38.0539 28.0482 37.2736 27.3604ZM18.9939 29.7854C18.697 29.7655 18.4073 29.6843 18.1432 29.547C17.8792 29.4096 17.6464 29.2191 17.4596 28.9874C17.3654 28.882 17.2966 28.7565 17.2584 28.6205C17.2202 28.4845 17.2136 28.3415 17.2392 28.2026C17.2788 28.0438 17.4905 27.9733 17.6801 27.9733H17.7771C18.218 28.0394 18.531 28.5553 18.7735 29.0535L19.1306 29.7677L18.9939 29.7854ZM31.0084 24.4637C31.1495 24.186 31.4493 23.8906 31.6565 23.8906C31.7535 23.8906 31.8461 23.9655 31.9387 24.1154C32.0313 24.2653 32.0004 24.4902 31.8549 24.7856C31.6243 25.2055 31.2962 25.5639 30.8982 25.8305C30.7887 25.3748 30.8273 24.896 31.0084 24.4637ZM24.7168 24.0802C24.8442 23.7958 25.0718 23.5683 25.3561 23.4409C25.4248 23.4067 25.4999 23.3872 25.5765 23.3835C25.5968 23.3811 25.6173 23.3849 25.6354 23.3943C25.6535 23.4038 25.6683 23.4185 25.6779 23.4365C25.7724 23.6914 25.7629 23.9733 25.6515 24.2212C25.3997 24.6982 25.0902 25.1425 24.73 25.5439L24.6198 25.6762C24.5227 25.4183 24.4812 25.1429 24.4979 24.8678C24.5146 24.5928 24.5892 24.3244 24.7168 24.0802ZM35.1837 30.3718C35.3997 29.9309 35.6246 29.49 35.823 29.0711L35.8495 29.027C36.1889 28.4759 36.3344 28.4142 36.3829 28.4142C36.4403 28.4406 36.5417 28.595 36.5725 29.0094L35.1837 30.3718ZM37.2736 27.3604C37.0482 27.1468 36.7508 27.0257 36.4403 27.0209C35.6202 27.0209 34.9588 27.9027 34.7031 28.2775C34.6741 28.3129 34.649 28.3514 34.6282 28.3921C34.4165 28.8066 34.1873 29.2254 34.0065 29.6531C33.9227 29.8206 33.8434 29.9926 33.7596 30.1645C32.3664 29.6178 31.6257 28.1585 31.2729 27.1797L31.6874 26.8975C32.1283 26.5668 33.2217 25.6762 33.3319 24.5034C33.3564 24.2085 33.3149 23.9119 33.2104 23.6351C33.1059 23.3583 32.9411 23.1082 32.7279 22.903C32.6004 22.7715 32.4475 22.6673 32.2785 22.5968C32.1094 22.5263 31.9278 22.491 31.7447 22.4929C31.3259 22.4962 30.9205 22.6407 30.594 22.903C30.1864 23.2289 29.8734 23.6579 29.6873 24.1455C29.5013 24.6331 29.449 25.1616 29.5358 25.6762C29.5358 25.7732 29.5358 25.8746 29.5755 25.976C29.5755 26.1568 29.6284 26.3376 29.6637 26.5227L29.2228 26.6991C28.74 26.8753 28.2287 26.9605 27.7149 26.9504C27.2182 26.9473 26.7232 26.8927 26.2379 26.7873C26.025 26.7459 25.8178 26.6793 25.6206 26.5889L25.7088 26.4831L25.9954 26.1303C26.6171 25.3588 27.2872 24.3932 27.1682 23.4849C27.1319 23.248 27.0465 23.0213 26.9174 22.8193C26.7883 22.6174 26.6184 22.4446 26.4187 22.3122C26.1325 22.0958 25.7853 21.9755 25.4266 21.9683C25.163 21.9797 24.905 22.0484 24.6705 22.1694C24.4361 22.2905 24.2307 22.461 24.0687 22.6693C23.4139 23.4456 23.0782 24.4415 23.1296 25.4558C23.1648 25.728 23.239 25.9938 23.35 26.245C23.4249 26.4226 23.5196 26.5912 23.6322 26.7476C22.7611 27.8261 21.6718 28.7081 20.4357 29.3357L20.2108 28.8948L19.9727 28.4142C19.5671 27.5809 18.7118 26.6065 17.636 26.6065C17.2711 26.6091 16.9146 26.7162 16.6087 26.9151C16.3944 27.04 16.2133 27.2145 16.0805 27.4239C15.9478 27.6334 15.8673 27.8717 15.8459 28.1188C15.8488 28.5325 15.9413 28.9407 16.1171 29.3151C16.293 29.6896 16.5479 30.0215 16.8644 30.288C17.4509 30.8337 18.2237 31.135 19.0248 31.1301C19.0791 31.1345 19.1336 31.1345 19.1879 31.1301C19.3714 31.1261 19.5543 31.1069 19.7346 31.0728C21.6314 35.2086 23.2099 39.483 24.4567 43.8588C24.5492 44.1763 24.6374 44.4981 24.73 44.82H26.6964C26.6872 44.6946 26.6651 44.5705 26.6303 44.4496C26.573 44.2512 26.5156 44.0528 26.4627 43.8588C25.2156 39.4007 23.6387 35.0414 21.7451 30.8171C22.8917 30.1613 23.9225 29.3212 24.7961 28.3304H24.827C25.1545 28.4787 25.4976 28.5896 25.8499 28.6611C26.4616 28.7914 27.085 28.8593 27.7105 28.8639C28.4042 28.8717 29.0942 28.7629 29.7518 28.542C30.294 29.8498 31.2453 30.9466 32.4634 31.668C30.7465 35.6181 29.3014 39.6809 28.1382 43.828H30.1442C31.3219 39.6976 32.7954 35.6574 34.5532 31.7386C34.6943 31.7386 34.8398 31.7606 34.9941 31.7606H35.1087C36.4314 31.7297 37.4146 31.0993 37.7938 30.0676C38.0848 29.221 38.0539 28.0482 37.2736 27.3604ZM18.9939 29.7854C18.697 29.7655 18.4073 29.6843 18.1432 29.547C17.8792 29.4096 17.6464 29.2191 17.4596 28.9874C17.3654 28.882 17.2966 28.7565 17.2584 28.6205C17.2202 28.4845 17.2136 28.3415 17.2392 28.2026C17.2788 28.0438 17.4905 27.9733 17.6801 27.9733H17.7771C18.218 28.0394 18.531 28.5553 18.7735 29.0535L19.1306 29.7677L18.9939 29.7854ZM31.0084 24.4637C31.1495 24.186 31.4493 23.8906 31.6565 23.8906C31.7535 23.8906 31.8461 23.9655 31.9387 24.1154C32.0313 24.2653 32.0004 24.4902 31.8549 24.7856C31.6243 25.2055 31.2962 25.5639 30.8982 25.8305C30.7887 25.3748 30.8273 24.896 31.0084 24.4637ZM24.7168 24.0802C24.8442 23.7958 25.0718 23.5683 25.3561 23.4409C25.4248 23.4067 25.4999 23.3872 25.5765 23.3835C25.5968 23.3811 25.6173 23.3849 25.6354 23.3943C25.6535 23.4038 25.6683 23.4185 25.6779 23.4365C25.7724 23.6914 25.7629 23.9733 25.6515 24.2212C25.3997 24.6982 25.0902 25.1425 24.73 25.5439L24.6198 25.6762C24.5227 25.4183 24.4812 25.1429 24.4979 24.8678C24.5146 24.5928 24.5892 24.3244 24.7168 24.0802ZM35.1837 30.3718C35.3997 29.9309 35.6246 29.49 35.823 29.0711L35.8495 29.027C36.1889 28.4759 36.3344 28.4142 36.3829 28.4142C36.4403 28.4406 36.5417 28.595 36.5725 29.0094L35.1837 30.3718ZM37.2736 27.3604C37.0482 27.1468 36.7508 27.0257 36.4403 27.0209C35.6202 27.0209 34.9588 27.9027 34.7031 28.2775C34.6741 28.3129 34.649 28.3514 34.6282 28.3921C34.4165 28.8066 34.1873 29.2254 34.0065 29.6531C33.9227 29.8206 33.8434 29.9926 33.7596 30.1645C32.3664 29.6178 31.6257 28.1585 31.2729 27.1797L31.6874 26.8975C32.1283 26.5668 33.2217 25.6762 33.3319 24.5034C33.3564 24.2085 33.3149 23.9119 33.2104 23.6351C33.1059 23.3583 32.9411 23.1082 32.7279 22.903C32.6004 22.7715 32.4475 22.6673 32.2785 22.5968C32.1094 22.5263 31.9278 22.491 31.7447 22.4929C31.3259 22.4962 30.9205 22.6407 30.594 22.903C30.1864 23.2289 29.8734 23.6579 29.6873 24.1455C29.5013 24.6331 29.449 25.1616 29.5358 25.6762C29.5358 25.7732 29.5358 25.8746 29.5755 25.976C29.5755 26.1568 29.6284 26.3376 29.6637 26.5227L29.2228 26.6991C28.74 26.8753 28.2287 26.9605 27.7149 26.9504C27.2182 26.9473 26.7232 26.8927 26.2379 26.7873C26.025 26.7459 25.8178 26.6793 25.6206 26.5889L25.7088 26.4831L25.9954 26.1303C26.6171 25.3588 27.2872 24.3932 27.1682 23.4849C27.1319 23.248 27.0465 23.0213 26.9174 22.8193C26.7883 22.6174 26.6184 22.4446 26.4187 22.3122C26.1325 22.0958 25.7853 21.9755 25.4266 21.9683C25.163 21.9797 24.905 22.0484 24.6705 22.1694C24.4361 22.2905 24.2307 22.461 24.0687 22.6693C23.4139 23.4456 23.0782 24.4415 23.1296 25.4558C23.1648 25.728 23.239 25.9938 23.35 26.245C23.4249 26.4226 23.5196 26.5912 23.6322 26.7476C22.7611 27.8261 21.6718 28.7081 20.4357 29.3357L20.2108 28.8948L19.9727 28.4142C19.5671 27.5809 18.7118 26.6065 17.636 26.6065C17.2711 26.6091 16.9146 26.7162 16.6087 26.9151C16.3944 27.04 16.2133 27.2145 16.0805 27.4239C15.9478 27.6334 15.8673 27.8717 15.8459 28.1188C15.8488 28.5325 15.9413 28.9407 16.1171 29.3151C16.293 29.6896 16.5479 30.0215 16.8644 30.288C17.4509 30.8337 18.2237 31.135 19.0248 31.1301C19.0791 31.1345 19.1336 31.1345 19.1879 31.1301C19.3714 31.1261 19.5543 31.1069 19.7346 31.0728C21.6314 35.2086 23.2099 39.483 24.4567 43.8588C24.5492 44.1763 24.6374 44.4981 24.73 44.82H26.6964C26.6872 44.6946 26.6651 44.5705 26.6303 44.4496C26.573 44.2512 26.5156 44.0528 26.4627 43.8588C25.2156 39.4007 23.6387 35.0414 21.7451 30.8171C22.8917 30.1613 23.9225 29.3212 24.7961 28.3304H24.827C25.1545 28.4787 25.4976 28.5896 25.8499 28.6611C26.4616 28.7914 27.085 28.8593 27.7105 28.8639C28.4042 28.8717 29.0942 28.7629 29.7518 28.542C30.294 29.8498 31.2453 30.9466 32.4634 31.668C30.7465 35.6181 29.3014 39.6809 28.1382 43.828H30.1442C31.3219 39.6976 32.7954 35.6574 34.5532 31.7386C34.6943 31.7386 34.8398 31.7606 34.9941 31.7606H35.1087C36.4314 31.7297 37.4146 31.0993 37.7938 30.0676C38.0848 29.221 38.0539 28.0482 37.2736 27.3604ZM18.9939 29.7854C18.697 29.7655 18.4073 29.6843 18.1432 29.547C17.8792 29.4096 17.6464 29.2191 17.4596 28.9874C17.3654 28.882 17.2966 28.7565 17.2584 28.6205C17.2202 28.4845 17.2136 28.3415 17.2392 28.2026C17.2788 28.0438 17.4905 27.9733 17.6801 27.9733H17.7771C18.218 28.0394 18.531 28.5553 18.7735 29.0535L19.1306 29.7677L18.9939 29.7854ZM31.0084 24.4637C31.1495 24.186 31.4493 23.8906 31.6565 23.8906C31.7535 23.8906 31.8461 23.9655 31.9387 24.1154C32.0313 24.2653 32.0004 24.4902 31.8549 24.7856C31.6243 25.2055 31.2962 25.5639 30.8982 25.8305C30.7887 25.3748 30.8273 24.896 31.0084 24.4637ZM24.7168 24.0802C24.8442 23.7958 25.0718 23.5683 25.3561 23.4409C25.4248 23.4067 25.4999 23.3872 25.5765 23.3835C25.5968 23.3811 25.6173 23.3849 25.6354 23.3943C25.6535 23.4038 25.6683 23.4185 25.6779 23.4365C25.7724 23.6914 25.7629 23.9733 25.6515 24.2212C25.3997 24.6982 25.0902 25.1425 24.73 25.5439L24.6198 25.6762C24.5227 25.4183 24.4812 25.1429 24.4979 24.8678C24.5146 24.5928 24.5892 24.3244 24.7168 24.0802ZM35.1837 30.3718C35.3997 29.9309 35.6246 29.49 35.823 29.0711L35.8495 29.027C36.1889 28.4759 36.3344 28.4142 36.3829 28.4142C36.4403 28.4406 36.5417 28.595 36.5725 29.0094L35.1837 30.3718ZM26.8948 0.955078C22.1263 0.956425 17.4949 2.55099 13.7362 5.48552C9.97751 8.42004 7.30706 12.5263 6.14897 17.1521C4.99087 21.7779 5.41153 26.658 7.34414 31.0174C9.27675 35.3767 12.6105 38.9654 16.8159 41.2134V43.8059C16.8144 44.3172 16.9418 44.8207 17.1863 45.2697C17.3574 45.5795 17.5795 45.8582 17.8432 46.0942C18.0881 46.3166 18.3682 46.4969 18.6721 46.6277C19.056 46.7945 19.4703 46.8801 19.889 46.879H24.7697C25.0147 46.8791 25.2574 46.8312 25.4839 46.7379C25.8109 46.6107 26.0962 46.3956 26.3084 46.1162C26.3916 46.0075 26.4612 45.8891 26.5156 45.7635C26.6343 45.511 26.696 45.2356 26.6964 44.9567C26.6964 44.9038 26.6964 44.8553 26.6964 44.8023C26.6872 44.6769 26.6651 44.5528 26.6303 44.432C26.573 44.2336 26.5156 44.0352 26.4627 43.8412C25.2148 39.389 23.6379 35.0357 21.7451 30.8171C22.8917 30.1613 23.9225 29.3212 24.7961 28.3304H24.827C25.1545 28.4787 25.4976 28.5896 25.8499 28.6611C26.4616 28.7914 27.085 28.8593 27.7105 28.8639C28.4042 28.8717 29.0942 28.7629 29.7518 28.542C30.294 29.8498 31.2453 30.9466 32.4634 31.668C30.7465 35.6181 29.3014 39.6809 28.1382 43.828C28.0808 44.022 28.0279 44.2204 27.9706 44.4188C27.9351 44.5393 27.9144 44.6636 27.9089 44.7891C27.9045 44.8405 27.9045 44.8921 27.9089 44.9434C27.9093 45.2224 27.971 45.4978 28.0897 45.7503C28.1441 45.8759 28.2137 45.9943 28.2969 46.103C28.501 46.3853 28.7785 46.6064 29.0993 46.7423C29.3268 46.8321 29.569 46.8784 29.8136 46.879H33.8875C34.3061 46.8805 34.7205 46.7949 35.1043 46.6277C35.4098 46.4974 35.6914 46.3171 35.9376 46.0942C36.2016 45.8585 36.4238 45.5797 36.5946 45.2697C36.8391 44.8207 36.9664 44.3172 36.9649 43.8059V41.2134C41.1697 38.9658 44.503 35.3779 46.4358 31.0194C48.3686 26.6609 48.7899 21.7816 47.6329 17.1563C46.476 12.531 43.807 8.42481 40.0499 5.48958C36.2927 2.55435 31.6626 0.958388 26.8948 0.955078ZM25.6515 24.1992C25.3997 24.6762 25.0902 25.1204 24.73 25.5219L24.6198 25.6542C24.5266 25.4 24.4871 25.1294 24.5037 24.8592C24.5204 24.589 24.593 24.3253 24.7168 24.0846C24.8433 23.7986 25.071 23.5694 25.3561 23.4409C25.4248 23.4067 25.4999 23.3872 25.5765 23.3835C25.5968 23.3811 25.6173 23.3849 25.6354 23.3943C25.6535 23.4038 25.6683 23.4185 25.6779 23.4365C25.7665 23.6848 25.757 23.9576 25.6515 24.1992ZM31.0084 24.4637C31.1495 24.186 31.4493 23.8906 31.6565 23.8906C31.7535 23.8906 31.8461 23.9655 31.9387 24.1154C32.0313 24.2653 32.0004 24.4902 31.8549 24.7856C31.6243 25.2055 31.2962 25.5639 30.8982 25.8305C30.7887 25.3748 30.8273 24.896 31.0084 24.4637ZM35.0514 40.023V43.8059C35.056 43.869 35.056 43.9324 35.0514 43.9955C35.0204 44.1728 34.949 44.3406 34.8427 44.4858C34.7365 44.6311 34.5982 44.75 34.4386 44.8332C34.2758 44.9148 34.0961 44.9571 33.9139 44.9567H29.8224C29.8224 44.9038 29.8532 44.8508 29.8665 44.8023C29.9591 44.4761 30.0517 44.1586 30.1442 43.8412C31.3219 39.7108 32.7954 35.6706 34.5532 31.7518C34.6943 31.7518 34.8398 31.7738 34.9941 31.7738H35.1087C36.4314 31.743 37.4146 31.1125 37.7938 30.0808C38.1113 29.2254 38.0804 28.0527 37.3 27.3648C37.0746 27.1513 36.7772 27.0301 36.4667 27.0254C35.6466 27.0254 34.9853 27.9072 34.7296 28.2819C34.7006 28.3173 34.6754 28.3558 34.6546 28.3965C34.443 28.811 34.2137 29.2298 34.033 29.6575C33.9492 29.8251 33.8698 29.997 33.7861 30.169C32.3928 29.6222 31.6521 28.1629 31.2994 27.1841L31.7138 26.9019C32.1547 26.5712 33.2482 25.6806 33.3584 24.5078C33.3828 24.2129 33.3413 23.9163 33.2368 23.6395C33.1323 23.3627 32.9675 23.1126 32.7544 22.9074C32.6242 22.7718 32.4672 22.6649 32.2933 22.5935C32.1194 22.5221 31.9326 22.4879 31.7447 22.4929C31.3259 22.4962 30.9205 22.6407 30.594 22.903C30.1864 23.2289 29.8734 23.6579 29.6873 24.1455C29.5013 24.6331 29.449 25.1616 29.5358 25.6762C29.5358 25.7732 29.5358 25.8746 29.5755 25.976C29.5755 26.1568 29.6284 26.3376 29.6637 26.5227L29.2228 26.6991C28.74 26.8753 28.2287 26.9605 27.7149 26.9504C27.2182 26.9473 26.7232 26.8927 26.2379 26.7873C26.025 26.7459 25.8178 26.6793 25.6206 26.5889L25.7088 26.4831L25.9954 26.1303C26.6171 25.3588 27.2872 24.3932 27.1682 23.4849C27.1319 23.248 27.0465 23.0213 26.9174 22.8193C26.7883 22.6174 26.6184 22.4446 26.4187 22.3122C26.1325 22.0958 25.7853 21.9755 25.4266 21.9683C25.163 21.9797 24.905 22.0484 24.6705 22.1694C24.4361 22.2905 24.2307 22.461 24.0687 22.6693C23.4139 23.4456 23.0782 24.4415 23.1296 25.4558C23.1648 25.728 23.239 25.9938 23.35 26.245C23.4249 26.4226 23.5196 26.5912 23.6322 26.7476C22.7611 27.8261 21.6718 28.7081 20.4357 29.3357L20.2108 28.8948L19.9727 28.4142C19.5671 27.5809 18.7118 26.6065 17.636 26.6065C17.2711 26.6091 16.9146 26.7162 16.6087 26.9151C16.3944 27.04 16.2133 27.2145 16.0805 27.4239C15.9478 27.6334 15.8673 27.8717 15.8459 28.1188C15.8488 28.5325 15.9413 28.9407 16.1171 29.3151C16.293 29.6896 16.5479 30.0215 16.8644 30.288C17.4509 30.8337 18.2237 31.135 19.0248 31.1301C19.0791 31.1345 19.1336 31.1345 19.1879 31.1301C19.3714 31.1261 19.5543 31.1069 19.7346 31.0728C21.6314 35.2086 23.2099 39.483 24.4567 43.8588C24.5492 44.1763 24.6374 44.4981 24.73 44.82C24.73 44.8729 24.7609 44.9214 24.7741 44.9743H19.889C19.7083 44.9742 19.5301 44.932 19.3687 44.8508C19.2101 44.7681 19.0726 44.6498 18.9671 44.5053C18.8616 44.3608 18.7908 44.1939 18.7603 44.0176C18.7537 43.9531 18.7537 43.8881 18.7603 43.8236V40.023C14.7314 38.1637 11.4587 34.9837 9.48432 31.01C7.50998 27.0362 6.95253 22.5072 7.90434 18.1732C8.85615 13.8393 11.2601 9.96063 14.7178 7.17985C18.1756 4.39907 22.4797 2.8831 26.9169 2.8831C31.3541 2.8831 35.6581 4.39907 39.1159 7.17985C42.5737 9.96063 44.9776 13.8393 45.9294 18.1732C46.8812 22.5072 46.3238 27.0362 44.3494 31.01C42.3751 34.9837 39.1023 38.1637 35.0735 40.023H35.0514ZM35.1837 30.3718C35.3997 29.9309 35.6246 29.49 35.823 29.0711L35.8495 29.027C36.1889 28.4759 36.3344 28.4142 36.3829 28.4142C36.4403 28.4406 36.5417 28.595 36.5725 29.0094L35.1837 30.3718ZM19.1218 29.7766H18.9939C18.697 29.7567 18.4073 29.6755 18.1432 29.5381C17.8792 29.4008 17.6464 29.2103 17.4596 28.9785C17.3654 28.8732 17.2966 28.7477 17.2584 28.6117C17.2202 28.4757 17.2136 28.3327 17.2392 28.1937C17.2788 28.035 17.4905 27.9645 17.6801 27.9645H17.7771C18.218 28.0306 18.531 28.5465 18.7735 29.0447L19.1218 29.7766ZM37.2736 27.3604C37.0482 27.1468 36.7508 27.0257 36.4403 27.0209C35.6202 27.0209 34.9588 27.9027 34.7031 28.2775C34.6741 28.3129 34.649 28.3514 34.6282 28.3921C34.4165 28.8066 34.1873 29.2254 34.0065 29.6531C33.9227 29.8206 33.8434 29.9926 33.7596 30.1645C32.3664 29.6178 31.6257 28.1585 31.2729 27.1797L31.6874 26.8975C32.1283 26.5668 33.2217 25.6762 33.3319 24.5034C33.3564 24.2085 33.3149 23.9119 33.2104 23.6351C33.1059 23.3583 32.9411 23.1082 32.7279 22.903C32.6004 22.7715 32.4475 22.6673 32.2785 22.5968C32.1094 22.5263 31.9278 22.491 31.7447 22.4929C31.3259 22.4962 30.9205 22.6407 30.594 22.903C30.1864 23.2289 29.8734 23.6579 29.6873 24.1455C29.5013 24.6331 29.449 25.1616 29.5358 25.6762C29.5358 25.7732 29.5358 25.8746 29.5755 25.976C29.5755 26.1568 29.6284 26.3376 29.6637 26.5227L29.2228 26.6991C28.74 26.8753 28.2287 26.9605 27.7149 26.9504C27.2182 26.9473 26.7232 26.8927 26.2379 26.7873C26.025 26.7459 25.8178 26.6793 25.6206 26.5889L25.7088 26.4831L25.9954 26.1303C26.6171 25.3588 27.2872 24.3932 27.1682 23.4849C27.1319 23.248 27.0465 23.0213 26.9174 22.8193C26.7883 22.6174 26.6184 22.4446 26.4187 22.3122C26.1325 22.0958 25.7853 21.9755 25.4266 21.9683C25.163 21.9797 24.905 22.0484 24.6705 22.1694C24.4361 22.2905 24.2307 22.461 24.0687 22.6693C23.4139 23.4456 23.0782 24.4415 23.1296 25.4558C23.1648 25.728 23.239 25.9938 23.35 26.245C23.4249 26.4226 23.5196 26.5912 23.6322 26.7476C22.7611 27.8261 21.6718 28.7081 20.4357 29.3357L20.2108 28.8948L19.9727 28.4142C19.5671 27.5809 18.7118 26.6065 17.636 26.6065C17.2711 26.6091 16.9146 26.7162 16.6087 26.9151C16.3944 27.04 16.2133 27.2145 16.0805 27.4239C15.9478 27.6334 15.8673 27.8717 15.8459 28.1188C15.8488 28.5325 15.9413 28.9407 16.1171 29.3151C16.293 29.6896 16.5479 30.0215 16.8644 30.288C17.4509 30.8337 18.2237 31.135 19.0248 31.1301C19.0791 31.1345 19.1336 31.1345 19.1879 31.1301C19.3714 31.1261 19.5543 31.1069 19.7346 31.0728C21.6314 35.2086 23.2099 39.483 24.4567 43.8588C24.5492 44.1763 24.6374 44.4981 24.73 44.82H26.6964C26.6872 44.6946 26.6651 44.5705 26.6303 44.4496C26.573 44.2512 26.5156 44.0528 26.4627 43.8588C25.2156 39.4007 23.6387 35.0414 21.7451 30.8171C22.8917 30.1613 23.9225 29.3212 24.7961 28.3304H24.827C25.1545 28.4787 25.4976 28.5896 25.8499 28.6611C26.4616 28.7914 27.085 28.8593 27.7105 28.8639C28.4042 28.8717 29.0942 28.7629 29.7518 28.542C30.294 29.8498 31.2453 30.9466 32.4634 31.668C30.7465 35.6181 29.3014 39.6809 28.1382 43.828H30.1442C31.3219 39.6976 32.7954 35.6574 34.5532 31.7386C34.6943 31.7386 34.8398 31.7606 34.9941 31.7606H35.1087C36.4314 31.7297 37.4146 31.0993 37.7938 30.0676C38.0848 29.221 38.0539 28.0482 37.2736 27.3604ZM18.9939 29.7854C18.697 29.7655 18.4073 29.6843 18.1432 29.547C17.8792 29.4096 17.6464 29.2191 17.4596 28.9874C17.3654 28.882 17.2966 28.7565 17.2584 28.6205C17.2202 28.4845 17.2136 28.3415 17.2392 28.2026C17.2788 28.0438 17.4905 27.9733 17.6801 27.9733H17.7771C18.218 28.0394 18.531 28.5553 18.7735 29.0535L19.1306 29.7677L18.9939 29.7854ZM31.0084 24.4637C31.1495 24.186 31.4493 23.8906 31.6565 23.8906C31.7535 23.8906 31.8461 23.9655 31.9387 24.1154C32.0313 24.2653 32.0004 24.4902 31.8549 24.7856C31.6243 25.2055 31.2962 25.5639 30.8982 25.8305C30.7887 25.3748 30.8273 24.896 31.0084 24.4637ZM24.7168 24.0802C24.8442 23.7958 25.0718 23.5683 25.3561 23.4409C25.4248 23.4067 25.4999 23.3872 25.5765 23.3835C25.5968 23.3811 25.6173 23.3849 25.6354 23.3943C25.6535 23.4038 25.6683 23.4185 25.6779 23.4365C25.7724 23.6914 25.7629 23.9733 25.6515 24.2212C25.3997 24.6982 25.0902 25.1425 24.73 25.5439L24.6198 25.6762C24.5227 25.4183 24.4812 25.1429 24.4979 24.8678C24.5146 24.5928 24.5892 24.3244 24.7168 24.0802ZM35.1837 30.3718C35.3997 29.9309 35.6246 29.49 35.823 29.0711L35.8495 29.027C36.1889 28.4759 36.3344 28.4142 36.3829 28.4142C36.4403 28.4406 36.5417 28.595 36.5725 29.0094L35.1837 30.3718Z" fill="white"/>
<path d="M34.0065 29.6532C33.4929 29.4027 33.0339 29.0533 32.6556 28.6251C32.2773 28.1969 31.9872 27.6982 31.802 27.1577C31.7683 27.0669 31.7255 26.9797 31.6741 26.8976C31.4755 26.5359 31.1622 26.2505 30.7835 26.0863C30.5412 25.9819 30.2802 25.9279 30.0164 25.9276C29.8676 25.9289 29.7196 25.9481 29.5755 25.9849C29.4855 26.0068 29.3971 26.0348 29.3109 26.0687C28.7801 26.2899 28.2106 26.4038 27.6355 26.4038C27.472 26.4036 27.3087 26.3948 27.1461 26.3773C26.7599 26.3409 26.3794 26.258 26.013 26.1304C25.8768 26.0863 25.7454 26.0287 25.6206 25.9584C25.264 25.7603 24.8538 25.6804 24.4489 25.7303C24.044 25.7802 23.6654 25.9574 23.3676 26.2362C23.3128 26.2873 23.2612 26.3417 23.2133 26.3993C22.3858 27.4067 21.3744 28.2476 20.2329 28.8772C19.8345 29.0706 19.5152 29.3956 19.3289 29.7973C19.1425 30.1989 19.1005 30.6526 19.21 31.0817C19.2354 31.1911 19.2724 31.2975 19.3202 31.3991C21.1584 35.4181 22.6912 39.5699 23.9055 43.8192C24.0025 44.1367 24.0907 44.4541 24.1833 44.7804C24.2006 44.831 24.2153 44.8825 24.2274 44.9347L24.3729 45.4505C24.3989 45.5507 24.4343 45.6481 24.4787 45.7415C24.6857 46.186 25.0548 46.5346 25.5104 46.7159C25.7384 46.8095 25.9826 46.8575 26.2291 46.857H28.4336C28.8038 46.8612 29.1674 46.758 29.4803 46.5601C29.7933 46.3622 30.0422 46.0779 30.1971 45.7415C30.2415 45.6481 30.277 45.5507 30.303 45.4505L30.4485 44.9347C30.4485 44.8818 30.4749 44.8333 30.4925 44.7804C30.5851 44.4585 30.6733 44.1367 30.7703 43.8192C31.9109 39.8414 33.3267 35.9477 35.0073 32.1663C35.0696 32.0254 35.1141 31.8773 35.1396 31.7254C35.2067 31.3033 35.1318 30.8709 34.9268 30.4959C34.7217 30.1209 34.3981 29.8245 34.0065 29.6532ZM24.6595 27.6427C25.3668 28.0089 26.1404 28.2293 26.9345 28.2908C27.1594 28.2908 27.3754 28.3261 27.6135 28.3261C28.4379 28.3262 29.2543 28.1644 30.0164 27.8499C30.5689 29.4041 31.7086 30.6799 33.1908 31.4035C31.4048 35.438 29.9078 39.5944 28.7113 43.8413C28.6187 44.1587 28.5261 44.4806 28.438 44.8024C28.438 44.8509 28.4071 44.9038 28.3939 44.9567H26.1894C26.1894 44.9038 26.1585 44.8509 26.1453 44.8024C26.0571 44.4761 25.9645 44.1587 25.8719 43.8413C24.598 39.3141 22.9766 34.892 21.0221 30.6143C22.418 29.8723 23.654 28.8626 24.6595 27.6427Z" fill="white"/>
<path d="M19.6773 49.1142C19.1294 49.0792 18.6153 48.8368 18.2396 48.4363C17.864 48.0358 17.6549 47.5073 17.6549 46.9582C17.6549 46.4091 17.864 45.8807 18.2396 45.4802C18.6153 45.0797 19.1294 44.8373 19.6773 44.8022H34.1211C34.6691 44.8373 35.1832 45.0797 35.5588 45.4802C35.9345 45.8807 36.1436 46.4091 36.1436 46.9582C36.1436 47.5073 35.9345 48.0358 35.5588 48.4363C35.1832 48.8368 34.6691 49.0792 34.1211 49.1142H19.6773Z" fill="#77D58A"/>
<path d="M36.5946 45.2696C36.2375 44.6753 35.6838 44.2245 35.0294 43.9954C34.7331 43.8925 34.4216 43.8403 34.1079 43.8411H19.6729C19.3603 43.8394 19.0498 43.8931 18.7559 43.9998C18.103 44.2274 17.5507 44.6768 17.1951 45.2696C16.8826 45.7773 16.7177 46.3621 16.7189 46.9583C16.7136 47.3786 16.7919 47.7959 16.9493 48.1857C17.1068 48.5755 17.3402 48.9301 17.636 49.2289C17.8698 49.464 18.1428 49.6565 18.4428 49.7976C18.822 49.9816 19.2382 50.0766 19.6597 50.0754H34.1167C34.5383 50.0771 34.9546 49.9821 35.3336 49.7976C35.6392 49.6593 35.917 49.4666 36.1537 49.2289C36.6624 48.7132 36.9825 48.0412 37.0625 47.3213C37.1425 46.6014 36.9777 45.8755 36.5946 45.2608V45.2696ZM35.144 46.9583C35.1634 47.2533 35.0654 47.544 34.8713 47.767C34.6772 47.99 34.4028 48.1272 34.1079 48.1487H19.6729C19.3773 48.1283 19.1017 47.9916 18.9067 47.7684C18.7117 47.5453 18.613 47.254 18.6324 46.9583C18.632 46.8468 18.6453 46.7358 18.6721 46.6276C18.7161 46.3898 18.8387 46.1736 19.0201 46.0137C19.2016 45.8539 19.4315 45.7595 19.6729 45.7458H34.1167C34.3576 45.7597 34.5869 45.8542 34.7676 46.0142C34.9483 46.1741 35.07 46.3901 35.1132 46.6276C35.1399 46.7358 35.1532 46.8468 35.1528 46.9583H35.144Z" fill="white"/>
<path d="M19.6773 53.6555C19.1353 53.613 18.6292 53.3676 18.26 52.9684C17.8909 52.5692 17.6858 52.0454 17.6858 51.5017C17.6858 50.9579 17.8909 50.4342 18.26 50.035C18.6292 49.6358 19.1353 49.3904 19.6773 49.3479H34.1211C34.6632 49.3904 35.1693 49.6358 35.5384 50.035C35.9076 50.4342 36.1126 50.9579 36.1126 51.5017C36.1126 52.0454 35.9076 52.5692 35.5384 52.9684C35.1693 53.3676 34.6632 53.613 34.1211 53.6555H19.6773Z" fill="#77D58A"/>
<path d="M36.1537 49.2288C35.923 48.994 35.6529 48.8014 35.3556 48.6601C34.9726 48.4781 34.554 48.3832 34.13 48.3823H19.6729C19.2943 48.3819 18.9194 48.4565 18.5697 48.6018C18.2201 48.7471 17.9027 48.9602 17.636 49.2288C17.3362 49.5258 17.0987 49.8796 16.9375 50.2695C16.7762 50.6594 16.6944 51.0775 16.6969 51.4995C16.6948 52.2127 16.9306 52.9062 17.367 53.4703C17.5657 53.727 17.8056 53.949 18.0769 54.1272C18.3521 54.3171 18.66 54.4546 18.9851 54.5328C19.2073 54.5878 19.4352 54.6159 19.6641 54.6166H34.1167C34.3443 54.6181 34.571 54.59 34.7913 54.5328C35.1172 54.4551 35.4263 54.3191 35.704 54.1316C35.9728 53.9501 36.211 53.7269 36.4094 53.4703C36.8458 52.9062 37.0816 52.2127 37.0796 51.4995C37.0837 51.0785 37.004 50.6609 36.8451 50.271C36.6861 49.8812 36.451 49.5269 36.1537 49.2288ZM34.13 52.6899H19.6729C19.5471 52.689 19.4227 52.6633 19.307 52.6141C19.1912 52.5649 19.0863 52.4933 18.9983 52.4033C18.7647 52.1692 18.6331 51.8522 18.6324 51.5215C18.6142 51.2261 18.7133 50.9354 18.9081 50.7125C19.1029 50.4896 19.3777 50.3526 19.6729 50.3311H34.1167C34.4116 50.3526 34.686 50.4898 34.8801 50.7128C35.0742 50.9358 35.1722 51.2265 35.1528 51.5215C35.1521 51.8522 35.0205 52.1692 34.7869 52.4033C34.6998 52.4931 34.5956 52.5647 34.4806 52.6139C34.3655 52.6631 34.2419 52.689 34.1167 52.6899H34.13Z" fill="white"/>
</g>
<defs>
<clipPath id="clip0_0_1387">
<rect width="53.7895" height="100" fill="white" transform="translate(6.10352e-05 0.955078)"/>
</clipPath>
</defs>
</svg>
