<svg width="120" height="59" viewBox="0 0 120 59" fill="none" xmlns="http://www.w3.org/2000/svg">
<path d="M-7.62939e-06 58.9053L30.0027 58.9053V29.9053L-7.62939e-06 58.9053Z" fill="#21B0EE"/>
<path d="M30.0027 58.9053L60.0054 58.9053L60.0054 29.9053L30.0027 58.9053Z" fill="#21B0EE"/>
<path d="M60.0054 58.9053H90.0081L90.0081 29.9053L60.0054 58.9053Z" fill="#21B0EE"/>
<path d="M90.0081 58.9053L120 58.9053L120 29.9053L90.0081 58.9053Z" fill="#21B0EE"/>
<path d="M-7.62939e-06 29.9053L30.0027 29.9053V0.905281L-7.62939e-06 29.9053Z" fill="#21B0EE"/>
<path d="M30.0027 29.9053L60.0054 29.9053V0.905279L30.0027 29.9053Z" fill="#21B0EE"/>
<path d="M60.0054 29.9053L90.0081 29.9053L90.0081 0.905276L60.0054 29.9053Z" fill="#21B0EE"/>
<path d="M90.0081 29.9053L120 29.9053L120 0.905273L90.0081 29.9053Z" fill="#21B0EE"/>
</svg>
