<svg width="64" height="59" viewBox="0 0 64 59" fill="none" xmlns="http://www.w3.org/2000/svg">
<g filter="url(#filter0_dii_44_839)">
<path d="M17.8952 49.4246L5.23686 20.1339C5.11782 19.8584 5.12405 19.7467 5.3536 19.6475C7.21608 18.7882 10.8033 17.1289 14.2925 15.621C23.5663 11.6132 29.0022 15.3663 31.1648 20.3706C34.379 27.808 30.0092 33.4559 22.9391 36.5113C21.6995 37.047 21.424 37.1661 20.3222 37.6423L24.2308 46.6866C24.33 46.9161 24.2977 47.0935 24.0222 47.2126L18.3752 49.653C18.1457 49.7522 17.9944 49.6541 17.8952 49.4246ZM13.7946 22.5378L17.8818 31.9953C18.6821 31.7039 19.1871 31.4857 20.4726 30.9301C24.0995 29.3627 26.5157 27.0109 24.8887 23.2463C23.6388 20.3539 20.871 19.3707 16.8768 21.0968C15.4077 21.7317 14.188 22.3133 13.7946 22.5378ZM49.3363 16.277C47.4839 16.1513 44.9044 16.6122 42.8385 17.5051C40.6807 18.4376 40.3293 19.5157 40.6666 20.2961C41.0039 21.0766 41.8587 21.4155 44.9579 21.2748C51.3861 20.8941 54.0632 22.298 55.4718 25.5576C57.3567 29.9191 55.2093 34.2796 49.1491 36.8986C46.3486 38.1088 43.6971 38.6554 41.9366 38.49C41.6476 38.4514 41.4962 38.3534 41.397 38.1238L39.2542 33.1655C39.1352 32.8901 39.2593 32.673 39.5025 32.7313C42.1897 33.1501 44.9789 32.544 47.0449 31.6512C49.2027 30.7187 49.9089 29.7052 49.4922 28.7411C49.1152 27.8688 48.057 27.5633 44.9118 27.7239C38.8906 28.0377 36.2396 26.5681 34.8111 23.2625C33.2635 19.6815 34.6678 14.9883 40.728 12.3693C43.4367 11.1988 45.7073 10.6534 47.0931 10.7083C47.4281 10.727 47.5732 10.9367 47.6724 11.1662L49.6565 15.7573C49.7755 16.0327 49.6712 16.2957 49.3363 16.277Z" fill="#57A6F8"/>
</g>
<defs>
<filter id="filter0_dii_44_839" x="0.139143" y="0.237444" width="63.3467" height="57.8206" filterUnits="userSpaceOnUse" color-interpolation-filters="sRGB">
<feFlood flood-opacity="0" result="BackgroundImageFix"/>
<feColorMatrix in="SourceAlpha" type="matrix" values="0 0 0 0 0 0 0 0 0 0 0 0 0 0 0 0 0 0 127 0" result="hardAlpha"/>
<feOffset dy="2.92765"/>
<feGaussianBlur stdDeviation="2.43971"/>
<feComposite in2="hardAlpha" operator="out"/>
<feColorMatrix type="matrix" values="0 0 0 0 0 0 0 0 0 0 0 0 0 0 0 0 0 0 0.48 0"/>
<feBlend mode="normal" in2="BackgroundImageFix" result="effect1_dropShadow_44_839"/>
<feBlend mode="normal" in="SourceGraphic" in2="effect1_dropShadow_44_839" result="shape"/>
<feColorMatrix in="SourceAlpha" type="matrix" values="0 0 0 0 0 0 0 0 0 0 0 0 0 0 0 0 0 0 127 0" result="hardAlpha"/>
<feOffset dy="-0.975882"/>
<feGaussianBlur stdDeviation="0.975882"/>
<feComposite in2="hardAlpha" operator="arithmetic" k2="-1" k3="1"/>
<feColorMatrix type="matrix" values="0 0 0 0 0 0 0 0 0 0 0 0 0 0 0 0 0 0 0.35 0"/>
<feBlend mode="normal" in2="shape" result="effect2_innerShadow_44_839"/>
<feColorMatrix in="SourceAlpha" type="matrix" values="0 0 0 0 0 0 0 0 0 0 0 0 0 0 0 0 0 0 127 0" result="hardAlpha"/>
<feOffset dy="0.975882"/>
<feGaussianBlur stdDeviation="0.975882"/>
<feComposite in2="hardAlpha" operator="arithmetic" k2="-1" k3="1"/>
<feColorMatrix type="matrix" values="0 0 0 0 1 0 0 0 0 1 0 0 0 0 1 0 0 0 0.35 0"/>
<feBlend mode="normal" in2="effect2_innerShadow_44_839" result="effect3_innerShadow_44_839"/>
</filter>
</defs>
</svg>
