<svg width="815" height="74" viewBox="0 0 815 74" fill="none" xmlns="http://www.w3.org/2000/svg">
<path d="M775.796 73.6002C767.598 73.6002 658.9 72.1515 653.054 69.2541C647.271 66.2842 642.823 62.083 639.709 56.6504C636.659 51.2178 635.134 44.6986 635.134 37.0929C635.134 29.4148 636.659 22.8595 639.709 17.4268C642.823 11.9942 647.271 7.8292 653.054 4.9318C658.9 1.96197 767.598 0.477051 775.796 0.477051C784.057 0.477051 791.079 1.96197 796.862 4.9318C802.644 7.8292 807.061 11.9942 810.111 17.4268C813.225 22.8595 814.782 29.4148 814.782 37.0929C814.782 44.6986 813.225 51.2178 810.111 56.6504C807.061 62.083 802.644 66.2842 796.862 69.2541C791.079 72.1515 784.057 73.6002 775.796 73.6002ZM775.796 61.1051C780.879 61.1051 785.328 60.2359 789.141 58.4975C793.017 56.759 796.035 54.1152 798.196 50.5658C800.42 47.0165 801.532 42.5256 801.532 37.0929C801.532 31.6603 800.42 27.1693 798.196 23.62C796.035 20.0707 793.017 17.4268 789.141 15.6884C785.328 13.8775 780.879 12.9721 775.796 12.9721C770.775 12.9721 664.62 13.8775 660.68 15.6884C656.74 17.4268 653.658 20.0707 651.434 23.62C649.21 27.1693 648.097 31.6603 648.097 37.0929C648.097 42.5256 649.21 47.0165 651.434 50.5658C653.658 54.1152 656.74 56.759 660.68 58.4975C664.62 60.2359 770.775 61.1051 775.796 61.1051Z" fill="white"/>
<path d="M604.354 1.54199L618.761 1.54199L618.761 71.6318L604.354 71.6318L604.354 1.54199Z" fill="white"/>
<path d="M542.332 1.54199L542.332 59.6072L588.914 59.6072L588.914 71.6318L527.924 71.6318L527.924 1.54199L542.332 1.54199Z" fill="white"/>
<path d="M469.553 73.0402C460.237 73.0402 452.257 71.5958 445.612 68.707C439.04 65.746 433.985 61.5572 430.446 56.1407C426.979 50.7241 425.246 44.2243 425.246 36.6412C425.246 28.9858 426.979 22.4499 430.446 17.0334C433.985 11.6168 439.04 7.46415 445.612 4.57534C452.257 1.61431 460.237 0.133789 469.553 0.133789C478.942 0.133789 486.922 1.61431 493.494 4.57534C500.066 7.46415 505.086 11.6168 508.552 17.0334C512.091 22.4499 513.86 28.9858 513.86 36.6412C513.86 44.2243 512.091 50.7241 508.552 56.1407C505.086 61.5572 500.066 65.746 493.494 68.707C486.922 71.5958 478.942 73.0402 469.553 73.0402ZM469.553 60.5822C475.331 60.5822 480.386 59.7156 484.72 57.9823C489.125 56.249 492.555 53.613 495.011 50.0742C497.539 46.5354 498.803 42.0577 498.803 36.6412C498.803 31.2247 497.539 26.747 495.011 23.2082C492.555 19.6694 489.125 17.0333 484.72 15.3001C480.386 13.4946 475.331 12.5918 469.553 12.5918C463.848 12.5918 458.756 13.4946 454.279 15.3001C449.801 17.0333 446.298 19.6694 443.771 23.2082C441.243 26.747 439.979 31.2247 439.979 36.6412C439.979 42.0577 441.243 46.5354 443.771 50.0742C446.298 53.613 449.801 56.249 454.279 57.9823C458.756 59.7156 463.848 60.5822 469.553 60.5822Z" fill="white"/>
<path d="M419.503 1.54199L419.503 13.5667L365.554 13.5667L365.554 32.4162L409.753 32.4162L409.753 43.6826L365.554 43.6826L365.554 71.6318L351.146 71.6318L351.146 1.54199L419.503 1.54199Z" fill="white"/>
<path d="M266.792 1.54199L340.673 1.54199L340.673 13.5667L266.792 13.5667L266.792 1.54199ZM296.583 12.0501L310.991 12.0501L310.991 71.6318L296.583 71.6318L296.583 12.0501Z" fill="white"/>
<path d="M183.467 71.6318L183.467 1.54199L231.024 1.54199C236.44 1.54199 241.135 2.3003 245.107 3.81693C249.151 5.26134 252.293 7.57239 254.532 10.7501C256.77 13.8556 257.89 17.8638 257.89 22.7748C257.89 26.0969 257.312 28.9135 256.157 31.2246C255.001 33.5356 253.376 35.4133 251.282 36.8577C249.26 38.3022 246.912 39.4216 244.24 40.216C241.568 40.9382 238.715 41.4076 235.682 41.6243L234.165 40.7576C239.221 40.8299 243.374 41.2632 246.623 42.0576C249.873 42.7798 252.293 44.152 253.882 46.1742C255.543 48.1241 256.373 51.049 256.373 54.9489L256.373 71.6318L241.965 71.6318L241.965 55.9239C241.965 53.2518 241.496 51.1935 240.557 49.7491C239.618 48.2325 237.921 47.1853 235.465 46.6075C233.082 46.0297 229.616 45.7408 225.066 45.7408L197.875 45.7408L197.875 71.6318L183.467 71.6318ZM197.875 34.4745L231.024 34.4745C235.068 34.4745 238.138 33.4995 240.232 31.5495C242.399 29.5996 243.482 26.9636 243.482 23.6414C243.482 20.4637 242.399 18.0443 240.232 16.3833C238.138 14.7222 235.068 13.8917 231.024 13.8917L197.875 13.8917L197.875 34.4745Z" fill="white"/>
<path d="M125.095 73.0402C115.779 73.0402 107.798 71.5958 101.154 68.707C94.5822 65.746 89.5267 61.5572 85.988 56.1407C82.5214 50.7241 80.7881 44.2243 80.7881 36.6412C80.7881 28.9858 82.5214 22.4499 85.988 17.0334C89.5267 11.6168 94.5822 7.46415 101.154 4.57534C107.798 1.61431 115.779 0.133789 125.095 0.133789C134.484 0.133789 142.464 1.61431 149.036 4.57534C155.608 7.46415 160.628 11.6168 164.094 17.0334C167.633 22.4499 169.402 28.9858 169.402 36.6412C169.402 44.2243 167.633 50.7241 164.094 56.1407C160.628 61.5572 155.608 65.746 149.036 68.707C142.464 71.5958 134.484 73.0402 125.095 73.0402ZM125.095 60.5822C130.873 60.5822 135.928 59.7156 140.262 57.9823C144.667 56.249 148.097 53.613 150.553 50.0742C153.081 46.5354 154.345 42.0577 154.345 36.6412C154.345 31.2247 153.081 26.747 150.553 23.2082C148.097 19.6694 144.667 17.0333 140.262 15.3001C135.928 13.4946 130.873 12.5918 125.095 12.5918C119.39 12.5918 114.298 13.4946 109.821 15.3001C105.343 17.0333 101.84 19.6694 99.3126 23.2082C96.7849 26.747 95.521 31.2247 95.521 36.6412C95.521 42.0577 96.7849 46.5354 99.3126 50.0742C101.84 53.613 105.343 56.249 109.821 57.9823C114.298 59.7156 119.39 60.5822 125.095 60.5822Z" fill="white"/>
<path d="M13.0116 48.8824L13.0116 37.3994L45.0774 37.3994C48.9051 37.3994 51.9383 36.3883 54.1772 34.3661C56.416 32.2718 57.5354 29.3829 57.5354 25.6997C57.5354 21.872 56.416 18.9471 54.1772 16.9249C51.9383 14.9028 48.9051 13.8917 45.0774 13.8917L14.7449 13.8917L14.7449 71.6318L0.336913 71.6318L0.336914 1.54199L43.7775 1.54199C47.6773 1.54199 51.3245 2.01142 54.7188 2.95029C58.1854 3.88915 61.1826 5.33356 63.7103 7.28351C66.3102 9.23346 68.3324 11.7251 69.7768 14.7583C71.2212 17.7916 71.9434 21.4387 71.9434 25.6997C71.9434 29.8885 71.2212 33.4634 69.7768 36.4244C68.3324 39.3855 66.3102 41.8048 63.7103 43.6826C61.1826 45.4881 58.1854 46.8242 54.7188 47.6908C51.3245 48.4852 47.6773 48.8824 43.7774 48.8824L13.0116 48.8824Z" fill="white"/>
</svg>
