<svg width="152" height="150" viewBox="0 0 152 150" fill="none" xmlns="http://www.w3.org/2000/svg">
<path d="M66.4369 39.5032L67.2765 40.4546L67.5581 39.2173L75.7996 3.00417L84.4799 39.0463L84.778 40.2843L85.6057 39.3166L109.833 10.9938L100.639 46.9671L100.321 48.21L101.511 47.7311L136.164 33.7864L111.21 61.4534L110.347 62.4106L111.63 62.5356L148.77 66.1548L113.769 79.187L112.563 79.636L113.64 80.3402L144.769 100.69L107.727 96.1L106.459 95.9429L107.079 97.0604L125.069 129.491L94.4761 108.322L93.4318 107.599L93.4563 108.869L94.1741 145.952L77.0489 113.052L76.4625 111.925L75.8917 113.06L59.1697 146.293L59.4354 109.208L59.4446 107.93L58.4064 108.675L28.0846 130.44L45.6697 97.6698L46.2781 96.5359L45.0044 96.7191L8.03648 102.036L38.91 81.0762L39.9765 80.3521L38.7602 79.9251L3.60607 67.5831L40.705 63.2341L41.9791 63.0848L41.1051 62.1457L15.8093 34.9663L50.6371 48.2322L51.827 48.6854L51.4961 47.4559L41.8626 11.6563L66.4369 39.5032Z" fill="#FFA100" stroke="white" stroke-width="1.3"/>
</svg>
