<svg width="206" height="207" viewBox="0 0 206 207" fill="none" xmlns="http://www.w3.org/2000/svg">
<g clip-path="url(#clip0_50_986)">
<path d="M35.5031 79.9095C34.6537 82.384 32.7008 83.8381 30.4355 83.0965L31.3275 80.5403C31.5542 80.6142 31.7937 80.64 32.0309 80.6159C32.268 80.5918 32.4975 80.5183 32.7046 80.4003C32.9117 80.2823 33.0919 80.1222 33.2335 79.9305C33.3751 79.7387 33.475 79.5195 33.5269 79.2868C33.9218 78.1607 33.5531 77.2958 32.7019 76.9952C30.1334 76.1103 29.5605 82.7689 25.2762 81.2172C23.1249 80.4751 22.4364 78.2925 23.2902 75.8399C24.1441 73.3874 25.9498 72.1734 28.1521 72.7635L27.242 75.3873C27.0275 75.3337 26.8045 75.3238 26.5861 75.3581C26.3677 75.3924 26.1584 75.4703 25.9707 75.587C25.783 75.7038 25.6206 75.8571 25.4933 76.0378C25.3659 76.2185 25.2762 76.423 25.2295 76.6391C25.1216 76.8278 25.0572 77.0382 25.0411 77.2549C25.0249 77.4717 25.0573 77.6893 25.1359 77.8919C25.2146 78.0945 25.3375 78.277 25.4956 78.4261C25.6538 78.5751 25.8433 78.687 26.0502 78.7535C28.4377 79.5796 29.2198 73.0289 33.3986 74.5109C35.2827 75.1296 36.4461 77.2013 35.5031 79.9095Z" fill="#00030C"/>
<path d="M27.3972 66.422L28.5484 64.1734L39.7441 69.8753L38.5929 72.124L27.3972 66.422Z" fill="#00030C"/>
<path d="M37.7567 50.0144L47.9616 57.3662L46.4912 59.4154L36.1549 59.0062L43.1734 63.9927L41.6933 66.0393L31.4754 58.7359L32.9433 56.6963L43.2892 57.1081L36.2765 52.0611L37.7567 50.0144Z" fill="#00030C"/>
<path d="M46.3814 41.0096C47.3016 40.1 48.4936 39.5156 49.7762 39.3454C51.0589 39.1752 52.3621 39.4285 53.4876 40.0667L51.3396 42.0172C50.7617 41.7756 50.1247 41.7123 49.5105 41.8356C48.8964 41.9588 48.3331 42.2629 47.8932 42.7088C46.2675 44.1781 46.1817 46.3913 47.891 48.3194C49.6002 50.2475 51.8398 50.3507 53.4681 48.8717C53.9566 48.475 54.3155 47.9416 54.4989 47.3396C54.6824 46.7377 54.6819 46.0947 54.4976 45.493L56.643 43.5522C57.1745 44.7353 57.3005 46.0607 57.0017 47.3228C56.7028 48.5849 55.9957 49.7131 54.9901 50.5322C54.379 51.1186 53.654 51.5734 52.8601 51.8684C52.0662 52.1634 51.2201 52.2923 50.3743 52.2471C49.5286 52.202 48.7011 51.9837 47.943 51.6059C47.185 51.2281 46.5126 50.6987 45.9674 50.0505C45.3767 49.4422 44.9169 48.7193 44.6162 47.9265C44.3156 47.1336 44.1805 46.2876 44.2193 45.4405C44.2581 44.5935 44.4699 43.7634 44.8418 43.0013C45.2137 42.2393 45.7376 41.5615 46.3814 41.0096Z" fill="#00030C"/>
<path d="M63.2267 31.5782L59.1532 34.0688L60.8036 36.7576L64.409 34.5453L65.4369 36.3116L61.8399 38.4536L63.577 41.3209L67.6382 38.8374L68.7125 40.585L62.5163 44.3909L55.9484 33.6656L62.1446 29.8596L63.2267 31.5782Z" fill="#00030C"/>
<path d="M75.7624 25.7854L74.103 26.3761L73.3545 24.1464L77.4653 22.7528L81.6806 35.1875L79.2215 36.0194L75.7624 25.7854Z" fill="#00030C"/>
<path d="M87.9426 29.784C88.0846 30.2518 88.4051 30.6449 88.8347 30.8781C89.2643 31.1114 89.7685 31.1662 90.2381 31.0307C91.6929 30.7786 92.1376 29.5829 91.6115 26.6778C91.3521 27.1362 90.9888 27.5273 90.5508 27.8199C90.1128 28.1124 89.6124 28.2983 89.0896 28.3625C88.5497 28.4908 87.9887 28.5019 87.4442 28.3949C86.8997 28.288 86.3845 28.0655 85.9334 27.7425C85.4822 27.4194 85.1056 27.0034 84.8289 26.5224C84.5522 26.0414 84.3819 25.5067 84.3295 24.9543C84.1863 24.3797 84.1695 23.7808 84.2805 23.1991C84.3914 22.6174 84.6274 22.0667 84.972 21.5851C85.3167 21.1035 85.7618 20.7025 86.2766 20.4098C86.7914 20.1171 87.3637 19.9397 87.9538 19.8898C91.4645 19.2672 92.9705 21.4514 93.68 25.5652C94.48 29.9207 93.8907 32.5063 90.4965 33.1187C89.9873 33.2584 89.4552 33.2938 88.9319 33.2228C88.4087 33.1517 87.9052 32.9757 87.4517 32.7053C86.9982 32.4349 86.604 32.0756 86.2928 31.6491C85.9815 31.2226 85.7596 30.7376 85.6405 30.2232L87.9426 29.784ZM90.869 23.8078C90.7915 23.3944 90.5921 23.0136 90.2965 22.7143C90.0009 22.415 89.6226 22.2109 89.2102 22.1282C88.7977 22.0455 88.37 22.0879 87.9819 22.2501C87.5937 22.4122 87.2629 22.6867 87.0319 23.0382C86.8009 23.3898 86.6802 23.8023 86.6854 24.2229C86.6906 24.6435 86.8213 25.053 87.0609 25.3988C87.3005 25.7445 87.6379 26.0108 88.0299 26.1633C88.4219 26.3159 88.8506 26.3478 89.2609 26.255C89.5367 26.2194 89.8015 26.1247 90.0373 25.9773C90.2731 25.8298 90.4743 25.6332 90.627 25.4008C90.7797 25.1684 90.8804 24.9057 90.9222 24.6308C90.964 24.3558 90.9458 24.0751 90.869 23.8078Z" fill="#00030C"/>
<path d="M101.426 28.3032C101.488 28.7861 101.735 29.2262 102.115 29.5307C102.495 29.8353 102.978 29.9805 103.463 29.936C104.933 29.9364 105.586 28.8486 105.583 25.8867C105.246 26.2911 104.82 26.6113 104.337 26.8218C103.855 27.0322 103.33 27.1271 102.805 27.0989C102.253 27.1271 101.702 27.0368 101.188 26.8341C100.674 26.6315 100.209 26.3211 99.8254 25.924C99.4414 25.5269 99.1469 25.0523 98.9617 24.5319C98.7764 24.0115 98.7047 23.4575 98.7514 22.9071C98.7118 22.3173 98.8009 21.726 99.0124 21.174C99.2239 20.6221 99.5529 20.1226 99.9764 19.7104C100.4 19.2981 100.908 18.9828 101.466 18.7862C102.023 18.5897 102.617 18.5166 103.205 18.5721C106.761 18.5931 107.853 21.008 107.824 25.1725C107.8 29.6281 106.801 32.0418 103.328 32.0222C102.802 32.0669 102.271 32.0046 101.77 31.8392C101.268 31.6737 100.804 31.4085 100.408 31.0595C100.011 30.7104 99.6888 30.2848 99.4607 29.8081C99.2327 29.3314 99.1033 28.8135 99.0805 28.2855L101.426 28.3032ZM105.382 22.9653C105.382 22.5443 105.256 22.1329 105.021 21.784C104.785 21.4351 104.451 21.1647 104.06 21.0075C103.67 20.8503 103.241 20.8135 102.829 20.9018C102.418 20.9901 102.042 21.1996 101.75 21.5032C101.459 21.8068 101.265 22.1907 101.193 22.6055C101.121 23.0204 101.175 23.4472 101.348 23.831C101.521 24.2149 101.805 24.5383 102.163 24.7596C102.521 24.981 102.937 25.0901 103.358 25.0731C103.635 25.0879 103.912 25.0428 104.17 24.941C104.428 24.8391 104.661 24.6828 104.853 24.4828C105.045 24.2827 105.192 24.0436 105.283 23.7818C105.374 23.5199 105.408 23.2414 105.382 22.9653Z" fill="#00030C"/>
<path d="M113.654 22.7696C114.005 20.9174 115.731 19.5784 118.666 20.1372C121.602 20.6959 122.698 22.5943 122.351 24.4271C122.247 25.0181 121.976 25.5669 121.57 26.0084C121.163 26.4499 120.639 26.7658 120.058 26.9186C120.64 27.289 121.093 27.8297 121.356 28.4671C121.618 29.1045 121.678 29.8074 121.527 30.4799C121.054 32.9413 118.753 34.033 116.103 33.53C113.452 33.0269 111.737 31.1594 112.22 28.7006C112.323 28.0189 112.636 27.3865 113.116 26.8914C113.596 26.3963 114.218 26.0634 114.896 25.9391C114.4 25.5913 114.018 25.1052 113.797 24.5415C113.577 23.9778 113.527 23.3615 113.654 22.7696ZM114.615 29.0732C114.581 29.634 114.753 30.188 115.098 30.6314C115.444 31.0747 115.938 31.3771 116.49 31.4818C117.042 31.5866 117.614 31.4865 118.097 31.2005C118.581 30.9144 118.944 30.4618 119.118 29.9276C119.176 29.6447 119.173 29.3525 119.108 29.071C119.043 28.7895 118.917 28.5255 118.741 28.2971C118.564 28.0686 118.339 27.8813 118.083 27.7478C117.827 27.6143 117.545 27.538 117.256 27.524C115.994 27.2893 114.834 27.7549 114.615 29.0732ZM119.893 24.3276C119.9 23.8559 119.739 23.3973 119.439 23.0327C119.14 22.6681 118.722 22.4211 118.258 22.3352C117.794 22.2493 117.315 22.3302 116.905 22.5634C116.495 22.7966 116.18 23.1673 116.017 23.6099C115.971 23.8542 115.977 24.1054 116.033 24.3475C116.089 24.5896 116.196 24.8173 116.345 25.0161C116.494 25.2148 116.684 25.3803 116.9 25.502C117.117 25.6236 117.357 25.6988 117.604 25.7227C117.847 25.7924 118.101 25.8111 118.35 25.7776C118.6 25.7441 118.84 25.659 119.055 25.5279C119.271 25.3968 119.456 25.2223 119.6 25.0157C119.745 24.8091 119.844 24.5748 119.893 24.3276Z" fill="#00030C"/>
<path d="M143.125 36.7329C141.418 40.1269 137.976 41.1508 134.392 39.3416L130.472 37.3593L136.128 26.141L140.058 28.1259C143.632 29.9325 144.846 33.3222 143.125 36.7329ZM135.269 37.4231C137.63 38.615 139.643 37.943 140.818 35.6074C141.123 35.1346 141.319 34.5997 141.392 34.0416C141.465 33.4836 141.412 32.9163 141.238 32.381C141.065 31.8456 140.774 31.3558 140.387 30.9469C140 30.538 139.527 30.2204 139.003 30.0171L137.418 29.2094L133.671 36.6224L135.269 37.4231Z" fill="#00030C"/>
<path d="M150.516 34.2618L152.568 35.7227L145.288 45.9676L143.227 44.5042L150.516 34.2618Z" fill="#00030C"/>
<path d="M163.224 50.2765L161.15 48.2404C161.307 47.6655 161.298 47.0581 161.124 46.488C160.951 45.9179 160.621 45.4081 160.171 45.0172C158.524 43.437 156.323 43.4995 154.571 45.2868C154.159 45.6362 153.827 46.0695 153.596 46.5576C153.366 47.0458 153.242 47.5776 153.234 48.1174C153.225 48.6572 153.332 49.1926 153.548 49.6877C153.763 50.1828 154.081 50.6262 154.482 50.9882C155.055 51.6162 155.843 52.0074 156.69 52.0849C157.536 52.1624 158.382 51.9207 159.059 51.4072L155.976 48.3863L157.319 47.0068L162.231 51.7807L160.691 53.3558C159.501 54.1574 158.068 54.5165 156.641 54.3706C155.215 54.2247 153.884 53.5831 152.881 52.5573C152.243 51.9775 151.728 51.2749 151.367 50.4916C151.006 49.7083 150.807 48.8604 150.781 47.9983C150.755 47.1363 150.903 46.2778 151.216 45.4743C151.529 44.6707 152.001 43.9385 152.603 43.3213C153.206 42.704 153.926 42.2145 154.722 41.8819C155.518 41.5493 156.372 41.3804 157.235 41.3853C158.097 41.3903 158.95 41.5689 159.741 41.9106C160.533 42.2522 161.248 42.75 161.843 43.374C162.801 44.212 163.456 45.3428 163.706 46.5909C163.955 47.8389 163.786 49.1345 163.224 50.2765Z" fill="#00030C"/>
<path d="M169.464 52.259L170.992 54.2835L160.908 61.7791L159.38 59.7546L169.464 52.259Z" fill="#00030C"/>
<path d="M174.013 58.5817L178.508 66.6088L176.733 67.5928L175.104 64.6716L165.904 69.7951L164.673 67.5913L173.872 62.4677L172.243 59.5464L174.013 58.5817Z" fill="#00030C"/>
<path d="M173.678 82.4693L172.091 77.7271L169.562 77.7015L168.724 75.1889L182.104 75.4819L183.083 78.2807L172.583 86.5552L171.738 84.0304L173.678 82.4693ZM179.787 77.791L174.224 77.729L175.379 81.1444L179.787 77.791Z" fill="#00030C"/>
<path d="M185.871 90.4779L175.433 92.0706L176.056 96.1611L174.066 96.4769L173.066 89.8937L185.468 88.0405L185.871 90.4779Z" fill="#00030C"/>
<path d="M174.096 107.262C174.123 106.975 174.233 106.703 174.414 106.478C174.594 106.254 174.836 106.087 175.11 105.999C175.384 105.911 175.678 105.905 175.956 105.983C176.233 106.061 176.481 106.218 176.67 106.436C176.859 106.653 176.979 106.921 177.017 107.207C177.055 107.492 177.008 107.782 176.882 108.041C176.756 108.3 176.557 108.517 176.309 108.663C176.061 108.81 175.776 108.881 175.488 108.867C175.29 108.856 175.097 108.805 174.919 108.718C174.741 108.631 174.582 108.509 174.452 108.359C174.323 108.209 174.224 108.035 174.163 107.847C174.102 107.658 174.079 107.459 174.096 107.262Z" fill="#00030C"/>
<path d="M171.319 123.921L172.806 118.719L184.889 122.153L183.449 127.14C182.769 129.681 181.017 130.692 179.226 130.15C178.596 129.991 178.038 129.622 177.645 129.105C177.251 128.588 177.045 127.952 177.06 127.302C176.728 127.93 176.189 128.424 175.534 128.698C174.879 128.972 174.148 129.009 173.469 128.804C171.537 128.286 170.605 126.432 171.319 123.921ZM176.657 125.02L177.301 122.615L174.036 121.74L173.379 124.194C173.063 125.372 173.415 126.222 174.426 126.545C175.437 126.867 176.321 126.193 176.657 125.02ZM181.609 126.243L182.204 124.022L179.161 123.207L178.566 125.428C178.258 126.578 178.572 127.376 179.555 127.65C180.537 127.923 181.308 127.405 181.618 126.246L181.609 126.243Z" fill="#00030C"/>
<path d="M180.068 136.98L178.946 139.195L172.009 135.68C171.708 135.524 171.379 135.43 171.041 135.402C170.703 135.375 170.363 135.415 170.041 135.52C169.719 135.626 169.421 135.794 169.165 136.016C168.908 136.238 168.699 136.509 168.549 136.813C168.398 137.117 168.31 137.448 168.289 137.787C168.269 138.125 168.315 138.464 168.427 138.784C168.539 139.105 168.713 139.399 168.941 139.651C169.168 139.903 169.443 140.107 169.749 140.251L176.638 143.753L175.494 146.014L168.574 142.514C165.62 141.019 165.243 138.174 166.485 135.743C167.727 133.311 170.191 131.994 173.145 133.49L180.068 136.98Z" fill="#00030C"/>
<path d="M159.28 147.136C160.87 145.067 163.146 144.3 165.101 145.735L163.404 147.858C163.211 147.718 162.991 147.619 162.759 147.567C162.526 147.516 162.285 147.513 162.05 147.559C161.816 147.605 161.594 147.7 161.398 147.836C161.203 147.972 161.037 148.147 160.912 148.35C160.744 148.507 160.61 148.697 160.521 148.909C160.432 149.121 160.389 149.349 160.395 149.579C160.401 149.809 160.456 150.035 160.556 150.242C160.656 150.448 160.799 150.632 160.975 150.779C163.141 152.395 165.785 146.312 169.384 149.109C171.175 150.5 171.142 152.789 169.557 154.839C167.973 156.888 165.86 157.471 164.011 156.22L165.707 154.024C165.89 154.141 166.094 154.22 166.307 154.258C166.521 154.295 166.74 154.29 166.951 154.243C167.163 154.196 167.363 154.108 167.541 153.983C167.718 153.858 167.869 153.7 167.986 153.517C168.148 153.371 168.275 153.19 168.359 152.989C168.443 152.787 168.481 152.569 168.47 152.351C168.459 152.133 168.399 151.92 168.296 151.728C168.192 151.536 168.047 151.369 167.871 151.24C165.889 149.673 163.052 155.663 159.541 152.963C157.973 151.745 157.535 149.402 159.28 147.136Z" fill="#00030C"/>
<path d="M162.666 162.517L160.868 164.281L152.087 155.323L153.875 153.556L162.666 162.517Z" fill="#00030C"/>
<path d="M147.662 174.771L140.315 164.52L142.365 163.051L152.045 166.68L147.006 159.677L149.06 158.157L156.407 168.408L154.344 169.925L144.654 166.294L149.712 173.302L147.662 174.771Z" fill="#00030C"/>
<path d="M134.576 179.174L138.885 177.119L137.574 174.284L133.755 176.097L132.893 174.292L136.722 172.482L135.293 169.469L130.987 171.514L130.106 169.663L136.657 166.542L142.05 177.905L135.464 181.038L134.576 179.174Z" fill="#00030C"/>
<path d="M122.115 172.17C124.623 171.465 126.944 172.232 127.619 174.504L125.011 175.234C124.941 175.007 124.824 174.796 124.669 174.616C124.513 174.436 124.322 174.29 124.107 174.188C123.892 174.086 123.658 174.029 123.42 174.022C123.182 174.014 122.946 174.056 122.725 174.145C121.601 174.476 121.078 175.267 121.323 176.13C122.06 178.75 127.853 175.406 129.07 179.79C129.686 181.974 128.297 183.796 125.801 184.494C123.305 185.192 121.266 184.418 120.495 182.275L123.161 181.519C123.239 181.722 123.356 181.908 123.506 182.065C123.656 182.222 123.835 182.348 124.034 182.436C124.232 182.524 124.446 182.572 124.664 182.577C124.881 182.582 125.097 182.544 125.299 182.465C125.517 182.447 125.727 182.38 125.915 182.27C126.104 182.159 126.264 182.007 126.386 181.826C126.507 181.644 126.586 181.438 126.616 181.221C126.646 181.005 126.627 180.785 126.561 180.577C125.874 178.157 120.063 181.259 118.854 177.001C118.328 175.1 119.415 172.937 122.115 172.17Z" fill="#00030C"/>
<path d="M109.773 174.495C112.368 174.238 114.509 175.402 114.778 177.762L112.075 178.073C112.044 177.837 111.966 177.611 111.844 177.407C111.722 177.203 111.559 177.026 111.366 176.888C111.173 176.75 110.953 176.653 110.721 176.604C110.489 176.554 110.249 176.553 110.016 176.6C108.835 176.718 108.193 177.416 108.285 178.31C108.593 181.022 114.834 178.75 115.235 183.278C115.457 185.543 113.785 187.031 111.179 187.367C108.573 187.704 106.735 186.487 106.353 184.242L109.114 183.946C109.21 184.376 109.473 184.749 109.845 184.985C110.217 185.22 110.667 185.299 111.096 185.202C111.315 185.222 111.535 185.193 111.74 185.116C111.946 185.039 112.131 184.917 112.283 184.759C112.435 184.601 112.549 184.411 112.617 184.202C112.685 183.994 112.706 183.773 112.677 183.555C112.428 181.045 106.147 183.079 105.705 178.664C105.515 176.708 106.925 174.767 109.773 174.495Z" fill="#00030C"/>
<path d="M94.0623 174.282C94.2597 174.3 94.4515 174.357 94.6262 174.451C94.801 174.545 94.9551 174.672 95.0795 174.827C95.2039 174.981 95.296 175.159 95.3504 175.35C95.4048 175.54 95.4203 175.74 95.396 175.937C95.3717 176.133 95.3081 176.323 95.2091 176.495C95.11 176.667 94.9774 176.817 94.8192 176.936C94.661 177.056 94.4804 177.142 94.2882 177.191C94.0959 177.239 93.8959 177.248 93.6999 177.218C93.5025 177.2 93.3107 177.142 93.136 177.048C92.9612 176.955 92.8071 176.827 92.6827 176.673C92.5583 176.518 92.4662 176.34 92.4118 176.15C92.3574 175.959 92.3419 175.76 92.3662 175.563C92.3905 175.366 92.4541 175.176 92.5531 175.004C92.6522 174.833 92.7848 174.683 92.943 174.563C93.1012 174.444 93.2818 174.357 93.474 174.309C93.6663 174.26 93.8663 174.251 94.0623 174.282Z" fill="#00030C"/>
<path d="M74.6524 171.804L79.3604 173.552L80.9242 171.579L83.4095 172.504L74.8203 182.729L72.0723 181.703L72.2146 168.345L74.727 169.246L74.6524 171.804ZM74.457 179.526L77.9883 175.234L74.6286 173.94L74.457 179.526Z" fill="#00030C"/>
<path d="M54.7308 168.029L57.1671 169.561C57.1307 170.156 57.2637 170.749 57.5508 171.271C57.8378 171.794 58.2671 172.224 58.7888 172.512C60.6921 173.715 62.8694 173.201 64.2098 171.097C65.5502 168.992 65.0956 166.748 63.1131 165.492C62.4235 164.997 61.5738 164.778 60.731 164.878C59.8881 164.978 59.1131 165.389 58.5582 166.031L62.204 168.344L61.1965 169.979L55.4453 166.367L56.6237 164.519C57.6219 163.49 58.9485 162.843 60.3737 162.69C61.7988 162.537 63.2327 162.887 64.4267 163.68C65.1549 164.111 65.7874 164.686 66.2855 165.371C66.7837 166.055 67.137 166.833 67.3238 167.659C67.5107 168.484 67.5271 169.339 67.3722 170.171C67.2172 171.003 66.8942 171.794 66.4227 172.497C65.9905 173.224 65.4147 173.856 64.7306 174.353C64.0464 174.85 63.2681 175.203 62.4431 175.39C61.6182 175.576 60.7638 175.593 59.9321 175.439C59.1005 175.285 58.3089 174.963 57.6057 174.493C56.4781 173.886 55.584 172.922 55.0637 171.752C54.5434 170.582 54.4263 169.272 54.7308 168.029Z" fill="#00030C"/>
<path d="M43.9983 160.753L47.5115 164.024L49.6703 161.724L46.585 158.827L47.9485 157.37L51.0337 160.267L53.3112 157.834L49.798 154.563L51.2324 153.074L56.5529 158.061L47.9425 167.245L42.6341 162.251L43.9983 160.753Z" fill="#00030C"/>
<path d="M32.0134 149.032L42.1401 141.568L43.663 143.612L40.1015 153.311L47.04 148.203L48.5655 150.237L38.4414 157.69L36.9159 155.656L40.4923 145.941L33.5099 151.058L32.0134 149.032Z" fill="#00030C"/>
<path d="M26.0803 138.062C25.492 136.91 25.2974 135.596 25.5265 134.323C25.7556 133.049 26.3957 131.886 27.3487 131.01L28.5463 133.65C28.1418 134.129 27.8889 134.717 27.8197 135.34C27.7504 135.963 27.8681 136.593 28.1576 137.149C29.0602 139.151 31.165 139.911 33.4969 138.859C35.8287 137.807 36.6377 135.715 35.7254 133.71C35.496 133.126 35.0973 132.623 34.5803 132.267C34.0633 131.911 33.4517 131.717 32.8239 131.711L31.6263 129.071C32.9152 128.932 34.2143 129.22 35.3234 129.891C36.4324 130.562 37.29 131.58 37.7639 132.786C38.138 133.548 38.3517 134.378 38.3916 135.225C38.4316 136.072 38.2969 136.919 37.9961 137.712C37.6952 138.505 37.2346 139.228 36.6427 139.835C36.0509 140.443 35.3405 140.923 34.5556 141.244C33.7948 141.62 32.965 141.837 32.1174 141.879C31.2698 141.921 30.4225 141.789 29.628 141.491C28.8334 141.193 28.1086 140.735 27.4984 140.145C26.8882 139.555 26.4055 138.846 26.0803 138.062Z" fill="#00030C"/>
<path d="M22.1666 127.634L21.5219 124.863L26.5143 120.951L20.3171 119.622L19.684 116.885L28.6228 119.187L32.8689 118.254L33.4412 120.716L29.1725 121.695L22.1666 127.634Z" fill="#00030C"/>
<path d="M31.4844 103.483C31.4757 103.774 31.3815 104.055 31.2136 104.293C31.0456 104.531 30.8113 104.714 30.54 104.819C30.2687 104.924 29.9724 104.947 29.6881 104.885C29.4039 104.822 29.1443 104.677 28.9419 104.468C28.7394 104.259 28.6031 103.995 28.5499 103.709C28.4968 103.423 28.5291 103.128 28.6429 102.86C28.7567 102.592 28.947 102.364 29.1899 102.204C29.4327 102.043 29.7175 101.958 30.0085 101.959C30.207 101.956 30.404 101.995 30.5873 102.071C30.7706 102.147 30.9364 102.26 31.0745 102.403C31.2127 102.546 31.3203 102.715 31.3907 102.901C31.4612 103.086 31.4931 103.284 31.4844 103.483Z" fill="#00030C"/>
</g>
<defs>
<clipPath id="clip0_50_986">
<rect width="168.42" height="168.1" fill="white" transform="translate(0 162.681) rotate(-75)"/>
</clipPath>
</defs>
</svg>
