<svg width="371" height="80" fill="none" xmlns="http://www.w3.org/2000/svg"><rect x=".851" width="370" height="80" rx="40" fill="#2A27E8"/><path d="M268.541 39.282c-.162-3.054-2.385-5.625-5.597-6.974 3.051-1.683 4.991-4.475 4.829-7.527-.251-4.73-5.442-8.299-11.595-7.973-6.154.326-10.939 4.424-10.688 9.153.162 3.052 2.385 5.625 5.597 6.975-3.051 1.682-4.991 4.472-4.829 7.526.162 3.054 2.385 5.625 5.598 6.975-3.052 1.681-4.991 4.472-4.829 7.527.25 4.73 5.442 8.298 11.595 7.972 6.153-.327 10.938-4.424 10.688-9.153-.162-3.054-2.386-5.625-5.598-6.974 3.052-1.682 4.991-4.473 4.829-7.527z" fill="#F4B323"/><path d="M43.243 61.546l-15.24-42h9.54l11.52 31.68 11.52-31.68h9.54l-15.24 42h-11.64zm33.193 0v-42h9v42h-9zm32.449.78c-2.36 0-4.62-.37-6.78-1.11-2.16-.76-4.05-1.84-5.67-3.24-1.62-1.42-2.79-3.11-3.51-5.07l8.46-3.12c.2.58.64 1.14 1.32 1.68.7.54 1.58.99 2.64 1.35 1.06.34 2.24.51 3.54.51 1.2 0 2.33-.17 3.39-.51 1.06-.36 1.92-.85 2.58-1.47.66-.62.99-1.34.99-2.16 0-.84-.35-1.53-1.05-2.07-.68-.56-1.56-1-2.64-1.32a19.9 19.9 0 00-3.27-.75c-3.04-.44-5.77-1.16-8.19-2.16-2.4-1.02-4.3-2.42-5.7-4.2-1.38-1.78-2.07-4.04-2.07-6.78 0-2.62.74-4.91 2.22-6.87 1.48-1.98 3.43-3.52 5.85-4.62 2.44-1.1 5.07-1.65 7.89-1.65 2.36 0 4.62.38 6.78 1.14 2.18.74 4.08 1.82 5.7 3.24 1.62 1.42 2.78 3.12 3.48 5.1l-8.46 3.06c-.2-.58-.65-1.13-1.35-1.65-.68-.54-1.55-.98-2.61-1.32-1.06-.34-2.24-.51-3.54-.51-1.16-.02-2.27.15-3.33.51s-1.93.85-2.61 1.47c-.68.62-1.02 1.32-1.02 2.1 0 1.08.32 1.89.96 2.43.64.52 1.48.89 2.52 1.11 1.06.22 2.22.42 3.48.6 2.88.42 5.53 1.17 7.95 2.25s4.36 2.52 5.82 4.32c1.46 1.8 2.19 3.99 2.19 6.57 0 2.62-.74 4.92-2.22 6.9-1.46 1.96-3.4 3.49-5.82 4.59-2.42 1.1-5.06 1.65-7.92 1.65zm39.65 0c-3.36 0-6.33-.82-8.91-2.46-2.56-1.64-4.57-3.84-6.03-6.6-1.44-2.78-2.16-5.86-2.16-9.24v-24.48h9v24.48c0 1.7.32 3.26.96 4.68.64 1.4 1.56 2.52 2.76 3.36 1.22.84 2.68 1.26 4.38 1.26 1.72 0 3.18-.41 4.38-1.23 1.2-.84 2.11-1.96 2.73-3.36.62-1.42.93-2.99.93-4.71v-24.48h9v24.48c0 2.54-.41 4.92-1.23 7.14-.82 2.2-1.99 4.14-3.51 5.82a16.198 16.198 0 01-5.4 3.93c-2.08.94-4.38 1.41-6.9 1.41zm36.198-42.78h10.14l15.24 42h-9.54l-2.4-6.6h-16.74l-2.4 6.6h-9.54l15.24-42zm0 26.4h10.14l-5.1-13.92-5.04 13.92zm30.198 15.6v-42h9v33h16.5v9h-25.5zm76.297.78c-2.36 0-4.62-.37-6.78-1.11-2.16-.76-4.05-1.84-5.67-3.24-1.62-1.42-2.79-3.11-3.51-5.07l8.46-3.12c.2.58.64 1.14 1.32 1.68.7.54 1.58.99 2.64 1.35 1.06.34 2.24.51 3.54.51 1.2 0 2.33-.17 3.39-.51 1.06-.36 1.92-.85 2.58-1.47.66-.62.99-1.34.99-2.16 0-.84-.35-1.53-1.05-2.07-.68-.56-1.56-1-2.64-1.32a19.9 19.9 0 00-3.27-.75c-3.04-.44-5.77-1.16-8.19-2.16-2.4-1.02-4.3-2.42-5.7-4.2-1.38-1.78-2.07-4.04-2.07-6.78 0-2.62.74-4.91 2.22-6.87 1.48-1.98 3.43-3.52 5.85-4.62 2.44-1.1 5.07-1.65 7.89-1.65 2.36 0 4.62.38 6.78 1.14 2.18.74 4.08 1.82 5.7 3.24 1.62 1.42 2.78 3.12 3.48 5.1l-8.46 3.06c-.2-.58-.65-1.13-1.35-1.65-.68-.54-1.55-.98-2.61-1.32-1.06-.34-2.24-.51-3.54-.51-1.16-.02-2.27.15-3.33.51s-1.93.85-2.61 1.47c-.68.62-1.02 1.32-1.02 2.1 0 1.08.32 1.89.96 2.43.64.52 1.48.89 2.52 1.11 1.06.22 2.22.42 3.48.6 2.88.42 5.53 1.17 7.95 2.25s4.36 2.52 5.82 4.32c1.46 1.8 2.19 3.99 2.19 6.57 0 2.62-.74 4.92-2.22 6.9-1.46 1.96-3.4 3.49-5.82 4.59-2.42 1.1-5.06 1.65-7.92 1.65zm22.551-.78v-42h26.76v9h-17.76v6h13.68v9h-13.68v9h17.76v9h-26.76z" fill="#fff"/></svg>