<svg width="252" height="72" fill="none" xmlns="http://www.w3.org/2000/svg"><rect x=".91" width="250.918" height="70" rx="35" fill="#BFFF0A"/><path d="M26.41 57V15h9v42h-9zm17.088 0V15h13.92c2.9 0 5.61.55 8.13 1.65 2.54 1.08 4.77 2.59 6.69 4.53 1.94 1.92 3.45 4.15 4.53 6.69 1.1 2.52 1.65 5.23 1.65 8.13 0 2.9-.55 5.62-1.65 8.16a21.171 21.171 0 01-4.53 6.69 21.387 21.387 0 01-6.69 4.53c-2.52 1.08-5.23 1.62-8.13 1.62h-13.92zm9-9h4.92c1.62 0 3.15-.31 4.59-.93 1.44-.62 2.72-1.48 3.84-2.58 1.12-1.1 1.99-2.37 2.61-3.81.64-1.46.96-3.02.96-4.68 0-1.66-.32-3.21-.96-4.65-.62-1.44-1.49-2.71-2.61-3.81-1.1-1.12-2.37-1.99-3.81-2.61-1.44-.62-2.98-.93-4.62-.93h-4.92v24zm30.434 9V15h26.76v9h-17.76v6h13.68v9h-13.68v9h17.76v9h-26.76zm46.208-42h10.14l15.24 42h-9.54l-2.4-6.6h-16.74l-2.4 6.6h-9.54l15.24-42zm0 26.4h10.14l-5.1-13.92-5.04 13.92zm43.156 16.38c-2.36 0-4.62-.37-6.78-1.11-2.16-.76-4.05-1.84-5.67-3.24-1.62-1.42-2.79-3.11-3.51-5.07l8.46-3.12c.2.58.64 1.14 1.32 1.68.7.54 1.58.99 2.64 1.35 1.06.34 2.24.51 3.54.51 1.2 0 2.33-.17 3.39-.51 1.06-.36 1.92-.85 2.58-1.47.66-.62.99-1.34.99-2.16 0-.84-.35-1.53-1.05-2.07-.68-.56-1.56-1-2.64-1.32a19.9 19.9 0 00-3.27-.75c-3.04-.44-5.77-1.16-8.19-2.16-2.4-1.02-4.3-2.42-5.7-4.2-1.38-1.78-2.07-4.04-2.07-6.78 0-2.62.74-4.91 2.22-6.87 1.48-1.98 3.43-3.52 5.85-4.62 2.44-1.1 5.07-1.65 7.89-1.65 2.36 0 4.62.38 6.78 1.14 2.18.74 4.08 1.82 5.7 3.24 1.62 1.42 2.78 3.12 3.48 5.1l-8.46 3.06c-.2-.58-.65-1.13-1.35-1.65-.68-.54-1.55-.98-2.61-1.32-1.06-.34-2.24-.51-3.54-.51-1.16-.02-2.27.15-3.33.51s-1.93.85-2.61 1.47c-.68.62-1.02 1.32-1.02 2.1 0 1.08.32 1.89.96 2.43.64.52 1.48.89 2.52 1.11 1.06.22 2.22.42 3.48.6 2.88.42 5.53 1.17 7.95 2.25s4.36 2.52 5.82 4.32c1.46 1.8 2.19 3.99 2.19 6.57 0 2.62-.74 4.92-2.22 6.9-1.46 1.96-3.4 3.49-5.82 4.59-2.42 1.1-5.06 1.65-7.92 1.65zm43.807-34.382l6.113-9.498-1.22 11.19 9.907-5.6-6.366 9.336 11.43-.42-10.053 5.341 10.336 4.857-11.438.124 6.873 9.02-10.203-5.122 1.836 11.118-6.63-9.195-3.621 10.669-1.539-11.161-8.249 7.775 3.906-10.57-10.988 3.1 8.455-7.558-11.208-2.284 11.067-2.815-8.861-7.147 11.144 2.575-4.485-10.371 8.668 7.373.919-11.22 4.207 10.483z" fill="#00030C"/></svg>