<svg width="256" height="59" fill="none" xmlns="http://www.w3.org/2000/svg"><path d="M10.01 54.84c-1.96 0-3.66-.44-5.1-1.32-1.4-.92-2.48-2.1-3.24-3.54C.91 48.54.53 47.06.53 45.54c0-3.2.56-6.12 1.68-8.76 1.12-2.68 2.52-5.04 4.2-7.08 1.72-2.08 3.48-3.84 5.28-5.28 1.84-1.44 3.5-2.52 4.98-3.24 1.52-.76 2.6-1.14 3.24-1.14 1.28 0 1.92.64 1.92 1.92 0 .6-.4 1.3-1.2 2.1-.8.76-1.82 1.66-3.06 2.7a91.943 91.943 0 00-3.96 3.54c-1.4 1.28-2.72 2.74-3.96 4.38-1.24 1.6-2.26 3.4-3.06 5.4-.8 1.96-1.2 4.12-1.2 6.48 0 2.4.98 3.6 2.94 3.6 1.8 0 3.64-.34 5.52-1.02 1.92-.68 3.8-1.56 5.64-2.64 1.88-1.12 3.68-2.28 5.4-3.48 1.72-1.2 3.28-2.34 4.68-3.42 1.4-1.12 2.58-2.02 3.54-2.7.96-.68 1.64-1.02 2.04-1.02.8 0 1.2.44 1.2 1.32 0 .68-.46 1.58-1.38 2.7-.92 1.12-2.16 2.34-3.72 3.66a76.92 76.92 0 01-5.22 4.02 82.696 82.696 0 01-5.82 3.66c-1.96 1.08-3.84 1.96-5.64 2.64-1.76.64-3.28.96-4.56.96zm26.07 1.86c-.88 0-1.56-.26-2.04-.78-.48-.48-.72-1.7-.72-3.66 0-1.8.32-4.14.96-7.02.64-2.92 1.5-6.16 2.58-9.72 1.08-3.56 2.3-7.24 3.66-11.04 1.36-3.84 2.78-7.6 4.26-11.28C46.3 9.48 47.76 6.08 49.16 3c.52-1.12 1.06-1.9 1.62-2.34C51.34.22 52 0 52.76 0c.52 0 .96.16 1.32.48.4.28.6.76.6 1.44 0 .24-.26 1.02-.78 2.34-.48 1.32-1.16 3.06-2.04 5.22l-2.82 7.26c-1.04 2.68-2.1 5.5-3.18 8.46-1.08 2.96-2.1 5.94-3.06 8.94-.96 2.96-1.78 5.8-2.46 8.52-.68 2.72-1.14 5.16-1.38 7.32.96-1.16 2.06-2.64 3.3-4.44 1.24-1.8 2.56-3.74 3.96-5.82s2.82-4.14 4.26-6.18 2.86-3.9 4.26-5.58c1.4-1.68 2.7-3.02 3.9-4.02 1.24-1.04 2.32-1.56 3.24-1.56 1.52 0 2.74.48 3.66 1.44.96.92 1.44 2.44 1.44 4.56 0 1.2-.24 2.64-.72 4.32-.44 1.68-.96 3.44-1.56 5.28-.6 1.84-1.14 3.6-1.62 5.28-.44 1.68-.66 3.12-.66 4.32 0 1.64.62 2.46 1.86 2.46 1.92 0 3.84-.42 5.76-1.26a30.58 30.58 0 005.58-3.12c1.76-1.28 3.38-2.56 4.86-3.84 1.48-1.32 2.74-2.44 3.78-3.36 1.12-1 2.06-1.5 2.82-1.5.96 0 1.44.5 1.44 1.5 0 .28-.06.6-.18.96s-.44.82-.96 1.38c-.64.72-1.56 1.66-2.76 2.82-1.16 1.16-2.52 2.4-4.08 3.72a43.594 43.594 0 01-4.98 3.72 31.07 31.07 0 01-5.46 2.88c-1.84.72-3.64 1.08-5.4 1.08-2.4 0-4.26-.68-5.58-2.04-1.28-1.4-1.92-3.32-1.92-5.76 0-1.52.24-3.36.72-5.52.48-2.16 1.08-4.44 1.8-6.84.76-2.44 1.52-4.82 2.28-7.14-1.28.88-2.68 2.2-4.2 3.96a108.15 108.15 0 00-4.68 5.88c-1.64 2.16-3.28 4.36-4.92 6.6-1.6 2.24-3.16 4.32-4.68 6.24-1.48 1.88-2.86 3.4-4.14 4.56-1.28 1.16-2.38 1.74-3.3 1.74zm50.98-1.14c-1.52 0-2.78-.7-3.78-2.1-.96-1.44-1.44-3.3-1.44-5.58 0-2.12.52-4.22 1.56-6.3 1.08-2.08 2.5-4.08 4.26-6a45.1 45.1 0 015.76-5.28c2.08-1.64 4.16-3.06 6.24-4.26 2.12-1.2 4.06-2.14 5.82-2.82 1.76-.68 3.16-1.02 4.2-1.02.56 0 1.02.12 1.38.36.36.2.54.58.54 1.14 0 .36-.14.7-.42 1.02h.12c.88 0 1.32.52 1.32 1.56 0 .36-.14 1.1-.42 2.22-.28 1.08-.6 2.44-.96 4.08a72.46 72.46 0 00-.96 5.46c-.28 1.96-.42 3.96-.42 6 0 1.72.66 2.58 1.98 2.58 1.48 0 2.98-.34 4.5-1.02 1.52-.68 3-1.5 4.44-2.46 1.44-1 2.76-1.98 3.96-2.94a286 286 0 013.06-2.52c.84-.68 1.44-1.02 1.8-1.02.32 0 .6.1.84.3.24.2.36.52.36.96 0 .4-.4 1.12-1.2 2.16-.8 1.04-1.86 2.22-3.18 3.54-1.32 1.32-2.8 2.6-4.44 3.84a27.815 27.815 0 01-5.04 3.06c-1.72.8-3.36 1.2-4.92 1.2-1.2 0-2.3-.36-3.3-1.08-.96-.76-1.74-2.04-2.34-3.84-.56-1.8-.84-4.28-.84-7.44v-1.5c-1.96 3.24-4.02 6.2-6.18 8.88-2.12 2.68-4.24 4.82-6.36 6.42-2.08 1.6-4.06 2.4-5.94 2.4zm21.48-29.04c-.2.08-.48.2-.84.36-1.84.84-3.76 1.88-5.76 3.12a61.27 61.27 0 00-5.76 4.14c-1.84 1.52-3.5 3.1-4.98 4.74-1.48 1.64-2.66 3.3-3.54 4.98-.88 1.68-1.32 3.32-1.32 4.92 0 .52.1.92.3 1.2.24.28.64.42 1.2.42.8 0 1.84-.5 3.12-1.5 1.28-1.04 2.68-2.4 4.2-4.08 1.56-1.68 3.12-3.54 4.68-5.58 1.56-2.04 3.04-4.1 4.44-6.18 1.44-2.08 2.68-4 3.72-5.76.16-.28.34-.54.54-.78zm13.924 8.28c-1.08-.08-1.58-.78-1.5-2.1.04-.32.26-.7.66-1.14.4-.48.86-.74 1.38-.78 1.24-.12 2.76-.3 4.56-.54 1.84-.28 3.86-.6 6.06-.96.4-1.96.88-4.02 1.44-6.18.56-2.16 1.18-4.26 1.86-6.3.68-2.08 1.4-3.96 2.16-5.64.76-1.68 1.56-3 2.4-3.96.44-.44.84-.74 1.2-.9.36-.2.68-.3.96-.3.56 0 1 .24 1.32.72.36.48.54 1.02.54 1.62 0 .32-.06.64-.18.96-.8 2.24-1.66 5-2.58 8.28-.92 3.28-1.9 6.86-2.94 10.74 3.68-.6 7.36-1.24 11.04-1.92 3.68-.68 6.84-1.3 9.48-1.86.76-.32 1.34-.26 1.74.18.44.44.66.88.66 1.32 0 .56-.16.98-.48 1.26-.28.28-.58.52-.9.72l-.06.06c-.8.32-2 .7-3.6 1.14-1.6.4-3.44.84-5.52 1.32-2.08.44-4.3.88-6.66 1.32-2.32.44-4.62.84-6.9 1.2-.92 3.52-1.86 7.14-2.82 10.86-.92 3.68-1.84 7.3-2.76 10.86-.4 1.44-.86 2.34-1.38 2.7-.48.4-1 .6-1.56.6-.64 0-1.2-.24-1.68-.72-.44-.48-.5-1.46-.18-2.94l4.38-20.46c-2.4.36-4.52.62-6.36.78-1.8.16-3.06.18-3.78.06zm40.367 19.26c-1.72 0-2.94-.34-3.66-1.02-.72-.68-1.08-1.68-1.08-3 0-6.64 1.2-13.58 3.6-20.82 2.4-7.28 5.76-14.58 10.08-21.9.56-.92 1-1.5 1.32-1.74.36-.24.78-.36 1.26-.36.56 0 1.06.2 1.5.6.44.4.66.94.66 1.62 0 .36-.36 1.34-1.08 2.94-.72 1.56-1.64 3.58-2.76 6.06a301.87 301.87 0 00-3.6 8.34c-1.24 3.04-2.42 6.22-3.54 9.54a84.855 84.855 0 00-2.7 9.9c.92-1.36 2.02-2.82 3.3-4.38 1.32-1.56 2.72-3.12 4.2-4.68 1.48-1.56 2.98-2.98 4.5-4.26 1.56-1.28 3.06-2.3 4.5-3.06 1.44-.76 2.76-1.14 3.96-1.14 1.56 0 2.92.66 4.08 1.98 1.2 1.28 1.8 3.22 1.8 5.82 0 2.2-.6 4.46-1.8 6.78-1.2 2.28-2.96 4.4-5.28 6.36-2.28 1.92-5.04 3.48-8.28 4.68-3.24 1.16-6.9 1.74-10.98 1.74zm.24-4.56c3.32 0 6.34-.56 9.06-1.68 2.72-1.12 5.04-2.54 6.96-4.26 1.96-1.76 3.46-3.58 4.5-5.46 1.08-1.92 1.62-3.66 1.62-5.22 0-1.12-.38-1.68-1.14-1.68-.92 0-2.1.44-3.54 1.32-1.44.88-3 2.04-4.68 3.48-1.64 1.44-3.28 3-4.92 4.68a122.83 122.83 0 00-4.56 4.8c-1.36 1.56-2.46 2.9-3.3 4.02zm39.212 5.1c-2.36 0-4.22-.9-5.58-2.7-1.36-1.8-2.04-4.14-2.04-7.02 0-1.04.14-2.14.42-3.3.32-1.2.72-2.28 1.2-3.24-.28-.28-.5-.66-.66-1.14-.16-.52-.24-1.16-.24-1.92 0-2.36.4-4.52 1.2-6.48.8-1.96 1.86-3.66 3.18-5.1 1.32-1.48 2.78-2.62 4.38-3.42 1.64-.8 3.3-1.2 4.98-1.2 2.76 0 5 1 6.72 3 1.72 1.96 2.58 4.96 2.58 9 0 2.12-.32 4.28-.96 6.48-.6 2.2-1.44 4.32-2.52 6.36-1.04 2.04-2.26 3.86-3.66 5.46-1.36 1.6-2.82 2.88-4.38 3.84-1.52.92-3.06 1.38-4.62 1.38zm-2.04-18.3c.24.32.36.74.36 1.26 0 .6-.12 1.2-.36 1.8-.2.6-.42 1.42-.66 2.46-.24 1.04-.36 2.52-.36 4.44 0 1.92.76 2.88 2.28 2.88 1.68 0 3.24-.66 4.68-1.98 1.44-1.36 2.72-3.1 3.84-5.22 1.12-2.12 1.98-4.38 2.58-6.78.64-2.44.96-4.74.96-6.9 0-1.4-.26-2.38-.78-2.94-.52-.6-1.46-.9-2.82-.9-1.4 0-2.86.48-4.38 1.44-1.48.92-2.72 2.18-3.72 3.78-1 1.6-1.5 3.4-1.5 5.4 0 .44-.04.86-.12 1.26zm26.693 15.54c-.6 0-1.04-.22-1.32-.66-.28-.44-.42-1-.42-1.68 0-.56.36-1.36 1.08-2.4.76-1.08 1.74-2.34 2.94-3.78 1.24-1.48 2.6-3.06 4.08-4.74 1.48-1.68 2.98-3.38 4.5-5.1-1.84-3.12-3.24-5.58-4.2-7.38-.96-1.84-1.44-3.28-1.44-4.32 0-.72.24-1.38.72-1.98.48-.64.96-.96 1.44-.96.56 0 1.1.34 1.62 1.02.56.64 1.24 1.74 2.04 3.3.8 1.52 1.88 3.62 3.24 6.3 2.2-2.64 4.02-4.8 5.46-6.48 1.48-1.68 2.66-2.98 3.54-3.9.92-.92 1.64-1.56 2.16-1.92.56-.4 1.04-.6 1.44-.6.48 0 .88.2 1.2.6.32.36.48.96.48 1.8 0 .8-.38 1.78-1.14 2.94-.72 1.16-1.68 2.42-2.88 3.78-1.2 1.36-2.5 2.76-3.9 4.2-1.36 1.4-2.66 2.76-3.9 4.08 2 3.44 3.92 6.44 5.76 9 1.84 2.52 3.32 4.6 4.44 6.24 1.16 1.64 1.74 2.84 1.74 3.6 0 .52-.12.92-.36 1.2-.24.24-.7.36-1.38.36-.48 0-1.04-.2-1.68-.6-.64-.4-1.46-1.18-2.46-2.34-.96-1.16-2.22-2.84-3.78-5.04-1.52-2.24-3.4-5.16-5.64-8.76-1.4 1.56-2.8 3.18-4.2 4.86a326.29 326.29 0 01-3.9 4.62c-1.2 1.4-2.26 2.54-3.18 3.42-.92.88-1.62 1.32-2.1 1.32z" fill="#000"/></svg>