<svg width="609" height="50" fill="none" xmlns="http://www.w3.org/2000/svg"><path d="M553.776 28.976v5.778h54.887v13.722h-72.942V2.255h72.798v13.721h-54.743v5.778h44.776v7.222h-44.776zm-77.431 19.5L448.323 2.255h20.366l23.905 44.415h-7.366l23.905-44.415h20.077l-27.733 46.22h-25.132zM422.69 2.255h18.056v46.22H422.69V2.256zm-83.386 0h75.109v13.721h-75.109V2.255zm28.527 12.783h18.055v33.438h-18.055V15.038zM279.63 41.47V30.637h49.399V41.47H279.63zm-16.177 7.006l30.983-46.221h20.077l31.271 46.22h-19.86L299.13 7.094h10.761l-26.577 41.383h-19.861zm-59.917-19.5v5.778h54.887v13.722H185.48V2.255h72.799v13.721h-54.743v5.778h44.776v7.222h-44.776zm-107.061 19.5V2.255H152.3c4.381 0 8.305.505 11.772 1.516 3.515.963 6.283 2.6 8.305 4.911 2.071 2.311 3.106 5.465 3.106 9.461 0 2.648-.482 4.839-1.445 6.572-.963 1.733-2.287 3.082-3.972 4.044-1.685.963-3.611 1.662-5.777 2.095-2.167.433-4.43.698-6.789.794l-5.272-1.01c5.729.047 10.135.288 13.216.721 3.13.434 5.296 1.228 6.5 2.384 1.252 1.107 1.878 2.72 1.878 4.838v9.895h-18.055v-7.728c0-1.444-.289-2.528-.867-3.25-.53-.77-1.733-1.3-3.611-1.589-1.83-.289-4.67-.433-8.522-.433H114.53v13H96.475zm18.055-25.06h37.771c1.444 0 2.648-.242 3.611-.723 1.011-.482 1.517-1.396 1.517-2.744 0-1.252-.506-2.095-1.517-2.528-.963-.482-2.167-.722-3.611-.722H114.53v6.716zm-27.546 5.777c-.24 4.574-1.902 8.401-4.983 11.483-3.082 3.081-7.632 5.392-13.65 6.933-5.97 1.54-13.53 2.311-22.677 2.311-6.981 0-13.24-.385-18.777-1.155-5.537-.723-10.256-1.974-14.155-3.756-3.9-1.83-6.886-4.309-8.956-7.438C1.716 34.44.681 30.493.681 25.726c0-4.766 1.035-8.738 3.105-11.916 2.07-3.226 5.056-5.778 8.956-7.655 3.9-1.926 8.618-3.298 14.155-4.117C32.434 1.22 38.693.81 45.674.81c9.148 0 16.731.843 22.75 2.528 6.018 1.637 10.568 4.068 13.649 7.294 3.081 3.226 4.743 7.15 4.983 11.772H68.28c-.578-1.54-1.637-2.889-3.178-4.044-1.54-1.204-3.852-2.143-6.933-2.817-3.081-.674-7.246-1.01-12.494-1.01-6.163 0-11.17.384-15.022 1.155-3.852.722-6.668 1.902-8.45 3.539-1.781 1.636-2.672 3.803-2.672 6.5 0 2.455.89 4.453 2.672 5.994 1.782 1.54 4.598 2.672 8.45 3.394 3.852.722 8.86 1.083 15.022 1.083 5.248 0 9.389-.313 12.422-.939 3.081-.626 5.392-1.468 6.933-2.527 1.54-1.108 2.6-2.287 3.178-3.54h18.777z" fill="#fff"/></svg>