<svg width="150" height="98" fill="none" xmlns="http://www.w3.org/2000/svg"><path d="M1.272 94.497c9.425-7.106 54.738-48.268 66.12-51.459a50.283 50.283 0 017.989-1.38 83.302 83.302 0 0124.173-18.456 119.342 119.342 0 0130.789-10.697c3.271-.688 6.583-1.295 9.967-1.75L118.973 4.46c-2.323-.688-.936-4.12 1.436-3.401a3900.24 3900.24 0 0028.072 8.288c1.522.442 1.357 2.33.471 3.202l-22.467 22.138c-1.713 1.673-3.989-1.315-2.304-2.967l17.628-17.373a116.569 116.569 0 00-37.672 10.76 81.146 81.146 0 00-23.48 16.431c3.299.126 6.564.75 9.685 1.853a18.983 18.983 0 017.159 4.406 19.038 19.038 0 014.564 7.069 19.961 19.961 0 01.357 9.952 19.701 19.701 0 01-4.496 8.835 27.827 27.827 0 01-8.822 6.653 27.955 27.955 0 01-10.73 2.703c-6.342.352-13.208-2.158-15.548-8.641-3.417-9.443 3.475-20.604 8.677-27.846l.446-.621C59.63 47.947 13.57 90.296 3.576 97.464c-1.982 1.356-4.198-1.496-2.304-2.967zm65.09-29.69c-.84 3.35-1.114 7.314.983 10.304 3.763 5.515 12.29 4.654 17.662 2.791 7.094-2.445 13.165-8.19 14.207-15.86a13.797 13.797 0 00-1.206-7.439 13.886 13.886 0 00-4.937-5.716c-4.524-3.141-10.285-3.88-15.751-3.567a100.68 100.68 0 00-2.316 2.85 48.083 48.083 0 00-8.642 16.637z" fill="#083935"/></svg>