<svg width="891" height="74" fill="none" xmlns="http://www.w3.org/2000/svg"><path d="M789.64 71.834V2.178h69.223c6.139 0 11.555.758 16.249 2.275 4.767 1.444 8.522 3.863 11.267 7.258 2.744 3.322 4.116 7.763 4.116 13.324 0 3.684-.686 6.79-2.058 9.317a14.844 14.844 0 01-5.525 5.85c-2.311 1.444-4.983 2.528-8.016 3.25-2.961.65-6.103 1.047-9.425 1.191l-5.417-1.191c7.223.072 12.856.47 16.9 1.191 4.117.65 7.042 1.878 8.775 3.684 1.805 1.805 2.708 4.441 2.708 7.908v15.6h-22.099V58.617c0-2.383-.434-4.189-1.3-5.417-.867-1.3-2.636-2.202-5.308-2.708-2.6-.505-6.536-.758-11.809-.758h-36.29v22.1H789.64zm21.991-37.374h47.232c2.961 0 5.308-.614 7.041-1.841 1.734-1.228 2.6-3.106 2.6-5.634 0-2.383-.866-4.116-2.6-5.2-1.733-1.083-4.08-1.624-7.041-1.624h-47.232v14.3z" fill="url(#paint0_linear_44_788)"/><path d="M642.998 42.585v12.133H775.45v17.116H621.007V2.178h154.226v17.224H642.998v12.133h119.344v11.05H642.998z" fill="url(#paint1_linear_44_788)"/><path d="M591.146 53.418l-7.908 4.117V2.178h22.1v69.656h-22.1l-71.606-50.482 7.908-4.225v54.707h-21.991V2.178h21.991l71.606 51.24z" fill="url(#paint2_linear_44_788)"/><path d="M424.759 73.676c-8.233 0-15.744-.614-22.533-1.842-6.788-1.3-12.674-3.358-17.658-6.175-4.911-2.888-8.738-6.608-11.483-11.158-2.672-4.622-4.008-10.255-4.008-16.9 0-6.643 1.372-12.313 4.117-17.007 2.816-4.767 6.788-8.63 11.916-11.591 5.128-3.034 11.266-5.236 18.416-6.609 7.15-1.372 15.094-2.058 23.833-2.058 11.194 0 20.655 1.192 28.383 3.575 7.727 2.311 13.649 5.633 17.766 9.966 4.189 4.261 6.5 9.353 6.933 15.275h-22.425c-.938-2.094-2.527-4.008-4.766-5.741-2.239-1.734-5.453-3.106-9.641-4.117-4.117-1.083-9.534-1.625-16.25-1.625-8.016 0-14.661.758-19.933 2.275-5.2 1.444-9.063 3.647-11.591 6.608-2.528 2.961-3.792 6.644-3.792 11.05 0 4.044 1.228 7.475 3.683 10.291 2.456 2.745 6.32 4.84 11.592 6.283 5.344 1.445 12.313 2.167 20.908 2.167 6.283 0 11.735-.433 16.358-1.3 4.622-.939 8.702-2.239 12.241-3.9 3.611-1.733 6.897-3.72 9.858-5.958l3.792.975c-3.034 8.81-8.414 15.6-16.142 20.366-7.727 4.767-17.585 7.15-29.574 7.15zm39.866-1.842c0-2.166.216-4.658.65-7.475a228.625 228.625 0 011.733-8.666 289.605 289.605 0 012.167-8.558h-38.241V36.627h51.349v35.207h-17.658z" fill="url(#paint3_linear_44_788)"/><path d="M331.18 2.178h22.099v69.656H331.18V2.178z" fill="url(#paint4_linear_44_788)"/><path d="M226.626 47.135h23.508c.433 1.878 1.769 3.539 4.008 4.983 2.311 1.372 5.344 2.456 9.1 3.25 3.828.794 8.197 1.192 13.108 1.192 4.694 0 8.45-.253 11.266-.759 2.889-.505 4.947-1.3 6.175-2.383 1.228-1.083 1.842-2.455 1.842-4.117 0-1.66-.903-2.924-2.709-3.791-1.805-.867-4.947-1.517-9.424-1.95-4.478-.433-10.617-.794-18.417-1.083-5.922-.217-11.158-.722-15.707-1.517-4.55-.867-8.378-2.058-11.484-3.575-3.105-1.589-5.452-3.539-7.041-5.85-1.589-2.383-2.383-5.2-2.383-8.45 0-4.91 1.589-9.063 4.766-12.458 3.178-3.394 7.945-5.958 14.3-7.691 6.428-1.805 14.372-2.708 23.833-2.708 14.01 0 24.735 2.31 32.174 6.933 7.438 4.622 11.158 11.122 11.158 19.5h-22.533c-.289-3.106-2.347-5.417-6.175-6.934-3.755-1.516-8.919-2.275-15.491-2.275-6.355 0-11.23.542-14.625 1.625-3.394 1.084-5.091 2.925-5.091 5.525 0 1.156.433 2.13 1.3 2.925.939.722 2.491 1.372 4.658 1.95 2.239.506 5.308.939 9.208 1.3 3.9.361 8.847.65 14.841.867 6.284.216 11.7.758 16.25 1.625 4.622.866 8.414 2.058 11.375 3.575 3.033 1.516 5.236 3.466 6.608 5.85 1.444 2.383 2.166 5.2 2.166 8.45 0 4.982-1.48 9.171-4.441 12.566-2.961 3.322-7.619 5.85-13.975 7.583-6.283 1.66-14.552 2.491-24.807 2.491-6.139 0-11.736-.47-16.792-1.408-5.055-.939-9.497-2.239-13.324-3.9-3.828-1.733-7.042-3.72-9.642-5.958-2.6-2.239-4.55-4.658-5.85-7.258-1.227-2.6-1.805-5.308-1.733-8.125z" fill="url(#paint5_linear_44_788)"/><path d="M145.249 42.585v12.133h71.065v17.116h-93.056V2.178h92.839v17.224h-70.848v12.133h57.957v11.05h-57.957z" fill="url(#paint6_linear_44_788)"/><path d="M63.372 2.178c8.955 0 16.394.939 22.316 2.816 5.922 1.878 10.58 4.442 13.974 7.692 3.467 3.25 5.923 6.97 7.367 11.158 1.444 4.116 2.167 8.486 2.167 13.108 0 4.55-.795 8.919-2.384 13.108s-4.189 7.944-7.8 11.266c-3.538 3.25-8.233 5.814-14.082 7.692-5.85 1.877-13.036 2.816-21.558 2.816H.54V2.178h62.832zM22.532 53.85h40.081c4.478 0 8.234-.397 11.267-1.191 3.105-.867 5.56-2.058 7.366-3.575 1.806-1.517 3.106-3.286 3.9-5.308.867-2.095 1.3-4.37 1.3-6.825 0-2.528-.433-4.803-1.3-6.825-.794-2.022-2.094-3.792-3.9-5.308-1.805-1.517-4.26-2.672-7.366-3.467-3.033-.794-6.789-1.191-11.267-1.191H22.531v33.69z" fill="url(#paint7_linear_44_788)"/><defs><linearGradient id="paint0_linear_44_788" x1="789.92" y1="71.834" x2="883.077" y2="71.082" gradientUnits="userSpaceOnUse"><stop stop-color="#C5F415"/><stop offset="1" stop-color="#CAFF00"/></linearGradient><linearGradient id="paint1_linear_44_788" x1="621.436" y1="71.834" x2="764.077" y2="70.07" gradientUnits="userSpaceOnUse"><stop stop-color="#C5F415"/><stop offset="1" stop-color="#CAFF00"/></linearGradient><linearGradient id="paint2_linear_44_788" x1="497.848" y1="71.834" x2="597.408" y2="70.975" gradientUnits="userSpaceOnUse"><stop stop-color="#C5F415"/><stop offset="1" stop-color="#CAFF00"/></linearGradient><linearGradient id="paint3_linear_44_788" x1="369.392" y1="73.676" x2="473.955" y2="72.776" gradientUnits="userSpaceOnUse"><stop stop-color="#C5F415"/><stop offset="1" stop-color="#CAFF00"/></linearGradient><linearGradient id="paint4_linear_44_788" x1="331.241" y1="71.834" x2="351.655" y2="71.798" gradientUnits="userSpaceOnUse"><stop stop-color="#C5F415"/><stop offset="1" stop-color="#CAFF00"/></linearGradient><linearGradient id="paint5_linear_44_788" x1="226.872" y1="73.784" x2="310.53" y2="73.21" gradientUnits="userSpaceOnUse"><stop stop-color="#C5F415"/><stop offset="1" stop-color="#CAFF00"/></linearGradient><linearGradient id="paint6_linear_44_788" x1="123.516" y1="71.834" x2="209.47" y2="71.194" gradientUnits="userSpaceOnUse"><stop stop-color="#C5F415"/><stop offset="1" stop-color="#CAFF00"/></linearGradient><linearGradient id="paint7_linear_44_788" x1=".842" y1="71.834" x2="101.202" y2="70.961" gradientUnits="userSpaceOnUse"><stop stop-color="#C5F415"/><stop offset="1" stop-color="#CAFF00"/></linearGradient></defs></svg>