<svg width="81" height="68" fill="none" xmlns="http://www.w3.org/2000/svg"><path d="M72.704 14.492a6.331 6.331 0 01-3.497-1.053 6.257 6.257 0 01-2.319-2.803 6.2 6.2 0 01-.358-3.609 6.23 6.23 0 011.723-3.198 6.31 6.31 0 013.223-1.709 6.342 6.342 0 013.638.355 6.285 6.285 0 012.825 2.3 6.21 6.21 0 01-.783 7.888 6.339 6.339 0 01-4.452 1.83zm0 25.759a6.331 6.331 0 01-3.497-1.052 6.257 6.257 0 01-2.319-2.803 6.2 6.2 0 01-.358-3.61 6.231 6.231 0 011.723-3.197 6.31 6.31 0 013.223-1.71 6.341 6.341 0 013.638.356 6.285 6.285 0 012.825 2.3 6.211 6.211 0 01-.783 7.887 6.339 6.339 0 01-4.452 1.83zm0 25.749a6.331 6.331 0 01-3.497-1.053 6.257 6.257 0 01-2.319-2.803 6.2 6.2 0 01-.358-3.608 6.23 6.23 0 011.723-3.199 6.31 6.31 0 013.223-1.709 6.342 6.342 0 013.638.355 6.285 6.285 0 012.825 2.3 6.211 6.211 0 01-.783 7.888A6.321 6.321 0 0172.704 66zM51.462 14.492a6.331 6.331 0 01-3.497-1.053 6.257 6.257 0 01-2.32-2.803 6.2 6.2 0 01-.357-3.609A6.23 6.23 0 0147.01 3.83a6.31 6.31 0 013.223-1.709 6.342 6.342 0 013.637.355 6.285 6.285 0 012.826 2.3 6.21 6.21 0 01-.783 7.888 6.321 6.321 0 01-4.452 1.829zm0 25.759a6.331 6.331 0 01-3.497-1.052 6.257 6.257 0 01-2.32-2.803 6.2 6.2 0 01-.357-3.61 6.231 6.231 0 011.723-3.197 6.31 6.31 0 013.223-1.71 6.341 6.341 0 013.637.356 6.285 6.285 0 012.826 2.3 6.211 6.211 0 01-.783 7.887 6.321 6.321 0 01-4.452 1.83zm0 25.749a6.331 6.331 0 01-3.497-1.053 6.257 6.257 0 01-2.32-2.803 6.2 6.2 0 01-.357-3.608 6.23 6.23 0 011.723-3.199 6.31 6.31 0 013.223-1.709 6.342 6.342 0 013.637.355 6.285 6.285 0 012.826 2.3 6.211 6.211 0 01-.783 7.888A6.321 6.321 0 0151.462 66zM29.538 14.492a6.331 6.331 0 01-3.498-1.053 6.257 6.257 0 01-2.319-2.803 6.2 6.2 0 01-.358-3.609 6.231 6.231 0 011.723-3.198A6.311 6.311 0 0128.31 2.12a6.342 6.342 0 013.637.355 6.285 6.285 0 012.825 2.3 6.21 6.21 0 01-.783 7.888 6.3 6.3 0 01-2.042 1.354 6.339 6.339 0 01-2.41.475zm0 25.759A6.331 6.331 0 0126.04 39.2a6.257 6.257 0 01-2.319-2.803 6.2 6.2 0 01-.358-3.61 6.232 6.232 0 011.723-3.197 6.311 6.311 0 013.224-1.71 6.342 6.342 0 013.637.356 6.285 6.285 0 012.825 2.3 6.211 6.211 0 01-.783 7.887 6.297 6.297 0 01-2.042 1.354 6.339 6.339 0 01-2.41.475zm0 25.749a6.331 6.331 0 01-3.498-1.053 6.257 6.257 0 01-2.319-2.803 6.2 6.2 0 01-.358-3.608 6.23 6.23 0 011.723-3.199 6.31 6.31 0 013.224-1.709 6.342 6.342 0 013.637.355 6.285 6.285 0 012.825 2.3 6.211 6.211 0 01-.783 7.888A6.321 6.321 0 0129.538 66zM8.296 14.492a6.331 6.331 0 01-3.498-1.053 6.257 6.257 0 01-2.319-2.803 6.2 6.2 0 01-.358-3.609A6.23 6.23 0 013.844 3.83a6.311 6.311 0 013.223-1.71 6.342 6.342 0 013.638.355 6.285 6.285 0 012.825 2.3 6.21 6.21 0 01-.783 7.888 6.321 6.321 0 01-4.451 1.829zm0 25.759A6.331 6.331 0 014.798 39.2a6.257 6.257 0 01-2.319-2.803 6.2 6.2 0 01-.358-3.61 6.231 6.231 0 011.723-3.197 6.311 6.311 0 013.223-1.71 6.342 6.342 0 013.638.356 6.285 6.285 0 012.825 2.3 6.211 6.211 0 01-.783 7.887 6.321 6.321 0 01-4.451 1.83zm0 25.749a6.331 6.331 0 01-3.498-1.053 6.257 6.257 0 01-2.319-2.803 6.2 6.2 0 01-.358-3.608 6.23 6.23 0 011.723-3.199 6.31 6.31 0 013.223-1.709 6.342 6.342 0 013.638.355 6.285 6.285 0 012.825 2.3 6.211 6.211 0 01-.783 7.888A6.321 6.321 0 018.296 66z" stroke="#ACFF00" stroke-width="3" stroke-miterlimit="10"/></svg>