<svg width="54" height="101" fill="none" xmlns="http://www.w3.org/2000/svg"><g clip-path="url(#clip0_0_1387)"><path d="M39.21 84.06H16.586l6.745-24.056h9.131L39.21 84.06z" fill="#77D58A"/><path d="M47.983 83.438a5.78 5.78 0 00-3.739 1.363 5.908 5.908 0 00-10.652-2.72 8.09 8.09 0 00-13.465.881A6.653 6.653 0 007.341 85.52v.203a5.983 5.983 0 00-1.442-.185 5.9 5.9 0 103.88 10.335 6.802 6.802 0 0010.061 4.122 6.807 6.807 0 008.638-1.398 6.8 6.8 0 009.7.626 5.517 5.517 0 006.046 1.344 5.513 5.513 0 003.477-5.127v-.396h.317a5.811 5.811 0 000-11.618l-.035.013z" fill="#77D58A"/><path d="M45.853 92.578c4.41.22 4.67-6.402.256-6.552a3.356 3.356 0 00-1.962.648c-1.05.816-3.086.794-3.368-.882-.53-3.35-4.246-4.272-6.336-1.6a1.992 1.992 0 01-2.84 0c-2.464-3.06-6.996-3.086-9.108.401-.715 1.182-2.818 1.45-3.475 0-.881-1.98-2.914-3.289-5.118-2.54a4.1 4.1 0 00-2.782 4.048c.035 1.362-1.323 2.205-2.54 1.927-2.205-.463-4.682 1.424-4.105 3.827.578 2.403 3.347 3.748 5.428 2.068 1.168-.948 2.905-.684 3.368.882.697 2.358 3.527 4.034 5.855 2.729 1.05-.582 1.684-.503 2.734 0a4.1 4.1 0 001.83.41 4.435 4.435 0 003.244-1.557 2.02 2.02 0 012.844 0c1.574 1.711 4.105 2.156 5.974.587a2.055 2.055 0 012.844 0c2.134 2.09 5.38.52 5.234-2.394a2.008 2.008 0 012.023-2.002z" fill="#fff"/><path d="M33.579 85.17H22.173l3.404-25.166h4.598l3.404 25.167z" fill="#fff"/><path d="M27.728 62.182a23.869 23.869 0 01-4.087-.335c-.44-.132-1.014-.63-1.64-1.481a.605.605 0 01-.088-.145l-1.292-2.646h-.944a2.16 2.16 0 010-4.312h14.444a2.16 2.16 0 010 4.312h-.586a185.98 185.98 0 00-1.363 2.566 3.254 3.254 0 01-1.706 1.667 7.57 7.57 0 01-2.738.374z" fill="#77D58A"/><path d="M36.41 53.47a2.893 2.893 0 00-.697-.665 2.756 2.756 0 00-.917-.402 2.612 2.612 0 00-.67-.083H19.673a2.62 2.62 0 00-.675.083 2.743 2.743 0 00-.912.406c-.272.178-.51.402-.706.661a3.192 3.192 0 00-.67 1.967 3.051 3.051 0 002.963 3.121h.348l1.027 2.086c.05.104.109.203.177.295 1.142 1.548 1.883 1.764 2.16 1.839a24.65 24.65 0 004.339.37 8.342 8.342 0 003.086-.44 4.202 4.202 0 002.204-2.121c.256-.49.697-1.323 1.085-2.042a3.047 3.047 0 002.963-3.121 3.165 3.165 0 00-.653-1.954zm-1.257 1.967a1.124 1.124 0 01-1.036 1.195h-1.16c-.383.714-1.234 2.306-1.64 3.086-.23.54-.66.969-1.2 1.2a6.916 6.916 0 01-2.393.294c-1.276 0-2.55-.098-3.81-.295-.388-.11-1.142-1.129-1.142-1.129l-1.551-3.165h-1.548a1.129 1.129 0 01-1.04-1.195c.002-.33.132-.645.36-.882a.965.965 0 01.68-.29h14.444a.947.947 0 01.674.29c.232.239.361.558.362.89zm2.121-28.077a1.24 1.24 0 00-.834-.34c-.82 0-1.481.883-1.737 1.258a.642.642 0 00-.075.114c-.212.415-.44.833-.621 1.261-.084.168-.164.34-.247.512-1.394-.547-2.134-2.006-2.487-2.985l.414-.282c.441-.331 1.535-1.222 1.645-2.395a1.991 1.991 0 00-.604-1.6 1.35 1.35 0 00-.983-.41 1.86 1.86 0 00-1.151.41 2.927 2.927 0 00-1.058 2.773c0 .097 0 .199.04.3 0 .18.052.362.088.547l-.441.176a4.16 4.16 0 01-1.508.251 7.17 7.17 0 01-1.477-.163 2.733 2.733 0 01-.617-.198l.088-.106.286-.353c.622-.771 1.292-1.737 1.173-2.645a1.72 1.72 0 00-.75-1.173 1.701 1.701 0 00-.991-.344 1.82 1.82 0 00-1.358.701 4.007 4.007 0 00-.94 2.787c.036.272.11.538.221.789.075.178.17.346.282.503a9.829 9.829 0 01-3.196 2.588l-.225-.441-.238-.48c-.406-.834-1.261-1.808-2.337-1.808a1.91 1.91 0 00-1.027.308 1.55 1.55 0 00-.763 1.204 2.862 2.862 0 001.018 2.169c.587.546 1.36.847 2.16.842.055.005.11.005.164 0 .183-.004.366-.023.547-.057a89.504 89.504 0 014.722 12.786c.092.317.18.64.273.961h1.966a1.82 1.82 0 00-.066-.37c-.057-.199-.114-.397-.167-.591a93.389 93.389 0 00-4.718-13.042 12.03 12.03 0 003.051-2.487h.031c.327.149.67.26 1.023.331a9.31 9.31 0 001.86.203 6.192 6.192 0 002.042-.322 6.547 6.547 0 002.711 3.126 94.587 94.587 0 00-4.325 12.16h2.006a89.506 89.506 0 014.41-12.09c.14 0 .286.023.44.023h.115c1.322-.031 2.306-.662 2.685-1.693.29-.847.26-2.02-.52-2.708zm-18.28 2.425a2.157 2.157 0 01-1.534-.798.927.927 0 01-.22-.784c.039-.16.25-.23.44-.23h.097c.441.066.754.582.996 1.08l.358.715-.137.017zm12.014-5.321c.142-.278.441-.573.649-.573.096 0 .19.075.282.224.092.15.061.375-.084.67a2.99 2.99 0 01-.957 1.046c-.11-.456-.07-.935.11-1.367zm-6.291-.384a1.27 1.27 0 01.64-.64.555.555 0 01.22-.056.102.102 0 01.1.052c.095.255.086.537-.026.785a6.58 6.58 0 01-.921 1.323l-.11.132a1.957 1.957 0 01.097-1.596zm10.467 6.292c.216-.441.44-.882.639-1.3l.026-.045c.34-.551.485-.613.534-.613.057.027.159.181.19.595l-1.39 1.363zm2.09-3.012a1.24 1.24 0 00-.834-.34c-.82 0-1.481.883-1.737 1.258a.642.642 0 00-.075.114c-.212.415-.44.833-.621 1.261-.084.168-.164.34-.247.512-1.394-.547-2.134-2.006-2.487-2.985l.414-.282c.441-.331 1.535-1.222 1.645-2.395a1.991 1.991 0 00-.604-1.6 1.35 1.35 0 00-.983-.41 1.86 1.86 0 00-1.151.41 2.927 2.927 0 00-1.058 2.773c0 .097 0 .199.04.3 0 .18.052.362.088.547l-.441.176a4.16 4.16 0 01-1.508.251 7.17 7.17 0 01-1.477-.163 2.733 2.733 0 01-.617-.198l.088-.106.286-.353c.622-.771 1.292-1.737 1.173-2.645a1.72 1.72 0 00-.75-1.173 1.701 1.701 0 00-.991-.344 1.82 1.82 0 00-1.358.701 4.007 4.007 0 00-.94 2.787c.036.272.11.538.221.789.075.178.17.346.282.503a9.829 9.829 0 01-3.196 2.588l-.225-.441-.238-.48c-.406-.834-1.261-1.808-2.337-1.808a1.91 1.91 0 00-1.027.308 1.55 1.55 0 00-.763 1.204 2.862 2.862 0 001.018 2.169c.587.546 1.36.847 2.16.842.055.005.11.005.164 0 .183-.004.366-.023.547-.057a89.504 89.504 0 014.722 12.786c.092.317.18.64.273.961h1.966a1.82 1.82 0 00-.066-.37c-.057-.199-.114-.397-.167-.591a93.389 93.389 0 00-4.718-13.042 12.03 12.03 0 003.051-2.487h.031c.327.149.67.26 1.023.331a9.31 9.31 0 001.86.203 6.192 6.192 0 002.042-.322 6.547 6.547 0 002.711 3.126 94.587 94.587 0 00-4.325 12.16h2.006a89.506 89.506 0 014.41-12.09c.14 0 .286.023.44.023h.115c1.322-.031 2.306-.662 2.685-1.693.29-.847.26-2.02-.52-2.708zm-18.28 2.425a2.157 2.157 0 01-1.534-.798.927.927 0 01-.22-.784c.039-.16.25-.23.44-.23h.097c.441.066.754.582.996 1.08l.358.715-.137.017zm12.014-5.321c.142-.278.441-.573.649-.573.096 0 .19.075.282.224.092.15.061.375-.084.67a2.99 2.99 0 01-.957 1.046c-.11-.456-.07-.935.11-1.367zm-6.291-.384a1.27 1.27 0 01.64-.64.555.555 0 01.22-.056.102.102 0 01.1.052c.095.255.086.537-.026.785a6.58 6.58 0 01-.921 1.323l-.11.132a1.957 1.957 0 01.097-1.596zm10.467 6.292c.216-.441.44-.882.639-1.3l.026-.045c.34-.551.485-.613.534-.613.057.027.159.181.19.595l-1.39 1.363zm2.09-3.012a1.24 1.24 0 00-.834-.34c-.82 0-1.481.883-1.737 1.258a.642.642 0 00-.075.114c-.212.415-.44.833-.621 1.261-.084.168-.164.34-.247.512-1.394-.547-2.134-2.006-2.487-2.985l.414-.282c.441-.331 1.535-1.222 1.645-2.395a1.991 1.991 0 00-.604-1.6 1.35 1.35 0 00-.983-.41 1.86 1.86 0 00-1.151.41 2.927 2.927 0 00-1.058 2.773c0 .097 0 .199.04.3 0 .18.052.362.088.547l-.441.176a4.16 4.16 0 01-1.508.251 7.17 7.17 0 01-1.477-.163 2.733 2.733 0 01-.617-.198l.088-.106.286-.353c.622-.771 1.292-1.737 1.173-2.645a1.72 1.72 0 00-.75-1.173 1.701 1.701 0 00-.991-.344 1.82 1.82 0 00-1.358.701 4.007 4.007 0 00-.94 2.787c.036.272.11.538.221.789.075.178.17.346.282.503a9.829 9.829 0 01-3.196 2.588l-.225-.441-.238-.48c-.406-.834-1.261-1.808-2.337-1.808a1.91 1.91 0 00-1.027.308 1.55 1.55 0 00-.763 1.204 2.862 2.862 0 001.018 2.169c.587.546 1.36.847 2.16.842.055.005.11.005.164 0 .183-.004.366-.023.547-.057a89.504 89.504 0 014.722 12.786c.092.317.18.64.273.961h1.966a1.82 1.82 0 00-.066-.37c-.057-.199-.114-.397-.167-.591a93.389 93.389 0 00-4.718-13.042 12.03 12.03 0 003.051-2.487h.031c.327.149.67.26 1.023.331a9.31 9.31 0 001.86.203 6.192 6.192 0 002.042-.322 6.547 6.547 0 002.711 3.126 94.587 94.587 0 00-4.325 12.16h2.006a89.506 89.506 0 014.41-12.09c.14 0 .286.023.44.023h.115c1.322-.031 2.306-.662 2.685-1.693.29-.847.26-2.02-.52-2.708zm-18.28 2.425a2.157 2.157 0 01-1.534-.798.927.927 0 01-.22-.784c.039-.16.25-.23.44-.23h.097c.441.066.754.582.996 1.08l.358.715-.137.017zm12.014-5.321c.142-.278.441-.573.649-.573.096 0 .19.075.282.224.092.15.061.375-.084.67a2.99 2.99 0 01-.957 1.046c-.11-.456-.07-.935.11-1.367zm-6.291-.384a1.27 1.27 0 01.64-.64.555.555 0 01.22-.056.102.102 0 01.1.052c.095.255.086.537-.026.785a6.58 6.58 0 01-.921 1.323l-.11.132a1.957 1.957 0 01.097-1.596zm10.467 6.292c.216-.441.44-.882.639-1.3l.026-.045c.34-.551.485-.613.534-.613.057.027.159.181.19.595l-1.39 1.363zM26.894.955a21.392 21.392 0 00-10.078 40.258v2.593a3.042 3.042 0 001.027 2.288 3.034 3.034 0 002.046.785h4.88c.246 0 .488-.048.715-.141a1.9 1.9 0 00.824-.622c.084-.108.153-.227.208-.352.118-.253.18-.528.18-.807v-.155a1.818 1.818 0 00-.066-.37 50.391 50.391 0 01-.167-.59 93.38 93.38 0 00-4.718-13.025 12.03 12.03 0 003.051-2.487h.031c.327.149.67.26 1.023.331a9.31 9.31 0 001.86.203 6.192 6.192 0 002.042-.322 6.547 6.547 0 002.711 3.126 94.587 94.587 0 00-4.325 12.16c-.057.194-.11.392-.167.59a1.55 1.55 0 00-.062.525c0 .28.062.555.18.807.055.126.125.244.208.353.204.282.482.503.802.64.228.09.47.135.715.136h4.074a3.02 3.02 0 001.216-.251 3.13 3.13 0 001.49-1.358c.245-.45.372-.953.37-1.464v-2.593A21.392 21.392 0 0026.895.955zM25.653 24.2a6.582 6.582 0 01-.922 1.323l-.11.132a1.96 1.96 0 01.097-1.57 1.27 1.27 0 01.64-.643.555.555 0 01.22-.057.102.102 0 01.1.052c.09.249.08.522-.026.763zm5.356.265c.142-.278.441-.573.649-.573.096 0 .19.075.282.224.092.15.061.375-.084.67a2.99 2.99 0 01-.957 1.046c-.11-.456-.07-.935.11-1.367zm4.043 15.559v3.783c.005.063.005.126 0 .19a1.172 1.172 0 01-.612.837 1.165 1.165 0 01-.525.124h-4.092c0-.053.031-.106.044-.155.093-.326.186-.643.278-.96a89.506 89.506 0 014.41-12.09c.14 0 .286.022.44.022h.115c1.322-.031 2.306-.662 2.685-1.693.317-.856.286-2.028-.494-2.716a1.24 1.24 0 00-.833-.34c-.82 0-1.482.882-1.737 1.257a.642.642 0 00-.075.114c-.212.415-.441.834-.622 1.261-.084.168-.163.34-.247.512-1.393-.547-2.134-2.006-2.487-2.985l.415-.282c.44-.33 1.534-1.221 1.644-2.394a1.993 1.993 0 00-.604-1.6 1.35 1.35 0 00-1.01-.415 1.86 1.86 0 00-1.15.41 2.927 2.927 0 00-1.058 2.773c0 .097 0 .199.04.3 0 .18.052.362.088.547l-.441.176a4.16 4.16 0 01-1.508.251 7.17 7.17 0 01-1.477-.163 2.733 2.733 0 01-.617-.198l.088-.106.286-.353c.622-.771 1.292-1.737 1.173-2.645a1.72 1.72 0 00-.75-1.173 1.701 1.701 0 00-.991-.344 1.82 1.82 0 00-1.358.701 4.007 4.007 0 00-.94 2.787c.036.272.11.538.221.789.075.178.17.346.282.503a9.829 9.829 0 01-3.196 2.588l-.225-.441-.238-.48c-.406-.834-1.261-1.808-2.337-1.808a1.91 1.91 0 00-1.027.308 1.55 1.55 0 00-.763 1.204 2.862 2.862 0 001.018 2.169c.587.546 1.36.847 2.16.842.055.005.11.005.164 0 .183-.004.366-.023.547-.057a89.504 89.504 0 014.722 12.786c.092.317.18.64.273.961 0 .053.03.101.044.154H19.89a1.16 1.16 0 01-.52-.123 1.163 1.163 0 01-.609-.833.953.953 0 010-.194v-3.801a19.466 19.466 0 1116.314 0h-.023zm.133-9.651c.216-.441.44-.882.639-1.3l.026-.045c.34-.551.485-.613.534-.613.057.027.159.181.19.595l-1.39 1.363zm-16.062-.595h-.128a2.156 2.156 0 01-1.534-.799.926.926 0 01-.22-.784c.039-.159.25-.23.44-.23h.097c.441.067.754.583.996 1.08l.349.733zm18.152-2.417a1.24 1.24 0 00-.834-.34c-.82 0-1.481.883-1.737 1.258a.642.642 0 00-.075.114c-.212.415-.44.833-.621 1.261-.084.168-.164.34-.247.512-1.394-.547-2.134-2.006-2.487-2.985l.414-.282c.441-.331 1.535-1.222 1.645-2.395a1.991 1.991 0 00-.604-1.6 1.35 1.35 0 00-.983-.41 1.86 1.86 0 00-1.151.41 2.927 2.927 0 00-1.058 2.773c0 .097 0 .199.04.3 0 .18.052.362.088.547l-.441.176a4.16 4.16 0 01-1.508.251 7.17 7.17 0 01-1.477-.163 2.733 2.733 0 01-.617-.198l.088-.106.286-.353c.622-.771 1.292-1.737 1.173-2.645a1.72 1.72 0 00-.75-1.173 1.701 1.701 0 00-.991-.344 1.82 1.82 0 00-1.358.701 4.007 4.007 0 00-.94 2.787c.036.272.11.538.221.789.075.178.17.346.282.503a9.829 9.829 0 01-3.196 2.588l-.225-.441-.238-.48c-.406-.834-1.261-1.808-2.337-1.808a1.91 1.91 0 00-1.027.308 1.55 1.55 0 00-.763 1.204 2.862 2.862 0 001.018 2.169c.587.546 1.36.847 2.16.842.055.005.11.005.164 0 .183-.004.366-.023.547-.057a89.504 89.504 0 014.722 12.786c.092.317.18.64.273.961h1.966a1.82 1.82 0 00-.066-.37c-.057-.199-.114-.397-.167-.591a93.389 93.389 0 00-4.718-13.042 12.03 12.03 0 003.051-2.487h.031c.327.149.67.26 1.023.331a9.31 9.31 0 001.86.203 6.192 6.192 0 002.042-.322 6.547 6.547 0 002.711 3.126 94.587 94.587 0 00-4.325 12.16h2.006a89.506 89.506 0 014.41-12.09c.14 0 .286.023.44.023h.115c1.322-.031 2.306-.662 2.685-1.693.29-.847.26-2.02-.52-2.708zm-18.28 2.425a2.157 2.157 0 01-1.534-.798.927.927 0 01-.22-.784c.039-.16.25-.23.44-.23h.097c.441.066.754.582.996 1.08l.358.715-.137.017zm12.014-5.321c.142-.278.441-.573.649-.573.096 0 .19.075.282.224.092.15.061.375-.084.67a2.99 2.99 0 01-.957 1.046c-.11-.456-.07-.935.11-1.367zm-6.291-.384a1.27 1.27 0 01.64-.64.555.555 0 01.22-.056.102.102 0 01.1.052c.095.255.086.537-.026.785a6.58 6.58 0 01-.921 1.323l-.11.132a1.957 1.957 0 01.097-1.596zm10.467 6.292c.216-.441.44-.882.639-1.3l.026-.045c.34-.551.485-.613.534-.613.057.027.159.181.19.595l-1.39 1.363z" fill="#fff"/><path d="M34.007 29.653a4.343 4.343 0 01-2.205-2.495 1.424 1.424 0 00-.128-.26 1.86 1.86 0 00-.89-.812 1.847 1.847 0 00-1.208-.101 2.04 2.04 0 00-.265.084 4.356 4.356 0 01-2.165.308 4.821 4.821 0 01-1.133-.247 2.147 2.147 0 01-.392-.172 1.927 1.927 0 00-2.408.441 10.286 10.286 0 01-2.98 2.478 1.921 1.921 0 00-1.023 2.205c.025.11.062.215.11.317a87.98 87.98 0 014.585 12.42c.098.318.186.635.278.961.018.051.032.102.044.155l.146.515a1.922 1.922 0 001.137 1.265c.228.095.473.143.72.142h2.204a1.918 1.918 0 001.869-1.407l.145-.515c0-.053.027-.102.044-.155.093-.322.181-.643.278-.96a89.295 89.295 0 014.237-11.654c.063-.14.107-.289.133-.44a1.931 1.931 0 00-1.133-2.073zm-9.347-2.01c.707.366 1.48.586 2.274.648.225 0 .441.035.68.035.824 0 1.64-.162 2.402-.476a6.304 6.304 0 003.175 3.553 93.088 93.088 0 00-4.48 12.438c-.092.318-.185.64-.273.961 0 .049-.03.102-.044.155h-2.205c0-.053-.03-.106-.044-.155-.088-.326-.18-.643-.273-.96a91.402 91.402 0 00-4.85-13.228 12.032 12.032 0 003.638-2.971z" fill="#fff"/><path d="M19.677 49.114a2.16 2.16 0 010-4.312h14.444a2.16 2.16 0 010 4.312H19.677z" fill="#77D58A"/><path d="M36.595 45.27a2.972 2.972 0 00-1.566-1.275 2.787 2.787 0 00-.921-.154H19.673a2.645 2.645 0 00-.917.159 2.954 2.954 0 00-1.56 1.27 3.21 3.21 0 00-.477 1.688 3.172 3.172 0 00.917 2.27c.234.236.507.428.807.57.379.184.795.279 1.217.277h14.457c.421.002.838-.093 1.217-.277.305-.139.583-.331.82-.57a3.223 3.223 0 00.44-3.967v.009zm-1.451 1.688a1.12 1.12 0 01-1.036 1.19H19.673a1.12 1.12 0 01-1.04-1.19 1.269 1.269 0 01.04-.33 1.08 1.08 0 011-.882h14.444a1.075 1.075 0 01.996.882c.027.108.04.219.04.33h-.009z" fill="#fff"/><path d="M19.677 53.656a2.16 2.16 0 010-4.308h14.444a2.16 2.16 0 010 4.308H19.677z" fill="#77D58A"/><path d="M36.154 49.229a2.81 2.81 0 00-.798-.569 2.87 2.87 0 00-1.226-.278H19.673a2.867 2.867 0 00-2.037.847 3.17 3.17 0 00-.94 2.27 3.205 3.205 0 00.671 1.971c.199.257.439.479.71.657.275.19.583.328.908.406.222.055.45.083.68.084h14.452c.227.001.454-.027.674-.084.326-.078.635-.214.913-.401.269-.182.507-.405.705-.662a3.206 3.206 0 00.67-1.97 3.173 3.173 0 00-.925-2.271zm-2.024 3.46H19.673a.952.952 0 01-.675-.286 1.252 1.252 0 01-.366-.881 1.124 1.124 0 011.04-1.19h14.445a1.12 1.12 0 011.036 1.19c0 .33-.133.647-.366.881a.944.944 0 01-.67.287h.013z" fill="#fff"/></g><defs><clipPath id="clip0_0_1387"><path fill="#fff" transform="translate(0 .955)" d="M0 0h53.789v100H0z"/></clipPath></defs></svg>