<svg width="1920" height="799" fill="none" xmlns="http://www.w3.org/2000/svg"><path d="M-10.757 777.414l.038-32.513 9.081-13.549 73.822-17.285a2.58 2.58 0 011.835-2.233 1.497 1.497 0 011.339.311 1.486 1.486 0 01.515 1.274 2.619 2.619 0 01-1.854 2.46 1.46 1.46 0 01-1.835-1.378l-73.633 17.26-8.798 13.209-.038 32.337a1.56 1.56 0 011.351.341 1.55 1.55 0 01.534 1.288 2.975 2.975 0 01-2.099 2.705 1.575 1.575 0 01-1.476-.23 1.576 1.576 0 01-.617-1.361 2.973 2.973 0 011.835-2.636z" fill="#2F027A" fill-opacity=".15"/><path d="M56.907 731.076v30.953l-8.308 13.209-76.518 21.116a3.085 3.085 0 01-2.13 2.516 1.591 1.591 0 01-2.156-1.585 3.056 3.056 0 012.156-2.774 1.572 1.572 0 011.402.149 1.576 1.576 0 01.728 1.209l76.323-21.065 8.094-12.844v-30.821a1.49 1.49 0 01-1.61-.948 1.488 1.488 0 01-.086-.663 2.673 2.673 0 011.885-2.516 1.502 1.502 0 011.885 1.585 2.695 2.695 0 01-1.665 2.479zm284.504-44.238c-.628.163-1.106-.333-1.169-1.132L259.3 707.4l-30.227-30.192-136.842 32.249a2.518 2.518 0 01-1.79 2.201 1.454 1.454 0 01-1.81-1.566 2.55 2.55 0 011.81-2.422 1.431 1.431 0 011.225.243 1.424 1.424 0 01.565 1.116l136.999-32.211 30.227 30.192 80.773-21.65a1.956 1.956 0 011.169-1.755c.628-.176 1.187.409 1.187 1.296a2.003 2.003 0 01-1.175 1.937zm-93.63-13.008a1.77 1.77 0 001.163-1.591l23.509-5.535 11.972 12.517 22.203-5.523c.056.686.502 1.126 1.049.988a1.718 1.718 0 001.062-1.667c0-.774-.478-1.258-1.062-1.133a1.667 1.667 0 00-1.049 1.51l-22.102 5.498-11.972-12.524-23.61 5.554c-.063-.729-.56-1.189-1.163-1.05a1.798 1.798 0 00-1.181 1.755c-.007.817.528 1.358 1.181 1.201z" fill="#2F027A" fill-opacity=".15"/><path d="M101.325 750.141a2.634 2.634 0 01-1.76 2.245 1.4 1.4 0 01-1.791-1.503 2.626 2.626 0 011.791-2.459 1.35 1.35 0 011.207.203 1.355 1.355 0 01.553 1.092l53.083-14.228 17.301-24.713 15.359-3.869a2.313 2.313 0 011.533-2.038c.855-.213 1.553.441 1.553 1.46a2.357 2.357 0 01-1.553 2.239 1.258 1.258 0 01-1.533-1.258l-15.221 3.837-17.294 24.707-53.228 14.285zm330.197-154.238l48.892-9.831 18.81-33.287 50.582-8.529c.12 1.163.723 1.962 1.458 1.836.735-.126 1.471-1.371 1.471-2.749 0-1.377-.629-2.39-1.471-2.258-.842.132-1.338 1.126-1.458 2.334l-50.815 8.517-18.853 33.28-48.653 9.737c-.151-1.321-.937-2.189-1.886-2-1.062.207-1.923 1.661-1.923 3.246s.861 2.685 1.923 2.472c.987-.195 1.754-1.384 1.923-2.768z" fill="#2F027A" fill-opacity=".15"/><path d="M541.071 556.735c.829-.151 1.508-1.409 1.508-2.805 0-1.397-.679-2.409-1.508-2.265-.83.145-1.37 1.158-1.49 2.378l-33.539 5.963-28.091 50.32-17.816 4.038c-.145-1.258-.886-2.113-1.779-1.887-1.005.227-1.816 1.654-1.816 3.189 0 1.535.811 2.592 1.816 2.359.893-.201 1.634-1.371 1.779-2.717l18.055-4.108 28.078-50.32 33.307-5.963c.126 1.126.748 1.95 1.496 1.818zM488 543.84c-.453.076-.824.68-.874 1.384l-59.582 9.435-21.957 35.979-97.231 18.568c-.069-.824-.597-1.371-1.257-1.258a1.886 1.886 0 00-1.257 1.887c0 .919.566 1.56 1.257 1.422a1.834 1.834 0 001.257-1.724l97.338-18.593 21.938-36.017 59.494-9.435c.05.686.421 1.177.874 1.101.452-.075.88-.761.88-1.528 0-.768-.39-1.296-.88-1.221zm-147.72 71.222c1.119-.226 2.043-1.541 2.2-3.038l46.29-9.233 11.469 14.077 20.368-4.403c0 1.503.867 2.516 1.885 2.314 1.018-.201 1.885-1.667 1.885-3.208 0-1.541-.848-2.616-1.885-2.39-.918.195-1.691 1.321-1.885 2.636l-20.211 4.346-11.463-14.077-46.441 9.246c-.094-1.528-1.049-2.566-2.212-2.333-1.162.233-2.231 1.799-2.231 3.472s1.006 2.837 2.231 2.591zm82.224-5.239c.805-.17 1.458.629 1.458 1.849s-.628 2.296-1.458 2.472c-.829.176-1.47-.629-1.47-1.843s.66-2.302 1.47-2.478zm-82.224-.132c.949-.189 1.716.71 1.716 2 0 1.289-.767 2.516-1.716 2.679-.949.164-1.715-.704-1.715-2 0-1.295.766-2.491 1.715-2.679zm78.881-22.468c.44-.088.798.339.842.962l17.138-3.277 8.766-14.8 16.339-2.894c.038-.629.371-1.145.773-1.214.403-.069.78.403.78 1.063 0 .661-.346 1.258-.78 1.346-.433.088-.735-.339-.773-.937l-16.257 2.887-8.76 14.801-17.213 3.289a1.356 1.356 0 01-.842 1.29c-.478.088-.861-.403-.861-1.095a1.387 1.387 0 01.848-1.421zM-10.757 21.56l.038 32.539 9.081 13.523L72.165 84.92A2.58 2.58 0 0074 87.153a1.489 1.489 0 001.854-1.585A2.618 2.618 0 0074 83.108a1.457 1.457 0 00-1.835 1.378L-1.449 67.214l-8.798-13.21-.038-32.337A1.551 1.551 0 00-8.4 20.038a2.977 2.977 0 00-2.099-2.704 1.57 1.57 0 00-2.092 1.591 2.972 2.972 0 001.834 2.636z" fill="#2F027A" fill-opacity=".15"/><path d="M56.907 67.9V36.945l-8.308-13.21L-27.919 2.62a3.083 3.083 0 00-2.13-2.516 1.588 1.588 0 00-2.156 1.585 3.059 3.059 0 002.156 2.774 1.582 1.582 0 002.13-1.377l76.323 21.065 8.094 12.844v30.821a1.483 1.483 0 00-1.696 1.61 2.668 2.668 0 001.885 2.517 1.502 1.502 0 001.885-1.585 2.695 2.695 0 00-1.665-2.46zm284.504 44.237c-.628-.164-1.106.34-1.169 1.132L259.3 91.575l-30.227 30.192L92.231 89.518a2.517 2.517 0 00-1.79-2.201 1.455 1.455 0 00-1.716.877 1.46 1.46 0 00-.095.689 2.549 2.549 0 001.81 2.421 1.424 1.424 0 001.638-.735 1.43 1.43 0 00.153-.623l136.999 32.211 30.227-30.192 80.773 21.65a1.95 1.95 0 001.169 1.755c.628.176 1.187-.409 1.187-1.296a2.003 2.003 0 00-1.175-1.937zm-93.63 13.039a1.765 1.765 0 011.163 1.592l23.509 5.535 11.972-12.517 22.203 5.522c.056-.685.502-1.126 1.049-.987a1.71 1.71 0 011.062 1.667c0 .773-.478 1.258-1.062 1.138a1.672 1.672 0 01-1.049-1.516l-22.102-5.497-11.972 12.523-23.61-5.573c-.063.724-.56 1.183-1.163 1.044a1.798 1.798 0 01-1.181-1.755c-.007-.824.528-1.365 1.181-1.176z" fill="#2F027A" fill-opacity=".15"/><path d="M101.325 48.834a2.638 2.638 0 00-1.76-2.245 1.4 1.4 0 00-1.791 1.503 2.643 2.643 0 001.766 2.466 1.369 1.369 0 001.759-1.303l53.084 14.229 17.301 24.7 15.359 3.869a2.313 2.313 0 001.533 2.038c.855.214 1.553-.44 1.553-1.46a2.352 2.352 0 00-1.553-2.239 1.256 1.256 0 00-1.533 1.258l-15.221-3.837-17.294-24.707-53.203-14.272zm330.197 154.238l48.892 9.831 18.81 33.287 50.595 8.561c.119-1.164.722-1.963 1.458-1.837.735.126 1.47 1.371 1.47 2.749 0 1.377-.628 2.39-1.47 2.258-.842-.132-1.339-1.126-1.458-2.334l-50.815-8.516-18.853-33.281-48.654-9.737c-.151 1.321-.936 2.189-1.885 2-1.062-.207-1.923-1.66-1.923-3.239s.861-2.692 1.923-2.478c.974.163 1.741 1.352 1.91 2.736z" fill="#2F027A" fill-opacity=".15"/><path d="M541.071 242.24c.829.151 1.508 1.409 1.508 2.805 0 1.397-.679 2.409-1.508 2.265-.83-.145-1.37-1.158-1.49-2.378l-33.539-5.963-28.091-50.32-17.816-4.038c-.145 1.258-.886 2.113-1.779 1.887-1.005-.227-1.816-1.655-1.816-3.189 0-1.535.811-2.592 1.816-2.359.893.201 1.634 1.371 1.779 2.717l18.055 4.108 28.078 50.32 33.307 5.963c.126-1.151.748-1.95 1.496-1.818zM488 255.134c-.453-.069-.824-.679-.874-1.383l-59.582-9.435-21.957-36.005-97.231-18.543c-.069.824-.597 1.372-1.257 1.258a1.887 1.887 0 01-1.257-1.887c0-.918.566-1.559 1.257-1.421a1.84 1.84 0 011.257 1.723l97.338 18.594 21.938 36.016 59.494 9.435c.05-.691.421-1.182.874-1.107.452.076.88.762.88 1.529 0 .767-.39 1.302-.88 1.226zm-149.951-68.63c0 1.673 1.006 3.233 2.231 3.472 1.226.239 2.118-.805 2.212-2.334l46.473 9.24 11.462-14.077 20.242 4.347c.176 1.314.949 2.44 1.886 2.635 1.043.227 1.885-.849 1.885-2.39 0-1.541-.848-2.975-1.885-3.208-1.037-.233-1.886.812-1.886 2.315l-20.367-4.403-11.469 14.077-46.29-9.234c-.158-1.497-1.081-2.811-2.2-3.038-1.288-.233-2.294.919-2.294 2.598zm82.985.17c0-1.189.628-2.019 1.47-1.843.842.176 1.458 1.258 1.458 2.472s-.628 2.019-1.458 1.849c-.829-.17-1.47-1.283-1.47-2.478zm-82.469-.069c0-1.296.766-2.189 1.715-2.001.949.189 1.716 1.397 1.716 2.68 0 1.283-.767 2.189-1.716 2-.949-.189-1.715-1.39-1.715-2.679zm80.596 25.153c.44.082.798-.346.842-.968l17.138 3.277 8.766 14.8 16.339 2.894c.038.629.371 1.144.773 1.214.403.069.78-.403.78-1.063 0-.661-.346-1.258-.78-1.346-.433-.088-.735.339-.773.937l-16.257-2.887-8.76-14.801-17.213-3.289a1.354 1.354 0 00-.842-1.29c-.478-.088-.861.403-.861 1.095a1.401 1.401 0 00.848 1.427zM169.566 493.023a1.884 1.884 0 001.571-1.692l47.899-3.554v-27.846a1.801 1.801 0 001.314-1.842 1.588 1.588 0 00-.366-1.18 1.558 1.558 0 00-1.105-.55 1.76 1.76 0 00-1.476 1.887 1.601 1.601 0 001.313 1.717v27.462l-47.535 3.504a1.58 1.58 0 00-.96-1.532 1.608 1.608 0 00-.623-.129 1.924 1.924 0 00-1.603 2 1.604 1.604 0 001.571 1.755zm64.735-23.864v26.89l6.196 8.894 51.105-4.611c.069.837.628 1.453 1.257 1.39a1.709 1.709 0 001.294-1.805c0-.931-.584-1.635-1.294-1.572a1.64 1.64 0 00-1.257 1.622l-50.96 4.586-6.033-8.668V469.14a1.8 1.8 0 001.257-1.83c0-.982-.628-1.743-1.433-1.699a1.756 1.756 0 00-1.433 1.887 1.562 1.562 0 001.301 1.661z" fill="#2F027A" fill-opacity=".15"/><path d="M169.566 504.817c1.534-.132 2.797-1.598 2.966-3.359l46.215-3.818 15.579 17.386 42.024-4.133c.138 1.585 1.2 2.724 2.476 2.598 1.37-.138 2.513-1.692 2.513-3.453s-1.118-3.095-2.513-2.963c-1.257.12-2.338 1.466-2.476 3.082l-41.772 4.083-15.573-17.392-46.504 3.805c-.17-1.73-1.433-2.994-2.966-2.874-1.653.132-3.004 1.824-3.004 3.774 0 1.949 1.382 3.402 3.035 3.264zm109.26 2.988c1.062-.101 1.916.924 1.916 2.289 0 1.365-.854 2.554-1.916 2.661-1.062.107-1.923-.918-1.923-2.283 0-1.365.861-2.567 1.923-2.667zm-109.26-9.221c1.257-.101 2.307 1.031 2.307 2.516 0 1.484-1.037 2.792-2.307 2.899-1.269.107-2.319-1.025-2.319-2.516 0-1.49 1.043-2.792 2.319-2.899zm0-192.632a1.884 1.884 0 011.571 1.692l47.899 3.553v27.84a1.803 1.803 0 011.314 1.843 1.585 1.585 0 01-.366 1.179 1.589 1.589 0 01-.496.389c-.19.094-.397.149-.609.162a1.76 1.76 0 01-1.476-1.887 1.604 1.604 0 011.313-1.717v-27.444l-47.535-3.516a1.58 1.58 0 01-.96 1.531 1.591 1.591 0 01-.623.13 1.928 1.928 0 01-1.603-2.001 1.601 1.601 0 011.571-1.754zm64.735 23.864v-26.89l6.196-8.894 51.105 4.611c.069-.837.628-1.453 1.257-1.391a1.715 1.715 0 011.294 1.806c0 .931-.584 1.635-1.294 1.572a1.64 1.64 0 01-1.257-1.623l-50.96-4.585-6.033 8.668v26.745a1.8 1.8 0 011.257 1.83c0 .981-.629 1.743-1.433 1.699a1.747 1.747 0 01-1.433-1.887 1.562 1.562 0 011.301-1.661z" fill="#2F027A" fill-opacity=".15"/><path d="M166.562 297.429c0 1.943 1.351 3.635 3.004 3.774 1.534.119 2.797-1.145 2.966-2.875l46.504 3.806 15.573-17.392 41.772 4.082c.138 1.616 1.2 2.962 2.476 3.082 1.37.132 2.514-1.195 2.514-2.963 0-1.767-1.119-3.315-2.514-3.453-1.257-.126-2.338 1.013-2.476 2.598l-42.023-4.133-15.579 17.386-46.247-3.818c-.169-1.761-1.432-3.227-2.966-3.359-1.653-.145-3.004 1.321-3.004 3.265zm110.341-8.926c0-1.365.861-2.39 1.923-2.283 1.062.107 1.916 1.302 1.916 2.66 0 1.359-.854 2.391-1.916 2.29-1.062-.101-1.923-1.296-1.923-2.667zm-109.656 8.982c0-1.497 1.043-2.629 2.319-2.516 1.276.113 2.307 1.409 2.307 2.9 0 1.491-1.037 2.629-2.307 2.516-1.269-.113-2.319-1.403-2.319-2.9zm-23.893 199.048v-57.484l-17.791-20.129-142.233 2.183-19.984 20.707a4.09 4.09 0 01.873 2.547 4.4 4.4 0 01-4.192 4.359 4.063 4.063 0 01-2.988-1.141 4.06 4.06 0 01-1.234-2.953 4.405 4.405 0 014.223-4.366 4.06 4.06 0 012.293.629l20.456-21.153 143.283-2.038 18.4 20.82v57.937c1.515.183 2.665 1.604 2.665 3.428 0 2.032-1.433 3.774-3.199 3.951-1.766.176-3.217-1.397-3.217-3.441a3.94 3.94 0 012.645-3.856z" fill="#2F027A" fill-opacity=".15"/><path d="M-45 474.48a3.869 3.869 0 004.11 3.9 4.404 4.404 0 004.06-3.975l84.128-4.359 20.368-22.82 35.531-1.258c.106.787.493 1.51 1.091 2.033a3.269 3.269 0 002.158.81c1.823-.069 3.3-1.78 3.3-3.812s-1.477-3.642-3.3-3.579c-1.822.063-3.261 1.711-3.311 3.705l-35.821 1.258-20.349 22.795-83.795 4.296a3.862 3.862 0 00-4.047-3.321A4.404 4.404 0 00-45 474.48zm148.889-29.274a2.833 2.833 0 012.557-2.943 2.594 2.594 0 011.84.849 2.592 2.592 0 01.674 1.912 2.834 2.834 0 01-2.514 2.944 2.612 2.612 0 01-2.408-1.728 2.596 2.596 0 01-.149-1.034zM-44.057 474.43a3.38 3.38 0 013.142-3.34 2.98 2.98 0 013.142 3.013 3.385 3.385 0 01-3.142 3.34 2.98 2.98 0 01-3.142-3.013z" fill="#2F027A" fill-opacity=".15"/><path d="M127.48 429.305l-96.496 2.252a2.075 2.075 0 01-1.96 1.887 1.967 1.967 0 01-1.848-1.261 1.983 1.983 0 01-.132-.777 2.094 2.094 0 011.98-2.138 1.965 1.965 0 011.96 1.817l96.659-2.214 8.327 10.064v18.613a1.742 1.742 0 011.502 1.836 1.926 1.926 0 01-1.684 2.007 1.715 1.715 0 01-1.244-.56 1.727 1.727 0 01-.447-1.29 1.961 1.961 0 011.509-1.975v-18.455l-8.126-9.806zm88.27 81.903l-83.23 7.799a2.027 2.027 0 01-1.678 1.887 1.635 1.635 0 01-1.615-1.094 1.63 1.63 0 01-.088-.686 2.06 2.06 0 011.703-2.094 1.604 1.604 0 011.678 1.572l83.362-7.781 15.748 17.738v17.43c.378.046.723.24.959.539.235.299.342.68.298 1.059a1.89 1.89 0 01-1.439 1.962c-.798.107-1.445-.629-1.445-1.597a1.955 1.955 0 011.288-1.925v-17.279l-15.541-17.53zm-245.196 22.04l103.478-9.624 38.573 38.464 100.392-12.58c.226-1.68 1.402-3.082 2.822-3.258 1.571-.195 2.847 1.207 2.847 3.145 0 1.937-1.257 3.635-2.847 3.843-1.42.182-2.596-.925-2.822-2.548L112.14 563.409 73.542 524.97l-102.988 9.687a4.718 4.718 0 01-4.098 3.894 3.773 3.773 0 01-4.185-3.825 4.7 4.7 0 014.185-4.598 3.726 3.726 0 014.098 3.12z" fill="#2F027A" fill-opacity=".15"/><path d="M167.901 549.074c-1.527.182-2.803-.975-3.048-2.661l-41.948 4.957-45.147-45.874a3.588 3.588 0 01-2.06.887c-1.968.158-3.577-1.459-3.577-3.616a4.116 4.116 0 013.576-4.171c1.967-.144 3.557 1.472 3.557 3.617 0 .814-.23 1.612-.66 2.302l44.77 45.546 41.476-4.862c.245-1.742 1.521-3.195 3.048-3.371 1.71-.195 3.086 1.258 3.086 3.258s-1.364 3.78-3.073 3.988z" fill="#2F027A" fill-opacity=".15"/><path d="M201.308 522.781a1.46 1.46 0 01-1.394-.907 1.482 1.482 0 01-.108-.577l-67.28 6.787-27.89-27.676-.056-.063V459.9a1.812 1.812 0 01-1.584-1.887 1.985 1.985 0 011.772-2.051 1.778 1.778 0 011.766 1.887 2.015 2.015 0 01-1.577 2.026v40.256l27.714 27.513 67.135-6.743c.016-.422.172-.827.444-1.15a1.879 1.879 0 011.058-.63c.836-.088 1.515.666 1.515 1.673a1.92 1.92 0 01-1.515 1.987zm129.345 59.743c-.629.107-1.138-.446-1.201-1.258l-82.645 13.926-30.9-33.488L75.81 580.763a2.265 2.265 0 01-1.829 2.05 1.652 1.652 0 01-1.885-1.767 2.29 2.29 0 011.885-2.271 1.622 1.622 0 011.83 1.554l140.228-19.034 30.894 33.501 82.519-13.876a1.739 1.739 0 011.201-1.66c.666-.114 1.206.528 1.206 1.427.03.397-.072.792-.29 1.125a1.806 1.806 0 01-.916.712zm-95.623-22.405a1.583 1.583 0 001.194-1.497l24.019-3.258 12.229 13.838 22.674-3.384c.057.698.515 1.189 1.075 1.101a1.528 1.528 0 001.081-1.573c0-.786-.484-1.346-1.081-1.258a1.486 1.486 0 00-1.075 1.428l-22.573 3.365-12.223-13.838-24.126 3.271c-.069-.742-.572-1.258-1.194-1.176a1.617 1.617 0 00-1.206 1.66c0 .818.54 1.415 1.206 1.321zm20.223-15.788l67.519-8.485 25.672 31.173 68.128-10.768c.157-1.39.968-2.56 1.942-2.718 1.087-.163 1.967.988 1.967 2.586 0 1.597-.88 3.025-1.967 3.201-.974.157-1.785-.761-1.942-2.101l-68.443 10.882-25.684-31.154-67.192 8.504c-.207 1.622-1.307 2.975-2.633 3.145-1.483.195-2.69-1.164-2.69-3.032s1.207-3.535 2.69-3.718c1.326-.163 2.426.919 2.633 2.485z" fill="#2F027A" fill-opacity=".15"/><path d="M404.877 545.35c1.118-.164 2.017 1.019 2.017 2.636 0 1.616-.899 3.056-2.017 3.226-.999.151-1.835-.78-1.992-2.145l-45.197 6.724-38.291-47.313-24.509 2.453c-.194 1.554-1.219 2.831-2.457 2.963-1.382.138-2.514-1.208-2.514-3.013 0-1.806 1.119-3.378 2.514-3.51 1.257-.12 2.263.956 2.457 2.472l24.817-2.46 38.266 47.339 44.889-6.636c.213-1.39 1.018-2.572 2.017-2.736zM175.58 669.031a2.25 2.25 0 01-1.571 2.006c-.873.195-1.59-.484-1.59-1.522a2.284 2.284 0 011.59-2.214 1.318 1.318 0 011.571 1.334l47.334-10.335 15.447-22.374 13.756-2.78a2 2 0 011.376-1.836c.767-.158 1.389.503 1.389 1.465a2.046 2.046 0 01-1.389 2.032c-.716.144-1.3-.422-1.376-1.258l-13.63 2.761-15.466 22.361-47.441 10.36zm11.054-85.771c-1.489.226-2.721 1.698-2.959 3.428l-40.666 6.215-43.72 57.063a2.771 2.771 0 00-1.993-.327c-1.885.364-3.462 2.377-3.462 4.497s1.552 3.535 3.462 3.145c1.91-.39 3.438-2.384 3.438-4.497a3.533 3.533 0 00-.629-2.089l43.362-56.61 40.22-6.189c.239 1.654 1.471 2.755 2.96 2.516 1.653-.258 2.991-2.063 2.991-4.026 0-1.962-1.351-3.371-3.004-3.126z" fill="#2F027A" fill-opacity=".15"/><path d="M215.467 604.665c1.571-.271 2.847-2.044 2.847-3.963 0-1.918-1.257-3.264-2.847-3.006-1.42.239-2.595 1.692-2.822 3.377l-64.464 10.87-55.485 73.404-35.89 7.819a2.93 2.93 0 00-3.626-2.516 5.032 5.032 0 00-3.695 4.767c0 2.189 1.66 3.605 3.695 3.145a5.027 5.027 0 003.626-4.088l36.387-7.944 55.428-73.43 64.037-10.857c.214 1.604 1.389 2.667 2.809 2.422zm122.123 55.371c-.628.151-1.118-.365-1.181-1.164l-52.6 12.731-21.612-21.574-.044-.044v-35.558c-.685 0-1.219-.629-1.219-1.491a1.99 1.99 0 01.343-1.229 1.99 1.99 0 011.021-.765c.76-.138 1.37.529 1.37 1.485.015.409-.093.813-.31 1.16a2.047 2.047 0 01-.909.783v35.394l21.473 21.449 52.487-12.687a1.892 1.892 0 011.181-1.736c.66-.157 1.194.441 1.194 1.334a1.94 1.94 0 01-1.194 1.912zM143.354 302.442v57.491l-17.791 20.096-142.233-2.157-19.984-20.707a4.09 4.09 0 00.873-2.547 4.4 4.4 0 00-4.192-4.359 4.045 4.045 0 00-2.988 1.141 4.06 4.06 0 00-1.234 2.953 4.405 4.405 0 004.223 4.366 4.06 4.06 0 002.293-.629l20.456 21.153 143.283 2.038 18.4-20.82v-57.906c1.515-.182 2.665-1.604 2.665-3.428 0-2.032-1.433-3.774-3.199-3.95-1.766-.176-3.217 1.396-3.217 3.44a3.936 3.936 0 002.645 3.825z" fill="#2F027A" fill-opacity=".15"/><path d="M-40.89 328.822a3.86 3.86 0 004.06-3.321l83.808 4.296 20.367 22.801 35.821 1.258c.05 1.994 1.514 3.649 3.312 3.705 1.797.057 3.299-1.547 3.299-3.579 0-2.031-1.477-3.774-3.299-3.812a3.278 3.278 0 00-3.249 2.844l-35.532-1.259-20.355-22.813-84.172-4.372a4.404 4.404 0 00-4.072-3.975 3.861 3.861 0 00-4.098 3.9 4.404 4.404 0 004.11 4.327zm147.343 22.166a2.834 2.834 0 012.513 2.944 2.605 2.605 0 01-2.513 2.761 2.836 2.836 0 01-2.558-2.944 2.612 2.612 0 012.558-2.761zM-40.89 321.532a3.38 3.38 0 013.142 3.34 2.988 2.988 0 01-.918 2.189 2.989 2.989 0 01-2.224.824 3.376 3.376 0 01-3.142-3.34 2.988 2.988 0 01.918-2.189 2.974 2.974 0 012.224-.824z" fill="#2F027A" fill-opacity=".15"/><path d="M127.48 369.67l-96.496-2.252a2.075 2.075 0 00-1.96-1.887 1.967 1.967 0 00-1.98 2.044 2.097 2.097 0 001.98 2.132 1.965 1.965 0 001.96-1.818l96.659 2.215 8.327-10.064v-18.619a1.738 1.738 0 001.502-1.837 1.926 1.926 0 00-1.684-2.006 1.714 1.714 0 00-1.6 1.158 1.726 1.726 0 00-.091.691 1.96 1.96 0 001.509 1.975v18.461l-8.126 9.807zm88.27-81.903l-83.23-7.8a2.027 2.027 0 00-1.678-1.887 1.652 1.652 0 00-1.253.505 1.648 1.648 0 00-.45 1.276 2.06 2.06 0 001.703 2.094 1.604 1.604 0 001.678-1.572l83.362 7.78 15.748-17.737v-17.411c.378-.046.723-.24.959-.539.235-.3.342-.68.298-1.059a1.88 1.88 0 00-1.439-1.962c-.798-.107-1.445.629-1.445 1.597a1.955 1.955 0 001.288 1.925v17.26l-15.541 17.53zm-245.196-22.04l103.478 9.624 38.573-38.464 100.392 12.58c.226 1.68 1.402 3.082 2.822 3.258 1.571.195 2.847-1.207 2.847-3.145 0-1.937-1.257-3.635-2.847-3.843-1.42-.182-2.596.925-2.822 2.516L112.14 235.566l-38.598 38.439-102.988-9.681a4.716 4.716 0 00-4.097-3.912 3.773 3.773 0 00-3.88 2.261 3.78 3.78 0 00-.306 1.563 4.695 4.695 0 004.185 4.598 3.725 3.725 0 004.098-3.107z" fill="#2F027A" fill-opacity=".15"/><path d="M167.901 249.901c-1.527-.182-2.803.975-3.048 2.661l-41.948-4.957-45.147 45.873a3.633 3.633 0 00-2.06-.886c-1.968-.158-3.577 1.459-3.577 3.616a4.115 4.115 0 003.576 4.171c1.967.144 3.557-1.472 3.557-3.617 0-.814-.23-1.612-.66-2.302l44.77-45.546 41.476 4.862c.245 1.742 1.521 3.195 3.048 3.371 1.71.202 3.086-1.258 3.086-3.258s-1.364-3.78-3.073-3.988z" fill="#2F027A" fill-opacity=".15"/><path d="M201.308 276.193a1.455 1.455 0 00-1.066.423 1.454 1.454 0 00-.436 1.062l-67.28-6.787-27.89 27.676-.056.063v40.445a1.808 1.808 0 00-1.584 1.887 1.985 1.985 0 001.772 2.05 1.773 1.773 0 001.664-1.175c.082-.228.117-.47.102-.712a2.014 2.014 0 00-1.577-2.025v-40.256l27.714-27.513 67.135 6.743a1.889 1.889 0 001.502 1.787c.836.081 1.515-.673 1.515-1.68a1.924 1.924 0 00-1.515-1.988zm129.345-59.742c-.629-.107-1.138.446-1.201 1.258l-82.645-13.907-30.9 33.488L75.81 218.231a2.271 2.271 0 00-1.829-2.051 1.663 1.663 0 00-1.885 1.768 2.292 2.292 0 001.885 2.27 1.605 1.605 0 001.258-.372 1.623 1.623 0 00.571-1.181l140.229 19.033 30.894-33.5 82.519 13.876a1.739 1.739 0 001.201 1.66c.666.113 1.206-.528 1.206-1.428a1.798 1.798 0 00-1.206-1.855zm-95.623 22.405a1.587 1.587 0 011.194 1.497l24.019 3.258 12.229-13.838 22.674 3.384c.057-.698.515-1.189 1.075-1.101a1.528 1.528 0 011.081 1.573c0 .786-.484 1.346-1.081 1.258a1.492 1.492 0 01-1.075-1.428l-22.573-3.365-12.223 13.838-24.126-3.271c-.069.742-.572 1.258-1.194 1.176a1.613 1.613 0 01-1.206-1.66c0-.818.54-1.416 1.206-1.321zm20.223 15.788l67.519 8.485 25.672-31.173 68.128 10.768c.157 1.39.968 2.56 1.942 2.718 1.087.163 1.967-.988 1.967-2.586 0-1.597-.88-3.025-1.967-3.201-.974-.158-1.785.761-1.942 2.101l-68.443-10.907-25.684 31.179-67.192-8.504c-.207-1.623-1.307-2.975-2.633-3.145-1.483-.195-2.69 1.164-2.69 3.032s1.207 3.535 2.69 3.717c1.326.139 2.426-.918 2.633-2.484z" fill="#2F027A" fill-opacity=".15"/><path d="M404.877 253.606c1.118.163 2.017-1.019 2.017-2.629 0-1.611-.899-3.064-2.017-3.233-.999-.151-1.835.78-1.992 2.145l-45.197-6.724-38.291 47.313-24.509-2.453c-.194-1.554-1.219-2.831-2.457-2.963-1.382-.138-2.514 1.208-2.514 3.013 0 1.806 1.119 3.378 2.514 3.51 1.257.12 2.263-.956 2.457-2.472l24.817 2.46 38.266-47.339 44.889 6.636c.213 1.409 1.018 2.623 2.017 2.736zM175.58 129.944a2.25 2.25 0 00-1.571-2.007c-.873-.194-1.59.485-1.59 1.523a2.281 2.281 0 001.59 2.214 1.324 1.324 0 001.571-1.327l47.334 10.334 15.472 22.367 13.756 2.781a2.007 2.007 0 001.377 1.836c.766.158 1.388-.503 1.388-1.465a2.05 2.05 0 00-1.401-2.026c-.716-.144-1.301.422-1.376 1.258l-13.631-2.761-15.466-22.361-47.453-10.366zm11.054 85.771c-1.489-.227-2.721-1.698-2.959-3.428l-40.666-6.215-43.72-57.063c-.6.355-1.311.472-1.993.327-1.885-.365-3.462-2.377-3.462-4.497s1.552-3.535 3.462-3.145c1.91.39 3.438 2.384 3.438 4.497a3.528 3.528 0 01-.629 2.088l43.362 56.611 40.22 6.189c.239-1.654 1.471-2.755 2.96-2.516 1.653.258 2.991 2.063 2.991 4.026 0 1.962-1.351 3.371-3.004 3.126z" fill="#2F027A" fill-opacity=".15"/><path d="M215.467 194.31c1.571.27 2.847 2.044 2.847 3.963 0 1.918-1.257 3.264-2.847 3.006-1.42-.239-2.595-1.692-2.822-3.378l-64.464-10.869-55.485-73.404-35.89-7.806a2.94 2.94 0 01-1.241 2.082 2.923 2.923 0 01-2.385.434 5.03 5.03 0 01-3.695-4.768c0-2.189 1.66-3.604 3.695-3.145a5.027 5.027 0 013.626 4.088l36.387 7.945 55.428 73.417 64.037 10.857c.214-1.611 1.389-2.667 2.809-2.422zm122.123-55.371c-.628-.151-1.118.365-1.181 1.163l-52.6-12.731-21.612 21.575-.044.044v35.558c-.685-.032-1.219.597-1.219 1.49a1.983 1.983 0 001.364 1.994c.76.139 1.37-.528 1.37-1.484a2.043 2.043 0 00-1.219-1.944V149.21l21.473-21.449 52.487 12.687a1.889 1.889 0 001.181 1.711c.66.158 1.194-.44 1.194-1.333a1.945 1.945 0 00-1.194-1.887zm1594.15 638.475l-.03-32.513-9.08-13.549-73.83-17.285c-.04-.513-.25-1-.57-1.398a2.615 2.615 0 00-1.26-.835 1.485 1.485 0 00-1.75.885c-.09.222-.13.462-.11.7.01.554.2 1.09.53 1.532.33.442.8.767 1.33.928a1.461 1.461 0 001.25-.242c.18-.133.32-.304.42-.501.1-.196.16-.413.16-.635l73.62 17.26 8.8 13.209.03 32.337a1.535 1.535 0 00-.71.01c-.24.059-.45.173-.64.331-.18.158-.32.357-.42.581-.09.224-.13.466-.11.707a2.971 2.971 0 002.1 2.705c.24.087.51.112.76.072.26-.04.51-.144.71-.302.21-.158.38-.365.48-.602.11-.238.16-.499.14-.759a2.99 2.99 0 00-.52-1.584 2.937 2.937 0 00-1.3-1.052z" fill="#2F027A" fill-opacity=".15"/><path d="M1864.08 731.076v30.953l8.31 13.209 76.52 21.141c.08.578.32 1.121.7 1.567.37.445.87.774 1.43.949a1.589 1.589 0 001.51-.204c.21-.158.38-.367.5-.608.11-.242.16-.507.14-.773a3.021 3.021 0 00-.64-1.728 3.012 3.012 0 00-1.51-1.046 1.592 1.592 0 00-1.41.149c-.2.131-.38.309-.5.519-.13.21-.2.446-.22.69l-76.33-21.065-8.09-12.844v-30.821c.22.033.45.016.66-.052.22-.068.42-.184.58-.339a1.497 1.497 0 00.46-1.22 2.682 2.682 0 00-.54-1.564 2.678 2.678 0 00-1.35-.952 1.484 1.484 0 00-.71-.015 1.45 1.45 0 00-.64.316 1.56 1.56 0 00-.43.577c-.09.224-.13.467-.1.707 0 .528.16 1.041.46 1.477.3.436.71.776 1.2.977zm-284.5-44.238c.62.163 1.1-.333 1.16-1.132l80.95 21.694 30.22-30.192 136.85 32.23a2.49 2.49 0 001.79 2.201c.22.059.46.061.69.007.23-.054.44-.163.62-.317s.32-.348.4-.567c.09-.218.12-.455.1-.689a2.562 2.562 0 00-1.81-2.421 1.414 1.414 0 00-.64-.021c-.22.042-.42.132-.59.263-.17.131-.31.3-.41.493-.1.193-.15.406-.15.623l-137-32.211-30.23 30.192-80.77-21.631a1.968 1.968 0 00-1.17-1.755c-.63-.176-1.19.409-1.19 1.296a2.005 2.005 0 001.18 1.937zm93.63-13.008c-.33-.12-.62-.335-.83-.618a1.88 1.88 0 01-.34-.973l-23.51-5.535-11.94 12.517-22.2-5.523c-.06.686-.5 1.126-1.05.988a1.69 1.69 0 01-.79-.666 1.691 1.691 0 01-.27-1.001c0-.774.48-1.258 1.06-1.133.31.121.57.328.75.597.19.268.29.586.3.913l22.1 5.498 11.97-12.524 23.62 5.554c.06-.729.55-1.189 1.16-1.05.35.13.66.37.87.685.22.315.32.69.31 1.07-.03.817-.56 1.358-1.21 1.201z" fill="#2F027A" fill-opacity=".15"/><path d="M1819.66 750.141c.05.504.24.983.55 1.381.31.399.73.699 1.21.864.22.066.46.076.69.029.22-.047.43-.15.61-.299s.32-.339.4-.554c.09-.216.12-.449.09-.679a2.614 2.614 0 00-1.79-2.459c-.2-.064-.42-.078-.63-.043-.2.036-.4.12-.57.246-.18.126-.31.29-.41.48-.1.19-.15.4-.15.612l-53.08-14.228-17.3-24.713-15.36-3.869a2.352 2.352 0 00-.46-1.249 2.332 2.332 0 00-1.07-.789c-.86-.213-1.56.441-1.56 1.46 0 .488.14.966.42 1.367.28.401.68.706 1.14.872a1.258 1.258 0 001.07-.254c.15-.122.27-.275.35-.449.08-.174.11-.364.11-.555l15.22 3.837 17.29 24.707 53.23 14.285zm-330.2-154.238l-48.89-9.831-18.81-33.287-50.58-8.529c-.12 1.163-.72 1.962-1.46 1.836-.73-.126-1.47-1.371-1.47-2.749 0-1.377.66-2.39 1.47-2.258.81.132 1.34 1.126 1.46 2.334l50.82 8.517 18.85 33.28 48.65 9.737c.15-1.321.94-2.189 1.89-2 1.06.207 1.92 1.661 1.92 3.246s-.86 2.685-1.92 2.472c-.99-.195-1.76-1.384-1.93-2.768z" fill="#2F027A" fill-opacity=".15"/><path d="M1379.92 556.735c-.83-.151-1.51-1.409-1.51-2.805 0-1.397.68-2.409 1.51-2.265.83.145 1.37 1.158 1.49 2.378l33.54 5.963 28.09 50.32 17.81 4.038c.15-1.258.89-2.113 1.78-1.887 1.01.227 1.82 1.654 1.82 3.189 0 1.535-.81 2.592-1.82 2.359-.89-.201-1.63-1.371-1.78-2.717l-18.05-4.108-28.08-50.32-33.31-5.963c-.12 1.126-.75 1.95-1.49 1.818zm53.07-12.895c.45.076.82.68.87 1.384l59.58 9.435 21.96 35.979 97.24 18.543c.07-.824.63-1.371 1.26-1.258.39.136.72.393.94.734.23.34.34.745.32 1.153 0 .919-.57 1.56-1.26 1.422a1.817 1.817 0 01-.9-.661c-.23-.309-.35-.68-.36-1.063l-97.33-18.593-21.94-36.017-59.5-9.435c-.05.686-.42 1.176-.87 1.101-.45-.076-.88-.761-.88-1.529 0-.767.38-1.27.87-1.195zm149.95 68.631c0-1.673-1.01-3.233-2.23-3.472-1.23-.239-2.12.805-2.22 2.333l-46.5-9.24-11.46 14.077-20.21-4.346c-.18-1.315-.95-2.44-1.89-2.635-1.04-.227-1.88.849-1.88 2.39 0 1.541.85 2.975 1.88 3.208 1.04.232 1.89-.812 1.89-2.315l20.37 4.403 11.46-14.077 46.36 9.227c.15 1.497 1.08 2.812 2.2 3.038 1.22.246 2.23-.912 2.23-2.591zm-82.96-.17c0 1.195-.66 2.019-1.47 1.843-.81-.176-1.45-1.258-1.45-2.472s.62-2.019 1.45-1.849c.83.17 1.44 1.283 1.44 2.478h.03zm82.47.069c0 1.296-.76 2.189-1.71 2-.95-.188-1.72-1.396-1.72-2.679s.77-2.189 1.72-2c.95.188 1.68 1.39 1.68 2.679h.03zm-80.62-25.147c-.44-.088-.8.339-.85.962l-17.13-3.277-8.77-14.8-16.34-2.894c-.04-.629-.37-1.145-.77-1.214-.4-.069-.78.403-.78 1.063 0 .661.34 1.258.78 1.346.43.088.73-.339.77-.937l16.26 2.887 8.76 14.801 17.21 3.289c-.01.275.07.546.22.777.15.23.37.409.62.513.48.088.86-.403.86-1.095.03-.296-.03-.595-.19-.851a1.375 1.375 0 00-.65-.57zM1931.74 21.56l-.03 32.539-9.08 13.523-73.81 17.298c-.05.513-.25 1-.57 1.398-.33.398-.77.689-1.26.835a1.491 1.491 0 01-1.34-.31 1.53 1.53 0 01-.42-.575 1.666 1.666 0 01-.1-.7c.01-.554.2-1.09.53-1.532.33-.442.8-.767 1.33-.927a1.463 1.463 0 011.67.742c.1.197.16.414.16.635l73.62-17.26 8.79-13.209.04-32.337c-.23.053-.48.05-.71-.01a1.518 1.518 0 01-.64-.33 1.56 1.56 0 01-.42-.581 1.555 1.555 0 01-.11-.708c.03-.612.24-1.2.62-1.685.37-.484.89-.84 1.48-1.02.24-.087.51-.112.76-.072a1.574 1.574 0 011.33 1.664 2.91 2.91 0 01-.54 1.58c-.32.465-.77.827-1.3 1.043z" fill="#2F027A" fill-opacity=".15"/><path d="M1864.08 67.9V36.945l8.31-13.21 76.52-21.115c.08-.578.32-1.121.7-1.567.37-.445.87-.774 1.43-.949.25-.095.51-.126.78-.09.26.035.51.136.73.294.21.158.38.367.5.608.11.242.16.507.14.773a3.024 3.024 0 01-.64 1.728c-.38.497-.91.862-1.51 1.046a1.594 1.594 0 01-1.41-.149 1.57 1.57 0 01-.5-.519 1.54 1.54 0 01-.22-.69l-76.33 21.046-8.09 12.844v30.821c.22-.033.45-.015.66.052.22.068.42.184.58.34a1.496 1.496 0 01.46 1.22 2.687 2.687 0 01-1.89 2.515c-.23.062-.48.068-.71.015a1.45 1.45 0 01-.64-.316 1.553 1.553 0 01-.43-.577 1.425 1.425 0 01-.1-.707c0-.529.16-1.043.46-1.48.29-.438.71-.779 1.2-.98zm-284.5 44.237c.62-.164 1.1.34 1.16 1.132l80.95-21.694 30.22 30.192 136.85-32.23a2.49 2.49 0 011.79-2.202c.22-.058.46-.06.69-.006.23.054.44.163.62.317.18.153.32.348.4.567.09.218.12.455.1.689a2.558 2.558 0 01-1.81 2.422 1.42 1.42 0 01-.64.02 1.388 1.388 0 01-.59-.263c-.17-.131-.31-.3-.41-.493-.1-.194-.15-.407-.15-.623l-137 32.211-30.23-30.192-80.77 21.631a1.962 1.962 0 01-1.17 1.755c-.63.176-1.19-.409-1.19-1.296a2.005 2.005 0 011.18-1.937zm93.63 13.039c-.33.12-.62.335-.83.619-.2.283-.32.622-.34.973l-23.51 5.535-11.94-12.517-22.2 5.522c-.06-.685-.5-1.126-1.05-.987-.33.134-.6.366-.79.665-.19.298-.29.648-.27 1.002 0 .773.48 1.258 1.06 1.138.31-.122.57-.331.75-.6.19-.27.29-.588.3-.916l22.1-5.497 11.97 12.523 23.62-5.548c.06.724.55 1.183 1.16 1.044a1.8 1.8 0 00.87-.685c.22-.315.32-.689.31-1.069-.03-.85-.56-1.391-1.21-1.202z" fill="#2F027A" fill-opacity=".15"/><path d="M1819.66 48.834c.05-.504.24-.984.55-1.382.31-.398.73-.698 1.21-.863.22-.066.46-.076.69-.03.22.048.43.15.61.3.18.148.32.339.4.554.09.216.12.449.09.679a2.63 2.63 0 01-1.79 2.466 1.371 1.371 0 01-1.2-.212c-.17-.127-.31-.29-.41-.48-.09-.19-.15-.398-.15-.61l-53.08 14.228-17.3 24.7-15.36 3.869c-.03.453-.19.887-.46 1.25a2.33 2.33 0 01-1.07.788c-.86.214-1.56-.44-1.56-1.46 0-.488.14-.966.42-1.367.28-.401.68-.706 1.14-.872a1.255 1.255 0 011.07.254c.15.122.27.275.35.45.08.173.11.363.11.554l15.22-3.837 17.29-24.707 53.23-14.272zm-330.2 154.238l-48.89 9.831-18.81 33.287-50.59 8.561c-.12-1.164-.72-1.963-1.46-1.837-.73.126-1.47 1.371-1.47 2.749 0 1.377.66 2.39 1.47 2.258.81-.132 1.34-1.126 1.46-2.334l50.81-8.516 18.86-33.281 48.65-9.737c.15 1.321.94 2.189 1.89 2 1.06-.207 1.92-1.66 1.92-3.239s-.86-2.692-1.92-2.478c-.98.163-1.75 1.352-1.92 2.736z" fill="#2F027A" fill-opacity=".15"/><path d="M1379.92 242.24c-.83.151-1.51 1.409-1.51 2.805 0 1.397.68 2.409 1.51 2.265.83-.145 1.37-1.158 1.49-2.378l33.54-5.963 28.09-50.32 17.81-4.038c.15 1.258.89 2.113 1.78 1.887 1.01-.227 1.82-1.655 1.82-3.189 0-1.535-.81-2.592-1.82-2.359-.89.201-1.63 1.371-1.78 2.717l-18.05 4.108-28.08 50.32-33.31 5.963c-.12-1.151-.75-1.95-1.49-1.818zm53.07 12.894c.45-.069.82-.679.87-1.383l59.58-9.435 21.96-36.005 97.24-18.543c.07.824.63 1.372 1.26 1.258.39-.135.72-.393.94-.733.23-.34.34-.745.32-1.154 0-.918-.57-1.559-1.26-1.421-.36.12-.68.351-.9.66-.23.309-.35.681-.36 1.063l-97.33 18.594-21.94 36.016-59.5 9.435c-.05-.691-.42-1.182-.87-1.107-.45.076-.88.762-.88 1.529 0 .767.38 1.302.87 1.226zm147.72-71.222c-1.12.227-2.05 1.542-2.2 3.039l-46.29 9.233-11.47-14.077-20.37 4.403c0-1.503-.87-2.516-1.88-2.315-1.02.202-1.89 1.667-1.89 3.208 0 1.541.85 2.617 1.89 2.391.91-.195 1.69-1.321 1.88-2.636l20.21-4.346 11.43 14.07 46.51-9.24c.09 1.529 1.05 2.567 2.21 2.334 1.16-.233 2.23-1.799 2.23-3.472s-1.04-2.831-2.26-2.592zm-82.23 5.24c-.8.17-1.46-.629-1.46-1.849s.63-2.296 1.46-2.472c.83-.176 1.47.629 1.47 1.843s-.66 2.302-1.47 2.478zm82.23.132c-.95.189-1.72-.711-1.72-2 0-1.29.77-2.516 1.72-2.68.95-.163 1.71.705 1.71 2.001 0 1.295-.76 2.49-1.71 2.679zm-78.88 22.474c-.44.082-.8-.346-.85-.968l-17.13 3.277-8.77 14.8-16.34 2.894c-.04.629-.37 1.144-.77 1.214-.4.069-.78-.403-.78-1.063 0-.661.34-1.258.78-1.346.43-.088.73.339.77.937l16.26-2.887 8.76-14.801 17.21-3.289c-.01-.276.07-.546.22-.777.15-.23.37-.409.62-.513.48-.088.86.403.86 1.095.03.297-.03.596-.19.853-.15.257-.38.458-.65.574zm249.59 281.265a1.867 1.867 0 01-1.07-.577 1.871 1.871 0 01-.5-1.115l-47.9-3.554v-27.846a1.79 1.79 0 01-.98-.689 1.763 1.763 0 01-.33-1.153c-.02-.212 0-.425.06-.628.06-.202.17-.39.3-.552.14-.161.31-.293.5-.388.19-.095.4-.15.61-.162.44.07.83.303 1.11.653.27.35.4.791.36 1.234.04.398-.08.796-.32 1.113-.24.318-.6.533-.99.604v27.462l47.57 3.516c-.01-.214.02-.428.1-.629.07-.2.19-.384.34-.539.14-.155.32-.278.52-.363.19-.085.41-.129.62-.129.47.078.89.325 1.18.694.3.369.45.834.42 1.306.02.222 0 .446-.08.656-.07.211-.18.405-.33.569a1.628 1.628 0 01-1.19.517zm-64.73-23.864v26.89l-6.2 8.894-51.1-4.611c-.07.837-.63 1.453-1.26 1.39a1.726 1.726 0 01-1.3-1.805c0-.931.59-1.635 1.3-1.572.36.087.68.295.91.59.23.295.35.659.35 1.032l50.96 4.586 6.03-8.668V469.14c-.39-.12-.72-.366-.95-.698-.22-.332-.33-.73-.31-1.132 0-.982.63-1.743 1.43-1.699.44.079.82.316 1.09.665.26.349.39.785.35 1.222a1.568 1.568 0 01-1.3 1.661z" fill="#2F027A" fill-opacity=".15"/><path d="M1754.43 501.546c0-1.943-1.36-3.635-3.01-3.774-1.53-.119-2.8 1.145-2.97 2.875l-46.47-3.806-15.57 17.392-41.77-4.082c-.14-1.617-1.2-2.963-2.48-3.082-1.37-.132-2.51 1.195-2.51 2.963 0 1.767 1.12 3.314 2.51 3.453 1.26.126 2.34-1.013 2.48-2.598l42.02 4.133 15.58-17.386 46.21 3.818c.17 1.761 1.44 3.227 2.97 3.359 1.65.144 3.01-1.321 3.01-3.265zm-110.35 8.926c0 1.365-.86 2.39-1.92 2.283-1.06-.107-1.92-1.302-1.92-2.661 0-1.358.86-2.39 1.92-2.289 1.06.1 1.92 1.296 1.92 2.667zm109.66-8.982c0 1.497-1.04 2.629-2.32 2.516-1.27-.114-2.31-1.409-2.31-2.9 0-1.491 1.04-2.629 2.31-2.516 1.27.113 2.32 1.403 2.32 2.9zm-2.32-195.538c-.41.068-.79.271-1.07.577-.29.306-.46.698-.5 1.115l-47.9 3.553v27.84c-.4.111-.74.355-.98.69-.24.335-.36.742-.33 1.153-.02.211 0 .424.06.627s.17.391.3.552c.14.162.31.294.5.389.19.094.4.149.61.162.44-.07.83-.303 1.11-.653.27-.35.4-.791.36-1.234a1.59 1.59 0 00-1.31-1.717v-27.444l47.57-3.516c-.01.214.02.428.1.629.07.201.19.384.34.539.14.155.32.279.52.363.19.085.41.129.62.13.47-.078.89-.326 1.18-.694.3-.369.45-.834.42-1.307.02-.222 0-.447-.07-.66a1.621 1.621 0 00-.88-.96c-.2-.09-.43-.135-.65-.134zm-64.73 23.864v-26.89l-6.2-8.894-51.1 4.611c-.07-.837-.63-1.453-1.26-1.391a1.726 1.726 0 00-1.3 1.806c0 .931.59 1.635 1.3 1.572.36-.087.68-.295.91-.59.23-.295.35-.659.35-1.033l50.96-4.585 6.03 8.668v26.745c-.39.12-.72.366-.95.698-.22.332-.33.73-.31 1.132 0 .981.63 1.743 1.43 1.699.44-.078.82-.314 1.09-.664.26-.35.39-.786.35-1.223a1.568 1.568 0 00-1.3-1.661z" fill="#2F027A" fill-opacity=".15"/><path d="M1751.42 294.158c-1.53.132-2.8 1.597-2.97 3.359l-46.21 3.818-15.58-17.386-42.02 4.139c-.14-1.585-1.2-2.724-2.48-2.598-1.37.138-2.51 1.692-2.51 3.453 0 1.762 1.12 3.095 2.51 2.963 1.26-.12 2.34-1.466 2.48-3.082l41.77-4.082 15.57 17.392 46.47-3.806c.17 1.73 1.44 2.994 2.97 2.875 1.65-.133 3.01-1.825 3.01-3.774 0-1.95-1.36-3.41-3.01-3.271zm-109.26-2.988c-1.06.101-1.92-.925-1.92-2.29 0-1.364.86-2.553 1.92-2.66 1.06-.107 1.92.918 1.92 2.283 0 1.365-.86 2.566-1.92 2.667zm109.26 9.221c-1.26.101-2.31-1.031-2.31-2.516 0-1.484 1.04-2.793 2.31-2.9 1.27-.106 2.32 1.026 2.32 2.516 0 1.491-1.04 2.793-2.32 2.9zm26.21 196.142v-57.484l17.79-20.129 142.24 2.158 19.98 20.707a4.057 4.057 0 00-.87 2.547 4.405 4.405 0 001.23 3.016 4.39 4.39 0 002.97 1.343 4.026 4.026 0 002.98-1.141c.4-.383.71-.843.92-1.35a4.02 4.02 0 00.32-1.604 4.393 4.393 0 00-1.24-3.028 4.391 4.391 0 00-2.98-1.337 4.092 4.092 0 00-2.3.629l-20.45-21.153-143.28-2.038-18.4 20.82v57.937c-1.51.183-2.66 1.604-2.66 3.428 0 2.032 1.43 3.774 3.19 3.95 1.77.177 3.22-1.396 3.22-3.44a3.943 3.943 0 00-.7-2.352 3.922 3.922 0 00-1.96-1.479z" fill="#2F027A" fill-opacity=".15"/><path d="M1961.88 470.153a3.87 3.87 0 00-2.68.869 3.881 3.881 0 00-1.37 2.452l-83.81-4.296-20.37-22.802-35.82-1.258c-.05-1.994-1.51-3.648-3.31-3.704-1.8-.057-3.3 1.547-3.3 3.579 0 2.031 1.48 3.742 3.3 3.811.8.001 1.56-.287 2.16-.81a3.24 3.24 0 001.09-2.033l35.53 1.258 20.36 22.808 84.16 4.378c.1 1.038.56 2.007 1.31 2.735a4.371 4.371 0 002.76 1.24 3.854 3.854 0 002.9-1.053c.39-.366.7-.808.9-1.298.21-.489.32-1.017.31-1.549a4.397 4.397 0 00-1.22-2.971 4.375 4.375 0 00-2.9-1.356zm-147.35-22.185a2.833 2.833 0 01-1.85-.966 2.813 2.813 0 01-.69-1.978c-.02-.35.03-.701.15-1.032.11-.33.3-.634.53-.891.24-.258.53-.466.85-.61.32-.143.66-.221 1.01-.228a2.834 2.834 0 012.56 2.943c.02.352-.03.703-.15 1.034-.12.331-.3.635-.54.893-.24.257-.53.464-.85.608-.32.143-.66.221-1.02.227zm147.35 29.45a3.407 3.407 0 01-2.23-1.056 3.401 3.401 0 01-.92-2.284c0-.409.08-.814.24-1.19.15-.377.39-.717.68-.999.3-.283.65-.502 1.03-.643a2.96 2.96 0 011.2-.181c.84.058 1.64.435 2.22 1.054.58.619.91 1.435.92 2.286 0 .408-.07.813-.23 1.19-.16.376-.39.716-.69.999-.29.282-.64.501-1.03.643-.38.142-.79.203-1.19.181z" fill="#2F027A" fill-opacity=".15"/><path d="M1793.51 429.305l96.49 2.252c.05.498.27.964.63 1.31.36.347.83.552 1.33.577.27.001.53-.051.78-.154.24-.103.46-.254.65-.444.18-.19.33-.416.42-.663.1-.248.14-.512.13-.777a2.052 2.052 0 00-.55-1.47c-.37-.4-.88-.639-1.43-.668-.49 0-.97.187-1.33.524-.37.337-.59.799-.63 1.293l-96.66-2.214-8.32 10.064v18.613c-.44.059-.84.282-1.11.622-.28.341-.42.775-.39 1.214-.03.486.13.962.44 1.335.32.372.76.612 1.24.672a1.72 1.72 0 001.6-1.159c.08-.221.11-.456.09-.691.02-.453-.13-.897-.4-1.258-.28-.36-.67-.613-1.11-.717v-18.455l8.13-9.806zm-88.27 81.903l83.23 7.799c.02.459.2.895.51 1.238.3.343.71.572 1.17.649.23.01.46-.03.68-.117.21-.087.41-.219.57-.387.16-.169.28-.37.36-.59a1.6 1.6 0 00.09-.686c.01-.496-.15-.981-.46-1.366a2.059 2.059 0 00-1.24-.728 1.59 1.59 0 00-.63.097c-.21.074-.39.187-.55.334-.15.147-.28.323-.36.519-.09.196-.14.408-.14.622l-83.36-7.781-15.75 17.738v17.43a1.441 1.441 0 00-1.26 1.598 1.887 1.887 0 001.44 1.962c.8.107 1.44-.629 1.44-1.597.02-.417-.09-.828-.32-1.174-.24-.346-.57-.61-.96-.751v-17.279l15.54-17.53zm245.19 22.04l-103.47-9.624-38.58 38.464-100.39-12.58c-.23-1.68-1.4-3.082-2.82-3.258-1.57-.195-2.85 1.207-2.85 3.145 0 1.937 1.26 3.635 2.85 3.843 1.42.182 2.59-.925 2.82-2.548l100.89 12.719 38.6-38.439 102.95 9.687a4.764 4.764 0 001.4 2.629 4.733 4.733 0 002.7 1.265c.53.059 1.07.003 1.58-.163s.98-.439 1.38-.801a3.814 3.814 0 001.23-2.861 4.722 4.722 0 00-1.23-3.091 4.68 4.68 0 00-2.96-1.507 3.717 3.717 0 00-2.67.738 3.706 3.706 0 00-1.43 2.382z" fill="#2F027A" fill-opacity=".15"/><path d="M1753.09 549.074c1.52.182 2.8-.975 3.04-2.661l41.95 4.957 45.15-45.874c.57.509 1.3.819 2.06.887 1.97.158 3.58-1.459 3.58-3.616a4.129 4.129 0 00-.99-2.771 4.132 4.132 0 00-2.59-1.4c-1.97-.144-3.56 1.472-3.56 3.617-.01.811.21 1.608.63 2.302l-44.77 45.546-41.47-4.862c-.25-1.742-1.53-3.195-3.05-3.371-1.71-.195-3.09 1.258-3.09 3.258s1.4 3.78 3.11 3.988z" fill="#2F027A" fill-opacity=".15"/><path d="M1719.68 522.781c.2.006.39-.028.58-.1.18-.072.35-.181.49-.32s.25-.304.32-.487c.08-.183.11-.38.11-.577l67.28 6.787 27.89-27.676.06-.063V459.9a1.805 1.805 0 001.58-1.887 1.98 1.98 0 00-1.77-2.051c-.24.002-.48.052-.7.149a1.754 1.754 0 00-.96 1.027c-.09.228-.12.47-.11.711-.01.469.14.928.43 1.298.28.369.69.627 1.15.728v40.256l-27.71 27.513-67.14-6.743a1.869 1.869 0 00-.44-1.15 1.92 1.92 0 00-1.06-.63c-.84-.088-1.52.666-1.52 1.673-.02.458.12.91.39 1.274.28.365.68.618 1.13.713zm-129.35 59.743c.63.107 1.14-.446 1.21-1.258l82.64 13.926 30.9-33.488 140.1 19.059c.04.495.24.963.57 1.334.33.37.77.622 1.26.716.24.036.49.016.73-.058.24-.075.45-.201.63-.371.18-.17.33-.379.41-.61.09-.232.13-.48.11-.728.01-.54-.18-1.065-.53-1.48a2.258 2.258 0 00-1.35-.791 1.614 1.614 0 00-1.26.372 1.68 1.68 0 00-.41.531c-.1.203-.16.425-.16.651l-140.23-19.034-30.9 33.501-82.51-13.876c0-.368-.12-.727-.34-1.025a1.71 1.71 0 00-.87-.635c-.66-.114-1.2.528-1.2 1.427-.03.397.07.792.29 1.125.22.332.54.582.91.712zm95.63-22.405a1.546 1.546 0 01-.85-.548c-.22-.27-.34-.603-.35-.949l-24.02-3.258-12.22 13.838-22.68-3.384c-.06.698-.51 1.189-1.07 1.101a1.522 1.522 0 01-.82-.597c-.2-.286-.29-.63-.26-.976 0-.786.48-1.346 1.08-1.258.31.09.58.277.77.535.2.257.3.571.3.893l22.57 3.365 12.23-13.838 24.12 3.271c.07-.742.57-1.258 1.2-1.176.36.094.68.311.9.613.22.303.33.673.3 1.047 0 .818-.54 1.415-1.2 1.321zm-20.23-15.788l-67.51-8.485-25.68 31.173-68.12-10.768c-.16-1.39-.97-2.56-1.95-2.718-1.08-.163-1.96.988-1.96 2.586 0 1.597.88 3.025 1.96 3.201.98.157 1.79-.761 1.95-2.101l68.44 10.882 25.68-31.154 67.19 8.504c.21 1.622 1.31 2.975 2.64 3.145 1.48.195 2.69-1.164 2.69-3.032s-1.21-3.535-2.69-3.718c-1.33-.163-2.43.919-2.64 2.485z" fill="#2F027A" fill-opacity=".15"/><path d="M1516.11 545.35c-1.12-.164-2.02 1.019-2.02 2.636 0 1.616.9 3.056 2.02 3.226 1 .151 1.84-.78 1.99-2.145l45.2 6.724 38.29-47.313 24.51 2.453c.19 1.554 1.22 2.831 2.46 2.963 1.38.138 2.51-1.208 2.51-3.013 0-1.806-1.12-3.378-2.51-3.51-1.26-.12-2.27.956-2.46 2.472l-24.82-2.46-38.26 47.339-44.89-6.636c-.18-1.39-1.02-2.572-2.02-2.736zm229.3 123.681c.03.454.19.889.47 1.247.28.358.66.623 1.1.759.87.195 1.59-.484 1.59-1.522a2.288 2.288 0 00-1.59-2.214 1.293 1.293 0 00-1.1.287 1.256 1.256 0 00-.47 1.04l-47.34-10.334-15.44-22.368-13.76-2.78c-.01-.41-.15-.807-.4-1.135a1.97 1.97 0 00-.98-.701c-.76-.158-1.39.503-1.39 1.465-.01.444.11.881.36 1.248.25.366.61.641 1.03.784.72.144 1.3-.422 1.38-1.258l13.63 2.761 15.47 22.361 47.44 10.36zm-11.06-85.771c1.49.226 2.72 1.698 2.96 3.428l40.67 6.215 43.72 57.063c.6-.356 1.31-.473 1.99-.327 1.89.364 3.46 2.377 3.46 4.497s-1.55 3.535-3.46 3.145c-1.91-.39-3.44-2.384-3.44-4.497-.01-.745.21-1.476.63-2.089l-43.36-56.61-40.22-6.189c-.24 1.654-1.47 2.755-2.96 2.516-1.65-.258-2.99-2.063-2.99-4.026 0-1.962 1.35-3.371 3-3.126z" fill="#2F027A" fill-opacity=".15"/><path d="M1705.52 604.665c-1.57-.271-2.85-2.044-2.85-3.963 0-1.918 1.26-3.264 2.85-3.006 1.42.239 2.6 1.692 2.82 3.377l64.47 10.87 55.48 73.404 35.89 7.819c.05-.416.18-.817.4-1.176a2.89 2.89 0 011.99-1.382c.41-.075.83-.061 1.24.042 1.04.288 1.97.908 2.64 1.768a5.081 5.081 0 011.05 2.999c0 2.189-1.66 3.605-3.69 3.145a4.994 4.994 0 01-2.42-1.508 5.087 5.087 0 01-1.21-2.58l-36.39-7.944-55.42-73.43-64.04-10.857c-.21 1.604-1.39 2.667-2.81 2.422zm-122.12 55.371c.63.151 1.12-.365 1.18-1.164l52.6 12.731 21.61-21.574.04-.044v-35.558c.69 0 1.22-.629 1.22-1.491.03-.436-.09-.868-.34-1.229a2.02 2.02 0 00-1.02-.765c-.76-.138-1.37.529-1.37 1.485-.02.409.09.813.31 1.16.22.346.53.619.91.783v35.394l-21.47 21.449-52.49-12.687c0-.373-.12-.738-.33-1.047a1.912 1.912 0 00-.85-.689c-.63-.157-1.2.441-1.2 1.334-.02.403.08.804.29 1.147.22.343.53.61.91.765zm194.23-357.594v57.491l17.79 20.096 142.24-2.157 19.98-20.707a4.057 4.057 0 01-.87-2.547 4.407 4.407 0 011.23-3.017 4.389 4.389 0 012.97-1.342 4.029 4.029 0 012.98 1.141c.4.383.71.842.92 1.35.22.508.32 1.053.32 1.603a4.395 4.395 0 01-1.24 3.029 4.396 4.396 0 01-2.98 1.337 4.092 4.092 0 01-2.3-.629l-20.45 21.153-143.28 2.038-18.4-20.82v-57.906c-1.51-.182-2.66-1.604-2.66-3.428 0-2.032 1.43-3.774 3.19-3.95 1.77-.176 3.22 1.396 3.22 3.44.02.838-.22 1.66-.7 2.348a3.967 3.967 0 01-1.96 1.477z" fill="#2F027A" fill-opacity=".15"/><path d="M1965.99 324.495c0-.532-.1-1.06-.31-1.55a3.851 3.851 0 00-.9-1.297 3.854 3.854 0 00-2.9-1.053 4.386 4.386 0 00-2.76 1.244 4.427 4.427 0 00-1.3 2.731l-84.13 4.359-20.36 22.814-35.53 1.258a3.24 3.24 0 00-1.09-2.033 3.268 3.268 0 00-2.16-.81c-1.82.069-3.3 1.78-3.3 3.812 0 2.031 1.48 3.642 3.3 3.579 1.83-.063 3.27-1.711 3.32-3.705l35.82-1.258 20.36-22.802 83.77-4.283c.13.961.62 1.837 1.37 2.452a3.86 3.86 0 002.67.869 4.382 4.382 0 002.91-1.356 4.397 4.397 0 001.22-2.971zm-148.89 29.273c.03.725-.22 1.435-.69 1.982-.48.548-1.15.892-1.87.962a2.643 2.643 0 01-1.86-.838 2.612 2.612 0 01-.54-.891 2.42 2.42 0 01-.14-1.032c-.04-.725.2-1.437.68-1.988.47-.551 1.13-.9 1.85-.975a2.596 2.596 0 011.88.84c.24.26.43.566.54.9.12.333.17.687.15 1.04zm147.94-29.198c0 .85-.33 1.667-.91 2.286-.59.619-1.38.996-2.23 1.054-.41.022-.81-.039-1.2-.181-.38-.142-.73-.36-1.02-.643-.3-.282-.53-.622-.69-.999a3.035 3.035 0 01-.23-1.19 3.383 3.383 0 013.14-3.34c.41-.022.82.039 1.2.181s.73.361 1.03.643c.29.283.52.623.68.999.16.377.24.782.23 1.19z" fill="#2F027A" fill-opacity=".15"/><path d="M1793.51 369.67l96.49-2.252c.05-.498.27-.964.63-1.31.36-.347.83-.552 1.33-.577.27-.001.53.051.78.155.24.103.46.254.65.445.18.191.33.417.42.665.1.248.14.513.13.779a2.097 2.097 0 01-1.98 2.132c-.49 0-.97-.187-1.33-.524a1.956 1.956 0 01-.63-1.294l-96.66 2.215-8.32-10.064v-18.619a1.703 1.703 0 01-1.11-.623 1.726 1.726 0 01-.39-1.214c-.03-.485.13-.962.44-1.334.32-.372.76-.612 1.24-.672.23.003.47.055.68.151a1.749 1.749 0 01.92 1.007c.08.222.11.457.09.691.02.453-.13.898-.4 1.258-.28.361-.67.614-1.11.717v18.461l8.13 9.807zm-88.27-81.903l83.23-7.8c.02-.458.2-.894.51-1.237.3-.343.71-.572 1.17-.65.23-.009.46.031.68.118.21.087.41.219.57.387.16.169.28.37.36.589.08.22.11.454.09.687.01.496-.15.981-.46 1.366-.31.385-.76.643-1.24.728a1.59 1.59 0 01-.63-.097 1.594 1.594 0 01-.55-.334 1.572 1.572 0 01-.36-.519 1.494 1.494 0 01-.14-.622l-83.36 7.78-15.75-17.737v-17.411a1.443 1.443 0 01-1.26-1.598c-.03-.444.1-.885.36-1.245.26-.359.65-.613 1.08-.717.8-.107 1.44.629 1.44 1.597.02.417-.09.828-.32 1.174-.24.346-.57.609-.96.751v17.26l15.54 17.53zm245.19-22.04l-103.47 9.624-38.58-38.464-100.39 12.58c-.23 1.68-1.4 3.082-2.82 3.258-1.57.195-2.85-1.207-2.85-3.145 0-1.937 1.26-3.635 2.85-3.843 1.42-.182 2.59.925 2.82 2.516l100.89-12.687 38.6 38.439 102.98-9.681a4.779 4.779 0 011.41-2.629 4.668 4.668 0 012.69-1.264c.54-.06 1.07-.004 1.58.162s.98.439 1.38.801a3.814 3.814 0 011.23 2.861 4.72 4.72 0 01-1.23 3.091 4.68 4.68 0 01-2.96 1.507 3.71 3.71 0 01-2.69-.728 3.745 3.745 0 01-1.44-2.398z" fill="#2F027A" fill-opacity=".15"/><path d="M1753.09 249.901c1.52-.182 2.8.975 3.04 2.661l41.95-4.957 45.15 45.873a3.65 3.65 0 012.06-.886c1.97-.158 3.58 1.459 3.58 3.616a4.13 4.13 0 01-.99 2.771 4.137 4.137 0 01-2.59 1.4c-1.97.144-3.56-1.472-3.56-3.617-.01-.811.21-1.609.63-2.302l-44.77-45.546-41.47 4.862c-.25 1.742-1.53 3.195-3.05 3.371-1.71.202-3.09-1.258-3.09-3.258s1.4-3.78 3.11-3.988z" fill="#2F027A" fill-opacity=".15"/><path d="M1719.68 276.193a1.479 1.479 0 011.07.423c.14.138.25.304.32.486.08.183.11.379.11.576l67.28-6.787 27.89 27.676.06.063v40.445a1.8 1.8 0 011.16.632c.29.35.44.798.42 1.255a1.98 1.98 0 01-1.77 2.05 1.758 1.758 0 01-.7-.148 1.754 1.754 0 01-.96-1.027c-.09-.228-.12-.47-.11-.712-.01-.468.14-.927.43-1.297.28-.37.69-.627 1.15-.728v-40.256l-27.71-27.513-67.14 6.743a1.88 1.88 0 01-1.5 1.787c-.84.081-1.52-.673-1.52-1.68-.02-.458.12-.91.39-1.275.28-.364.68-.617 1.13-.713zm-129.35-59.742c.63-.107 1.14.446 1.2 1.258l82.65-13.907 30.9 33.488 140.1-19.059c.04-.495.24-.964.57-1.334.33-.37.77-.622 1.26-.717.24-.034.49-.013.73.062a1.669 1.669 0 011.04.979c.09.231.13.479.11.727.01.54-.18 1.064-.53 1.48-.34.415-.82.696-1.35.79-.23.03-.46.011-.67-.053a1.567 1.567 0 01-.59-.319 1.675 1.675 0 01-.41-.53 1.48 1.48 0 01-.16-.651l-140.23 19.033-30.9-33.5-82.52 13.876c.01.368-.11.727-.33 1.025a1.71 1.71 0 01-.87.635c-.66.113-1.2-.528-1.2-1.428-.04-.399.06-.799.28-1.135.22-.336.55-.59.92-.72zm95.63 22.405a1.55 1.55 0 00-.85.547c-.22.271-.34.604-.35.95l-24.02 3.258-12.22-13.838-22.68 3.384c-.06-.698-.51-1.189-1.07-1.101-.34.101-.62.311-.82.597-.2.286-.29.63-.26.976 0 .786.48 1.346 1.08 1.258.31-.09.58-.278.77-.535.2-.257.3-.571.3-.893l22.57-3.365 12.23 13.838 24.12-3.271c.07.742.57 1.258 1.2 1.176.36-.094.68-.311.9-.614.22-.302.33-.672.3-1.046 0-.818-.54-1.416-1.2-1.321zm-20.23 15.788l-67.51 8.485-25.68-31.173-68.12 10.768c-.16 1.39-.97 2.56-1.95 2.718-1.08.163-1.96-.988-1.96-2.586 0-1.597.88-3.025 1.96-3.201.98-.158 1.79.761 1.95 2.101l68.44-10.907 25.68 31.154 67.19-8.504c.21-1.623 1.31-2.975 2.64-3.145 1.48-.195 2.69 1.164 2.69 3.032s-1.21 3.535-2.69 3.717c-1.33.164-2.43-.893-2.64-2.459z" fill="#2F027A" fill-opacity=".15"/><path d="M1516.11 253.606c-1.12.163-2.02-1.019-2.02-2.629 0-1.611.9-3.064 2.02-3.233 1-.151 1.84.78 1.99 2.145l45.2-6.724 38.29 47.313 24.51-2.453c.19-1.554 1.22-2.831 2.46-2.963 1.38-.138 2.51 1.208 2.51 3.013 0 1.806-1.12 3.378-2.51 3.51-1.26.12-2.27-.956-2.46-2.472l-24.82 2.46-38.26-47.339-44.89 6.636c-.18 1.409-1.02 2.623-2.02 2.736zm229.3-123.662a2.236 2.236 0 011.57-2.007c.87-.194 1.59.485 1.59 1.523.01.491-.14.971-.43 1.37-.29.399-.69.695-1.16.844-.2.037-.4.031-.59-.019a1.279 1.279 0 01-.51-.268 1.256 1.256 0 01-.47-1.04l-47.34 10.334-15.47 22.367-13.76 2.781c-.01.41-.15.807-.39 1.135-.25.329-.59.574-.98.701-.77.158-1.39-.503-1.39-1.465-.02-.444.11-.882.36-1.247a2.09 2.09 0 011.04-.779c.72-.144 1.3.422 1.38 1.258l13.63-2.761 15.46-22.361 47.46-10.366zm-11.06 85.771c1.49-.227 2.72-1.698 2.96-3.428l40.67-6.215 43.72-57.063c.6.356 1.31.473 1.99.327 1.89-.365 3.46-2.377 3.46-4.497s-1.55-3.535-3.46-3.145c-1.91.39-3.44 2.384-3.44 4.497-.01.745.21 1.476.63 2.088l-43.36 56.611-40.22 6.189c-.24-1.654-1.47-2.755-2.96-2.516-1.65.258-2.99 2.063-2.99 4.026 0 1.962 1.35 3.371 3 3.126z" fill="#2F027A" fill-opacity=".15"/><path d="M1705.52 194.31c-1.57.27-2.85 2.044-2.85 3.963 0 1.918 1.26 3.264 2.85 3.006 1.42-.239 2.6-1.692 2.82-3.378l64.47-10.869 55.48-73.404 35.89-7.806c.05.415.18.816.4 1.176a2.898 2.898 0 001.99 1.382c.41.074.83.06 1.24-.042a5.074 5.074 0 002.64-1.768 5.084 5.084 0 001.05-3c0-2.189-1.66-3.604-3.69-3.145-.94.259-1.78.783-2.42 1.508a5.094 5.094 0 00-1.21 2.58l-36.39 7.945-55.42 73.417-64.04 10.857c-.21-1.611-1.39-2.667-2.81-2.422zm-122.12-55.371c.63-.151 1.12.365 1.18 1.163l52.6-12.731 21.65 21.619v35.558c.69-.032 1.22.597 1.22 1.49.03.437-.09.869-.34 1.23-.25.36-.61.629-1.02.764-.76.139-1.37-.528-1.37-1.484a2.032 2.032 0 011.22-1.944V149.21l-21.47-21.449-52.49 12.687a1.903 1.903 0 01-1.18 1.736c-.63.158-1.2-.44-1.2-1.333-.02-.403.08-.804.29-1.147.22-.343.53-.61.91-.765z" fill="#2F027A" fill-opacity=".15"/></svg>