<svg width="815" height="74" fill="none" xmlns="http://www.w3.org/2000/svg"><path d="M775.796 73.6c-8.198 0-116.896-1.448-122.742-4.346-5.783-2.97-10.231-7.171-13.345-12.604-3.05-5.432-4.575-11.951-4.575-19.557 0-7.678 1.525-14.234 4.575-19.666 3.114-5.433 7.562-9.598 13.345-12.495C658.9 1.962 767.598.477 775.796.477c8.261 0 15.283 1.485 21.066 4.455 5.782 2.897 10.199 7.062 13.249 12.495 3.114 5.433 4.671 11.988 4.671 19.666 0 7.606-1.557 14.125-4.671 19.557-3.05 5.433-7.467 9.634-13.249 12.604-5.783 2.897-12.805 4.346-21.066 4.346zm0-12.495c5.083 0 9.532-.87 13.345-2.607 3.876-1.739 6.894-4.383 9.055-7.932 2.224-3.55 3.336-8.04 3.336-13.473 0-5.433-1.112-9.924-3.336-13.473-2.161-3.55-5.179-6.193-9.055-7.932-3.813-1.81-8.262-2.716-13.345-2.716-5.021 0-111.176.905-115.116 2.716-3.94 1.739-7.022 4.383-9.246 7.932-2.224 3.55-3.337 8.04-3.337 13.473 0 5.433 1.113 9.923 3.337 13.473 2.224 3.55 5.306 6.193 9.246 7.931 3.94 1.739 110.095 2.608 115.116 2.608zM604.354 1.542h14.407v70.09h-14.407V1.542zm-62.022 0v58.065h46.582v12.025h-60.99V1.542h14.408zM469.553 73.04c-9.316 0-17.296-1.444-23.941-4.333-6.572-2.961-11.627-7.15-15.166-12.566-3.467-5.417-5.2-11.917-5.2-19.5 0-7.655 1.733-14.191 5.2-19.608 3.539-5.416 8.594-9.569 15.166-12.458 6.645-2.96 14.625-4.441 23.941-4.441 9.389 0 17.369 1.48 23.941 4.441 6.572 2.89 11.592 7.042 15.058 12.458 3.539 5.417 5.308 11.953 5.308 19.608 0 7.583-1.769 14.083-5.308 19.5-3.466 5.416-8.486 9.605-15.058 12.566-6.572 2.889-14.552 4.333-23.941 4.333zm0-12.458c5.778 0 10.833-.866 15.167-2.6 4.405-1.733 7.835-4.369 10.291-7.908 2.528-3.539 3.792-8.016 3.792-13.433 0-5.416-1.264-9.894-3.792-13.433-2.456-3.539-5.886-6.175-10.291-7.908-4.334-1.805-9.389-2.708-15.167-2.708-5.705 0-10.797.903-15.274 2.708-4.478 1.733-7.981 4.37-10.508 7.908-2.528 3.539-3.792 8.017-3.792 13.433 0 5.417 1.264 9.894 3.792 13.433 2.527 3.539 6.03 6.175 10.508 7.908 4.477 1.734 9.569 2.6 15.274 2.6zm-50.05-59.04v12.025h-53.949v18.85h44.199v11.266h-44.199v27.949h-14.408V1.542h68.357zm-152.711 0h73.881v12.025h-73.881V1.542zm29.791 10.508h14.408v59.582h-14.408V12.05zM183.467 71.632V1.542h47.557c5.416 0 10.111.758 14.083 2.275 4.044 1.444 7.186 3.755 9.425 6.933 2.238 3.106 3.358 7.114 3.358 12.025 0 3.322-.578 6.139-1.733 8.45-1.156 2.31-2.781 4.188-4.875 5.633-2.022 1.444-4.37 2.564-7.042 3.358-2.672.722-5.525 1.192-8.558 1.408l-1.517-.866c5.056.072 9.209.505 12.458 1.3 3.25.722 5.67 2.094 7.259 4.116 1.661 1.95 2.491 4.875 2.491 8.775v16.683h-14.408V55.924c0-2.672-.469-4.73-1.408-6.175-.939-1.517-2.636-2.564-5.092-3.142-2.383-.577-5.849-.866-10.399-.866h-27.191v25.89h-14.408zm14.408-37.158h33.149c4.044 0 7.114-.974 9.208-2.924 2.167-1.95 3.25-4.586 3.25-7.909 0-3.177-1.083-5.597-3.25-7.258-2.094-1.66-5.164-2.491-9.208-2.491h-33.149v20.582zm-72.78 38.566c-9.316 0-17.297-1.444-23.941-4.333-6.572-2.961-11.627-7.15-15.166-12.566-3.467-5.417-5.2-11.917-5.2-19.5 0-7.655 1.733-14.191 5.2-19.608 3.539-5.416 8.594-9.569 15.166-12.458 6.644-2.96 14.625-4.441 23.941-4.441 9.389 0 17.369 1.48 23.941 4.441 6.572 2.89 11.592 7.042 15.058 12.458 3.539 5.417 5.308 11.953 5.308 19.608 0 7.583-1.769 14.083-5.308 19.5-3.466 5.416-8.486 9.605-15.058 12.566-6.572 2.889-14.552 4.333-23.941 4.333zm0-12.458c5.778 0 10.833-.866 15.167-2.6 4.405-1.733 7.835-4.369 10.291-7.908 2.528-3.539 3.792-8.016 3.792-13.433 0-5.416-1.264-9.894-3.792-13.433-2.456-3.539-5.886-6.175-10.291-7.908-4.334-1.805-9.389-2.708-15.167-2.708-5.705 0-10.797.903-15.274 2.708-4.478 1.733-7.981 4.37-10.508 7.908-2.528 3.539-3.792 8.017-3.792 13.433 0 5.417 1.264 9.894 3.792 13.433 2.527 3.539 6.03 6.175 10.508 7.908 4.477 1.734 9.569 2.6 15.274 2.6zm-112.083-11.7V37.4h32.065c3.828 0 6.861-1.01 9.1-3.033 2.239-2.094 3.358-4.983 3.358-8.666 0-3.828-1.119-6.753-3.358-8.775-2.239-2.022-5.272-3.033-9.1-3.033H14.745v57.74H.337V1.542h43.44c3.9 0 7.547.47 10.942 1.408 3.466.94 6.464 2.384 8.991 4.334 2.6 1.95 4.622 4.441 6.067 7.474 1.444 3.034 2.166 6.68 2.166 10.942 0 4.189-.722 7.763-2.166 10.724-1.445 2.962-3.467 5.38-6.067 7.259-2.527 1.805-5.525 3.141-8.991 4.008-3.395.794-7.042 1.191-10.942 1.191H13.012z" fill="#fff"/></svg>