<svg width="62" height="58" fill="none" xmlns="http://www.w3.org/2000/svg"><g filter="url(#filter0_dii_44_835)"><path d="M28.105 35.815l-11.249-3.816-4.782 6.414c-.18.21-.376.307-.668.208l-5.649-1.917c-.34-.115-.372-.343-.224-.619l19.272-24.794c.376-.47.77-.988 1.494-2.805.067-.195.262-.291.408-.242l7.792 2.644c.243.082.324.164.29.424l.48 34.916c.016.276-.1.455-.391.355l-6.33-2.147c-.293-.1-.406-.246-.42-.523l-.023-8.098zm-7.43-9.309l7.694 2.61c.116-3.544.167-10.097.415-13.868l-.049-.017c-1.886 2.999-5.456 7.76-8.06 11.275zm16.89 20.5l7.93-23.374c.082-.244.229-.357.521-.257l5.99 2.032c.292.099.356.23.257.521l-7.93 23.375c-.099.292-.197.421-.587.29l-5.843-1.983c-.341-.116-.438-.312-.339-.604zM49.91 21.818c-2.289-.777-3.238-2.782-2.461-5.07.743-2.192 2.879-3.205 5.07-2.462 2.338.793 3.221 2.83 2.478 5.022-.777 2.289-2.798 3.286-5.087 2.51z" fill="#F19F39"/></g><defs><filter id="filter0_dii_44_835" x=".303" y=".218" width="60.984" height="57.699" filterUnits="userSpaceOnUse" color-interpolation-filters="sRGB"><feFlood flood-opacity="0" result="BackgroundImageFix"/><feColorMatrix in="SourceAlpha" values="0 0 0 0 0 0 0 0 0 0 0 0 0 0 0 0 0 0 127 0" result="hardAlpha"/><feOffset dy="3.01"/><feGaussianBlur stdDeviation="2.508"/><feComposite in2="hardAlpha" operator="out"/><feColorMatrix values="0 0 0 0 0 0 0 0 0 0 0 0 0 0 0 0 0 0 0.48 0"/><feBlend in2="BackgroundImageFix" result="effect1_dropShadow_44_835"/><feBlend in="SourceGraphic" in2="effect1_dropShadow_44_835" result="shape"/><feColorMatrix in="SourceAlpha" values="0 0 0 0 0 0 0 0 0 0 0 0 0 0 0 0 0 0 127 0" result="hardAlpha"/><feOffset dy="-1.003"/><feGaussianBlur stdDeviation="1.003"/><feComposite in2="hardAlpha" operator="arithmetic" k2="-1" k3="1"/><feColorMatrix values="0 0 0 0 0 0 0 0 0 0 0 0 0 0 0 0 0 0 0.35 0"/><feBlend in2="shape" result="effect2_innerShadow_44_835"/><feColorMatrix in="SourceAlpha" values="0 0 0 0 0 0 0 0 0 0 0 0 0 0 0 0 0 0 127 0" result="hardAlpha"/><feOffset dy="1.003"/><feGaussianBlur stdDeviation="1.003"/><feComposite in2="hardAlpha" operator="arithmetic" k2="-1" k3="1"/><feColorMatrix values="0 0 0 0 1 0 0 0 0 1 0 0 0 0 1 0 0 0 0.35 0"/><feBlend in2="effect2_innerShadow_44_835" result="effect3_innerShadow_44_835"/></filter></defs></svg>