<svg width="64" height="59" fill="none" xmlns="http://www.w3.org/2000/svg"><g filter="url(#filter0_dii_44_839)"><path d="M17.895 49.425L5.237 20.134c-.12-.276-.113-.387.117-.486 1.862-.86 5.45-2.52 8.939-4.027 9.273-4.008 14.71-.255 16.872 4.75 3.214 7.437-1.156 13.085-8.226 16.14l-2.617 1.131 3.909 9.045c.099.23.067.407-.209.526l-5.647 2.44c-.23.1-.38.001-.48-.228zm-4.1-26.887l4.087 9.457c.8-.291 1.305-.51 2.59-1.065 3.627-1.567 6.044-3.92 4.417-7.684-1.25-2.892-4.018-3.875-8.012-2.15-1.47.636-2.689 1.217-3.082 1.442zm35.541-6.261c-1.852-.126-4.432.335-6.497 1.228-2.158.933-2.51 2.01-2.172 2.791.337.78 1.192 1.12 4.29.979 6.43-.38 9.106 1.023 10.515 4.283 1.885 4.361-.263 8.722-6.323 11.34-2.8 1.21-5.452 1.757-7.212 1.592-.29-.039-.44-.137-.54-.366l-2.143-4.959c-.119-.275.005-.492.248-.434 2.688.42 5.477-.187 7.543-1.08 2.158-.932 2.864-1.946 2.447-2.91-.377-.872-1.435-1.178-4.58-1.017-6.021.314-8.672-1.156-10.1-4.462-1.548-3.58-.144-8.274 5.916-10.893 2.709-1.17 4.98-1.716 6.365-1.66.335.018.48.228.58.457l1.983 4.591c.12.276.015.539-.32.52z" fill="#57A6F8"/></g><defs><filter id="filter0_dii_44_839" x=".139" y=".237" width="63.347" height="57.821" filterUnits="userSpaceOnUse" color-interpolation-filters="sRGB"><feFlood flood-opacity="0" result="BackgroundImageFix"/><feColorMatrix in="SourceAlpha" values="0 0 0 0 0 0 0 0 0 0 0 0 0 0 0 0 0 0 127 0" result="hardAlpha"/><feOffset dy="2.928"/><feGaussianBlur stdDeviation="2.44"/><feComposite in2="hardAlpha" operator="out"/><feColorMatrix values="0 0 0 0 0 0 0 0 0 0 0 0 0 0 0 0 0 0 0.48 0"/><feBlend in2="BackgroundImageFix" result="effect1_dropShadow_44_839"/><feBlend in="SourceGraphic" in2="effect1_dropShadow_44_839" result="shape"/><feColorMatrix in="SourceAlpha" values="0 0 0 0 0 0 0 0 0 0 0 0 0 0 0 0 0 0 127 0" result="hardAlpha"/><feOffset dy="-.976"/><feGaussianBlur stdDeviation=".976"/><feComposite in2="hardAlpha" operator="arithmetic" k2="-1" k3="1"/><feColorMatrix values="0 0 0 0 0 0 0 0 0 0 0 0 0 0 0 0 0 0 0.35 0"/><feBlend in2="shape" result="effect2_innerShadow_44_839"/><feColorMatrix in="SourceAlpha" values="0 0 0 0 0 0 0 0 0 0 0 0 0 0 0 0 0 0 127 0" result="hardAlpha"/><feOffset dy=".976"/><feGaussianBlur stdDeviation=".976"/><feComposite in2="hardAlpha" operator="arithmetic" k2="-1" k3="1"/><feColorMatrix values="0 0 0 0 1 0 0 0 0 1 0 0 0 0 1 0 0 0 0.35 0"/><feBlend in2="effect2_innerShadow_44_839" result="effect3_innerShadow_44_839"/></filter></defs></svg>