<svg width="152" height="150" fill="none" xmlns="http://www.w3.org/2000/svg"><path d="M66.437 39.503l.84.952.281-1.238L75.8 3.004l8.68 36.042.298 1.238.828-.967 24.227-28.323-9.194 35.973-.318 1.243 1.19-.479 34.653-13.945-24.954 27.667-.863.958 1.283.125 37.14 3.619-35.001 13.032-1.206.449 1.077.704 31.129 20.35-37.042-4.59-1.268-.157.62 1.117 17.99 32.431-30.593-21.169-1.044-.723.024 1.27.718 37.083-17.125-32.9-.587-1.127-.57 1.135-16.722 33.233.265-37.085.01-1.278-1.039.745-30.321 21.765L45.67 97.67l.608-1.134-1.274.183-36.968 5.317 30.874-20.96 1.067-.724-1.217-.427L3.606 67.583l37.099-4.349 1.274-.15-.874-.938-25.296-27.18 34.828 13.266 1.19.453-.33-1.23-9.634-35.799 24.574 27.847z" fill="#FFA100" stroke="#fff" stroke-width="1.3"/></svg>