<svg width="206" height="207" fill="none" xmlns="http://www.w3.org/2000/svg"><g clip-path="url(#clip0_50_986)" fill="#00030C"><path d="M35.503 79.91c-.85 2.474-2.802 3.928-5.067 3.187l.892-2.557a1.711 1.711 0 002.199-1.253c.395-1.126.026-1.991-.825-2.292-2.569-.885-3.141 5.774-7.426 4.222-2.151-.742-2.84-2.924-1.986-5.377.854-2.453 2.66-3.667 4.862-3.077l-.91 2.624a1.65 1.65 0 00-2.012 1.252 1.458 1.458 0 00.82 2.115c2.388.826 3.17-5.725 7.349-4.243 1.884.619 3.047 2.69 2.104 5.398zm-8.106-13.488l1.151-2.249 11.196 5.702-1.151 2.249-11.196-5.702zm10.36-16.408l10.205 7.352-1.47 2.05-10.337-.41 7.018 4.987-1.48 2.046-10.218-7.303 1.468-2.04 10.346.412-7.013-5.047 1.48-2.047zm8.624-9.004a5.94 5.94 0 017.107-.943l-2.148 1.95a3.14 3.14 0 00-3.447.692c-1.626 1.47-1.711 3.682-.002 5.61 1.71 1.928 3.949 2.032 5.577.553a3.16 3.16 0 001.03-3.379l2.145-1.94a5.89 5.89 0 01-1.653 6.98 6.19 6.19 0 01-9.023-.483 6.21 6.21 0 01.414-9.04zm16.846-9.432l-4.074 2.49 1.65 2.69 3.606-2.213 1.028 1.767-3.597 2.142 1.737 2.867 4.061-2.484 1.075 1.748-6.197 3.806-6.568-10.725 6.197-3.806 1.082 1.718zm12.535-5.793l-1.659.591-.748-2.23 4.11-1.393 4.216 12.434-2.46.832-3.459-10.234zm12.181 3.999a1.86 1.86 0 002.295 1.247c1.455-.252 1.9-1.448 1.374-4.353a3.369 3.369 0 01-2.522 1.684 3.88 3.88 0 01-4.76-3.408 4.089 4.089 0 013.624-5.064c3.51-.623 5.017 1.561 5.726 5.675.8 4.356.21 6.941-3.184 7.554a3.92 3.92 0 01-4.855-2.896l2.302-.439zm2.926-5.976a2.11 2.11 0 10-1.608 2.447 1.931 1.931 0 001.608-2.447zm10.557 4.495a1.88 1.88 0 002.037 1.633c1.47 0 2.123-1.087 2.12-4.05a3.378 3.378 0 01-2.778 1.213 3.868 3.868 0 01-4.054-4.192 4.08 4.08 0 014.454-4.335c3.556.021 4.648 2.436 4.619 6.6-.024 4.456-1.023 6.87-4.496 6.85a3.917 3.917 0 01-3.867-2.214 3.921 3.921 0 01-.38-1.523l2.345.018zm3.956-5.338a2.115 2.115 0 00-1.322-1.957 2.11 2.11 0 10-.702 4.065 1.932 1.932 0 002.024-2.108zm8.272-.195c.351-1.853 2.077-3.192 5.012-2.633 2.936.559 4.032 2.457 3.685 4.29a3.14 3.14 0 01-2.293 2.492 3.35 3.35 0 011.469 3.56c-.473 2.462-2.774 3.554-5.424 3.051-2.651-.503-4.366-2.37-3.883-4.83a3.309 3.309 0 012.676-2.76 3.08 3.08 0 01-1.242-3.17zm.961 6.303a2.31 2.31 0 004.503.855 2.012 2.012 0 00-.377-1.63 2.005 2.005 0 00-1.485-.774c-1.262-.235-2.422.23-2.641 1.55zm5.278-4.745a1.997 1.997 0 00-2.988-1.764 2 2 0 00-.888 1.046 1.798 1.798 0 00.328 1.406 1.796 1.796 0 001.259.707 1.824 1.824 0 001.996-.707c.145-.207.244-.441.293-.688zm23.232 12.405c-1.707 3.394-5.149 4.418-8.733 2.609l-3.92-1.983 5.656-11.218 3.93 1.985c3.574 1.806 4.788 5.196 3.067 8.607zm-7.856.69c2.361 1.192 4.374.52 5.549-1.816a3.797 3.797 0 00.42-3.226 3.797 3.797 0 00-2.235-2.364l-1.585-.808-3.747 7.413 1.598.801zm15.247-3.161l2.052 1.46-7.28 10.246-2.061-1.464 7.289-10.242zm12.708 16.014l-2.074-2.036a3.165 3.165 0 00-.979-3.223c-1.647-1.58-3.848-1.518-5.6.27a3.793 3.793 0 00-1.337 2.83 3.78 3.78 0 001.248 2.87 3.41 3.41 0 004.577.42l-3.083-3.02 1.343-1.38 4.912 4.774-1.54 1.575a6.133 6.133 0 01-7.81-.799 6.426 6.426 0 01-1.665-7.083 6.422 6.422 0 018.525-3.563 6.405 6.405 0 012.102 1.463 5.783 5.783 0 011.381 6.902zm6.24 1.983l1.528 2.024-10.084 7.496-1.528-2.024 10.084-7.496zm4.549 6.323l4.495 8.027-1.775.984-1.629-2.921-9.2 5.123-1.231-2.204 9.199-5.123-1.629-2.922 1.77-.964zm-.335 23.888l-1.587-4.743-2.529-.026-.838-2.512 13.38.293.979 2.799-10.5 8.274-.845-2.525 1.94-1.56zm6.109-4.679l-5.563-.062 1.155 3.415 4.408-3.353zm6.084 12.687l-10.438 1.593.623 4.09-1.99.316-1-6.583 12.402-1.854.403 2.438zm-11.775 16.784a1.468 1.468 0 012.574-.826 1.466 1.466 0 01-.361 2.227 1.47 1.47 0 01-.821.204 1.482 1.482 0 01-1.392-1.605zm-2.777 16.659l1.487-5.202 12.083 3.434-1.44 4.987c-.68 2.541-2.432 3.552-4.223 3.01a2.869 2.869 0 01-2.166-2.848 3.061 3.061 0 01-3.591 1.502c-1.932-.518-2.864-2.372-2.15-4.883zm5.338 1.099l.644-2.405-3.265-.875-.657 2.454c-.316 1.178.036 2.028 1.047 2.351 1.011.322 1.895-.352 2.231-1.525zm4.952 1.223l.595-2.221-3.043-.815-.595 2.221c-.308 1.15.006 1.948.989 2.222.982.273 1.753-.245 2.063-1.404l-.009-.003zm-1.541 10.737l-1.122 2.215-6.937-3.515a2.563 2.563 0 00-1.968-.16 2.556 2.556 0 00-1.752 2.267 2.56 2.56 0 00.652 1.864c.227.252.502.456.808.6l6.889 3.502-1.144 2.261-6.92-3.5c-2.954-1.495-3.331-4.34-2.089-6.771 1.242-2.432 3.706-3.749 6.66-2.253l6.923 3.49zm-20.788 10.156c1.59-2.069 3.866-2.836 5.821-1.401l-1.697 2.123a1.752 1.752 0 00-.645-.291 1.73 1.73 0 00-1.847.783 1.63 1.63 0 00-.517 1.229 1.622 1.622 0 00.58 1.2c2.166 1.616 4.81-4.467 8.409-1.67 1.791 1.391 1.758 3.68.173 5.73-1.584 2.049-3.697 2.632-5.546 1.381l1.696-2.196a1.652 1.652 0 001.244.219 1.644 1.644 0 001.035-.726 1.477 1.477 0 00.484-1.166 1.477 1.477 0 00-.599-1.111c-1.982-1.567-4.819 4.423-8.33 1.723-1.568-1.218-2.006-3.561-.261-5.827zm3.386 15.381l-1.798 1.764-8.781-8.958 1.788-1.767 8.791 8.961zm-15.004 12.254l-7.347-10.251 2.05-1.469 9.68 3.629-5.039-7.003 2.054-1.52 7.347 10.251-2.063 1.517-9.69-3.631 5.058 7.008-2.05 1.469zm-13.086 4.403l4.309-2.055-1.311-2.835-3.819 1.813-.862-1.805 3.829-1.81-1.429-3.013-4.306 2.045-.881-1.851 6.551-3.121 5.393 11.363-6.586 3.133-.888-1.864zm-12.461-7.004c2.508-.705 4.829.062 5.504 2.334l-2.608.73a1.73 1.73 0 00-.904-1.046 1.722 1.722 0 00-1.382-.043c-1.124.331-1.647 1.122-1.402 1.985.737 2.62 6.53-.724 7.747 3.66.616 2.184-.773 4.006-3.269 4.704-2.496.698-4.535-.076-5.306-2.219l2.666-.756a1.643 1.643 0 00.873.917 1.643 1.643 0 001.265.029 1.456 1.456 0 001.087-.639 1.45 1.45 0 00.175-1.249c-.687-2.42-6.498.682-7.707-3.576-.526-1.901.561-4.064 3.261-4.831zm-12.342 2.325c2.595-.257 4.736.907 5.005 3.267l-2.703.311a1.735 1.735 0 00-.709-1.185 1.722 1.722 0 00-1.35-.288c-1.181.118-1.823.816-1.731 1.71.308 2.712 6.549.44 6.95 4.968.222 2.265-1.45 3.753-4.056 4.089-2.606.337-4.444-.88-4.826-3.125l2.761-.296a1.658 1.658 0 001.982 1.256 1.454 1.454 0 001.187-.443 1.462 1.462 0 00.394-1.204c-.249-2.51-6.53-.476-6.972-4.891-.19-1.956 1.22-3.897 4.068-4.169zm-15.711-.213a1.471 1.471 0 011.017.545 1.475 1.475 0 01.13 1.668 1.47 1.47 0 01-.92.696 1.495 1.495 0 01-.59.027 1.473 1.473 0 01-1.016-.545 1.492 1.492 0 01-.317-1.11 1.485 1.485 0 01.577-1 1.482 1.482 0 011.12-.281zm-19.41-2.478l4.708 1.748 1.564-1.973 2.485.925-8.589 10.225-2.748-1.026.143-13.358 2.512.901-.075 2.558zm-.195 7.722l3.531-4.292-3.36-1.294-.171 5.586zM54.73 168.029l2.437 1.532a3.15 3.15 0 001.622 2.951c1.903 1.203 4.08.689 5.42-1.415 1.341-2.105.887-4.349-1.096-5.605a3.398 3.398 0 00-4.555.539l3.646 2.313-1.008 1.635-5.75-3.612 1.178-1.848a6.137 6.137 0 017.803-.839 6.213 6.213 0 012.946 6.491 6.22 6.22 0 01-.95 2.326 6.228 6.228 0 01-8.817 1.996 5.78 5.78 0 01-2.875-6.464zm-10.732-7.276l3.514 3.271 2.158-2.3-3.085-2.897 1.364-1.457 3.085 2.897 2.277-2.433-3.513-3.271 1.434-1.489 5.32 4.987-8.61 9.184-5.308-4.994 1.364-1.498zm-11.985-11.721l10.127-7.464 1.523 2.044-3.561 9.699 6.938-5.108 1.526 2.034-10.125 7.453-1.525-2.034 3.576-9.715-6.982 5.117-1.497-2.026zm-5.933-10.97a5.918 5.918 0 011.269-7.052l1.197 2.64a3.16 3.16 0 00-.388 3.499c.902 2.002 3.007 2.762 5.339 1.71 2.332-1.052 3.14-3.144 2.228-5.149a3.15 3.15 0 00-2.901-1.999l-1.198-2.64a5.917 5.917 0 016.138 3.715 6.196 6.196 0 01.232 4.926 6.183 6.183 0 01-3.44 3.532 6.196 6.196 0 01-8.476-3.182zm-3.913-10.428l-.645-2.771 4.992-3.912-6.197-1.329-.633-2.737 8.939 2.302 4.246-.933.572 2.462-4.269.979-7.005 5.939zm9.317-24.151a1.48 1.48 0 11-1.476-1.524 1.455 1.455 0 011.383.942c.07.185.102.383.093.582z"/></g><defs><clipPath id="clip0_50_986"><path fill="#fff" transform="rotate(-75 106.005 81.34)" d="M0 0h168.42v168.1H0z"/></clipPath></defs></svg>