<svg width="81" height="84" viewBox="0 0 81 84" fill="none" xmlns="http://www.w3.org/2000/svg">
<path d="M63.0733 10.4077L63.0733 0C56.2045 0 49.9335 3.92638 45.145 10.4077L45.145 0C38.2812 0 32.0051 3.92638 27.2166 10.4077L27.2166 0C12.1845 0 -8.21816e-07 18.801 -1.83588e-06 42C-2.84994e-06 65.199 12.1845 84 27.2166 84L27.2166 73.5923C32.0051 80.0686 38.2762 84 45.145 84L45.145 73.5923C49.9335 80.0686 56.2045 84 63.0733 84L63.0733 73.5923C67.8618 80.0686 74.1329 84 81 84L81 0C74.1329 0 67.8618 3.92638 63.0733 10.4077Z" fill="#FF227F"/>
</svg>
