<svg width="20" height="11" viewBox="0 0 20 11" fill="none" xmlns="http://www.w3.org/2000/svg">
<path d="M14.4272 10.6312L19.5424 6.26834C19.708 6.12944 19.7999 5.92108 19.7999 5.7001C19.7999 5.47911 19.708 5.27076 19.5424 5.13185L14.4272 0.76901C14.1205 0.510144 13.6728 0.55434 13.4213 0.863717C13.1698 1.17941 13.2128 1.64032 13.5133 1.89918L17.1013 4.96138L0.917552 4.96138C0.525019 4.96138 0.199951 5.2897 0.199951 5.7001C0.199951 6.10418 0.518885 6.43881 0.917552 6.43881L17.1013 6.43881L13.5133 9.50101C13.3416 9.64623 13.2557 9.85459 13.2557 10.0693C13.2557 10.2334 13.3109 10.4039 13.4213 10.5365C13.6728 10.8459 14.1266 10.8901 14.4272 10.6312Z" fill="white"/>
</svg>
