<svg width="20" height="20" viewBox="0 0 20 20" fill="none" xmlns="http://www.w3.org/2000/svg">
<path d="M19.9444 7.18002C19.8815 6.99491 19.7659 6.83225 19.6116 6.71214C19.4574 6.59202 19.2714 6.5197 19.0765 6.50411L13.3763 6.05117L10.9096 0.590889C10.831 0.415025 10.7032 0.265654 10.5417 0.160804C10.3801 0.0559538 10.1916 0.000105865 9.99903 1.50359e-07C9.80641 -0.000105564 9.61789 0.0555355 9.4562 0.160208C9.29451 0.264881 9.16657 0.414111 9.08782 0.589889L6.62115 6.05117L0.920904 6.50411C0.729385 6.51928 0.546292 6.5893 0.393529 6.70581C0.240766 6.82231 0.124803 6.98036 0.0595115 7.16105C-0.00577962 7.34173 -0.0176336 7.5374 0.0253678 7.72465C0.0683693 7.91189 0.164405 8.08278 0.301986 8.21688L4.51443 12.3233L3.02463 18.7745C2.97939 18.9698 2.99389 19.1741 3.06624 19.361C3.13859 19.548 3.26546 19.7088 3.43037 19.8228C3.59529 19.9367 3.79064 19.9984 3.99108 20C4.19152 20.0015 4.38779 19.9427 4.55442 19.8313L9.9987 16.2018L15.443 19.8313C15.6133 19.9444 15.8142 20.0026 16.0185 19.9981C16.2229 19.9937 16.421 19.9267 16.5862 19.8063C16.7514 19.6858 16.8758 19.5177 16.9426 19.3245C17.0093 19.1313 17.0153 18.9222 16.9598 18.7255L15.131 12.3263L19.6664 8.24487C19.9634 7.97691 20.0724 7.55897 19.9444 7.18002Z" fill="#FCB428"/>
</svg>
