<svg width="565" height="444" viewBox="0 0 565 444" fill="none" xmlns="http://www.w3.org/2000/svg">
<path d="M47.9333 63.603C87.5556 21.3952 147.512 0 226.107 0L254.348 0V78.2272L231.642 82.695C192.951 90.2985 166.038 105.256 151.635 127.206C144.12 139.031 139.857 152.571 139.265 166.5H226.107C233.597 166.5 240.78 169.424 246.076 174.628C251.372 179.832 254.348 186.89 254.348 194.25L254.348 388.5C254.348 419.108 229.015 444 197.865 444H28.4187C20.9287 444 13.7454 441.076 8.44921 435.872C3.15297 430.668 0.177575 423.61 0.177575 416.25L0.177575 277.5L0.262299 196.498C0.00812932 193.417 -5.35768 120.435 47.9333 63.603ZM508.518 444H339.071C331.581 444 324.398 441.076 319.102 435.872C313.805 430.668 310.83 423.61 310.83 416.25V277.5L310.915 196.498C310.66 193.417 305.295 120.435 358.586 63.603C398.208 21.3952 458.164 0 536.759 0L565 0V78.2272L542.294 82.695C503.604 90.2985 476.69 105.256 462.287 127.206C454.772 139.031 450.51 152.571 449.917 166.5H536.759C544.249 166.5 551.432 169.424 556.728 174.628C562.025 179.832 565 186.89 565 194.25V388.5C565 419.108 539.668 444 508.518 444Z" fill="#FAFAFA"/>
</svg>
