<svg width="60" height="48" viewBox="0 0 60 48" fill="none" xmlns="http://www.w3.org/2000/svg">
<path d="M5.09032 6.876C9.298 2.313 15.665 0 24.0114 0H27.0104V8.457L24.5992 8.94C20.4905 9.762 17.6324 11.379 16.1029 13.752C15.3048 15.0304 14.8522 16.4941 14.7893 18H24.0114C24.8068 18 25.5696 18.3161 26.132 18.8787C26.6945 19.4413 27.0104 20.2044 27.0104 21V42C27.0104 45.309 24.3203 48 21.0123 48H3.01798C2.22258 48 1.45975 47.6839 0.897322 47.1213C0.33489 46.5587 0.0189186 45.7957 0.0189186 45V30L0.0279158 21.243C0.000924326 20.91 -0.568897 13.02 5.09032 6.876ZM54.0019 48H36.0076C35.2122 48 34.4494 47.6839 33.8869 47.1213C33.3245 46.5587 33.0085 45.7957 33.0085 45V30L33.0175 21.243C32.9906 20.91 32.4207 13.02 38.08 6.876C42.2876 2.313 48.6546 0 57.001 0H60.0001V8.457L57.5888 8.94C53.4801 9.762 50.622 11.379 49.0925 13.752C48.2944 15.0304 47.8418 16.4941 47.7789 18H57.001C57.7964 18 58.5592 18.3161 59.1217 18.8787C59.6841 19.4413 60.0001 20.2044 60.0001 21V42C60.0001 45.309 57.3099 48 54.0019 48Z" fill="#95A600"/>
</svg>
