<svg width="251" height="247" viewBox="0 0 251 247" fill="none" xmlns="http://www.w3.org/2000/svg">
<path d="M232.03 192.328C234.878 192.941 236.84 189.544 234.886 187.383L193.809 141.962C192.496 140.511 192.902 138.212 194.632 137.298L248.775 108.677C251.351 107.316 250.67 103.453 247.785 103.053L187.125 94.652C185.187 94.3836 184.02 92.3622 184.757 90.55L207.818 33.8582C208.915 31.1599 205.911 28.6382 203.444 30.1871L151.604 62.7345C149.947 63.7744 147.755 62.9768 147.154 61.1156L128.338 2.84823C127.443 0.0766864 123.521 0.0776486 122.628 2.84963L103.845 61.1131C103.245 62.9752 101.052 63.7737 99.3947 62.7334L47.5499 30.183C45.0835 28.6345 42.0793 31.1546 43.1753 33.8528L66.2063 90.5513C66.9423 92.3632 65.7758 94.3835 63.8386 94.652L3.2101 103.053C0.325204 103.453 -0.355301 107.315 2.21922 108.676L56.3321 137.298C58.061 138.212 58.4666 140.51 57.1553 141.961L16.1083 187.384C14.1554 189.545 16.1176 192.941 18.9651 192.328L78.7874 179.457C80.7003 179.045 82.4888 180.545 82.4164 182.501L80.1483 243.707C80.0404 246.617 83.7257 247.959 85.5141 245.66L123.113 197.328C124.314 195.784 126.647 195.784 127.848 197.328L165.447 245.66C167.235 247.959 170.921 246.617 170.813 243.707L168.545 182.5C168.472 180.545 170.261 179.045 172.173 179.456L232.03 192.328Z" fill="#3CC13B"/>
</svg>
