<svg width="359" height="320" viewBox="0 0 359 320" fill="none" xmlns="http://www.w3.org/2000/svg">
<path d="M306.486 0H52.5144C23.5115 0 0 25.0976 0 56.0571C0 87.0167 23.5115 112.114 52.5144 112.114H306.486C335.489 112.114 359 87.0167 359 56.0571C359 25.0976 335.489 0 306.486 0Z" fill="#D8F1E5"/>
<path d="M306.486 103.943H52.5144C23.5115 103.943 0 129.04 0 160C0 190.96 23.5115 216.057 52.5144 216.057H306.486C335.489 216.057 359 190.96 359 160C359 129.04 335.489 103.943 306.486 103.943Z" fill="#D8F1E5"/>
<path d="M306.486 207.886H52.5144C23.5115 207.886 0 232.983 0 263.943C0 294.902 23.5115 320 52.5144 320H306.486C335.489 320 359 294.902 359 263.943C359 232.983 335.489 207.886 306.486 207.886Z" fill="#D8F1E5"/>
</svg>
