<svg width="489" height="304" viewBox="0 0 489 304" fill="none" xmlns="http://www.w3.org/2000/svg">
<g opacity="0.3" clip-path="url(#clip0_22_1151)">
<path d="M-2.49987 -1L-2.49991 957M28.5002 -1L28.5001 957M59.5002 -1L59.5002 957M90.5002 -1L90.5002 957M121.5 -1L121.5 957M152.5 -1L152.5 957M183.5 -1L183.5 957M214.5 -1L214.5 957M245.5 -1L245.5 957M276.5 -1L276.5 957M307.5 -1L307.5 957M338.5 -1L338.5 957M369.5 -1L369.5 957M400.5 -1L400.5 957M431.5 -1L431.5 957M462.5 -1L462.5 957M493.5 -1L493.5 957M524.5 -1L524.5 957M555.5 -1L555.5 957M586.5 -1L586.5 957M617.5 -1L617.5 957M648.5 -1L648.5 957M679.5 -1L679.5 957M710.5 -1L710.5 957M741.5 -1L741.5 957M772.5 -1L772.5 957M803.5 -1L803.5 957M834.5 -1L834.5 957M865.5 -1L865.5 957M896.5 -1L896.5 957M927.5 -1L927.5 957M958.5 -1L958.5 957M989.5 -1L989.5 957M1020.5 -1V957M1051.5 -1L1051.5 957M1082.5 -1L1082.5 957M1113.5 -1L1113.5 957M1144.5 -1L1144.5 957M1175.5 -1L1175.5 957M1206.5 -1L1206.5 957M1237.5 -1L1237.5 957M1268.5 -1L1268.5 957M1298 28.5L-22.0004 28.4999M1298 -0.499946L-22.0004 -0.500061M1298 59.5L-22.0005 59.4999M1298 90.5001L-22.0005 90.5M1298 121.5L-22.0005 121.5M1298 152.5L-22.0005 152.5M1298 183.5L-22.0005 183.5M1298 214.5L-22.0005 214.5M1298 245.5L-22.0005 245.5M1298 276.5L-22.0005 276.5M1298 307.5L-22.0005 307.5M1298 338.5L-22.0005 338.5M1298 369.5L-22.0005 369.5M1298 400.5L-22.0005 400.5M1298 431.5L-22.0005 431.5M1298 462.5L-22.0005 462.5M1298 493.5L-22.0005 493.5M1298 524.5L-22.0005 524.5M1298 555.5L-22.0005 555.5M1298 586.5L-22.0005 586.5M1298 617.5L-22.0005 617.5M1298 648.5L-22.0005 648.5M1298 679.5L-22.0005 679.5M1298 710.5L-22.0005 710.5M1298 741.5L-22.0005 741.5M1298 772.5L-22.0005 772.5M1298 803.5L-22.0005 803.5M1298 834.5L-22.0005 834.5M1298 865.5L-22.0005 865.5M1298 896.5L-22.0005 896.5M1298 927.5L-22.0005 927.5" stroke="url(#paint0_linear_22_1151)"/>
</g>
<defs>
<linearGradient id="paint0_linear_22_1151" x1="254" y1="162" x2="637.999" y2="957" gradientUnits="userSpaceOnUse">
<stop stop-color="#383838"/>
<stop offset="1"/>
</linearGradient>
<clipPath id="clip0_22_1151">
<rect width="489" height="304" fill="white"/>
</clipPath>
</defs>
</svg>
