<svg width="236" height="148" viewBox="0 0 236 148" fill="none" xmlns="http://www.w3.org/2000/svg">
<path d="M89.5097 147.033C89.5097 145.619 89.5097 144.273 89.5097 142.825C89.5097 120.518 92.3592 104.019 98.0583 93.3254C103.757 82.6322 110.456 77.2971 118.154 77.3201C126.565 77.3201 133.493 82.8047 139.043 93.8083C144.593 104.812 147.35 120.99 147.35 142.307C147.35 143.928 147.35 145.446 147.35 146.998H235.593C235.593 145.274 235.593 143.549 235.593 141.824C235.593 95.832 224.608 60.8203 202.64 36.7894C180.671 12.7584 152.67 0.788912 118.637 0.880897C104.349 0.808615 90.1682 3.34522 76.7904 8.36614C62.9352 13.7582 50.24 21.7554 39.3906 31.9257C27.7168 42.4119 18.3525 57.187 11.2977 76.2508C3.98998 97.6669 0.490039 120.199 0.956743 142.825C0.956743 144.239 0.956743 145.619 0.956743 147.033H89.5097Z" fill="#FED000"/>
</svg>
