<svg width="93" height="73" viewBox="0 0 93 73" fill="none" xmlns="http://www.w3.org/2000/svg">
<path d="M54.5169 1.27372C54.518 1.52683 54.4451 1.77458 54.3074 1.98556C54.1698 2.19655 53.9737 2.36129 53.7438 2.45892C53.514 2.55654 53.2608 2.58265 53.0163 2.53394C52.7718 2.48523 52.5471 2.3639 52.3705 2.18531C52.194 2.00672 52.0736 1.77891 52.0246 1.53074C51.9756 1.28257 52.0002 1.0252 52.0953 0.791252C52.1904 0.557299 52.3517 0.357284 52.5587 0.216546C52.7658 0.075807 53.0093 0.000677775 53.2584 0.000675403C53.4234 -5.34909e-05 53.587 0.0323369 53.7396 0.095987C53.8923 0.159637 54.031 0.253294 54.148 0.371579C54.2649 0.489865 54.3577 0.630451 54.421 0.785266C54.4843 0.940081 54.5169 1.10608 54.5169 1.27372Z" fill="#949494"/>
<path d="M67.3464 1.27372C67.3475 1.52683 67.2746 1.77458 67.1369 1.98556C66.9993 2.19655 66.8032 2.36129 66.5733 2.45892C66.3435 2.55654 66.0903 2.58265 65.8458 2.53394C65.6013 2.48523 65.3766 2.3639 65.2 2.18531C65.0235 2.00672 64.9031 1.77891 64.8541 1.53074C64.8051 1.28257 64.8297 1.0252 64.9248 0.791252C65.0199 0.557299 65.1812 0.357284 65.3882 0.216546C65.5953 0.075807 65.8388 0.000677775 66.0879 0.000675403C66.4208 0.000672234 66.74 0.134619 66.9759 0.373204C67.2117 0.611789 67.3449 0.935581 67.3464 1.27372Z" fill="#949494"/>
<path d="M80.1704 1.27372C80.1704 1.52551 80.097 1.77164 79.9593 1.98099C79.8216 2.19034 79.6259 2.35351 79.3969 2.44986C79.168 2.54622 78.9161 2.57143 78.673 2.52231C78.43 2.47319 78.2067 2.35194 78.0315 2.1739C77.8562 1.99586 77.7369 1.76903 77.6885 1.52208C77.6402 1.27513 77.665 1.01917 77.7598 0.786548C77.8547 0.553929 78.0153 0.355106 78.2213 0.215222C78.4274 0.0753383 78.6696 0.000675403 78.9175 0.000675403C79.2498 0.000675403 79.5685 0.1348 79.8035 0.373542C80.0384 0.612284 80.1704 0.936089 80.1704 1.27372Z" fill="#949494"/>
<path d="M93 1.27372C93.001 1.52823 92.9272 1.77725 92.788 1.9889C92.6489 2.20056 92.4508 2.36521 92.219 2.46178C91.9873 2.55836 91.7324 2.58246 91.4871 2.531C91.2418 2.47954 91.0171 2.35486 90.8419 2.17293C90.6668 1.991 90.549 1.76009 90.5038 1.50976C90.4585 1.25944 90.4879 1.00109 90.588 0.76779C90.6881 0.534493 90.8545 0.336863 91.0658 0.200201C91.2771 0.0635401 91.5238 -0.00593324 91.7742 0.000675403C92.1018 0.00791218 92.4135 0.145224 92.6426 0.383187C92.8718 0.62115 93 0.940829 93 1.27372Z" fill="#949494"/>
<path d="M54.5169 11.4249C54.518 11.678 54.4451 11.9257 54.3074 12.1367C54.1698 12.3477 53.9737 12.5125 53.7438 12.6101C53.514 12.7077 53.2608 12.7338 53.0163 12.6851C52.7718 12.6364 52.5471 12.5151 52.3705 12.3365C52.194 12.1579 52.0736 11.9301 52.0246 11.6819C51.9756 11.4337 52.0002 11.1764 52.0953 10.9424C52.1904 10.7085 52.3517 10.5084 52.5587 10.3677C52.7658 10.227 53.0093 10.1518 53.2584 10.1518C53.4234 10.1511 53.587 10.1835 53.7396 10.2471C53.8923 10.3108 54.031 10.4045 54.148 10.5227C54.2649 10.641 54.3577 10.7816 54.421 10.9364C54.4843 11.0912 54.5169 11.2572 54.5169 11.4249Z" fill="#949494"/>
<path d="M67.3464 11.4249C67.3475 11.678 67.2746 11.9257 67.1369 12.1367C66.9993 12.3477 66.8032 12.5125 66.5733 12.6101C66.3435 12.7077 66.0903 12.7338 65.8458 12.6851C65.6013 12.6364 65.3766 12.5151 65.2 12.3365C65.0235 12.1579 64.9031 11.9301 64.8541 11.6819C64.8051 11.4337 64.8297 11.1764 64.9248 10.9424C65.0199 10.7085 65.1812 10.5084 65.3882 10.3677C65.5953 10.227 65.8388 10.1518 66.0879 10.1518C66.4208 10.1518 66.74 10.2858 66.9759 10.5244C67.2117 10.7629 67.3449 11.0867 67.3464 11.4249Z" fill="#949494"/>
<path d="M80.1704 11.4249C80.1704 11.6767 80.097 11.9228 79.9593 12.1321C79.8216 12.3415 79.6259 12.5047 79.3969 12.601C79.168 12.6974 78.9161 12.7226 78.673 12.6735C78.43 12.6243 78.2067 12.5031 78.0315 12.3251C77.8562 12.147 77.7369 11.9202 77.6885 11.6732C77.6402 11.4263 77.665 11.1703 77.7598 10.9377C77.8547 10.7051 78.0153 10.5063 78.2213 10.3664C78.4274 10.2265 78.6696 10.1518 78.9175 10.1518C79.2498 10.1518 79.5685 10.286 79.8035 10.5247C80.0384 10.7634 80.1704 11.0872 80.1704 11.4249Z" fill="#949494"/>
<path d="M93 11.4249C93.001 11.6782 92.928 11.9262 92.7901 12.1373C92.6523 12.3484 92.4558 12.5131 92.2256 12.6106C91.9955 12.7081 91.742 12.7338 91.4974 12.6847C91.2527 12.6355 91.028 12.5136 90.8517 12.3345C90.6754 12.1554 90.5554 11.927 90.507 11.6785C90.4586 11.43 90.484 11.1724 90.5799 10.9386C90.6759 10.7047 90.838 10.5051 91.0458 10.365C91.2535 10.2249 91.4976 10.1507 91.747 10.1518C92.0793 10.1518 92.398 10.286 92.633 10.5247C92.8679 10.7634 93 11.0872 93 11.4249Z" fill="#949494"/>
<path d="M54.5169 21.5871C54.5169 21.84 54.4431 22.0872 54.3048 22.2975C54.1665 22.5077 53.97 22.6716 53.74 22.7684C53.5101 22.8651 53.257 22.8905 53.0129 22.8411C52.7688 22.7918 52.5446 22.67 52.3686 22.4912C52.1926 22.3124 52.0727 22.0846 52.0242 21.8365C51.9756 21.5885 52.0005 21.3314 52.0958 21.0978C52.191 20.8642 52.3523 20.6645 52.5593 20.524C52.7662 20.3835 53.0095 20.3085 53.2584 20.3085C53.4239 20.3078 53.5879 20.3404 53.7409 20.4044C53.8939 20.4684 54.0329 20.5625 54.1499 20.6814C54.2669 20.8003 54.3596 20.9415 54.4225 21.097C54.4855 21.2524 54.5176 21.419 54.5169 21.5871Z" fill="#949494"/>
<path d="M67.3464 21.5871C67.3464 21.84 67.2726 22.0872 67.1343 22.2975C66.996 22.5077 66.7995 22.6716 66.5695 22.7684C66.3396 22.8651 66.0865 22.8905 65.8424 22.8411C65.5983 22.7918 65.3741 22.67 65.1981 22.4912C65.0221 22.3124 64.9022 22.0846 64.8537 21.8365C64.8051 21.5885 64.8301 21.3314 64.9253 21.0978C65.0205 20.8642 65.1818 20.6645 65.3888 20.524C65.5957 20.3835 65.8391 20.3085 66.0879 20.3085C66.4217 20.3085 66.7418 20.4432 66.9778 20.683C67.2138 20.9228 67.3464 21.248 67.3464 21.5871Z" fill="#949494"/>
<path d="M80.1704 21.5871C80.1694 21.8387 80.095 22.0842 79.9566 22.2929C79.8183 22.5015 79.6222 22.6638 79.3932 22.7593C79.1641 22.8548 78.9124 22.8792 78.6697 22.8295C78.427 22.7797 78.2042 22.6581 78.0295 22.4798C77.8549 22.3015 77.7361 22.0747 77.6882 21.8279C77.6403 21.5811 77.6654 21.3254 77.7604 21.0931C77.8554 20.8608 78.016 20.6623 78.2219 20.5227C78.4278 20.3831 78.6699 20.3085 78.9175 20.3085C79.0825 20.3085 79.2458 20.3416 79.3982 20.406C79.5506 20.4703 79.689 20.5646 79.8054 20.6834C79.9218 20.8022 80.014 20.9431 80.0766 21.0982C80.1393 21.2533 80.1712 21.4195 80.1704 21.5871Z" fill="#949494"/>
<path d="M93 21.5871C92.9999 21.8414 92.9252 22.0899 92.7854 22.3008C92.6456 22.5117 92.4471 22.6755 92.2152 22.7712C91.9834 22.8669 91.7287 22.8902 91.4837 22.8382C91.2388 22.7861 91.0147 22.6609 90.84 22.4788C90.6654 22.2966 90.5482 22.0657 90.5034 21.8156C90.4586 21.5654 90.4882 21.3073 90.5885 21.0744C90.6888 20.8414 90.8552 20.6441 91.0664 20.5077C91.2776 20.3713 91.524 20.3019 91.7742 20.3085C92.1027 20.3158 92.4153 20.4539 92.6446 20.693C92.8738 20.9322 93.0015 21.2533 93 21.5871Z" fill="#949494"/>
<path d="M54.5169 31.7327C54.5147 31.9851 54.4391 32.2312 54.2995 32.44C54.1599 32.6488 53.9626 32.811 53.7325 32.9061C53.5024 33.0011 53.2497 33.0249 53.0063 32.9743C52.7629 32.9237 52.5397 32.8011 52.3648 32.6219C52.1899 32.4426 52.0711 32.2148 52.0234 31.9671C51.9758 31.7193 52.0013 31.4628 52.0969 31.2298C52.1924 30.9969 52.3537 30.7978 52.5604 30.6578C52.7671 30.5178 53.01 30.4431 53.2584 30.4431C53.4246 30.4431 53.5892 30.4765 53.7425 30.5415C53.8959 30.6064 54.0352 30.7016 54.1522 30.8215C54.2692 30.9414 54.3616 31.0836 54.4242 31.24C54.4868 31.3964 54.5183 31.5639 54.5169 31.7327Z" fill="#949494"/>
<path d="M67.3464 31.7327C67.3442 31.9851 67.2686 32.2312 67.129 32.44C66.9894 32.6488 66.7922 32.811 66.562 32.9061C66.3319 33.0011 66.0792 33.0249 65.8358 32.9743C65.5924 32.9237 65.3692 32.8011 65.1943 32.6219C65.0194 32.4426 64.9006 32.2148 64.853 31.9671C64.8053 31.7193 64.8308 31.4628 64.9264 31.2298C65.0219 30.9969 65.1832 30.7978 65.3899 30.6578C65.5966 30.5178 65.8395 30.4431 66.0879 30.4431C66.2539 30.4438 66.4181 30.4777 66.5712 30.5429C66.7243 30.6082 66.8632 30.7033 66.9801 30.8231C67.0969 30.9429 67.1894 31.0848 67.2523 31.2409C67.3151 31.397 67.3471 31.5641 67.3464 31.7327Z" fill="#949494"/>
<path d="M80.1704 31.7327C80.1672 31.9838 80.091 32.2283 79.9514 32.4354C79.8118 32.6426 79.615 32.8032 79.3857 32.897C79.1565 32.9908 78.9051 33.0136 78.6631 32.9627C78.4212 32.9117 78.1994 32.7891 78.0258 32.6105C77.8522 32.4318 77.7345 32.2049 77.6875 31.9584C77.6404 31.712 77.6662 31.4569 77.7615 31.2252C77.8568 30.9935 78.0174 30.7957 78.2231 30.6565C78.4287 30.5174 78.6703 30.4431 78.9175 30.4431C79.0832 30.4438 79.2471 30.4778 79.3999 30.543C79.5527 30.6083 79.6912 30.7036 79.8076 30.8234C79.9241 30.9433 80.0161 31.0853 80.0783 31.2413C80.1406 31.3974 80.1719 31.5644 80.1704 31.7327Z" fill="#949494"/>
<path d="M93 31.7327C92.9977 31.9865 92.9212 32.2339 92.7801 32.4433C92.639 32.6528 92.4398 32.8148 92.2077 32.9089C91.9757 33.0029 91.7214 33.0246 91.4771 32.9713C91.2329 32.9179 91.0098 32.792 90.8363 32.6094C90.6628 32.4268 90.5467 32.1959 90.5027 31.9461C90.4588 31.6962 90.4891 31.4387 90.5896 31.2064C90.6902 30.9741 90.8566 30.7775 91.0675 30.6415C91.2785 30.5056 91.5245 30.4365 91.7742 30.4431C92.1042 30.4518 92.4175 30.5918 92.6468 30.8331C92.8761 31.0743 93.0029 31.3974 93 31.7327Z" fill="#949494"/>
<path d="M2.51687 41.2737C2.51795 41.5268 2.44506 41.7746 2.30744 41.9856C2.16982 42.1966 1.97366 42.3613 1.74381 42.4589C1.51395 42.5565 1.26075 42.5826 1.01628 42.5339C0.771814 42.4852 0.547073 42.3639 0.370532 42.1853C0.193991 42.0067 0.0735947 41.7789 0.0245945 41.5307C-0.0244057 41.2826 0.000195347 41.0252 0.0952812 40.7913C0.190367 40.5573 0.351659 40.3573 0.558724 40.2165C0.765789 40.0758 1.00931 40.0007 1.25844 40.0007C1.42344 39.9999 1.58696 40.0323 1.73961 40.096C1.89226 40.1596 2.03103 40.2533 2.14796 40.3716C2.26489 40.4899 2.35767 40.6305 2.42098 40.7853C2.48428 40.9401 2.51687 41.1061 2.51687 41.2737Z" fill="#949494"/>
<path d="M15.3464 41.2737C15.3475 41.5268 15.2746 41.7746 15.137 41.9856C14.9993 42.1966 14.8032 42.3613 14.5733 42.4589C14.3435 42.5565 14.0903 42.5826 13.8458 42.5339C13.6013 42.4852 13.3766 42.3639 13.2 42.1853C13.0235 42.0067 12.9031 41.7789 12.8541 41.5307C12.8051 41.2826 12.8297 41.0252 12.9248 40.7913C13.0199 40.5573 13.1812 40.3573 13.3882 40.2165C13.5953 40.0758 13.8388 40.0007 14.0879 40.0007C14.4208 40.0007 14.74 40.1346 14.9759 40.3732C15.2117 40.6118 15.3449 40.9356 15.3464 41.2737Z" fill="#949494"/>
<path d="M28.1704 41.2737C28.1704 41.5255 28.097 41.7716 27.9593 41.981C27.8216 42.1903 27.6259 42.3535 27.397 42.4499C27.168 42.5462 26.9161 42.5714 26.673 42.5223C26.43 42.4732 26.2067 42.3519 26.0315 42.1739C25.8562 41.9959 25.7369 41.769 25.6885 41.5221C25.6402 41.2751 25.665 41.0192 25.7598 40.7865C25.8547 40.5539 26.0153 40.3551 26.2213 40.2152C26.4274 40.0753 26.6696 40.0007 26.9175 40.0007C27.2498 40.0007 27.5685 40.1348 27.8035 40.3735C28.0384 40.6123 28.1704 40.9361 28.1704 41.2737Z" fill="#949494"/>
<path d="M41 41.2737C41.0009 41.5282 40.9272 41.7772 40.7881 41.9889C40.6489 42.2006 40.4508 42.3652 40.219 42.4618C39.9873 42.5584 39.7324 42.5825 39.4871 42.531C39.2418 42.4795 39.0171 42.3549 38.842 42.1729C38.6668 41.991 38.549 41.7601 38.5038 41.5098C38.4585 41.2594 38.4879 41.0011 38.588 40.7678C38.6881 40.5345 38.8545 40.3369 39.0658 40.2002C39.2771 40.0635 39.5238 39.9941 39.7742 40.0007C40.1018 40.0079 40.4135 40.1452 40.6426 40.3832C40.8718 40.6211 41 40.9408 41 41.2737Z" fill="#949494"/>
<path d="M2.51687 51.4249C2.51795 51.678 2.44506 51.9257 2.30744 52.1367C2.16982 52.3477 1.97366 52.5125 1.74381 52.6101C1.51395 52.7077 1.26075 52.7338 1.01628 52.6851C0.771814 52.6364 0.547073 52.5151 0.370532 52.3365C0.193991 52.1579 0.0735947 51.9301 0.0245945 51.6819C-0.0244057 51.4337 0.000195347 51.1764 0.0952812 50.9424C0.190367 50.7085 0.351659 50.5084 0.558724 50.3677C0.765789 50.227 1.00931 50.1518 1.25844 50.1518C1.42344 50.1511 1.58696 50.1835 1.73961 50.2471C1.89226 50.3108 2.03103 50.4045 2.14796 50.5227C2.26489 50.641 2.35767 50.7816 2.42098 50.9364C2.48428 51.0912 2.51687 51.2572 2.51687 51.4249Z" fill="#949494"/>
<path d="M15.3464 51.4249C15.3475 51.678 15.2746 51.9257 15.137 52.1367C14.9993 52.3477 14.8032 52.5125 14.5733 52.6101C14.3435 52.7077 14.0903 52.7338 13.8458 52.6851C13.6013 52.6364 13.3766 52.5151 13.2 52.3365C13.0235 52.1579 12.9031 51.9301 12.8541 51.6819C12.8051 51.4337 12.8297 51.1764 12.9248 50.9424C13.0199 50.7085 13.1812 50.5084 13.3882 50.3677C13.5953 50.227 13.8388 50.1518 14.0879 50.1518C14.4208 50.1518 14.74 50.2858 14.9759 50.5244C15.2117 50.763 15.3449 51.0867 15.3464 51.4249Z" fill="#949494"/>
<path d="M28.1704 51.4249C28.1704 51.6767 28.097 51.9228 27.9593 52.1321C27.8216 52.3415 27.6259 52.5047 27.397 52.601C27.168 52.6974 26.9161 52.7226 26.673 52.6735C26.43 52.6243 26.2067 52.5031 26.0315 52.3251C25.8562 52.147 25.7369 51.9202 25.6885 51.6732C25.6402 51.4263 25.665 51.1703 25.7598 50.9377C25.8547 50.7051 26.0153 50.5063 26.2213 50.3664C26.4274 50.2265 26.6696 50.1518 26.9175 50.1518C27.2498 50.1518 27.5685 50.286 27.8035 50.5247C28.0384 50.7634 28.1704 51.0872 28.1704 51.4249Z" fill="#949494"/>
<path d="M41 51.4249C41.001 51.6782 40.928 51.9262 40.7901 52.1373C40.6523 52.3484 40.4558 52.5131 40.2256 52.6106C39.9954 52.7081 39.742 52.7338 39.4974 52.6847C39.2527 52.6355 39.028 52.5136 38.8517 52.3345C38.6754 52.1554 38.5554 51.927 38.507 51.6785C38.4586 51.43 38.484 51.1724 38.5799 50.9386C38.6759 50.7047 38.838 50.5051 39.0458 50.365C39.2536 50.2249 39.4976 50.1507 39.747 50.1518C40.0793 50.1518 40.398 50.286 40.633 50.5247C40.8679 50.7634 41 51.0872 41 51.4249Z" fill="#949494"/>
<path d="M2.51687 61.5871C2.51687 61.84 2.44307 62.0872 2.30479 62.2975C2.16651 62.5077 1.96997 62.6716 1.74002 62.7684C1.51007 62.8651 1.25704 62.8905 1.01293 62.8411C0.768815 62.7918 0.544583 62.67 0.368588 62.4912C0.192593 62.3124 0.0727381 62.0846 0.0241811 61.8365C-0.024376 61.5885 0.000545263 61.3314 0.0957933 61.0978C0.191041 60.8642 0.352338 60.6645 0.559287 60.524C0.766236 60.3835 1.00954 60.3085 1.25844 60.3085C1.4239 60.3078 1.58786 60.3404 1.74087 60.4044C1.89388 60.4684 2.03289 60.5625 2.14989 60.6814C2.26689 60.8003 2.35956 60.9415 2.42255 61.097C2.48554 61.2524 2.51759 61.419 2.51687 61.5871Z" fill="#949494"/>
<path d="M15.3464 61.5871C15.3464 61.84 15.2726 62.0872 15.1343 62.2975C14.996 62.5077 14.7995 62.6716 14.5695 62.7684C14.3396 62.8651 14.0865 62.8905 13.8424 62.8411C13.5983 62.7918 13.3741 62.67 13.1981 62.4912C13.0221 62.3124 12.9022 62.0846 12.8537 61.8365C12.8051 61.5885 12.8301 61.3314 12.9253 61.0978C13.0205 60.8642 13.1818 60.6645 13.3888 60.524C13.5957 60.3835 13.8391 60.3085 14.0879 60.3085C14.4217 60.3085 14.7418 60.4432 14.9778 60.683C15.2138 60.9228 15.3464 61.248 15.3464 61.5871Z" fill="#949494"/>
<path d="M28.1704 61.5871C28.1694 61.8387 28.095 62.0842 27.9566 62.2929C27.8183 62.5015 27.6222 62.6638 27.3932 62.7593C27.1641 62.8548 26.9124 62.8792 26.6697 62.8295C26.427 62.7797 26.2042 62.6581 26.0296 62.4798C25.8549 62.3015 25.7361 62.0747 25.6882 61.8279C25.6403 61.5811 25.6654 61.3254 25.7604 61.0931C25.8554 60.8608 26.016 60.6623 26.2219 60.5227C26.4278 60.3831 26.6699 60.3085 26.9175 60.3085C27.0825 60.3085 27.2458 60.3416 27.3982 60.406C27.5506 60.4703 27.689 60.5645 27.8054 60.6833C27.9218 60.8022 28.014 60.9431 28.0766 61.0982C28.1393 61.2533 28.1712 61.4195 28.1704 61.5871Z" fill="#949494"/>
<path d="M41 61.5871C40.9999 61.8414 40.9252 62.0899 40.7854 62.3008C40.6456 62.5117 40.4471 62.6755 40.2152 62.7712C39.9834 62.8669 39.7287 62.8902 39.4837 62.8382C39.2388 62.7861 39.0147 62.6609 38.84 62.4788C38.6654 62.2966 38.5482 62.0657 38.5034 61.8156C38.4586 61.5654 38.4882 61.3073 38.5885 61.0744C38.6888 60.8414 38.8552 60.6441 39.0664 60.5077C39.2776 60.3713 39.524 60.3019 39.7742 60.3085C40.1027 60.3158 40.4153 60.4539 40.6446 60.693C40.8738 60.9322 41.0015 61.2533 41 61.5871Z" fill="#949494"/>
<path d="M2.51687 71.7327C2.51472 71.9851 2.43909 72.2312 2.29951 72.44C2.15993 72.6488 1.96265 72.811 1.73252 72.9061C1.50239 73.0011 1.24971 73.0249 1.00632 72.9743C0.762927 72.9237 0.539715 72.8011 0.364808 72.6218C0.189901 72.4426 0.0711238 72.2148 0.0234433 71.9671C-0.0242372 71.7193 0.00131213 71.4628 0.096872 71.2299C0.192432 70.9969 0.353727 70.7978 0.560433 70.6578C0.767139 70.5178 1.01001 70.4431 1.25844 70.4431C1.42462 70.4431 1.58915 70.4765 1.74255 70.5415C1.89594 70.6064 2.03516 70.7016 2.15216 70.8215C2.26916 70.9414 2.36163 71.0836 2.42423 71.24C2.48682 71.3964 2.51831 71.5639 2.51687 71.7327Z" fill="#949494"/>
<path d="M15.3464 71.7327C15.3442 71.9851 15.2686 72.2312 15.129 72.44C14.9894 72.6488 14.7922 72.811 14.562 72.9061C14.3319 73.0011 14.0792 73.0249 13.8358 72.9743C13.5924 72.9237 13.3692 72.8011 13.1943 72.6218C13.0194 72.4426 12.9006 72.2148 12.853 71.9671C12.8053 71.7193 12.8308 71.4628 12.9264 71.2299C13.0219 70.9969 13.1832 70.7978 13.3899 70.6578C13.5966 70.5178 13.8395 70.4431 14.0879 70.4431C14.2539 70.4438 14.4181 70.4777 14.5712 70.5429C14.7243 70.6081 14.8632 70.7033 14.9801 70.8231C15.0969 70.9429 15.1894 71.0848 15.2523 71.2409C15.3151 71.397 15.3471 71.5641 15.3464 71.7327Z" fill="#949494"/>
<path d="M28.1704 71.7327C28.1672 71.9838 28.091 72.2283 27.9514 72.4354C27.8118 72.6426 27.615 72.8032 27.3857 72.897C27.1565 72.9908 26.9051 73.0136 26.6631 72.9627C26.4212 72.9117 26.1994 72.7891 26.0258 72.6105C25.8522 72.4318 25.7345 72.2049 25.6875 71.9584C25.6404 71.712 25.6662 71.4568 25.7615 71.2252C25.8568 70.9935 26.0174 70.7957 26.2231 70.6565C26.4287 70.5174 26.6703 70.4431 26.9175 70.4431C27.0832 70.4438 27.2471 70.4778 27.3999 70.543C27.5527 70.6083 27.6912 70.7036 27.8077 70.8234C27.9241 70.9433 28.0161 71.0853 28.0783 71.2413C28.1406 71.3974 28.1719 71.5644 28.1704 71.7327Z" fill="#949494"/>
<path d="M41 71.7327C40.9977 71.9865 40.9212 72.2339 40.7801 72.4433C40.639 72.6528 40.4398 72.8148 40.2077 72.9089C39.9757 73.0029 39.7214 73.0246 39.4771 72.9713C39.2329 72.9179 39.0098 72.792 38.8363 72.6094C38.6628 72.4268 38.5467 72.1959 38.5027 71.9461C38.4588 71.6962 38.4891 71.4388 38.5896 71.2064C38.6902 70.9741 38.8566 70.7775 39.0675 70.6415C39.2785 70.5056 39.5245 70.4365 39.7742 70.4431C40.1042 70.4518 40.4175 70.5918 40.6468 70.8331C40.8761 71.0743 41.0029 71.3974 41 71.7327Z" fill="#949494"/>
<path d="M2.51687 1.27372C2.51795 1.52683 2.44506 1.77458 2.30744 1.98556C2.16982 2.19655 1.97366 2.36129 1.74381 2.45892C1.51395 2.55654 1.26075 2.58265 1.01628 2.53394C0.771814 2.48523 0.547073 2.3639 0.370532 2.18531C0.193991 2.00672 0.0735947 1.77891 0.0245945 1.53074C-0.0244057 1.28257 0.000195347 1.0252 0.0952812 0.791252C0.190367 0.557299 0.351659 0.357284 0.558724 0.216546C0.765789 0.075807 1.00931 0.000677775 1.25844 0.000675403C1.42344 -5.34909e-05 1.58696 0.0323369 1.73961 0.095987C1.89226 0.159637 2.03103 0.253294 2.14796 0.371579C2.26489 0.489865 2.35767 0.630451 2.42098 0.785266C2.48428 0.940081 2.51687 1.10608 2.51687 1.27372Z" fill="#949494"/>
<path d="M15.3464 1.27372C15.3475 1.52683 15.2746 1.77458 15.137 1.98556C14.9993 2.19655 14.8032 2.36129 14.5733 2.45892C14.3435 2.55654 14.0903 2.58265 13.8458 2.53394C13.6013 2.48523 13.3766 2.3639 13.2 2.18531C13.0235 2.00672 12.9031 1.77891 12.8541 1.53074C12.8051 1.28257 12.8297 1.0252 12.9248 0.791252C13.0199 0.557299 13.1812 0.357284 13.3882 0.216546C13.5953 0.075807 13.8388 0.000677775 14.0879 0.000675403C14.4208 0.000672234 14.74 0.134619 14.9759 0.373204C15.2117 0.611789 15.3449 0.935581 15.3464 1.27372Z" fill="#949494"/>
<path d="M28.1704 1.27372C28.1704 1.52551 28.097 1.77164 27.9593 1.98099C27.8216 2.19034 27.6259 2.35351 27.397 2.44986C27.168 2.54622 26.9161 2.57143 26.673 2.52231C26.43 2.47319 26.2067 2.35194 26.0315 2.1739C25.8562 1.99586 25.7369 1.76903 25.6885 1.52208C25.6402 1.27513 25.665 1.01917 25.7598 0.786548C25.8547 0.553929 26.0153 0.355106 26.2213 0.215222C26.4274 0.0753383 26.6696 0.000675403 26.9175 0.000675403C27.2498 0.000675403 27.5685 0.1348 27.8035 0.373542C28.0384 0.612284 28.1704 0.936089 28.1704 1.27372Z" fill="#949494"/>
<path d="M41 1.27372C41.0009 1.52823 40.9272 1.77725 40.7881 1.9889C40.6489 2.20056 40.4508 2.36521 40.219 2.46178C39.9873 2.55836 39.7324 2.58246 39.4871 2.531C39.2418 2.47954 39.0171 2.35486 38.842 2.17293C38.6668 1.991 38.549 1.76009 38.5038 1.50976C38.4585 1.25944 38.4879 1.00109 38.588 0.76779C38.6881 0.534493 38.8545 0.336863 39.0658 0.200201C39.2771 0.0635401 39.5238 -0.00593324 39.7742 0.000675403C40.1018 0.00791218 40.4135 0.145224 40.6426 0.383187C40.8718 0.62115 41 0.940829 41 1.27372Z" fill="#949494"/>
<path d="M2.51687 11.4249C2.51795 11.678 2.44506 11.9257 2.30744 12.1367C2.16982 12.3477 1.97366 12.5125 1.74381 12.6101C1.51395 12.7077 1.26075 12.7338 1.01628 12.6851C0.771814 12.6364 0.547073 12.5151 0.370532 12.3365C0.193991 12.1579 0.0735947 11.9301 0.0245945 11.6819C-0.0244057 11.4337 0.000195347 11.1764 0.0952812 10.9424C0.190367 10.7085 0.351659 10.5084 0.558724 10.3677C0.765789 10.227 1.00931 10.1518 1.25844 10.1518C1.42344 10.1511 1.58696 10.1835 1.73961 10.2471C1.89226 10.3108 2.03103 10.4045 2.14796 10.5227C2.26489 10.641 2.35767 10.7816 2.42098 10.9364C2.48428 11.0912 2.51687 11.2572 2.51687 11.4249Z" fill="#949494"/>
<path d="M15.3464 11.4249C15.3475 11.678 15.2746 11.9257 15.137 12.1367C14.9993 12.3477 14.8032 12.5125 14.5733 12.6101C14.3435 12.7077 14.0903 12.7338 13.8458 12.6851C13.6013 12.6364 13.3766 12.5151 13.2 12.3365C13.0235 12.1579 12.9031 11.9301 12.8541 11.6819C12.8051 11.4337 12.8297 11.1764 12.9248 10.9424C13.0199 10.7085 13.1812 10.5084 13.3882 10.3677C13.5953 10.227 13.8388 10.1518 14.0879 10.1518C14.4208 10.1518 14.74 10.2858 14.9759 10.5244C15.2117 10.7629 15.3449 11.0867 15.3464 11.4249Z" fill="#949494"/>
<path d="M28.1704 11.4249C28.1704 11.6767 28.097 11.9228 27.9593 12.1321C27.8216 12.3415 27.6259 12.5047 27.397 12.601C27.168 12.6974 26.9161 12.7226 26.673 12.6735C26.43 12.6243 26.2067 12.5031 26.0315 12.3251C25.8562 12.147 25.7369 11.9202 25.6885 11.6732C25.6402 11.4263 25.665 11.1703 25.7598 10.9377C25.8547 10.7051 26.0153 10.5063 26.2213 10.3664C26.4274 10.2265 26.6696 10.1518 26.9175 10.1518C27.2498 10.1518 27.5685 10.286 27.8035 10.5247C28.0384 10.7634 28.1704 11.0872 28.1704 11.4249Z" fill="#949494"/>
<path d="M41 11.4249C41.001 11.6782 40.928 11.9262 40.7901 12.1373C40.6523 12.3484 40.4558 12.5131 40.2256 12.6106C39.9954 12.7081 39.742 12.7338 39.4974 12.6847C39.2527 12.6355 39.028 12.5136 38.8517 12.3345C38.6754 12.1554 38.5554 11.927 38.507 11.6785C38.4586 11.43 38.484 11.1724 38.5799 10.9386C38.6759 10.7047 38.838 10.5051 39.0458 10.365C39.2536 10.2249 39.4976 10.1507 39.747 10.1518C40.0793 10.1518 40.398 10.286 40.633 10.5247C40.8679 10.7634 41 11.0872 41 11.4249Z" fill="#949494"/>
<path d="M2.51687 21.5871C2.51687 21.84 2.44307 22.0872 2.30479 22.2975C2.16651 22.5077 1.96997 22.6716 1.74002 22.7684C1.51007 22.8651 1.25704 22.8905 1.01293 22.8411C0.768815 22.7918 0.544583 22.67 0.368588 22.4912C0.192593 22.3124 0.0727381 22.0846 0.0241811 21.8365C-0.024376 21.5885 0.000545263 21.3314 0.0957933 21.0978C0.191041 20.8642 0.352338 20.6645 0.559287 20.524C0.766236 20.3835 1.00954 20.3085 1.25844 20.3085C1.4239 20.3078 1.58786 20.3404 1.74087 20.4044C1.89388 20.4684 2.03289 20.5625 2.14989 20.6814C2.26689 20.8003 2.35956 20.9415 2.42255 21.097C2.48554 21.2524 2.51759 21.419 2.51687 21.5871Z" fill="#949494"/>
<path d="M15.3464 21.5871C15.3464 21.84 15.2726 22.0872 15.1343 22.2975C14.996 22.5077 14.7995 22.6716 14.5695 22.7684C14.3396 22.8651 14.0865 22.8905 13.8424 22.8411C13.5983 22.7918 13.3741 22.67 13.1981 22.4912C13.0221 22.3124 12.9022 22.0846 12.8537 21.8365C12.8051 21.5885 12.8301 21.3314 12.9253 21.0978C13.0205 20.8642 13.1818 20.6645 13.3888 20.524C13.5957 20.3835 13.8391 20.3085 14.0879 20.3085C14.4217 20.3085 14.7418 20.4432 14.9778 20.683C15.2138 20.9228 15.3464 21.248 15.3464 21.5871Z" fill="#949494"/>
<path d="M28.1704 21.5871C28.1694 21.8387 28.095 22.0842 27.9566 22.2929C27.8183 22.5015 27.6222 22.6638 27.3932 22.7593C27.1641 22.8548 26.9124 22.8792 26.6697 22.8295C26.427 22.7797 26.2042 22.6581 26.0296 22.4798C25.8549 22.3015 25.7361 22.0747 25.6882 21.8279C25.6403 21.5811 25.6654 21.3254 25.7604 21.0931C25.8554 20.8608 26.016 20.6623 26.2219 20.5227C26.4278 20.3831 26.6699 20.3085 26.9175 20.3085C27.0825 20.3085 27.2458 20.3416 27.3982 20.406C27.5506 20.4703 27.689 20.5646 27.8054 20.6834C27.9218 20.8022 28.014 20.9431 28.0766 21.0982C28.1393 21.2533 28.1712 21.4195 28.1704 21.5871Z" fill="#949494"/>
<path d="M41 21.5871C40.9999 21.8414 40.9252 22.0899 40.7854 22.3008C40.6456 22.5117 40.4471 22.6755 40.2152 22.7712C39.9834 22.8669 39.7287 22.8902 39.4837 22.8382C39.2388 22.7861 39.0147 22.6609 38.84 22.4788C38.6654 22.2966 38.5482 22.0657 38.5034 21.8156C38.4586 21.5654 38.4882 21.3073 38.5885 21.0744C38.6888 20.8414 38.8552 20.6441 39.0664 20.5077C39.2776 20.3713 39.524 20.3019 39.7742 20.3085C40.1027 20.3158 40.4153 20.4539 40.6446 20.693C40.8738 20.9322 41.0015 21.2533 41 21.5871Z" fill="#949494"/>
<path d="M2.51687 31.7327C2.51472 31.9851 2.43909 32.2312 2.29951 32.44C2.15993 32.6488 1.96265 32.811 1.73252 32.9061C1.50239 33.0011 1.24971 33.0249 1.00632 32.9743C0.762927 32.9237 0.539715 32.8011 0.364808 32.6219C0.189901 32.4426 0.0711238 32.2148 0.0234433 31.9671C-0.0242372 31.7193 0.00131213 31.4628 0.096872 31.2298C0.192432 30.9969 0.353727 30.7978 0.560433 30.6578C0.767139 30.5178 1.01001 30.4431 1.25844 30.4431C1.42462 30.4431 1.58915 30.4765 1.74255 30.5415C1.89594 30.6064 2.03516 30.7016 2.15216 30.8215C2.26916 30.9414 2.36163 31.0836 2.42423 31.24C2.48682 31.3964 2.51831 31.5639 2.51687 31.7327Z" fill="#949494"/>
<path d="M15.3464 31.7327C15.3442 31.9851 15.2686 32.2312 15.129 32.44C14.9894 32.6488 14.7922 32.811 14.562 32.9061C14.3319 33.0011 14.0792 33.0249 13.8358 32.9743C13.5924 32.9237 13.3692 32.8011 13.1943 32.6219C13.0194 32.4426 12.9006 32.2148 12.853 31.9671C12.8053 31.7193 12.8308 31.4628 12.9264 31.2298C13.0219 30.9969 13.1832 30.7978 13.3899 30.6578C13.5966 30.5178 13.8395 30.4431 14.0879 30.4431C14.2539 30.4438 14.4181 30.4777 14.5712 30.5429C14.7243 30.6082 14.8632 30.7033 14.9801 30.8231C15.0969 30.9429 15.1894 31.0848 15.2523 31.2409C15.3151 31.397 15.3471 31.5641 15.3464 31.7327Z" fill="#949494"/>
<path d="M28.1704 31.7327C28.1672 31.9838 28.091 32.2283 27.9514 32.4354C27.8118 32.6426 27.615 32.8032 27.3857 32.897C27.1565 32.9908 26.9051 33.0136 26.6631 32.9627C26.4212 32.9117 26.1994 32.7891 26.0258 32.6105C25.8522 32.4318 25.7345 32.2049 25.6875 31.9584C25.6404 31.712 25.6662 31.4569 25.7615 31.2252C25.8568 30.9935 26.0174 30.7957 26.2231 30.6565C26.4287 30.5174 26.6703 30.4431 26.9175 30.4431C27.0832 30.4438 27.2471 30.4778 27.3999 30.543C27.5527 30.6083 27.6912 30.7036 27.8077 30.8234C27.9241 30.9433 28.0161 31.0853 28.0783 31.2413C28.1406 31.3974 28.1719 31.5644 28.1704 31.7327Z" fill="#949494"/>
<path d="M41 31.7327C40.9977 31.9865 40.9212 32.2339 40.7801 32.4433C40.639 32.6528 40.4398 32.8148 40.2077 32.9089C39.9757 33.0029 39.7214 33.0246 39.4771 32.9713C39.2329 32.9179 39.0098 32.792 38.8363 32.6094C38.6628 32.4268 38.5467 32.1959 38.5027 31.9461C38.4588 31.6962 38.4891 31.4387 38.5896 31.2064C38.6902 30.9741 38.8566 30.7775 39.0675 30.6415C39.2785 30.5056 39.5245 30.4365 39.7742 30.4431C40.1042 30.4518 40.4175 30.5918 40.6468 30.8331C40.8761 31.0743 41.0029 31.3974 41 31.7327Z" fill="#949494"/>
<path d="M54.5169 41.2737C54.518 41.5268 54.4451 41.7746 54.3074 41.9856C54.1698 42.1966 53.9737 42.3613 53.7438 42.4589C53.514 42.5565 53.2608 42.5826 53.0163 42.5339C52.7718 42.4852 52.5471 42.3639 52.3705 42.1853C52.194 42.0067 52.0736 41.7789 52.0246 41.5307C51.9756 41.2826 52.0002 41.0252 52.0953 40.7913C52.1904 40.5573 52.3517 40.3573 52.5587 40.2165C52.7658 40.0758 53.0093 40.0007 53.2584 40.0007C53.4234 39.9999 53.587 40.0323 53.7396 40.096C53.8923 40.1596 54.031 40.2533 54.148 40.3716C54.2649 40.4899 54.3577 40.6305 54.421 40.7853C54.4843 40.9401 54.5169 41.1061 54.5169 41.2737Z" fill="#949494"/>
<path d="M67.3464 41.2737C67.3475 41.5268 67.2746 41.7746 67.1369 41.9856C66.9993 42.1966 66.8032 42.3613 66.5733 42.4589C66.3435 42.5565 66.0903 42.5826 65.8458 42.5339C65.6013 42.4852 65.3766 42.3639 65.2 42.1853C65.0235 42.0067 64.9031 41.7789 64.8541 41.5307C64.8051 41.2826 64.8297 41.0252 64.9248 40.7913C65.0199 40.5573 65.1812 40.3573 65.3882 40.2165C65.5953 40.0758 65.8388 40.0007 66.0879 40.0007C66.4208 40.0007 66.74 40.1346 66.9759 40.3732C67.2117 40.6118 67.3449 40.9356 67.3464 41.2737Z" fill="#949494"/>
<path d="M80.1704 41.2737C80.1704 41.5255 80.097 41.7716 79.9593 41.981C79.8216 42.1903 79.6259 42.3535 79.3969 42.4499C79.168 42.5462 78.9161 42.5714 78.673 42.5223C78.43 42.4732 78.2067 42.3519 78.0315 42.1739C77.8562 41.9959 77.7369 41.769 77.6885 41.5221C77.6402 41.2751 77.665 41.0192 77.7598 40.7865C77.8547 40.5539 78.0153 40.3551 78.2213 40.2152C78.4274 40.0753 78.6696 40.0007 78.9175 40.0007C79.2498 40.0007 79.5685 40.1348 79.8035 40.3735C80.0384 40.6123 80.1704 40.9361 80.1704 41.2737Z" fill="#949494"/>
<path d="M93 41.2737C93.001 41.5282 92.9272 41.7772 92.788 41.9889C92.6489 42.2006 92.4508 42.3652 92.219 42.4618C91.9873 42.5584 91.7324 42.5825 91.4871 42.531C91.2418 42.4795 91.0171 42.3549 90.8419 42.1729C90.6668 41.991 90.549 41.7601 90.5038 41.5098C90.4585 41.2594 90.4879 41.0011 90.588 40.7678C90.6881 40.5345 90.8545 40.3369 91.0658 40.2002C91.2771 40.0635 91.5238 39.9941 91.7742 40.0007C92.1018 40.0079 92.4135 40.1452 92.6426 40.3832C92.8718 40.6211 93 40.9408 93 41.2737Z" fill="#949494"/>
<path d="M54.5169 51.4249C54.518 51.678 54.4451 51.9257 54.3074 52.1367C54.1698 52.3477 53.9737 52.5125 53.7438 52.6101C53.514 52.7077 53.2608 52.7338 53.0163 52.6851C52.7718 52.6364 52.5471 52.5151 52.3705 52.3365C52.194 52.1579 52.0736 51.9301 52.0246 51.6819C51.9756 51.4337 52.0002 51.1764 52.0953 50.9424C52.1904 50.7085 52.3517 50.5084 52.5587 50.3677C52.7658 50.227 53.0093 50.1518 53.2584 50.1518C53.4234 50.1511 53.587 50.1835 53.7396 50.2471C53.8923 50.3108 54.031 50.4045 54.148 50.5227C54.2649 50.641 54.3577 50.7816 54.421 50.9364C54.4843 51.0912 54.5169 51.2572 54.5169 51.4249Z" fill="#949494"/>
<path d="M67.3464 51.4249C67.3475 51.678 67.2746 51.9257 67.1369 52.1367C66.9993 52.3477 66.8032 52.5125 66.5733 52.6101C66.3435 52.7077 66.0903 52.7338 65.8458 52.6851C65.6013 52.6364 65.3766 52.5151 65.2 52.3365C65.0235 52.1579 64.9031 51.9301 64.8541 51.6819C64.8051 51.4337 64.8297 51.1764 64.9248 50.9424C65.0199 50.7085 65.1812 50.5084 65.3882 50.3677C65.5953 50.227 65.8388 50.1518 66.0879 50.1518C66.4208 50.1518 66.74 50.2858 66.9759 50.5244C67.2117 50.763 67.3449 51.0867 67.3464 51.4249Z" fill="#949494"/>
<path d="M80.1704 51.4249C80.1704 51.6767 80.097 51.9228 79.9593 52.1321C79.8216 52.3415 79.6259 52.5047 79.3969 52.601C79.168 52.6974 78.9161 52.7226 78.673 52.6735C78.43 52.6243 78.2067 52.5031 78.0315 52.3251C77.8562 52.147 77.7369 51.9202 77.6885 51.6732C77.6402 51.4263 77.665 51.1703 77.7598 50.9377C77.8547 50.7051 78.0153 50.5063 78.2213 50.3664C78.4274 50.2265 78.6696 50.1518 78.9175 50.1518C79.2498 50.1518 79.5685 50.286 79.8035 50.5247C80.0384 50.7634 80.1704 51.0872 80.1704 51.4249Z" fill="#949494"/>
<path d="M93 51.4249C93.001 51.6782 92.928 51.9262 92.7901 52.1373C92.6523 52.3484 92.4558 52.5131 92.2256 52.6106C91.9955 52.7081 91.742 52.7338 91.4974 52.6847C91.2527 52.6355 91.028 52.5136 90.8517 52.3345C90.6754 52.1554 90.5554 51.927 90.507 51.6785C90.4586 51.43 90.484 51.1724 90.5799 50.9386C90.6759 50.7047 90.838 50.5051 91.0458 50.365C91.2535 50.2249 91.4976 50.1507 91.747 50.1518C92.0793 50.1518 92.398 50.286 92.633 50.5247C92.8679 50.7634 93 51.0872 93 51.4249Z" fill="#949494"/>
<path d="M54.5169 61.5871C54.5169 61.84 54.4431 62.0872 54.3048 62.2975C54.1665 62.5077 53.97 62.6716 53.74 62.7684C53.5101 62.8651 53.257 62.8905 53.0129 62.8411C52.7688 62.7918 52.5446 62.67 52.3686 62.4912C52.1926 62.3124 52.0727 62.0846 52.0242 61.8365C51.9756 61.5885 52.0005 61.3314 52.0958 61.0978C52.191 60.8642 52.3523 60.6645 52.5593 60.524C52.7662 60.3835 53.0095 60.3085 53.2584 60.3085C53.4239 60.3078 53.5879 60.3404 53.7409 60.4044C53.8939 60.4684 54.0329 60.5625 54.1499 60.6814C54.2669 60.8003 54.3596 60.9415 54.4225 61.097C54.4855 61.2524 54.5176 61.419 54.5169 61.5871Z" fill="#949494"/>
<path d="M67.3464 61.5871C67.3464 61.84 67.2726 62.0872 67.1343 62.2975C66.996 62.5077 66.7995 62.6716 66.5695 62.7684C66.3396 62.8651 66.0865 62.8905 65.8424 62.8411C65.5983 62.7918 65.3741 62.67 65.1981 62.4912C65.0221 62.3124 64.9022 62.0846 64.8537 61.8365C64.8051 61.5885 64.8301 61.3314 64.9253 61.0978C65.0205 60.8642 65.1818 60.6645 65.3888 60.524C65.5957 60.3835 65.8391 60.3085 66.0879 60.3085C66.4217 60.3085 66.7418 60.4432 66.9778 60.683C67.2138 60.9228 67.3464 61.248 67.3464 61.5871Z" fill="#949494"/>
<path d="M80.1704 61.5871C80.1694 61.8387 80.095 62.0842 79.9566 62.2929C79.8183 62.5015 79.6222 62.6638 79.3932 62.7593C79.1641 62.8548 78.9124 62.8792 78.6697 62.8295C78.427 62.7797 78.2042 62.6581 78.0295 62.4798C77.8549 62.3015 77.7361 62.0747 77.6882 61.8279C77.6403 61.5811 77.6654 61.3254 77.7604 61.0931C77.8554 60.8608 78.016 60.6623 78.2219 60.5227C78.4278 60.3831 78.6699 60.3085 78.9175 60.3085C79.0825 60.3085 79.2458 60.3416 79.3982 60.406C79.5506 60.4703 79.689 60.5645 79.8054 60.6833C79.9218 60.8022 80.014 60.9431 80.0766 61.0982C80.1393 61.2533 80.1712 61.4195 80.1704 61.5871Z" fill="#949494"/>
<path d="M93 61.5871C92.9999 61.8414 92.9252 62.0899 92.7854 62.3008C92.6456 62.5117 92.4471 62.6755 92.2152 62.7712C91.9834 62.8669 91.7287 62.8902 91.4837 62.8382C91.2388 62.7861 91.0147 62.6609 90.84 62.4788C90.6654 62.2966 90.5482 62.0657 90.5034 61.8156C90.4586 61.5654 90.4882 61.3073 90.5885 61.0744C90.6888 60.8414 90.8552 60.6441 91.0664 60.5077C91.2776 60.3713 91.524 60.3019 91.7742 60.3085C92.1027 60.3158 92.4153 60.4539 92.6446 60.693C92.8738 60.9322 93.0015 61.2533 93 61.5871Z" fill="#949494"/>
<path d="M54.5169 71.7327C54.5147 71.9851 54.4391 72.2312 54.2995 72.44C54.1599 72.6488 53.9626 72.811 53.7325 72.9061C53.5024 73.0011 53.2497 73.0249 53.0063 72.9743C52.7629 72.9237 52.5397 72.8011 52.3648 72.6218C52.1899 72.4426 52.0711 72.2148 52.0234 71.9671C51.9758 71.7193 52.0013 71.4628 52.0969 71.2299C52.1924 70.9969 52.3537 70.7978 52.5604 70.6578C52.7671 70.5178 53.01 70.4431 53.2584 70.4431C53.4246 70.4431 53.5892 70.4765 53.7425 70.5415C53.8959 70.6064 54.0352 70.7016 54.1522 70.8215C54.2692 70.9414 54.3616 71.0836 54.4242 71.24C54.4868 71.3964 54.5183 71.5639 54.5169 71.7327Z" fill="#949494"/>
<path d="M67.3464 71.7327C67.3442 71.9851 67.2686 72.2312 67.129 72.44C66.9894 72.6488 66.7922 72.811 66.562 72.9061C66.3319 73.0011 66.0792 73.0249 65.8358 72.9743C65.5924 72.9237 65.3692 72.8011 65.1943 72.6218C65.0194 72.4426 64.9006 72.2148 64.853 71.9671C64.8053 71.7193 64.8308 71.4628 64.9264 71.2299C65.0219 70.9969 65.1832 70.7978 65.3899 70.6578C65.5966 70.5178 65.8395 70.4431 66.0879 70.4431C66.2539 70.4438 66.4181 70.4777 66.5712 70.5429C66.7243 70.6081 66.8632 70.7033 66.9801 70.8231C67.0969 70.9429 67.1894 71.0848 67.2523 71.2409C67.3151 71.397 67.3471 71.5641 67.3464 71.7327Z" fill="#949494"/>
<path d="M80.1704 71.7327C80.1672 71.9838 80.091 72.2283 79.9514 72.4354C79.8118 72.6426 79.615 72.8032 79.3857 72.897C79.1565 72.9908 78.9051 73.0136 78.6631 72.9627C78.4212 72.9117 78.1994 72.7891 78.0258 72.6105C77.8522 72.4318 77.7345 72.2049 77.6875 71.9584C77.6404 71.712 77.6662 71.4568 77.7615 71.2252C77.8568 70.9935 78.0174 70.7957 78.2231 70.6565C78.4287 70.5174 78.6703 70.4431 78.9175 70.4431C79.0832 70.4438 79.2471 70.4778 79.3999 70.543C79.5527 70.6083 79.6912 70.7036 79.8076 70.8234C79.9241 70.9433 80.0161 71.0853 80.0783 71.2413C80.1406 71.3974 80.1719 71.5644 80.1704 71.7327Z" fill="#949494"/>
<path d="M93 71.7327C92.9977 71.9865 92.9212 72.2339 92.7801 72.4433C92.639 72.6528 92.4398 72.8148 92.2077 72.9089C91.9757 73.0029 91.7214 73.0246 91.4771 72.9713C91.2329 72.9179 91.0098 72.792 90.8363 72.6094C90.6628 72.4268 90.5467 72.1959 90.5027 71.9461C90.4588 71.6962 90.4891 71.4388 90.5896 71.2064C90.6902 70.9741 90.8566 70.7775 91.0675 70.6415C91.2785 70.5056 91.5245 70.4365 91.7742 70.4431C92.1042 70.4518 92.4175 70.5918 92.6468 70.8331C92.8761 71.0743 93.0029 71.3974 93 71.7327Z" fill="#949494"/>
</svg>
