<svg width="122" height="111" viewBox="0 0 122 111" fill="none" xmlns="http://www.w3.org/2000/svg">
<path d="M109.239 78.3465C110.22 78.4527 110.746 77.2261 109.993 76.589L90.3719 59.9825C89.8462 59.5376 89.9171 58.7069 90.5106 58.3575L113.38 44.8918C114.24 44.3857 113.91 43.071 112.913 43.0309L85.7712 41.9383C85.0999 41.9112 84.6457 41.2431 84.8676 40.6089L93.1308 16.9883C93.4501 16.0755 92.4166 15.2861 91.62 15.8343L69.4664 31.0801C68.9537 31.4329 68.2467 31.2367 67.9891 30.6701L57.5232 7.64554C57.1338 6.78881 55.8843 6.89536 55.6456 7.80567L49.2312 32.2639C49.0733 32.8662 48.4093 33.1792 47.8442 32.9179L23.4332 21.6297C22.5557 21.2239 21.6703 22.1758 22.1386 23.0217L34.2575 44.9118C34.5829 45.4994 34.2479 46.2342 33.5911 46.3742L7.03687 52.0316C6.06141 52.2395 5.95794 53.5907 6.89039 53.9446L31.6915 63.3579C32.3351 63.6022 32.5452 64.4086 32.1025 64.9358L15.5798 84.6156C14.9459 85.3707 15.6716 86.4905 16.6198 86.2203L42.8658 78.7395C43.4869 78.5625 44.1105 79.0119 44.1389 79.6572L45.2329 104.504C45.2746 105.452 46.4894 105.814 47.0436 105.044L62.2935 83.8542C62.6518 83.3564 63.3695 83.2954 63.8066 83.7255L82.4147 102.037C83.0909 102.703 84.2271 102.141 84.1082 101.199L80.9922 76.5241C80.9113 75.8833 81.45 75.3351 82.0921 75.4046L109.239 78.3465Z" fill="white"/>
<path d="M105.152 75.4816L85.2412 58.5707L108.425 44.8777L81.0521 43.764L89.389 19.8335L67.3675 35.0368L56.9533 12.0593L50.5815 36.4638L26.3096 25.196L38.5523 47.377L11.774 53.0942L36.9226 62.6783L20.1666 82.7064L46.4337 75.201L47.5368 100.174L62.6521 79.0946L81.1088 97.3196L77.9805 72.5192L105.152 75.4816Z" fill="#0CEB4B"/>
<path d="M51.998 53.8353L52.643 55.9344L48.961 57.0659L52.0172 67.0109L49.9181 67.656L46.8619 57.711L43.1798 58.8425L42.5347 56.7434L51.998 53.8353ZM62.3895 64.0682C61.5751 64.3185 60.7601 64.3932 59.9445 64.2923C59.1271 64.1857 58.3579 63.9294 57.6368 63.5233C56.9157 63.1172 56.2848 62.5861 55.7442 61.9299C55.2019 61.268 54.7985 60.507 54.5341 59.6467C54.2698 58.7864 54.177 57.933 54.2558 57.0865C54.3329 56.2342 54.5557 55.4376 54.9243 54.6967C55.2929 53.9557 55.7863 53.3145 56.4045 52.773C57.0209 52.2258 57.7364 51.827 58.5508 51.5767C59.3709 51.3247 60.1897 51.252 61.0071 51.3586C61.8227 51.4594 62.591 51.7129 63.3121 52.119C64.0332 52.5251 64.6621 53.06 65.1987 53.7236C65.7393 54.3797 66.1418 55.138 66.4062 55.9983C66.6706 56.8585 66.7642 57.7148 66.6872 58.567C66.6141 59.4118 66.3933 60.2046 66.0247 60.9456C65.6561 61.6866 65.1635 62.3307 64.5471 62.8779C63.9289 63.4194 63.2097 63.8161 62.3895 64.0682ZM61.7445 61.9691C62.2721 61.8069 62.7347 61.5455 63.1323 61.1848C63.5299 60.8241 63.8454 60.4007 64.079 59.9147C64.3165 59.4211 64.4561 58.8949 64.4977 58.336C64.5451 57.7754 64.4816 57.2111 64.3071 56.6433C64.1326 56.0755 63.8683 55.573 63.5142 55.1357C63.1584 54.6927 62.7445 54.3366 62.2726 54.0673C61.8064 53.7963 61.3076 53.6232 60.776 53.548C60.2502 53.4711 59.7235 53.5137 59.1959 53.6758C58.6682 53.838 58.2056 54.0994 57.808 54.4601C57.4104 54.8208 57.0929 55.248 56.8554 55.7415C56.6219 56.2275 56.4814 56.7509 56.434 57.3115C56.3924 57.8704 56.4588 58.4338 56.6333 59.0016C56.8095 59.5751 57.0747 60.0805 57.4287 60.5178C57.7828 60.9551 58.1938 61.3121 58.6618 61.5888C59.1337 61.8581 59.6325 62.0312 60.1583 62.1081C60.6881 62.1776 61.2168 62.1312 61.7445 61.9691ZM69.8181 61.5405L66.1168 49.4964L70.4183 48.1745C71.0721 47.9736 71.7131 47.9555 72.3412 48.1203C72.9751 48.2833 73.5314 48.5925 74.0103 49.0479C74.4893 49.5033 74.8301 50.0608 75.0327 50.7203C75.2407 51.3971 75.2687 52.0601 75.1167 52.7094C74.9687 53.3512 74.6783 53.9175 74.2454 54.4083C73.8107 54.8934 73.2779 55.2329 72.647 55.4268L70.4447 56.1036L71.9172 60.8954L69.8181 61.5405ZM69.7996 54.0045L71.7783 53.3964C72.0765 53.3048 72.326 53.1465 72.5268 52.9216C72.7276 52.6967 72.8609 52.436 72.9267 52.1396C72.9983 51.8414 72.9865 51.5375 72.8913 51.2278C72.7944 50.9123 72.6326 50.6513 72.4059 50.4448C72.185 50.2365 71.9283 50.0957 71.6358 50.0224C71.3434 49.9491 71.0481 49.9582 70.7498 50.0499L68.7712 50.6579L69.7996 54.0045Z" fill="black"/>
</svg>
